<svg width="32" height="32" viewBox="0 0 32 32" fill="none" xmlns="http://www.w3.org/2000/svg">
<path d="M13.94 25.3492C13.9303 25.3492 13.9226 25.3492 13.9169 25.3531C13.9097 25.3566 13.9042 25.3627 13.9015 25.3702L13.0242 28.7044C13.0011 28.7883 12.9472 28.8188 12.8645 28.7959L10.6385 28.2011C10.6224 28.1973 10.6073 28.1903 10.5941 28.1804C10.5809 28.1706 10.5698 28.1582 10.5616 28.144C10.5454 28.1149 10.5412 28.0807 10.55 28.0486L11.4293 24.8155C11.448 24.7462 11.4398 24.6725 11.4064 24.609C11.3729 24.5454 11.3165 24.4966 11.2484 24.4723C9.41898 23.8054 7.68202 22.9118 6.07887 21.8129C6.05845 21.7992 6.04109 21.7814 6.02785 21.7608C6.01462 21.7401 6.00579 21.717 6.00192 21.6928C5.99828 21.6686 5.99983 21.6438 6.00646 21.6202C6.01309 21.5965 6.02465 21.5745 6.04039 21.5556L7.97007 19.2432C8.02394 19.1765 8.08936 19.1669 8.16247 19.2184C11.1849 21.304 15.0347 23.0311 18.6632 22.7147C20.741 22.5336 21.6491 20.6749 19.9195 19.2108C19.1986 18.6035 18.4074 18.0833 17.5627 17.6609C15.5291 16.6353 13.8938 15.7088 12.6567 14.8833C11.056 13.8158 9.52075 12.1897 9.38992 10.3767C9.29372 9.02321 9.92861 7.64872 10.9887 6.85949C12.4355 5.78049 14.5575 5.59367 16.3179 5.7233C16.3943 5.72985 16.4706 5.70961 16.5334 5.66611C16.5952 5.62293 16.6395 5.55943 16.6584 5.48692L17.5627 2.10313C17.5718 2.06808 17.5944 2.03801 17.6258 2.01944C17.6571 2.00088 17.6946 1.99533 17.7301 2.004L19.9329 2.55685C19.9733 2.568 20.0077 2.59444 20.0285 2.63047C20.0494 2.66649 20.0552 2.70921 20.0445 2.74939L19.148 5.97685C19.1422 5.99763 19.1407 6.01935 19.1434 6.04073C19.1462 6.06211 19.1533 6.08272 19.1642 6.10137C19.1751 6.12001 19.1897 6.1363 19.2071 6.14929C19.2245 6.16228 19.2443 6.17171 19.2653 6.17702L21.1161 6.6231C21.2143 6.64598 21.2758 6.60976 21.3028 6.51254L22.1377 3.33845C22.1435 3.31717 22.1535 3.29722 22.1671 3.27976C22.1807 3.26229 22.1976 3.24765 22.2169 3.23668C22.2362 3.2257 22.2575 3.2186 22.2796 3.21578C22.3016 3.21296 22.324 3.21449 22.3455 3.22026L24.4888 3.78454C24.5331 3.79573 24.5711 3.82383 24.5946 3.8627C24.6174 3.90195 24.6236 3.94855 24.6119 3.99233L23.7115 7.30177C23.6963 7.35588 23.7021 7.41366 23.7277 7.46375C23.7534 7.51385 23.797 7.55263 23.85 7.57247C25.216 8.09862 26.5762 8.80207 27.9364 9.68281C27.953 9.69357 27.9671 9.70769 27.9778 9.72426C27.9885 9.74082 27.9956 9.75944 27.9985 9.7789C28.0014 9.79835 28.0001 9.81819 27.9947 9.83712C27.9893 9.85604 27.9799 9.87362 27.9672 9.88869L26.1395 12.02C26.1025 12.0632 26.0512 12.0918 25.9948 12.1009C25.9384 12.11 25.8805 12.0989 25.8316 12.0696C23.5191 10.6913 21.1873 9.75906 18.8344 9.28056C17.7532 9.05943 15.6022 8.84592 14.8961 9.88869C13.7072 11.6406 16.5892 13.282 17.7666 13.9187C18.8498 14.504 19.906 15.0816 20.9314 15.6516C23.2844 16.9575 26.7224 19.3118 25.9394 22.4897C25.6412 23.6945 25.0082 24.5772 24.0424 25.1338C22.8881 25.7991 21.6087 26.1461 20.2042 26.1766C19.7067 26.1883 19.2089 26.1915 18.7113 26.1861C18.6763 26.185 18.642 26.1958 18.614 26.2166C18.5861 26.2373 18.5661 26.267 18.5573 26.3005L17.605 29.8806C17.5942 29.9215 17.5674 29.9565 17.5307 29.9779C17.4939 29.9993 17.4501 30.0055 17.4088 29.995L15.2213 29.4307C15.1891 29.4224 15.1614 29.4019 15.1443 29.3736C15.1361 29.3592 15.1308 29.3434 15.1289 29.327C15.1269 29.3107 15.1282 29.2941 15.1328 29.2782L16.0178 25.9993C16.0466 25.8926 16.0062 25.8258 15.8985 25.7991L13.94 25.3492Z" fill="#FF8B00"/>
</svg>
