<svg width="32" height="32" viewBox="0 0 32 32" fill="none" xmlns="http://www.w3.org/2000/svg">
<path d="M7.60974 17.5578L8.45275 11.2081L1.12207 6.12054L7.82173 8.38826L9.40421 5.96278L15.182 2.37878L27.9108 9.39395L28.5714 20.0917L22.9021 27.9795L18.416 28.6696L20.733 24.4201V20.3333L19.047 17.1437L17.3314 16.0098L14.6989 18.7261V21.6002L12.6431 23.5229L10.0303 23.8433L8.87178 24.499L6.97379 23.8926L6.18502 21.0432L7.61468 19.0417L7.60974 17.5578Z" fill="white"/>
<path d="M19.3154 6.06631C18.3517 5.88841 17.3713 5.81732 16.392 5.85433C16.1367 6.63922 15.6596 7.33341 15.0184 7.85305C14.3771 8.3727 13.5991 8.69556 12.7784 8.78266C14.0141 9.15377 15.3401 9.08604 16.5316 8.59094C17.723 8.09585 18.7066 7.20388 19.3154 6.06631ZM20.5823 27.1069C22.2798 25.7917 23.5172 23.9727 24.117 21.9108C24.1417 21.8369 24.3783 21.6988 24.5361 21.5953C24.7973 21.4376 25.0636 21.3094 25.1178 21.0974C25.2232 20.4785 25.2759 19.8518 25.2755 19.2241C25.2755 18.9874 25.034 18.7459 24.7973 18.5142C24.6149 18.3564 24.4276 18.1691 24.4276 18.036C24.1715 15.6364 23.0582 13.4098 21.2922 11.7652L21.1049 11.9525C22.8232 13.5588 23.9093 15.7275 24.1663 18.0656C24.2492 18.3148 24.4035 18.5342 24.61 18.6966C24.7973 18.8543 25.0093 19.091 25.0093 19.1994C25.0083 19.8075 24.9555 20.4144 24.8516 21.0136C24.8269 21.1221 24.5903 21.2305 24.4079 21.334C24.1466 21.4622 23.905 21.5953 23.8557 21.8073C23.2153 24.0471 21.7933 25.9833 19.8478 27.2646C20.1929 26.5301 21.2676 24.1293 21.8493 22.9165L21.7458 19.0121L18.3935 15.7732L16.4955 16.0345L14.4151 19.4114C14.6942 19.8288 14.8078 20.3352 14.734 20.8319C14.6602 21.3285 14.4042 21.7799 14.0158 22.0982C13.3668 22.8625 12.5433 23.4594 11.6149 23.8384L10.6388 23.3208C11.0393 22.8497 11.4815 22.4158 11.96 22.0242C12.7242 21.3932 13.4883 21.339 13.4883 20.6587C13.5179 19.229 11.9847 19.6234 11.9847 19.6234L11.4325 20.1509L11.1959 22.1031L10.0374 23.5525L9.90922 23.5278L8.01123 23.1039C8.01123 23.1039 9.16974 22.5024 9.35708 21.8122C9.36583 20.8058 9.23137 19.8032 8.95776 18.8346C9.31996 19.1648 9.59151 19.5824 9.74654 20.0473C10.0133 19.2069 10.3948 18.4072 10.8804 17.6712C11.0382 17.5726 13.1728 16.4387 13.1728 16.4387L12.4629 18.312L12.9904 18.0163L14.2573 14.9105C14.9358 14.5783 15.6693 14.3728 16.4215 14.3041C17.0393 14.2073 17.6259 13.9677 18.1348 13.6044C18.6436 13.241 19.0606 12.7639 19.3526 12.211C19.6446 11.6581 19.8036 11.0447 19.8168 10.4196C19.83 9.79444 19.6971 9.17485 19.4287 8.61011C21.0822 9.41494 22.5412 10.5693 23.7047 11.9933C24.8683 13.4173 25.7087 15.077 26.1678 16.8577C26.4249 18.9362 26.0239 21.0429 25.021 22.8814C24.0182 24.72 22.4641 26.1978 20.5774 27.1069H20.5823Z" fill="#94A6C3"/>
<path d="M14.3035 6.64312C14.4841 6.39064 14.6107 6.10353 14.6752 5.79982C14.7396 5.49611 14.7406 5.18235 14.6781 4.87823L12.9132 7.49105C13.1907 7.45241 13.4572 7.35722 13.6963 7.21136C13.9355 7.0655 14.1421 6.8721 14.3035 6.64312ZM8.36792 20.9052L8.58483 19.8551C8.58483 19.8551 7.71225 21.3834 7.63337 21.5953C7.55449 21.8369 7.6876 22.2559 8.02776 22.2313C8.23027 22.1753 8.41134 22.0599 8.54756 21.9C8.68379 21.74 8.76889 21.5429 8.79189 21.3341C8.79995 21.2769 8.79472 21.2187 8.77659 21.1639C8.75846 21.1092 8.72793 21.0593 8.68737 21.0183C8.64682 20.9773 8.59733 20.9461 8.54278 20.9274C8.48822 20.9086 8.43007 20.9027 8.37285 20.9101L8.36792 20.9052Z" fill="#1B314F"/>
<path d="M24.0307 4.14368C24.0307 4.14368 25.3519 4.19791 26.7224 4.35567C24.3713 2.38003 21.4122 1.27301 18.3417 1.22028C16.3772 1.2055 14.4419 1.69611 12.7217 2.64501L13.7471 1.0083C12.5094 0.940066 11.2852 1.29407 10.275 2.01234C9.26471 2.73062 8.52826 3.77061 8.18619 4.96204C7.90846 4.21961 7.67148 3.46257 7.47629 2.69431C6.83362 3.33172 6.3857 4.13892 6.18491 5.02153C5.98412 5.90414 6.03875 6.82568 6.34243 7.67838C4.32005 6.93427 2.2888 6.21446 0.249144 5.51911C0.0618098 5.49446 0.00758141 5.57334 0.00758141 5.57334C0.00758141 5.57334 -0.0417169 5.65221 0.111108 5.78532C0.406899 6.01702 5.94311 10.1088 7.16079 10.8976C6.8995 11.849 6.8995 12.2927 7.16079 12.7413C7.30585 12.9357 7.41103 13.1569 7.47025 13.3921C7.52948 13.6273 7.54158 13.8719 7.50587 14.1118C7.45165 14.5555 6.97345 18.4353 6.86993 18.9135C6.7664 19.3917 5.66211 21.0728 5.71141 21.5756C5.76071 22.0785 6.45089 24.2081 7.05726 24.4497C7.79457 24.7213 8.5661 24.8889 9.34964 24.9476C9.56388 24.9662 9.77798 24.9105 9.95601 24.7899C10.3997 24.3955 10.5328 24.3166 10.8483 24.3166H10.9272C11.0554 24.3166 11.2131 24.3462 11.4005 24.3462C11.8971 24.3716 12.3855 24.2118 12.7709 23.8976C13.3477 23.3158 14.3485 22.5271 14.6689 22.1573C14.8758 21.8957 15.0272 21.5947 15.1136 21.2725C15.2001 20.9504 15.2199 20.614 15.1718 20.284C15.1602 19.6406 15.3968 19.0174 15.8324 18.5438C16.3352 17.8832 17.2571 16.6951 17.2571 16.6951C18.1669 17.3582 18.9084 18.2254 19.4221 19.2272C19.9358 20.2289 20.2074 21.3372 20.215 22.463C20.1367 24.5123 19.2478 26.4466 17.7437 27.8407C16.2396 29.2348 14.2435 29.9745 12.1942 29.8972C11.5202 29.8995 10.8483 29.8217 10.1926 29.6655C11.8409 30.2688 13.5794 30.5888 15.3345 30.612C16.927 30.6838 18.5079 30.3099 19.8995 29.5324C19.4566 30.08 18.9702 30.5911 18.4452 31.0606H18.4748C19.96 30.8236 21.3792 30.2788 22.6416 29.4613C23.904 28.6437 24.9816 27.5715 25.8055 26.3132C25.8055 26.3132 25.6181 27.6344 25.3864 28.5316C27.2407 27.3253 28.7274 25.6322 29.6838 23.6376C30.6403 21.643 31.0296 19.4237 30.8092 17.2226C30.8585 17.2965 31.5241 18.0902 31.8593 18.5142C32.2816 15.5946 31.7472 12.6168 30.336 10.0264C28.9248 7.43591 26.7127 5.37207 24.0307 4.14368ZM13.9393 21.4967C13.8407 21.6249 13.3872 22.0242 13.0717 22.3151C12.7562 22.6059 12.4111 22.8919 12.1498 23.1581C11.9656 23.2856 11.7413 23.3417 11.5188 23.3158H10.73C11.3126 22.5854 11.9665 21.9149 12.6822 21.3143C13.1555 20.9988 13.397 20.6833 13.1012 20.1312C12.8055 19.579 12.0512 19.7121 12.0512 19.7121C12.3199 19.6034 12.6048 19.5401 12.8942 19.5248C12.6501 19.4601 12.3942 19.4532 12.1469 19.5045C11.8996 19.5559 11.6677 19.6641 11.4695 19.8206C11.154 20.1065 11.2082 21.1369 11.0751 21.7925C10.9469 22.4827 10.4983 22.8229 9.80811 23.4539C9.59328 23.703 9.29208 23.8615 8.96511 23.8976C8.50829 23.8173 8.05834 23.7019 7.61926 23.5525C7.27534 22.942 7.01816 22.2866 6.85513 21.6052C7.01674 21.2167 7.2011 20.8381 7.40728 20.4713C7.64956 20.0768 7.83541 19.6504 7.95942 19.2044C8.06788 18.7607 8.40804 15.9852 8.54114 14.8316C8.88623 15.2753 9.3595 16.0147 9.25104 16.4929C9.50599 16.1126 9.63756 15.6629 9.62786 15.2051C9.61816 14.7473 9.46765 14.3036 9.19681 13.9344C8.82276 13.2798 8.71843 12.5053 8.90595 11.7751C9.16723 10.8778 10.1187 8.39814 10.1187 8.39814C10.1187 8.39814 10.4342 8.95521 10.8828 8.84182C12.3546 7.08691 13.7099 5.23755 14.9401 3.30561C15.2073 3.88607 15.3412 4.51902 15.3318 5.15799C15.3224 5.79695 15.17 6.42569 14.8859 6.99806C14.4118 7.82478 13.6791 8.47266 12.8005 8.84182C13.7891 8.96514 14.7877 8.70976 15.5957 8.127C16.1479 9.42354 16.6754 10.7645 16.7 10.9469C16.6212 11.1342 15.5662 13.6632 15.4676 13.821C15.2483 13.9229 15.0161 13.9943 14.7774 14.0329C14.494 14.0993 14.2193 14.1985 13.959 14.3287C13.4054 15.499 12.9294 16.7045 12.5343 17.9374C12.0036 18.0723 11.5428 18.4012 11.2427 18.8593C11.6217 18.7077 12.0231 18.6194 12.4308 18.598C12.8588 18.6893 13.2532 18.8975 13.57 19.1995C13.8868 19.5015 14.1136 19.8854 14.2253 20.3086V20.3629C14.2738 20.7632 14.1719 21.1673 13.9393 21.4967ZM11.4645 21.8122C11.6293 21.4662 11.7103 21.0862 11.7012 20.703C11.7308 20.5206 11.78 20.1755 11.997 20.1262C12.2139 20.0769 12.7069 20.1558 12.7069 20.5206C12.7069 20.8657 12.3371 20.9397 12.0758 21.1812C11.8663 21.3842 11.6625 21.5979 11.4645 21.8122ZM21.975 16.769C22.2032 15.6338 22.2746 14.4727 22.1869 13.3181C23.214 14.7078 23.8506 16.347 24.0307 18.0656C24.115 18.3154 24.271 18.5349 24.4793 18.6966C24.6617 18.8543 24.8737 19.0663 24.8737 19.1994C24.8728 19.8108 24.82 20.421 24.716 21.0235C24.6913 21.0974 24.4547 21.2355 24.2723 21.339C24.011 21.4721 23.7694 21.6003 23.7201 21.8122C23.1367 23.8394 21.9164 25.6249 20.2397 26.9048C21.5569 25.6106 22.4333 23.9347 22.7448 22.1146C23.0562 20.2945 22.7869 18.4275 21.975 16.769ZM20.3185 27.1315C22.0522 25.8169 23.3173 23.9797 23.9272 21.8911C23.9568 21.8122 24.1934 21.6791 24.3512 21.5756C24.6124 21.4425 24.8786 21.2847 24.9279 21.0728C25.0333 20.4539 25.0861 19.8272 25.0857 19.1994C25.0857 18.9628 24.8491 18.7262 24.6124 18.4895C24.4793 18.3318 24.2673 18.1444 24.2673 18.0163C24.0502 16.0985 23.3005 14.2797 22.1031 12.766C22.0171 11.9085 21.7286 11.0837 21.2615 10.3595C20.7944 9.63526 20.162 9.03231 19.4164 8.60026C19.8365 9.24026 20.0984 9.97094 20.1807 10.7321C20.263 11.4932 20.1632 12.263 19.8896 12.978C19.5697 13.6631 19.0382 14.2273 18.3735 14.5877C17.7088 14.948 16.9459 15.0853 16.1972 14.9795C15.3043 15.8229 14.6032 16.8485 14.1414 17.9867C13.7134 17.8569 13.2607 17.8298 12.8202 17.9078C13.2984 16.5866 14.0133 14.7182 14.1414 14.5555C14.372 14.4562 14.6113 14.3787 14.8563 14.3238C15.3591 14.1907 15.5957 14.1118 15.6746 14.0083C15.7239 13.9245 15.9901 13.3181 16.2514 12.6871C16.5521 12.6835 16.852 12.6571 17.1486 12.6082C17.375 12.1231 17.5613 11.6202 17.7057 11.1046C17.7057 10.9764 16.6705 8.41786 16.2761 7.44175C16.4811 7.20176 16.6674 6.94629 16.8331 6.67762C19.1665 6.93091 21.3536 7.93838 23.0626 9.54717C24.7716 11.156 25.9092 13.2783 26.3028 15.5921C26.6964 17.906 26.3246 20.2851 25.2438 22.3685C24.1629 24.4519 22.432 26.1259 20.3136 27.1365L20.3185 27.1315Z" fill="#1B314F"/>
<path d="M13.3032 12.8941C13.4264 12.739 13.5074 12.5545 13.5383 12.3588C13.5692 12.1631 13.5489 11.9627 13.4795 11.7771C13.41 11.5915 13.2937 11.4271 13.1419 11.2997C12.9901 11.1724 12.8079 11.0865 12.613 11.0504C12.8595 10.5032 13.1948 9.39395 13.1948 9.39395C13.1948 9.39395 10.5031 13.609 10.2714 13.6928C10.0397 13.7766 9.79809 12.8448 9.79809 12.8448C9.29525 14.7675 10.646 15.0337 10.8038 14.4273C11.7387 14.1069 12.5919 13.5803 13.3032 12.8941Z" fill="#1B314F"/>
<path d="M11.0054 13.9196L12.3759 11.5779C12.3759 11.5779 13.1646 11.9723 12.7703 12.6082C12.2838 13.1679 11.6817 13.6154 11.0054 13.9196Z" fill="#FFD923"/>
<path d="M27.9616 24.7899C27.542 25.3563 27.0841 25.8932 26.5911 26.397C27.5937 24.4209 28.1187 22.2372 28.1238 20.0213C28.129 17.8054 27.6141 15.6193 26.6207 13.6386C26.8622 13.8752 27.0939 14.1365 27.3108 14.378C28.5859 15.7815 29.3451 17.5773 29.4633 19.4698C29.5816 21.3622 29.052 23.2386 27.9616 24.7899ZM31.1265 16.3746C29.9586 12.9126 27.6301 9.96064 24.5353 8.01855C22.2633 6.54289 19.5975 5.79008 16.8891 5.85928H16.8349C16.9621 5.81006 17.0944 5.77533 17.2293 5.75575C18.1854 5.46691 19.1654 5.26398 20.1576 5.14938C21.5294 4.94502 22.9302 5.07248 24.2426 5.52109C25.5549 5.9697 26.7406 6.72637 27.7003 7.72769L27.7545 7.78685C29.9423 10.1085 31.1501 13.1847 31.1265 16.3746ZM23.6923 3.32534C20.9567 2.65093 18.0865 2.76027 15.4102 3.64085C15.3007 3.30701 15.169 2.98091 15.0158 2.66474C14.4686 3.32534 13.8819 4.11411 13.5171 4.61696C12.9633 4.97391 12.4803 5.43019 12.0924 5.9628C12.3881 4.98692 12.9496 4.11261 13.714 3.43782C14.4785 2.76303 15.4158 2.31439 16.4208 2.14218C17.0476 2.03347 17.6827 1.98068 18.3188 1.98442C20.1881 2.02085 22.0251 2.47924 23.6923 3.32534ZM9.16408 8.38336C6.08293 8.27983 7.10834 4.6909 7.16256 4.48385C7.20941 5.23668 7.41139 5.9717 7.75583 6.64276C8.10027 7.31382 8.57972 7.90642 9.16408 8.38336ZM12.1959 1.92526C11.4823 2.48995 10.9307 3.23345 10.5974 4.08025C10.264 4.92706 10.1607 5.847 10.2979 6.74665C8.03022 3.30069 12.0135 2.00907 12.1959 1.92526Z" fill="#D82122"/>
<path d="M8.29443 9.33478C8.4031 9.41486 8.4773 9.53323 8.50201 9.66594C8.52672 9.79864 8.5001 9.93578 8.42754 10.0496C8.32401 10.232 8.16625 10.2074 7.92469 10.0989C6.58585 9.34908 5.27526 8.5499 3.99561 7.703C5.94782 8.39318 7.92469 9.12773 8.2402 9.28055L8.29443 9.33478Z" fill="white"/>
</svg>
