<svg width="32" height="32" viewBox="0 0 32 32" fill="none" xmlns="http://www.w3.org/2000/svg">
<path d="M28.8913 27.5728C28.7215 27.0602 28.521 26.5588 28.2907 26.0714C27.9817 25.2707 27.6575 24.4699 27.3181 23.6692L27.2724 23.5358L26.4238 21.4338C26.117 20.6798 25.8363 19.9191 25.4969 19.1784C25.4099 18.896 25.3052 18.6196 25.1835 18.351C24.9812 17.8372 24.7657 17.33 24.5569 16.8162L24.3349 16.2424C24.1391 15.7753 23.9759 15.2881 23.7474 14.8411C23.7433 14.7696 23.7207 14.7006 23.6821 14.6409C23.5081 14.196 23.3296 13.7534 23.1469 13.313L22.3635 11.3779L21.4301 9.04905L20.7186 7.30077C20.5254 6.78482 20.3164 6.27521 20.0919 5.77269C19.9352 5.2789 19.7198 4.80513 19.524 4.33136C19.3964 3.91117 19.2119 3.51136 18.9756 3.14359C18.8136 2.86051 18.5818 2.62583 18.3033 2.46297C18.0167 2.25087 17.6861 2.10928 17.3372 2.04925C16.8387 1.9884 16.3352 1.98392 15.8358 2.0359C15.6569 2.03206 15.4798 2.07331 15.3201 2.15602C15.1023 2.21391 14.898 2.31603 14.7196 2.45629C14.3524 2.6829 14.0611 3.01792 13.884 3.41718C13.5837 4.03108 13.3487 4.68502 13.1007 5.31893L12.35 7.18733C12.0243 7.95517 11.713 8.72936 11.4165 9.50947L10.6201 11.4846L9.91515 13.2329C9.83682 13.4331 9.7389 13.6199 9.67362 13.8201C9.60835 14.067 9.47779 14.1938 9.21668 14.1538H9.06654L6.48809 14.1671L6.37712 14.1871C6.19061 14.1608 6.00062 14.1885 5.82879 14.2672C5.59807 14.3348 5.3902 14.4665 5.22823 14.6475C5.06134 14.8096 4.92844 15.0047 4.83762 15.221C4.74681 15.4372 4.69998 15.6701 4.69998 15.9054C4.69998 16.1407 4.74681 16.3736 4.83762 16.5898C4.92844 16.806 5.06134 17.0011 5.22823 17.1632C5.39007 17.3412 5.59497 17.4724 5.82226 17.5436C6.09514 17.6566 6.39194 17.6956 6.68392 17.657H7.27142C7.53253 17.7237 7.79364 17.657 8.06127 17.7104L7.59128 18.9115C7.38239 19.3786 7.19961 19.8457 7.02336 20.3261C6.78372 20.8755 6.55951 21.4318 6.35101 21.9943C6.15517 22.4347 5.98545 22.8818 5.81573 23.3289L5.24129 24.7435C5.04186 25.2076 4.85466 25.6771 4.67991 26.1515C4.5363 26.5052 4.38616 26.8588 4.24908 27.2192C4.12883 27.4713 4.04946 27.7417 4.01408 28.0199C3.97583 28.3268 4.01584 28.6386 4.13021 28.925C4.24458 29.2115 4.42944 29.4628 4.66685 29.6547C4.81256 29.7926 4.99371 29.8852 5.18907 29.9216C5.24282 29.9582 5.30816 29.9725 5.37185 29.9617C5.56365 30.0066 5.7623 30.0121 5.9562 29.9777C6.15009 29.9434 6.33534 29.8698 6.50114 29.7615C6.7645 29.6505 6.98632 29.4565 7.13433 29.2077C7.38939 28.7917 7.58916 28.3429 7.72836 27.8731C8.00905 27.2192 8.27669 26.5652 8.51169 25.8913C8.79238 25.244 9.05349 24.5767 9.29502 23.9094C9.57371 23.2562 9.83492 22.5954 10.0783 21.9276C10.3335 21.3369 10.5707 20.7383 10.7899 20.1326C11.0677 19.4791 11.3289 18.8182 11.5732 18.1508C11.6251 18.0446 11.6709 17.9354 11.7103 17.8238C11.7157 17.7979 11.7261 17.7733 11.7409 17.7515C11.7556 17.7297 11.7745 17.7111 11.7964 17.6968C11.8182 17.6826 11.8427 17.6729 11.8682 17.6683C11.8938 17.6638 11.92 17.6645 11.9453 17.6703L12.4675 17.6637H14.1843L14.8175 17.657C15.1064 17.6656 15.391 17.5842 15.6334 17.4234C15.8498 17.2977 16.037 17.1255 16.1821 16.9187C16.3271 16.712 16.4267 16.4755 16.4738 16.2257C16.521 15.9758 16.5146 15.7185 16.4552 15.4714C16.3957 15.2244 16.2847 14.9934 16.1296 14.7944C16.0103 14.6086 15.8366 14.4662 15.6334 14.3873C15.4021 14.2029 15.1089 14.119 14.8175 14.1538C14.341 14.107 13.8644 14.1337 13.3814 14.1271L13.3161 14.1538C13.1203 14.1337 13.2769 14.007 13.2508 13.9336C13.5131 13.2943 13.7612 12.6491 13.995 11.9984L14.106 11.7449L14.811 9.89649C15.046 9.36934 15.2548 8.83552 15.4441 8.29502C15.6635 7.79826 15.8638 7.29296 16.0447 6.78028L16.4364 5.84609C16.4625 5.79938 16.4559 5.71263 16.5539 5.71263L17.3502 7.71448L18.2641 10.05L18.8843 11.6381C19.0605 12.0985 19.2302 12.5656 19.4326 13.0127C19.5958 13.4931 19.7786 13.9602 19.9809 14.4273C20.1768 14.9745 20.3922 15.5217 20.6206 16.0555C20.8556 16.6894 21.0972 17.3234 21.3648 17.9373C21.6564 18.7424 21.9675 19.5387 22.2983 20.3261C22.5376 20.9934 22.7987 21.6562 23.0816 22.3146C23.247 22.804 23.4341 23.2844 23.643 23.756C23.9041 24.49 24.1913 25.2106 24.4916 25.9246C24.7832 26.7076 25.0943 27.4838 25.4251 28.2534C25.5098 28.5343 25.619 28.8067 25.7514 29.0675C25.8894 29.3328 26.1005 29.5509 26.3585 29.6948C26.6297 29.8896 26.954 29.9923 27.2855 29.9884C27.633 30.0166 27.9787 29.9146 28.2581 29.7014C28.5746 29.4643 28.8074 29.1287 28.9215 28.7449C29.0357 28.3612 29.0251 27.9499 28.8913 27.5728Z" fill="url(#paint0_linear_22_39)"/>
<defs>
<linearGradient id="paint0_linear_22_39" x1="4" y1="30" x2="31.8211" y2="5.15969" gradientUnits="userSpaceOnUse">
<stop stop-color="#3C9BB4"/>
<stop offset="1" stop-color="#AF4BAF"/>
</linearGradient>
</defs>
</svg>
