<svg width="32" height="32" viewBox="0 0 32 32" fill="none" xmlns="http://www.w3.org/2000/svg">
<path fill-rule="evenodd" clip-rule="evenodd" d="M12.1529 19.4418L15.4382 13.7529L14.5138 12.16L8.84267 21.9769H10.6844L10.7093 21.9413C12.3258 20.988 14.1733 20.4972 16.0498 20.5227C17.2714 20.525 18.4836 20.7366 19.6338 21.1484L18.4036 19.0222C16.3187 18.62 14.1653 18.7645 12.1529 19.4418ZM7.18578 19.6373L14.4924 6.96534L14.5067 6.99023L14.5173 6.96534L23.1787 21.9769H21.3476L19.1644 18.1831C18.1417 17.8607 17.0759 17.6953 16.0036 17.6924C15.4481 17.6907 14.8932 17.7287 14.3431 17.8062L15.4027 15.9893C15.6053 15.9787 15.8009 15.9787 16.0071 15.9787C16.6656 15.9794 17.323 16.0318 17.9733 16.1351L14.4924 10.112L8.09244 21.216L7.18578 19.6373ZM15.3707 6.44623L23.904 21.2516L24.8284 19.6587L17.2089 6.44267L15.3707 6.44623ZM16.0391 27.7511C18.3693 27.7504 20.6469 27.0588 22.5841 25.7638C24.5213 24.4688 26.031 22.6285 26.9224 20.4756C27.8138 18.3226 28.0468 15.9537 27.5921 13.6684C27.1373 11.383 26.0151 9.28377 24.3675 7.63609C22.7198 5.9884 20.6206 4.86624 18.3352 4.41148C16.0498 3.95671 13.6809 4.18975 11.528 5.08115C9.37506 5.97254 7.53475 7.48226 6.23974 9.41944C4.94472 11.3566 4.25315 13.6343 4.25245 15.9644C4.25198 17.5121 4.55641 19.0447 5.14836 20.4747C5.74031 21.9047 6.60817 23.2041 7.70238 24.2987C8.79659 25.3932 10.0957 26.2614 11.5255 26.8538C12.9554 27.4462 14.4914 27.7511 16.0391 27.7511ZM16.0036 29.3867C18.6506 29.3838 21.2374 28.5963 23.4369 27.1237C25.6365 25.651 27.35 23.5593 28.3611 21.113C29.3721 18.6667 29.6352 15.9755 29.117 13.3797C28.5989 10.7839 27.3228 8.39992 25.4501 6.52918C23.5774 4.65845 21.1921 3.3849 18.5957 2.86953C15.9993 2.35415 13.3085 2.62008 10.8632 3.6337C8.41793 4.64733 6.32806 6.36313 4.85774 8.56425C3.38743 10.7654 2.60267 13.353 2.60267 16C2.6036 17.7592 2.95108 19.501 3.62527 21.1259C4.29945 22.7507 5.28714 24.2269 6.5319 25.47C7.77666 26.7131 9.25412 27.6988 10.8799 28.3709C12.5057 29.0429 14.2444 29.3881 16.0036 29.3867ZM16.0747 30.4995C18.9419 30.4974 21.7442 29.6453 24.1273 28.0507C26.5103 26.4562 28.3671 24.191 29.4629 21.5413C30.5587 18.8917 30.8443 15.9767 30.2836 13.1647C29.723 10.3528 28.3412 7.77024 26.313 5.74351C24.2847 3.71677 21.7011 2.33688 18.8888 1.77828C16.0765 1.21968 13.1616 1.50744 10.5128 2.60519C7.86397 3.70294 5.60008 5.56138 4.00732 7.94559C2.41456 10.3298 1.56445 13.1327 1.56445 16C1.56822 19.8456 3.09803 23.5325 5.81794 26.2511C8.53786 28.9697 12.2291 30.4977 16.0747 30.4995ZM16 32C19.1645 32 22.2579 31.0616 24.8891 29.3035C27.5203 27.5454 29.5711 25.0465 30.7821 22.1229C31.9931 19.1993 32.3099 15.9822 31.6926 12.8786C31.0752 9.77486 29.5513 6.92394 27.3137 4.6863C25.0761 2.44866 22.2251 0.924806 19.1214 0.307443C16.0177 -0.309921 12.8007 0.00693257 9.87706 1.21793C6.95345 2.42894 4.45459 4.47969 2.69649 7.11088C0.938387 9.74206 3.56485e-06 12.8355 3.56485e-06 16C-0.0014001 18.1021 0.41173 20.1839 1.21575 22.1262C2.01977 24.0685 3.19891 25.8332 4.68568 27.3193C6.17245 28.8055 7.93767 29.9838 9.88033 30.787C11.823 31.5901 13.905 32.0023 16.0071 32H16Z" fill="url(#paint0_linear_22_41)"/>
<defs>
<linearGradient id="paint0_linear_22_41" x1="29.532" y1="32.7189" x2="5.61736" y2="3.17959" gradientUnits="userSpaceOnUse">
<stop stop-color="#5C77BA"/>
<stop offset="0.52" stop-color="#E4115C"/>
<stop offset="1" stop-color="#EA4F41"/>
</linearGradient>
</defs>
</svg>
