<svg width="32" height="32" viewBox="0 0 32 32" fill="none" xmlns="http://www.w3.org/2000/svg">
<path fill-rule="evenodd" clip-rule="evenodd" d="M13.7778 6.516L11.6889 10.0596L11.7222 14.9918L11.75 19.9241L12.0556 19.6963C12.9049 19.1643 13.8251 18.7548 14.7889 18.4799C16.1565 18.147 17.5769 18.0904 18.9667 18.3133C19.4833 18.4133 19.9833 18.5188 20.0778 18.5577C20.2278 18.6132 20.2444 18.1078 20.2444 14.3364V10.0596L18.1444 6.54377C16.9889 4.61088 16.0056 3.01679 15.95 3.00013C15.8944 2.98347 14.9278 4.56644 13.7778 6.516ZM4.72222 21.7181L1 27.9389L4.71111 27.9667C6.75 27.9833 8.43333 27.9778 8.46111 27.9611C8.48889 27.9445 8.48889 25.1229 8.47222 21.7014L8.43889 15.4806L4.72222 21.7181ZM23.4444 21.7514V27.9944H31L30.8333 27.7501C30.7389 27.6112 29.0833 24.8452 27.15 21.6015C25.2167 18.3577 23.5944 15.6528 23.5389 15.5973C23.4833 15.5417 23.4444 18.3022 23.4444 21.7514ZM15.8556 21.1571C14.8903 21.4016 14.0078 21.899 13.2988 22.5981C12.5899 23.2971 12.0802 24.1725 11.8222 25.134C11.6582 25.9198 11.6582 26.731 11.8222 27.5168L11.95 28H20.25V21.8625L19.5389 21.5404C18.3868 21.011 17.0928 20.8799 15.8556 21.1571Z" fill="#8990C3"/>
</svg>
