<svg width="32" height="32" viewBox="0 0 32 32" fill="none" xmlns="http://www.w3.org/2000/svg">
<path fill-rule="evenodd" clip-rule="evenodd" d="M16.7623 0.810972C16.7623 1.25886 16.3992 1.62194 15.9514 1.62194C15.5035 1.62194 15.1404 1.25886 15.1404 0.810972C15.1404 0.363084 15.5035 0 15.9514 0C16.3992 0 16.7623 0.363084 16.7623 0.810972ZM17.1713 6.49253C17.1713 7.15119 16.6374 7.68514 15.9787 7.68514C15.3201 7.68514 14.7861 7.15119 14.7861 6.49253C14.7861 5.83387 15.3201 5.29993 15.9787 5.29993C16.6374 5.29993 17.1713 5.83387 17.1713 6.49253ZM15.4458 11.1866C15.4458 12.3116 14.5338 13.2236 13.4088 13.2236C12.2838 13.2236 11.3718 12.3116 11.3718 11.1866C11.3718 10.0616 12.2838 9.14966 13.4088 9.14966C14.5338 9.14966 15.4458 10.0616 15.4458 11.1866ZM18.5375 13.2331C19.6624 13.2331 20.5744 12.3211 20.5744 11.1962C20.5744 10.0712 19.6624 9.15918 18.5375 9.15918C17.4125 9.15918 16.5005 10.0712 16.5005 11.1962C16.5005 12.3211 17.4125 13.2331 18.5375 13.2331ZM12.8879 16.0381C12.8879 17.1631 11.9759 18.0751 10.8509 18.0751C9.72595 18.0751 8.81396 17.1631 8.81396 16.0381C8.81396 14.9131 9.72595 14.0012 10.8509 14.0012C11.9759 14.0012 12.8879 14.9131 12.8879 16.0381ZM15.4458 20.8133C15.4458 21.9383 14.5338 22.8503 13.4088 22.8503C12.2838 22.8503 11.3718 21.9383 11.3718 20.8133C11.3718 19.6884 12.2838 18.7764 13.4088 18.7764C14.5338 18.7764 15.4458 19.6884 15.4458 20.8133ZM18.5565 22.8503C19.6815 22.8503 20.5935 21.9383 20.5935 20.8133C20.5935 19.6884 19.6815 18.7764 18.5565 18.7764C17.4315 18.7764 16.5195 19.6884 16.5195 20.8133C16.5195 21.9383 17.4315 22.8503 18.5565 22.8503ZM23.146 16.0381C23.146 17.1631 22.234 18.0751 21.109 18.0751C19.984 18.0751 19.072 17.1631 19.072 16.0381C19.072 14.9131 19.984 14.0012 21.109 14.0012C22.234 14.0012 23.146 14.9131 23.146 16.0381ZM8.3618 12.4556C9.02045 12.4556 9.5544 11.9216 9.5544 11.263C9.5544 10.6043 9.02045 10.0704 8.3618 10.0704C7.70314 10.0704 7.16919 10.6043 7.16919 11.263C7.16919 11.9216 7.70314 12.4556 8.3618 12.4556ZM23.5957 12.4222C24.2543 12.4222 24.7883 11.8883 24.7883 11.2296C24.7883 10.5709 24.2543 10.037 23.5957 10.037C22.937 10.037 22.4031 10.5709 22.4031 11.2296C22.4031 11.8883 22.937 12.4222 23.5957 12.4222ZM24.7883 20.737C24.7883 21.3956 24.2543 21.9296 23.5957 21.9296C22.937 21.9296 22.4031 21.3956 22.4031 20.737C22.4031 20.0783 22.937 19.5444 23.5957 19.5444C24.2543 19.5444 24.7883 20.0783 24.7883 20.737ZM15.9092 26.7144C16.5678 26.7144 17.1018 26.1804 17.1018 25.5218C17.1018 24.8631 16.5678 24.3292 15.9092 24.3292C15.2505 24.3292 14.7166 24.8631 14.7166 25.5218C14.7166 26.1804 15.2505 26.7144 15.9092 26.7144ZM9.5544 20.737C9.5544 21.3956 9.02045 21.9296 8.3618 21.9296C7.70314 21.9296 7.16919 21.3956 7.16919 20.737C7.16919 20.0783 7.70314 19.5444 8.3618 19.5444C9.02045 19.5444 9.5544 20.0783 9.5544 20.737ZM4.58007 17.0447C5.14124 17.0447 5.59617 16.5898 5.59617 16.0286C5.59617 15.4674 5.14124 15.0125 4.58007 15.0125C4.01889 15.0125 3.56396 15.4674 3.56396 16.0286C3.56396 16.5898 4.01889 17.0447 4.58007 17.0447ZM11.3166 26.7096C11.3166 27.2708 10.8617 27.7257 10.3005 27.7257C9.73935 27.7257 9.28442 27.2708 9.28442 26.7096C9.28442 26.1484 9.73935 25.6935 10.3005 25.6935C10.8617 25.6935 11.3166 26.1484 11.3166 26.7096ZM21.7048 27.6875C22.266 27.6875 22.7209 27.2326 22.7209 26.6714C22.7209 26.1103 22.266 25.6553 21.7048 25.6553C21.1436 25.6553 20.6887 26.1103 20.6887 26.6714C20.6887 27.2326 21.1436 27.6875 21.7048 27.6875ZM28.9589 23.5659C28.9589 24.0138 28.5958 24.3769 28.1479 24.3769C27.7 24.3769 27.3369 24.0138 27.3369 23.5659C27.3369 23.118 27.7 22.7549 28.1479 22.7549C28.5958 22.7549 28.9589 23.118 28.9589 23.5659ZM28.1193 9.17352C28.5672 9.17352 28.9303 8.81043 28.9303 8.36255C28.9303 7.91466 28.5672 7.55157 28.1193 7.55157C27.6714 7.55157 27.3083 7.91466 27.3083 8.36255C27.3083 8.81043 27.6714 9.17352 28.1193 9.17352ZM3.81097 9.24511C4.25886 9.24511 4.62194 8.88203 4.62194 8.43414C4.62194 7.98625 4.25886 7.62317 3.81097 7.62317C3.36308 7.62317 3 7.98625 3 8.43414C3 8.88203 3.36308 9.24511 3.81097 9.24511ZM4.64953 23.6232C4.64953 24.0711 4.28645 24.4341 3.83856 24.4341C3.39067 24.4341 3.02759 24.0711 3.02759 23.6232C3.02759 23.1753 3.39067 22.8122 3.83856 22.8122C4.28645 22.8122 4.64953 23.1753 4.64953 23.6232ZM15.9189 32C16.3668 32 16.7299 31.6369 16.7299 31.189C16.7299 30.7411 16.3668 30.3781 15.9189 30.3781C15.471 30.3781 15.1079 30.7411 15.1079 31.189C15.1079 31.6369 15.471 32 15.9189 32ZM28.3955 15.9618C28.3955 16.523 27.9406 16.9779 27.3794 16.9779C26.8182 16.9779 26.3633 16.523 26.3633 15.9618C26.3633 15.4007 26.8182 14.9457 27.3794 14.9457C27.9406 14.9457 28.3955 15.4007 28.3955 15.9618ZM21.6536 6.34464C22.2147 6.34464 22.6697 5.88972 22.6697 5.32854C22.6697 4.76736 22.2147 4.31244 21.6536 4.31244C21.0924 4.31244 20.6375 4.76736 20.6375 5.32854C20.6375 5.88972 21.0924 6.34464 21.6536 6.34464ZM11.2746 5.32854C11.2746 5.88972 10.8197 6.34464 10.2585 6.34464C9.69736 6.34464 9.24243 5.88972 9.24243 5.32854C9.24243 4.76736 9.69736 4.31244 10.2585 4.31244C10.8197 4.31244 11.2746 4.76736 11.2746 5.32854Z" fill="#1E5FB6"/>
</svg>
