<svg width="32" height="32" viewBox="0 0 32 32" fill="none" xmlns="http://www.w3.org/2000/svg">
<path fill-rule="evenodd" clip-rule="evenodd" d="M20.9344 17.5413L20.939 17.5459C22.0911 18.8036 22.7966 20.406 22.9463 22.105C23.0803 23.7542 22.6366 25.3986 21.6911 26.7564C20.7057 28.0164 19.471 29.0594 18.0642 29.8205C17.9787 29.887 17.8725 29.9213 17.7642 29.9174H17.6904C17.6212 29.908 17.5551 29.8833 17.4968 29.8449C17.4385 29.8066 17.3895 29.7556 17.3535 29.6959C17.3226 29.6547 17.3006 29.6076 17.2889 29.5574C17.2771 29.5027 17.2771 29.446 17.2889 29.3913C17.2992 29.3357 17.323 29.2834 17.3582 29.239C17.3929 29.1934 17.4369 29.1557 17.4874 29.1283C18.6177 28.3287 19.5441 27.2743 20.1914 26.0504C20.7546 24.9179 20.9173 23.628 20.6529 22.3911C20.4601 21.1872 19.833 20.0956 18.8902 19.3225C17.7808 18.4542 16.5838 17.7041 15.3186 17.0845C13.8283 16.3945 12.4501 15.4845 11.2301 14.385C10.6162 13.765 10.0996 13.0555 9.69811 12.2808C9.33025 11.5071 9.10216 10.6745 9.0244 9.8213C8.88246 8.12819 9.36321 6.44148 10.3764 5.07762C11.3034 3.7518 12.5932 2.72157 14.0911 2.11051C14.1406 2.06763 14.1989 2.03612 14.2618 2.01822C14.3295 2.00018 14.4 1.99548 14.4695 2.00437C14.5405 2.01327 14.6084 2.03855 14.6679 2.07821C14.7239 2.11713 14.7711 2.16745 14.8063 2.22587C14.853 2.31855 14.8661 2.42457 14.8433 2.52581C14.8215 2.62712 14.7662 2.71814 14.6864 2.78422C13.5884 3.63599 12.6906 4.71811 12.0561 5.95437C11.5376 7.03934 11.3791 8.26158 11.6039 9.44291C11.8601 10.5972 12.4775 11.6398 13.3666 12.4193C14.4781 13.3109 15.6744 14.0914 16.9382 14.7496C18.4015 15.4766 19.7483 16.4175 20.9344 17.5413ZM20.4566 8.74667C20.4902 7.42514 20.1369 6.12259 19.4402 4.99914H19.4356C18.8303 4.19406 18.1505 3.44782 17.4052 2.77035C17.3077 2.70204 17.2387 2.60019 17.2114 2.48425C17.183 2.36515 17.2011 2.23969 17.2622 2.13355L17.2945 2.09663C17.3829 2.0456 17.4831 2.01874 17.5852 2.01874C17.6872 2.01874 17.7875 2.0456 17.8759 2.09663C18.941 2.50999 19.9123 3.13295 20.7323 3.92858C21.1943 4.3302 21.5845 4.80773 21.8859 5.34061C22.1945 5.86756 22.4495 6.42407 22.6473 7.00182C22.8373 7.59878 22.9353 8.22117 22.938 8.84762L22.9011 9.14294V9.16602C22.8715 10.9294 22.1604 12.6129 20.9168 13.8636C20.7272 13.9722 20.5125 14.0295 20.2939 14.0297C20.218 14.0292 20.1422 14.0214 20.0678 14.0066C19.7844 13.9567 19.5287 13.8059 19.3479 13.5821C19.2094 13.4283 19.1236 13.2343 19.1033 13.0283C19.0865 12.8206 19.1384 12.6131 19.251 12.4377C20.0039 11.3511 20.423 10.0682 20.4566 8.74667ZM11.6782 23.2186C11.6471 24.5383 12.0017 25.8383 12.6985 26.9594V26.9502C13.3126 27.7593 14.0033 28.5073 14.7611 29.1836C14.8158 29.2262 14.861 29.2799 14.8936 29.3411C14.9262 29.4023 14.9455 29.4697 14.9503 29.5389C14.9509 29.5795 14.943 29.6198 14.9271 29.6572C14.9112 29.6945 14.8877 29.7281 14.858 29.7558C14.7618 29.8443 14.6378 29.8965 14.5073 29.9035C14.4514 29.9058 14.3962 29.8896 14.3504 29.8573C13.2875 29.4403 12.3181 28.816 11.4987 28.0208C11.0367 27.6191 10.6466 27.1416 10.3451 26.6087C10.0356 26.0823 9.78051 25.5257 9.58368 24.9475C9.39335 24.3507 9.29531 23.7282 9.29297 23.1017C9.30696 23.0004 9.31927 22.8989 9.32988 22.7972C9.36796 21.0329 10.0776 19.3495 11.3141 18.0904C11.5707 17.9421 11.8716 17.8898 12.1632 17.9428C12.4467 17.9922 12.7025 18.1431 12.883 18.3673C13.034 18.5238 13.1176 18.7332 13.1159 18.9506C13.1141 19.168 13.0272 19.3761 12.8738 19.5301C12.1249 20.6171 11.7094 21.899 11.6782 23.2186Z" fill="white"/>
<path fill-rule="evenodd" clip-rule="evenodd" d="M20.9344 17.5413L20.939 17.5459C22.0911 18.8036 22.7966 20.406 22.9463 22.105C23.0803 23.7542 22.6366 25.3986 21.6911 26.7564C20.7057 28.0164 19.471 29.0594 18.0642 29.8205C17.9787 29.887 17.8725 29.9213 17.7642 29.9174H17.6904C17.6212 29.908 17.5551 29.8833 17.4968 29.8449C17.4385 29.8066 17.3895 29.7556 17.3535 29.6959C17.3226 29.6547 17.3006 29.6076 17.2889 29.5574C17.2771 29.5027 17.2771 29.446 17.2889 29.3913C17.2992 29.3357 17.323 29.2834 17.3582 29.239C17.3929 29.1934 17.4369 29.1557 17.4874 29.1283C18.6177 28.3287 19.5441 27.2743 20.1914 26.0504C20.7546 24.9179 20.9173 23.628 20.6529 22.3911C20.4601 21.1872 19.833 20.0956 18.8902 19.3225C17.7808 18.4542 16.5838 17.7041 15.3186 17.0845C13.8283 16.3945 12.4501 15.4845 11.2301 14.385C10.6162 13.765 10.0996 13.0555 9.69811 12.2808C9.33025 11.5071 9.10216 10.6745 9.0244 9.8213C8.88246 8.12819 9.36321 6.44148 10.3764 5.07762C11.3034 3.7518 12.5932 2.72157 14.0911 2.11051C14.1406 2.06763 14.1989 2.03612 14.2618 2.01822C14.3295 2.00018 14.4 1.99548 14.4695 2.00437C14.5405 2.01327 14.6084 2.03855 14.6679 2.07821C14.7239 2.11713 14.7711 2.16745 14.8063 2.22587C14.853 2.31855 14.8661 2.42457 14.8433 2.52581C14.8215 2.62712 14.7662 2.71814 14.6864 2.78422C13.5884 3.63599 12.6906 4.71811 12.0561 5.95437C11.5376 7.03934 11.3791 8.26158 11.6039 9.44291C11.8601 10.5972 12.4775 11.6398 13.3666 12.4193C14.4781 13.3109 15.6744 14.0914 16.9382 14.7496C18.4015 15.4766 19.7483 16.4175 20.9344 17.5413ZM20.4566 8.74667C20.4902 7.42514 20.1369 6.12259 19.4402 4.99914H19.4356C18.8303 4.19406 18.1505 3.44782 17.4052 2.77035C17.3077 2.70204 17.2387 2.60019 17.2114 2.48425C17.183 2.36515 17.2011 2.23969 17.2622 2.13355L17.2945 2.09663C17.3829 2.0456 17.4831 2.01874 17.5852 2.01874C17.6872 2.01874 17.7875 2.0456 17.8759 2.09663C18.941 2.50999 19.9123 3.13295 20.7323 3.92858C21.1943 4.3302 21.5845 4.80773 21.8859 5.34061C22.1945 5.86756 22.4495 6.42407 22.6473 7.00182C22.8373 7.59878 22.9353 8.22117 22.938 8.84762L22.9011 9.14294V9.16602C22.8715 10.9294 22.1604 12.6129 20.9168 13.8636C20.7272 13.9722 20.5125 14.0295 20.2939 14.0297C20.218 14.0292 20.1422 14.0214 20.0678 14.0066C19.7844 13.9567 19.5287 13.8059 19.3479 13.5821C19.2094 13.4283 19.1236 13.2343 19.1033 13.0283C19.0865 12.8206 19.1384 12.6131 19.251 12.4377C20.0039 11.3511 20.423 10.0682 20.4566 8.74667ZM11.6782 23.2186C11.6471 24.5383 12.0017 25.8383 12.6985 26.9594V26.9502C13.3126 27.7593 14.0033 28.5073 14.7611 29.1836C14.8158 29.2262 14.861 29.2799 14.8936 29.3411C14.9262 29.4023 14.9455 29.4697 14.9503 29.5389C14.9509 29.5795 14.943 29.6198 14.9271 29.6572C14.9112 29.6945 14.8877 29.7281 14.858 29.7558C14.7618 29.8443 14.6378 29.8965 14.5073 29.9035C14.4514 29.9058 14.3962 29.8896 14.3504 29.8573C13.2875 29.4403 12.3181 28.816 11.4987 28.0208C11.0367 27.6191 10.6466 27.1416 10.3451 26.6087C10.0356 26.0823 9.78051 25.5257 9.58368 24.9475C9.39335 24.3507 9.29531 23.7282 9.29297 23.1017C9.30696 23.0004 9.31927 22.8989 9.32988 22.7972C9.36796 21.0329 10.0776 19.3495 11.3141 18.0904C11.5707 17.9421 11.8716 17.8898 12.1632 17.9428C12.4467 17.9922 12.7025 18.1431 12.883 18.3673C13.034 18.5238 13.1176 18.7332 13.1159 18.9506C13.1141 19.168 13.0272 19.3761 12.8738 19.5301C12.1249 20.6171 11.7094 21.899 11.6782 23.2186Z" fill="#2E1C62"/>
</svg>
