<svg width="34" height="32" viewBox="0 0 34 32" fill="none" xmlns="http://www.w3.org/2000/svg">
<path d="M17.9937 31.917C18.2304 31.9168 18.4647 31.8712 18.6831 31.783C18.9058 31.6968 19.1074 31.5666 19.2748 31.4008L33.4651 17.7047C33.6341 17.5409 33.7687 17.347 33.8613 17.1339C33.9533 16.9216 34.0007 16.6938 34.0007 16.4637C34.0007 16.2336 33.9533 16.0058 33.8613 15.7936C33.7715 15.5804 33.6366 15.3876 33.4651 15.2276L19.2748 1.53162C19.105 1.36848 18.9041 1.23867 18.6831 1.14938C18.4648 1.06091 18.2304 1.01535 17.9937 1.01535V31.917Z" fill="#6667AB"/>
<path opacity="0.5" d="M16.0046 26.1536C15.5532 26.162 15.1082 26.0504 14.7183 25.831L0.533085 17.253C0.374996 17.1883 0.240146 17.0801 0.145348 16.9419C0.0505506 16.8038 0 16.6418 0 16.4761C0 16.3104 0.0505506 16.1484 0.145348 16.0102C0.240146 15.8721 0.374996 15.7639 0.533085 15.6992L14.7234 7.11126C15.114 6.89382 15.5589 6.78393 16.0097 6.79355L16.0046 26.1536Z" fill="#6667AB"/>
<path opacity="0.5" d="M16.0035 20.3605C15.5522 20.3687 15.1072 20.257 14.7172 20.0379L0.531966 11.4599C0.375402 11.3944 0.242086 11.2863 0.148434 11.1487C0.0547817 11.0111 0.00488281 10.8501 0.00488281 10.6854C0.00488281 10.5208 0.0547817 10.3598 0.148434 10.2222C0.242086 10.0846 0.375402 9.97646 0.531966 9.91105L14.7223 1.32311C15.1123 1.10369 15.5573 0.992063 16.0086 1.00044L16.0035 20.3605Z" fill="#6667AB"/>
<path opacity="0.5" d="M16.0035 31.9468C15.5521 31.9552 15.1071 31.8435 14.7172 31.6241L0.531966 23.0412C0.375402 22.9757 0.242086 22.8676 0.148434 22.73C0.0547817 22.5924 0.00488281 22.4314 0.00488281 22.2667C0.00488281 22.1021 0.0547817 21.9411 0.148434 21.8035C0.242086 21.6659 0.375402 21.5578 0.531966 21.4923L14.7275 12.8994C15.116 12.6811 15.559 12.5696 16.0086 12.5768V31.9518L16.0035 31.9468Z" fill="#6667AB"/>
</svg>
