<svg width="32" height="32" viewBox="0 0 32 32" fill="none" xmlns="http://www.w3.org/2000/svg">
<path fill-rule="evenodd" clip-rule="evenodd" d="M14.9474 5.39397C14.6424 5.65253 14.4244 5.99876 14.323 6.38557C14.1578 6.92422 13.2518 9.56849 12.0948 12.8738H19.8262C19.0618 10.7179 18.317 8.55505 17.5919 6.38557C17.4926 5.99937 17.2767 5.65313 16.9736 5.39397C16.6757 5.17412 16.3081 5.06973 15.9391 5.10017C15.5832 5.06875 15.2287 5.17378 14.9474 5.39397ZM3.53096 12.8738H8.78314C10.0686 9.10942 11.1827 5.96935 11.348 5.39397C11.6433 4.41051 12.2356 3.54246 13.0437 2.90885C13.8702 2.3038 14.872 1.98566 15.8962 2.00294C16.9233 1.96553 17.9315 2.28571 18.7488 2.90885C19.5569 3.54246 20.1492 4.41051 20.4445 5.39397C20.6526 5.96935 21.73 9.06657 23.0093 12.8738H28.3411C28.7406 12.8988 29.1155 13.0751 29.3896 13.3667C29.6637 13.6584 29.8162 14.0436 29.8162 14.4439C29.8162 14.8441 29.6637 15.2293 29.3896 15.521C29.1155 15.8127 28.7406 15.9889 28.3411 16.0139H3.53096C3.32686 16.014 3.12481 15.9732 2.9367 15.894C2.7486 15.8148 2.57823 15.6988 2.43564 15.5528C2.29304 15.4068 2.18109 15.2337 2.10638 15.0438C2.03167 14.8539 1.9957 14.6509 2.0006 14.4469C1.9973 14.0361 2.15612 13.6405 2.44261 13.346C2.7291 13.0515 3.12016 12.8819 3.53096 12.8738ZM3.53096 19.0744C3.32633 19.0743 3.12377 19.1153 2.93524 19.1948C2.74672 19.2744 2.57608 19.391 2.43339 19.5376C2.29071 19.6843 2.1789 19.8581 2.10456 20.0487C2.03022 20.2394 1.99487 20.443 2.0006 20.6475C1.9973 21.0583 2.15612 21.4539 2.44261 21.7484C2.7291 22.0429 3.12016 22.2125 3.53096 22.2206H5.6L4.77361 24.6139L3.94721 27.0133L3.61666 27.9253C3.54873 28.1183 3.51947 28.3227 3.53054 28.5269C3.54162 28.7311 3.59281 28.9312 3.6812 29.1156C3.76959 29.3 3.89345 29.4653 4.0457 29.6019C4.19794 29.7384 4.37561 29.8437 4.56854 29.9116C4.76147 29.9795 4.96589 30.0088 5.17013 29.9977C5.37437 29.9866 5.57443 29.9355 5.75888 29.8471C5.94333 29.7587 6.10857 29.6348 6.24516 29.4826C6.38175 29.3304 6.48701 29.1527 6.55494 28.9598L6.8855 28.0478L7.71189 25.6483C8.04245 24.6567 8.45258 23.4999 8.91169 22.2206H23.0522C23.4623 23.457 23.8786 24.6567 24.2459 25.6483L25.0723 28.0478L25.4028 28.9598C25.4711 29.1527 25.5768 29.3303 25.7138 29.4824C25.8507 29.6345 26.0163 29.7581 26.201 29.8462C26.3858 29.9343 26.5861 29.9851 26.7905 29.9958C26.9948 30.0065 27.1993 29.9769 27.3923 29.9085C27.5852 29.8402 27.7628 29.7346 27.9149 29.5976C28.067 29.4607 28.1906 29.2951 28.2787 29.1104C28.3668 28.9257 28.4177 28.7254 28.4284 28.521C28.4391 28.3166 28.4094 28.1121 28.3411 27.9192L28.0105 27.0133L27.1841 24.6139L26.3578 22.2206H28.4268C28.844 22.2206 29.2442 22.0548 29.5392 21.7598C29.8343 21.4648 30 21.0647 30 20.6475C30 20.2303 29.8343 19.8302 29.5392 19.5351C29.2442 19.2401 28.844 19.0744 28.4268 19.0744H3.53096Z" fill="#D9327C"/>
</svg>
