<svg width="32" height="32" viewBox="0 0 32 32" fill="none" xmlns="http://www.w3.org/2000/svg">
<path opacity="0.5" d="M14.1952 5.81285L14.0511 5.89605C12.3169 6.89725 11.7228 9.11469 12.724 10.8488L20.7636 24.7738C21.7648 26.5079 23.9822 27.1021 25.7163 26.1009L25.8604 26.0177C27.5946 25.0165 28.1888 22.799 27.1875 21.0649L19.148 7.13994C18.1468 5.4058 15.9293 4.81164 14.1952 5.81285Z" fill="#5FCE5F"/>
<path opacity="0.75" d="M17.9491 5.89623L17.805 5.81303C16.0708 4.81182 13.8534 5.40598 12.8522 7.14012L4.81261 21.0651C3.81141 22.7992 4.40557 25.0167 6.13971 26.0179L6.28381 26.1011C8.01795 27.1023 10.2354 26.5081 11.2366 24.774L19.2762 10.849C20.2774 9.11487 19.6832 6.89743 17.9491 5.89623Z" fill="#5FCE5F"/>
</svg>
