<svg width="32" height="32" viewBox="0 0 32 32" fill="none" xmlns="http://www.w3.org/2000/svg">
<path fill-rule="evenodd" clip-rule="evenodd" d="M17.7954 3.38994L26.8536 7.74154C27.5029 8.05386 28.0473 8.52943 28.4262 9.11534C28.8052 9.70125 29.0038 10.3745 28.9999 11.0602V13.0734H25.6788V11.0602C25.67 10.9536 25.6339 10.8505 25.5737 10.7598C25.5135 10.669 25.4309 10.5933 25.3329 10.539L16.2797 6.18739C16.1001 6.1203 15.8999 6.1203 15.7203 6.18739L6.6671 10.539C6.55769 10.5796 6.46504 10.6522 6.40278 10.746C6.34052 10.8398 6.31194 10.95 6.32124 11.0602V13.0734H3.00005V11.0602C3.00618 10.3771 3.20896 9.70829 3.58686 9.12482C3.96476 8.54134 4.50367 8.06498 5.14637 7.74632L14.1995 3.38994C14.7596 3.13335 15.3744 3 15.9975 3C16.6205 3 17.2353 3.13335 17.7954 3.38994ZM18.8329 15.8709C18.8289 15.1656 18.5292 14.4903 17.9988 13.9916C17.4683 13.4929 16.7501 13.2111 16 13.2073C15.6268 13.2035 15.2566 13.2698 14.9111 13.4023C14.5655 13.5348 14.2516 13.7308 13.9877 13.9789C13.7238 14.227 13.5153 14.5222 13.3744 14.8471C13.2335 15.172 13.163 15.52 13.1671 15.8709C13.1671 16.5773 13.4655 17.2548 13.9968 17.7543C14.5281 18.2538 15.2487 18.5344 16 18.5344C16.7513 18.5344 17.4719 18.2538 18.0032 17.7543C18.5345 17.2548 18.8329 16.5773 18.8329 15.8709ZM25.2617 21.461C25.3721 21.4212 25.4658 21.349 25.529 21.2551C25.5923 21.1612 25.6216 21.0506 25.6126 20.9398V18.9266H28.9287V20.9398C28.9231 21.6224 28.7211 22.2909 28.3441 22.8743C27.9671 23.4578 27.4293 23.9344 26.7875 24.2537L17.7293 28.6101C17.1692 28.8667 16.5544 29 15.9313 29C15.3083 29 14.6935 28.8667 14.1334 28.6101L5.14637 24.2585C4.49708 23.9461 3.95269 23.4706 3.57377 22.8847C3.19484 22.2988 2.99624 21.6255 3.00005 20.9398V18.9266H6.32124V20.9398C6.33004 21.0464 6.36607 21.1495 6.42628 21.2402C6.48649 21.331 6.5691 21.4067 6.6671 21.461L14.3419 25.1001V21.461C13.0449 21.119 11.9029 20.3867 11.0908 19.3761C10.2788 18.3656 9.84145 17.1326 9.84588 15.8661C9.84135 14.7785 10.1595 13.7113 10.7645 12.7843C11.3695 11.8574 12.2375 11.1074 13.2709 10.6186C14.3042 10.1299 15.4621 9.92177 16.6143 10.0176C17.7666 10.1135 18.8676 10.5095 19.7936 11.1613C20.7197 11.8131 21.4341 12.6947 21.8566 13.7071C22.2791 14.7196 22.3929 15.8228 22.1853 16.8927C21.9778 17.9626 21.457 18.957 20.6815 19.764C19.906 20.571 18.9065 21.1586 17.7954 21.461V25.1001L25.2617 21.461Z" fill="#245AE5" fill-opacity="0.9"/>
</svg>
