<svg width="32" height="32" viewBox="0 0 32 32" fill="none" xmlns="http://www.w3.org/2000/svg">
<path d="M29.505 12.7633C29.474 11.6908 29.1311 10.6494 28.5169 9.76203C27.9026 8.87466 27.0427 8.17835 26.0385 7.75528L24.8066 14.8768C25.0612 14.8419 25.3204 14.8614 25.5666 14.9339C25.8127 15.0064 26.0401 15.1303 26.233 15.297C26.4551 15.5095 26.588 15.7961 26.6056 16.1001C26.6232 16.4041 26.5242 16.7035 26.3281 16.9394C27.2733 16.7214 28.1099 16.1831 28.691 15.4193C29.272 14.6555 29.5602 13.7151 29.505 12.7633Z" fill="url(#paint0_linear_22_95)"/>
<path fill-rule="evenodd" clip-rule="evenodd" d="M13.3169 4.48312L11.856 3.03165C16.6917 2.78108 21.4861 4.02326 25.5664 6.58393C25.6182 6.89451 25.6182 7.2113 25.5664 7.52187L26.0418 7.75954C26.4215 8.37756 26.6717 9.06377 26.7779 9.77795C26.884 10.4921 26.8439 11.2199 26.6599 11.9187C26.4981 13.0832 25.8869 14.1422 24.9526 14.8768C24.3232 14.9057 23.7261 15.1585 23.2727 15.588C22.8193 16.0176 22.5407 16.5945 22.4889 17.2111C22.0696 19.1209 21.2656 19.5368 20.9199 19.5029L12.5648 19.6005L7.04953 16.4174L6.25854 9.81791L7.82323 7.76378L10.6241 5.51867L12.6167 4.72079L13.3169 4.48312ZM23.1934 7.18659C22.9566 7.43123 22.6806 7.63624 22.3765 7.79349C21.2488 7.63491 20.2141 7.09089 19.4546 6.25714C21.2794 6.20362 23.0845 6.6394 24.676 7.51763C24.1914 7.36906 23.6957 7.25836 23.1934 7.18659Z" fill="url(#paint1_linear_22_95)"/>
<path fill-rule="evenodd" clip-rule="evenodd" d="M22.4186 17.2153C20.8278 17.9657 19.0832 18.3489 17.3183 18.3357C15.0817 18.5773 12.8371 17.9557 11.0586 16.6023C9.28019 15.2488 8.10723 13.2696 7.78759 11.0826C7.90972 9.53483 8.52164 8.06324 9.5377 6.87381C10.5538 5.68437 11.9231 4.83661 13.4542 4.44916C10.4058 4.57853 7.52274 5.84578 5.39392 7.99207C3.26509 10.1384 2.05113 13.0017 2 15.9973C2.17507 19.6015 3.79122 22.9924 6.49747 25.4335C9.20372 27.8746 12.7815 29.1688 16.4538 29.035C19.2271 29.0123 21.9441 28.2642 24.3251 26.8677C26.706 25.4713 28.6649 23.477 30 21.0901C26.4211 21.8795 22.1982 20.3771 22.4186 17.2153Z" fill="url(#paint2_linear_22_95)"/>
<defs>
<linearGradient id="paint0_linear_22_95" x1="26.8381" y1="9.83487" x2="27.5509" y2="18.5416" gradientUnits="userSpaceOnUse">
<stop stop-color="#01E8F7"/>
<stop offset="1" stop-color="#00C2FF"/>
</linearGradient>
<linearGradient id="paint1_linear_22_95" x1="12.245" y1="5.16217" x2="20.6274" y2="18.7116" gradientUnits="userSpaceOnUse">
<stop stop-color="#01E8F7"/>
<stop offset="1" stop-color="#00B3EC"/>
</linearGradient>
<linearGradient id="paint2_linear_22_95" x1="15.7407" y1="11.4094" x2="16.4825" y2="33.0594" gradientUnits="userSpaceOnUse">
<stop stop-color="#01E8F7"/>
<stop offset="1" stop-color="#00C2FF"/>
</linearGradient>
</defs>
</svg>
