<svg width="32" height="32" viewBox="0 0 32 32" fill="none" xmlns="http://www.w3.org/2000/svg">
<path d="M29.923 9.73453C29.8495 10.0922 29.7478 10.4435 29.619 10.7852C29.4291 11.2208 29.2913 11.6773 29.2083 12.1452C29.1631 12.3691 29.1293 12.5952 29.107 12.8225C29.0764 13.1098 29.0193 13.3937 28.9364 13.6705C28.7853 14.1189 28.5697 14.5429 28.2964 14.9292C27.987 15.3345 27.443 16.0492 26.7657 16.1185H26.5257C25.1489 15.37 23.7193 14.723 22.2483 14.1825C21.5656 13.9745 21.635 12.4812 21.7363 11.1958C21.779 10.6518 21.7897 10.1078 21.7737 9.56384C21.8405 8.74045 21.7087 7.91304 21.3895 7.15112C21.0703 6.38921 20.5728 5.71502 19.939 5.1852C19.0037 4.67767 17.9453 4.44125 16.883 4.50252C17.0857 4.4012 17.2884 4.26783 17.523 4.12918C18.3834 3.5337 19.3996 3.20363 20.4457 3.17986C21.875 2.89182 23.3524 2.95049 24.7604 3.3505C25.6688 3.66285 26.4697 4.227 27.0697 4.97718C27.459 5.59054 27.9497 6.13452 28.5257 6.57713C28.819 6.85452 29.123 7.11584 29.443 7.35585C29.715 7.59582 29.7844 7.62782 29.8857 7.79851C30.1043 8.42252 30.115 9.09982 29.923 9.73453ZM22.6857 16.5612C22.7118 16.5696 22.7357 16.5837 22.7557 16.6024C22.7758 16.6211 22.7914 16.644 22.8016 16.6695C22.8118 16.6949 22.8162 16.7223 22.8146 16.7497C22.813 16.7771 22.8054 16.8038 22.7924 16.8279C22.5844 17.1371 22.3497 17.5745 22.0777 18.0865C21.939 18.3265 21.8057 18.5985 21.7043 18.7692C21.4234 19.2795 21.2714 19.8507 21.2617 20.4332C21.2297 20.9079 21.2297 21.1105 20.9203 21.2811C20.6857 21.4518 20.4457 21.4838 18.8191 21.7239C18.6432 21.7455 18.4711 21.7904 18.307 21.8572C18.275 21.8572 18.275 21.8572 18.2377 21.8892C18.2129 21.8991 18.1859 21.9023 18.1595 21.8983C18.1331 21.8943 18.1082 21.8832 18.0875 21.8664C18.0668 21.8495 18.051 21.8274 18.0418 21.8023C18.0326 21.7772 18.0302 21.7501 18.035 21.7239C18.035 21.4838 18.0723 21.2118 18.0723 20.8705V20.0225C18.035 19.6171 18.035 19.4465 18.1737 19.2439C18.2818 19.0827 18.4193 18.9433 18.579 18.8332C19.0049 18.5549 19.3741 18.1984 19.667 17.7825C19.8314 17.5674 19.9577 17.3256 20.0403 17.0678C20.0403 17.0038 20.0723 16.9665 20.275 16.8332C20.5066 16.633 20.7779 16.4838 21.0711 16.3956C21.3642 16.3074 21.6727 16.282 21.9764 16.3211C22.1097 16.3532 22.4137 16.4598 22.6857 16.5612ZM16.2697 24.0652C16.254 24.0858 16.2338 24.1028 16.2108 24.1148C16.1877 24.1267 16.1623 24.1335 16.1364 24.1345C16.0676 24.1435 15.9976 24.1355 15.9325 24.1114C15.8675 24.0872 15.8093 24.0476 15.763 23.9958C15.626 23.7354 15.5881 23.4341 15.6563 23.1479L16.339 22.9772C16.4077 23.3399 16.3838 23.7141 16.2697 24.0652ZM16.3017 21.5852C16.3017 21.6919 16.2697 21.7879 16.2697 21.9265V22.4332C16.0615 22.4909 15.8454 22.5143 15.6297 22.5025V21.9265C15.6199 21.7888 15.6307 21.6504 15.6617 21.5158C15.7257 21.5158 15.795 21.4838 15.8643 21.4838C16.0076 21.4469 16.154 21.4237 16.3017 21.4145C16.339 21.4518 16.3017 21.5212 16.3017 21.5852ZM15.0483 23.8572C15.0163 24.1985 14.9097 24.6412 14.5684 24.7105C14.435 24.7425 14.3337 24.7105 14.3017 24.6412C14.0617 24.4385 14.0297 23.7932 14.0617 23.3505C14.2549 23.3385 14.4472 23.3153 14.6377 23.2812C14.7715 23.2433 14.9094 23.2218 15.0483 23.2172V23.8572ZM14.8777 22.6038L14.131 22.8438C14.163 22.5345 14.2377 22.1292 14.2377 21.8572C14.2323 21.7612 14.2537 21.6705 14.3017 21.5905H14.3337L14.8137 21.5532C14.867 21.9007 14.8884 22.2524 14.8777 22.6038ZM13.6884 22.3638C13.6564 22.4705 13.587 22.8065 13.555 23.0145L12.6003 22.9772C12.6714 22.6714 12.7408 22.3994 12.8083 22.1612C12.8396 21.9947 12.9215 21.8419 13.043 21.7239C13.1126 21.6881 13.1908 21.6721 13.2688 21.6778C13.3469 21.6834 13.4219 21.7104 13.4857 21.7559C13.5788 21.8232 13.6485 21.9182 13.6849 22.0272C13.7212 22.1363 13.7224 22.254 13.6884 22.3638ZM13.315 25.2172C13.2549 25.2955 13.1734 25.3548 13.0803 25.3878C13.0377 25.395 12.994 25.3925 12.9524 25.3805C12.9109 25.3685 12.8726 25.3473 12.8404 25.3185C12.5363 25.0519 12.5683 24.1665 12.5683 23.7238C12.9008 23.6307 13.2423 23.5735 13.587 23.5532C13.6628 24.122 13.5701 24.7005 13.3203 25.2172H13.315ZM12.0937 22.9452C12.0532 23.0595 12.007 23.1716 11.955 23.2812C11.6937 23.3024 11.4307 23.2808 11.1764 23.2172L11.4163 21.7559C11.7214 21.6448 12.0538 21.6336 12.3657 21.7239C12.499 21.8892 12.227 22.6359 12.0937 22.9452ZM11.683 25.4572C11.5815 25.5805 11.4507 25.6763 11.3025 25.736C11.1544 25.7956 10.9936 25.8171 10.835 25.7985C10.5683 25.7985 10.4617 25.6918 10.4296 25.6278C10.227 25.2865 10.4296 24.5078 10.6323 23.9958L11.891 24.0652C11.891 24.1665 11.923 24.2678 11.923 24.3692C11.9794 24.749 11.894 25.1363 11.683 25.4572Z" fill="#0046C8"/>
<path d="M22.1473 14.7585C20.99 14.4225 21.0913 12.7585 21.1927 11.1585C21.2406 10.6411 21.246 10.1185 21.23 9.59582C21.2898 8.86851 21.1798 8.13724 20.9086 7.45973C20.6374 6.78222 20.2125 6.177 19.6673 5.69184C18.1651 5.0574 16.5035 4.90279 14.91 5.24918C14.4915 5.38299 14.0579 5.46361 13.6193 5.48915C12.9448 5.42478 12.2947 5.20381 11.7206 4.84385C11.3881 4.61425 11.0027 4.47294 10.6006 4.43318H10.526C10.177 4.41901 9.82864 4.47494 9.50161 4.59768C9.17458 4.72043 8.87547 4.90749 8.62197 5.14781C8.32333 5.64382 8.08864 6.18248 7.94467 6.74781C7.79431 7.16284 7.69404 7.59434 7.64598 8.03315C7.61418 8.4048 7.53348 8.77063 7.40596 9.12116C7.30464 9.4305 7.20332 9.73452 7.13932 9.97449C6.9799 10.672 6.67853 11.3292 6.254 11.9052C6.17133 12.0093 6.10314 12.1241 6.0513 12.2465C5.92306 12.4742 5.77493 12.6902 5.60864 12.8918C5.39403 13.2065 5.25362 13.5657 5.19798 13.9425C5.2353 14.2145 5.31533 14.4812 5.438 14.7265C5.60759 14.9894 5.70167 15.2938 5.70996 15.6065V15.6758C5.74196 16.2518 5.67796 16.5612 4.55262 17.5425C3.98328 18.0615 3.46206 18.6309 2.99532 19.2438C2.958 19.2758 2.99532 19.3452 3.05932 19.3452H3.29929C3.57106 19.3642 3.82592 19.484 4.01397 19.6812C4.04597 19.7185 4.07796 19.7185 4.14729 19.7185C4.33243 19.6544 4.53145 19.6415 4.72332 19.6812C4.94582 19.7038 5.15792 19.7867 5.33668 19.9211C5.38997 19.9745 5.46462 19.9958 5.53932 19.9905C5.69487 19.9551 5.85667 19.958 6.01086 19.9989C6.16505 20.0397 6.30704 20.1174 6.42464 20.2252C6.50999 20.3212 6.65933 20.3318 6.76065 20.2572C6.79798 20.2252 6.8673 20.2252 6.8993 20.1932C7.27084 20.1262 7.65412 20.1863 7.98732 20.3638C8.15489 20.4828 8.28454 20.6476 8.36066 20.8385C8.3751 20.8729 8.39719 20.9035 8.42525 20.9281C8.45331 20.9527 8.4866 20.9705 8.5226 20.9803C8.55859 20.9901 8.59634 20.9915 8.63297 20.9845C8.6696 20.9775 8.70415 20.9622 8.73399 20.9398C8.78735 20.8899 8.8542 20.8567 8.92626 20.8443C8.99831 20.832 9.0724 20.8411 9.13933 20.8705C9.17133 20.9025 9.24598 20.9398 9.27798 20.9772C9.32232 21.0324 9.37957 21.0759 9.44467 21.1038C9.50977 21.1317 9.58074 21.1431 9.65131 21.1372C10.029 21.0438 10.4278 21.0932 10.7713 21.2758C10.9066 21.3504 11.0218 21.4565 11.1073 21.5851V21.5105C11.1073 21.4732 11.1393 21.4465 11.1766 21.4465L11.2459 21.4092C11.4113 21.3452 12.366 21.0732 12.7393 21.4785C12.7481 21.4864 12.7595 21.4907 12.7713 21.4907C12.7831 21.4907 12.7945 21.4864 12.8033 21.4785C12.8407 21.4092 12.91 21.4092 12.91 21.3718C13.0525 21.2931 13.215 21.2582 13.3773 21.2715C13.5395 21.2847 13.6942 21.3456 13.822 21.4465C13.8913 21.4785 13.9606 21.4785 13.9926 21.4092L14.0993 21.3078C14.145 21.2664 14.1994 21.2358 14.2584 21.2182C14.3175 21.2007 14.3798 21.1967 14.4407 21.2065L14.9473 21.1745C15.1763 21.1685 15.4045 21.1453 15.63 21.1052H15.662C15.7313 21.1052 15.7633 21.0732 15.8326 21.0732C16.0853 20.9886 16.3586 20.9886 16.6113 21.0732C16.8513 21.1745 16.814 21.4465 16.782 21.6491C16.782 21.7505 16.75 21.8518 16.75 21.9158V22.0545C16.7569 22.226 16.7444 22.3978 16.7126 22.5665L16.7446 22.6678C16.7502 22.6927 16.7616 22.7159 16.778 22.7355C16.7943 22.755 16.8151 22.7704 16.8386 22.7803C16.862 22.7902 16.8875 22.7944 16.913 22.7924C16.9384 22.7905 16.963 22.7825 16.9847 22.7692C17.1398 22.6815 17.2773 22.5658 17.39 22.4278V22.3958C17.4705 21.879 17.5062 21.3561 17.4966 20.8331V19.9798C17.4269 19.5985 17.485 19.2047 17.662 18.8598C17.8018 18.6102 18.0163 18.4107 18.2753 18.2892C18.8126 17.9669 19.2302 17.4782 19.4647 16.8972C19.4967 16.6892 19.566 16.5558 19.9073 16.2838C20.1986 16.0336 20.5405 15.8493 20.9096 15.7434C21.2787 15.6376 21.6664 15.6127 22.046 15.6705C22.558 15.7878 23.0593 15.9425 23.5393 16.1505C23.5713 16.1505 23.5713 16.1505 23.6087 16.1825H23.6406C24.0833 16.3478 24.5153 16.5398 24.9313 16.7585C24.9774 16.7818 25.0303 16.7876 25.0803 16.7749C25.1303 16.7621 25.174 16.7317 25.2033 16.6891C25.2962 16.5911 25.398 16.5018 25.5073 16.4225C25.5447 16.3852 25.5766 16.3852 25.614 16.3478C25.6386 16.3257 25.6575 16.2981 25.6692 16.2672C25.681 16.2363 25.6852 16.2031 25.6816 16.1702C25.6779 16.1374 25.6665 16.1059 25.6483 16.0784C25.63 16.0508 25.6055 16.028 25.5767 16.0118C24.4617 15.5192 23.3162 15.0988 22.1473 14.7532V14.7585ZM11.278 15.0998C10.6113 16.7531 9.17665 17.9692 7.43796 18.3585H7.23531C6.98243 18.2749 6.75113 18.1365 6.55796 17.9531C6.42531 17.8153 6.32192 17.652 6.254 17.4732C6.25591 17.4545 6.25354 17.4357 6.24706 17.4182C6.24058 17.4006 6.23017 17.3847 6.21662 17.3718C6.10595 16.9987 6.14419 16.5973 6.32332 16.2518L6.41927 16.0492C6.41927 16.0172 6.45664 16.0172 6.45664 15.9798C6.48864 15.9158 6.48864 15.8785 6.52596 15.8145C6.56217 15.7526 6.58404 15.6833 6.58996 15.6118C6.58996 15.5745 6.62733 15.5745 6.62733 15.5425C6.67291 15.4346 6.69474 15.3182 6.69133 15.2012C6.69133 15.1212 6.70198 15.0412 6.72866 14.9665C6.79798 14.6571 6.82998 14.4225 6.86198 14.2199C6.88681 13.8495 6.9924 13.4891 7.17132 13.1638C7.19804 13.1046 7.24545 13.0572 7.30464 13.0305L7.33664 12.9985L7.37396 12.9611C7.44328 12.9291 7.47533 12.8918 7.54466 12.8598C7.57666 12.8598 7.57665 12.8278 7.60865 12.8278C7.64598 12.8278 7.7153 12.7905 7.7473 12.7905C7.97013 12.7454 8.19856 12.7346 8.42465 12.7585C8.87696 12.8007 9.32072 12.9085 9.74199 13.0785C9.74816 13.084 9.75197 13.0916 9.75264 13.0998C9.77399 13.0998 9.80066 13.1158 9.81663 13.1318C9.83063 13.1452 9.8476 13.1551 9.86614 13.1606C9.88469 13.1662 9.90428 13.1673 9.92333 13.1638C9.95533 13.2012 10.0193 13.2012 10.0567 13.2332H10.0887C10.2593 13.3025 10.398 13.4038 10.5313 13.4732C10.6006 13.5052 10.638 13.5745 10.702 13.6065C10.7066 13.6064 10.7113 13.6074 10.7156 13.6093C10.7198 13.6113 10.7236 13.6141 10.7267 13.6177C10.7297 13.6212 10.732 13.6254 10.7332 13.6299C10.7345 13.6345 10.7347 13.6392 10.734 13.6438L10.7713 13.6705C11.2033 14.0065 11.406 14.5665 11.278 15.0998ZM12.398 9.25981L12.366 9.5265C12.3595 9.90968 12.2352 10.2816 12.01 10.5917C11.7848 10.9018 11.4696 11.135 11.1073 11.2598C10.558 11.4305 9.98733 11.5265 9.4113 11.5318H9.3793C9.06008 11.5398 8.74604 11.4501 8.47918 11.2747C8.21233 11.0993 8.00537 10.8467 7.88599 10.5505C7.7793 10.0705 7.98732 9.76652 8.32333 9.19049C8.39265 9.08384 8.42998 8.98784 8.49398 8.88652C8.81397 8.35319 9.05931 7.78248 9.24065 7.18515C9.32431 6.79242 9.51224 6.42948 9.78469 6.1345C9.85704 6.05839 9.93751 5.99042 10.0247 5.93181L10.19 5.82517C10.5178 5.66263 10.8837 5.59263 11.2484 5.6227C11.613 5.65277 11.9626 5.78178 12.2593 5.99581C12.5366 6.25718 12.6913 6.60917 12.7073 6.9825C12.7073 7.28652 12.6006 7.89983 12.398 9.25981ZM18.8833 11.0572C18.7076 11.454 18.4536 11.8114 18.1366 12.1078C17.6631 12.4791 17.074 12.6717 16.4726 12.6519C16.1768 12.645 15.8823 12.611 15.5926 12.5505C15.0486 12.4438 14.062 12.2838 13.7259 11.4998C13.6732 11.3828 13.6494 11.2547 13.6566 11.1265C13.6554 10.8531 13.6322 10.5802 13.5873 10.3105V10.2785C13.5354 10.009 13.5354 9.73203 13.5873 9.4625V9.4305C13.6405 9.02642 13.7316 8.62822 13.8593 8.24116C13.907 8.15302 13.9865 8.08634 14.0816 8.05464C14.1766 8.02294 14.2802 8.0286 14.3713 8.07047C14.5526 8.16652 14.6273 8.39046 14.5367 8.57718C14.4513 8.90249 14.3819 9.23318 14.334 9.56382V9.59582C14.3 9.78812 14.3 9.98489 14.334 10.1772V10.2092C14.3767 10.5131 14.4033 10.8172 14.4033 11.1264V11.2278C14.4679 11.3602 14.5749 11.4672 14.7073 11.5318C14.7372 11.5469 14.7709 11.5529 14.8041 11.549C14.8374 11.5451 14.8688 11.5315 14.8944 11.5099C14.92 11.4883 14.9387 11.4596 14.9481 11.4275C14.9575 11.3953 14.9572 11.3611 14.9473 11.3291C14.7558 10.5485 14.8155 9.72727 15.118 8.98252C15.2193 8.78515 15.422 8.44381 15.5927 8.13984C15.6246 8.10252 15.6246 8.07052 15.662 8.03315C15.662 8.01185 15.6727 7.98517 15.694 7.96915C15.7633 7.8305 15.8646 7.69718 15.8966 7.62781C15.8966 7.61932 15.9 7.61118 15.906 7.60518C15.912 7.59918 15.9202 7.59581 15.9286 7.59581C15.9277 7.5907 15.928 7.58544 15.9295 7.58047C15.9311 7.57551 15.9338 7.57099 15.9375 7.56732C15.9411 7.56364 15.9457 7.56091 15.9506 7.55938C15.9556 7.55784 15.9609 7.55753 15.966 7.55849C15.966 7.52649 15.998 7.52649 15.998 7.49449V7.42517L16.0353 7.39317C16.0673 7.32384 16.1367 7.25452 16.1687 7.1852C16.2753 7.05183 16.1687 6.88118 15.998 6.95051C15.7313 7.08383 15.5606 7.21715 15.5233 7.21715C15.4846 7.25704 15.4377 7.28817 15.3859 7.30844C15.3341 7.3287 15.2786 7.33763 15.223 7.33463C15.1675 7.33163 15.1133 7.31676 15.0639 7.29103C15.0146 7.2653 14.9714 7.2293 14.9372 7.18546C14.903 7.14162 14.8785 7.09096 14.8655 7.03688C14.8525 6.9828 14.8513 6.92657 14.8618 6.87196C14.8724 6.81735 14.8945 6.76564 14.9268 6.72031C14.959 6.67498 15.0005 6.63708 15.0486 6.60917C15.3406 6.35491 15.6848 6.16796 16.057 6.06157C16.4292 5.95518 16.8203 5.93195 17.2025 5.99353C17.5847 6.0551 17.9486 6.19997 18.2686 6.41788C18.5886 6.63579 18.8567 6.9214 19.054 7.25447C19.4174 7.7608 19.6199 8.36479 19.6353 8.98784C19.6032 9.73762 19.3427 10.4597 18.8886 11.0572H18.8833Z" fill="#0046C8"/>
<path d="M10.8041 6.40649C10.7348 6.57719 10.6655 6.74256 10.5641 6.95053C10.3615 7.42519 10.1588 7.96385 10.0575 8.17186C9.93677 8.42572 9.78831 8.66541 9.61479 8.88654C9.42471 9.15389 9.29319 9.45835 9.22886 9.78001C9.16452 10.1017 9.16882 10.4333 9.24145 10.7532C9.00144 10.7212 8.6281 10.5505 8.5641 10.3425C8.52678 10.1772 8.6281 10.0385 8.90011 9.5639C8.96944 9.4572 9.00676 9.3612 9.07076 9.25983C9.41742 8.6732 9.69476 8.04387 9.88676 7.39314C10.0575 6.9132 10.1268 6.71051 10.3668 6.53987C10.5321 6.50787 10.6708 6.43849 10.8041 6.40649ZM10.3294 23.5212C10.1044 23.9724 9.84216 24.4041 9.54547 24.8118C9.25587 24.065 9.1286 23.265 9.17213 22.4652V22.4012C9.18943 22.1579 9.27236 21.9238 9.4121 21.7239C9.48142 21.5905 9.71611 21.5212 9.98813 21.5212C10.1886 21.5132 10.3875 21.5593 10.5641 21.6545C10.6454 21.6939 10.7122 21.7578 10.7553 21.8373C10.7984 21.9167 10.8154 22.0076 10.8041 22.0972C10.7328 22.5973 10.5701 23.08 10.3241 23.5212H10.3294Z" fill="#0046C8"/>
<path d="M24.793 17.4785C24.8303 17.4785 24.8303 17.5105 24.8303 17.5425C24.7602 17.692 24.6686 17.8304 24.5583 17.9532C24.3983 18.1452 24.2489 18.3478 24.1156 18.5612C23.8828 19.0968 23.7787 19.6794 23.8116 20.2625C23.7796 20.9861 23.7902 21.7109 23.8436 22.4332C23.8863 22.8065 23.8703 23.1798 23.8116 23.5532C23.6383 24.3281 23.302 25.0571 22.8249 25.6918C22.3683 26.634 21.602 27.3909 20.6543 27.8358C20.5445 27.8725 20.4277 27.8834 20.313 27.8679C20.0729 27.8679 19.6996 27.8679 18.9903 27.8999C18.1481 27.8946 17.3067 27.9516 16.4729 28.0705C16.061 28.1387 15.6606 28.2643 15.2836 28.4439C14.9566 28.5782 14.6172 28.68 14.2703 28.7479C13.5528 28.8789 12.8225 28.9255 12.0943 28.8865C10.8676 28.9131 9.64096 28.8705 8.42495 28.7479C7.38215 28.7193 6.35055 28.5249 5.36892 28.1718C4.04626 27.4572 3.50223 26.1985 2.58496 24.1292C2.58496 24.0972 2.61696 24.0652 2.61696 24.0972C2.65428 24.1292 2.72361 24.1292 2.75561 24.1665C2.7876 24.1665 2.82493 24.1985 2.88893 24.1985H3.23026C3.27296 24.3585 3.38498 24.4972 3.53428 24.5718C3.69428 24.6411 3.8703 24.6732 4.04626 24.6785C4.22838 24.6831 4.41052 24.6706 4.5903 24.6412C4.63848 24.6358 4.68715 24.6457 4.72931 24.6697C4.77147 24.6936 4.80495 24.7303 4.82494 24.7745C4.99564 25.1852 5.19828 25.4572 5.50762 25.4892H5.57162C5.67281 25.4909 5.77056 25.4525 5.84363 25.3825C5.92299 25.3391 6.01539 25.326 6.10367 25.3457C6.19195 25.3653 6.2701 25.4163 6.32362 25.4892C6.38245 25.5557 6.45072 25.6132 6.52626 25.6598C7.02582 25.9964 7.62058 26.1629 8.22226 26.1346C8.51339 26.1504 8.80451 26.1031 9.07563 25.9959C9.34227 25.8625 9.34227 25.6598 9.31027 25.5905C9.27295 25.4572 9.27295 25.3238 9.24095 25.1852C9.24095 25.1852 9.27295 25.1479 9.27295 25.1852C9.31027 25.2545 9.34227 25.3878 9.48092 25.3878H9.51297C9.68361 25.3878 9.95563 25.4571 10.0196 25.6278C10.0516 25.7079 10.0836 25.7878 10.1263 25.8625C10.2863 26.1132 10.5743 26.2518 10.873 26.2359H10.9049C11.1158 26.2504 11.3271 26.215 11.5217 26.1325C11.7163 26.05 11.8888 25.9228 12.025 25.7612C12.025 25.7292 12.057 25.7292 12.057 25.6918C12.1192 25.6288 12.2025 25.5907 12.2909 25.5848C12.3793 25.5789 12.4669 25.6056 12.5369 25.6598C12.6004 25.719 12.6752 25.7646 12.7568 25.7939C12.8383 25.8233 12.9251 25.8357 13.0116 25.8305H13.1129C13.2236 25.8188 13.3302 25.782 13.4245 25.7228C13.5187 25.6637 13.5983 25.5838 13.657 25.4892C13.7592 25.3461 13.8284 25.1822 13.8596 25.0092C13.8596 24.9452 13.9609 24.9452 13.9929 24.9772C14.056 25.0384 14.1316 25.0853 14.2144 25.1147C14.2972 25.1442 14.3854 25.1555 14.473 25.1479C14.53 25.153 14.5873 25.1419 14.6382 25.1159C14.8333 25.0636 15.0084 24.9546 15.1413 24.8027C15.2743 24.6508 15.3591 24.4628 15.385 24.2625C15.385 24.2625 15.4223 24.2305 15.4223 24.2625C15.5823 24.4545 15.8223 24.5559 16.0623 24.5398H16.1316C16.2186 24.5356 16.3036 24.5118 16.3803 24.4703C16.4569 24.4287 16.5232 24.3705 16.5743 24.2999C16.7115 24.1011 16.7824 23.864 16.7769 23.6225C16.7784 23.5744 16.796 23.5283 16.827 23.4915C16.858 23.4547 16.9005 23.4295 16.9476 23.4199C17.3102 23.2653 17.6263 23.019 17.865 22.7052C17.8791 22.6694 17.9022 22.6378 17.9321 22.6135C17.962 22.5892 17.9976 22.573 18.0356 22.5665C18.2121 22.5382 18.383 22.4824 18.5423 22.4012C18.6625 22.3522 18.7877 22.3165 18.9156 22.2945C20.5796 22.0598 20.8889 21.9905 21.2623 21.7559C21.4713 21.609 21.6357 21.4073 21.7373 21.173C21.8389 20.9386 21.8739 20.6808 21.8383 20.4278C21.8341 19.9402 21.9632 19.4608 22.2116 19.0412C22.3183 18.8332 22.4516 18.5932 22.5849 18.3212C22.8249 17.8838 23.161 17.2705 23.4009 16.9345C23.4291 16.9014 23.4663 16.8773 23.508 16.865C23.5496 16.8527 23.594 16.8527 23.6356 16.8652C24.041 17.0305 24.4249 17.2385 24.793 17.4732V17.4785Z" fill="#0046C8"/>
<path d="M8.73462 22.4011C8.64783 23.181 8.64783 23.968 8.73462 24.7478L8.83594 25.6278C8.60648 25.7074 8.36379 25.7418 8.12126 25.7291C7.64377 25.7563 7.16936 25.6372 6.76128 25.3878L6.72928 25.3558C6.65631 25.3149 6.59559 25.2553 6.55339 25.1831C6.5112 25.1109 6.48906 25.0288 6.48926 24.9451C6.50107 24.8582 6.53817 24.7766 6.59596 24.7105C6.62814 24.6356 6.67327 24.567 6.72928 24.5078C6.85681 24.3479 6.96928 24.1765 7.06525 23.9958C7.43858 23.3558 7.57728 23.1798 7.74792 22.9078C7.74792 22.8758 7.77992 22.8758 7.77992 22.8438C7.93303 22.6507 8.07036 22.4456 8.19058 22.2304C8.32396 22.0278 8.45728 21.8572 8.52665 21.7238C8.69724 21.5159 8.79861 21.3825 8.86794 21.3132C8.85845 21.4398 8.8352 21.565 8.79861 21.6865C8.79861 21.8572 8.76662 22.0972 8.72929 22.4011H8.73462ZM8.4626 13.5052C8.35021 13.6499 8.25865 13.8097 8.19058 13.9798C7.9935 14.382 7.88786 14.8227 7.88124 15.2705C7.88713 15.4064 7.87639 15.5425 7.84925 15.6758C7.81763 15.7849 7.77097 15.889 7.7106 15.9852C7.46554 16.4675 7.36024 17.0088 7.40658 17.5478C7.27326 17.4785 7.06524 17.3398 7.03325 17.2385C7.03549 17.2203 7.03379 17.2018 7.02827 17.1843C7.02275 17.1669 7.01353 17.1508 7.00125 17.1371C6.94342 16.9209 6.96813 16.6909 7.07057 16.4918C7.28285 16.0592 7.44223 15.6026 7.54528 15.1318C7.60928 14.8278 7.6466 14.5238 7.6786 14.3212C7.67401 14.0682 7.74453 13.8195 7.88124 13.6065C7.91862 13.5372 8.05194 13.4998 8.22258 13.4998L8.4626 13.5052ZM7.98262 21.5531C7.95819 21.3571 7.91349 21.164 7.84925 20.9772L7.81725 20.9078C7.81725 20.8758 7.77992 20.8758 7.77992 20.8385C7.77993 20.8343 7.77911 20.8301 7.7775 20.8263C7.7759 20.8224 7.77354 20.8188 7.77057 20.8159C7.7676 20.8129 7.76407 20.8105 7.76018 20.8089C7.75629 20.8073 7.75213 20.8065 7.74792 20.8065L7.7106 20.7745H7.6786C7.67391 20.7745 7.66926 20.7736 7.66499 20.7716C7.66071 20.7697 7.65691 20.7669 7.65386 20.7633C7.65081 20.7597 7.64858 20.7556 7.64732 20.751C7.64607 20.7465 7.64582 20.7418 7.6466 20.7371H7.60928C7.5027 20.6863 7.38963 20.6504 7.27326 20.6305H7.16662C7.13462 20.6305 7.10262 20.6305 7.10262 20.6678L7.0333 20.7371L7.00125 20.7691C7.0022 20.7743 7.00189 20.7795 7.00036 20.7845C6.99882 20.7894 6.99609 20.794 6.99242 20.7976C6.98874 20.8013 6.98423 20.804 6.97926 20.8056C6.9743 20.8071 6.96903 20.8074 6.96392 20.8065C6.93192 20.8705 6.8626 20.9398 6.8306 21.0092C6.72396 21.1798 6.59059 21.3505 6.48926 21.5158C6.38794 21.6545 6.28662 21.8252 6.18525 21.9585C6.11592 22.0278 6.0786 22.1292 6.0146 22.1985L5.9826 22.2305C6.0466 22.2305 6.11592 22.2625 6.18525 22.2625C6.66796 22.3463 7.15668 22.3909 7.6466 22.3958H7.6786C7.74792 22.2999 7.84925 22.1612 7.95062 21.9958C8.01207 21.9081 8.06903 21.8173 8.12126 21.7238C8.01994 21.6545 7.98794 21.6171 7.98794 21.5531H7.98262ZM6.8626 22.8758C6.70901 23.4158 6.45577 23.9223 6.11592 24.3692C5.74259 24.8811 5.53994 25.0145 5.50794 25.0145C5.33725 24.9825 5.1666 24.5718 5.02796 24.1291C4.84602 23.6532 4.76431 23.1448 4.78794 22.6358C5.39557 22.8699 6.04845 22.9629 6.69728 22.9078C6.74705 22.8784 6.80545 22.8671 6.8626 22.8758ZM6.21725 20.8385C6.0466 21.0785 5.91328 21.3185 5.74259 21.5531C5.67326 21.6545 5.57194 21.7878 5.50794 21.8892C5.47062 21.9585 5.40125 22.0278 5.3693 22.0971C5.23593 22.0598 5.10256 22.0278 4.99596 21.9905L4.69194 21.8892C4.65462 21.8892 4.65462 21.8892 4.62262 21.8572C4.62262 21.8252 4.59062 21.7878 4.5533 21.7505C4.5949 21.6752 4.63056 21.5967 4.65994 21.5158L4.86259 21.1105C5.00073 20.8439 5.19772 20.6123 5.43862 20.4332C5.52418 20.3629 5.63185 20.3251 5.74259 20.3265H5.88123C5.91328 20.3265 5.94528 20.3265 5.94528 20.3638H5.9826C6.0146 20.3638 6.0146 20.3958 6.0466 20.3958C6.13057 20.5314 6.18845 20.6816 6.21725 20.8385ZM4.99596 20.1932C4.72532 20.4511 4.49676 20.7498 4.31861 21.0785C4.21196 21.2438 4.14791 21.4518 4.04659 21.6171C4.04659 21.6545 4.00926 21.6545 4.00926 21.6865C3.90794 21.6545 3.84395 21.6545 3.74262 21.6171C3.63593 21.5851 3.57193 21.5531 3.47061 21.5158C3.43328 21.4838 3.40128 21.4838 3.36391 21.4518C3.46773 21.2996 3.55872 21.1391 3.63593 20.9718C3.77457 20.7585 3.91859 20.5558 4.07859 20.3638C4.14791 20.2945 4.21723 20.1932 4.28128 20.1612C4.38793 20.0918 4.48925 20.1238 4.59062 20.1238C4.6933 20.1198 4.79595 20.1324 4.89459 20.1612C4.92744 20.1794 4.96383 20.1903 5.00128 20.1932H4.99596ZM4.55325 24.0278L4.52125 24.0651H3.87594C3.80662 24.0651 3.7373 24.0651 3.70525 23.9958C3.66294 23.8998 3.63941 23.7966 3.63593 23.6918C3.54034 23.1995 3.52952 22.6945 3.60393 22.1985C3.85459 22.3051 4.11591 22.3691 4.38793 22.4011C4.34283 22.8339 4.37717 23.2713 4.48925 23.6918C4.48925 23.8091 4.5106 23.9212 4.55325 24.0331V24.0278ZM3.74267 20.0545C3.50766 20.3272 3.30207 20.624 3.12932 20.9398C3.04871 21.0567 2.98078 21.1819 2.92667 21.3132C2.81998 21.2812 2.75598 21.2439 2.65466 21.2118C2.58533 21.1798 2.51601 21.1052 2.45196 21.0785C2.45196 21.0785 2.38264 21.0412 2.38264 21.0092H2.34532C2.37732 20.9558 2.39867 20.9025 2.41464 20.8385C2.45832 20.7303 2.51568 20.6281 2.58534 20.5345L2.92667 19.9905C2.96349 19.9184 3.02105 19.8589 3.09194 19.8198C3.16132 19.7878 3.26264 19.8198 3.29996 19.8198C3.47066 19.8412 3.62533 19.9265 3.74267 20.0598V20.0545ZM2.0093 21.2438C2.11068 21.3131 2.18 21.3824 2.27599 21.4465L2.38264 21.5531V21.5851C2.27635 21.9602 2.21899 22.3474 2.212 22.7372C2.212 22.7692 2.18 22.7692 2.18 22.7372C2.03348 22.2537 1.97565 21.7478 2.0093 21.2438ZM3.09732 22.0972C3.05723 22.4354 3.0341 22.7753 3.028 23.1158C3.03425 23.2989 3.05746 23.481 3.09732 23.6599H2.88935C2.87072 23.6618 2.8519 23.6594 2.83433 23.6529C2.81676 23.6465 2.8009 23.636 2.78798 23.6225L2.65466 23.4892C2.57017 23.3325 2.53309 23.1546 2.54796 22.9772C2.53824 22.6255 2.56145 22.2738 2.61728 21.9265C2.68661 21.9585 2.72398 21.9585 2.78798 21.9958C2.89468 22.0172 3.00132 22.0492 3.09732 22.0972Z" fill="#0046C8"/>
</svg>
