<svg width="32" height="32" viewBox="0 0 32 32" fill="none" xmlns="http://www.w3.org/2000/svg">
<path d="M24.2377 11.034H21.5855C21.4318 11.0342 21.2799 11.0016 21.14 10.9384C21.0001 10.8752 20.8754 10.7828 20.7744 10.6676L19.7046 9.4643C19.6252 9.37555 19.5279 9.30452 19.419 9.25588C19.3101 9.20724 19.192 9.18209 19.0726 9.18209C18.9533 9.18209 18.8352 9.20724 18.7263 9.25588C18.6174 9.30452 18.5201 9.37555 18.4407 9.4643L17.5152 10.5042C17.3664 10.6721 17.1834 10.8066 16.9783 10.8988C16.7733 10.991 16.5509 11.0388 16.3259 11.039H1.79118C1.37173 12.2338 1.10589 13.4767 1 14.738H14.7137C14.8329 14.7381 14.9509 14.714 15.0604 14.6672C15.1699 14.6204 15.2687 14.5518 15.3506 14.4656L16.6295 13.1385C16.7082 13.056 16.803 12.9903 16.9081 12.9454C17.0138 12.9019 17.1272 12.88 17.2415 12.8811H17.2913C17.4113 12.8813 17.53 12.9065 17.6397 12.9551C17.7494 13.0037 17.8477 13.0747 17.9282 13.1633L19.003 14.3716C19.103 14.4867 19.2268 14.579 19.3659 14.6422C19.505 14.7054 19.6562 14.7381 19.8091 14.738H31C30.8967 13.4763 30.6308 12.2331 30.2088 11.039L24.2377 11.034ZM9.30486 22.5074C9.42397 22.5069 9.54177 22.4826 9.65121 22.4358C9.76064 22.389 9.85947 22.3207 9.94178 22.235L11.2156 20.9079C11.2956 20.827 11.3908 20.7626 11.4958 20.7184C11.6009 20.6743 11.7136 20.6511 11.8277 20.6505H11.8774C11.9975 20.6507 12.1162 20.6759 12.2259 20.7245C12.3356 20.7731 12.4338 20.8441 12.5143 20.9327L13.5842 22.1409C13.686 22.2552 13.8108 22.3468 13.9506 22.41C14.0903 22.4731 14.2418 22.5063 14.3953 22.5074H29.557C30.1361 21.3249 30.5545 20.071 30.801 18.7787H16.2364C16.0843 18.7791 15.934 18.7475 15.7951 18.6861C15.6561 18.6246 15.5318 18.5347 15.4303 18.4221L14.3554 17.2089C14.2752 17.12 14.1768 17.0491 14.0668 17.001C13.9576 16.9505 13.8389 16.9235 13.7185 16.9217C13.5994 16.9221 13.4818 16.9479 13.3737 16.9975C13.2655 17.047 13.1693 17.1192 13.0916 17.2089L12.166 18.2488C12.016 18.4162 11.832 18.55 11.6261 18.6414C11.4202 18.7327 11.1972 18.7795 10.9718 18.7787H1.20899C1.45117 20.074 1.86619 21.3313 2.44303 22.5173L9.30486 22.5074ZM20.0629 6.9884C20.1816 6.98859 20.2992 6.96502 20.4086 6.91908C20.518 6.87315 20.6171 6.80578 20.6998 6.721L21.9736 5.39391C22.0525 5.31156 22.1473 5.24588 22.2523 5.20079C22.3579 5.15699 22.4713 5.13509 22.5857 5.13642H22.6404C22.7606 5.13567 22.8794 5.16102 22.9887 5.21069C23.097 5.25918 23.1937 5.33008 23.2723 5.41867L24.3472 6.63186C24.4499 6.7443 24.5751 6.83411 24.7148 6.89551C24.8545 6.95691 25.0055 6.98855 25.1582 6.9884H28.0443C26.6421 5.12897 24.8243 3.61985 22.7347 2.58048C20.6451 1.5411 18.3411 1 16.005 1C13.6689 1 11.3649 1.5411 9.27526 2.58048C7.18566 3.61985 5.36783 5.12897 3.96567 6.9884H20.0629ZM14.2659 26.2113H10.32C10.1679 26.2104 10.0178 26.1773 9.87969 26.1141C9.74155 26.0509 9.61853 25.9591 9.51883 25.8449L8.44402 24.6367C8.36421 24.5478 8.26644 24.4767 8.15711 24.428C8.04778 24.3793 7.92936 24.3542 7.80959 24.3542C7.68981 24.3542 7.57139 24.3793 7.46206 24.428C7.35274 24.4767 7.25497 24.5478 7.17515 24.6367L6.24963 25.6914C6.10138 25.862 5.91803 25.9989 5.712 26.0929C5.50596 26.1869 5.28204 26.2357 5.0554 26.2361H5.00066C6.40867 27.7392 8.11249 28.9379 10.0061 29.7575C11.8997 30.577 13.9425 31 16.0075 31C18.0724 31 20.1152 30.577 22.0088 29.7575C23.9024 28.9379 25.6063 27.7392 27.0143 26.2361L14.2659 26.2113Z" fill="#6B6B6B"/>
</svg>
