<svg width="32" height="32" viewBox="0 0 32 32" fill="none" xmlns="http://www.w3.org/2000/svg">
<path fill-rule="evenodd" clip-rule="evenodd" d="M20.265 26.6535C20.3506 26.978 20.4687 27.2931 20.6177 27.5938H26.4773V27.2412C26.1616 26.6061 25.938 25.9293 25.8132 25.2312C25.6447 24.257 25.568 23.2692 25.584 22.2808V12.7713C25.6098 11.6013 25.3602 10.4416 24.8552 9.38592C24.3863 8.42271 23.6929 7.58622 22.8334 6.94684C21.9138 6.27718 20.8773 5.78486 19.7772 5.49514C18.5442 5.1576 17.2706 4.99147 15.9922 5.00145C14.6264 4.98111 13.2659 5.17547 11.9604 5.57742C10.8859 5.89992 9.87851 6.4136 8.98646 7.09377C8.21536 7.69586 7.58377 8.45778 7.1351 9.32715C6.72259 10.1623 6.50934 11.0816 6.51211 12.0131H12.2954C12.2786 11.643 12.3424 11.2736 12.4824 10.9306C12.6225 10.5876 12.8354 10.2791 13.1065 10.0265C13.8397 9.45626 14.761 9.18343 15.6866 9.2625C16.7866 9.18696 17.8755 9.52201 18.7428 10.2029C19.0959 10.5177 19.3742 10.9075 19.5572 11.3438C19.7403 11.78 19.8234 12.2517 19.8007 12.7242V14.0408H16.5741C13.7975 13.8499 11.0299 14.5233 8.65145 15.9685C7.79203 16.5766 7.09937 17.3911 6.6372 18.337C6.17502 19.2829 5.95819 20.3299 6.00666 21.3815C6.00102 22.3018 6.20186 23.2116 6.59439 24.0439C6.98066 24.8485 7.5336 25.5617 8.21653 26.1363C8.94765 26.746 9.78706 27.2125 10.6909 27.5116C11.717 27.8467 12.7911 28.0115 13.8705 27.9994C14.5363 28.0042 15.2006 27.9352 15.8512 27.7937C16.4223 27.6831 16.9799 27.5117 17.5144 27.2823C18.0044 27.0633 18.4711 26.7956 18.9074 26.483C19.304 26.1981 19.6721 25.8753 20.0064 25.5192C20.0809 25.9149 20.1671 26.293 20.265 26.6535ZM15.7062 22.8332C16.1943 22.8372 16.6808 22.7759 17.1526 22.651C17.5712 22.539 17.9755 22.3793 18.3575 22.1749C18.6939 21.9962 19.006 21.775 19.2861 21.5167C19.5226 21.2901 19.7282 21.0331 19.8973 20.7526V17.3438H17.2584C16.5653 17.3299 15.8735 17.409 15.2014 17.5789C14.6979 17.6942 14.2237 17.9123 13.8084 18.2195C13.4606 18.4735 13.1851 18.8138 13.0091 19.2069C12.8342 19.5967 12.7459 20.0198 12.7505 20.447C12.7421 20.7663 12.8023 21.0836 12.927 21.3777C13.0518 21.6717 13.2381 21.9355 13.4734 22.1514C14.1057 22.651 14.9028 22.8944 15.7062 22.8332Z" fill="#4A4A4A"/>
</svg>
