<svg width="32" height="32" viewBox="0 0 32 32" fill="none" xmlns="http://www.w3.org/2000/svg">
<path d="M19.5471 14.8915L21.8516 11.1142L28.0776 20.4575V22.2502L28.056 9.90928C28.0483 9.76091 28.0039 9.61648 27.9264 9.48809C27.8489 9.35969 27.7406 9.25107 27.6107 9.17132L16.4124 2.95915C16.2782 2.89673 16.1312 2.86432 15.9822 2.86432C15.8332 2.86432 15.6862 2.89673 15.552 2.95915L15.4525 3.01752L15.4136 3.04254L4.53964 9.11295L4.4964 9.12963C4.44022 9.15531 4.38666 9.18602 4.33643 9.22135C4.13219 9.36088 3.99256 9.57183 3.9473 9.80921L3.93433 9.92178L3.95162 19.978L9.74532 11.3143C10.1957 10.7749 10.7805 10.3543 11.4451 10.0918C12.1097 9.82935 12.8324 9.73356 13.5458 9.81338L15.2753 9.85508L5.07145 25.644L6.27342 26.3111L16.6026 9.87592L21.1641 9.85925L10.8651 26.7071L15.1585 29.092L15.6731 29.3755C15.8945 29.4601 16.1403 29.4645 16.3648 29.388L27.7188 23.0466L25.544 24.2556L19.5471 14.8915ZM20.4248 27.1241L16.0881 20.5617L18.7342 16.2298L24.4328 24.8852L20.4248 27.1241Z" fill="#2D374B"/>
<path d="M16.0862 20.5617L20.4228 27.1241L24.4265 24.8852L18.7323 16.2298L16.0862 20.5617ZM28.0757 22.2544V20.4616L21.8453 11.1142L19.5365 14.8915L25.5463 24.2598L27.7168 23.0465C27.8217 22.9642 27.9075 22.8616 27.9686 22.7452C28.0297 22.6288 28.0647 22.5014 28.0714 22.3711L28.0757 22.2544Z" fill="#28A0F0"/>
<path d="M2 23.943L5.0698 25.6482L15.2736 9.86343L13.5442 9.82174C12.8315 9.74264 12.1096 9.83879 11.4458 10.1012C10.782 10.3637 10.198 10.7839 9.74799 11.3227L3.95429 19.9822L2.00432 22.8715V23.9471L2 23.943ZM21.1668 9.86343L16.601 9.88011L6.27177 26.3153L9.88203 28.3165L10.8635 26.7155L21.1668 9.86343Z" fill="white"/>
<path d="M30 9.84255C29.9783 9.38865 29.8427 8.94662 29.6047 8.55445C29.3667 8.16228 29.0335 7.83171 28.6337 7.59116L17.2841 1.29144C16.8791 1.0997 16.4339 1 15.9827 1C15.5315 1 15.0863 1.0997 14.6813 1.29144C14.5862 1.33313 3.64299 7.45358 3.64299 7.45358C3.49162 7.52472 3.34696 7.60842 3.21062 7.70373C2.8556 7.94717 2.56229 8.26489 2.35263 8.63312C2.14298 9.00135 2.02243 9.41053 2 9.83005V22.8714L3.94565 19.9821L3.93267 9.92594C3.94136 9.78768 3.98197 9.65304 4.05154 9.53185C4.12111 9.41067 4.21788 9.306 4.33477 9.22551L15.5503 2.96331C15.6836 2.90089 15.8297 2.86811 15.9779 2.86739C16.1261 2.86667 16.2725 2.89802 16.4064 2.95914L27.609 9.17131C27.7396 9.25146 27.8482 9.36074 27.9257 9.48991C28.0032 9.61908 28.0473 9.76435 28.0544 9.91343V22.3711C28.052 22.5001 28.0211 22.6271 27.9637 22.7436C27.9062 22.86 27.8236 22.9633 27.7214 23.0465L25.5466 24.2598L24.4268 24.8852L20.4231 27.1241L16.3589 29.3921C16.1343 29.4687 15.8885 29.4642 15.6671 29.3796L10.8635 26.7155L9.88203 28.3206L14.2014 30.7179L14.5732 30.9264L14.8845 31.089C15.2458 31.2407 15.6362 31.3174 16.0303 31.3141C16.3927 31.3151 16.7521 31.25 17.0896 31.1224L28.8845 24.5391C29.2168 24.2895 29.4884 23.9728 29.6804 23.6113C29.8723 23.2497 29.9799 22.8521 29.9957 22.4462L30 9.84255Z" fill="#96BEDC"/>
</svg>
