<svg width="32" height="32" viewBox="0 0 32 32" fill="none" xmlns="http://www.w3.org/2000/svg">
<mask id="mask0_22_117" style="mask-type:luminance" maskUnits="userSpaceOnUse" x="0" y="0" width="32" height="33">
<path d="M32 0H0V32.0052H32V0Z" fill="white"/>
</mask>
<g mask="url(#mask0_22_117)">
<mask id="mask1_22_117" style="mask-type:luminance" maskUnits="userSpaceOnUse" x="0" y="0" width="32" height="33">
<path d="M0 0H32V32.0052H0V0Z" fill="white"/>
</mask>
<g mask="url(#mask1_22_117)">
<path d="M7.53486 2.97442L6.27584 6.85638L20.6339 6.84589L19.3749 2.96392L7.53486 2.97442ZM24.4739 2.95868H20.3873L24.8306 16.6138L28.1355 14.2111L24.4791 2.95868H24.4739ZM16.8306 23.6328L20.1355 26.0302L29.704 19.0688L28.4398 15.1869L16.8306 23.6328ZM6.43846 22.0852L16.0122 29.0361L19.3172 26.6334L7.69748 18.2033L6.43846 22.0852ZM5.96633 7.82688L2.31519 19.0793L5.6201 21.4767L10.0476 7.82163L5.96633 7.82688ZM11.0706 7.81638L9.81158 11.7036L17.1034 11.6984L15.8444 7.81638H11.0706ZM16.8621 7.81638L19.1231 14.7567L22.428 12.3541L20.9539 7.81638H16.8621ZM16.8411 17.621L20.146 20.0131L24.007 17.2118L22.7375 13.3246L16.8411 17.621ZM12.1408 20.2282L16.007 23.0347L19.3067 20.6321L13.3998 16.3515L12.1408 20.2282ZM9.49682 12.6741L8.02273 17.217L11.3276 19.6144L13.5729 12.6741H9.49682Z" fill="#4A4A4A"/>
</g>
</g>
</svg>
