<svg width="32" height="32" viewBox="0 0 32 32" fill="none" xmlns="http://www.w3.org/2000/svg">
<path d="M31.9646 14.9189C31.7489 11.7665 30.6048 8.74858 28.6764 6.2455C26.7481 3.74241 24.1219 1.86623 21.1289 0.853471C18.1358 -0.159292 14.91 -0.263304 11.8579 0.554546C8.80584 1.3724 6.06422 3.0755 3.97864 5.44916L3.96797 5.44205L3.91463 5.51317C1.13894 8.7063 -0.255235 12.8709 0.0385547 17.0916C0.0667811 17.5058 0.111862 17.9186 0.173684 18.3291L0.180796 18.3825C0.223469 18.6492 0.269697 18.9194 0.323038 19.1826C0.370451 19.4244 0.424977 19.6662 0.486615 19.908C1.46798 23.778 3.86055 27.1413 7.19456 29.3377C10.5286 31.534 14.5632 32.4048 18.5063 31.7789C22.4494 31.1531 26.0161 29.0758 28.5062 25.9551C30.9963 22.8343 32.2298 18.8954 31.9646 14.9118V14.9189ZM28.4797 15.1571C28.5526 16.2182 28.4893 17.2842 28.2913 18.3291L28.2841 18.3113C27.1703 15.7611 25.2485 13.6481 22.815 12.2981C23.2204 7.49388 21.5917 5.4705 19.7461 5.13979C19.0463 5.02991 18.3315 5.20253 17.759 5.61967C17.1865 6.0368 16.8031 6.66429 16.6932 7.36409C16.5834 8.06388 16.756 8.77866 17.1731 9.35118C17.5903 9.9237 18.2178 10.3071 18.9175 10.4169C19.0426 10.4324 19.1686 10.4384 19.2945 10.4347C19.304 10.6054 19.3087 10.7773 19.3087 10.9503C17.7561 10.5602 16.149 10.4327 14.5543 10.5734C14.0078 10.6096 13.4639 10.6785 12.9256 10.7797C13.0896 9.02646 13.7759 7.3628 14.8957 6.0039C15.4736 5.34388 16.2017 4.83237 17.0185 4.51243C17.8354 4.19249 18.7172 4.07349 19.5896 4.16543C19.9503 4.2069 20.3056 4.28677 20.6493 4.40369L20.6991 4.41435C22.8705 5.29729 24.7506 6.77186 26.1254 8.67037C27.5002 10.5689 28.3147 12.8151 28.4762 15.1536L28.4797 15.1571ZM17.3244 17.6001C16.9199 18.1813 16.4615 18.7265 15.9554 19.2217C15.1877 18.4123 14.5377 17.4989 14.0244 16.5084L13.9498 16.3591V16.352C13.6492 15.7106 13.4087 15.0428 13.2314 14.357C14.317 14.0964 15.4339 13.9899 16.5492 14.0405L16.7164 14.0512H16.7235C17.4282 14.1109 18.1258 14.2359 18.8073 14.4246C18.4729 15.5489 17.9744 16.6177 17.328 17.5966L17.3244 17.6001ZM11.8588 4.19744L11.8517 4.2081C10.198 6.44631 9.32815 9.16717 9.37671 11.9496C5.01345 13.9979 4.07821 16.4195 4.71119 18.1833L4.76808 18.3256C5.05483 18.9597 5.57754 19.4571 6.22515 19.7121C6.87277 19.967 7.59427 19.9594 8.23638 19.6909C8.8785 19.4224 9.39062 18.9141 9.66397 18.2741C9.93732 17.634 9.95036 16.9126 9.7003 16.2631C9.64984 16.1478 9.59162 16.0362 9.52606 15.9288L9.97056 15.655C10.4078 17.1959 11.1001 18.6528 12.0188 19.9649C12.3243 20.4186 12.6555 20.8543 13.011 21.27C11.4099 22.0058 9.62464 22.2437 7.88673 21.9527C7.02681 21.7824 6.22026 21.4084 5.5347 20.862C4.84915 20.3157 4.30457 19.613 3.94664 18.8127C3.80087 18.4793 3.6912 18.1312 3.61948 17.7744C3.57444 17.4686 3.54006 17.1604 3.51636 16.8498C3.33546 14.1198 4.05297 11.4057 5.55933 9.12172C7.06569 6.83778 9.27813 5.10958 11.8588 4.20099V4.19744ZM16.8479 28.4781C13.574 28.7031 10.3434 27.6271 7.85828 25.4839C10.6232 25.7961 13.4139 25.1887 15.7989 23.7556C19.7568 26.5116 22.3278 26.1133 23.5368 24.6802C23.7827 24.3969 23.9663 24.0651 24.0756 23.7063C24.1848 23.3474 24.2174 22.9696 24.1711 22.5974C24.1249 22.2251 24.0008 21.8668 23.807 21.5456C23.6132 21.2245 23.354 20.9477 23.0462 20.7332C22.7385 20.5188 22.3891 20.3715 22.0207 20.3009C21.6523 20.2303 21.2731 20.238 20.9079 20.3235C20.5427 20.409 20.1995 20.5704 19.9007 20.7971C19.6019 21.0239 19.3542 21.311 19.1736 21.6398C19.0196 21.5609 18.8679 21.4779 18.7184 21.3909C19.8329 20.2416 20.7465 18.9133 21.421 17.4614C21.6628 16.9694 21.8753 16.4636 22.0575 15.9466C23.4947 16.9662 24.5934 18.3931 25.2117 20.0431C25.4938 20.8733 25.5725 21.759 25.4414 22.6259C25.3102 23.4928 24.9729 24.3156 24.4578 25.0251C24.2431 25.3185 23.9975 25.5879 23.7253 25.8288L23.7146 25.8395C21.745 27.3898 19.3526 28.3083 16.8515 28.4745L16.8479 28.4781Z" fill="url(#paint0_linear_22_127)"/>
<path opacity="0.9" d="M19.7455 5.1362C19.445 5.07882 19.1368 5.07521 18.8351 5.12553C20.3678 5.95765 21.4808 8.27618 20.8976 12.8564C20.704 14.346 20.2667 15.7937 19.6032 17.1414C19.0309 18.3705 18.2861 19.5116 17.3914 20.5303C17.8147 20.8494 18.2577 21.1416 18.7178 21.4051C19.8326 20.2547 20.7462 18.9252 21.4203 17.4721C22.0871 16.1277 22.5269 14.6822 22.7219 13.1942C23.4188 7.74278 21.7048 5.49181 19.749 5.14331L19.7455 5.1362Z" fill="url(#paint1_radial_22_127)"/>
<path opacity="0.8" d="M20.8974 12.8528C21.4806 8.27618 20.364 5.95409 18.8349 5.12198C18.7745 5.12909 18.7176 5.14331 18.6571 5.15754C20.1578 6.02166 21.2352 8.33664 20.6592 12.8528C20.4646 14.3427 20.0261 15.7904 19.3612 17.1378C18.8103 18.323 18.0983 19.4263 17.2454 20.4165L17.3876 20.5267C18.2817 19.5075 19.0264 18.3665 19.5995 17.1378C20.2657 15.7909 20.7043 14.343 20.8974 12.8528Z" fill="white"/>
<path opacity="0.5" d="M15.0759 23.2364C14.9329 23.1265 14.793 23.0127 14.6563 22.8951C11.9715 24.0277 9.00424 24.3106 6.15381 23.7058C6.66021 24.3543 7.22958 24.9511 7.85359 25.4874C10.6196 25.8004 13.4117 25.193 15.7978 23.7592C15.5536 23.5885 15.3118 23.413 15.0723 23.2329L15.0759 23.2364Z" fill="url(#paint2_radial_22_127)"/>
<path opacity="0.6" d="M14.6583 22.8951L14.452 22.7244C11.7468 23.8162 8.77172 24.052 5.92822 23.4L6.15936 23.7058C9.00867 24.3097 11.9745 24.0267 14.6583 22.8951Z" fill="url(#paint3_linear_22_127)"/>
<path opacity="0.9" d="M4.7157 18.1904C4.72992 18.2402 4.75126 18.2864 4.76904 18.3327C4.86737 18.5673 4.99912 18.7865 5.1602 18.9834C5.11753 17.241 6.56839 15.1145 10.825 13.3364C12.2111 12.7594 13.6829 12.4146 15.1811 12.3159C16.5325 12.1956 17.8941 12.2699 19.2243 12.5363C19.288 12.0101 19.3177 11.4804 19.3132 10.9503C17.7608 10.559 16.1535 10.4316 14.5588 10.5734C13.0594 10.6719 11.5864 11.0167 10.1991 11.594C5.13176 13.7134 4.04005 16.3235 4.7157 18.194V18.1904Z" fill="url(#paint4_radial_22_127)"/>
<path opacity="0.8" d="M10.8227 13.3364C6.56608 15.118 5.11522 17.2481 5.15789 18.9905C5.19692 19.0355 5.23724 19.0794 5.2788 19.1221C5.2788 17.3939 6.74389 15.3029 10.9436 13.5427C12.33 12.9669 13.8017 12.6233 15.2997 12.5256C16.6027 12.4103 17.9153 12.475 19.2007 12.7177L19.222 12.5363C17.8928 12.2714 16.5325 12.1972 15.1824 12.3158C13.6829 12.4142 12.21 12.759 10.8227 13.3364Z" fill="white"/>
<path opacity="0.4" d="M22.7239 13.1835C22.7025 13.3649 22.6705 13.5391 22.6421 13.7169C24.9645 15.4771 26.6929 17.9054 27.5956 20.6761C27.9037 19.9112 28.136 19.118 28.2891 18.3078C27.1764 15.7577 25.2541 13.6455 22.8199 12.2981C22.7949 12.595 22.7641 12.8914 22.7274 13.1871L22.7239 13.1835Z" fill="url(#paint5_radial_22_127)"/>
<path opacity="0.5" d="M22.6392 13.7205L22.593 13.9836C24.8932 15.7796 26.5864 18.2386 27.4434 21.0281C27.4954 20.9105 27.5452 20.792 27.5928 20.6725C26.6885 17.9037 24.9622 15.4778 22.6392 13.7205Z" fill="url(#paint6_linear_22_127)"/>
<path opacity="0.9" d="M23.5404 24.6802C23.7369 24.447 23.8932 24.1826 24.0026 23.8979C22.5162 24.8082 19.9488 24.6126 16.2754 21.814C15.0829 20.9019 14.0496 19.7989 13.2172 18.5496C12.4354 17.4415 11.8163 16.2273 11.3787 14.9438C10.8901 15.1508 10.4151 15.3883 9.9563 15.655C10.3956 17.1964 11.0904 18.6533 12.0117 19.9649C12.8458 21.214 13.8803 22.317 15.0734 23.2293C19.4474 26.5613 22.2531 26.2022 23.5297 24.6802H23.5404Z" fill="url(#paint7_radial_22_127)"/>
<path opacity="0.8" d="M16.2802 21.8176C19.95 24.6126 22.5175 24.8046 24.0039 23.8979C24.0251 23.8417 24.0441 23.7848 24.0608 23.7272C22.5672 24.5984 20.0211 24.3672 16.4011 21.6113C15.2074 20.6996 14.1728 19.5965 13.3393 18.3469C12.5888 17.2773 11.9893 16.1095 11.5578 14.8762L11.3906 14.9473C11.8258 16.2316 12.4425 17.4471 13.222 18.5567C14.0561 19.8058 15.0906 20.9088 16.2837 21.8211L16.2802 21.8176Z" fill="white"/>
<path opacity="0.3" d="M10.1999 11.5904C10.3658 11.5221 10.5329 11.4569 10.7013 11.3948C11.0627 8.50418 12.3013 5.79371 14.2502 3.62845C13.4345 3.74426 12.6319 3.93837 11.8534 4.20808C10.1995 6.44617 9.32959 9.16711 9.37841 11.9496C9.638 11.8287 9.91182 11.7042 10.1963 11.5869L10.1999 11.5904Z" fill="url(#paint8_radial_22_127)"/>
<path opacity="0.4" d="M10.7028 11.3948L10.9517 11.3024C11.357 8.4126 12.6392 5.71674 14.6251 3.57867L14.2446 3.6249C12.297 5.79062 11.0597 8.50104 10.6992 11.3913L10.7028 11.3948Z" fill="url(#paint9_linear_22_127)"/>
<path opacity="0.4" d="M14.9164 0.0368604C10.696 0.319652 6.76047 2.26632 3.97452 5.44915L3.91406 5.51671C4.84128 6.24525 5.82063 6.90488 6.84424 7.49031C8.22482 6.00267 9.94698 4.87368 11.8618 4.20098C11.9969 4.02555 12.1392 3.85367 12.2885 3.68535C13.1801 2.67846 14.2806 1.87812 15.5132 1.34011C16.7458 0.802112 18.0809 0.539392 19.4255 0.570266C19.7455 0.570266 20.3927 0.623606 20.407 0.623606C18.625 0.109204 16.7668 -0.0893731 14.9164 0.0368604Z" fill="url(#paint10_linear_22_127)"/>
<path opacity="0.4" d="M16.8472 28.4851C13.5732 28.7098 10.3429 27.6339 7.8575 25.491C7.63229 25.4625 7.40707 25.4258 7.18185 25.3807C5.86354 25.1125 4.61962 24.5599 3.53683 23.7615C2.45405 22.963 1.55847 21.938 0.912564 20.7579C0.756365 20.4842 0.613945 20.203 0.48584 19.9151C1.4021 23.5508 3.56593 26.7494 6.59972 28.9526C9.6335 31.1558 13.3446 32.2237 17.0854 31.9701C17.121 31.1628 16.8827 29.2888 16.8472 28.4851Z" fill="url(#paint11_linear_22_127)"/>
<path opacity="0.4" d="M31.9647 14.9189C30.7993 14.928 29.6356 15.0076 28.4798 15.1571C28.5527 16.2182 28.4893 17.2842 28.2913 18.3291C28.3731 18.5318 28.4513 18.7381 28.5225 18.9479C28.9492 20.2244 29.0926 21.5785 28.9427 22.9161C28.7929 24.2536 28.3534 25.5425 27.6548 26.6929C27.4959 26.9655 27.3241 27.2299 27.1392 27.4859L27.1498 27.4752C28.8166 25.8588 30.1107 23.8982 30.9417 21.7301C31.7727 19.5621 32.1206 17.2388 31.9611 14.9224L31.9647 14.9189Z" fill="url(#paint12_linear_22_127)"/>
<path opacity="0.5" d="M19.5921 4.16186C19.9528 4.20344 20.3081 4.2833 20.6518 4.40012L20.6981 4.41434C22.0723 4.97489 23.3364 5.77429 24.4319 6.77555L24.439 6.77911C24.9044 6.30555 25.4194 5.8835 25.9752 5.52027C24.8801 4.48928 23.5278 3.77196 22.06 3.44354C20.581 3.05411 19.0141 3.17095 17.6092 3.77546C16.2042 4.37998 15.042 5.43736 14.3079 6.77911L14.3292 6.75777C14.5006 6.49206 14.6907 6.23893 14.8982 6.00033C15.4761 5.34032 16.2042 4.82881 17.021 4.50887C17.8379 4.18892 18.7197 4.06992 19.5921 4.16186Z" fill="url(#paint13_linear_22_127)"/>
<path opacity="0.5" d="M24.4571 25.0322C24.2424 25.3256 23.9968 25.595 23.7246 25.8359L23.689 25.8679C22.5162 26.7769 21.1919 27.4716 19.7774 27.9197H19.7703C19.9479 28.5605 20.0552 29.2187 20.0903 29.8827C21.532 29.45 22.8305 28.6368 23.849 27.5286C24.9255 26.4422 25.6076 25.0269 25.7868 23.508C25.9659 21.9892 25.6318 20.454 24.8376 19.147L24.8447 19.1755C24.9891 19.4564 25.1127 19.7476 25.2146 20.0467C25.4966 20.8768 25.5754 21.7626 25.4442 22.6295C25.313 23.4964 24.9757 24.3191 24.4607 25.0287L24.4571 25.0322Z" fill="url(#paint14_linear_22_127)"/>
<path opacity="0.5" d="M3.95302 18.8198C3.80712 18.4864 3.69744 18.1383 3.62586 17.7815L3.61519 17.7317C3.4151 16.2628 3.47528 14.7702 3.79299 13.3222V13.3115C3.1493 13.1468 2.52563 12.9118 1.93319 12.611C1.58994 14.0735 1.64644 15.6015 2.09677 17.0347C2.49813 18.5102 3.38174 19.809 4.60683 20.7241C5.83192 21.6392 7.32802 22.118 8.85679 22.0843L8.82834 22.0772C8.51306 22.06 8.19936 22.0208 7.88955 21.9598C7.02949 21.7886 6.22296 21.4138 5.53746 20.8669C4.85196 20.32 4.30744 19.6168 3.94946 18.8163L3.95302 18.8198Z" fill="url(#paint15_linear_22_127)"/>
<path opacity="0.6" d="M18.9158 10.4134C19.0408 10.4285 19.1668 10.4345 19.2927 10.4312C19.2534 9.58777 19.1584 8.7479 19.0083 7.91704C18.8926 7.27058 18.6024 6.66805 18.169 6.17459C17.9343 5.947 17.184 5.66252 16.6044 7.4192C16.559 7.76745 16.5829 8.12123 16.6746 8.46024C16.7663 8.79924 16.9241 9.11679 17.1388 9.39466C17.3536 9.67253 17.6211 9.90525 17.9261 10.0795C18.231 10.2537 18.5674 10.3695 18.9158 10.4134Z" fill="url(#paint16_linear_22_127)"/>
<path opacity="0.5" d="M9.70331 16.2737C9.65313 16.1572 9.59491 16.0443 9.52906 15.9359C8.81789 16.3921 8.13833 16.8959 7.49501 17.4436C6.99324 17.865 6.61684 18.4161 6.40686 19.0367C6.32863 19.3568 6.45309 20.1462 8.26667 19.7693C8.92041 19.4959 9.4389 18.9742 9.70827 18.3188C9.97763 17.6633 9.97585 16.9278 9.70331 16.2737Z" fill="url(#paint17_linear_22_127)"/>
<path opacity="0.6" d="M19.3792 21.3197C19.3041 21.4215 19.2364 21.5284 19.1765 21.6398C19.927 22.0281 20.7028 22.3655 21.4986 22.6497C22.1135 22.8724 22.7779 22.9216 23.4189 22.7919C23.7389 22.703 24.3577 22.1981 23.1273 20.8183C22.5635 20.3894 21.8526 20.2016 21.1506 20.2963C20.4485 20.3909 19.8127 20.7603 19.3828 21.3233L19.3792 21.3197Z" fill="url(#paint18_linear_22_127)"/>
<path opacity="0.3" d="M18.8121 14.4281C18.4944 15.4981 18.0275 16.5181 17.4253 17.4579L17.3328 17.6001L17.3293 17.6037C16.9248 18.1848 16.4664 18.7265 15.9602 19.2217C16.3346 19.622 16.7336 19.9985 17.155 20.3489C17.6495 20.7374 18.1726 21.088 18.7197 21.398C19.8342 20.2487 20.7478 18.9204 21.4223 17.4685C21.6653 16.9767 21.8791 16.4708 22.0624 15.9537C21.547 15.5688 20.9899 15.2431 20.4017 14.9829C19.883 14.7611 19.3495 14.5757 18.805 14.4281H18.8121Z" fill="url(#paint19_linear_22_127)"/>
<path opacity="0.3" d="M7.85745 25.491C10.6223 25.8032 13.413 25.1958 15.7981 23.7627C15.5539 23.592 15.3133 23.4166 15.0762 23.2364C14.32 22.6585 13.6263 22.003 13.0066 21.2806C11.4049 22.0146 9.61991 22.2512 7.88234 21.9598C7.02281 21.7883 6.21687 21.4134 5.53199 20.8665C4.8471 20.3196 4.3032 19.6166 3.94581 18.8163C3.79971 18.4829 3.69002 18.1348 3.61865 17.7779C4.04582 20.7801 5.55285 23.5201 7.85745 25.491Z" fill="url(#paint20_linear_22_127)"/>
<path opacity="0.3" d="M15.9546 19.2217C15.1884 18.4119 14.5396 17.4986 14.0273 16.5084L13.9526 16.3591V16.352C13.652 15.7106 13.4116 15.0428 13.2343 14.357C12.702 14.4812 12.1782 14.6391 11.6661 14.83C11.0821 15.0638 10.5163 15.3408 9.97339 15.6585C10.4107 17.1995 11.1031 18.6562 12.0217 19.9684C12.327 20.4222 12.6582 20.858 13.0138 21.2735C13.6053 21.0204 14.1661 20.7007 14.6851 20.3205C15.1351 19.9823 15.5616 19.614 15.9618 19.2181L15.9546 19.2217Z" fill="url(#paint21_linear_22_127)"/>
<path opacity="0.3" d="M11.8531 4.21163C10.2009 6.45041 9.33231 9.17115 9.38163 11.9531C9.65189 11.8251 9.92452 11.703 10.1995 11.5869C11.0775 11.2211 11.9918 10.9494 12.927 10.7761C13.0917 9.02243 13.7793 7.35867 14.9006 6.00032C15.4782 5.34082 16.2056 4.82963 17.0218 4.50971C17.838 4.18979 18.7191 4.07049 19.591 4.16185C19.9516 4.20184 20.3069 4.28052 20.6507 4.39655L20.7005 4.41077C17.8787 3.26223 14.7341 3.18633 11.8602 4.19741L11.8531 4.21163Z" fill="url(#paint22_linear_22_127)"/>
<path opacity="0.3" d="M28.2884 18.3078C27.1756 15.7559 25.2536 13.6414 22.8192 12.291C22.7945 12.5892 22.7625 12.8868 22.7232 13.1835C22.6007 14.1276 22.379 15.0561 22.0618 15.9537C23.4991 16.9731 24.5978 18.4 25.216 20.0502C25.4974 20.8799 25.5759 21.7649 25.4447 22.6312C25.3135 23.4974 24.9766 24.3195 24.4621 25.0287C24.2475 25.3221 24.0019 25.5915 23.7295 25.8323L23.7189 25.843C26.103 23.9722 27.7298 21.3021 28.2991 18.3255L28.2955 18.3078H28.2884Z" fill="url(#paint23_linear_22_127)"/>
<path opacity="0.3" d="M12.9163 12.7034C12.984 13.2612 13.0898 13.8137 13.2328 14.357C14.3185 14.0974 15.4354 13.9921 16.5506 14.0441L16.7177 14.0512H16.7248C17.4295 14.111 18.1271 14.236 18.8086 14.4246C18.9674 13.9007 19.0933 13.3675 19.1856 12.8279C19.2757 12.2038 19.3185 11.5738 19.3136 10.9432C17.7608 10.5539 16.1537 10.4277 14.5592 10.5698C14.0127 10.606 13.4688 10.6749 12.9305 10.7761C12.8531 11.4148 12.8495 12.0603 12.9199 12.6999L12.9163 12.7034Z" fill="url(#paint24_linear_22_127)"/>
<defs>
<linearGradient id="paint0_linear_22_127" x1="5.08101" y1="26.9241" x2="25.482" y2="6.51953" gradientUnits="userSpaceOnUse">
<stop stop-color="#E6007A"/>
<stop offset="0.21" stop-color="#703AC2"/>
<stop offset="0.46" stop-color="#0070EB"/>
<stop offset="0.77" stop-color="#0297FB"/>
<stop offset="1" stop-color="#0AE2FF"/>
</linearGradient>
<radialGradient id="paint1_radial_22_127" cx="0" cy="0" r="1" gradientUnits="userSpaceOnUse" gradientTransform="translate(20.566 12.7713) scale(6.08509)">
<stop stop-color="white"/>
<stop offset="1" stop-color="white" stop-opacity="0"/>
</radialGradient>
<radialGradient id="paint2_radial_22_127" cx="0" cy="0" r="1" gradientUnits="userSpaceOnUse" gradientTransform="translate(11.483 23.8468) scale(3.5411 3.5411)">
<stop stop-color="white"/>
<stop offset="1" stop-color="white" stop-opacity="0"/>
</radialGradient>
<linearGradient id="paint3_linear_22_127" x1="6.25893" y1="23.4498" x2="9.66917" y2="23.4036" gradientUnits="userSpaceOnUse">
<stop stop-color="white" stop-opacity="0"/>
<stop offset="1" stop-color="white"/>
</linearGradient>
<radialGradient id="paint4_radial_22_127" cx="0" cy="0" r="1" gradientUnits="userSpaceOnUse" gradientTransform="translate(11.0974 13.6588) rotate(-120.001) scale(6.08509)">
<stop stop-color="white"/>
<stop offset="1" stop-color="white" stop-opacity="0"/>
</radialGradient>
<radialGradient id="paint5_radial_22_127" cx="0" cy="0" r="1" gradientUnits="userSpaceOnUse" gradientTransform="translate(25.4252 15.8765) rotate(-120.003) scale(3.54083)">
<stop stop-color="white"/>
<stop offset="1" stop-color="white" stop-opacity="0"/>
</radialGradient>
<linearGradient id="paint6_linear_22_127" x1="27.319" y1="20.7152" x2="25.573" y2="17.785" gradientUnits="userSpaceOnUse">
<stop stop-color="white" stop-opacity="0"/>
<stop offset="1" stop-color="white"/>
</linearGradient>
<radialGradient id="paint7_radial_22_127" cx="0" cy="0" r="1" gradientUnits="userSpaceOnUse" gradientTransform="translate(16.0889 21.3844) rotate(120.001) scale(6.08509)">
<stop stop-color="white"/>
<stop offset="1" stop-color="white" stop-opacity="0"/>
</radialGradient>
<radialGradient id="paint8_radial_22_127" cx="0" cy="0" r="1" gradientUnits="userSpaceOnUse" gradientTransform="translate(11.1022 8.31918) rotate(120.003) scale(3.54083)">
<stop stop-color="white"/>
<stop offset="1" stop-color="white" stop-opacity="0"/>
</radialGradient>
<linearGradient id="paint9_linear_22_127" x1="14.4153" y1="3.83471" x2="12.7511" y2="6.81467" gradientUnits="userSpaceOnUse">
<stop stop-color="white" stop-opacity="0"/>
<stop offset="1" stop-color="white"/>
</linearGradient>
<linearGradient id="paint10_linear_22_127" x1="15.1618" y1="2.32339" x2="9.94865" y2="3.84182" gradientUnits="userSpaceOnUse">
<stop stop-color="#231F20"/>
<stop offset="1" stop-color="white"/>
</linearGradient>
<linearGradient id="paint11_linear_22_127" x1="5.31138" y1="22.2052" x2="9.67108" y2="26.7569" gradientUnits="userSpaceOnUse">
<stop stop-color="#231F20"/>
<stop offset="1" stop-color="white"/>
</linearGradient>
<linearGradient id="paint12_linear_22_127" x1="28.7109" y1="21.5189" x2="30.2258" y2="16.9067" gradientUnits="userSpaceOnUse">
<stop stop-color="#231F20"/>
<stop offset="1" stop-color="white"/>
</linearGradient>
<linearGradient id="paint13_linear_22_127" x1="17.5367" y1="4.96197" x2="24.5244" y2="6.56219" gradientUnits="userSpaceOnUse">
<stop stop-color="#231F20"/>
<stop offset="1" stop-color="white"/>
</linearGradient>
<linearGradient id="paint14_linear_22_127" x1="24.7949" y1="22.8524" x2="19.9125" y2="28.1047" gradientUnits="userSpaceOnUse">
<stop stop-color="#231F20"/>
<stop offset="1" stop-color="white"/>
</linearGradient>
<linearGradient id="paint15_linear_22_127" x1="5.67058" y1="20.196" x2="3.56185" y2="13.3435" gradientUnits="userSpaceOnUse">
<stop stop-color="#231F20"/>
<stop offset="1" stop-color="white"/>
</linearGradient>
<linearGradient id="paint16_linear_22_127" x1="19.0616" y1="7.5401" x2="16.8533" y2="9.75196" gradientUnits="userSpaceOnUse">
<stop stop-color="#231F20"/>
<stop offset="1" stop-color="white"/>
</linearGradient>
<linearGradient id="paint17_linear_22_127" x1="7.1394" y1="17.5788" x2="10.162" y2="18.3931" gradientUnits="userSpaceOnUse">
<stop stop-color="#231F20"/>
<stop offset="1" stop-color="white"/>
</linearGradient>
<linearGradient id="paint18_linear_22_127" x1="21.7938" y1="22.8844" x2="20.9865" y2="19.8653" gradientUnits="userSpaceOnUse">
<stop stop-color="#231F20"/>
<stop offset="1" stop-color="white"/>
</linearGradient>
<linearGradient id="paint19_linear_22_127" x1="17.1977" y1="20.1996" x2="18.5241" y2="18.3647" gradientUnits="userSpaceOnUse">
<stop stop-color="#231F20"/>
<stop offset="1" stop-color="white"/>
</linearGradient>
<linearGradient id="paint20_linear_22_127" x1="12.6296" y1="19.4066" x2="9.97329" y2="20.669" gradientUnits="userSpaceOnUse">
<stop stop-color="#231F20"/>
<stop offset="1" stop-color="white"/>
</linearGradient>
<linearGradient id="paint21_linear_22_127" x1="11.6696" y1="14.9864" x2="12.4911" y2="16.6933" gradientUnits="userSpaceOnUse">
<stop stop-color="#231F20"/>
<stop offset="1" stop-color="white"/>
</linearGradient>
<linearGradient id="paint22_linear_22_127" x1="15.4873" y1="9.71993" x2="14.9184" y2="7.76056" gradientUnits="userSpaceOnUse">
<stop stop-color="#231F20"/>
<stop offset="1" stop-color="white"/>
</linearGradient>
<linearGradient id="paint23_linear_22_127" x1="21.6173" y1="18.6883" x2="23.2602" y2="19.0652" gradientUnits="userSpaceOnUse">
<stop stop-color="#231F20"/>
<stop offset="1" stop-color="white"/>
</linearGradient>
<linearGradient id="paint24_linear_22_127" x1="19.0398" y1="13.1373" x2="16.956" y2="12.7568" gradientUnits="userSpaceOnUse">
<stop stop-color="#231F20"/>
<stop offset="1" stop-color="white"/>
</linearGradient>
</defs>
</svg>
