<svg width="32" height="32" viewBox="0 0 32 32" fill="none" xmlns="http://www.w3.org/2000/svg">
<path d="M15.9981 2C14.1641 2 12.6768 8.26758 12.6768 16C12.6768 23.7324 14.1641 30 15.9998 30C17.8339 30 19.3212 23.7308 19.3212 16C19.3212 8.26758 17.8322 2 15.9981 2ZM16.2293 29.2091C16.0185 29.4733 15.8094 29.2748 15.8094 29.2748C14.9647 28.3527 14.5414 26.6397 14.5414 26.6397C13.0626 22.1603 13.4145 12.542 13.4145 12.542C14.1114 4.90566 15.3726 3.10143 15.8026 2.7012C15.8465 2.6602 15.9044 2.63514 15.9659 2.63045C16.0275 2.62577 16.0889 2.64175 16.1392 2.67559C16.763 3.09182 17.2865 4.83202 17.2865 4.83202C18.8333 10.2351 18.6923 15.3084 18.6923 15.3084C18.8316 19.7221 17.9172 24.6625 17.9172 24.6625C17.2135 28.4183 16.2293 29.2091 16.2293 29.2091Z" fill="#272C4E"/>
<path d="M28.893 9.03282C27.9785 7.53276 21.4667 9.43625 14.3429 13.2848C7.21748 17.1318 2.19295 21.4655 3.10743 22.9656C4.01851 24.464 10.532 22.5621 17.6575 18.7135C24.7795 14.8665 29.8058 10.5313 28.893 9.03282ZM3.94711 22.7607C3.59696 22.719 3.67515 22.4485 3.67515 22.4485C4.10519 21.299 5.47011 20.1015 5.47011 20.1015C8.86286 16.6644 17.8954 12.1658 17.8954 12.1658C25.2725 8.93196 27.5655 9.06804 28.1468 9.22012C28.2063 9.23569 28.2581 9.27059 28.2929 9.31863C28.3277 9.36668 28.3434 9.42479 28.3371 9.48267C28.2675 10.1999 26.9212 11.4934 26.9212 11.4934C22.7177 15.4461 17.9753 17.8571 17.9753 17.8571C13.9809 20.1688 8.97504 21.8786 8.97504 21.8786C5.16585 23.1721 3.94711 22.7591 3.94711 22.7591V22.7607Z" fill="#272C4E"/>
<path d="M28.8611 23.0152C29.7807 21.5199 24.7681 17.1654 17.6698 13.2896C10.5699 9.41222 4.05803 7.48471 3.13846 8.98317C2.22058 10.4816 7.23151 14.8329 14.3349 18.7103C21.4382 22.5861 27.9415 24.5136 28.8611 23.0168V23.0152ZM3.74867 9.5627C3.61269 9.25853 3.90165 9.18489 3.90165 9.18489C5.17138 8.96076 6.95614 9.47465 6.95614 9.47465C11.8124 10.5152 20.4727 15.6254 20.4727 15.6254C27.1409 20.0199 28.1625 21.9554 28.3155 22.5045C28.3315 22.5609 28.3258 22.6208 28.2993 22.6735C28.2729 22.7263 28.2274 22.7685 28.171 22.7927C27.4741 23.092 25.6128 22.6454 25.6128 22.6454C19.8744 21.1949 15.285 18.539 15.285 18.539C11.1614 16.4434 7.08363 13.2192 7.08363 13.2192C3.98494 10.7618 3.75207 9.5643 3.75207 9.5643V9.5611L3.74867 9.5627Z" fill="#272C4E"/>
<path d="M15.9645 17.6137C16.4284 17.6137 16.8733 17.4402 17.2013 17.1312C17.5293 16.8223 17.7136 16.4033 17.7136 15.9664C17.7136 15.5295 17.5293 15.1105 17.2013 14.8015C16.8733 14.4926 16.4284 14.319 15.9645 14.319C15.5006 14.319 15.0558 14.4926 14.7277 14.8015C14.3997 15.1105 14.2155 15.5295 14.2155 15.9664C14.2155 16.4033 14.3997 16.8223 14.7277 17.1312C15.0558 17.4402 15.5006 17.6137 15.9645 17.6137ZM23.1342 10.6305C23.6951 10.6305 24.1489 10.1871 24.1489 9.64118C24.1512 9.51356 24.1267 9.38677 24.0769 9.26806C24.0271 9.14935 23.953 9.04104 23.8588 8.94931C23.7646 8.85759 23.6521 8.78425 23.5277 8.73347C23.4034 8.6827 23.2697 8.6555 23.1342 8.65341C22.9987 8.6555 22.8649 8.6827 22.7406 8.73347C22.6163 8.78425 22.5038 8.85759 22.4095 8.94931C22.3153 9.04104 22.2412 9.14935 22.1914 9.26806C22.1416 9.38677 22.1171 9.51356 22.1194 9.64118C22.1194 10.1871 22.5749 10.6305 23.1342 10.6305ZM6.48659 13.9893C7.04751 13.9893 7.50135 13.5474 7.50135 13.0015C7.5036 12.8739 7.47914 12.7471 7.42935 12.6284C7.37957 12.5097 7.30545 12.4014 7.21122 12.3096C7.11698 12.2179 7.00449 12.1446 6.88015 12.0938C6.75582 12.043 6.62208 12.0158 6.48659 12.0137C6.35109 12.0158 6.21735 12.043 6.09302 12.0938C5.96869 12.1446 5.85619 12.2179 5.76196 12.3096C5.66772 12.4014 5.5936 12.5097 5.54382 12.6284C5.49404 12.7471 5.46957 12.8739 5.47182 13.0015C5.47182 13.5474 5.92566 13.9893 6.48659 13.9893ZM13.901 26.1114C14.4619 26.1114 14.9158 25.6695 14.9158 25.1236C14.918 24.996 14.8935 24.8692 14.8438 24.7505C14.794 24.6318 14.7199 24.5235 14.6256 24.4318C14.5314 24.34 14.4189 24.2667 14.2946 24.2159C14.1702 24.1651 14.0365 24.1379 13.901 24.1359C13.7655 24.1379 13.6318 24.1651 13.5074 24.2159C13.3831 24.2667 13.2706 24.34 13.1764 24.4318C13.0821 24.5235 13.008 24.6318 12.9582 24.7505C12.9084 24.8692 12.884 24.996 12.8862 25.1236C12.8862 25.6695 13.3401 26.1114 13.901 26.1114Z" fill="#272C4E"/>
</svg>
