<svg width="32" height="32" viewBox="0 0 32 32" fill="none" xmlns="http://www.w3.org/2000/svg">
<path fill-rule="evenodd" clip-rule="evenodd" d="M14.3259 2.30089C14.1803 2.4673 13.3951 3.73617 12.5864 5.11945C10.8904 8.00971 9.18732 10.8959 7.47734 13.7779C4.22207 19.2772 3.86327 19.9611 4.03487 20.3303C4.22467 20.7437 4.22988 20.7437 7.39414 20.7437C9.68998 20.7437 10.6208 20.6839 10.782 20.5253C10.9042 20.4057 11.7778 18.9964 12.7268 17.3947C14.2869 14.7504 14.4897 14.4826 14.8901 14.5294C15.2645 14.5736 15.6441 15.1014 17.2457 17.7926C18.2962 19.5607 19.1568 21.0557 19.1594 21.1208C19.1594 21.1858 19.0346 21.3626 18.8812 21.5108C18.6472 21.7422 18.0466 21.7838 15.0877 21.7838C11.9624 21.7838 11.5438 21.8176 11.3046 22.088C10.7586 22.7042 8.31976 26.9763 8.31976 27.3195C8.31976 27.5145 8.47576 27.7563 8.66816 27.8551C8.89957 27.9773 12.4278 28.0215 19.3544 27.9903C29.5726 27.9461 29.6948 27.9435 29.9366 27.5899C30.1576 27.2623 29.9262 26.8021 27.1805 22.1218C20.8494 11.3338 16.4943 3.95458 15.8911 2.99513C15.2307 1.93687 14.8121 1.75226 14.3259 2.30089Z" fill="#3913AB"/>
</svg>
