<svg width="32" height="32" viewBox="0 0 32 32" fill="none" xmlns="http://www.w3.org/2000/svg">
<path d="M5.94029 27.999H2.56506C2.33218 28.0001 2.10081 27.964 1.8809 27.8922C1.72589 27.8524 1.58103 27.7838 1.45493 27.6905C1.32884 27.5972 1.2241 27.481 1.14695 27.349C1.06981 27.217 1.02184 27.0717 1.0059 26.922C0.989964 26.7722 1.00639 26.621 1.05419 26.4773C1.11939 26.2387 1.22117 26.0103 1.35637 25.7992L7.32003 15.9641L14.6064 3.95048C14.7542 3.68533 14.9578 3.45101 15.2051 3.2617C15.4225 3.08744 15.7009 2.99435 15.987 3.00027C16.2731 3.00618 16.5468 3.11066 16.7559 3.29374C16.9752 3.47038 17.157 3.68412 17.2918 3.92378C18.3751 5.77654 19.5039 7.59727 20.61 9.43401C20.9975 10.0846 21.1757 10.8264 21.1231 11.5698C21.1 12.1028 20.9562 12.6251 20.7012 13.1022C20.5188 13.4332 20.3078 13.7482 20.1083 14.0739L12.7193 26.0608C12.4325 26.5318 12.0424 26.9404 11.5746 27.2598C11.1067 27.5792 10.5719 27.802 10.0054 27.9135C9.71544 27.9745 9.41881 28.0032 9.12168 27.999H5.94029Z" fill="#E54041"/>
<path d="M24.758 27.999H20.0714C19.834 27.9986 19.5985 27.9588 19.3758 27.8815C19.0721 27.7937 18.817 27.5984 18.6648 27.3372C18.5125 27.0759 18.4751 26.7693 18.5605 26.4826C18.6167 26.2515 18.711 26.0299 18.8399 25.8259L23.4694 18.3508C23.6059 18.1198 23.7854 17.9136 23.9997 17.7421C24.2206 17.556 24.5075 17.4534 24.8047 17.4544C25.1018 17.4554 25.388 17.5598 25.6075 17.7474C25.8243 17.9242 26.0057 18.1358 26.1434 18.3721L30.6703 25.8152C30.8437 26.074 30.9528 26.3659 30.9896 26.6695C31.0271 26.9377 30.9594 27.2095 30.7989 27.4344C30.6384 27.6593 30.3962 27.822 30.1173 27.8922C29.8441 27.9706 29.5591 28.0067 29.2735 27.999H24.758Z" fill="#E54041"/>
</svg>
