<svg width="32" height="32" viewBox="0 0 32 32" fill="none" xmlns="http://www.w3.org/2000/svg">
<path d="M14.2109 18.0682C14.4313 17.8635 14.6053 17.6194 14.7233 17.3527C14.9041 16.9487 14.952 16.5004 14.8603 16.069C14.7685 15.6376 14.5417 15.2443 14.2109 14.943L5.3582 6.70179L2 9.82888L9.17267 16.5056L2 23.1843L5.3582 26.3095L14.2109 18.0682ZM18.1859 14.3683L27.0367 6.12709L23.6804 3L16.5077 9.67863L9.33507 3L5.97493 6.12709L14.8277 14.3683C15.2917 14.8003 15.8987 15.0163 16.5058 15.0163C17.1148 15.0163 17.7219 14.8003 18.1859 14.3683ZM31 23.1711L23.8273 16.4944L31 9.81573L27.6418 6.69053L18.7891 14.9318C18.5677 15.1315 18.391 15.3734 18.2703 15.6424C18.1495 15.9115 18.0872 16.2018 18.0872 16.4953C18.0872 16.7888 18.1495 17.0792 18.2703 17.3482C18.391 17.6172 18.5677 17.8591 18.7891 18.0588L27.6418 26.2982L31 23.1711ZM16.4942 23.3214L23.6669 30L27.0251 26.8729L18.1723 18.6317C17.7193 18.2145 17.1184 17.9825 16.4942 17.9837C15.8639 17.9837 15.2607 18.2166 14.8141 18.6317L5.96333 26.8729L9.32153 30L16.4942 23.3214Z" fill="#4A4A4A"/>
</svg>
