<svg width="32" height="32" viewBox="0 0 32 32" fill="none" xmlns="http://www.w3.org/2000/svg">
<path d="M31.8949 20.1958C31.8389 21.3922 31.7954 22.4737 31.7146 23.5614C31.6775 24.2994 31.546 25.0301 31.323 25.7366C31.2429 25.9897 31.1211 26.2284 30.9624 26.4436C30.8431 26.6075 30.6831 26.7395 30.4972 26.8272C30.3113 26.9149 30.1056 26.9554 29.8993 26.9451C29.352 26.9094 28.8154 26.7806 28.314 26.5644C27.4843 26.2253 26.6927 25.8041 25.9516 25.3076C24.2482 24.2441 22.6257 23.0719 21.0031 21.8876L18.7526 20.2622C18.6386 20.1811 18.5361 20.0856 18.448 19.9782C18.3671 19.8989 18.3192 19.7934 18.3135 19.6819C18.3078 19.5704 18.3446 19.4608 18.4169 19.374C18.486 19.2738 18.5629 19.1789 18.6469 19.09C18.8905 18.8103 19.1544 18.5478 19.4364 18.3045C19.5979 18.1647 19.7957 18.0707 20.0084 18.0326C20.0848 18.0177 20.164 18.0233 20.2374 18.0489C20.3108 18.0745 20.3756 18.119 20.4249 18.1776C20.5208 18.2822 20.627 18.3773 20.742 18.4616C22.2278 19.652 23.7385 20.8121 25.2864 21.9178C25.6949 22.2188 26.1532 22.4497 26.6417 22.6006C26.834 22.6617 27.0366 22.6863 27.2385 22.6731C27.409 22.6572 27.5726 22.5995 27.7139 22.5055C27.8552 22.4114 27.9697 22.2841 28.0467 22.1354C28.2184 21.8276 28.3301 21.4916 28.3762 21.1444C28.5772 19.9881 28.7162 18.8223 28.7927 17.6519C28.8711 16.1728 28.7835 14.6897 28.5316 13.229C28.4738 12.7262 28.3825 12.2277 28.2581 11.7365C28.1894 11.4933 28.0802 11.2626 27.9348 11.0537C27.7752 10.826 27.5452 10.6536 27.2781 10.5612C27.011 10.4689 26.7207 10.4615 26.449 10.5401C25.894 10.6689 25.3674 10.894 24.8948 11.2048C23.9305 11.8173 23.0216 12.5087 22.178 13.2713C21.2455 14.0809 20.3441 14.9208 19.4302 15.7486C18.448 16.6429 17.3911 17.4526 16.3529 18.2743C14.3179 19.8856 12.2643 21.4767 10.1921 23.0478C8.96114 23.9722 7.74265 24.9148 6.44955 25.7487C5.77419 26.2035 5.0433 26.5749 4.27367 26.8544C4.03675 26.9413 3.78692 26.9903 3.53388 26.9994C3.30526 27.0061 3.07894 26.9536 2.87798 26.8475C2.67703 26.7413 2.50864 26.5853 2.38999 26.3952C2.14848 26.0152 1.96818 25.6016 1.85534 25.1686C1.535 24.1116 1.32056 23.027 1.21501 21.9299C1.04108 20.2618 0.972572 18.585 1.00986 16.9087C1.04094 14.6247 1.20879 12.3468 1.45125 10.0749C1.50954 9.29509 1.64275 8.52233 1.84912 7.76668C1.95991 7.35947 2.14066 6.97337 2.38377 6.62468C2.50918 6.42282 2.689 6.25812 2.90376 6.14843C3.11853 6.03873 3.36008 5.98821 3.60226 6.00232C3.94857 6.03183 4.2788 6.1577 4.55343 6.36486C4.90779 6.61864 5.28701 6.84825 5.66002 7.0839C8.14674 8.65491 10.6335 10.2259 13.1015 11.8211C13.4932 12.0749 13.8911 12.3166 14.2578 12.6006C14.4503 12.743 14.6181 12.9144 14.7552 13.1081C14.8503 13.2359 14.9056 13.3876 14.9144 13.5451C14.9232 13.7026 14.8852 13.8593 14.8049 13.9963C14.6811 14.2138 14.5262 14.4132 14.3449 14.5885C14.089 14.8773 13.806 15.1423 13.4994 15.38C13.3948 15.4613 13.2742 15.5209 13.145 15.5553C13.0732 15.5794 12.9946 15.5759 12.9253 15.5456C12.8559 15.5153 12.8011 15.4604 12.772 15.3921C12.6997 15.2723 12.6165 15.1591 12.5234 15.0537C12.2429 14.7011 11.9397 14.3661 11.6157 14.0507C11.4953 13.9316 11.3516 13.8371 11.193 13.7728C11.1142 13.7382 11.0266 13.7271 10.9413 13.7411C10.856 13.7551 10.777 13.7935 10.7143 13.8513C9.43983 14.8785 8.1716 15.9238 6.86608 16.9208C6.6601 17.0816 6.44189 17.2271 6.21331 17.3559C6.11067 17.4169 5.99977 17.4636 5.88382 17.4948C5.81274 17.5237 5.73293 17.5247 5.66109 17.4977C5.58925 17.4707 5.53095 17.4177 5.49838 17.3498C5.32738 17.0524 5.23196 16.7196 5.22007 16.379C5.20817 16.0385 5.28015 15.7001 5.43 15.3921C5.51944 15.2236 5.64696 15.0769 5.80301 14.9631C6.89716 14.1232 7.97888 13.2713 9.12899 12.4978C9.47091 12.2682 9.4647 12.1172 9.11034 11.9178C8.6876 11.6761 8.23999 11.5069 7.80481 11.2894L6.81013 10.7758C6.66248 10.6934 6.50333 10.6324 6.33765 10.5945C6.14066 10.551 5.93479 10.5657 5.74647 10.6368C5.55816 10.7079 5.39599 10.832 5.2808 10.9933C5.0115 11.3459 4.82093 11.7493 4.72128 12.1776C4.50931 13.0105 4.39255 13.8636 4.37314 14.7214C4.29196 16.5606 4.40445 18.403 4.70885 20.2199C4.79895 20.7822 4.96405 21.3306 5.19998 21.8514C5.27847 22.0252 5.38095 22.1878 5.5046 22.3348C5.62077 22.483 5.78006 22.5939 5.96184 22.6532C6.14362 22.7125 6.33951 22.7173 6.52415 22.6671C6.90186 22.5677 7.2593 22.4063 7.58101 22.1897C8.32702 21.7305 9.02952 21.2048 9.7631 20.7275C11.566 19.5553 13.2818 18.2622 14.9914 16.9571C19.0598 13.827 23.0682 10.624 27.0147 7.34976C27.5341 6.8953 28.1374 6.54061 28.7927 6.30443C29.1362 6.16435 29.5195 6.14632 29.8753 6.25349C30.2311 6.36067 30.5368 6.58621 30.7386 6.89054C30.8657 7.06138 30.976 7.24345 31.0681 7.43435C31.3877 8.10891 31.5934 8.82912 31.6773 9.5673C31.8327 10.673 31.9073 11.7848 31.9508 12.8966C32.0503 15.4888 31.9819 17.9782 31.8949 20.1958Z" fill="#0055D5"/>
</svg>
