<svg width="32" height="32" viewBox="0 0 32 32" fill="none" xmlns="http://www.w3.org/2000/svg">
<path d="M24.42 7.6646C24.42 9.13676 20.8686 10.3341 16.5 10.3341C12.1314 10.3341 8.58 9.13676 8.58 7.6646C8.58 6.19245 12.1265 5 16.5 5C20.8735 5 24.42 6.19245 24.42 7.6646ZM27.3827 14.6623C27.3827 16.684 22.5081 18.323 16.5 18.323C10.4919 18.323 5.61243 16.684 5.61243 14.6623C5.61243 12.6405 10.4919 11.0015 16.5 11.0015C22.5081 11.0015 27.3827 12.6405 27.3827 14.6623ZM30 23.4658C30 25.9684 23.9578 28 16.5 28C9.04216 28 3 25.9684 3 23.4658C3 20.9631 9.04216 18.9266 16.5 18.9266C23.9578 18.9266 30 20.9582 30 23.4658Z" fill="#242829"/>
</svg>
