<svg width="32" height="32" viewBox="0 0 32 32" fill="none" xmlns="http://www.w3.org/2000/svg">
<path d="M25.2517 14.0278C24.472 13.7506 23.6454 13.6172 22.8148 13.6345C23.3129 13.1721 23.7273 12.6323 24.0407 12.0375C24.2805 11.3197 24.3418 10.5573 24.2194 9.8123C24.1197 9.093 23.8385 8.40841 23.4006 7.81883C22.9627 7.22924 22.3814 6.75274 21.7081 6.43129C20.0699 5.8501 18.2883 5.75984 16.5962 6.17232L15.5192 2L12.859 2.64263L13.9211 6.76699L11.8962 7.25136L10.8341 3.12701L8.16894 3.76964L9.236 7.894L4 9.15528L4.68986 11.8217L6.2284 11.4525C6.7431 11.279 7.30528 11.291 7.81161 11.486C8.21361 11.7498 8.31783 11.9176 8.49154 12.5843L11.2361 23.2261C11.2821 23.3629 11.2993 23.5072 11.2865 23.6506C11.2737 23.7939 11.2313 23.9333 11.1617 24.0605C10.9879 24.3195 10.7795 24.4202 10.2435 24.5497L8.65532 24.9334L8.90347 28.1513L14.1345 26.89L15.1966 31L17.8568 30.3574L16.7947 26.2474L18.8246 25.763L19.8817 29.873L22.5468 29.2304L21.4649 25.0532C22.1448 24.847 22.7751 24.6456 23.1374 24.5065C24.5599 24.0321 25.8387 23.2247 26.8597 22.1566C27.4133 21.4608 27.78 20.6433 27.9272 19.7773C28.0744 18.9112 27.9976 18.0234 27.7034 17.193C27.5921 16.5125 27.3105 15.8685 26.8833 15.3169C26.4561 14.7654 25.896 14.3228 25.2517 14.0278ZM12.6456 10.1624C12.6456 10.1624 13.4744 9.88424 14.3082 9.6972C15.205 9.46192 16.1348 9.3664 17.0627 9.41426C17.5768 9.4087 18.0789 9.56471 18.4934 9.85879C18.9078 10.1529 19.2122 10.5691 19.3606 11.0448C19.496 11.4366 19.5074 11.8585 19.3934 12.2566C19.2793 12.6547 19.045 13.0109 18.7203 13.2796C17.9704 13.8944 17.0891 14.3415 16.1396 14.5889C15.4071 14.788 14.669 14.9671 13.9261 15.126L12.6456 10.1624ZM21.7776 21.02C20.9331 21.6574 19.974 22.1387 18.9486 22.4396C17.7873 22.8088 16.0105 23.1973 16.0105 23.1973L14.5911 17.687C14.5911 17.687 16.2636 17.1978 17.6037 16.9628C18.6214 16.7692 19.6665 16.7514 20.6907 16.91C21.144 16.9928 21.5635 17.1988 21.9001 17.5037C22.2366 17.8087 22.4762 18.2 22.5908 18.6319C22.7054 19.0637 22.6902 19.5182 22.5471 19.942C22.4039 20.3658 22.1387 20.7414 21.7825 21.0248L21.7776 21.02Z" fill="#46AA46"/>
</svg>
