<svg width="32" height="32" viewBox="0 0 32 32" fill="none" xmlns="http://www.w3.org/2000/svg">
<mask id="mask0_22_205" style="mask-type:luminance" maskUnits="userSpaceOnUse" x="0" y="0" width="32" height="32">
<path d="M16 32C24.8366 32 32 24.8366 32 16C32 7.16344 24.8366 0 16 0C7.16344 0 0 7.16344 0 16C0 24.8366 7.16344 32 16 32Z" fill="#D9D9D9"/>
</mask>
<g mask="url(#mask0_22_205)">
<path d="M0 0H32V8H0V0Z" fill="url(#paint0_linear_22_205)"/>
<path d="M0 8H32V16H0V8Z" fill="url(#paint1_linear_22_205)"/>
<path d="M0 16H32V24H0V16Z" fill="url(#paint2_linear_22_205)"/>
<path d="M0 24H32V32H0V24Z" fill="url(#paint3_linear_22_205)"/>
</g>
<defs>
<linearGradient id="paint0_linear_22_205" x1="16" y1="0" x2="16" y2="8" gradientUnits="userSpaceOnUse">
<stop offset="0.479" stop-color="#BBDBFF"/>
<stop offset="1" stop-color="#23A6DF"/>
</linearGradient>
<linearGradient id="paint1_linear_22_205" x1="16" y1="8" x2="16" y2="16" gradientUnits="userSpaceOnUse">
<stop offset="0.505" stop-color="#FF6B6B"/>
<stop offset="1" stop-color="#E51110"/>
</linearGradient>
<linearGradient id="paint2_linear_22_205" x1="16" y1="16" x2="16" y2="24" gradientUnits="userSpaceOnUse">
<stop offset="0.401" stop-color="#F1E869"/>
<stop offset="1" stop-color="#FE9D18"/>
</linearGradient>
<linearGradient id="paint3_linear_22_205" x1="16" y1="24" x2="16" y2="32" gradientUnits="userSpaceOnUse">
<stop offset="0.479" stop-color="#BBFFC9"/>
<stop offset="1" stop-color="#38CA10"/>
</linearGradient>
</defs>
</svg>
