<svg width="32" height="32" viewBox="0 0 32 32" fill="none" xmlns="http://www.w3.org/2000/svg">
<path d="M13.3999 6.66666H6.67028V7.30039H14.0638L13.3999 6.66666ZM14.2637 7.55313H6.67028V8.18686H14.9314L14.2637 7.55313ZM6.6665 9.03183V8.39055H8.76008V9.03183H6.6665ZM12.6719 8.39433L13.0378 8.77909V9.03183H15.0823V8.39055L12.6719 8.39433ZM6.6665 9.94093V9.30343H8.76008V9.94093H6.6665ZM12.6719 9.94093L13.0378 9.55617V9.30343H15.0823V9.94093H12.6719ZM14.3807 10.7821H6.6665V10.1446H15.0408L14.3807 10.7821ZM14.3807 11.0085H6.6665V11.646H15.0408L14.3807 11.0085ZM6.6665 12.4909V11.8497H8.76008V12.4909H6.6665ZM12.6719 11.8534L13.0378 12.2382V12.4909H15.0823V11.8497L12.6719 11.8534ZM6.6665 13.4V12.7625H8.76008V13.4H6.6665ZM12.6719 13.4L13.0378 13.0115V12.7625H15.0823V13.4H12.6719ZM13.3999 15.1541H6.67028V14.5128H14.0638L13.3999 15.1541ZM14.2637 14.2639H6.67028V13.6264H14.9314L14.2637 14.2639ZM19.028 6.66666H16.9344V7.30039H19.028V6.66666ZM19.028 7.55313H16.9344V8.18686H19.028V7.55313ZM19.028 8.41696H16.9344V9.05446H19.028V8.41696ZM19.028 9.25816H16.9344V9.89566H19.028V9.25816ZM19.028 10.1446H16.9344V10.7859H19.028V10.1446ZM19.028 11.0085H16.9344V11.646H19.028V11.0085ZM19.028 11.8987H16.9344V12.5362H19.028V11.8987ZM19.2091 12.7625H16.9344V13.3774H19.8013L19.2091 12.7625ZM17.7304 14.2412H24.5128V13.6264H17.1381L17.7304 14.2412ZM18.5942 15.1051H24.5128V14.4902H18.0058L18.5942 15.1051ZM23.6716 16.7422H16.9307V17.3797H24.3242L23.6716 16.7422ZM24.5354 17.6287H16.9307V18.27H25.1918L24.5354 17.6287ZM16.9344 19.1112V18.4737H19.028V19.1112H16.9344ZM22.9436 18.4737L23.3057 18.8584V19.1112H25.354V18.4737H22.9436ZM16.9344 20.0203V19.3828H19.028V20.0203H16.9344ZM22.9436 20.0203L23.3057 19.6317V19.3828H25.354V20.0203H22.9436ZM24.6486 20.8615H16.9344V20.224H25.3087L24.6486 20.8615ZM24.6486 21.0878H16.9344V21.7291H25.3087L24.6486 21.0878ZM16.9344 22.5665V21.9328H19.028V22.5703L16.9344 22.5665ZM22.9436 21.9328L23.3057 22.3175V22.5665H25.354V21.9328H22.9436ZM16.9344 23.4794V22.8381H19.028V23.4794H16.9344ZM16.9344 24.3206V23.6831H19.028V24.3206H16.9344ZM16.9344 25.2297V24.5922H19.028V25.2334L16.9344 25.2297ZM23.2604 23.4794V22.8381H25.354V23.4794H23.2604ZM23.2604 24.3206V23.6831H25.354V24.3206H23.2604ZM23.2604 25.2297V24.5922H25.354V25.2334L23.2604 25.2297ZM8.76008 16.7422H6.6665V17.3797H8.76008V16.7422ZM8.76008 17.6287H6.6665V18.27H8.76008V17.6287ZM8.76008 18.4963H6.6665V19.1338H8.76008V18.4963ZM8.76008 19.3375H6.6665V19.975H8.76008V19.3375ZM8.76008 20.224H6.6665V20.8652H8.76008V20.224ZM8.76008 21.0878H6.6665V21.7291H8.76008V21.0878ZM8.76008 21.978H6.6665V22.6155H8.76008V21.978ZM8.94114 22.8419H6.6665V23.4567H9.53338L8.94114 22.8419ZM12.9925 16.7422H15.0823V17.3797H12.9887L12.9925 16.7422ZM12.9925 17.6287H15.0823V18.27H12.9887L12.9925 17.6287ZM12.9925 18.4963H15.0823V19.1338H12.9887L12.9925 18.4963ZM12.9925 19.3375H15.0823V19.975H12.9887L12.9925 19.3375ZM12.9925 20.224H15.0823V20.8652H12.9887L12.9925 20.224ZM12.9925 21.0878H15.0823V21.7291H12.9887L12.9925 21.0878ZM12.9925 21.978H15.0823V22.6155H12.9887L12.9925 21.978ZM12.8077 22.8419H15.0861V23.4567H12.2192L12.8077 22.8419ZM14.856 23.7057H6.8702L7.46244 24.3432H14.2411L14.856 23.7057ZM14.0148 24.5695H7.71518L8.30364 25.2108H13.3999L14.0148 24.5695Z" fill="#FF6E26"/>
<path d="M12.1001 2H2.00566V2.9506H13.0959L12.1001 2ZM13.3958 3.3297H2.00566V4.2803H14.3973L13.3958 3.3297ZM2 5.54776V4.58585H5.14036V5.54776H2ZM11.008 4.59151L11.5569 5.16865V5.54776H14.6237V4.58585L11.008 4.59151ZM2 6.91141V5.95516H5.14036V6.91141H2ZM11.008 6.91141L11.5569 6.33426V5.95516H14.6237V6.91141H11.008ZM13.5712 8.17321H2V7.21696H14.5614L13.5712 8.17321ZM13.5712 8.51271H2V9.46897H14.5614L13.5712 8.51271ZM2 10.7364V9.77451H5.14036V10.7364H2ZM11.008 9.78017L11.5569 10.3573V10.7364H14.6237V9.77451L11.008 9.78017ZM2 12.1001V11.1438H5.14036V12.1001H2ZM11.008 12.1001L11.5569 11.5173V11.1438H14.6237V12.1001H11.008ZM12.1001 14.7312H2.00566V13.7693H13.0959L12.1001 14.7312ZM13.3958 13.3958H2.00566V12.4396H14.3973L13.3958 13.3958ZM20.5423 2H17.4019V2.9506H20.5423V2ZM20.5423 3.3297H17.4019V4.2803H20.5423V3.3297ZM20.5423 4.62545H17.4019V5.58171H20.5423V4.62545ZM20.5423 5.88726H17.4019V6.84351H20.5423V5.88726ZM20.5423 7.21696H17.4019V8.17887H20.5423V7.21696ZM20.5423 8.51271H17.4019V9.46897H20.5423V8.51271ZM20.5423 9.84807H17.4019V10.8043H20.5423V9.84807ZM20.8139 11.1438H17.4019V12.0661H21.7022L20.8139 11.1438ZM18.5958 13.3619H28.7694V12.4396H17.7075L18.5958 13.3619ZM19.8916 14.6576H28.7694V13.7353H19.0089L19.8916 14.6576ZM27.5076 17.1133H17.3963V18.0696H28.4865L27.5076 17.1133ZM28.8034 18.443H17.3963V19.4049H29.7879L28.8034 18.443ZM17.4019 20.6668V19.7105H20.5423V20.6668H17.4019ZM26.4156 19.7105L26.9588 20.2876V20.6668H30.0312V19.7105H26.4156ZM17.4019 22.0304V21.0742H20.5423V22.0304H17.4019ZM26.4156 22.0304L26.9588 21.4476V21.0742H30.0312V22.0304H26.4156ZM28.9731 23.2922H17.4019V22.336H29.9634L28.9731 23.2922ZM28.9731 23.6317H17.4019V24.5936H29.9634L28.9731 23.6317ZM17.4019 25.8498V24.8992H20.5423V25.8554L17.4019 25.8498ZM26.4156 24.8992L26.9588 25.4763V25.8498H30.0312V24.8992H26.4156ZM17.4019 27.2191V26.2572H20.5423V27.2191H17.4019ZM17.4019 28.4809V27.5246H20.5423V28.4809H17.4019ZM17.4019 29.8445V28.8883H20.5423V29.8502L17.4019 29.8445ZM26.8909 27.2191V26.2572H30.0312V27.2191H26.8909ZM26.8909 28.4809V27.5246H30.0312V28.4809H26.8909ZM26.8909 29.8445V28.8883H30.0312V29.8502L26.8909 29.8445ZM5.14036 17.1133H2V18.0696H5.14036V17.1133ZM5.14036 18.443H2V19.4049H5.14036V18.443ZM5.14036 19.7444H2V20.7007H5.14036V19.7444ZM5.14036 21.0063H2V21.9625H5.14036V21.0063ZM5.14036 22.336H2V23.2979H5.14036V22.336ZM5.14036 23.6317H2V24.5936H5.14036V23.6317ZM5.14036 24.9671H2V25.9233H5.14036V24.9671ZM5.41196 26.2628H2V27.1851H6.30031L5.41196 26.2628ZM11.489 17.1133H14.6237V18.0696H11.4833L11.489 17.1133ZM11.489 18.443H14.6237V19.4049H11.4833L11.489 18.443ZM11.489 19.7444H14.6237V20.7007H11.4833L11.489 19.7444ZM11.489 21.0063H14.6237V21.9625H11.4833L11.489 21.0063ZM11.489 22.336H14.6237V23.2979H11.4833L11.489 22.336ZM11.489 23.6317H14.6237V24.5936H11.4833L11.489 23.6317ZM11.489 24.9671H14.6237V25.9233H11.4833L11.489 24.9671ZM11.2117 26.2628H14.6293V27.1851H10.329L11.2117 26.2628ZM14.2842 27.5586H2.30555L3.1939 28.5148H13.3619L14.2842 27.5586ZM13.0224 28.8543H3.57301L4.45571 29.8162H12.1001L13.0224 28.8543Z" fill="#FF6E26"/>
</svg>
