<svg width="32" height="32" viewBox="0 0 32 32" fill="none" xmlns="http://www.w3.org/2000/svg">
<path d="M5.31155 22.4797L5.30133 22.4895C4.80116 22.9756 4.52103 23.6338 4.52247 24.3194C4.5239 25.005 4.80679 25.6621 5.30899 26.1462C5.8112 26.6304 6.49166 26.9021 7.20092 26.9016C7.91019 26.9012 8.59027 26.6286 9.0918 26.1438C9.59333 25.659 9.87529 25.0016 9.87577 24.3159C9.87625 23.6303 9.5952 22.9725 9.09435 22.4871C8.5935 22.0016 7.9138 21.7281 7.20454 21.7268C6.49527 21.7254 5.81443 21.9962 5.31155 22.4797Z" fill="#47B9FF"/>
<path d="M23.6458 9.32028C24.021 9.68245 24.4988 9.92898 25.0189 10.0287C25.5391 10.1284 26.0781 10.0769 26.5679 9.88055C27.0577 9.68423 27.4763 9.35195 27.7708 8.92572C28.0653 8.49949 28.2225 7.99843 28.2225 7.48587C28.2225 6.9733 28.0653 6.47224 27.7708 6.04601C27.4763 5.61978 27.0577 5.28751 26.5679 5.09119C26.0781 4.89487 25.5391 4.84331 25.0189 4.94303C24.4988 5.04275 24.021 5.28928 23.6458 5.65146C23.3965 5.89181 23.1987 6.17734 23.0638 6.49169C22.9288 6.80605 22.8594 7.14305 22.8594 7.4834C22.8594 7.82374 22.9288 8.16075 23.0638 8.4751C23.1987 8.78946 23.3965 9.07499 23.6458 9.31534V9.32028Z" fill="#C738FF"/>
<path d="M23.5528 22.3562C23.0506 22.8423 22.7686 23.5012 22.7686 24.1881C22.7686 24.8751 23.0506 25.534 23.5528 26.0201C23.8015 26.2611 24.102 26.4522 24.4272 26.5827C24.7524 26.7131 25.101 26.7803 25.4531 26.7803C25.8052 26.7803 26.1538 26.7131 26.479 26.5827C26.8042 26.4522 27.0995 26.2611 27.3482 26.0201C27.5974 25.7795 27.7951 25.4938 27.9301 25.1794C28.0651 24.8649 28.1347 24.5279 28.135 24.1874C28.1352 23.847 28.0661 23.5098 27.9315 23.1952C27.797 22.8806 27.5996 22.5946 27.3507 22.3537C27.1019 22.1128 26.8063 21.9217 26.4811 21.7912C26.1558 21.6607 25.8071 21.5934 25.4549 21.5932C25.1027 21.5929 24.7539 21.6598 24.4284 21.7898C24.1029 21.9199 23.8072 22.1107 23.558 22.3513L23.5528 22.3562Z" fill="#47B9FF"/>
<path d="M5.57973 9.08331C5.82837 9.32428 6.12375 9.51546 6.44894 9.64591C6.77414 9.77636 7.12276 9.8435 7.47485 9.8435C7.82693 9.8435 8.17555 9.77636 8.50075 9.64591C8.82594 9.51546 9.12132 9.32428 9.36996 9.08331C9.74462 8.72061 9.99965 8.25868 10.1028 7.75592C10.206 7.25315 10.1526 6.7321 9.94955 6.25863C9.74646 5.78515 9.40273 5.3805 8.9618 5.09581C8.52087 4.81112 8.00253 4.65918 7.47229 4.65918C6.94206 4.65918 6.42372 4.81112 5.98279 5.09581C5.54186 5.3805 5.19813 5.78515 4.99504 6.25863C4.79195 6.7321 4.73861 7.25315 4.84177 7.75592C4.94494 8.25868 5.20507 8.72061 5.57973 9.08331Z" fill="#C738FF"/>
<path d="M16.4371 6.18968C17.1484 6.18968 17.8305 5.91656 18.3334 5.43039C18.8364 4.94423 19.1189 4.28485 19.1189 3.59731V3.59237C19.1189 3.07965 18.9616 2.57844 18.6669 2.15213C18.3723 1.72581 17.9534 1.39354 17.4634 1.19733C16.9734 1.00112 16.4342 0.949786 15.914 1.04981C15.3937 1.14984 14.9159 1.39674 14.5408 1.75929C14.1658 2.12184 13.9104 2.58376 13.8069 3.08663C13.7034 3.5895 13.7565 4.11074 13.9595 4.58443C14.1625 5.05813 14.5062 5.463 14.9472 5.74785C15.3882 6.0327 15.9067 6.18968 16.4371 6.18968Z" fill="#F10EFF"/>
<path d="M16.4422 25.7831C15.9118 25.7821 15.393 25.9332 14.9515 26.2172C14.5099 26.5012 14.1654 26.9055 13.9615 27.3788C13.7576 27.8521 13.7034 28.3733 13.8059 28.8763C13.9084 29.3794 14.1629 29.8418 14.5372 30.205C14.9116 30.5682 15.3889 30.816 15.9089 30.917C16.429 31.018 16.9683 30.9677 17.4587 30.7723C17.9491 30.577 18.3686 30.2455 18.6641 29.8198C18.9596 29.394 19.1179 28.8931 19.1189 28.3804C19.1196 28.0399 19.0509 27.7027 18.9167 27.3879C18.7826 27.0732 18.5856 26.787 18.337 26.5458C18.0885 26.3047 17.7932 26.1132 17.4681 25.9823C17.143 25.8514 16.7944 25.7837 16.4422 25.7831Z" fill="#24DCFF"/>
<path d="M17.4161 7.54761H15.7305V10.7621C16.2882 10.6686 16.8584 10.6686 17.4161 10.7621V7.54761Z" fill="#C738FF"/>
<path d="M15.7251 24.5684H17.4108V21.3588C16.8531 21.4523 16.2828 21.4523 15.7251 21.3588V24.5684Z" fill="#47B9FF"/>
<path d="M28.3233 12.6879C27.6121 12.6873 26.9297 12.9598 26.4263 13.4455C25.9229 13.9312 25.6397 14.5903 25.639 15.2778C25.6383 15.9654 25.9202 16.625 26.4227 17.1116C26.9251 17.5983 27.607 17.872 28.3182 17.8727C29.0295 17.8727 29.7116 17.5995 30.2145 17.1134C30.7175 16.6272 31 15.9678 31 15.2803C31 14.5928 30.7175 13.9334 30.2145 13.4472C29.7116 12.9611 29.0346 12.6879 28.3233 12.6879ZM6.36353 15.7198C6.36353 15.2073 6.20637 14.7062 5.91192 14.28C5.61747 13.8538 5.19894 13.5216 4.70921 13.3252C4.21948 13.1289 3.68053 13.0772 3.16045 13.1769C2.64038 13.2765 2.16253 13.5229 1.78728 13.8849C1.41202 14.247 1.15621 14.7085 1.05215 15.211C0.948102 15.7135 1.00048 16.2346 1.20268 16.7084C1.40487 17.1822 1.7478 17.5874 2.18814 17.8728C2.62848 18.1583 3.14647 18.3112 3.67666 18.3121C4.02926 18.3128 4.37854 18.2462 4.70449 18.1162C5.03045 17.9862 5.32669 17.7954 5.57625 17.5546C5.82582 17.3138 6.02381 17.0278 6.1589 16.713C6.29399 16.3981 6.36353 16.0606 6.36353 15.7198ZM21.4938 16.5296H24.8141V14.9001H21.4938C21.5906 15.4392 21.5906 15.9904 21.4938 16.5296ZM7.83978 16.5345H11.1601C11.0638 15.9953 11.0638 15.4442 11.1601 14.905H7.83978V16.5345Z" fill="#7788FF"/>
<path d="M10.8691 9.30054L9.67383 10.4511L12.0236 12.7225C12.3509 12.2756 12.7552 11.8864 13.2189 11.5719L10.8691 9.30054Z" fill="#9E61FF"/>
<path d="M22.1271 22.4846L23.3224 21.3341L20.9726 19.0627C20.6453 19.5095 20.241 19.8987 19.7773 20.2132L22.1271 22.4846Z" fill="#649BFF"/>
<path d="M20.3232 12.8657L22.673 10.5942L21.4777 9.43878L19.1279 11.7102C19.592 12.0262 19.9964 12.417 20.3232 12.8657Z" fill="#9E61FF"/>
<path d="M10.6714 22.1982L13.0211 19.9268C12.557 19.6108 12.1527 19.22 11.8258 18.7713L9.47607 21.0427L10.6714 22.1982Z" fill="#649BFF"/>
<path d="M20.1643 15.9074C20.1643 15.1798 19.9411 14.4686 19.523 13.8636C19.1048 13.2587 18.5105 12.7872 17.8151 12.5087C17.1197 12.2303 16.3546 12.1574 15.6163 12.2994C14.8781 12.4413 14.2001 12.7917 13.6678 13.3062C13.1356 13.8206 12.7732 14.4761 12.6263 15.1897C12.4795 15.9033 12.5549 16.643 12.8429 17.3152C13.1309 17.9874 13.6187 18.5619 14.2445 18.9661C14.8703 19.3703 15.6061 19.5861 16.3588 19.5861C16.8585 19.5861 17.3534 19.4909 17.8151 19.3061C18.2768 19.1212 18.6963 18.8502 19.0497 18.5086C19.4031 18.167 19.6834 17.7615 19.8746 17.3152C20.0659 16.8689 20.1643 16.3905 20.1643 15.9074Z" fill="url(#paint0_linear_22_220)"/>
<defs>
<linearGradient id="paint0_linear_22_220" x1="16.3588" y1="19.6256" x2="16.3588" y2="12.2682" gradientUnits="userSpaceOnUse">
<stop stop-color="#649BFF"/>
<stop offset="1" stop-color="#9E61FF"/>
</linearGradient>
</defs>
</svg>
