<svg width="32" height="32" viewBox="0 0 32 32" fill="none" xmlns="http://www.w3.org/2000/svg">
<mask id="mask0_22_237" style="mask-type:luminance" maskUnits="userSpaceOnUse" x="1" y="1" width="30" height="30">
<path d="M1 1H31V31H1V1Z" fill="white"/>
</mask>
<g mask="url(#mask0_22_237)">
<mask id="mask1_22_237" style="mask-type:luminance" maskUnits="userSpaceOnUse" x="2" y="1" width="27" height="30">
<path d="M2.57617 1H28.8337V31H2.57617V1Z" fill="white"/>
</mask>
<g mask="url(#mask1_22_237)">
<path d="M23.4206 20.522V17.4688L20.9456 18.8474V21.8451L23.4206 20.522ZM13.0582 26.5081V29.6169L15.5887 31L18.0636 29.6169V26.5081L15.5887 27.8312L13.0582 26.5081ZM26.1268 21.7896L20.9456 24.8983V28.007L28.6064 23.3994V14.5266L26.1268 15.8497V21.7896ZM23.4807 14.3601V11.4734L20.8901 10.0347L15.7089 13.1435L10.5833 10.0903L7.99268 11.5891V14.4665L13.0582 17.4596V23.3948L15.5933 24.778L18.1284 23.3902V17.6446L23.4807 14.3601ZM15.5332 9.98385L18.1237 8.4295L15.6442 6.93065L13.0536 8.48501L15.5332 9.98385ZM26.2425 6.815L23.5918 8.42487L26.1823 9.92372V12.7456L28.8331 11.1311V8.30922L26.2425 6.815Z" fill="#E8BB41"/>
<path d="M15.358 3.99323L20.715 6.87064L23.3657 5.20526L15.4736 0.995544L13.5769 2.15206L12.8275 2.61467L7.87764 5.60773L10.2971 7.04643L15.358 3.99323ZM7.8175 20.5221L10.4081 22.0765V19.1945L7.8175 17.6401V20.5221ZM5.33793 9.97935L7.87301 8.48514L5.2269 6.87064L2.63631 8.36948V11.1914L5.34256 12.8059L5.33793 9.97935ZM5.28242 16.0858L2.57617 14.4759V23.4551L4.533 24.607L5.28242 25.0696L10.2924 28.0071V25.1852L5.28242 22.132V16.0858Z" fill="#E8BB41"/>
</g>
</g>
</svg>
