<svg width="37" height="32" viewBox="0 0 37 32" fill="none" xmlns="http://www.w3.org/2000/svg">
<path d="M18.3363 12.6377C18.3363 12.6377 8.93488 6.80244 2.12695 14.5828C2.12695 14.5828 8.02719 22.2984 18.3363 12.6377Z" fill="white"/>
<path d="M8.48537 17.7807C8.23799 17.7807 7.99225 17.7704 7.74743 17.7503C4.00123 17.4404 1.98919 14.8621 1.90533 14.7524L1.7666 14.571L1.91696 14.399C3.50505 12.5841 5.36744 11.3493 7.45221 10.729C9.11874 10.2333 10.927 10.1282 12.8266 10.4167C16.0475 10.9059 18.3856 12.3398 18.4835 12.4006L18.7928 12.5925L18.5272 12.8414C15.0266 16.1219 11.6523 17.7807 8.48537 17.7807ZM2.4973 14.5868C3.01245 15.1579 4.85321 16.9545 7.80384 17.1947C10.9339 17.4499 14.3182 15.9351 17.8668 12.692C17.1231 12.2892 15.1641 11.3332 12.7244 10.9659C10.9094 10.6926 9.18566 10.7941 7.60094 11.2672C5.69234 11.8373 3.97634 12.9537 2.4973 14.5868Z" fill="black"/>
<path d="M35.5182 8.6827C35.5182 8.6827 31.2389 4.01443 18.9199 12.5081L25.663 14.1939H29.5532L32.2764 13.2861L34.1566 11.9246L35.5182 8.6827Z" fill="white" stroke="black" stroke-miterlimit="10"/>
<path d="M16.5856 13.4864C16.5856 15.0946 14.626 16.3983 12.2086 16.3983C9.79125 16.3983 7.83154 15.0946 7.83154 13.4865C7.83154 11.8785 9.79115 10.5748 12.2086 10.5748C14.6259 10.5748 16.5856 11.8785 16.5856 13.4865V13.4864Z" fill="black"/>
<path d="M8.43306 18.1682C7.31279 18.1682 6.22241 17.9667 5.19528 17.5603C3.50906 16.8933 1.86272 15.6453 0.302178 13.851C0.223631 13.7608 0.105095 13.6245 0.0450112 13.4389C-0.131772 12.8934 0.209349 12.1739 1.11856 11.1746C1.87517 10.3428 2.7446 9.63282 2.8413 9.55458C4.09459 8.5402 5.55435 7.91222 7.06267 7.73871C9.46479 7.46226 12.1485 8.16347 15.039 9.82266C15.1721 9.89907 16.1038 10.5296 16.8852 11.072C18.6883 12.3238 18.6952 12.3728 18.7244 12.5787L18.7511 12.7679L18.6142 12.9125C16.9499 14.5962 15.3506 15.845 13.7253 16.7305C11.9737 17.6849 10.1677 18.1682 8.43306 18.1682ZM8.1001 8.46165C7.77857 8.46165 7.46254 8.4795 7.15203 8.5152C5.79142 8.67179 4.4708 9.24131 3.33309 10.1621C3.24118 10.2366 2.41439 10.9117 1.69675 11.7006C0.885775 12.592 0.744288 13.0614 0.78856 13.1981C0.799577 13.2318 0.857417 13.2983 0.891998 13.3381C2.36951 15.0369 3.91414 16.213 5.48274 16.8336C7.88109 17.7822 10.6756 17.5019 13.3515 16.0441C14.8135 15.2475 16.2599 14.1377 17.7637 12.6572C16.9843 12.0733 14.8705 10.6294 14.6496 10.5004C12.2887 9.14521 10.0905 8.46165 8.1001 8.46165Z" fill="black"/>
<path d="M24.8458 13.5709C26.758 13.2745 28.1801 12.2084 28.0222 11.1897C27.8643 10.1711 26.1861 9.58558 24.2739 9.88202C22.3617 10.1785 20.9395 11.2445 21.0975 12.2632C21.2554 13.2819 22.9335 13.8673 24.8458 13.5709Z" fill="black"/>
<path d="M27.4142 14.6302C26.5843 14.6302 25.7079 14.5716 24.7788 14.4548C22.4725 14.1649 20.1904 13.5594 18.2322 13.0144L18.2316 13.0142L18.4413 12.2612C18.2973 12.2211 18.1963 12.2818 18.1953 12.2824C18.4577 12.1209 19.78 10.6361 20.4156 9.92263C20.8856 9.39483 21.1155 9.13736 21.2075 9.0532C23.9007 6.58538 26.2838 5.10624 28.7073 4.3983C29.9129 4.04606 31.0711 3.9266 32.1494 4.0433C32.5565 4.08727 33.3461 4.19938 34.0598 4.45522C34.9616 4.77879 35.4897 5.2411 35.6293 5.82939C36.0596 7.64343 35.9429 9.3629 35.292 10.8018C34.5845 12.3658 33.2809 13.4868 31.5223 14.0438C30.2859 14.4353 28.9276 14.6302 27.4143 14.6302H27.4142ZM19.1561 12.4581C23.2811 13.5802 27.5666 14.4766 31.2862 13.2986C32.8275 12.8106 33.9663 11.8358 34.5798 10.4796C35.1588 9.19969 35.2587 7.65404 34.8687 6.00974C34.7692 5.59018 33.9753 5.02688 32.0655 4.82031C31.0892 4.71463 30.0332 4.82521 28.9265 5.14848C26.6221 5.82174 24.3371 7.24559 21.7356 9.62946C21.6688 9.69066 21.3285 10.0728 20.9993 10.4425C20.5528 10.9437 19.9971 11.5676 19.5303 12.0659C19.407 12.198 19.2823 12.3287 19.1561 12.4581Z" fill="black"/>
<path d="M27.8487 17.8392C27.8002 17.8589 27.7511 17.8769 27.7013 17.8933C27.2378 18.0453 26.7394 18.0396 26.2518 18.0324L20.4111 17.9462C19.5552 17.9336 18.6896 17.9218 17.8547 18.1111C16.2923 18.465 14.9807 19.4825 13.6242 20.3349C11.5872 21.6148 9.92992 21.6508 7.61767 21.4818C7.18688 21.4501 6.74885 21.4172 6.3454 21.2626C5.98123 21.123 5.66061 20.89 5.30796 20.7231C4.42374 20.3047 3.33938 20.3378 2.4823 20.8097C1.62521 21.2816 1.01744 22.18 0.898086 23.1511C0.688048 24.8603 1.97123 26.4776 3.53912 27.1902C5.31 27.9953 7.28083 27.87 9.17311 27.799C9.58319 27.7836 9.99939 27.7672 10.3893 27.6397C10.6672 27.5489 10.9238 27.404 11.1784 27.2601C12.896 26.2894 14.6638 25.3945 16.3677 24.4061C17.8945 23.5202 19.3443 22.385 21.1093 22.0183C22.3035 21.7704 23.5394 21.903 24.7585 21.8637C25.8186 21.8295 26.9155 21.6696 27.9143 22.0262C28.2885 22.1598 28.6511 22.3661 29.0484 22.3683C29.3244 22.37 29.5905 22.2717 29.8459 22.1673C30.8197 21.7686 31.7441 21.2586 32.6007 20.6474C33.3739 20.0957 34.1097 19.4362 34.5073 18.5735C34.9051 17.7107 34.8961 16.6077 34.279 15.8855C33.7084 15.2178 32.7277 15.0049 31.8681 15.1855C31.0086 15.3662 30.2557 15.8838 29.6071 16.4762C29.0562 16.9791 28.5336 17.5617 27.8487 17.8392Z" fill="#85492D"/>
<path d="M7.28142 28.2427C5.95673 28.2427 4.6307 28.1157 3.37731 27.546C2.51788 27.1553 1.75556 26.5237 1.23072 25.7672C0.648347 24.9276 0.399137 24.0065 0.510123 23.1034C0.644572 22.0091 1.32804 20.999 2.29386 20.4674C3.25969 19.9357 4.47871 19.8983 5.47514 20.3699C5.6358 20.4459 5.78617 20.5321 5.93153 20.6153C6.12147 20.7241 6.30081 20.8269 6.48524 20.8976C6.8384 21.0329 7.24899 21.0629 7.64611 21.0919C9.76434 21.2468 11.418 21.2594 13.4163 20.0039C13.6712 19.8438 13.9305 19.6736 14.1814 19.5092C15.289 18.7831 16.4342 18.0321 17.7683 17.7298C18.6529 17.5294 19.5496 17.5425 20.4169 17.5554L26.2575 17.6416C26.7077 17.6482 27.1732 17.6551 27.5795 17.5218C27.6203 17.5085 27.6614 17.4933 27.7019 17.4769C28.1895 17.2795 28.5973 16.8922 29.0291 16.4822C29.1314 16.385 29.2372 16.2846 29.3436 16.1874C30.177 15.4264 30.9764 14.9735 31.7877 14.8032C32.8591 14.5779 33.9536 14.9031 34.5761 15.6315C35.2435 16.4126 35.3585 17.6606 34.8623 18.7371C34.384 19.7745 33.472 20.5058 32.8276 20.9656C31.9465 21.5942 30.9956 22.1188 29.9939 22.529C29.7213 22.6405 29.4018 22.7592 29.0549 22.7592H29.0461C28.6768 22.757 28.3482 22.6218 28.0581 22.5026C27.9626 22.4633 27.8722 22.426 27.7829 22.3942C27.053 22.1337 26.2518 22.1778 25.4033 22.2244C25.1963 22.2358 24.9822 22.2475 24.771 22.2543C24.3832 22.2668 23.9916 22.2624 23.6131 22.2578C22.7681 22.2482 21.9699 22.2388 21.1888 22.4011C19.9081 22.667 18.7583 23.3869 17.6464 24.083C17.2938 24.3037 16.9291 24.532 16.5637 24.744C15.614 25.2951 14.6307 25.8245 13.68 26.3364C12.9193 26.7461 12.1327 27.1696 11.3708 27.6003C11.1032 27.7515 10.8267 27.9078 10.5106 28.0112C10.0658 28.1566 9.59929 28.1741 9.18778 28.1895L8.88991 28.201C8.35742 28.2217 7.81942 28.2427 7.28142 28.2427ZM3.98284 20.8208C3.52696 20.8208 3.07087 20.9318 2.67079 21.152C1.92102 21.5649 1.39037 22.3491 1.28601 23.1987C1.09209 24.7769 2.35405 26.2222 3.70078 26.8344C5.29448 27.5588 7.10689 27.4881 8.85941 27.4199L9.1585 27.4084C9.53635 27.3942 9.92694 27.3796 10.2678 27.2682C10.5098 27.1891 10.7411 27.0583 10.9861 26.9199C11.7551 26.4853 12.5452 26.0597 13.3094 25.6482C14.2548 25.1392 15.2324 24.6128 16.1715 24.068C16.5254 23.8625 16.8845 23.6378 17.2317 23.4204C18.4019 22.6877 19.612 21.9301 21.0298 21.6357C21.8941 21.4561 22.7726 21.4665 23.6222 21.4762C23.9923 21.4805 24.3752 21.485 24.7459 21.4732C24.9482 21.4665 25.1578 21.455 25.3605 21.4439C26.2488 21.395 27.1674 21.3445 28.0457 21.6581C28.1499 21.6962 28.2531 21.7367 28.3554 21.7797C28.6012 21.8807 28.8335 21.9763 29.0507 21.9776H29.0549C29.2601 21.9776 29.485 21.8925 29.6978 21.8055C30.6425 21.4189 31.5428 20.9221 32.3736 20.3292C32.9454 19.9212 33.752 19.2783 34.1524 18.4098C34.5807 17.4805 34.3754 16.6 33.9818 16.1394C33.5423 15.625 32.7442 15.4007 31.9485 15.568C31.2777 15.709 30.598 16.1004 29.8706 16.7646C29.7699 16.8566 29.6669 16.9544 29.5673 17.049C29.1017 17.4911 28.6202 17.9482 27.9955 18.2013C27.9387 18.2244 27.8807 18.2456 27.8231 18.2646C27.2926 18.4385 26.7365 18.4305 26.246 18.4231L20.4054 18.3369C19.584 18.3247 18.7347 18.3123 17.941 18.4921C16.7448 18.7633 15.6595 19.4748 14.61 20.1629C14.356 20.3294 14.0934 20.5015 13.8322 20.6658C11.6369 22.0452 9.78372 22.0323 7.58919 21.8715C7.15667 21.8399 6.66641 21.8041 6.20553 21.6275C5.96479 21.5352 5.75036 21.4124 5.54298 21.2935C5.40455 21.2143 5.27377 21.1393 5.14085 21.0765C4.77994 20.9057 4.38149 20.8208 3.98284 20.8208Z" fill="black"/>
<path d="M3.33887 22.3492C3.42691 23.3744 4.11619 24.2344 5.03938 24.6604C6.04264 25.1234 7.1828 25.1388 8.25962 24.9909C10.2753 24.7139 12.1115 23.7614 13.9024 22.8497C15.7094 21.93 17.5867 20.9634 19.6389 20.7772C20.9153 20.6614 22.2043 20.7679 23.4842 20.7094C24.7729 20.65 26.0563 20.5049 27.3258 20.2754C29.5938 19.8663 32.7909 19.0804 32.9837 16.2632C33.0133 15.8328 32.3431 15.8347 32.3138 16.2632C32.2463 17.2488 31.5426 18.0579 30.7236 18.5445C29.7565 19.1189 28.6105 19.3479 27.5192 19.5598C26.3293 19.7906 25.1254 19.9432 23.9154 20.0165C22.7012 20.0902 21.4888 20.0273 20.2747 20.0689C18.2924 20.1368 16.4772 20.8319 14.7145 21.6937C13.0164 22.5239 11.3619 23.494 9.5381 24.0296C8.50301 24.3336 7.37081 24.5194 6.29491 24.3456C5.24941 24.1765 4.10884 23.5133 4.00887 22.3492C3.97225 21.9228 3.30195 21.919 3.33887 22.3492Z" fill="black"/>
<path d="M15.0524 13.1498C15.0254 13.1485 14.9983 13.1495 14.9714 13.1527C14.87 13.1467 14.7688 13.1684 14.6787 13.2153C14.4573 13.3314 14.3382 13.5832 14.4023 13.8267C14.4605 14.0471 14.666 14.1953 14.8814 14.1992C14.9704 14.217 15.0626 14.2116 15.1489 14.1833C15.2352 14.155 15.3127 14.1048 15.3739 14.0377C15.5049 13.8936 15.5325 13.6977 15.4724 13.5256C15.439 13.3243 15.2725 13.1608 15.0524 13.1498ZM14.6398 12.7935C15.0708 12.8141 15.0698 12.144 14.6398 12.1235L13.4732 12.0678C13.2836 12.0587 13.1499 12.229 13.1382 12.4028L13.0395 13.8722C13.0105 14.3027 13.6807 14.3009 13.7095 13.8722L13.7847 12.7527L14.6398 12.7935ZM26.2144 11.4905L26.2527 11.2311C26.2884 10.9876 26.1304 10.7903 25.8869 10.8125C25.6976 10.7031 25.4212 10.7617 25.2445 10.8657C24.7765 11.1414 24.7489 11.7733 25.141 12.1259C25.2279 12.2042 25.3344 12.268 25.447 12.3009C25.4609 12.305 25.4983 12.3167 25.5339 12.325C25.4639 12.5266 25.5219 12.8044 25.6428 12.9717C25.7371 13.1023 25.8813 13.1791 26.032 13.1816C26.1684 13.2148 26.3303 13.177 26.4247 13.0473C26.7256 12.6328 26.737 12.1104 26.5194 11.658C26.4694 11.554 26.3371 11.4887 26.2144 11.4905Z" fill="white"/>
</svg>
