<svg width="32" height="32" viewBox="0 0 32 32" fill="none" xmlns="http://www.w3.org/2000/svg">
<path d="M24.045 20.2411V10.7853L26.1561 9.17187L16.4978 2L6.87913 9.17187L8.99023 10.7853V20.2411L3 24.61C6.60585 28.079 11.4537 30.0147 16.4978 29.9997C19.0014 30.0137 21.483 29.5409 23.8002 28.6085C26.1174 27.6762 28.2243 26.3026 30 24.5667L24.045 20.2411ZM20.9839 18.035L16.4978 14.7303L12.0557 18.035V13.2033C12.0352 12.6253 12.1321 12.049 12.3409 11.5082C12.5497 10.9675 12.8661 10.4731 13.2716 10.0542C13.6771 9.6352 14.1636 9.30004 14.7024 9.06832C15.2413 8.8366 15.8218 8.71298 16.4098 8.7047H16.6253C17.7941 8.77751 18.892 9.2811 19.6999 10.115C20.5078 10.9488 20.9663 12.0517 20.9839 13.2033V18.035Z" fill="#FF4339"/>
</svg>
