<svg width="32" height="36" viewBox="0 0 32 36" fill="none" xmlns="http://www.w3.org/2000/svg">
<path d="M4.82909 10.9206C4.82909 10.9206 3.5797 12.4939 3.99613 19.62C3.99613 19.62 1.26601 26.6074 2.19147 30.1704C3.11692 33.7335 6.72625 33.5484 6.72625 33.5484C6.72625 33.5484 12.5105 38.6385 16.9528 34.1499C21.3951 29.6614 13.2509 12.2626 13.2509 12.2626L12.2328 6.24695C12.2328 6.24695 11.1223 7.12615 11.2611 12.9103C11.4 18.6945 8.99368 14.6225 8.99368 14.6225L4.82909 10.9206Z" fill="#3C2D0C"/>
<path d="M5.29158 17.2137L3.7646 21.5172L3.20933 24.525C3.20933 24.525 1.31208 31.2347 9.13234 31.1421C9.13234 31.1421 15.2404 36.6024 19.22 32.9468L20.2843 31.79L22.1352 28.921L25.1893 19.8051C25.1893 19.8051 24.2175 13.5582 18.0632 10.9668C18.0632 10.9668 17.5541 10.6892 16.6287 11.0593C16.6287 11.0593 14.0836 5.32148 12.464 6.01559C12.464 6.01559 11.0758 6.75596 12.279 12.4013L10.104 13.3731C10.104 13.3731 7.72524 8.86284 5.52302 9.76376C3.48692 10.5966 5.29158 17.2137 5.29158 17.2137Z" fill="#E78C19"/>
<path d="M13.2045 8.83821L13.3895 11.337C13.3895 11.337 13.5284 12.7715 15.0554 12.2625C15.487 12.1186 15.8661 11.818 15.8262 11.3247C15.7963 10.9553 15.5383 10.6208 15.3705 10.302C15.0562 9.70533 14.8046 9.07219 14.4392 8.5038C14.2522 8.21196 13.8672 7.55899 13.4359 7.63516C13.4359 7.63516 13.1178 7.54266 13.2045 8.83821ZM6.51511 11.6436C6.54427 11.6245 7.1659 10.8368 8.45852 12.7455C9.75132 14.6543 9.62117 14.4026 9.62117 14.4026C9.62117 14.4026 10.3153 15.1662 8.89232 16.1466C8.58218 16.3764 8.24384 16.5654 7.8856 16.7091C7.66305 16.7985 7.42529 16.844 7.18544 16.8431C6.91531 16.8303 6.79374 16.6924 6.727 16.4382C6.50831 15.6051 6.26196 14.7767 6.13709 13.9233C6.04308 13.2798 5.85507 12.0757 6.51511 11.6436Z" fill="#EFB99D"/>
<path d="M21.5434 15.4894C21.5434 15.943 20.8802 16.3108 20.0623 16.3108C19.2443 16.3108 18.5811 15.943 18.5811 15.4894C18.5811 15.0358 19.2582 14.3679 20.0762 14.3679C20.8943 14.3679 21.5434 15.0358 21.5434 15.4894Z" fill="#FBFBFB"/>
<path d="M13.0013 19.0319C13.4415 18.2542 13.3954 17.3957 12.8985 17.1145C12.4015 16.8333 11.6419 17.2357 11.2017 18.0135C10.7616 18.7912 10.8076 19.6497 11.3046 19.9309C11.8015 20.2121 12.5612 19.8097 13.0013 19.0319Z" fill="#FBFBFB"/>
<path d="M15.1015 22.7898L19.1505 20.6843C19.1505 20.6843 24.1943 18.0467 25.4205 20.0827C26.6468 22.1187 25.4205 25.2192 25.4205 25.2192C25.4205 25.2192 24.8884 28.8516 21.1865 29.1755L19.1968 29.4532L16.6517 29.5225C16.6517 29.5225 12.5565 29.754 9.54866 27.5329L8.60008 26.376C8.60008 26.376 6.6797 23.7384 8.02159 21.8411C9.36348 19.9439 13.9447 22.8823 13.9447 22.8823C13.9447 22.8823 14.5693 23.2062 15.1015 22.7898Z" fill="#FBFBFB"/>
<path d="M24.2874 12.2856C24.824 12.2856 25.2591 11.8505 25.2591 11.3139C25.2591 10.7772 24.824 10.3422 24.2874 10.3422C23.7507 10.3422 23.3157 10.7772 23.3157 11.3139C23.3157 11.8505 23.7507 12.2856 24.2874 12.2856Z" fill="#E72D36"/>
<path d="M22.1355 9.90252C22.6722 9.90252 23.1072 9.46747 23.1072 8.93081C23.1072 8.39415 22.6722 7.95911 22.1355 7.95911C21.5989 7.95911 21.1638 8.39415 21.1638 8.93081C21.1638 9.46747 21.5989 9.90252 22.1355 9.90252Z" fill="#E72D36"/>
<path d="M18.6875 9.13903C19.2242 9.13903 19.6592 8.70398 19.6592 8.16732C19.6592 7.63066 19.2242 7.19562 18.6875 7.19562C18.1509 7.19562 17.7158 7.63066 17.7158 8.16732C17.7158 8.70398 18.1509 9.13903 18.6875 9.13903Z" fill="#E72D36"/>
<path d="M19.4517 1.27251C19.6599 4.14147 19.2457 6.73275 18.5494 6.73275C17.853 6.73275 16.9297 3.93326 16.9297 1.27251C16.9297 0.173576 17.5058 0 18.2023 0C18.8988 0 19.3721 0.176502 19.4517 1.27251ZM25.8891 3.06311C24.831 5.73773 23.3328 7.89209 22.7055 7.58978C22.0781 7.28746 22.4619 4.36498 23.6172 1.96823C24.0943 0.978407 24.6887 1.07213 25.3161 1.37455C25.9435 1.67696 26.2934 2.04129 25.8891 3.06311ZM30.4902 8.26511C28.1613 9.955 25.7402 10.9695 25.3732 10.3775C25.0062 9.78548 26.8994 7.52465 29.1611 6.1216C30.0952 5.54207 30.5465 5.94019 30.9136 6.53218C31.2806 7.12417 31.38 7.61951 30.4902 8.26511Z" fill="#E72D36"/>
<path d="M14.91 19.9667C14.8227 19.9735 14.7378 19.9846 14.6559 19.9988C14.6661 20.0281 14.6715 20.0589 14.6719 20.09C14.6719 20.3861 14.2115 20.6274 13.6318 20.6437C13.6277 20.6685 13.6265 20.6938 13.6282 20.719C13.6559 21.0773 14.2749 21.3214 15.0107 21.2643C15.7464 21.2071 16.3203 20.8704 16.2924 20.5121C16.2646 20.1538 15.6457 19.9096 14.91 19.9667ZM20.029 18.7001C19.9438 18.7067 19.8591 18.7174 19.7749 18.732C19.7851 18.7614 19.7905 18.7922 19.791 18.8232C19.791 19.1194 19.3305 19.3607 18.7508 19.3769C18.7467 19.4018 18.7455 19.4271 18.7472 19.4522C18.775 19.8105 19.394 20.0547 20.1297 19.9976C20.8654 19.9405 21.4393 19.6037 21.4115 19.2453C21.3836 18.887 20.7647 18.6429 20.029 18.7001ZM21.7072 20.1984C21.7072 20.1984 19.6769 20.7883 19.7983 21.9337C19.9197 23.0791 22.3666 23.6689 22.3666 23.6689C22.3666 23.6689 23.0259 23.9292 23.4076 23.3046C23.7893 22.6799 24.3447 21.8296 24.1886 20.6149C24.1886 20.6149 24.1365 19.7125 21.7072 20.1984Z" fill="black"/>
</svg>
