<svg width="32" height="32" viewBox="0 0 32 32" fill="none" xmlns="http://www.w3.org/2000/svg">
<path d="M25.3157 15.908C24.5961 15.4243 23.7909 15.0784 22.9419 14.8882C23.5686 14.5336 24.1307 14.078 24.6051 13.5402C25.036 12.8537 25.2967 12.0766 25.3661 11.2719C25.4521 10.502 25.3455 9.72295 25.0555 9.00313C24.7656 8.28332 24.3011 7.6447 23.7029 7.14326C22.1907 6.1316 20.4042 5.59414 18.5774 5.60123V1H15.7047V5.54154H13.5224V1H10.6497V5.54154H5.00504V8.48632H6.66315C7.2305 8.43464 7.7977 8.58651 8.26079 8.91411C8.6035 9.28718 8.66398 9.48615 8.66398 10.2224V21.9468C8.67455 22.1002 8.65366 22.2542 8.60257 22.3995C8.55148 22.5448 8.47123 22.6784 8.36663 22.7924C8.12975 23.0162 7.88784 23.071 7.30826 23.071H5.5947L5 26.4734H10.6497V31H13.5224V26.4734H15.7097V31H18.5824V26.3988C19.3233 26.359 20.0188 26.2993 20.422 26.2495C21.9922 26.1134 23.5037 25.5956 24.8218 24.7423C25.5664 24.1587 26.1531 23.4022 26.5295 22.5403C26.9059 21.6784 27.0603 20.7379 26.9788 19.8029C27.0436 19.0691 26.9259 18.3308 26.6361 17.6521C26.3463 16.9733 25.893 16.3746 25.3157 15.908ZM13.5224 8.74498C13.5224 8.74498 14.4346 8.6654 15.3368 8.68032C16.3097 8.66097 17.2795 8.79531 18.2095 9.07826C18.7318 9.20155 19.1994 9.48888 19.5421 9.89704C19.8847 10.3052 20.0838 10.8121 20.1095 11.3416C20.1448 11.7818 20.0461 12.2225 19.8261 12.6071C19.6062 12.9917 19.2749 13.3027 18.8747 13.5004C17.9522 13.9512 16.9404 14.1957 15.9113 14.2167C14.868 14.2515 13.5224 14.2167 13.5224 14.2167V8.74498ZM19.9482 22.29C18.9232 22.74 17.823 22.9997 16.7026 23.056C15.4275 23.1506 13.5224 23.1108 13.5224 23.1108V17.0322C13.5224 17.0322 15.3468 16.9426 16.7681 17.0322C17.8527 17.0851 18.9192 17.3276 19.918 17.7485C20.3568 17.9476 20.729 18.2661 20.9909 18.6666C21.2528 19.0672 21.3936 19.5331 21.3968 20.0097C21.3999 20.4864 21.2654 20.9541 21.0088 21.358C20.7522 21.7619 20.3843 22.0852 19.9482 22.29Z" fill="#DCAA00"/>
</svg>
