<svg width="32" height="32" viewBox="0 0 32 32" fill="none" xmlns="http://www.w3.org/2000/svg">
<path d="M25.0011 18.4022C24.4371 17.7438 23.7537 17.1952 22.9864 16.7849C23.6851 16.6107 24.3486 16.322 24.9495 15.9307C25.5483 15.3844 26.0073 14.7053 26.2893 13.9485C26.5781 13.2295 26.6837 12.4504 26.5967 11.6792C26.5098 10.9081 26.233 10.1685 25.7907 9.52541C24.604 8.14623 23.0263 7.15066 21.2641 6.66901L22.4944 2.23532L19.7263 1.46719L18.5119 5.84336L16.4091 5.25985L17.6235 0.88368L14.8553 0.115548L13.641 4.49172L8.20188 2.98241L7.41448 5.81997L9.01222 6.26333C9.57272 6.36523 10.0787 6.66324 10.4373 7.10273C10.6678 7.55386 10.6728 7.76176 10.476 8.47115L7.34102 19.7687C7.31018 19.9194 7.24888 20.0621 7.1608 20.1885C7.07272 20.3148 6.95966 20.4221 6.82839 20.504C6.54028 20.6564 6.29255 20.6444 5.73407 20.4894L4.08291 20.0312L2.60009 23.1508L8.04406 24.6614L6.8337 29.0232L9.60182 29.7913L10.8122 25.4296L12.9198 26.0144L11.7095 30.3762L14.4776 31.1443L15.7079 26.7106C16.4324 26.8704 17.1186 26.9988 17.5204 27.0587C19.0698 27.3474 20.6648 27.2526 22.163 26.7828C23.0366 26.4196 23.8042 25.8475 24.3974 25.1176C24.9905 24.3877 25.3907 23.5228 25.5623 22.6C25.8209 21.9102 25.9049 21.1674 25.8071 20.4359C25.7093 19.7044 25.4327 19.0063 25.0011 18.4022ZM15.5526 8.34666C15.5526 8.34666 16.4528 8.51389 17.3181 8.76949C18.2608 9.01099 19.1594 9.39976 19.9798 9.92107C20.4502 10.1795 20.824 10.5814 21.045 11.0664C21.266 11.5513 21.3224 12.093 21.2055 12.61C21.1218 13.0437 20.9089 13.4419 20.5941 13.7537C20.2793 14.0655 19.8769 14.2766 19.4385 14.3601C18.429 14.5478 17.3887 14.5129 16.3914 14.2579C15.3768 14.0125 14.0895 13.6192 14.0895 13.6192L15.5526 8.34666ZM18.1226 23.1167C17.0146 23.2763 15.885 23.2323 14.7903 22.987C13.5364 22.7371 11.7113 22.1894 11.7113 22.1894L13.3367 16.3321C13.3367 16.3321 15.1186 16.7337 16.4641 17.2C17.4951 17.541 18.458 18.0599 19.3078 18.7324C19.6774 19.0417 19.9509 19.4481 20.0962 19.904C20.2414 20.36 20.2525 20.8466 20.1281 21.3068C20.0037 21.7669 19.749 22.1816 19.3938 22.5022C19.0386 22.8227 18.5976 23.0359 18.1226 23.1167Z" fill="#F59123"/>
</svg>
