<svg width="32" height="32" viewBox="0 0 32 32" fill="none" xmlns="http://www.w3.org/2000/svg">
<path d="M25.3154 15.908C24.5959 15.4243 23.7906 15.0784 22.9417 14.8882C23.5683 14.5336 24.1305 14.078 24.6048 13.5402C25.0357 12.8537 25.2965 12.0766 25.3658 11.2719C25.4519 10.502 25.3453 9.72295 25.0553 9.00313C24.7653 8.28332 24.3009 7.6447 23.7027 7.14326C22.1905 6.1316 20.404 5.59414 18.5771 5.60123V1H15.7044V5.54154H13.5222V1L10.6494 1V5.54154H5.0048V8.48632H6.66291C7.23025 8.43464 7.79746 8.58651 8.26055 8.91411C8.60326 9.28718 8.66373 9.48615 8.66373 10.2224L8.66373 21.9468C8.6743 22.1002 8.65342 22.2542 8.60233 22.3995C8.55124 22.5448 8.47099 22.6784 8.36638 22.7924C8.12951 23.0162 7.8876 23.071 7.30801 23.071H5.59446L4.99976 26.4734H10.6494V31H13.5222V26.4734H15.7095V31H18.5822V26.3988C19.323 26.359 20.0185 26.2993 20.4217 26.2495C21.9919 26.1134 23.5035 25.5956 24.8215 24.7423C25.5662 24.1587 26.1529 23.4022 26.5293 22.5403C26.9057 21.6784 27.06 20.7379 26.9786 19.8029C27.0433 19.0691 26.9257 18.3308 26.6359 17.6521C26.346 16.9733 25.8928 16.3746 25.3154 15.908ZM13.5222 8.74498C13.5222 8.74498 14.4344 8.6654 15.3365 8.68032C16.3095 8.66097 17.2793 8.79531 18.2092 9.07826C18.7315 9.20155 19.1992 9.48888 19.5418 9.89704C19.8845 10.3052 20.0836 10.8121 20.1093 11.3416C20.1445 11.7818 20.0459 12.2225 19.8259 12.6071C19.6059 12.9917 19.2746 13.3027 18.8745 13.5004C17.952 13.9512 16.9402 14.1957 15.9111 14.2167C14.8678 14.2515 13.5222 14.2167 13.5222 14.2167V8.74498ZM19.948 22.29C18.923 22.74 17.8227 22.9997 16.7023 23.056C15.4272 23.1506 13.5222 23.1108 13.5222 23.1108V17.0322C13.5222 17.0322 15.3466 16.9426 16.7678 17.0322C17.8525 17.0851 18.919 17.3276 19.9177 17.7485C20.3565 17.9476 20.7287 18.2661 20.9906 18.6666C21.2526 19.0672 21.3934 19.5331 21.3965 20.0097C21.3997 20.4864 21.2651 20.9541 21.0086 21.358C20.752 21.7619 20.3841 22.0852 19.948 22.29Z" fill="#142D64"/>
</svg>
