<svg width="32" height="32" viewBox="0 0 32 32" fill="none" xmlns="http://www.w3.org/2000/svg">
<path d="M8.81138 5.00595C7.00884 5.01577 5.28285 5.73582 4.00775 7.00992C2.73264 8.28402 2.01124 10.0094 2 11.812C2.01555 13.6038 2.74158 15.3163 4.01866 16.5733C5.29574 17.8303 7.01948 18.5292 8.81138 18.5163C10.6146 18.5337 12.3521 17.8396 13.6471 16.5846C14.9422 15.3297 15.6904 13.6149 15.7298 11.812C15.7114 9.9931 14.973 8.25562 13.6763 6.97999C12.3796 5.70436 10.6303 4.99453 8.81138 5.00595ZM8.70436 15.8143C7.63075 15.8215 6.59749 15.4055 5.82836 14.6564C5.05923 13.9073 4.61615 12.8854 4.59507 11.812C4.59705 11.2781 4.70552 10.75 4.91414 10.2587C5.12276 9.76725 5.42733 9.32242 5.81002 8.9502C6.1927 8.57798 6.6458 8.28586 7.14279 8.09094C7.63978 7.89602 8.17067 7.80222 8.70436 7.81504C9.24016 7.79396 9.77464 7.88208 10.2753 8.07403C10.776 8.26599 11.2324 8.55777 11.6168 8.93164C12.0011 9.3055 12.3055 9.75364 12.5112 10.2488C12.717 10.744 12.8199 11.2758 12.8137 11.812C12.8124 12.3463 12.7044 12.8749 12.4961 13.367C12.2878 13.859 11.9834 14.3044 11.6006 14.6772C11.2179 15.05 10.7645 15.3426 10.2672 15.5379C9.76983 15.7331 9.23851 15.8271 8.70436 15.8143ZM23.1886 13.1122C21.3963 13.1122 19.6774 13.8242 18.41 15.0915C17.1427 16.3589 16.4307 18.0778 16.4307 19.8701C16.4307 21.6623 17.1427 23.3812 18.41 24.6486C19.6774 25.9159 21.3963 26.6279 23.1886 26.6279C24.0785 26.6443 24.9628 26.4829 25.7896 26.1531C26.6164 25.8233 27.369 25.3318 28.0034 24.7074C28.6378 24.083 29.1412 23.3382 29.484 22.5168C29.8268 21.6953 30.0022 20.8137 30 19.9236C30.0035 19.0285 29.8299 18.1417 29.4892 17.314C29.1485 16.4864 28.6473 15.7343 28.0147 15.1012C27.3821 14.4681 26.6304 13.9664 25.8031 13.625C24.9757 13.2836 24.0836 13.1094 23.1886 13.1122ZM23.1886 23.8135C22.1168 23.8193 21.0857 23.4035 20.3179 22.6557C19.55 21.9079 19.1071 20.8881 19.0846 19.8165C19.0859 19.2823 19.1938 18.7536 19.4022 18.2616C19.6105 17.7696 19.9149 17.3241 20.2977 16.9513C20.6804 16.5785 21.1338 16.2859 21.6311 16.0907C22.1285 15.8954 22.6598 15.8014 23.1939 15.8143C24.2609 15.8273 25.282 16.25 26.046 16.995C26.8099 17.74 27.2581 18.7502 27.2979 19.8165C27.2959 20.3504 27.1874 20.8785 26.9788 21.3699C26.7702 21.8613 26.4656 22.3061 26.0829 22.6783C25.7002 23.0505 25.2471 23.3427 24.7501 23.5376C24.2532 23.7325 23.7223 23.8263 23.1886 23.8135Z" fill="#D9B432"/>
<path d="M29.1389 10.8381C29.1434 11.8137 28.9218 12.777 28.4914 13.6525C27.7251 13.0799 26.889 12.6071 26.0034 12.2453C26.2121 11.8054 26.3216 11.325 26.3244 10.8381C26.3067 10.0419 25.9825 9.28319 25.4194 8.72004C24.8562 8.15689 24.0975 7.8327 23.3013 7.81498C22.782 7.81998 22.2725 7.95702 21.8208 8.21322C21.3691 8.46942 20.99 8.83635 20.7192 9.27947C20.4484 9.72259 20.2948 10.2273 20.2729 10.7462C20.251 11.265 20.3614 11.7809 20.5939 12.2453C19.69 12.5648 18.8496 13.0412 18.1112 13.6525C17.6298 12.7977 17.4033 11.8229 17.4584 10.8434C17.433 10.0788 17.563 9.31691 17.8406 8.60394C18.1181 7.89098 18.5374 7.24173 19.0731 6.69551C19.6089 6.14929 20.2498 5.71744 20.9573 5.4261C21.6647 5.13476 22.4239 4.98998 23.189 5.00054C24.751 4.98911 26.2541 5.5969 27.3691 6.69091C28.4842 7.78492 29.1205 9.27608 29.1389 10.8381ZM8.81176 26.6225C7.25151 26.6325 5.75067 26.0248 4.63691 24.9321C3.52315 23.8394 2.88694 22.3505 2.86719 20.7903H5.67628C5.67628 21.5935 5.99535 22.3638 6.5633 22.9318C7.13124 23.4997 7.90155 23.8188 8.70474 23.8188C9.50794 23.8188 10.2782 23.4997 10.8462 22.9318C11.4141 22.3638 11.7332 21.5935 11.7332 20.7903H14.5423C14.5756 21.5564 14.4509 22.3212 14.176 23.0371C13.9012 23.7531 13.482 24.4048 12.9445 24.9518C12.407 25.4988 11.7628 25.9294 11.0518 26.2168C10.3409 26.5042 9.57837 26.6423 8.81176 26.6225Z" fill="#D9B432"/>
</svg>
