<svg width="32" height="32" viewBox="0 0 32 32" fill="none" xmlns="http://www.w3.org/2000/svg">
<path d="M29.314 20.9842C29.314 25.5523 23.3477 29.2828 16.0012 29.2828C8.65481 29.2828 2.68848 25.5523 2.68848 20.9842V18.8387H29.4044V20.9842H29.314Z" fill="#FEDC90"/>
<path fill-rule="evenodd" clip-rule="evenodd" d="M7.82917 5.18843C7.74606 4.82314 7.74129 4.44439 7.81519 4.07712C7.88908 3.70985 8.03995 3.36241 8.25787 3.05769C8.47579 2.75296 8.7558 2.49787 9.07946 2.30922C9.40312 2.12057 9.76308 2.00263 10.1356 1.96319C10.5082 1.92375 10.8848 1.9637 11.2408 2.0804C11.5968 2.1971 11.924 2.3879 12.2009 2.64024C12.4778 2.89258 12.6981 3.20073 12.8473 3.54438C12.9964 3.88803 13.0711 4.25939 13.0663 4.63399V10.7269C14.0107 10.6178 14.9602 10.5574 15.9108 10.5461C16.8269 10.5461 17.7429 10.6365 18.665 10.7269V4.63399C18.6634 3.92696 18.9423 3.24816 19.4406 2.74652C19.9388 2.24488 20.6157 1.96137 21.3227 1.95818C21.7196 1.96823 22.1096 2.0634 22.4665 2.23724C22.8234 2.41107 23.1388 2.65953 23.3913 2.96579C23.6439 3.27206 23.8277 3.62899 23.9304 4.01245C24.0331 4.39591 24.0522 4.79694 23.9865 5.18843L22.7932 11.8418C26.6502 13.3183 29.314 15.9037 29.314 18.8568C29.314 23.3827 23.3477 27.077 16.0012 27.077C8.65481 27.077 2.68848 23.3827 2.68848 18.8568C2.68848 15.9037 5.26184 13.3123 9.11886 11.8418L7.82917 5.18843Z" fill="#D1884F"/>
<path d="M12.2979 18.2902C12.2979 19.4774 11.6591 20.4838 10.8334 20.4838C10.0078 20.4838 9.375 19.4834 9.375 18.2902C9.375 17.0969 10.0138 16.0965 10.8395 16.0965C11.6651 16.0965 12.2979 17.1029 12.2979 18.2902ZM22.4527 18.2902C22.4527 19.4774 21.8139 20.4838 20.9883 20.4838C20.1626 20.4838 19.5238 19.4774 19.5238 18.2902C19.5238 17.1029 20.1686 16.0965 20.9883 16.0965C21.8079 16.0965 22.4527 17.1029 22.4527 18.2902Z" fill="#633001"/>
<path fill-rule="evenodd" clip-rule="evenodd" d="M6.71904 5.57419C6.61557 5.04905 6.62323 4.50807 6.74152 3.98608C6.85982 3.46409 7.08613 2.97265 7.40588 2.54343C7.72563 2.11421 8.13172 1.75671 8.59802 1.49396C9.06432 1.23121 9.58048 1.06903 10.1133 1.01786C10.646 0.966699 11.1836 1.02769 11.6914 1.1969C12.1992 1.36611 12.6659 1.63979 13.0615 2.00031C13.4571 2.36084 13.7728 2.80022 13.9882 3.29016C14.2037 3.7801 14.3142 4.30974 14.3125 4.84497V9.59996C14.8549 9.59996 15.4034 9.50956 15.9518 9.50956C16.4717 9.49402 16.992 9.52427 17.5066 9.59996V4.83894C17.513 3.82171 17.9203 2.84802 18.6402 2.12928C19.3601 1.41053 20.3344 1.00474 21.3516 1C21.9189 1.00838 22.4776 1.13874 22.99 1.38223C23.5024 1.62572 23.9564 1.97663 24.3212 2.41113C24.6859 2.84562 24.9529 3.35353 25.1039 3.90035C25.255 4.44717 25.2866 5.0201 25.1966 5.58022L24.1901 11.1548C25.8727 11.6876 27.3645 12.6971 28.4845 14.0611C29.6046 15.425 30.3047 17.0847 30.5 18.8387V20.942C30.4179 22.3659 29.9596 23.7424 29.172 24.9314C28.3843 26.1203 27.2953 27.0791 26.0162 27.7099C22.9625 29.4772 19.4788 30.3638 15.9518 30.2712C12.4248 30.3638 8.94106 29.4772 5.88736 27.7099C4.632 27.0591 3.56747 26.0929 2.79828 24.9064C2.0291 23.7199 1.58169 22.3537 1.5 20.942V18.8387C1.67492 17.0911 2.35681 15.4328 3.46179 14.0676C4.56677 12.7025 6.04666 11.69 7.71945 11.1548L6.71904 5.57419ZM22.8101 11.8901L24.0033 5.30299C24.0767 4.91274 24.0633 4.51112 23.9641 4.12663C23.8649 3.74213 23.6823 3.38419 23.4292 3.07819C23.1761 2.7722 22.8588 2.52565 22.4997 2.35605C22.1407 2.18645 21.7487 2.09796 21.3516 2.09684C20.6483 2.09684 19.9739 2.37622 19.4766 2.87351C18.9793 3.3708 18.6999 4.04527 18.6999 4.74854V10.7872C18.307 10.7113 17.9066 10.681 17.5066 10.6968C16.9643 10.6968 16.5002 10.6064 15.9518 10.6064C15.4018 10.5909 14.8515 10.6211 14.3065 10.6968C13.9449 10.6968 13.4869 10.7872 13.1193 10.7872V4.851C13.1247 4.47787 13.0509 4.10785 12.9028 3.76532C12.7548 3.4228 12.5358 3.11556 12.2602 2.86388C11.9847 2.6122 11.659 2.42179 11.3045 2.30522C10.95 2.18865 10.5748 2.14856 10.2037 2.1876C9.83262 2.22664 9.47401 2.34393 9.15154 2.53172C8.82907 2.71951 8.55009 2.97353 8.33298 3.27704C8.11588 3.58054 7.9656 3.92663 7.89205 4.29247C7.81849 4.65831 7.82334 5.03559 7.90628 5.39942L9.09352 11.9865C5.24854 13.451 2.68724 16.0123 2.68724 18.9412V21.0445C2.68724 25.5222 8.63549 29.1804 15.9518 29.1804C23.2681 29.1804 29.2163 25.5222 29.2163 21.0445V18.9352C29.3128 15.9219 26.7454 13.3545 22.8161 11.8961L22.8101 11.8901Z" fill="#633001"/>
</svg>
