<svg width="32" height="32" viewBox="0 0 32 32" fill="none" xmlns="http://www.w3.org/2000/svg">
<path d="M17.4961 25.2995C15.8872 25.2855 14.3093 24.862 12.9155 24.0699C11.5217 23.2779 10.3595 22.1442 9.54165 20.7791C8.72377 19.4139 8.27804 17.8636 8.24772 16.2787C8.2174 14.6937 8.60352 13.128 9.3686 11.7334C10.1337 10.3388 11.2517 9.16287 12.6142 8.31964C13.9767 7.4764 15.5373 6.99455 17.1445 6.92087C18.7518 6.84719 20.351 7.18418 21.7871 7.89912C23.2232 8.61406 24.4472 9.68266 25.3404 11.0012L29 7.40641C27.6258 5.71243 25.8808 4.34636 23.8953 3.4103C21.9099 2.47423 19.7354 1.99238 17.5344 2.00076C13.7234 1.96193 10.0525 3.41453 7.32756 6.03968C4.60257 8.66483 3.04617 12.248 3 16.0026C3.04616 19.7577 4.6035 23.3412 7.32983 25.9656C10.0562 28.5901 13.7285 30.0408 17.5399 29.9991C19.7143 30.0057 21.8629 29.5345 23.8293 28.6199C25.7956 27.7054 27.5303 26.3703 28.907 24.712L25.3404 21.1981C24.4736 22.4618 23.3049 23.4963 21.937 24.2105C20.5692 24.9247 19.0442 25.3022 17.4961 25.2995Z" fill="#3B3338"/>
</svg>
