<svg width="32" height="32" viewBox="0 0 32 32" fill="none" xmlns="http://www.w3.org/2000/svg">
<path d="M21.8484 21.1003C21.3625 22.0158 20.6424 22.7859 19.7615 23.332C18.8806 23.878 17.8705 24.1804 16.8345 24.2083C15.7985 24.2362 14.7736 23.9886 13.8646 23.4907C12.9556 22.9929 12.195 22.2626 11.6606 21.3746C11.1262 20.4866 10.8372 19.4727 10.8229 18.4364C10.8086 17.4 11.0697 16.3785 11.5795 15.4762C12.0893 14.5738 12.8295 13.8229 13.7244 13.3002C14.6194 12.7776 15.6371 12.5019 16.6735 12.5012C17.7347 12.5068 18.7749 12.7975 19.6852 13.3428C20.5956 13.8881 21.3427 14.6681 21.8484 15.601H27.9244C27.2736 12.8341 25.6308 10.4018 23.3072 8.76464C20.9836 7.12748 18.1403 6.3991 15.3157 6.71739C12.4911 7.03568 9.88128 8.37855 7.98026 10.4918C6.07923 12.605 5.01899 15.3419 5.00025 18.1843C4.98152 21.0267 6.00559 23.7773 7.87859 25.9154C9.7516 28.0535 12.3435 29.4306 15.1637 29.7861C17.9838 30.1416 20.8364 29.4508 23.1814 27.8444C25.5265 26.238 27.2011 23.8276 27.8884 21.0694L21.8484 21.1003Z" fill="#F5AEC1"/>
<path d="M22.5652 12.8608C23.0724 12.4514 23.4676 11.9201 23.7139 11.3166C23.9603 10.7132 24.0497 10.0571 23.9739 9.40972C23.8981 8.76232 23.6595 8.14468 23.2804 7.61444C22.9013 7.08419 22.3941 6.65862 21.806 6.37745C21.218 6.09627 20.5683 5.96866 19.9176 6.00651C19.2669 6.04437 18.6363 6.24645 18.0848 6.59391C17.5334 6.94138 17.0789 7.42289 16.7638 7.99351C16.4488 8.56414 16.2834 9.20527 16.2832 9.85709H16.4926C17.668 9.85794 18.8273 10.1293 19.881 10.6502C20.9346 11.171 21.8542 11.9274 22.5686 12.8608H22.5652Z" fill="#B591C3"/>
<path d="M20.1114 13.7362C21.005 13.7362 21.871 13.4269 22.5624 12.8608C21.8457 11.9258 20.9233 11.1684 19.8666 10.6475C18.8099 10.1266 17.6473 9.85615 16.4692 9.85715H16.2564C16.2537 10.3653 16.3514 10.869 16.5439 11.3392C16.7363 11.8095 17.0198 12.2372 17.378 12.5976C17.7362 12.958 18.1621 13.2441 18.6311 13.4395C19.1002 13.6349 19.6033 13.7357 20.1114 13.7362Z" fill="#BD67A6"/>
</svg>
