<svg width="32" height="32" viewBox="0 0 32 32" fill="none" xmlns="http://www.w3.org/2000/svg">
<path d="M9.70817 7.55542L14.2616 4.73074C14.3475 4.6848 14.421 4.61856 14.4757 4.53773C14.5304 4.45691 14.5647 4.36393 14.5756 4.26683C14.5865 4.16973 14.5737 4.07142 14.5383 3.98041C14.5029 3.88939 14.4459 3.80839 14.3723 3.74441L10.5709 0.0538037C10.5348 0.019269 10.4869 0 10.4371 0C10.3873 0 10.3393 0.019269 10.3033 0.0538037L9.94346 0.419623C9.72202 0.641929 9.59763 0.943412 9.59763 1.25777C9.59763 1.57212 9.72202 1.8736 9.94346 2.09591L11.4336 3.47121C11.4929 3.53024 11.5381 3.60197 11.5658 3.68102C11.5936 3.76007 11.6032 3.8444 11.5938 3.92769C11.5845 4.01099 11.5565 4.09108 11.512 4.16199C11.4675 4.23289 11.4076 4.29277 11.3367 4.33713L9.56054 5.42533C9.42843 5.50681 9.31367 5.6137 9.22286 5.73985C9.13205 5.866 9.06699 6.00892 9.0314 6.1604C8.99582 6.31188 8.99041 6.46893 9.01551 6.62251C9.04061 6.77609 9.0957 6.92318 9.17763 7.05531L9.44521 7.49059C9.47193 7.53372 9.5144 7.56465 9.56354 7.57676C9.61267 7.58888 9.66459 7.58122 9.70817 7.55542ZM14.1048 22.6929C14.2894 21.8924 14.278 21.0588 14.0715 20.2636C13.865 19.4685 13.4696 18.7354 12.9191 18.1271L10.045 14.8533C9.66827 14.4251 9.38837 13.9201 9.22448 13.373C9.06058 12.826 9.01657 12.2498 9.09546 11.6841C9.17435 11.1183 9.37428 10.5764 9.68152 10.0956C9.98875 9.6147 10.396 9.20627 10.8754 8.8983L15.5811 5.87913C15.7291 5.78397 15.9044 5.74055 16.0796 5.75562C16.2548 5.7707 16.4201 5.84341 16.5499 5.96248C18.2707 7.55542 24.2589 13.2974 23.9913 19.2292C23.8913 21.9956 22.9824 24.6712 21.3777 26.9225C19.773 29.1738 17.5436 30.9012 14.9675 31.8894C14.6658 32.0018 14.3393 32.0292 14.0232 31.9686C13.7072 31.908 13.4137 31.7617 13.1746 31.5455C12.9356 31.3294 12.76 31.0517 12.6669 30.7425C12.5739 30.4334 12.567 30.1045 12.6469 29.7917C13.2842 27.4572 13.7742 25.0847 14.114 22.6883L14.1048 22.6929ZM15.2858 8.50933L11.9826 10.6116C11.7957 10.7311 11.6366 10.8896 11.516 11.0762C11.3955 11.2628 11.3164 11.4733 11.284 11.6933C11.2516 11.9134 11.2667 12.1378 11.3284 12.3515C11.39 12.5651 11.4967 12.763 11.6412 12.9316L14.6491 16.4231C15.499 17.36 16.1097 18.4899 16.4287 19.7159C16.7477 20.9419 16.7655 22.2272 16.4807 23.4616L15.9732 25.6797C15.9253 25.8899 15.9452 26.1098 16.0298 26.308C16.1144 26.5061 16.2594 26.6722 16.444 26.7823C16.6286 26.8925 16.8433 26.941 17.0571 26.921C17.271 26.9009 17.473 26.8132 17.634 26.6707C20.8034 23.9247 25.2462 17.326 15.9778 8.57879C15.8861 8.4925 15.7686 8.43894 15.6435 8.42639C15.5184 8.41383 15.3927 8.44298 15.2858 8.50933Z" fill="#FF1256"/>
</svg>
