<svg width="32" height="32" viewBox="0 0 32 32" fill="none" xmlns="http://www.w3.org/2000/svg">
<path d="M2 4V18.4049H6.79756V4H2ZM25.8052 13.5951V28H30.6027V13.5951H25.8052ZM16.1979 4V13.3942L20.9954 18.1918V8.79756L16.1979 4ZM11.6073 13.8082V23.2024L16.4049 28V18.6058L11.6073 13.8082Z" fill="#424242"/>
<path d="M16.1979 4H20.9954L30.6027 13.5951H25.8052L16.1979 4ZM2 18.4049H6.79756L16.4049 28H11.6073L2 18.4049Z" fill="black"/>
<path d="M20.9957 8.79756V18.1309L6.79785 4V18.4049L11.6076 23.2024V13.8691L25.8055 28V13.5951L20.9957 8.79756Z" fill="#3CC68A"/>
</svg>
