<svg width="32" height="32" viewBox="0 0 32 32" fill="none" xmlns="http://www.w3.org/2000/svg">
<path fill-rule="evenodd" clip-rule="evenodd" d="M5.22958 25.1621C4.85401 24.93 4.54369 24.6042 4.32839 24.2161C4.11308 23.8279 4.00001 23.3903 4 22.9453V17.9019C3.99992 17.7111 4.0496 17.5237 4.14401 17.3585C4.23842 17.1933 4.37423 17.0563 4.53775 16.9611C4.70127 16.866 4.88672 16.8161 5.07539 16.8165C5.26406 16.8169 5.44928 16.8677 5.61237 16.9636L16.8642 23.6021C17.1885 23.7921 17.4578 24.0649 17.6451 24.3933C17.8324 24.7216 17.9311 25.0939 17.9314 25.4729V30.6981C17.9321 30.8683 17.8997 31.037 17.836 31.1945C17.7723 31.3521 17.6785 31.4954 17.56 31.6163C17.4416 31.7371 17.3007 31.8333 17.1455 31.8991C16.9902 31.9649 16.8237 31.9992 16.6554 32C16.4159 32 16.181 31.933 15.9768 31.8065L5.22958 25.1621ZM22.0087 15.5854C22.3324 15.7771 22.6007 16.0513 22.787 16.3805C22.9732 16.7098 23.0708 17.0827 23.0701 17.462V28.0591C23.0709 28.213 23.0311 28.3643 22.9546 28.4973C22.8781 28.6303 22.7678 28.7402 22.6351 28.8156L20.1701 30.2113L20.0715 30.2583V24.3645C20.071 23.9899 19.9746 23.6217 19.7917 23.2959C19.6087 22.9702 19.3455 22.6978 19.0275 22.5055L9.14451 16.5237V9.88516C9.14444 9.69439 9.19411 9.50698 9.28852 9.34181C9.38293 9.17665 9.51875 9.03957 9.68227 8.94441C9.84579 8.84925 10.0312 8.79937 10.2199 8.7998C10.4086 8.80023 10.5938 8.85095 10.7569 8.94685L22.0087 15.5854ZM26.9386 7.75636C27.2623 7.94807 27.5307 8.22223 27.7169 8.55151C27.9031 8.88079 28.0007 9.25367 28 9.63299V25.1151C27.9984 25.2714 27.9556 25.4244 27.8761 25.5584C27.7966 25.6924 27.6832 25.8025 27.5476 25.8775L25.216 27.156V16.3712C25.2155 15.9966 25.1191 15.6285 24.9362 15.3027C24.7532 14.9769 24.49 14.7046 24.1721 14.5122L14.0686 8.38386V2.08544C14.0698 1.89407 14.1198 1.70624 14.2136 1.54005C14.2844 1.41679 14.3786 1.30885 14.4906 1.22239C14.6027 1.13593 14.7305 1.07264 14.8668 1.03615C15.0031 0.999663 15.1451 0.990683 15.2848 1.00973C15.4245 1.02877 15.5592 1.07546 15.681 1.14713L26.9386 7.75636Z" fill="#00D395"/>
</svg>
