<svg width="32" height="32" viewBox="0 0 32 32" fill="none" xmlns="http://www.w3.org/2000/svg">
<path d="M30.9604 20.5516L27.3068 10.9711C27.2639 10.8572 27.1867 10.7588 27.0855 10.6892C26.9843 10.6196 26.8639 10.5821 26.7404 10.5816H20.8916L17.3933 1.39552C17.3579 1.29823 17.2974 1.21166 17.2178 1.14429C17.1382 1.07691 17.0421 1.03103 16.939 1.01115C16.836 0.991266 16.7294 0.99806 16.6298 1.03086C16.5302 1.06367 16.441 1.12136 16.3709 1.19829L7.67029 10.5865H1.61094C1.51234 10.5858 1.41505 10.6087 1.32749 10.6534C1.23994 10.698 1.16477 10.7629 1.10849 10.8426C1.05221 10.9222 1.01652 11.0142 1.00451 11.1105C0.992507 11.2068 1.00455 11.3045 1.03959 11.3952L4.69324 20.9757C4.73691 21.0887 4.81445 21.186 4.91559 21.2547C5.01673 21.3234 5.13669 21.3602 5.25958 21.3603H11.0232L14.5466 30.6105C14.5828 30.7062 14.6432 30.7913 14.7221 30.8578C14.801 30.9242 14.8959 30.9698 14.9976 30.9901L15.1179 31C15.2029 30.9998 15.2869 30.9821 15.3646 30.9482C15.4422 30.9142 15.5119 30.8647 15.569 30.8028L20.7412 25.2359C20.7845 25.1845 20.8184 25.1261 20.8415 25.0633L24.3297 21.3603H30.3941C30.4923 21.3602 30.5889 21.3367 30.6758 21.2917C30.7627 21.2468 30.8372 21.1817 30.8929 21.1022C30.9486 21.0227 30.9839 20.931 30.9956 20.8351C31.0074 20.7392 30.9953 20.6419 30.9604 20.5516ZM16.6014 2.73176L19.7539 11.0007L16.2255 14.7777L14.7721 10.9711C14.7292 10.8572 14.652 10.7588 14.5508 10.6892C14.4496 10.6196 14.3292 10.5821 14.2058 10.5816H9.31919L16.6014 2.73176ZM2.48802 11.7798H13.7848L15.3034 15.7688L11.1986 20.1572H5.68559L2.48802 11.7798ZM19.8441 24.3632L19.8792 24.3977L19.8391 24.4273L15.3384 29.2693L12.1509 20.9116L15.7795 17.0212L17.283 20.9658C17.3254 21.0815 17.403 21.1814 17.5052 21.252C17.6075 21.3227 17.7295 21.3605 17.8544 21.3603H22.6658L19.8441 24.3632ZM18.2754 20.1621L16.7067 16.035L20.6761 11.7798H26.3244L29.517 20.1621H18.2754Z" fill="#4A4A4A"/>
</svg>
