<svg width="32" height="32" viewBox="0 0 32 32" fill="none" xmlns="http://www.w3.org/2000/svg">
<path d="M5.44631 16.5C5.42388 13.5998 6.55415 10.8094 8.58862 8.7423C10.6231 6.67524 13.3952 5.50076 16.2954 5.47711C18.2589 5.48251 20.184 6.02144 21.8648 7.03628C23.5457 8.05111 24.9192 9.5037 25.8384 11.2387C25.944 11.4388 26.0883 11.6158 26.263 11.7596C26.4376 11.9033 26.6391 12.0109 26.8557 12.0761C27.0723 12.1413 27.2997 12.1627 27.5247 12.1392C27.7497 12.1157 27.9678 12.0477 28.1662 11.9392C28.5695 11.7167 28.8687 11.3441 28.9988 10.9024C29.129 10.4606 29.0796 9.98532 28.8614 9.57975C27.3603 6.74931 24.9499 4.50675 22.0186 3.21351C19.0874 1.92026 15.806 1.65168 12.7035 2.45104C9.60097 3.2504 6.85796 5.07114 4.91656 7.6198C2.97517 10.1685 1.94849 13.2966 2.00199 16.5C1.94849 19.7034 2.97517 22.8315 4.91656 25.3802C6.85796 27.9289 9.60097 29.7496 12.7035 30.549C15.806 31.3483 19.0874 31.0797 22.0186 29.7865C24.9499 28.4933 27.3603 26.2507 28.8614 23.4202C29.0786 23.015 29.128 22.5407 28.999 22.0994C28.87 21.6581 28.5728 21.2852 28.1715 21.0608C27.973 20.9523 27.755 20.8843 27.53 20.8608C27.305 20.8373 27.0776 20.8587 26.861 20.9239C26.6444 20.9891 26.4429 21.0967 26.2682 21.2404C26.0936 21.3842 25.9493 21.5612 25.8437 21.7613C24.7079 23.9193 22.877 25.6308 20.6473 26.6185C18.4177 27.6062 15.9199 27.8124 13.5585 27.2036C11.197 26.5948 9.11024 25.2067 7.63605 23.2641C6.16186 21.3215 5.38659 18.9381 5.43578 16.5" fill="#42B551"/>
<path d="M17.9391 15.1747C17.9403 15.4193 17.89 15.6614 17.7914 15.8852C17.6928 16.1091 17.5481 16.3096 17.3668 16.4738V19.2335H15.0741V16.4738C14.8548 16.2836 14.6868 16.0412 14.5857 15.769C14.4845 15.4968 14.4535 15.2036 14.4954 14.9163C14.5373 14.6289 14.6509 14.3568 14.8256 14.1248C15.0002 13.8929 15.2305 13.7086 15.495 13.589C15.7596 13.4693 16.05 13.4182 16.3395 13.4402C16.6291 13.4622 16.9084 13.5567 17.1518 13.715C17.3952 13.8733 17.5949 14.0903 17.7325 14.346C17.8701 14.6017 17.9412 14.8844 17.9391 15.1747Z" fill="#42B551"/>
</svg>
