<svg width="32" height="32" viewBox="0 0 32 32" fill="none" xmlns="http://www.w3.org/2000/svg">
<path d="M18.3002 8.18279H20.1528V10.9782H18.3002V8.18279ZM12.9851 3H14.8377V5.7954H12.9851V3Z" fill="#1682FE"/>
<path d="M7.67065 5.66309H9.52323V8.45848H7.67065V5.66309Z" fill="#60D8A4"/>
<path d="M5 16.2932H6.86911V24.2769H5V16.2932Z" fill="#F4BB3B"/>
<path d="M5 8.31505H6.86911V16.2987H5V8.31505Z" fill="#60D8A4"/>
<path d="M20.9431 10.8513H22.7957V13.6467H20.9431V10.8513Z" fill="#1682FE"/>
<path d="M20.9468 18.9453H22.7993V21.7407H20.9468V18.9453ZM18.3002 21.6084H20.1528V24.4038H18.3002V21.6084ZM12.9851 26.7967H14.8377V29.5921H12.9851V26.7967Z" fill="#FF5A5A"/>
<path d="M7.67065 24.1281H9.52323V26.9235H7.67065V24.1281Z" fill="#F4BB3B"/>
<path d="M27.9999 13.6302V8.3096H25.3313V5.66307H20.0162V3H14.7011V5.66307H9.38597V8.33166H6.7229V24.277H9.38597V26.9456H14.7011V29.6142H20.0162V26.9456H25.3313V24.277H27.9999V18.9453H22.6848V21.6084H20.0162V24.277H14.7011V21.6084H12.0546V10.9782H14.7231V8.31511H20.0383V10.9782H22.7068V13.6468H27.9999V13.6302Z" fill="#3A3A3A"/>
</svg>
