<svg width="32" height="32" viewBox="0 0 32 32" fill="none" xmlns="http://www.w3.org/2000/svg">
<path fill-rule="evenodd" clip-rule="evenodd" d="M21.8264 17.6762L30.6655 27.1927C30.7721 27.3062 30.8562 27.4388 30.9134 27.5835C31.0282 27.8838 31.0282 28.2156 30.9134 28.5159C30.8587 28.6623 30.777 28.7972 30.6724 28.9136L30.0253 29.6129C29.8467 29.8143 29.6033 29.9476 29.3369 29.99C29.1652 30.0138 28.9902 29.9949 28.8275 29.9352C28.6597 29.8754 28.5087 29.7767 28.3869 29.6472L17.5926 18.0259C17.4044 17.8201 17.2572 17.5804 17.1589 17.3197C16.954 16.7855 16.954 16.1947 17.1589 15.6605C17.2569 15.3997 17.4041 15.16 17.5926 14.9543L28.3938 3.35359C28.4965 3.24316 28.6206 3.15454 28.7586 3.09306C28.8949 3.03172 29.0428 3 29.1923 3C29.3419 3 29.4897 3.03172 29.626 3.09306C29.7665 3.15373 29.893 3.2424 29.9978 3.35359L30.6655 4.08721C30.7731 4.2026 30.8573 4.33763 30.9134 4.48487C31.0289 4.78504 31.0289 5.11715 30.9134 5.41732C30.8562 5.56197 30.7721 5.69456 30.6655 5.80812L21.8264 15.3177C21.5365 15.6427 21.3764 16.0623 21.3764 16.497C21.3764 16.9317 21.5365 17.3513 21.8264 17.6762ZM10.1785 15.3314L1.33927 5.82183C1.23167 5.70645 1.14752 5.57141 1.09144 5.42417C0.971941 5.12282 0.969485 4.78793 1.08456 4.48487C1.14094 4.33779 1.22506 4.20281 1.33239 4.08721L1.97261 3.38787C2.1523 3.18781 2.39514 3.05478 2.66102 3.01078C2.83502 2.98587 3.01251 3.00472 3.17733 3.06563C3.3427 3.12615 3.49133 3.22483 3.61102 3.35359L14.4122 14.9612C14.6004 15.167 14.7476 15.4067 14.8459 15.6674C15.0502 16.2017 15.0502 16.7922 14.8459 17.3266C14.7476 17.5873 14.6004 17.8269 14.4122 18.0328L3.61102 29.6404C3.50814 29.7507 3.38407 29.8393 3.24617 29.9009C3.10894 29.9632 2.95986 29.9955 2.80902 29.9955C2.65819 29.9955 2.50911 29.9632 2.37188 29.9009C2.23398 29.8393 2.10991 29.7507 2.00703 29.6404L1.33927 28.9205C1.23195 28.8049 1.14783 28.6699 1.09144 28.5228C0.977213 28.2224 0.977213 27.8908 1.09144 27.5903C1.14783 27.4433 1.23195 27.3083 1.33927 27.1927L10.1785 17.69C10.4702 17.3645 10.6315 16.9435 10.6315 16.5073C10.6315 16.071 10.4702 15.6568 10.1785 15.3314Z" fill="#4A4A4A"/>
</svg>
