<svg width="32" height="32" viewBox="0 0 32 32" fill="none" xmlns="http://www.w3.org/2000/svg">
<path d="M29.9947 11.807H26.9679C26.1256 9.52094 24.6119 7.5486 22.629 6.15355C20.6461 4.75851 18.2884 4.00719 15.871 4H5.50592C5.4875 3.99999 5.46926 4.00373 5.4523 4.01099C5.43534 4.01826 5.42001 4.02891 5.40723 4.0423C5.39445 4.05569 5.38448 4.07155 5.37792 4.08892C5.37136 4.10629 5.36835 4.12482 5.36905 4.14339V11.807H2V14.5687H5.36905V17.4366H2V20.1983H5.36905V27.8619C5.36905 27.8985 5.38348 27.9337 5.40914 27.9596C5.43481 27.9855 5.46962 28 5.50592 28H15.8026C18.2239 27.9907 20.5854 27.2404 22.5752 25.8484C24.5649 24.4564 26.0893 22.4881 26.9468 20.2036H30V17.4419H27.6153C27.6802 16.9489 27.7136 16.4522 27.7154 15.9549C27.7132 15.4932 27.6833 15.0321 27.6259 14.574H29.9947V11.807ZM23.9515 20.1983C23.1871 21.7184 22.0197 22.9947 20.5792 23.8855C19.1387 24.7762 17.4816 25.2463 15.7921 25.2436H8.10641V20.1983H23.9515ZM24.978 15.9814C24.974 16.4691 24.9317 16.9557 24.8517 17.4366H8.10115V14.5687H24.8569C24.9331 15.0358 24.9736 15.5081 24.978 15.9814ZM8.10115 11.807V6.76698H15.8763C17.5585 6.76331 19.2083 7.23305 20.6404 8.1234C22.0725 9.01375 23.2301 10.2894 23.9831 11.807H8.10115Z" fill="#EBA42D"/>
</svg>
