<svg width="32" height="32" viewBox="0 0 32 32" fill="none" xmlns="http://www.w3.org/2000/svg">
<path d="M31.1996 16.9422C30.2048 22.7086 27.685 26.747 23.9203 28.6205C22.0989 29.5163 20.3656 30 16.4429 30H5.23682L6.12691 24.6634L16.0187 24.6691H16.0422C22.1172 24.6691 23.8161 21.7945 24.6135 19.2925C25.1441 17.4991 25.4796 15.6536 25.614 13.7882C25.6375 12.0767 25.2362 10.8203 24.3748 9.94734C23.3101 8.87121 21.5179 8.34745 18.8991 8.34745L8.78003 8.33601L9.6707 3H20.9649C25.1315 3 27.9941 3.99485 29.7108 6.03148C31.5963 8.26617 32.0788 11.8386 31.2002 16.9416L31.1996 16.9422Z" fill="#0A82C8"/>
<path d="M16.2622 13.8231C16.2044 14.1316 16.0647 14.8065 15.8145 15.941L15.8031 15.9817C15.5295 17.2501 15.1105 19.1586 12.3286 19.1586H1C1.05839 18.85 1.19805 18.1752 1.4482 17.0464L1.45964 17C1.73268 15.7315 2.15226 13.8231 4.9336 13.8231H16.2622Z" fill="#0A82C8"/>
</svg>
