<svg width="32" height="32" viewBox="0 0 32 32" fill="none" xmlns="http://www.w3.org/2000/svg">
<path d="M30.0001 14.0797C30.0001 11.6725 29.0443 9.36386 27.3426 7.66124C25.641 5.95862 23.3329 5.0014 20.9257 5H13.7495L18.6374 9.24457H20.9205C22.1745 9.286 23.3633 9.81328 24.2357 10.715C25.1082 11.6168 25.5959 12.8223 25.5959 14.0771C25.5959 15.3318 25.1082 16.5373 24.2357 17.4391C23.3633 18.3408 22.1745 18.8681 20.9205 18.9095H13.7495L23.5252 27.3987H30.0001L24.3425 22.4897C26.0148 21.8093 27.4463 20.6457 28.4541 19.1477C29.4618 17.6496 30.0001 15.8852 30.0001 14.0797Z" fill="#4870B4"/>
<path d="M10.0797 23.1594C8.79733 23.1594 7.5675 22.65 6.66074 21.7432C5.75398 20.8364 5.24457 19.6066 5.24457 18.3243C5.24457 17.0419 5.75398 15.8121 6.66074 14.9053C7.5675 13.9986 8.79733 13.4891 10.0797 13.4891H17.2506L7.47495 5H1L6.65767 9.90894C4.70789 10.7023 3.09437 12.1486 2.09312 14.0002C1.09186 15.8519 0.765083 17.9939 1.16869 20.0599C1.57229 22.1258 2.68119 23.9874 4.3057 25.3261C5.93021 26.6648 7.96939 27.3974 10.0744 27.3987H17.2506L12.3628 23.1541L10.0797 23.1594Z" fill="#4870B4"/>
</svg>
