<svg width="32" height="32" viewBox="0 0 32 32" fill="none" xmlns="http://www.w3.org/2000/svg">
<path fill-rule="evenodd" clip-rule="evenodd" d="M28.7095 23.0893C28.4221 23.5602 27.9581 23.9024 27.4168 24.0428C26.8754 24.1832 26.2995 24.1106 25.812 23.8405L19.1159 20.1232V17.762L21.2418 16.5814L27.9328 20.2988C28.1729 20.43 28.3838 20.6069 28.5532 20.819C28.7227 21.0311 28.8472 21.2743 28.9195 21.5341C28.9918 21.794 29.0105 22.0654 28.9744 22.3324C28.9384 22.5995 28.8483 22.8568 28.7095 23.0893ZM18.1202 28.114C18.1202 28.6665 17.8963 29.1964 17.4976 29.587C17.0989 29.9777 16.5582 30.1971 15.9944 30.1971C15.4306 30.1971 14.8899 29.9777 14.4913 29.587C14.0926 29.1964 13.8686 28.6665 13.8686 28.114V20.6744L15.9944 19.4987L18.1202 20.6744V28.114ZM6.17687 23.8405C5.68937 24.1106 5.11345 24.1832 4.57208 24.0428C4.03072 23.9024 3.5668 23.5602 3.27939 23.0893C3.14207 22.8599 3.05219 22.6063 3.0149 22.3429C2.97761 22.0795 2.99363 21.8115 3.06205 21.5542C3.13048 21.2969 3.24996 21.0553 3.41367 20.8433C3.57739 20.6312 3.78213 20.4528 4.01621 20.3183L4.05603 20.2988L10.7471 16.5814L12.8679 17.762V20.1232L6.17687 23.8405ZM4.05603 11.7518C3.81893 11.6222 3.61022 11.448 3.44185 11.2393C3.27347 11.0306 3.14873 10.7914 3.07475 10.5354C3.00077 10.2794 2.97901 10.0117 3.0107 9.74743C3.0424 9.4832 3.12694 9.22768 3.25948 8.99548L3.27939 8.96133C3.56685 8.48907 4.03167 8.14595 4.57422 8.00551C5.11677 7.86507 5.69388 7.9385 6.18185 8.21005L12.8729 11.9274V14.2886L10.7471 15.4692L4.05603 11.7518ZM13.8686 3.93655C13.8686 3.38408 14.0926 2.85424 14.4913 2.46358C14.8899 2.07292 15.4306 1.85346 15.9944 1.85346C16.5582 1.85346 17.0989 2.07292 17.4976 2.46358C17.8963 2.85424 18.1202 3.38408 18.1202 3.93655V11.3713L15.9944 12.5519L13.8686 11.3762V3.93655ZM19.1159 15.4009L20.2461 16.0302L19.1159 16.6546V15.4009ZM16.9951 13.108L18.1202 12.4836V13.7324L16.9951 13.108ZM13.8686 13.7373V12.4836L14.9938 13.108L13.8686 13.7373ZM12.8729 16.6497L11.7378 16.0253L12.863 15.4009L12.8729 16.6497ZM14.9938 18.9426L13.8686 19.567V18.3182L14.9938 18.9426ZM18.1202 18.3182V19.567L16.9901 18.9426L18.1202 18.3182ZM15.9944 18.3865L13.8686 17.2059V14.8447L15.9944 13.6641L18.1202 14.8447V17.2059L15.9944 18.3865ZM25.812 8.21005C26.2995 7.94002 26.8754 7.86743 27.4168 8.0078C27.9581 8.14817 28.4221 8.49037 28.7095 8.96133C28.8483 9.19382 28.9384 9.45112 28.9744 9.71816C29.0105 9.98519 28.9918 10.2566 28.9195 10.5165C28.8472 10.7763 28.7227 11.0195 28.5532 11.2316C28.3838 11.4437 28.1729 11.6206 27.9328 11.7518L21.2418 15.4692L19.1159 14.2886V11.9274L25.812 8.21005ZM28.4357 19.4646L22.2424 16.0253L28.4406 12.586C28.7892 12.3958 29.0961 12.1402 29.3438 11.8337C29.5915 11.5273 29.7751 11.176 29.8842 10.8C29.9933 10.424 30.0258 10.0306 29.9797 9.64226C29.9336 9.25395 29.8098 8.87835 29.6156 8.53691L29.5807 8.47837C29.1566 7.78571 28.4729 7.2831 27.6756 7.07798C26.8783 6.87286 26.0308 6.98152 25.3141 7.38072L19.1259 10.82V3.94143C19.0937 3.15069 18.7505 2.40284 18.1681 1.85453C17.5858 1.30623 16.8095 1 16.0019 1C15.1943 1 14.418 1.30623 13.8357 1.85453C13.2534 2.40284 12.9101 3.15069 12.8779 3.94143V10.82L6.68467 7.38072C5.96836 6.98025 5.12039 6.87089 4.32273 7.0761C3.52507 7.28131 2.84129 7.78475 2.41811 8.47837C2.21627 8.81563 2.08424 9.18856 2.02954 9.57584C1.97485 9.96313 1.99858 10.3572 2.09937 10.7355C2.20016 11.1138 2.37604 11.4689 2.61695 11.7806C2.85787 12.0922 3.1591 12.3543 3.50342 12.5519L3.56317 12.586L9.75142 16.0253L3.56317 19.4646C3.2142 19.6544 2.90683 19.9097 2.65864 20.216C2.41045 20.5222 2.2263 20.8734 2.11671 21.2495C2.00713 21.6255 1.97427 22.0191 2.02001 22.4076C2.06574 22.7961 2.18918 23.172 2.38327 23.5137L2.41811 23.5722C2.84218 24.2649 3.52595 24.7675 4.32324 24.9726C5.12053 25.1777 5.96807 25.0691 6.68467 24.6699L12.8779 21.2306V28.1092C12.923 28.8905 13.2715 29.6254 13.8519 30.1629C14.4324 30.7005 15.2007 31 15.9994 31C16.7981 31 17.5665 30.7005 18.1469 30.1629C18.7274 29.6254 19.0759 28.8905 19.1209 28.1092V21.2306L25.3141 24.6699C26.0308 25.0691 26.8783 25.1777 27.6756 24.9726C28.4729 24.7675 29.1566 24.2649 29.5807 23.5722C29.7825 23.235 29.9146 22.862 29.9693 22.4748C30.024 22.0875 30.0002 21.6934 29.8995 21.3151C29.7987 20.9368 29.6228 20.5817 29.3819 20.27C29.141 19.9584 28.8397 19.6963 28.4954 19.4987L28.4357 19.4646Z" fill="#FF4A4A"/>
</svg>
