<svg width="34" height="32" viewBox="0 0 34 32" fill="none" xmlns="http://www.w3.org/2000/svg">
<path d="M5.51677 3L6.36979 3.16311L9.81893 3.84352L10.5792 3.99265C10.6285 4.00234 10.6737 4.0267 10.709 4.06256L13.5138 6.83079L15.8178 9.10504C15.9827 9.27441 16.1796 9.40898 16.397 9.50086C16.6143 9.59273 16.8477 9.64005 17.0834 9.64005C17.3192 9.64005 17.5526 9.59273 17.7699 9.50086C17.9873 9.40898 18.1842 9.27441 18.3491 9.10504L21.7889 5.71697L23.4718 4.06722C23.5025 4.03362 23.5431 4.01076 23.5877 4.00197L28.3951 3.0466C28.4866 3.02591 28.5797 3.01344 28.6733 3.00932L28.4601 3.21904L26.499 5.15773L22.489 9.12368L19.8696 11.7195C19.5898 12.0308 19.2756 12.3091 18.9332 12.549C18.4904 12.8453 17.9849 13.0336 17.457 13.0992C16.9291 13.1647 16.3932 13.1056 15.892 12.9265C15.5376 12.797 15.2162 12.5901 14.9509 12.3207L12.1091 9.52447L8.53014 5.99193L5.54459 3.05592L5.5075 3.02796L5.51677 3ZM0 13.7794H2.28552C5.80884 13.7794 9.32288 13.7794 12.8416 13.7887C13.3888 13.7799 13.9293 13.9109 14.4125 14.1692C14.8958 14.4276 15.3059 14.8049 15.6046 15.266C15.8954 15.6905 16.0477 16.1953 16.0404 16.7107V29L15.3913 28.2264L13.2495 25.6632C13.208 25.6123 13.1881 25.547 13.1939 25.4814V18.4443C13.199 18.0296 13.0587 17.6262 12.7977 17.3049C12.5366 16.9837 12.1714 16.7651 11.766 16.6874C11.6546 16.6652 11.5412 16.6542 11.4276 16.6548H4.38097C4.30333 16.6565 4.22712 16.6337 4.16308 16.5895L0.0880829 13.8493L0 13.7794ZM18.006 28.9953V28.7623L18.0014 25.3976L17.9828 19.1527L17.9735 16.9903C17.956 16.215 18.229 15.4615 18.7385 14.8792C19.0179 14.5383 19.3691 14.2641 19.7667 14.0763C20.1644 13.8886 20.5986 13.7919 21.0379 13.7933H33.9954L34 13.812L33.4761 14.1708L29.8416 16.6035C29.7855 16.6416 29.7191 16.6612 29.6515 16.6594H22.628C22.2112 16.6478 21.804 16.7859 21.4794 17.049C21.1548 17.3121 20.9342 17.6829 20.8571 18.0948C20.833 18.2223 20.8221 18.3519 20.8247 18.4816V25.4768C20.8279 25.5515 20.803 25.6247 20.7551 25.6818C19.8619 26.7568 18.9718 27.8334 18.0848 28.9115L18.006 28.9953Z" fill="#4A4A4A"/>
</svg>
