<svg width="32" height="32" viewBox="0 0 32 32" fill="none" xmlns="http://www.w3.org/2000/svg">
<path d="M26.5275 18.1651C25.106 20.359 23.2544 22.232 21.0881 23.6671C18.9218 25.1022 16.4874 26.0685 13.9368 26.5059L13.8301 26.56L12.9765 28.8348C12.9452 28.8912 12.898 28.9367 12.8409 28.9657C12.7839 28.9946 12.7196 29.0056 12.6564 28.9973H10.1489L10.8958 27.0475L10.5224 27.1016C10.0458 27.1558 9.619 27.21 9.24199 27.2641H9.08194L8.49508 28.8348C8.46374 28.8912 8.41652 28.9367 8.35949 28.9657C8.30246 28.9946 8.23821 29.0056 8.17498 28.9973H5.66752L6.30772 27.3724H5.93427C4.54716 27.3724 3.5335 27.2641 3.05335 27.2641L9.13529 12.0449H14.2036C14.2649 12.0488 14.3249 12.0652 14.3799 12.0931C14.4349 12.121 14.4838 12.1599 14.5237 12.2074C14.5502 12.2669 14.5639 12.3316 14.5639 12.3969C14.5639 12.4623 14.5502 12.5269 14.5237 12.5865L10.5224 23.1479H10.8958C13.6763 23.1699 16.3747 22.1922 18.5131 20.388C20.6516 18.5839 22.0921 16.0696 22.5796 13.2906C22.7359 12.5458 22.6224 11.7688 22.2598 11.1022C21.8972 10.4355 21.3098 9.92412 20.6056 9.6618C20.079 9.44994 19.5182 9.33973 18.9517 9.33684H3L4.97396 5.81637C5.04686 5.67694 5.15384 5.55887 5.28464 5.47351C5.41543 5.38815 5.56565 5.33836 5.72087 5.32892H14.6304L15.5373 3L18.2048 3.05416V3.10832L17.3512 5.32892H19.1118L20.0188 3L22.6863 3.05416V3.10832L21.8327 5.38308L22.1528 5.43725C23.4039 5.44239 24.6352 5.75554 25.7409 6.34983C26.8467 6.94413 27.7939 7.80183 28.5015 8.84939C29.5685 11.07 28.9283 14.2113 26.5275 18.1651Z" fill="#0063C6"/>
</svg>
