<svg width="32" height="32" viewBox="0 0 32 32" fill="none" xmlns="http://www.w3.org/2000/svg">
<path d="M26.9999 15.5393C26.9972 14.1173 26.8435 12.6997 26.5413 11.3105C26.2923 9.86922 25.7572 8.49299 24.9676 7.26372C24.1781 6.03445 23.1503 4.97727 21.9455 4.15513L21.9307 4.14523L21.8568 4.08581C18.6795 2.03782 14.9761 0.965656 11.2008 1.00084L11.1564 1.01569L10.9345 1.00084C10.9049 1.00084 10.8951 1.02065 10.8704 1.0256C10.7619 1.0256 10.6534 1.00579 10.5449 1.00084C10.341 1.01649 10.1466 1.09422 9.98774 1.22367L9.95815 1.23853L9.89898 1.26328C8.77963 2.00605 7.66028 2.76863 6.52121 3.46684C6.35106 3.56015 6.21156 3.70107 6.11965 3.87248C6.02774 4.0439 5.98737 4.23842 6.00345 4.43244V5.10093C6.02317 8.7504 6.02317 12.3999 6.02317 16.0444V27.2157C5.99398 27.3568 6.02171 27.5038 6.10027 27.6245C6.17884 27.7452 6.30184 27.8296 6.44231 27.8594L10.8556 29.7807C10.8852 29.7955 10.9148 29.7906 10.9444 29.8005L11.1268 29.8797C11.3113 29.9676 11.5146 30.0084 11.7185 29.9986L11.9404 29.9639C11.9949 29.9816 12.0511 29.9933 12.1081 29.9986L12.1574 29.9887L12.1968 29.9986C15.3963 29.7214 18.4899 28.7118 21.2404 27.0473L21.2503 27.0374L21.3292 26.9978C23.8462 25.5693 25.6972 23.1977 26.4772 20.402C26.8301 19.0272 27.0058 17.6126 26.9999 16.193C26.9999 16.1137 26.9752 16.0395 26.9752 15.9602C26.9752 15.8216 26.9999 15.678 26.9999 15.5393ZM7.29539 26.2253V16.5C7.29539 12.7366 7.31511 8.98314 7.29539 5.24453C7.28027 5.10481 7.30632 4.96371 7.37031 4.83872C7.4343 4.71372 7.53341 4.61034 7.65535 4.54138C8.47391 4.02639 9.27274 3.48664 10.0765 2.95185V22.8185C10.0617 23.175 10.185 23.3136 10.4414 23.383C10.5005 23.4384 10.5706 23.4806 10.647 23.5071C10.7235 23.5335 10.8046 23.5435 10.8852 23.5365C11.0035 23.5414 11.1169 23.5216 11.2353 23.5266L11.2698 23.5365H11.3635C13.6465 23.7464 15.9457 23.384 18.0549 22.4817C18.3261 22.3579 18.5826 22.1648 18.8488 22.0113C18.0408 22.9536 17.0704 23.742 15.9839 24.3387C13.3283 25.6783 10.4178 26.4314 7.44825 26.5472C7.40814 26.5419 7.36954 26.5284 7.33483 26.5076C7.30729 26.4145 7.29562 26.3174 7.30032 26.2203L7.29539 26.2253ZM21.2503 5.46241C22.8425 6.63137 24.0415 8.26044 24.6872 10.132C24.327 9.6842 23.924 9.27289 23.484 8.90391C22.3275 7.99061 21.0114 7.30208 19.6033 6.87367C18.0789 6.39947 16.5056 6.10207 14.9139 5.9873C14.8744 5.9873 14.8843 6.01206 14.8498 6.01701L14.6476 5.9873C14.5884 5.9873 14.5983 6.02196 14.549 6.02691L14.258 5.9873C14.0065 5.96749 13.8981 6.03682 13.8537 6.15071C13.7586 6.27858 13.7146 6.43757 13.7304 6.59637V7.26982C13.7304 12.0731 13.7107 16.8614 13.7304 21.6449C13.7592 21.8225 13.7205 22.0046 13.6219 22.1549C13.5003 22.2439 13.3532 22.2908 13.2028 22.2886C12.6752 22.2985 12.1574 22.3134 11.6199 22.2886C11.5426 22.2823 11.468 22.2568 11.4029 22.2143C11.3552 22.1427 11.331 22.0579 11.3339 21.9717L11.3487 19.7434V19.0501C11.3487 13.5867 11.3421 8.13803 11.329 2.70426C11.318 2.57809 11.3511 2.45202 11.4227 2.34773C11.4785 2.32794 11.5364 2.31465 11.5953 2.30811C13.2817 2.39215 14.9529 2.6713 16.5756 3.14002C18.2498 3.6584 19.8299 4.44425 21.2552 5.46736L21.2503 5.46241ZM15.0026 10.6618C14.9956 10.5832 15.011 10.5042 15.047 10.434C16.4828 10.8012 17.8243 11.4713 18.982 12.3999C20.0525 13.3351 20.7497 14.628 20.9445 16.0395C20.9852 17.2818 20.5632 18.4947 19.7611 19.4413C19.2026 20.0804 18.5303 20.6094 17.7788 21.0012C17.0395 21.3777 16.2626 21.6748 15.4612 21.8875L15.047 21.9816C15.0145 21.9171 14.9976 21.8459 14.9977 21.7736L15.0026 10.6618ZM9.61791 27.696C11.3395 27.4893 13.034 27.0975 14.6722 26.5274C15.6801 26.1705 16.6538 25.723 17.5816 25.1904C18.5298 24.6559 19.3723 23.9509 20.0668 23.1106C21.5735 21.3745 22.3667 19.1282 22.2858 16.8268C22.2858 16.7872 22.2661 16.7426 22.2611 16.703C22.2611 16.5297 22.2956 16.3564 22.2858 16.1781C22.2417 15.3733 22.0874 14.5785 21.8272 13.8161C21.5513 13.0124 21.0821 12.2895 20.4613 11.7116C19.8731 11.1414 19.2074 10.6579 18.4839 10.2756C17.4687 9.73623 16.388 9.33174 15.2689 9.07227C15.1898 9.0501 15.1172 9.00936 15.0569 8.95343C15.0054 8.86532 14.9846 8.76255 14.9977 8.66127V7.53721C14.994 7.46941 15.0058 7.40166 15.0322 7.33914C16.0844 7.44247 17.1276 7.62286 18.1536 7.87889C19.2297 8.16326 20.2654 8.58426 21.2355 9.13169C22.5704 9.89773 23.6762 11.0093 24.4377 12.3506C25.1992 13.6919 25.5884 15.2137 25.5649 16.7575C25.5447 18.7847 24.9556 20.765 23.8653 22.4713C22.7751 24.1775 21.2278 25.5404 19.4011 26.4036C17.059 27.6368 14.5028 28.4068 11.8714 28.6715L9.61791 27.696Z" fill="white"/>
<path d="M26.9999 15.5393C26.9972 14.1173 26.8435 12.6997 26.5413 11.3105C26.2923 9.86922 25.7572 8.49299 24.9676 7.26372C24.1781 6.03445 23.1503 4.97727 21.9455 4.15513L21.9307 4.14523L21.8568 4.08581C18.6795 2.03782 14.9761 0.965656 11.2008 1.00084L11.1564 1.01569L10.9345 1.00084C10.9049 1.00084 10.8951 1.02065 10.8704 1.0256C10.7619 1.0256 10.6534 1.00579 10.5449 1.00084C10.341 1.01649 10.1466 1.09422 9.98774 1.22367L9.95815 1.23853L9.89898 1.26328C8.77963 2.00605 7.66028 2.76863 6.52121 3.46684C6.35106 3.56015 6.21156 3.70107 6.11965 3.87248C6.02774 4.0439 5.98737 4.23842 6.00345 4.43244V5.10093C6.02317 8.7504 6.02317 12.3999 6.02317 16.0444V27.2157C5.99398 27.3568 6.02171 27.5038 6.10027 27.6245C6.17884 27.7452 6.30184 27.8296 6.44231 27.8594L10.8556 29.7807C10.8852 29.7955 10.9148 29.7906 10.9444 29.8005L11.1268 29.8797C11.3113 29.9676 11.5146 30.0084 11.7185 29.9986L11.9404 29.9639C11.9949 29.9816 12.0511 29.9933 12.1081 29.9986L12.1574 29.9887L12.1968 29.9986C15.3963 29.7214 18.4899 28.7118 21.2404 27.0473L21.2503 27.0374L21.3292 26.9978C23.8462 25.5693 25.6972 23.1977 26.4772 20.402C26.8301 19.0272 27.0058 17.6126 26.9999 16.193C26.9999 16.1137 26.9752 16.0395 26.9752 15.9602C26.9752 15.8216 26.9999 15.678 26.9999 15.5393ZM7.29539 26.2253V16.5C7.29539 12.7366 7.31511 8.98314 7.29539 5.24453C7.28027 5.10481 7.30632 4.96371 7.37031 4.83872C7.4343 4.71372 7.53341 4.61034 7.65535 4.54138C8.47391 4.02639 9.27274 3.48664 10.0765 2.95185V22.8185C10.0617 23.175 10.185 23.3136 10.4414 23.383C10.5005 23.4384 10.5706 23.4806 10.647 23.5071C10.7235 23.5335 10.8046 23.5435 10.8852 23.5365C11.0035 23.5414 11.1169 23.5216 11.2353 23.5266L11.2698 23.5365H11.3635C13.6465 23.7464 15.9457 23.384 18.0549 22.4817C18.3261 22.3579 18.5826 22.1648 18.8488 22.0113C18.0408 22.9536 17.0704 23.742 15.9839 24.3387C13.3283 25.6783 10.4178 26.4314 7.44825 26.5472C7.40814 26.5419 7.36954 26.5284 7.33483 26.5076C7.30729 26.4145 7.29562 26.3174 7.30032 26.2203L7.29539 26.2253ZM21.2503 5.46241C22.8425 6.63137 24.0415 8.26044 24.6872 10.132C24.327 9.6842 23.924 9.27289 23.484 8.90391C22.3275 7.99061 21.0114 7.30208 19.6033 6.87367C18.0789 6.39947 16.5056 6.10207 14.9139 5.9873C14.8744 5.9873 14.8843 6.01206 14.8498 6.01701L14.6476 5.9873C14.5884 5.9873 14.5983 6.02196 14.549 6.02691L14.258 5.9873C14.0065 5.96749 13.8981 6.03682 13.8537 6.15071C13.7586 6.27858 13.7146 6.43757 13.7304 6.59637V7.26982C13.7304 12.0731 13.7107 16.8614 13.7304 21.6449C13.7592 21.8225 13.7205 22.0046 13.6219 22.1549C13.5003 22.2439 13.3532 22.2908 13.2028 22.2886C12.6752 22.2985 12.1574 22.3134 11.6199 22.2886C11.5426 22.2823 11.468 22.2568 11.4029 22.2143C11.3552 22.1427 11.331 22.0579 11.3339 21.9717L11.3487 19.7434V19.0501C11.3487 13.5867 11.3421 8.13803 11.329 2.70426C11.318 2.57809 11.3511 2.45202 11.4227 2.34773C11.4785 2.32794 11.5364 2.31465 11.5953 2.30811C13.2817 2.39215 14.9529 2.6713 16.5756 3.14002C18.2498 3.6584 19.8299 4.44425 21.2552 5.46736L21.2503 5.46241ZM15.0026 10.6618C14.9956 10.5832 15.011 10.5042 15.047 10.434C16.4828 10.8012 17.8243 11.4713 18.982 12.3999C20.0525 13.3351 20.7497 14.628 20.9445 16.0395C20.9852 17.2818 20.5632 18.4947 19.7611 19.4413C19.2026 20.0804 18.5303 20.6094 17.7788 21.0012C17.0395 21.3777 16.2626 21.6748 15.4612 21.8875L15.047 21.9816C15.0145 21.9171 14.9976 21.8459 14.9977 21.7736L15.0026 10.6618ZM9.61791 27.696C11.3395 27.4893 13.034 27.0975 14.6722 26.5274C15.6801 26.1705 16.6538 25.723 17.5816 25.1904C18.5298 24.6559 19.3723 23.9509 20.0668 23.1106C21.5735 21.3745 22.3667 19.1282 22.2858 16.8268C22.2858 16.7872 22.2661 16.7426 22.2611 16.703C22.2611 16.5297 22.2956 16.3564 22.2858 16.1781C22.2417 15.3733 22.0874 14.5785 21.8272 13.8161C21.5513 13.0124 21.0821 12.2895 20.4613 11.7116C19.8731 11.1414 19.2074 10.6579 18.4839 10.2756C17.4687 9.73623 16.388 9.33174 15.2689 9.07227C15.1898 9.0501 15.1172 9.00936 15.0569 8.95343C15.0054 8.86532 14.9846 8.76255 14.9977 8.66127V7.53721C14.994 7.46941 15.0058 7.40166 15.0322 7.33914C16.0844 7.44247 17.1276 7.62286 18.1536 7.87889C19.2297 8.16326 20.2654 8.58426 21.2355 9.13169C22.5704 9.89773 23.6762 11.0093 24.4377 12.3506C25.1992 13.6919 25.5884 15.2137 25.5649 16.7575C25.5447 18.7847 24.9556 20.765 23.8653 22.4713C22.7751 24.1775 21.2278 25.5404 19.4011 26.4036C17.059 27.6368 14.5028 28.4068 11.8714 28.6715L9.61791 27.696Z" fill="url(#paint0_linear_22_389)"/>
<defs>
<linearGradient id="paint0_linear_22_389" x1="16.5" y1="1" x2="16.5" y2="30" gradientUnits="userSpaceOnUse">
<stop stop-color="#92318C"/>
<stop offset="1" stop-color="#3B0A8C"/>
</linearGradient>
</defs>
</svg>
