<svg width="32" height="32" viewBox="0 0 32 32" fill="none" xmlns="http://www.w3.org/2000/svg">
<path d="M16.4447 11.0042H14V15.1305H17.8476V16.8566H14V20.9861H16.5664C17.3084 21.0373 18.0545 20.9467 18.7507 20.721C19.4469 20.4952 20.076 20.1399 20.5925 19.6807C21.1089 19.2214 21.5 18.6697 21.7374 18.0653C21.9748 17.4609 22.0526 16.819 21.9652 16.1857C22.0521 15.5254 21.9732 14.8569 21.7339 14.2248C21.4946 13.5928 21.1003 13.0119 20.5776 12.5209C20.0549 12.03 19.4157 11.6404 18.703 11.3783C17.9902 11.1162 17.2202 10.9875 16.4447 11.001V11.0042Z" fill="#C2A633"/>
<path d="M16 1C13.0333 1 10.1332 1.87973 7.66645 3.52796C5.19972 5.17618 3.27713 7.51886 2.14181 10.2597C1.0065 13.0006 0.709449 16.0166 1.28823 18.9263C1.86701 21.8361 3.29562 24.5088 5.3934 26.6066C7.49119 28.7044 10.1639 30.133 13.0736 30.7118C15.9834 31.2906 18.9994 30.9935 21.7403 29.8582C24.4811 28.7229 26.8238 26.8003 28.472 24.3335C30.1203 21.8668 31 18.9667 31 16C31 12.0217 29.4196 8.20644 26.6066 5.3934C23.7936 2.58035 19.9782 1 16 1ZM16.59 24.1H11.1567V16.88H9.24334V15.1133H11.1567V7.88333H15.82C16.9416 7.75451 18.0778 7.87796 19.1456 8.24467C20.2133 8.61138 21.1857 9.21208 21.9914 10.0028C22.7972 10.7936 23.4161 11.7545 23.8028 12.8151C24.1896 13.8758 24.3344 15.0095 24.2267 16.1333C24.3569 17.1822 24.2519 18.2469 23.9191 19.25C23.5862 20.2532 23.0341 21.1696 22.3027 21.9326C21.5713 22.6955 20.6791 23.286 19.6909 23.6609C18.7027 24.0358 17.6434 24.1858 16.59 24.1Z" fill="#C2A633"/>
</svg>
