<svg width="32" height="32" viewBox="0 0 32 32" fill="none" xmlns="http://www.w3.org/2000/svg">
<path d="M16.1293 7.66047C18.8183 7.66047 20.9983 6.39333 20.9983 4.83024C20.9983 3.26714 18.8183 2 16.1293 2C13.4402 2 11.2603 3.26714 11.2603 4.83024C11.2603 6.39333 13.4402 7.66047 16.1293 7.66047Z" fill="#E6007A"/>
<path d="M16.1293 29C18.8183 29 20.9983 27.7329 20.9983 26.1698C20.9983 24.6067 18.8183 23.3395 16.1293 23.3395C13.4402 23.3395 11.2603 24.6067 11.2603 26.1698C11.2603 27.7329 13.4402 29 16.1293 29Z" fill="#E6007A"/>
<path d="M9.34532 11.5829C10.6899 9.25409 10.6806 6.73153 9.32452 5.94857C7.96846 5.16562 5.77916 6.41876 4.43458 8.74755C3.09 11.0763 3.09931 13.5989 4.45537 14.3819C5.81143 15.1648 8.00074 13.9117 9.34532 11.5829Z" fill="#E6007A"/>
<path d="M27.8176 22.2501C29.1622 19.9213 29.1548 17.3998 27.8011 16.6183C26.4475 15.8367 24.2601 17.091 22.9155 19.4198C21.571 21.7485 21.5783 24.27 22.932 25.0516C24.2857 25.8331 26.473 24.5789 27.8176 22.2501Z" fill="#E6007A"/>
<path d="M9.32452 25.0514C10.6806 24.2685 10.6899 21.7459 9.34532 19.4171C8.00074 17.0884 5.81143 15.8352 4.45537 16.6182C3.09931 17.4011 3.09 19.9237 4.43458 22.2525C5.77916 24.5813 7.96846 25.8344 9.32452 25.0514Z" fill="#E6007A"/>
<path d="M27.8011 14.3868C29.1548 13.6052 29.1622 11.0838 27.8176 8.75497C26.473 6.42619 24.2857 5.17192 22.932 5.95349C21.5783 6.73506 21.571 9.25651 22.9155 11.5853C24.2601 13.9141 26.4475 15.1683 27.8011 14.3868Z" fill="#E6007A"/>
</svg>
