<svg width="32" height="32" viewBox="0 0 32 32" fill="none" xmlns="http://www.w3.org/2000/svg">
<mask id="mask0_22_412" style="mask-type:luminance" maskUnits="userSpaceOnUse" x="2" y="2" width="28" height="28">
<path d="M30 2.00229H2V29.913H30V2V2.00229Z" fill="white"/>
</mask>
<g mask="url(#mask0_22_412)">
<path d="M3.52094 19.4078C2.91269 18.8139 2.4773 18.0658 2.26133 17.2435C2.05287 16.4346 2.05287 15.586 2.26133 14.777C2.47161 13.9525 2.90413 13.2015 3.51178 12.6059C4.14387 11.9761 4.87216 11.557 5.69663 11.3486C6.5211 11.1424 7.34557 11.1424 8.17234 11.3486C8.99681 11.557 9.7228 11.9738 10.348 12.599L11.9008 14.1449L14.1979 11.8547L12.6474 10.3088C12.0391 9.71495 11.6036 8.96685 11.3878 8.14457C11.1787 7.3384 11.1755 6.4926 11.3786 5.68489C11.5899 4.85611 12.0258 4.10168 12.6382 3.50462C13.236 2.89673 13.9895 2.46494 14.8162 2.25646C15.6407 2.05034 16.4652 2.05034 17.285 2.26333C18.1095 2.47174 18.8355 2.88856 19.4607 3.51378C20.0883 4.13672 20.5051 4.86042 20.7135 5.68489C20.9288 6.5025 20.931 7.32239 20.7226 8.14457C20.5165 8.97362 20.1043 9.69962 19.4768 10.3226L17.9332 11.8616L20.2234 14.1449L21.7647 12.6059C22.3922 11.9807 23.1159 11.5616 23.9358 11.3486C24.7603 11.1424 25.5847 11.1424 26.4046 11.3554C27.2291 11.5638 27.9574 11.9829 28.5895 12.615C29.2147 13.238 29.6315 13.9617 29.8399 14.7839C30.0552 15.6015 30.0552 16.4191 29.8399 17.2367C29.6338 18.0611 29.2147 18.7826 28.5895 19.4078C27.9902 20.0192 27.2344 20.4541 26.4046 20.6651C25.5938 20.8678 24.7451 20.8647 23.9358 20.6559C23.1149 20.4447 22.3673 20.0131 21.7738 19.4078L20.2302 17.8688L17.9332 20.159L19.4768 21.698C20.102 22.3232 20.5188 23.0446 20.7226 23.8599C20.9288 24.6844 20.9288 25.5066 20.7226 26.3288C20.5109 27.1567 20.0751 27.9103 19.463 28.5067C18.8401 29.1251 18.1141 29.5442 17.285 29.7572C16.4606 29.9633 15.6361 29.9633 14.8093 29.7572C13.9882 29.5452 13.2406 29.1128 12.6474 28.5067C12.0358 27.9121 11.5973 27.1624 11.3786 26.3379C11.1698 25.5282 11.1698 24.6788 11.3786 23.8691C11.5985 23.0446 12.0199 22.3255 12.6382 21.7049L14.1956 20.1521L11.9077 17.8688L10.3503 19.4238C9.72967 20.0422 8.9991 20.4544 8.16547 20.6651C7.34099 20.8712 6.51652 20.8712 5.68976 20.6651C4.86648 20.4497 4.11698 20.0152 3.52094 19.4078ZM5.38287 17.5481C5.65529 17.8173 5.99265 18.0114 6.36223 18.1117C6.7318 18.2121 7.12103 18.2151 7.49215 18.1207C7.86579 18.0266 8.20643 17.8317 8.47693 17.5573L10.0366 16.0022L8.48609 14.4564C8.21061 14.1923 7.87245 14.0026 7.50345 13.9052C7.13445 13.8079 6.74674 13.806 6.37682 13.8998C5.99924 13.9959 5.65538 14.194 5.38287 14.4724C5.10881 14.7401 4.91116 15.0761 4.81032 15.4457C4.70941 15.8157 4.70929 16.206 4.80996 16.5761C4.91063 16.9461 5.10843 17.2825 5.38287 17.5504V17.5481ZM14.5116 8.44917L16.0621 9.99505L17.6057 8.45604C17.882 8.18848 18.0779 7.84895 18.1714 7.47583C18.3135 6.91573 18.23 6.32218 17.9387 5.8231C17.6474 5.32402 17.1716 4.95938 16.614 4.80775C16.2467 4.71331 15.8614 4.71331 15.4941 4.80775C15.1197 4.90007 14.7786 5.09521 14.5093 5.37114C14.2336 5.64236 14.0338 5.98112 13.9299 6.35363C13.8354 6.7194 13.8354 7.10319 13.9299 7.46896C14.033 7.83997 14.2276 8.16747 14.5116 8.44917ZM21.657 16.0114L23.2006 17.5481C23.47 17.8225 23.8075 18.0201 24.1786 18.1207C24.5496 18.2169 25.358 18.2123 25.7244 18.1138C26.1011 18.0173 26.4441 17.8192 26.7161 17.5413C26.9933 17.274 27.19 16.9344 27.2841 16.5611C27.3841 16.1946 27.3851 15.8082 27.2869 15.4412C27.1888 15.0742 26.9949 14.7399 26.7253 14.4724C26.4534 14.1943 26.1104 13.9963 25.7336 13.8998C25.2188 13.8054 24.6911 13.8054 24.1763 13.8998C23.8054 13.9993 23.4683 14.1971 23.2006 14.4724L21.657 16.0114ZM14.5116 26.6494C14.7809 26.9187 15.1164 27.1121 15.4843 27.2102C15.8523 27.3083 16.2396 27.3076 16.6071 27.2082C16.9811 27.1136 17.3218 26.9179 17.5919 26.6425C17.87 26.3716 18.0681 26.0293 18.1645 25.6532C18.2638 25.2906 18.2662 24.9084 18.1714 24.5447C18.0825 24.1687 17.8887 23.8256 17.6125 23.5553L16.0689 22.0186L14.5116 23.5714C14.2367 23.8388 14.0383 24.1748 13.9368 24.5447C13.8422 24.9105 13.8422 25.2943 13.9368 25.66C14.0331 26.0361 14.2312 26.3784 14.5093 26.6494H14.5116ZM13.7719 16.0114L16.0621 18.2924L18.3591 16.0022L16.0689 13.7212L13.7719 16.0114Z" fill="#F1DFD3"/>
</g>
</svg>
