<svg width="32" height="32" viewBox="0 0 32 32" fill="none" xmlns="http://www.w3.org/2000/svg">
<path d="M1.21765 23.3141C1.00932 22.8041 1.00932 22.8095 1.51918 22.5464L7.45111 19.5025C7.62294 19.3346 7.82821 19.203 8.05417 19.116C9.15064 18.5791 10.2197 17.9886 11.3162 17.4518C12.0234 17.0921 12.7251 16.7324 13.4214 16.3566C13.5974 16.2831 13.7694 16.2006 13.9368 16.1096C14.008 16.0774 14.1122 16.056 14.1067 15.9647C14.1012 15.8734 13.9971 15.8573 13.9258 15.8251C13.2405 15.4708 12.5552 15.1111 11.8644 14.7622L5.72416 11.627C4.45225 10.9828 3.1913 10.3117 1.91391 9.67821C1.63979 9.53863 1.38212 9.37758 1.108 9.24337C1.03125 9.18968 0.970943 9.11989 1.0148 9.01789C1.7001 7.7563 2.40184 6.49471 3.07617 5.22775C3.19679 5.00227 3.2845 4.96469 3.53121 5.06132C7.47852 6.60029 11.4313 8.13746 15.3896 9.67284C15.5848 9.75088 15.7939 9.79012 16.0047 9.78827C16.2155 9.78643 16.4239 9.74354 16.6176 9.66211L27.6043 5.39417C27.8949 5.2868 28.1964 5.19017 28.476 5.05059C28.6953 4.94322 28.7885 5.01301 28.8872 5.2009C29.5286 6.40344 30.181 7.59524 30.8279 8.78705C30.8718 8.86757 30.9211 8.93736 30.9705 9.01252C31.0417 9.11989 30.9705 9.17358 30.8992 9.23263C30.8248 9.27789 30.748 9.31911 30.669 9.3561C30.4658 9.45208 30.2647 9.55232 30.0659 9.65674C28.2128 10.6284 26.3434 11.5679 24.4903 12.5289C23.5199 13.0281 22.5386 13.522 21.5682 14.0267C20.3676 14.6387 19.1615 15.2346 17.9773 15.8681C17.9219 15.89 17.8742 15.9273 17.8402 15.9754C18.0595 16.1472 18.3336 16.2224 18.5529 16.3834C18.975 16.6143 19.4301 16.7861 19.8358 17.0384C20.2963 17.2853 20.7788 17.4893 21.2283 17.7524C22.1713 18.2302 23.1142 18.7026 24.0462 19.1965C24.1513 19.2317 24.2418 19.2996 24.3039 19.3898L26.9245 20.7426L30.5319 22.6001C30.9814 22.831 30.9869 22.8256 30.7896 23.2605C30.7212 23.518 30.61 23.7629 30.4606 23.9852C30.0864 24.6607 29.7209 25.3408 29.3641 26.0252C29.2311 26.234 29.1121 26.451 29.0078 26.6748C28.8214 27.0291 28.7446 27.0613 28.3664 26.9164L22.1164 24.4952C20.2963 23.7866 18.4707 23.0887 16.656 22.3693C16.4481 22.2822 16.2243 22.2372 15.9981 22.2372C15.772 22.2372 15.5482 22.2822 15.3402 22.3693L6.78774 25.687C5.69126 26.1111 4.61124 26.5406 3.51476 26.954C3.47273 26.979 3.42542 26.9943 3.37644 26.9987C3.32746 27.0031 3.2781 26.9965 3.23211 26.9794C3.18612 26.9623 3.14472 26.9352 3.11105 26.9001C3.07737 26.865 3.05232 26.8228 3.0378 26.7768C2.83495 26.4117 2.64855 26.0413 2.44022 25.6763L1.29989 23.5933C1.24251 23.5113 1.21367 23.4134 1.21765 23.3141Z" fill="#24F7DD"/>
</svg>
