<svg width="32" height="32" viewBox="0 0 32 32" fill="none" xmlns="http://www.w3.org/2000/svg">
<path d="M23.5596 21.5497C24.6361 21.5487 25.6882 21.2225 26.583 20.6123C27.4777 20.0022 28.1749 19.1354 28.5864 18.1215C28.998 17.1076 29.1054 15.9922 28.8951 14.9161C28.6849 13.84 28.1664 12.8516 27.4051 12.0758C26.6439 11.2999 25.6741 10.7715 24.6182 10.5572C23.5624 10.3429 22.4679 10.4524 21.4731 10.8718C20.4784 11.2913 19.6279 12.0018 19.0292 12.9137C18.4305 13.8256 18.1104 14.8979 18.1095 15.9951C18.1095 16.7239 18.2503 17.4455 18.524 18.1189C18.7976 18.7922 19.1987 19.404 19.7044 19.9193C20.7255 20.9601 22.1106 21.5448 23.5547 21.5448L23.5596 21.5497ZM16.6735 8.35323C17.1929 8.35323 17.7007 8.19625 18.1325 7.90214C18.5644 7.60803 18.901 7.19 19.0998 6.70091C19.2986 6.21182 19.3506 5.67365 19.2493 5.15443C19.1479 4.63522 18.8978 4.15829 18.5305 3.78396C18.1632 3.40963 17.6953 3.15471 17.1858 3.05143C16.6764 2.94815 16.1483 3.00116 15.6684 3.20375C15.1886 3.40633 14.7784 3.7494 14.4898 4.18957C14.2012 4.62974 14.0472 5.14723 14.0472 5.67662C14.0472 6.3865 14.3239 7.06731 14.8164 7.56927C15.3089 8.07123 15.9769 8.35323 16.6735 8.35323ZM16.6735 29C17.1929 29 17.7007 28.843 18.1325 28.5489C18.5644 28.2548 18.901 27.8368 19.0998 27.3477C19.2986 26.8586 19.3506 26.3204 19.2493 25.8012C19.1479 25.282 18.8978 24.8051 18.5305 24.4307C18.1632 24.0564 17.6953 23.8015 17.1858 23.6982C16.6764 23.5949 16.1483 23.6479 15.6684 23.8505C15.1886 24.0531 14.7784 24.3962 14.4898 24.8363C14.2012 25.2765 14.0472 25.794 14.0472 26.3234C14.0472 27.0333 14.3239 27.7141 14.8164 28.216C15.3089 28.718 15.9769 29 16.6735 29ZM15.4688 20.0026C15.6274 20.0555 15.7934 20.0821 15.9603 20.0812C16.2451 20.0808 16.525 20.0048 16.7724 19.8609C17.0198 19.7169 17.2262 19.5099 17.3714 19.2601C17.5166 19.0104 17.5956 18.7264 17.6006 18.4361C17.6056 18.1458 17.5366 17.8592 17.4001 17.6044C17.2637 17.3495 17.0646 17.1352 16.8223 16.9824C16.5801 16.8296 16.3031 16.7437 16.0184 16.7329C15.7337 16.7222 15.4512 16.7871 15.1986 16.9212C14.9459 17.0553 14.7318 17.254 14.5773 17.4979V17.5127C14.5248 17.5786 14.484 17.6534 14.4568 17.7337C12.6449 20.9898 9.01155 18.8141 9.01155 18.8141C8.48786 18.4958 7.89914 18.3051 7.29125 18.2567C6.68337 18.2083 6.07273 18.3036 5.5069 18.5351C4.94106 18.7667 4.43532 19.1282 4.02906 19.5916C3.6228 20.055 3.32698 20.6077 3.16466 21.2068C3.00235 21.8058 2.9779 22.4349 3.09324 23.0451C3.20857 23.6553 3.46057 24.2301 3.82961 24.7248C4.19864 25.2195 4.67475 25.6207 5.22084 25.8971C5.76694 26.1735 6.36827 26.3177 6.97801 26.3185C7.70175 26.319 8.41164 26.1163 9.02968 25.7325C9.64771 25.3486 10.15 24.7986 10.4813 24.1428V24.133C10.5988 23.9051 10.6956 23.6667 10.7704 23.4209C12.6594 19.0008 15.4688 20.0026 15.4688 20.0026ZM14.5387 14.0797C14.6174 14.2305 14.7163 14.3694 14.8327 14.4923C15.0334 14.6969 15.2829 14.8449 15.5566 14.9217C15.8304 14.9984 16.119 15.0014 16.3942 14.9303C16.6694 14.8591 16.9218 14.7163 17.1265 14.5158C17.3312 14.3153 17.4813 14.0641 17.5621 13.7866C17.6429 13.5092 17.6515 13.2152 17.5872 12.9333C17.5228 12.6515 17.3877 12.3915 17.1951 12.1789C17.0025 11.9663 16.759 11.8084 16.4885 11.7206C16.2179 11.6328 15.9296 11.6182 15.6519 11.6781H15.6374C15.552 11.6937 15.4692 11.7218 15.3917 11.7616C11.845 12.7635 10.7849 8.59388 10.7849 8.59388C10.5927 7.81047 10.1739 7.10404 9.5828 6.56629C8.99171 6.02854 8.25565 5.68431 7.47019 5.5783C6.68472 5.47229 5.88612 5.60938 5.17807 5.97179C4.47002 6.3342 3.88522 6.90517 3.49959 7.6106C3.11396 8.31602 2.94532 9.12331 3.01556 9.92765C3.0858 10.732 3.39167 11.4962 3.89347 12.1212C4.39526 12.7461 5.06981 13.2028 5.82953 13.4321C6.58925 13.6614 7.39905 13.6526 8.1538 13.4069H8.16826C8.40794 13.3223 8.64143 13.2206 8.86699 13.1024C13.2521 11.3343 14.5387 14.0797 14.5387 14.0797Z" fill="#1C82E8"/>
</svg>
