<svg width="32" height="32" viewBox="0 0 32 32" fill="none" xmlns="http://www.w3.org/2000/svg">
<path d="M7.20485 13.2857C7.47929 13.8731 8.16779 15.0431 8.16779 15.0431L16.0447 2L8.37482 7.3684C7.92047 7.68194 7.54209 8.09322 7.26744 8.57208C6.91675 9.30735 6.72956 10.1099 6.71876 10.9244C6.70795 11.739 6.87379 12.5414 7.20485 13.2857Z" fill="url(#paint0_linear_22_436)"/>
<path d="M4.10804 17.5563C4.19646 18.8004 4.54875 20.0115 5.14148 21.109C5.73421 22.2064 6.5538 23.1651 7.54574 23.9213L16.0437 29.8338C16.0437 29.8338 10.7186 22.164 6.24095 14.523C5.78533 13.7135 5.48181 12.8274 5.34542 11.9086C5.27619 11.4974 5.27619 11.0776 5.34542 10.6664C5.24431 10.8735 5.00357 11.3212 5.00357 11.3212C4.55504 12.2592 4.24217 13.2562 4.07433 14.2823C3.965 15.3683 3.97631 16.4631 4.10804 17.5466V17.5563Z" fill="#A0A8D4"/>
<path d="M25.7793 18.5866C25.5048 17.9992 24.8163 16.8293 24.8163 16.8293L16.9395 29.8386L24.643 24.5039C25.0974 24.1905 25.4759 23.7792 25.7504 23.3002C26.0957 22.5625 26.2772 21.7587 26.2822 20.9442C26.2872 20.1296 26.1156 19.3285 25.7793 18.5866Z" fill="url(#paint1_linear_22_436)"/>
<path d="M28.9127 14.2822C28.8237 13.0377 28.4707 11.8264 27.8771 10.7289C27.2835 9.63137 26.463 8.67288 25.4702 7.91717L16.9771 2.00471C16.9771 2.00471 22.3118 9.67936 26.7846 17.3155C27.2408 18.1264 27.5443 19.0142 27.6802 19.9347C27.7484 20.3443 27.7484 20.7624 27.6802 21.1721C27.7813 20.965 28.022 20.5173 28.022 20.5173C28.4649 19.5905 28.7776 18.6071 28.9512 17.5947C29.0259 16.4946 29.0146 15.3903 28.9175 14.2919L28.9127 14.2822Z" fill="#A0A8D4"/>
<path d="M7.2713 8.57208C7.53432 8.08634 7.91301 7.67292 8.37387 7.3684L16.0437 2.00481L8.16684 15.0093C8.16684 15.0093 7.47833 13.8394 7.2039 13.252C6.87465 12.5138 6.71013 11.7128 6.72177 10.9046C6.73341 10.0964 6.92093 9.30046 7.2713 8.57208ZM4.10804 17.5563C4.19579 18.8013 4.54776 20.0133 5.14052 21.1117C5.73327 22.21 6.55321 23.1695 7.54574 23.9262L16.0437 29.8338C16.0437 29.8338 10.7186 22.164 6.24095 14.5231C5.78533 13.7136 5.48181 12.8275 5.34542 11.9087C5.27619 11.4975 5.27619 11.0777 5.34542 10.6665C5.24431 10.8735 5.00357 11.3213 5.00357 11.3213C4.55504 12.2593 4.24217 13.2563 4.07433 14.2823C3.965 15.3684 3.97631 16.4632 4.10804 17.5467V17.5563ZM25.7839 18.5915C25.5046 18.0041 24.8209 16.8341 24.8209 16.8341L16.9344 29.8387L24.638 24.504C25.0924 24.1905 25.4708 23.7792 25.7453 23.3003C26.0915 22.5629 26.2737 21.7593 26.2796 20.9448C26.2854 20.1302 26.1146 19.3241 25.7791 18.5819L25.7839 18.5915ZM28.8797 14.3257C28.7907 13.0811 28.4377 11.8698 27.8441 10.7723C27.2505 9.67481 26.43 8.71632 25.4372 7.96061L16.9778 2C16.9778 2 22.3125 9.67465 26.7853 17.3108C27.2415 18.1217 27.545 19.0095 27.6809 19.93C27.7491 20.3396 27.7491 20.7577 27.6809 21.1674C27.782 20.9603 28.0227 20.5126 28.0227 20.5126C28.4656 19.5858 28.7783 18.6024 28.9519 17.59C29.0333 16.499 29.0108 15.4028 28.8845 14.316L28.8797 14.3257Z" fill="url(#paint2_linear_22_436)"/>
<defs>
<linearGradient id="paint0_linear_22_436" x1="16.4009" y1="2.33221" x2="6.29005" y2="13.2905" gradientUnits="userSpaceOnUse">
<stop offset="0.58" stop-color="#A0A8D4"/>
<stop offset="0.73" stop-color="#8791C7"/>
<stop offset="0.91" stop-color="#6470B4"/>
</linearGradient>
<linearGradient id="paint1_linear_22_436" x1="16.6121" y1="29.5353" x2="26.7181" y2="18.5866" gradientUnits="userSpaceOnUse">
<stop offset="0.58" stop-color="#A0A8D4"/>
<stop offset="0.73" stop-color="#8791C7"/>
<stop offset="0.91" stop-color="#6470B4"/>
</linearGradient>
<linearGradient id="paint2_linear_22_436" x1="16.4963" y1="1.86519" x2="16.4963" y2="29.9446" gradientUnits="userSpaceOnUse">
<stop stop-color="#513EFF"/>
<stop offset="0.18" stop-color="#5157FF"/>
<stop offset="0.57" stop-color="#5298FF"/>
<stop offset="1" stop-color="#52E5FF"/>
</linearGradient>
</defs>
</svg>
