<svg width="32" height="32" viewBox="0 0 32 32" fill="none" xmlns="http://www.w3.org/2000/svg">
<path d="M25.9789 24.0308L22.6969 11.4519C22.675 11.3677 22.6368 11.2887 22.5844 11.2192L16.5243 3.25973C16.4628 3.17933 16.3836 3.1141 16.2927 3.06907C16.2019 3.02403 16.102 3.00041 16.0006 3.00001C15.8991 2.9996 15.799 3.02244 15.7078 3.06675C15.6167 3.11106 15.5369 3.17567 15.4747 3.25558L9.34386 11.2192C9.2906 11.2897 9.25233 11.3703 9.2314 11.456L6.02018 24.035C5.98457 24.1746 5.99631 24.3221 6.05358 24.4544C6.11084 24.5866 6.21041 24.6963 6.33672 24.7661L15.6788 29.9174C15.777 29.9716 15.8873 30 15.9995 30C16.1117 30 16.2221 29.9716 16.3202 29.9174L25.6623 24.7661C25.7895 24.6961 25.8896 24.5857 25.947 24.4526C26.0043 24.3195 26.0155 24.1711 25.9789 24.0308ZM23.6423 20.2879L21.1391 16.3414L21.9721 13.8945L23.6423 20.2879ZM16.6576 5.60271L21.3224 11.7343L20.2353 14.9165L16.6618 9.28336L16.6576 5.60271ZM15.9995 10.6999L19.6897 16.5159L17.2907 23.5365H14.6876L12.2802 16.5657L15.9995 10.6999ZM15.3415 5.5861V9.28336L11.7262 14.9746L10.6059 11.7343L15.3415 5.5861ZM9.96028 13.9029L10.8224 16.3954L8.3151 20.3502L9.96028 13.9029ZM11.3722 17.9865L13.2881 23.5406H7.85278L11.3722 17.9865ZM9.20225 24.8492H13.7463L14.8208 27.9483L9.20225 24.8492ZM15.9954 27.321L15.1415 24.8492H16.8409L15.9954 27.321ZM17.1741 27.9524L18.232 24.8492H22.7968L17.1741 27.9524ZM18.6776 23.5406L20.5935 17.9408L24.1463 23.5406H18.6776Z" fill="#23324B"/>
</svg>
