<svg width="32" height="32" viewBox="0 0 32 32" fill="none" xmlns="http://www.w3.org/2000/svg">
<path d="M16.0026 16.922L8.31469 16.2846L16.0026 12.0662V16.922ZM16.0026 21.8693V29.5692L8 17.4995L16.0066 21.8733L16.0026 21.8693ZM16.0026 10.7039L8 15.0298L16.0066 3L16.0026 10.7039Z" fill="#3C873C"/>
<path d="M23.6894 16.2846L16.0015 16.922V12.0662L23.6894 16.2846ZM16.0015 21.8693C18.264 20.6265 21.1918 19.0252 23.9961 17.4956L16.0015 29.5652V21.8693ZM16.0015 10.7039V3L23.9961 15.0298L16.0015 10.7039Z" fill="#3C873C" fill-opacity="0.601"/>
<path opacity="0.2" fill-rule="evenodd" clip-rule="evenodd" d="M16.0015 16.9221L23.6894 16.2847L16.0015 20.4673V16.9221Z" fill="#3C873C"/>
<path opacity="0.603" fill-rule="evenodd" clip-rule="evenodd" d="M15.9995 16.9221L8.31152 16.2847L15.9995 20.4673V16.9221Z" fill="#3C873C"/>
<g opacity="0.2">
<path d="M16.0054 16.934L8.31746 16.2967L16.0054 12.0783V16.934ZM16.0054 21.8814V29.5813L8.01074 17.5116C10.815 19.0412 13.7389 20.6386 16.0054 21.8814ZM16.0054 10.7159L8.01074 15.0419L16.0054 3.01205V10.7159Z" fill="#3C873C"/>
<path d="M23.6933 16.2967L16.0054 16.934V12.0783L23.6933 16.2967ZM16.0054 21.8854L24 17.5076L16.0054 29.5773V21.8854ZM16.0054 10.7159V3.01205L24 15.0419L16.0054 10.7159Z" fill="#3C873C" fill-opacity="0.601"/>
<path opacity="0.2" fill-rule="evenodd" clip-rule="evenodd" d="M16.0054 16.934L23.6933 16.2966L16.0054 20.4832V16.934Z" fill="#3C873C"/>
<path opacity="0.603" fill-rule="evenodd" clip-rule="evenodd" d="M16.0063 16.934L8.31836 16.2966L16.0063 20.4832V16.934Z" fill="#3C873C"/>
</g>
</svg>
