<svg width="32" height="32" viewBox="0 0 32 32" fill="none" xmlns="http://www.w3.org/2000/svg">
<path d="M16.4424 3V12.9772L24.8768 16.7429L16.4424 3Z" fill="#5F78E6" fill-opacity="0.602"/>
<path d="M16.4425 3L8 16.751L16.4344 12.9812L16.4425 3Z" fill="#5F78E6"/>
<path d="M16.4424 23.2217V30L24.8768 18.3222L16.4424 23.2217Z" fill="#5F78E6" fill-opacity="0.602"/>
<path d="M16.4425 30V23.2217L8 18.3222L16.4425 30Z" fill="#5F78E6"/>
<path d="M16.4425 21.6505L24.877 16.751L16.4385 12.9853L16.4425 21.6505Z" fill="#5F78E6" fill-opacity="0.2"/>
<path d="M8.00391 16.751L16.4383 21.6505V12.9853L8.00391 16.751Z" fill="#5F78E6" fill-opacity="0.602"/>
<g opacity="0.25">
<path d="M16.4385 3V12.9772L24.8729 16.7429L16.4385 3Z" fill="#5F78E6" fill-opacity="0.602"/>
<path d="M16.4385 3L8 16.751L16.4425 12.9772L16.4385 3Z" fill="#5F78E6"/>
<path d="M16.4385 23.2216V29.9999L24.881 18.3221L16.4385 23.2216Z" fill="#5F78E6" fill-opacity="0.602"/>
<path d="M16.4385 29.9999V23.2216L8 18.3221L16.4385 29.9999Z" fill="#5F78E6"/>
<path d="M16.4385 21.6505L24.8729 16.751L16.4385 12.9853V21.6505Z" fill="#5F78E6" fill-opacity="0.2"/>
<path d="M8 16.751L16.4425 21.6505V12.9853L8 16.751Z" fill="#5F78E6" fill-opacity="0.602"/>
</g>
</svg>
