<svg width="32" height="32" viewBox="0 0 32 32" fill="none" xmlns="http://www.w3.org/2000/svg">
<path d="M18.734 18.7768L23.0164 14.4944C23.3922 14.7741 23.4927 14.3983 23.685 14.2322C23.8903 14.0574 24.0608 13.6336 24.3972 14.0836C24.3255 14.4214 24.1328 14.7214 23.8554 14.927C23.0164 15.7747 22.1643 16.6137 21.3253 17.4615C20.8621 17.929 20.8708 17.9334 21.487 18.1169C21.9676 18.2699 22.5139 18.248 22.9115 18.6282C22.929 18.7331 22.894 18.8554 22.7979 18.851C22.4046 18.8467 22.6406 19.1263 22.5881 19.2705C22.1992 19.5109 21.8365 19.2662 21.4651 19.2137C21.1814 19.1101 20.8798 19.064 20.5781 19.0783C20.696 19.7294 20.9145 20.3368 21.0893 20.9922C21.5962 20.8174 21.771 20.2363 22.291 20.1838C22.5401 20.21 22.7979 20.2231 22.9465 20.4766C22.9465 21.1233 22.2692 21.3025 22.0113 21.8312C22.5969 22.1808 23.3572 22.0847 23.9034 22.5304C23.969 22.8625 23.6937 23.0285 23.5539 23.2601C23.0981 23.287 22.6422 23.2093 22.2211 23.0329C21.7535 22.9324 21.3165 22.6658 20.8097 22.8144C20.6526 22.8084 20.4993 22.8639 20.3826 22.9692C20.2659 23.0745 20.1949 23.2212 20.1848 23.3781C20.1609 23.4574 20.1182 23.5298 20.0604 23.5891C20.0026 23.6485 19.9313 23.693 19.8527 23.719C19.7029 23.7945 19.557 23.8776 19.4157 23.968C18.9787 24.1996 18.7602 24.0904 18.8214 23.5747C19.0399 23.0679 19.5686 22.8363 19.8789 22.3949C19.9961 22.2588 20.0774 22.0956 20.1156 21.9201C20.1537 21.7446 20.1475 21.5623 20.0974 21.3899C19.8964 20.7169 19.726 20.0352 19.4987 19.3579C18.9569 19.642 18.7384 20.3193 18.1004 20.4416C18.0709 20.425 18.0452 20.4024 18.0249 20.3754C18.0046 20.3483 17.9901 20.3173 17.9824 20.2843C17.9999 19.8779 18.332 19.69 18.568 19.4366C18.7515 19.24 18.9525 19.0652 18.734 18.7768Z" fill="#8165DA"/>
<path d="M18.9215 23.5747C18.9346 23.8151 18.9083 24.086 19.3016 23.8806C19.4764 23.7932 19.5332 23.4961 19.8085 23.6009C19.9265 23.9942 19.6162 24.1996 19.389 24.3613C19.0771 24.5349 18.8032 24.7693 18.5835 25.0508C18.3639 25.3322 18.2031 25.6549 18.1106 25.9997C18.0181 26.3445 17.9958 26.7044 18.045 27.058C18.0942 27.4116 18.2139 27.7517 18.3971 28.0581C18.4636 28.2405 18.5105 28.4295 18.5369 28.6218C18.55 28.9801 19.1137 28.9146 19.0744 29.3122C19.0105 29.4477 18.9196 29.5687 18.8073 29.6678C18.695 29.7669 18.5637 29.8421 18.4213 29.8887C18.279 29.9354 18.1286 29.9525 17.9794 29.939C17.8303 29.9255 17.6854 29.8818 17.5537 29.8104C16.6273 29.4739 15.6616 29.2467 14.7134 28.9757C14.7483 28.6786 14.9756 28.5257 15.1809 28.3552C15.7184 28.2023 16.1641 28.53 16.6492 28.6393C16.9114 28.7004 17.1604 28.7791 17.5188 28.8534C17.3681 28.329 17.2282 27.8016 17.0993 27.2715C17.0075 26.8957 16.8458 26.9438 16.6011 27.1579C16.1641 27.525 15.8888 28.0931 15.2683 28.2329C15.0455 28.1892 15.0717 27.7085 14.7046 27.9052C14.591 27.3895 15.0455 27.206 15.3077 26.9394C16.2341 25.9693 16.2428 25.9868 14.9799 25.6285C14.7483 25.563 14.4293 25.5979 14.3682 25.2396C14.5167 25.0561 14.6828 24.89 14.8488 24.7196C15.3732 24.4793 15.8495 24.7677 16.3214 24.9075C16.561 24.9938 16.8211 25.0049 17.0671 24.9393C17.3131 24.8737 17.5332 24.7345 17.6979 24.5404C18.0606 24.1734 18.3315 23.6665 18.9215 23.5747Z" fill="#6B67D6"/>
<path d="M7.76613 19.8386L5.34966 19.1875C5.42831 18.9253 5.68176 18.8073 5.80848 18.5801C6.40714 18.4184 6.92277 18.8292 7.53017 18.8641C7.41218 18.3223 7.26798 17.8154 7.15 17.2954C7.05386 16.8846 6.91403 16.8234 6.58193 17.125C6.19739 17.4745 5.94394 17.9989 5.3584 18.0994C5.07436 17.7324 5.45016 17.5838 5.56378 17.3915C5.3147 17.5095 5.19235 18.0164 4.72041 17.7804C4.71167 17.2648 5.17924 17.0813 5.44142 16.7579C5.63806 16.5176 5.89151 16.3297 6.11436 16.0413C5.48949 15.6523 4.7073 15.7834 4.15234 15.3334C4.17419 14.975 4.50629 14.8439 4.69419 14.608C5.21598 14.6074 5.73376 14.6992 6.22361 14.8789C6.58693 14.9898 6.96875 15.027 7.34664 14.9881C7.78361 14.9794 8.14193 14.9881 7.85353 15.6174C7.77197 15.8548 7.74924 16.1084 7.7873 16.3566C7.82535 16.6047 7.92306 16.8399 8.07202 17.0419C8.43471 17.5139 8.30798 18.1781 8.70126 18.6325C9.01588 18.6806 9.46597 17.7935 9.6495 18.7636C9.57084 19.0302 9.27807 19.1569 9.19504 19.4234C9.29992 19.7687 9.7937 19.6157 9.88547 19.9697C9.78496 20.5771 9.2737 20.1838 8.98529 20.3455C8.91674 20.351 8.84776 20.348 8.77992 20.3367C8.38664 20.293 8.14193 19.9303 7.76613 19.8386Z" fill="#479FE7"/>
<path d="M8.5554 9.01464L11.1773 6.35346C11.5094 6.38405 11.6186 6.58506 11.6142 6.88657C11.5137 7.42842 10.9325 7.64254 10.7621 8.13632C10.6824 8.37562 10.6454 8.62707 10.6529 8.87918C10.7406 9.68666 10.9452 10.4771 11.2603 11.2257C11.3639 11.4624 11.5301 11.6664 11.741 11.8157C11.8175 11.8839 11.8811 11.9653 11.9289 12.056C12.1211 12.493 11.8633 12.6372 11.505 12.7246C11.0418 12.6765 10.7665 12.9736 10.4519 13.2489C9.90129 13.7296 9.5386 14.4463 8.76515 14.6604C8.10095 14.3851 8.59036 14.0093 8.67338 13.6684C8.9918 13.1786 9.38386 12.7409 9.83574 12.3706C9.98433 12.2436 10.0913 12.0749 10.1427 11.8863C10.1942 11.6977 10.1877 11.498 10.1241 11.3131C9.97994 10.7975 9.82263 10.2862 9.69591 9.76624C9.58666 9.31616 9.39876 9.32927 9.11473 9.62641C8.9312 9.81431 8.76515 10.0372 8.45927 10.059C8.11405 9.67885 8.65591 9.37733 8.5554 9.01464Z" fill="#5B81DB"/>
<path d="M22.5913 19.2574C22.5023 19.19 22.4089 19.1287 22.3116 19.0738C22.1805 19.0083 22.0232 18.9427 22.0844 18.7811C22.1456 18.6063 22.3116 18.6674 22.4384 18.7242C22.507 18.7698 22.5892 18.7903 22.6712 18.7824C22.7531 18.7744 22.8299 18.7385 22.8884 18.6806C23.4696 18.7942 23.8061 18.4009 24.1819 18.0688C24.5533 17.7411 24.7937 17.2385 25.3486 17.1468C25.489 17.3949 25.5641 17.6745 25.5671 17.9595C25.4152 18.3195 25.1747 18.6352 24.8679 18.8772C24.6485 19.0331 24.4912 19.2617 24.4241 19.5224C24.3569 19.7831 24.3841 20.0592 24.5009 20.3017C24.6351 20.7166 24.7417 21.14 24.8199 21.569C24.9204 22.0496 25.1039 22.1545 25.4622 21.7569C25.572 21.6241 25.7283 21.5381 25.8992 21.5165C26.0877 21.5587 26.2852 21.5258 26.4498 21.4248C26.5896 21.3548 26.7819 21.2456 26.8256 21.5384C26.1008 22.3771 25.3197 23.1655 24.4878 23.898C24.2606 23.8675 24.1382 23.6708 23.9547 23.5659C23.8279 23.4567 23.5832 23.4567 23.6138 23.1989C23.3516 22.8231 23.6881 22.7619 23.911 22.6308C23.8628 22.1069 23.7707 21.588 23.6357 21.0795C23.5745 20.6032 23.3167 20.4634 22.8841 20.5202C22.7355 20.3192 22.3903 20.494 22.2854 20.2143C22.2242 19.8429 22.8185 19.6812 22.5913 19.2574Z" fill="#8F64E3"/>
<path d="M25.522 17.8765C25.1025 17.7104 25.3996 17.3871 25.3515 17.138C24.9328 16.1478 24.5966 15.1247 24.3465 14.0791C23.8789 13.9175 23.8571 14.3719 23.6561 14.5773C23.5075 14.7346 23.3502 14.9225 23.1317 14.8701C22.9788 14.8351 23.053 14.6297 23.0225 14.4986C23.3895 13.9918 23.9838 13.7121 24.3159 13.1702C24.3779 13.0782 24.4681 13.0088 24.5729 12.9726C24.6777 12.9363 24.7915 12.9351 24.8971 12.9692C26.1119 13.2751 27.3267 13.5723 28.5371 13.8869C28.6638 13.9218 28.76 14.0617 28.8736 14.1491C28.6551 14.4768 28.2968 14.5074 27.9603 14.586C27.3119 14.5139 26.6723 14.3778 26.0507 14.1797C25.6356 14.0791 25.4957 14.1884 25.6268 14.6035C25.7929 15.1366 25.9764 15.661 26.1031 16.2029C26.1449 16.3545 26.2258 16.4925 26.3378 16.603C26.4498 16.7134 26.5889 16.7925 26.7411 16.8321C27.1681 16.9132 27.5714 17.0894 27.921 17.3477C27.9453 17.4227 27.9532 17.5019 27.9443 17.5802C27.9354 17.6585 27.9097 17.7339 27.8691 17.8014C27.8286 17.869 27.7739 17.927 27.709 17.9716C27.6441 18.0162 27.5703 18.0463 27.4927 18.06C26.8393 17.9656 26.1816 17.9043 25.522 17.8765Z" fill="#9B64E5"/>
<path d="M14.1305 3.44762C14.2255 3.26177 14.3877 3.11905 14.5841 3.04844C14.7805 2.97783 14.9964 2.98463 15.188 3.06745C16.2805 3.36459 17.386 3.63114 18.4872 3.90644C18.2949 4.33468 17.8274 4.28661 17.4953 4.47451C16.9836 4.46574 16.4765 4.37728 15.9921 4.21232C15.6862 4.15115 15.5638 4.25165 15.6512 4.55316C15.826 5.16493 15.9789 5.7767 16.1931 6.37535C16.3373 6.78174 16.7174 6.84729 17.0583 6.96964C17.727 7.08609 18.3702 7.31825 18.9591 7.65569C18.946 8.03586 18.6532 7.96594 18.4435 7.94846C18.1853 7.90635 17.9205 7.95254 17.6919 8.07956C17.4898 8.15984 17.2647 8.15984 17.0626 8.07956C16.7689 7.92191 16.4328 7.86111 16.1024 7.90584C15.772 7.95058 15.4642 8.09855 15.223 8.32863C14.8253 8.05334 14.4714 8.67822 14.0737 8.38544C14.0864 8.24058 14.1344 8.10105 14.2137 7.97913C14.2929 7.85721 14.4009 7.75664 14.5282 7.68628C14.7875 7.5106 14.9741 7.24649 15.0529 6.94331C15.1317 6.64013 15.0974 6.31862 14.9564 6.03888C14.7305 5.4303 14.5651 4.80092 14.4626 4.15989C14.462 4.02358 14.4321 3.88901 14.3748 3.76534C14.3174 3.64167 14.2341 3.53618 14.1305 3.44762Z" fill="#7865D7"/>
<path d="M27.4166 17.9202C27.7487 17.8896 27.8011 17.6275 27.8623 17.3696C28.0493 17.3062 28.2496 17.2925 28.4435 17.3301C28.6374 17.3676 28.8181 17.4551 28.9679 17.5838C28.7174 16.5058 28.3903 15.4471 27.989 14.4157L28.8717 14.1535C29.3398 15.4578 29.7136 16.794 29.9904 18.1518C30.0075 18.2364 30.0015 18.3241 29.9731 18.4056C29.9446 18.4871 29.8948 18.5594 29.8287 18.615C28.8237 19.5938 27.9191 20.6601 26.8267 21.5428C26.5951 21.3417 26.4902 21.5777 26.3635 21.687C26.1363 21.8792 25.9877 21.8836 25.9527 21.5471C25.9178 21.1975 26.1931 21.0359 26.3897 20.8349C27.0015 20.2056 27.6176 19.5851 28.2512 18.9733C28.6008 18.6369 28.5178 18.4796 28.0852 18.3397C27.8405 18.2567 27.469 18.3266 27.4166 17.9202Z" fill="#A863E5"/>
<path d="M14.6538 27.8309C14.7142 27.808 14.7787 27.7982 14.8431 27.8022C14.9075 27.8062 14.9704 27.8239 15.0274 27.8541C15.0845 27.8843 15.1344 27.9263 15.174 27.9772C15.2135 28.0282 15.2418 28.0871 15.2568 28.1498C15.4054 28.2984 15.2568 28.3377 15.1694 28.3989C15.1563 28.7048 14.9378 28.8359 14.715 28.9757C14.5217 28.9644 14.3388 28.8848 14.1987 28.7512C14.0587 28.6175 13.9706 28.4385 13.9503 28.246C13.7667 27.4988 13.4652 26.7734 13.3385 26.0174C13.3101 25.6499 13.1507 25.3048 12.8892 25.0449C12.6278 24.7851 12.2817 24.6277 11.914 24.6016C11.7086 24.37 11.5819 24.1297 11.8266 23.8456C12.0669 23.732 12.3946 24.0292 12.5782 23.6708C12.5855 23.4326 12.5708 23.1942 12.5345 22.9586C12.5257 22.5784 12.7049 22.4298 13.0807 22.5784C13.1569 22.6147 13.2236 22.6684 13.2752 22.7352C13.3268 22.802 13.362 22.88 13.3778 22.9629C13.5002 23.7058 13.7973 23.5179 14.1557 23.1203C14.2196 23.0335 14.3007 22.9608 14.3939 22.9067C14.4871 22.8525 14.5904 22.8182 14.6975 22.8056C15.1694 22.9542 15.1345 23.2339 14.8985 23.566C14.7499 23.7757 14.5227 23.933 14.4484 24.1952C14.3304 24.5579 14.68 24.6016 14.8417 24.772C14.8854 25.1391 14.68 25.2527 14.361 25.2527C14.0988 25.4799 14.16 25.7465 14.2299 26.0393C14.443 26.6172 14.5854 27.2187 14.6538 27.8309Z" fill="#5B79DE"/>
<path d="M14.1083 8.40723C14.471 8.49462 14.7026 7.70807 15.1352 8.25429L15.1221 8.3242C13.9423 9.37731 14.6982 10.544 14.9342 11.6758C15.0347 12.1652 15.3187 11.8593 15.5372 11.7851C15.6105 11.748 15.6905 11.7265 15.7725 11.7217C15.8544 11.717 15.9364 11.7291 16.0135 11.7574C16.0905 11.7856 16.1609 11.8295 16.2203 11.8861C16.2797 11.9427 16.3268 12.011 16.3587 12.0866L13.8724 14.5773L13.8024 14.5948C13.5752 14.621 13.4529 15.023 13.1819 14.8133C12.8804 14.5861 13.1688 14.3326 13.2256 14.0967C13.368 13.8252 13.5696 13.5893 13.8155 13.4062C14.0471 13.1703 13.9685 12.8513 14.034 12.576C13.9248 11.9861 13.7587 11.4136 13.6145 10.8324C13.549 10.5703 13.4834 10.295 13.1033 10.4173C12.8892 10.461 12.6445 10.5178 12.5221 10.2862C12.4085 10.0852 12.6051 9.93664 12.7144 9.79244C12.8018 9.67883 12.9154 9.57832 12.8804 9.41664C12.8236 9.28555 12.7056 9.27244 12.5876 9.24622C12.4085 9.21126 12.2643 9.12824 12.2687 8.92286C12.2774 8.63009 12.474 8.57328 12.7187 8.59076C13.1895 8.62318 13.6621 8.56077 14.1083 8.40723Z" fill="#6967D9"/>
<path d="M13.3802 14.136L13.1573 14.7128C13.4632 14.8352 13.6161 14.4638 13.8696 14.5774C13.804 14.8352 13.3452 14.9051 13.5244 15.2853C14.0444 15.4863 13.9613 15.7485 13.6118 16.0456C13.5681 16.0675 13.4981 16.1024 13.5025 16.133C13.5228 16.8983 13.7525 17.6434 14.1667 18.2873C14.2743 18.3365 14.3683 18.4112 14.4406 18.5048C14.5129 18.5984 14.5614 18.7082 14.5818 18.8248C14.6129 18.9191 14.654 19.01 14.7042 19.0957C15.0319 19.5239 14.9445 19.7949 14.4027 19.8997C14.0881 19.8735 13.7691 19.9216 13.4501 19.8997C13.3295 19.8514 13.2268 19.7673 13.1556 19.6586C13.0845 19.55 13.0485 19.4221 13.0524 19.2923C12.9743 18.4577 12.7786 17.6383 12.4712 16.8584C12.2746 16.2029 11.9512 16.8584 11.6934 16.8191C11.4446 16.7225 11.2364 16.5436 11.1035 16.3122C11.6053 15.3583 12.4046 14.5943 13.3802 14.136Z" fill="#6174D8"/>
<path d="M14.4319 18.9821C14.4365 18.8635 14.4099 18.7457 14.3546 18.6407C14.2994 18.5356 14.2176 18.4469 14.1173 18.3834C13.9862 18.0207 14.2964 17.8721 14.4712 17.6755C14.7771 17.339 15.1136 17.0375 15.4631 16.6705C14.7989 16.3515 14.0299 16.4869 13.5273 15.9451C13.8114 15.7266 13.842 15.5081 13.5273 15.2809L16.4245 15.9494C16.5575 15.9745 16.6801 16.0385 16.7766 16.1335C16.8731 16.2284 16.9392 16.3499 16.9663 16.4826L17.6218 19.2355C17.5737 19.253 17.5169 19.2661 17.4907 19.2355C17.2416 18.9864 17.1237 18.9602 16.8789 19.1132C16.5031 18.6456 16.5163 18.0295 16.2672 17.4963C15.5462 17.8896 15.2447 18.7505 14.4319 18.9821Z" fill="#6C68D0"/>
<path d="M5.7703 18.6368C6.1024 19.1787 5.50811 19.0126 5.3508 19.1874C4.94203 19.1798 4.5518 19.0155 4.26069 18.7284C3.96957 18.4414 3.7998 18.0535 3.78643 17.6449C3.69464 17.1444 3.57354 16.6498 3.42374 16.1635C3.39723 16.1229 3.37664 16.0788 3.36256 16.0324C2.6634 14.3894 3.99181 13.6728 4.8745 12.7551C4.97937 12.6502 5.11046 12.576 5.25467 12.7027C5.31007 12.7509 5.34498 12.8184 5.35229 12.8915C5.3596 12.9646 5.33875 13.0377 5.29399 13.096C5.15853 13.3538 4.90071 13.5198 4.7871 13.7951C4.63416 14.0835 4.3676 14.3413 4.60357 14.7084C4.94004 15.2721 4.2671 15.0449 4.1666 15.2677C4.26326 16.1255 4.46581 16.968 4.76962 17.776C5.29836 17.706 5.43383 17.0418 6.00626 16.937C5.98441 17.4744 5.29399 17.5793 5.34206 18.095C5.41732 18.32 5.56878 18.5116 5.7703 18.6368Z" fill="#3CB2EB"/>
<path d="M17.4636 4.32154L18.4861 3.90641C18.8794 3.91952 19.0105 4.17734 19.0935 4.51381C19.3732 5.63829 19.6616 6.76132 19.9587 7.88289C20.0143 8.03084 20.024 8.1921 19.9866 8.34565C19.9492 8.4992 19.8664 8.63793 19.749 8.74373C19.3382 9.11953 18.9406 9.51281 18.5429 9.89735C18.1933 9.96289 18.1671 9.65264 18.0229 9.47348C17.9661 9.0365 18.3856 8.88793 18.5691 8.57768C18.3026 8.28054 17.7258 8.49029 17.5859 7.98776C17.8175 7.76491 18.0448 7.57701 18.3987 7.76928C18.4819 7.81985 18.5793 7.84208 18.6762 7.83262C18.7731 7.82317 18.8643 7.78254 18.9362 7.71684C18.8138 6.87785 18.5429 6.06944 18.3463 5.24356C18.3221 5.09916 18.2569 4.96475 18.1585 4.8563C18.0601 4.74786 17.9327 4.66993 17.7913 4.63179C17.6384 4.58809 17.4417 4.56187 17.4636 4.32154Z" fill="#8366D9"/>
<path d="M11.7693 23.898L11.9135 24.5972C11.1706 24.3918 10.4278 24.1733 9.68493 23.9854C9.49618 23.9494 9.32329 23.8557 9.1902 23.7171C9.05711 23.5785 8.97039 23.402 8.94207 23.2119C8.71484 22.2987 8.4177 21.4029 8.16862 20.4983C8.12456 20.236 7.98044 20.001 7.7666 19.8429C8.21669 19.7773 8.5182 20.0788 8.85467 20.2886C9.2342 20.7006 9.45155 21.2362 9.46644 21.7961C9.48179 22.2293 9.65752 22.6413 9.95951 22.9521C10.2615 23.263 10.6682 23.4506 11.1007 23.4785C11.3498 23.5047 11.6994 23.5222 11.7693 23.898Z" fill="#4F95DD"/>
<path d="M14.1302 3.44765C14.5847 3.43891 14.6677 3.66613 14.5148 4.05067C13.6843 5.20027 12.6648 6.20059 11.4996 7.009C11.5039 6.88155 11.4767 6.75502 11.4203 6.64066C11.3638 6.5263 11.28 6.42767 11.1763 6.35353L14.1302 3.44765Z" fill="#6C68D6"/>
<path d="M24.0039 23.461C24.2155 23.5394 24.3891 23.6957 24.489 23.898C23.6728 24.8297 22.7908 25.7015 21.8496 26.5068C21.5831 26.5242 21.2685 26.817 21.0806 26.3757C21.0849 26.1004 21.2816 25.9387 21.4476 25.7726C22.0944 25.1172 22.7454 24.4661 23.4009 23.8194C23.5713 23.6533 23.7286 23.4567 24.0039 23.461Z" fill="#8667DB"/>
<path d="M21.1026 26.3889C21.3211 26.6467 21.627 26.3277 21.8498 26.5068C20.9843 27.4975 20.0575 28.433 19.075 29.3079C18.9264 29.002 18.389 29.1811 18.354 28.731C19.0639 28.1614 19.7314 27.5407 20.351 26.8739C20.5695 26.6729 20.7312 26.3626 21.1026 26.3889Z" fill="#7967D6"/>
<path d="M16.9218 19.0914C17.3194 18.3135 17.3937 19.1525 17.621 19.2312C17.7389 19.4934 17.8482 19.6988 18.1278 19.3492C18.3172 19.1434 18.5217 18.952 18.7396 18.7767C19.0586 18.803 19.3994 18.8204 18.9931 19.2487L18.0536 20.2537C17.7133 20.6824 17.3296 21.0749 16.9087 21.4248C16.6509 21.6127 16.4062 21.7482 16.227 21.3374C16.1877 20.9354 16.6465 20.7694 16.6771 20.4023C16.6617 20.3105 16.6734 20.2162 16.7106 20.1308C16.7479 20.0455 16.8091 19.9728 16.8868 19.9216C16.9742 19.8736 17.1359 19.8648 16.9305 19.7468C16.8519 19.5327 16.6858 19.3142 16.9218 19.0914Z" fill="#7266DE"/>
<path d="M18.0835 9.4385C18.3982 9.42976 18.3064 9.82304 18.5424 9.89732C17.8565 10.6668 17.127 11.3963 16.3575 12.0822C16.0953 12.0735 15.8987 11.7457 15.5928 11.9249C16.1549 10.8651 17.0228 9.9988 18.0835 9.4385Z" fill="#7865D7"/>
<path d="M4.61698 13.8694C4.56454 13.3669 5.16757 13.2402 5.26807 12.825L5.10639 12.6633C4.7231 13.0853 4.31605 13.4851 3.88723 13.8607C3.06134 14.5161 3.36723 15.3551 3.42403 16.1635C2.79916 14.6865 2.79479 14.6822 3.88723 13.6116C4.60824 12.8993 5.34236 12.2045 6.06774 11.501C6.74942 10.9635 6.78001 10.9679 6.87614 11.6146C6.83328 11.7084 6.76891 11.7907 6.68824 11.8549C6.23175 12.1393 5.85802 12.5386 5.60454 13.0129C5.3511 13.3844 5.12387 13.7864 4.61698 13.8694Z" fill="#46A8EA"/>
<path d="M6.79374 11.6453C6.79811 11.2651 6.71071 11.0728 6.34802 11.4181C6.27374 11.488 6.20382 11.6191 6.06836 11.5011C6.8473 10.6224 7.6791 9.79209 8.55912 9.01469C9.07038 9.43855 8.29694 9.69637 8.41929 10.0722C8.26899 10.4308 8.04741 10.7552 7.76798 11.0256C7.48855 11.296 7.1571 11.5068 6.79374 11.6453Z" fill="#5193E1"/>
<path d="M18.059 20.3586C16.8223 21.6695 15.5901 22.9804 14.2529 24.1908C14.2835 23.8369 14.585 23.6796 14.7904 23.4567C15.057 23.1683 14.9434 22.9979 14.6375 22.8712C14.9784 22.1483 15.5611 21.5672 16.2849 21.2282C16.4116 21.5821 16.5558 21.4772 16.8092 21.3112C17.2724 21.0053 17.4516 20.3848 18.0546 20.2581L18.059 20.3586Z" fill="#6B6CD0"/>
<path d="M20.6851 22.7226C20.5339 22.9638 20.3309 23.1683 20.0908 23.3213C20.0908 22.928 20.2001 22.6396 20.6851 22.7226Z" fill="#6B67D6"/>
<path d="M11.6682 16.7753C11.0345 17.5171 10.3323 18.1975 9.57073 18.8073C9.52703 18.5495 9.50081 18.2829 9.13375 18.5669C9.0114 18.6674 8.95896 18.934 8.69678 18.8073L11.1832 16.3165C11.3868 16.4179 11.5557 16.5776 11.6682 16.7753Z" fill="#5789DC"/>
<path d="M8.87246 14.5686C8.84624 14.6123 8.82876 14.6604 8.79381 14.6866C8.362 14.9167 8.03613 15.3051 7.88458 15.7704C7.73304 16.2356 7.76761 16.7414 7.98103 17.1817C7.73868 16.9203 7.59378 16.5833 7.5707 16.2276C7.54762 15.8718 7.64777 15.519 7.85431 15.2284C7.72321 15.0755 7.54842 15.1673 7.39111 15.141C7.82304 14.6081 8.31251 14.1245 8.85061 13.699C8.97297 13.9831 8.10775 14.2977 8.87246 14.5686Z" fill="#5A97D6"/>
<path d="M10.1532 20.4941L9.00391 20.2231C9.22239 19.8954 9.68996 20.4372 9.86475 19.9697L9.96088 19.9041C10.376 19.9872 10.3367 20.2188 10.1532 20.4941Z" fill="#4F95DD"/>
<path d="M9.0079 19.3754C9.27445 19.6944 9.72454 19.5808 10.0304 19.8124C10.0086 19.8998 9.91681 19.9129 9.86874 19.9653L9.86437 19.9697C9.61092 19.891 9.35311 19.8211 9.1084 19.725C8.95546 19.6638 8.75882 19.572 9.0079 19.3754Z" fill="#4F95DD"/>
<path d="M11.7805 12.0254L14.2451 12.6241C13.9611 12.8732 14.3805 13.3232 13.9829 13.533C13.6027 13.0611 13.0041 13.1266 12.5059 12.9387C12.1738 12.812 11.8242 12.7246 11.4834 12.6197C11.7368 12.5017 12.0034 12.3837 11.7805 12.0254Z" fill="#6772D1"/>
<path d="M11.1846 11.3394C11.7177 10.6489 12.4693 10.1595 12.9631 9.42978C13.0068 9.37734 13.0461 9.38171 13.0898 9.42978C13.1859 9.84928 12.6353 9.8755 12.6222 10.2426C12.7402 10.3868 12.9194 10.2819 13.0723 10.3125C12.7184 10.9548 12.0279 11.3 11.639 11.9162C11.5134 11.878 11.4025 11.8022 11.3212 11.6991C11.24 11.596 11.1923 11.4704 11.1846 11.3394Z" fill="#6975D1"/>
<path d="M13.0908 9.43415H12.9597L10.5782 8.77869C10.3815 8.54272 10.482 8.32423 10.6131 8.10574C11.3576 8.228 12.087 8.42867 12.7893 8.7044C12.6276 8.72188 12.396 8.67381 12.3873 8.90541C12.3785 9.20255 12.6014 9.04961 12.7543 9.04524C13.0078 9.0365 13.0602 9.22877 13.0908 9.43415Z" fill="#6377D0"/>
<path d="M13.5587 19.8341C13.3676 19.9513 13.2016 20.1051 13.0703 20.2866C12.9389 20.4682 12.8447 20.6739 12.7931 20.892C12.7415 21.1101 12.7336 21.3362 12.7697 21.5574C12.8059 21.7785 12.8854 21.9904 13.0037 22.1807C13.0569 22.3641 13.0863 22.5535 13.0911 22.7444C12.8683 22.657 12.5711 22.5259 12.7066 22.9716C12.7812 23.2892 12.8063 23.6165 12.7809 23.9417C12.5886 23.2469 12.357 22.5652 12.2128 21.8617C12.0817 21.2368 11.837 20.8086 11.1378 20.7343C10.8048 20.6779 10.4762 20.5975 10.1546 20.494C10.1459 20.2755 10.2289 20.0002 9.87061 19.9652L10.0323 19.8123C10.1764 19.8063 10.3206 19.821 10.4605 19.856C10.9102 20.1377 11.4522 20.2323 11.9707 20.1196C12.4893 20.0069 12.9431 19.6959 13.2353 19.253C13.2089 19.3732 13.2272 19.4989 13.2867 19.6067C13.3462 19.7144 13.4429 19.7924 13.5587 19.8341Z" fill="#5C80D3"/>
<path d="M14.5505 19.1088L17.0194 19.808C17.0719 20.0527 16.6305 20.1838 16.8708 20.4634L14.415 19.773C14.9394 19.6463 14.6685 19.3623 14.5505 19.1088Z" fill="#6C68D0"/>
<path d="M6.65891 11.7763C6.33598 12.2398 5.94228 12.6497 5.49219 12.9911C5.57253 12.7087 5.72091 12.4502 5.92431 12.2385C6.12772 12.0267 6.37995 11.868 6.65891 11.7763Z" fill="#5193E1"/>
</svg>
