<svg width="32" height="32" viewBox="0 0 32 32" fill="none" xmlns="http://www.w3.org/2000/svg">
<path d="M3 3V29H29V3H3ZM12.0865 6.01956H14.5197V8.50937H12.0919L12.0865 6.01956ZM5.96066 6.01956H8.49607V8.50937H5.96066V6.01956ZM8.38841 12.0481V14.5432H5.85838V12.0481H8.38841ZM7.76398 25.7791H6.70352V24.8415H7.65631V25.7791H7.76398ZM8.50145 20.7836H5.96604V18.3945H8.50145V20.7836ZM13.8899 25.7791H12.9424V24.8415H13.8899V25.7791ZM13.8899 19.9519H12.9424V19.0196H13.8899V19.9519ZM14.6327 14.6491H12.0919V12.1487H14.6327V14.6491ZM20.0211 25.7738H19.0683V24.8468H20.0211V25.7738ZM20.0211 19.9519H19.0683V19.0196H20.0211V19.9519ZM20.0211 13.8174H19.0683V12.8745H20.0211V13.8174ZM20.8663 8.50937H18.3308V6.01956H20.8663V8.50937ZM26.26 25.7791H25.3072V24.8415H26.26V25.7791ZM26.26 19.9519H25.3072V19.0196H26.26V19.9519ZM26.26 13.8174H25.3072V12.8745H26.26V13.8174ZM26.26 7.77832H25.3072V6.84597H26.26V7.77832Z" fill="#202944"/>
</svg>
