<svg width="32" height="32" viewBox="0 0 32 32" fill="none" xmlns="http://www.w3.org/2000/svg">
<path fill-rule="evenodd" clip-rule="evenodd" d="M17.6084 14.3492L17.055 17.2783L22.31 18.0105L21.9411 19.3815L16.7763 18.6492C16.4073 19.8412 16.2229 21.1227 15.7638 22.2211C15.3006 23.5026 14.8415 24.784 14.2881 25.9719C13.9571 26.7369 13.4367 27.4064 12.7753 27.9185C12.1139 28.4306 11.3329 28.7685 10.5047 28.901C10.0014 29.0194 9.47872 29.0318 8.97035 28.9372C8.46198 28.8425 7.97926 28.6431 7.5534 28.3518C7.40852 28.2607 7.28444 28.1405 7.18914 27.999C7.09384 27.8575 7.02942 27.6977 7.00003 27.53C6.99881 27.3392 7.03963 27.1503 7.11964 26.9768C7.19965 26.8032 7.31691 26.6491 7.46322 26.5252C7.77166 26.4686 8.08996 26.4996 8.38141 26.6147C8.67817 26.9113 8.92704 27.2516 9.11924 27.6236C9.22097 27.7903 9.35899 27.9322 9.52318 28.0391C9.68737 28.1459 9.87357 28.2149 10.0681 28.241C10.2627 28.2672 10.4607 28.2498 10.6476 28.1901C10.8345 28.1304 11.0056 28.03 11.1483 27.8962C11.9292 27.1516 12.4747 26.1974 12.7182 25.1502C13.2716 22.9534 13.8249 20.846 14.2881 18.6533V18.2872L9.39797 17.5549L9.58243 16.1799L14.6571 16.9121L15.3006 14.0725L10.0415 13.2508L10.2301 11.7862L15.6695 12.5185C15.854 11.9693 15.9482 11.5137 16.1327 11.054C16.4959 9.35312 17.1847 7.7373 18.1617 6.29421C18.6142 5.56524 19.254 4.96891 20.0154 4.5664C20.7768 4.1639 21.6324 3.96973 22.4944 4.00383C22.9081 3.98838 23.3203 4.06222 23.7025 4.22025C24.0846 4.37828 24.4277 4.61674 24.7079 4.91917C24.8529 5.03469 24.9517 5.19765 24.9867 5.37887C25.0384 5.76689 24.9386 6.15985 24.7079 6.47727C24.5223 6.60336 24.2953 6.6546 24.073 6.6206C23.8507 6.5866 23.6498 6.4699 23.511 6.29421C23.2323 6.02164 23.0478 5.745 22.7732 5.47244C22.6715 5.30291 22.5308 5.1597 22.3627 5.05452C22.1945 4.94934 22.0036 4.8852 21.8057 4.86734C21.6077 4.84948 21.4083 4.87841 21.2238 4.95177C21.0393 5.02512 20.8749 5.14082 20.7441 5.28937C20.2414 5.79167 19.8345 6.38021 19.5431 7.02648C18.8955 8.94665 18.4364 10.9645 17.7928 12.9741L22.8633 13.7064L22.4944 15.0814L17.6084 14.3492Z" fill="#0090FF"/>
</svg>
