<svg width="32" height="32" viewBox="0 0 32 32" fill="none" xmlns="http://www.w3.org/2000/svg">
<path d="M27.4904 23.4418C27.1771 27.2174 22.6755 30.4187 15.9494 30.2463C9.60438 30.0688 5.16551 27.4524 4.84695 23.6663C4.81291 23.1785 4.83041 22.6883 4.89917 22.2041C5.11737 20.7456 5.61947 19.3439 6.37706 18.0786L6.84705 18.2979C8.0918 17.82 9.37861 17.4598 10.6906 17.2221C12.4202 16.9779 14.1711 16.9218 15.9128 17.055C17.6545 16.9218 19.4054 16.9779 21.135 17.2221C22.4541 17.4586 23.7479 17.8188 24.9994 18.2979L25.4694 18.0838L25.8036 17.9271C26.5675 19.2093 27.0979 20.6167 27.3703 22.084C27.4481 22.5322 27.4709 22.9881 27.4382 23.4418" fill="#F4A427"/>
<path d="M27.4904 23.4419C27.1771 27.2175 22.7382 30.2464 15.9494 30.2464C9.60438 30.0689 5.16551 27.4525 4.84695 23.6664C4.81291 23.1786 4.83041 22.6884 4.89917 22.2042C5.57394 22.0581 6.27018 22.0404 6.9515 22.152C7.99203 22.4606 8.97599 22.9349 9.86549 23.5568C10.3929 23.797 10.9151 23.4001 11.4008 22.9667C12.6838 21.7186 14.3947 21.007 16.1844 20.977C17.0974 20.9871 17.9992 21.1804 18.8361 21.5455C19.6731 21.9106 20.4282 22.4401 21.0567 23.1025C21.2129 23.2614 21.3993 23.3874 21.605 23.4732C21.8118 23.5594 22.0337 23.6038 22.2578 23.6038C22.6784 23.4907 23.0654 23.2774 23.3858 22.9823C24.5759 22.1892 26.0185 21.8672 27.433 22.0789C27.5108 22.527 27.5336 22.983 27.5009 23.4367" fill="white"/>
<path d="M8.84655 14.1411C8.40491 14.5769 7.84919 14.8792 7.24333 15.0132L7.00834 15.0549C6.76204 15.1207 6.51038 15.1644 6.25634 15.1855C6.20371 15.182 6.15137 15.1751 6.09967 15.1646C5.96005 15.1296 5.82375 15.0824 5.69234 15.0236C5.26189 14.8245 4.85833 14.5719 4.49123 14.2716C3.7492 13.6759 3.09362 12.9799 2.54335 12.2036C1.48154 10.6792 1.04656 8.80478 1.32847 6.9685C1.61038 5.13221 2.58758 3.47463 4.05779 2.33888C4.12647 2.28259 4.21112 2.24934 4.29975 2.24385C4.38838 2.23835 4.47649 2.26089 4.5516 2.30827C4.62671 2.35564 4.685 2.42545 4.71822 2.5078C4.75144 2.59016 4.75789 2.68088 4.73668 2.7671C4.4916 3.59724 4.42493 4.46983 4.54104 5.32756C4.65714 6.18529 4.95339 7.00876 5.41034 7.74386C5.94196 8.48909 6.61564 9.12187 7.39266 9.60582C8.16968 10.0898 9.0347 10.4154 9.93799 10.5639C10.0982 11.2042 10.0818 11.876 9.89056 12.5078C9.69928 13.1395 9.34028 13.7076 8.85177 14.1515" fill="#F79422"/>
<path fill-rule="evenodd" clip-rule="evenodd" d="M4.42396 2.51648C4.39153 2.49493 4.35321 2.48398 4.31429 2.48515C4.27595 2.48775 4.23941 2.50236 4.20985 2.52692L4.20463 2.53215C2.78396 3.63043 1.83987 5.23283 1.5677 7.00778C1.29553 8.78273 1.7161 10.5944 2.74241 12.0679C3.27959 12.8246 3.91934 13.503 4.64329 14.0837C4.99444 14.3712 5.38045 14.6133 5.79218 14.8043C5.90667 14.8563 6.02549 14.8983 6.14728 14.9297L6.25173 14.9453C6.48631 14.9256 6.71871 14.8854 6.94628 14.8252L6.96195 14.82L7.19695 14.7782C7.75768 14.6535 8.27178 14.3729 8.68005 13.9688C9.11018 13.5776 9.43672 13.086 9.63049 12.5379C9.80289 11.9765 9.83869 11.3821 9.73494 10.8041C8.91094 10.6888 8.12464 10.385 7.43717 9.91634C6.57312 9.38474 5.81814 8.69356 5.21251 7.87968C4.73677 7.1165 4.42799 6.26125 4.30648 5.37017C4.18497 4.4791 4.25348 3.5724 4.50751 2.7097C4.51432 2.67461 4.51069 2.6383 4.49707 2.60526C4.48289 2.56857 4.45725 2.53743 4.42396 2.51648ZM4.28296 2.0047C4.42194 1.99638 4.56006 2.03166 4.67802 2.10562C4.79598 2.17958 4.88791 2.28853 4.94096 2.41726C4.994 2.54635 5.00497 2.6889 4.97229 2.82459C4.73541 3.6218 4.66971 4.46008 4.77951 5.28446C4.88931 6.10884 5.17212 6.9007 5.6094 7.60813C6.17785 8.3675 6.88483 9.01247 7.69306 9.50901C8.3537 9.97653 9.12702 10.2595 9.93338 10.3289C9.98973 10.3278 10.0447 10.3466 10.0886 10.3819C10.1325 10.4172 10.1626 10.4668 10.1736 10.5221C10.3303 11.2402 10.2997 11.9865 10.0848 12.6893C9.86777 13.3081 9.50193 13.8641 9.0195 14.3082C8.5453 14.7779 7.94783 15.1038 7.29617 15.2482H7.2805L7.05595 15.29C6.79916 15.3563 6.53705 15.4 6.27262 15.4205H6.23606C6.17113 15.4163 6.10657 15.4076 6.04284 15.3944H6.0324C5.88028 15.357 5.73175 15.3064 5.58851 15.243C5.13942 15.0357 4.71832 14.7725 4.33518 14.4597C3.57736 13.85 2.90776 13.1383 2.34552 12.3447C1.24707 10.7705 0.795989 8.83422 1.08568 6.93667C1.37536 5.03913 2.38363 3.32563 3.90174 2.15092C4.00902 2.06462 4.14556 2.01356 4.28296 2.0047Z" fill="#221F1F"/>
<path d="M14.6133 8.61078L14.1016 13.7285H14.0702C13.266 13.833 12.1902 13.9949 10.7071 14.2299C9.19044 14.5882 7.74111 15.1876 6.41448 16.0054L6.25781 15.2012C6.51009 15.1797 6.75999 15.136 7.00459 15.0706L7.23959 15.0289C7.84741 14.8961 8.40512 14.5937 8.84802 14.1568C9.33889 13.7146 9.69954 13.1466 9.89098 12.5143C10.0824 11.8819 10.0974 11.2093 9.93424 10.5691L10.0857 10.6161C10.5709 10.1036 11.1417 9.67946 11.7725 9.36278C12.6506 8.90115 13.6218 8.64408 14.6133 8.61078Z" fill="#5A595C"/>
<path fill-rule="evenodd" clip-rule="evenodd" d="M14.3473 8.86672C13.4877 8.93359 12.6507 9.17526 11.8877 9.57694H11.8772C11.2697 9.88139 10.7201 10.2896 10.2531 10.7833L10.2114 10.8146C10.314 11.4464 10.2693 12.0934 10.0808 12.705C9.86302 13.3262 9.4953 13.8841 9.01026 14.3291C8.9191 14.4195 8.82323 14.5049 8.72304 14.585C9.34617 14.3155 9.9979 14.1175 10.6657 13.9949C12.0548 13.7756 13.0888 13.6189 13.8773 13.5145L14.3473 8.86672ZM14.6189 8.60561L14.6085 8.37061C13.5801 8.40603 12.5732 8.67384 11.6631 9.15394C11.0545 9.45781 10.499 9.85813 10.0181 10.3394H10.0077C9.968 10.3259 9.92546 10.3231 9.88432 10.3311C9.84318 10.3392 9.80486 10.3579 9.77318 10.3853C9.7415 10.4128 9.71756 10.4481 9.70373 10.4876C9.6899 10.5272 9.68667 10.5697 9.69437 10.6109C9.83763 11.2537 9.81426 11.9224 9.62648 12.5536C9.4327 13.1017 9.10616 13.5933 8.67604 13.9845C8.26759 14.3884 7.75356 14.6689 7.19293 14.7939L6.96315 14.8357H6.94227C6.71145 14.8983 6.47552 14.9403 6.23727 14.961C6.20313 14.9633 6.16987 14.9729 6.13973 14.9891C6.10959 15.0053 6.08325 15.0277 6.06249 15.0549C6.04172 15.0821 6.027 15.1134 6.01932 15.1468C6.01163 15.1801 6.01116 15.2147 6.01794 15.2483L6.17982 16.0525C6.1869 16.0907 6.20313 16.1266 6.22712 16.1571C6.25111 16.1876 6.28215 16.2119 6.31758 16.2278C6.353 16.2437 6.39176 16.2508 6.43052 16.2485C6.46929 16.2461 6.50691 16.2344 6.54016 16.2144C7.83962 15.4128 9.25879 14.824 10.744 14.4701C12.2219 14.2351 13.2925 14.0733 14.0862 13.974H14.1071C14.1674 13.9743 14.2255 13.9518 14.27 13.9112C14.3145 13.8706 14.3421 13.8147 14.3473 13.7547L14.8591 8.63695L14.6189 8.60561ZM7.24515 15.2744L7.05715 15.3109C6.88703 15.3559 6.7144 15.3908 6.54016 15.4154L6.58716 15.6347C6.79082 15.5146 7.01015 15.3945 7.24515 15.2744Z" fill="#221F1F"/>
<path d="M26.3564 17.781L26.017 17.9324L25.688 18.0839L25.2128 18.298C23.9613 17.8188 22.6674 17.4586 21.3483 17.2222C19.6271 16.8959 17.8779 16.7402 16.1261 16.7574C14.3742 16.742 12.625 16.8994 10.9039 17.2274C9.5849 17.4616 8.29099 17.82 7.03951 18.298L6.56951 18.0839L5.89062 17.781C5.91674 17.2222 5.89062 16.9141 5.89062 16.3553C6.03162 16.2718 6.20396 16.1569 6.41285 16.042L6.46507 16.0107C7.76578 15.1863 9.19564 14.5861 10.6951 14.2351C12.1834 14.0001 13.2435 13.8382 14.0634 13.7338C15.399 13.6512 16.7384 13.6512 18.074 13.7338C18.8939 13.8382 19.9645 13.9949 21.4685 14.2351C22.9959 14.5959 24.4545 15.2026 25.7872 16.0316L25.829 16.0525C26.0274 16.1673 26.1945 16.2718 26.3251 16.3553C26.3251 16.9141 26.3042 17.2222 26.3251 17.781" fill="#929497"/>
<path fill-rule="evenodd" clip-rule="evenodd" d="M15.6988 13.4309C16.5344 13.4309 17.3125 13.4309 18.0853 13.4883C18.9157 13.5928 19.9915 13.7547 21.4954 13.9949C23.0524 14.3584 24.5395 14.9741 25.8978 15.8174L25.9291 15.8331L25.9448 15.8383L26.4513 16.1517C26.4821 16.1727 26.5076 16.2007 26.5257 16.2333C26.5439 16.266 26.5542 16.3024 26.5558 16.3397C26.5714 16.6112 26.5714 16.8253 26.5662 17.029V17.0655C26.5662 17.2797 26.5662 17.4885 26.5871 17.7601C26.5899 17.8096 26.5774 17.8587 26.5512 17.9008C26.525 17.9428 26.4865 17.9758 26.4409 17.9951L26.1066 18.1518L25.7777 18.3032L25.3024 18.5173C25.2731 18.5308 25.2413 18.5382 25.209 18.5391C25.1767 18.54 25.1445 18.5344 25.1144 18.5225C23.8782 18.0484 22.6001 17.6917 21.297 17.4572C19.5848 17.1747 17.852 17.0349 16.1166 17.0394C14.383 17.0363 12.652 17.176 10.9414 17.4572C9.63641 17.6909 8.35649 18.0476 7.11873 18.5225C7.05949 18.545 6.9938 18.5431 6.93595 18.5173L6.74795 18.4338L6.46073 18.3032H6.45551L5.78706 18.0003C5.74412 17.9809 5.70785 17.9492 5.68278 17.9093C5.6577 17.8693 5.64494 17.8229 5.64606 17.7758C5.66173 17.4154 5.65651 17.17 5.65129 16.888V16.3553C5.65038 16.3154 5.65946 16.2758 5.67769 16.2403C5.69593 16.2047 5.72275 16.1742 5.75573 16.1517L5.77662 16.1412L6.26751 15.8383L6.3354 15.7966C7.66184 14.958 9.1201 14.3489 10.6489 13.9949M16.1114 16.5538C17.8731 16.5508 19.6321 16.694 21.3701 16.982C22.674 17.2156 23.9536 17.5687 25.1928 18.0369L25.574 17.8593L25.903 17.7079L26.0858 17.6243C26.0793 17.4381 26.0776 17.2518 26.0805 17.0655V17.029L26.0753 16.4911C25.9552 16.4118 25.8333 16.3351 25.7098 16.2613L25.6784 16.2457L25.6628 16.2352C24.3536 15.4234 22.9216 14.8291 21.4223 14.4753C20.2968 14.2906 19.1687 14.1217 18.0383 13.9688C17.2864 13.9166 16.5239 13.9166 15.6936 13.9166C15.1348 13.9166 14.5917 13.9427 14.0747 13.974C13.26 14.0784 12.2104 14.2403 10.7273 14.4753C9.2579 14.82 7.85646 15.4077 6.58084 16.2143L6.54951 16.23L6.51817 16.2509C6.38552 16.3257 6.25492 16.404 6.12651 16.4859L6.13173 16.8619V17.6243L6.65395 17.8593L6.95684 18.0003L7.04039 18.0369C8.276 17.5688 9.55214 17.2157 10.8526 16.982C12.5926 16.6965 14.3533 16.555 16.1166 16.559L16.1114 16.5538ZM15.6988 13.4309C15.1244 13.4309 14.5604 13.457 14.0329 13.4936L15.6988 13.4309ZM14.0173 13.4936C13.1974 13.598 12.1373 13.7547 10.6489 13.9949L14.0173 13.4936Z" fill="#221F1F"/>
<path d="M18.0814 13.7286C16.7459 13.6454 15.4064 13.6454 14.0708 13.7286H14.1021L14.6191 8.61087L14.7236 7.57687C15.1329 7.35013 15.5926 7.22982 16.0605 7.22698H16.1231C16.591 7.22982 17.0507 7.35013 17.46 7.57687L17.5645 8.60042V8.62653L18.0814 13.7286Z" fill="#929497"/>
<path fill-rule="evenodd" clip-rule="evenodd" d="M16.0568 6.98665H16.1247C16.6329 6.99013 17.1321 7.12122 17.5765 7.36787C17.6112 7.38653 17.6408 7.41343 17.6627 7.44622C17.6845 7.479 17.698 7.51666 17.7018 7.55587L17.8063 8.5742V8.61598L18.3233 13.7024C18.3272 13.7374 18.3234 13.7729 18.312 13.8063C18.3007 13.8397 18.2822 13.8701 18.2578 13.8956C18.2334 13.921 18.2036 13.9407 18.1707 13.9534C18.1378 13.966 18.1026 13.9713 18.0674 13.9687C17.285 13.9223 16.5011 13.9049 15.7174 13.9165C15.1743 13.9165 14.6521 13.9374 14.1507 13.9687L14.0985 13.974H14.0724C14.0096 13.974 13.9493 13.9494 13.9044 13.9055C13.8595 13.8615 13.8336 13.8018 13.8322 13.739C13.831 13.6863 13.8476 13.6348 13.8792 13.5927L14.3805 8.58987L14.485 7.55065C14.4896 7.51236 14.5035 7.47576 14.5253 7.44395C14.5471 7.41213 14.5763 7.38604 14.6103 7.36787C15.0531 7.12206 15.5504 6.991 16.0568 6.98665ZM14.3753 13.4726C15.5234 13.4111 16.6739 13.4111 17.8219 13.4726L17.3258 8.65254V8.61076L17.2371 7.73343C16.8907 7.56367 16.5105 7.47441 16.1247 7.47232H16.0568C15.6729 7.47519 15.2945 7.56443 14.9497 7.73343L14.8505 8.64209L14.3753 13.4726ZM21.1224 17.5042C19.4178 17.1852 17.6865 17.0313 15.9524 17.0446C14.2158 17.0525 12.4829 17.2062 10.772 17.5042C9.46886 17.7386 8.19073 18.0952 6.95455 18.5695C6.92447 18.5813 6.89232 18.5869 6.86002 18.586C6.82771 18.5852 6.79592 18.5777 6.76655 18.5643L6.48977 18.4389C5.81016 19.6301 5.35689 20.9368 5.15289 22.2929C5.08406 22.7579 5.06654 23.2289 5.10067 23.6977C5.22403 24.6429 5.57759 25.5435 6.13028 26.3201C6.68298 27.0968 7.41791 27.7259 8.27054 28.1522C10.6372 29.4143 13.2807 30.0676 15.9628 30.0531C18.7285 30.1178 21.4614 29.4436 23.8797 28.1C24.7711 27.6528 25.5427 26.9991 26.1304 26.1934C26.7181 25.3877 27.1049 24.4533 27.2585 23.4679C27.2933 23.0374 27.281 22.6043 27.2115 22.178C26.9538 20.8124 26.4702 19.4993 25.7806 18.2927L25.65 18.3502L25.1278 18.5695C25.0708 18.5922 25.0073 18.5922 24.9503 18.5695C23.7125 18.0947 22.4273 17.738 21.1224 17.5042ZM27.7389 23.5097C27.5788 24.5712 27.1672 25.5791 26.5386 26.4493C25.91 27.3195 25.0825 28.0269 24.1251 28.5126C21.6311 29.9014 18.8115 30.5991 15.9576 30.5336H15.9524C13.1892 30.5456 10.4665 29.8689 8.03032 28.5648C7.10996 28.1002 6.31771 27.4168 5.72314 26.5746C5.12856 25.7324 4.74984 24.757 4.62022 23.7343C4.58205 23.2291 4.59956 22.7212 4.67245 22.2198C4.89509 20.7306 5.40595 19.2992 6.17644 18.0055C6.20714 17.9532 6.25651 17.9144 6.31463 17.8969C6.37276 17.8795 6.43533 17.8847 6.48977 17.9115L6.87099 18.0838C8.10691 17.618 9.383 17.2666 10.6832 17.0342C12.4216 16.73 14.1824 16.5728 15.9472 16.5642C17.7129 16.5513 19.4757 16.7086 21.2112 17.0342C22.5132 17.266 23.7911 17.6174 25.0286 18.0838L25.4464 17.9115L25.7754 17.7548C25.831 17.7289 25.8945 17.7252 25.9528 17.7447C26.0111 17.7641 26.0597 17.8051 26.0887 17.8593C26.8646 19.165 27.4055 20.5967 27.6867 22.0893V22.0945C27.7612 22.5606 27.7787 23.0393 27.7389 23.5097Z" fill="#221F1F"/>
<path d="M29.454 12.2037C28.9012 12.9796 28.244 13.6755 27.5009 14.2717C27.1338 14.572 26.7303 14.8247 26.2998 15.0237L26.0909 15.1073L25.9656 15.1491C25.6784 15.2274 25.5374 15.1491 24.9995 15.0551L24.7593 15.0133C24.1537 14.8785 23.5982 14.5763 23.156 14.1412C22.6647 13.6995 22.304 13.1313 22.1134 12.4987C21.9228 11.866 21.9095 11.1932 22.075 10.5535C23.8963 10.249 25.5226 9.23496 26.5975 7.73354C27.0537 7.00107 27.3497 6.18026 27.4658 5.32516C27.5819 4.47006 27.5156 3.60006 27.2711 2.77245C27.2488 2.68505 27.255 2.59282 27.2889 2.5092C27.3227 2.42559 27.3823 2.35498 27.4591 2.30767C27.5359 2.26014 27.6257 2.23809 27.7157 2.24465C27.8058 2.25122 27.8914 2.28607 27.9605 2.34423C29.4268 3.48209 30.3999 5.13974 30.6789 6.97467C30.9578 8.8096 30.516 10.6816 29.454 12.2037Z" fill="#F79422"/>
<path fill-rule="evenodd" clip-rule="evenodd" d="M27.7017 2.48C27.6622 2.4761 27.6224 2.4852 27.5885 2.50594C27.5545 2.52667 27.5283 2.5579 27.5137 2.59489C27.4993 2.63155 27.4975 2.67196 27.5085 2.70978C27.7608 3.57149 27.8275 4.47691 27.7042 5.36628C27.5808 6.25565 27.2703 7.10876 26.7931 7.86931C26.1873 8.68302 25.4323 9.37417 24.5684 9.90597C23.8823 10.3736 23.098 10.6773 22.2759 10.7937C22.1716 11.3752 22.2074 11.9731 22.3803 12.538C22.5705 13.0853 22.8935 13.5769 23.3203 13.9688C23.7305 14.3731 24.2463 14.6536 24.8086 14.7783L25.0384 14.8201L25.3831 14.8827L25.404 14.888L25.6129 14.9297C25.7084 14.9481 25.8071 14.9427 25.9001 14.9141L26.015 14.8827L26.203 14.8044C26.6147 14.6134 27.0007 14.3712 27.3518 14.0837C28.0766 13.5024 28.718 12.8241 29.2579 12.068C30.286 10.5963 30.7091 8.78591 30.4398 7.01108C30.1706 5.23626 29.2296 3.63278 27.8114 2.53222L27.8062 2.527C27.7764 2.50274 27.74 2.48294 27.7017 2.48ZM27.3362 2.09878C27.4545 2.02616 27.5925 1.99216 27.731 2.00152C27.8695 2.01088 28.0016 2.06312 28.1091 2.151C29.623 3.32785 30.6274 5.04095 30.9151 6.9368C31.2027 8.83266 30.7516 10.7666 29.6548 12.3395C29.0901 13.1327 28.4188 13.8444 27.66 14.4545C27.2768 14.7673 26.8557 15.0305 26.4066 15.2378L26.3962 15.2431L26.1873 15.3266L26.1716 15.3371L26.0306 15.3788C25.8712 15.4255 25.7032 15.4344 25.5397 15.405C25.4628 15.3911 25.3862 15.3755 25.31 15.358H25.2891L24.9601 15.2953L24.7146 15.2483H24.7094C24.0581 15.1031 23.4608 14.7773 22.9861 14.3083C22.5013 13.8651 22.1335 13.309 21.9155 12.6894C21.7013 11.9809 21.6725 11.2293 21.832 10.5065C21.8431 10.4503 21.874 10.4 21.919 10.3646C21.964 10.3291 22.0202 10.311 22.0774 10.3133C22.882 10.243 23.6534 9.96008 24.3125 9.49342C25.1227 8.99751 25.8315 8.35249 26.4014 7.59254C26.838 6.88776 27.1205 6.09855 27.2303 5.2768C27.3401 4.45504 27.2747 3.61936 27.0385 2.82467C27.0052 2.68905 27.0155 2.54637 27.068 2.41697C27.1205 2.28757 27.2125 2.17804 27.331 2.104L27.3362 2.09878Z" fill="#221F1F"/>
<path d="M25.9771 15.1491L25.7995 16.0316C24.4686 15.1956 23.007 14.5884 21.4755 14.2352C20.3463 14.0515 19.2148 13.8826 18.0811 13.7286L17.5693 8.6213C18.5024 8.67032 19.4133 8.92345 20.2379 9.36285C20.8748 9.67696 21.4512 10.1013 21.9403 10.6162L22.097 10.5692C21.935 11.209 21.95 11.8808 22.1404 12.5128C22.3308 13.1447 22.6895 13.713 23.178 14.1568C23.6216 14.5929 24.179 14.8951 24.7864 15.0289C24.8178 15.0289 24.9849 15.1125 25.0214 15.1177C25.3326 15.2232 25.6668 15.2412 25.9875 15.1699" fill="#5A595C"/>
<path fill-rule="evenodd" clip-rule="evenodd" d="M17.3885 8.45407C17.4126 8.42899 17.442 8.40945 17.4744 8.39683C17.5069 8.3842 17.5417 8.37879 17.5765 8.38096C18.544 8.43194 19.4887 8.69395 20.3443 9.14863C20.9592 9.45198 21.5202 9.85422 22.0049 10.3393H22.0154C22.0551 10.3258 22.0976 10.323 22.1387 10.331C22.1799 10.3391 22.2182 10.3578 22.2499 10.3852C22.2816 10.4127 22.3055 10.448 22.3193 10.4875C22.3332 10.5271 22.3364 10.5696 22.3287 10.6108C22.1849 11.2483 22.2083 11.9121 22.3966 12.5378C22.5897 13.0895 22.9141 13.586 23.3418 13.9844C23.7522 14.3884 24.2679 14.6689 24.8301 14.7938L25.0599 14.8356L25.3785 14.8878L25.3941 14.893L25.6187 14.9348C25.7165 14.9505 25.8166 14.9434 25.9111 14.9139C25.9512 14.9021 25.9937 14.9008 26.0343 14.9104C26.075 14.9199 26.1125 14.94 26.1431 14.9684C26.1737 14.9969 26.1963 15.0329 26.2088 15.0728C26.2212 15.1127 26.223 15.1551 26.214 15.1959L26.0417 16.0733C26.0349 16.1122 26.0187 16.149 25.9944 16.1801C25.97 16.2113 25.9384 16.236 25.9022 16.252C25.8661 16.2681 25.8265 16.2749 25.7871 16.272C25.7476 16.269 25.7095 16.2564 25.6761 16.2352C25.0255 15.8506 24.3543 15.502 23.6656 15.1907C22.9602 14.8564 22.214 14.6158 21.4461 14.4753C20.3173 14.2893 19.1857 14.1205 18.0517 13.9687C17.9978 13.9619 17.9478 13.937 17.9099 13.8981C17.8719 13.8593 17.8483 13.8087 17.8428 13.7546L17.3206 8.64729C17.317 8.61207 17.3212 8.57649 17.3329 8.54309C17.3447 8.50968 17.3636 8.47929 17.3885 8.45407ZM21.8065 10.8145L21.7647 10.7832C21.2949 10.2896 20.7415 9.88297 20.1301 9.58207C19.4205 9.20309 18.6381 8.96711 17.8376 8.88752L18.3076 13.5196C19.1066 13.6241 20.1249 13.7807 21.5192 14.0001C22.0735 14.0909 22.6163 14.2415 23.1381 14.4492L23.0024 14.3343M25.0233 15.3265C25.2375 15.4362 25.4411 15.551 25.6291 15.6555L25.6761 15.4309L25.556 15.4205C25.472 15.4072 25.3884 15.3915 25.3053 15.3735H25.2897L25.0233 15.3265ZM21.8012 10.825C21.6876 11.4638 21.7382 12.1209 21.9483 12.7348C22.1585 13.3487 22.5211 13.8991 23.0024 14.3343" fill="#221F1F"/>
<path fill-rule="evenodd" clip-rule="evenodd" d="M17.3906 8.38097H17.5682V8.86142H17.3958L17.3906 8.38097Z" fill="#221F1F"/>
<path d="M26.0095 14.9505C26.0785 15.0363 26.128 15.136 26.1548 15.2428C26.1815 15.3495 26.1848 15.4608 26.1645 15.569C26.1441 15.6771 26.1006 15.7796 26.0369 15.8694C25.9732 15.9591 25.8908 16.034 25.7954 16.0889" fill="#F79422"/>
<path fill-rule="evenodd" clip-rule="evenodd" d="M25.9183 15.3004C25.8998 15.228 25.866 15.1603 25.8191 15.102L26.1951 14.8043C26.2871 14.9174 26.3531 15.0493 26.3883 15.1908C26.4397 15.4019 26.4212 15.624 26.3355 15.8237C26.2498 16.0233 26.1015 16.1898 25.9131 16.2979L25.6729 15.8801C25.7702 15.8236 25.8467 15.7372 25.8909 15.6336C25.9352 15.5301 25.9448 15.4099 25.9183 15.3004Z" fill="#221F1F"/>
<path d="M6.2087 14.9505C6.10569 15.0805 6.04791 15.2407 6.04414 15.4065C6.04037 15.5724 6.09081 15.735 6.18781 15.8696C6.25141 15.9589 6.3333 16.0337 6.42803 16.0889" fill="#F79422"/>
<path fill-rule="evenodd" clip-rule="evenodd" d="M5.83193 15.1856C5.86663 15.0465 5.93073 14.9165 6.01992 14.8043L6.39592 15.102C6.34909 15.1608 6.31551 15.2291 6.29748 15.3021C6.27945 15.3751 6.27741 15.4511 6.29148 15.525C6.3059 15.5992 6.33624 15.6694 6.38042 15.7307C6.4246 15.792 6.48156 15.843 6.54737 15.8801L6.30715 16.2979C6.11772 16.1905 5.96838 16.0244 5.8817 15.8247C5.79503 15.625 5.77572 15.4025 5.8267 15.1908L5.83193 15.1856Z" fill="#221F1F"/>
<path fill-rule="evenodd" clip-rule="evenodd" d="M16.1738 23.5776C16.2339 23.5788 16.2915 23.6026 16.335 23.6441C16.3785 23.6857 16.4048 23.7421 16.4088 23.8022C16.4123 23.8596 16.4123 23.9171 16.4088 23.9745C16.4193 24.1049 16.4624 24.2306 16.5341 24.3401C16.6326 24.4923 16.7799 24.6064 16.9519 24.6639L16.9727 24.6743C17.1916 24.7807 17.44 24.8102 17.6777 24.7579C17.7086 24.751 17.7405 24.7503 17.7717 24.7558C17.8028 24.7612 17.8325 24.7728 17.8592 24.7898C17.8859 24.8067 17.9089 24.8288 17.9271 24.8547C17.9452 24.8806 17.9581 24.9098 17.965 24.9406C17.9718 24.9715 17.9725 25.0034 17.9671 25.0345C17.9616 25.0657 17.95 25.0954 17.9331 25.1221C17.9161 25.1488 17.894 25.1718 17.8681 25.19C17.8423 25.2081 17.8131 25.221 17.7822 25.2279C17.4428 25.3024 17.0882 25.262 16.7743 25.113C16.528 25.0239 16.3148 24.8618 16.1633 24.6482C16.0139 24.8573 15.8071 25.0187 15.568 25.113C15.2541 25.262 14.8995 25.3024 14.5601 25.2279C14.5292 25.221 14.5 25.2081 14.4741 25.19C14.4482 25.1718 14.4262 25.1488 14.4092 25.1221C14.3922 25.0954 14.3807 25.0657 14.3752 25.0345C14.3697 25.0034 14.3705 24.9715 14.3773 24.9406C14.3842 24.9098 14.397 24.8806 14.4152 24.8547C14.4333 24.8288 14.4564 24.8067 14.4831 24.7898C14.5097 24.7728 14.5395 24.7612 14.5706 24.7558C14.6018 24.7503 14.6337 24.751 14.6645 24.7579C14.9006 24.8085 15.1468 24.7792 15.3643 24.6743L15.3852 24.6639C15.5295 24.6079 15.6559 24.5137 15.7507 24.3913C15.8454 24.2689 15.9051 24.123 15.9231 23.9693C15.9208 23.9101 15.9226 23.8507 15.9283 23.7917C15.9336 23.7308 15.962 23.6742 16.0076 23.6334C16.0532 23.5927 16.1126 23.5761 16.1738 23.5776Z" fill="#171717"/>
<path d="M17.7263 22.4705C17.7263 22.9353 16.9952 23.5933 16.1231 23.5933C15.251 23.5933 14.5146 22.9614 14.5146 22.4966C14.5146 22.0318 15.2458 21.87 16.1179 21.87C16.99 21.87 17.7263 22.0057 17.7263 22.4705Z" fill="#171717"/>
<path d="M16.7902 22.2929C16.7902 22.3973 16.4821 22.554 16.1061 22.554C15.7301 22.554 15.4272 22.4026 15.4272 22.2929C15.4272 22.1832 15.7301 22.2093 16.1061 22.2093C16.4821 22.2093 16.7902 22.178 16.7902 22.2929Z" fill="white"/>
<path fill-rule="evenodd" clip-rule="evenodd" d="M13.6376 23.5776C13.6692 23.5802 13.6999 23.5891 13.7281 23.6036C13.7562 23.6182 13.7812 23.6382 13.8016 23.6625C13.822 23.6868 13.8374 23.7148 13.8469 23.7451C13.8564 23.7753 13.8598 23.8071 13.8569 23.8387C13.8381 24.0485 13.8997 24.2575 14.0293 24.4236C14.1532 24.5849 14.3312 24.6962 14.5306 24.7369H14.6089C14.6726 24.7369 14.7337 24.7622 14.7788 24.8073C14.8238 24.8523 14.8491 24.9134 14.8491 24.9771C14.8491 25.0409 14.8238 25.102 14.7788 25.147C14.7337 25.1921 14.6726 25.2174 14.6089 25.2174H14.4627C14.1384 25.1569 13.8481 24.9783 13.648 24.716C13.4465 24.4561 13.3496 24.13 13.3765 23.8022C13.3791 23.7706 13.388 23.7398 13.4025 23.7117C13.4171 23.6835 13.4371 23.6585 13.4614 23.6381C13.4856 23.6177 13.5137 23.6023 13.5439 23.5929C13.5742 23.5834 13.606 23.5747 13.6376 23.5776ZM16.1651 23.0293C16.1971 23.0286 16.2289 23.0343 16.2587 23.046C16.2884 23.0578 16.3155 23.0754 16.3384 23.0978C16.3612 23.1201 16.3794 23.1468 16.3918 23.1763C16.4042 23.2058 16.4106 23.2375 16.4106 23.2695V23.8126C16.4106 23.877 16.385 23.9388 16.3395 23.9843C16.2939 24.0298 16.2321 24.0554 16.1677 24.0554C16.1033 24.0554 16.0416 24.0298 15.996 23.9843C15.9505 23.9388 15.9249 23.877 15.9249 23.8126V23.2695C15.9249 23.2058 15.9502 23.1447 15.9953 23.0996C16.0403 23.0546 16.1014 23.0293 16.1651 23.0293ZM18.6979 23.5776C18.7295 23.5747 18.7613 23.5781 18.7915 23.5876C18.8218 23.5971 18.8499 23.6125 18.8741 23.6329C18.8984 23.6533 18.9184 23.6783 18.933 23.7064C18.9475 23.7346 18.9564 23.7653 18.959 23.7969C18.9929 24.1287 18.8996 24.4609 18.6979 24.7265C18.4974 24.9918 18.205 25.1725 17.878 25.233H17.7266C17.6629 25.233 17.6018 25.2077 17.5567 25.1627C17.5117 25.1176 17.4863 25.0565 17.4863 24.9928C17.4863 24.9291 17.5117 24.868 17.5567 24.823C17.6018 24.7779 17.6629 24.7526 17.7266 24.7526H17.8101C18.0114 24.713 18.1914 24.6017 18.3167 24.4393C18.4452 24.2709 18.5049 24.0599 18.4838 23.8492C18.4802 23.8176 18.4828 23.7856 18.4917 23.7551C18.5005 23.7245 18.5153 23.696 18.5352 23.6713C18.5551 23.6465 18.5798 23.6259 18.6077 23.6107C18.6356 23.5956 18.6663 23.5808 18.6979 23.5776Z" fill="#171717"/>
<path fill-rule="evenodd" clip-rule="evenodd" d="M30.4357 7.01279C30.1648 5.23848 29.2249 3.63521 27.809 2.53215L28.1014 2.15092C29.6176 3.32716 30.624 5.04091 30.9127 6.93805C31.2013 8.83518 30.7502 10.7707 29.6524 12.3447L29.2607 12.0679C30.2877 10.5965 30.705 8.78682 30.4357 7.01279ZM4.42396 2.51648C4.39153 2.49493 4.35321 2.48398 4.31429 2.48515C4.27595 2.48775 4.23941 2.50236 4.20985 2.52692L4.20463 2.53215C2.78396 3.63043 1.83987 5.23283 1.5677 7.00778C1.29553 8.78273 1.7161 10.5944 2.74241 12.0679C3.27959 12.8246 3.91934 13.503 4.64329 14.0837C4.99444 14.3712 5.38045 14.6133 5.79218 14.8043C5.90667 14.8563 6.02549 14.8983 6.14728 14.9297L6.25173 14.9453C6.48631 14.9256 6.71871 14.8854 6.94628 14.8252L6.96195 14.82L7.19695 14.7782C7.75768 14.6535 8.27178 14.3729 8.68005 13.9688C9.11018 13.5776 9.43672 13.086 9.63049 12.5379C9.80289 11.9765 9.83869 11.3821 9.73494 10.8041C8.91094 10.6888 8.12464 10.385 7.43717 9.91634C6.57312 9.38474 5.81814 8.69356 5.21251 7.87968C4.73677 7.1165 4.42799 6.26125 4.30648 5.37017C4.18497 4.4791 4.25348 3.5724 4.50751 2.7097C4.51432 2.67461 4.51069 2.6383 4.49707 2.60526C4.48289 2.56857 4.45725 2.53743 4.42396 2.51648ZM4.28296 2.0047C4.42194 1.99638 4.56006 2.03166 4.67802 2.10562C4.79598 2.17958 4.88791 2.28853 4.94096 2.41726C4.994 2.54635 5.00497 2.6889 4.97229 2.82459C4.73541 3.6218 4.66971 4.46008 4.77951 5.28446C4.88931 6.10884 5.17212 6.9007 5.6094 7.60813C6.17785 8.3675 6.88483 9.01247 7.69306 9.50901C8.3537 9.97653 9.12702 10.2595 9.93338 10.3289C9.98973 10.3278 10.0447 10.3466 10.0886 10.3819C10.1325 10.4172 10.1626 10.4668 10.1736 10.5221C10.3303 11.2402 10.2997 11.9865 10.0848 12.6893C9.86777 13.3081 9.50193 13.8641 9.0195 14.3082C8.5453 14.7779 7.94783 15.1038 7.29617 15.2482H7.2805L7.05595 15.29C6.79916 15.3563 6.53705 15.4 6.27262 15.4205H6.23606C6.17113 15.4163 6.10657 15.4076 6.04284 15.3944H6.0324C5.88028 15.357 5.73175 15.3064 5.58851 15.243C5.13942 15.0357 4.71832 14.7725 4.33518 14.4597C3.57736 13.85 2.90776 13.1383 2.34552 12.3447C1.24707 10.7705 0.795989 8.83422 1.08568 6.93667C1.37536 5.03913 2.38363 3.32563 3.90174 2.15092C4.00902 2.06462 4.14556 2.01356 4.28296 2.0047Z" fill="#221F1F"/>
<path d="M13.1915 19.8698C13.1915 20.7419 12.6797 21.4365 12.0426 21.4365C11.4055 21.4365 10.8989 20.7367 10.8989 19.8698C10.8721 19.5492 10.9463 19.2282 11.1111 18.952C11.276 18.6757 11.5232 18.4579 11.818 18.3293L13.1027 19.2901C13.1594 19.4782 13.1893 19.6734 13.1915 19.8698Z" fill="#221F1F"/>
<path d="M12.7634 19.6609C12.7634 19.9691 12.5858 20.2249 12.3665 20.2249C12.1471 20.2249 11.9644 19.9638 11.9644 19.6609C11.9644 19.3581 12.1471 19.0969 12.3665 19.0969C12.5858 19.0969 12.7634 19.3476 12.7634 19.6609Z" fill="white"/>
<path d="M11.7942 21.0448C11.3571 21.4048 10.955 21.8052 10.5931 22.2407C10.4198 22.454 10.2725 22.6871 10.1544 22.9352C10.0348 23.1889 9.95047 23.4577 9.90373 23.7342C9.87875 23.8729 9.85785 24.0122 9.84107 24.152L9.8254 24.3661V24.5802C9.80914 24.869 9.80914 25.1584 9.8254 25.4471C9.84706 25.7383 9.88718 26.0279 9.94551 26.314C9.97422 26.4582 10.0091 26.601 10.05 26.7422C10.0853 26.8784 10.1325 27.0112 10.191 27.1391C10.1156 27.0124 10.051 26.8797 9.99773 26.7422L9.84107 26.3401C9.75148 26.0573 9.67825 25.7696 9.62174 25.4785C9.56559 25.1849 9.52549 24.8886 9.50162 24.5907L9.48596 24.3713V24.1416C9.48483 23.9899 9.4918 23.8382 9.50685 23.6872C9.53146 23.3734 9.59821 23.0642 9.70529 22.7681C9.81072 22.4739 9.95097 22.1934 10.1231 21.9326C10.468 21.427 10.8597 20.955 11.2928 20.5226C11.3616 20.4579 11.4527 20.4223 11.5472 20.4232C11.6416 20.4242 11.732 20.4617 11.7994 20.5278C11.8674 20.5923 11.9075 20.6807 11.9114 20.7742C11.9153 20.8678 11.8826 20.9593 11.8203 21.0291L11.7942 21.0448Z" fill="#221F1F"/>
<path d="M11.53 20.9299C11.5024 20.9355 11.474 20.9355 11.4465 20.9299H11.3055L11.1227 20.8881C10.9986 20.8645 10.8729 20.8505 10.7467 20.8464C10.4943 20.8291 10.2407 20.8502 9.99469 20.909C9.87071 20.9387 9.75 20.9807 9.63436 21.0344C9.27142 21.203 8.96363 21.471 8.74658 21.8072C8.84737 21.5465 8.99418 21.3059 9.18003 21.097C9.27486 20.9897 9.37979 20.8918 9.49336 20.8046C9.60907 20.7159 9.73326 20.639 9.86413 20.5748C10.1243 20.4257 10.4062 20.3182 10.6997 20.2563C10.8466 20.2311 10.9948 20.2137 11.1436 20.204H11.53C11.5809 20.2012 11.6318 20.209 11.6794 20.227C11.7271 20.245 11.7705 20.2727 11.8068 20.3085C11.8428 20.3446 11.8707 20.3879 11.8887 20.4356C11.9067 20.4834 11.9144 20.5344 11.9112 20.5853C11.9079 20.6612 11.8809 20.7342 11.8341 20.7941C11.7873 20.854 11.723 20.8978 11.6501 20.9195C11.5993 20.9343 11.5458 20.9378 11.4935 20.9299M21.4365 19.8698C21.4365 20.7419 20.9248 21.4365 20.2981 21.4365C19.6714 21.4365 19.1492 20.7367 19.1492 19.8698C19.1482 19.6722 19.1746 19.4753 19.2275 19.2849L20.5122 18.3293C20.8105 18.4543 21.0613 18.6709 21.2284 18.9478C21.3955 19.2248 21.465 19.5476 21.4365 19.8698Z" fill="#221F1F"/>
<path d="M19.5635 19.6609C19.5635 19.9691 19.7515 20.2249 19.9656 20.2249C20.1797 20.2249 20.3677 19.9638 20.3677 19.6609C20.3677 19.3581 20.1849 19.0969 19.9656 19.0969C19.7463 19.0969 19.5635 19.3476 19.5635 19.6609Z" fill="white"/>
<path d="M21.0444 20.5174C21.4693 20.9442 21.8538 21.4092 22.1933 21.9065C22.3644 22.1557 22.5097 22.4216 22.6267 22.7003C22.744 22.9849 22.8247 23.2832 22.8669 23.5881C22.9033 23.8899 22.9033 24.1949 22.8669 24.4967C22.8337 24.7878 22.7866 25.0771 22.7259 25.3636C22.6674 25.6497 22.5924 25.9322 22.5014 26.2096C22.4544 26.3506 22.4126 26.4864 22.3552 26.6065C22.303 26.7461 22.2383 26.8807 22.1619 27.0086C22.2211 26.8786 22.27 26.7442 22.3082 26.6065C22.3475 26.4684 22.3823 26.3291 22.4126 26.1887C22.4739 25.9095 22.5192 25.6271 22.5484 25.3427C22.5745 25.0555 22.5902 24.7683 22.5902 24.4863C22.5915 24.2088 22.5617 23.9321 22.5014 23.6612C22.437 23.3956 22.3387 23.1393 22.2089 22.8988C22.0776 22.6584 21.9237 22.4311 21.7494 22.2199C21.3851 21.7865 20.9832 21.3864 20.5483 21.024C20.4918 20.9577 20.4608 20.8734 20.4609 20.7863C20.4611 20.6993 20.4923 20.6151 20.5489 20.549C20.6056 20.4828 20.684 20.4391 20.7701 20.4257C20.8561 20.4122 20.9441 20.43 21.0183 20.4757L21.0444 20.4965" fill="#221F1F"/>
<path d="M20.7811 20.2093H21.2093C21.3665 20.2132 21.5234 20.2254 21.6793 20.2458C21.987 20.291 22.2874 20.3771 22.5723 20.5017C22.8558 20.6257 23.1129 20.803 23.3295 21.0239C23.5375 21.2337 23.7025 21.482 23.8152 21.755C23.6543 21.5188 23.4485 21.3165 23.2094 21.1597C22.9814 21.0076 22.726 20.9012 22.4574 20.8464C22.1928 20.794 21.9224 20.7764 21.6532 20.7942C21.5184 20.802 21.3841 20.8177 21.2511 20.8412L21.0527 20.8777H20.8177C20.7687 20.8839 20.719 20.8803 20.6714 20.8673C20.5976 20.8465 20.5321 20.8031 20.4843 20.7431C20.4366 20.6831 20.4088 20.6096 20.4051 20.533C20.403 20.483 20.4112 20.4331 20.4292 20.3864C20.4471 20.3397 20.4745 20.2972 20.5096 20.2615C20.5471 20.2265 20.5916 20.1998 20.6401 20.1832C20.6865 20.1645 20.7363 20.1556 20.7863 20.157" fill="#221F1F"/>
</svg>
