<svg width="32" height="32" viewBox="0 0 32 32" fill="none" xmlns="http://www.w3.org/2000/svg">
<path fill-rule="evenodd" clip-rule="evenodd" d="M21.856 9.35598H29.0029V3H21.856C19.5385 3.00304 17.3169 3.92582 15.6792 5.56567C14.0415 7.20552 13.1216 9.42835 13.1216 11.7459V12.5311H19.4718L19.4718 18.887L25.8249 18.887V12.5311H19.4718V11.7459C19.4718 11.1136 19.723 10.5072 20.1702 10.06C20.6173 9.61291 21.2237 9.36171 21.856 9.36171V9.35598ZM13.1216 18.8813L13.1187 18.8813V12.5311H10.7287C9.00171 12.5322 7.31378 13.0453 5.87828 14.0055C4.44279 14.9657 3.32416 16.3299 2.66378 17.9256C2.0034 19.5214 1.83091 21.2772 2.16811 22.9709C2.50532 24.6647 3.33708 26.2205 4.55827 27.4417C5.77946 28.6629 7.33527 29.4947 9.02905 29.8319C10.7228 30.1691 12.4786 29.9966 14.0744 29.3362C15.6701 28.6758 17.0343 27.5572 17.9945 26.1217C18.9547 24.6862 19.4678 22.9983 19.4689 21.2713V18.887L19.4679 18.887H13.1216V18.8813ZM13.1187 18.8813V21.2655C13.1187 21.7371 12.9788 22.198 12.7169 22.5901C12.4549 22.9822 12.0825 23.2878 11.6469 23.4683C11.2112 23.6487 10.7318 23.6959 10.2693 23.6039C9.80683 23.5119 9.38201 23.2849 9.04857 22.9514C8.71513 22.618 8.48806 22.1932 8.39607 21.7307C8.30407 21.2682 8.35129 20.7888 8.53174 20.3531C8.7122 19.9175 9.01779 19.5451 9.40987 19.2831C9.80195 19.0211 10.2629 18.8813 10.7345 18.8813H13.1187Z" fill="#16FF99"/>
</svg>
