<svg width="32" height="32" viewBox="0 0 32 32" fill="none" xmlns="http://www.w3.org/2000/svg">
<path d="M18.0843 29.364L15.5016 30.8556L9.95068 27.6522L12.4734 26.2007L12.5334 26.1656L12.6335 26.2207L18.0843 29.364Z" fill="#2B61D1"/>
<path d="M27.9965 9.21264V12.2158L22.5357 9.06248L21.0541 8.20657L19.5726 9.05748L12.6302 13.0717L11.1486 13.9226V15.6995L8.4758 14.1579L6.99423 13.302L5.51266 14.1529L3 15.6044V9.21765L15.4982 2L27.9965 9.21264Z" fill="#2B61D1"/>
<path d="M27.9999 15.6344V23.6529L21.0576 27.6572H21.0476L14.1152 23.6529V15.6294L21.0576 11.6202L27.9999 15.6344Z" fill="#2B61D1"/>
<path d="M10.9883 19.0231V23.628L6.99411 25.9354L3.00488 23.633V19.0231L6.99411 16.7206L10.9883 19.0231Z" fill="#2B61D1"/>
</svg>
