<svg width="32" height="32" viewBox="0 0 32 32" fill="none" xmlns="http://www.w3.org/2000/svg">
<path fill-rule="evenodd" clip-rule="evenodd" d="M18.207 11.7102L23.303 8.75862V14.6618L18.207 11.7102ZM23.303 24.377L16.505 28.3191L9.70705 24.377V17.4783L16.505 21.4204L23.303 17.4783V24.377ZM9.70705 8.76362L14.803 11.7152L9.70705 14.6668V8.76362ZM17.356 13.121L22.447 16.0725L17.351 19.0241L17.356 13.121ZM15.649 19.0291L10.5631 16.0725L15.6591 13.121L15.649 19.0291ZM22.447 7.34786L16.505 10.7247L10.5581 7.34786L16.505 3.83098L22.447 7.34786ZM8 6.78756V25.2174L16.5 30L25 25.2174V6.78756L16.505 2L8 6.78756Z" fill="#13B5EC"/>
</svg>
