<svg width="32" height="32" viewBox="0 0 32 32" fill="none" xmlns="http://www.w3.org/2000/svg">
<path d="M10.1548 5H28.3005V10.8643H10.1548V5Z" fill="#02A6C2"/>
<path d="M3.00754 13.0703C4.96063 13.0603 6.91206 13.0603 8.8618 13.0703C8.87185 15.0234 8.87185 16.9748 8.8618 18.9246C6.91206 18.9346 4.96063 18.9346 3.00754 18.9246C2.99749 16.9748 2.99749 15.0234 3.00754 13.0703ZM10.1583 13.0703C14.5234 13.0603 18.8886 13.0603 23.2538 13.0703C23.2638 15.0234 23.2638 16.9748 23.2538 18.9246C18.8886 18.9346 14.5234 18.9346 10.1583 18.9246C10.1482 16.9748 10.1482 15.0234 10.1583 13.0703Z" fill="#5FCADE"/>
<path d="M10.165 21.1457C12.1114 21.1223 14.0594 21.1223 16.0092 21.1457C16.0293 23.0888 16.0293 25.0352 16.0092 26.9849C14.0594 27.005 12.1114 27.005 10.165 26.9849C10.1449 25.0419 10.1449 23.0955 10.165 21.1457Z" fill="#ABEBF4"/>
</svg>
