<svg width="32" height="32" viewBox="0 0 32 32" fill="none" xmlns="http://www.w3.org/2000/svg">
<path d="M7.38178 4.3708L6 5.73658L7.7462 7.46891L9.49241 9.20123L9.35069 9.62302C9.16794 10.1494 9.07888 10.7033 9.08749 11.2599C9.08577 12.241 9.3595 13.2032 9.87801 14.0387C10.3965 14.8741 11.1393 15.5498 12.0231 15.99C13.136 16.5283 14.3056 16.9426 15.5105 17.2252C16.8026 17.4807 18.0695 17.8486 19.2965 18.3248C19.6009 18.4281 19.8763 18.6017 20.0998 18.8313C20.3233 19.0609 20.4886 19.34 20.5821 19.6454C20.6493 20.0074 20.6476 20.3787 20.577 20.7401C20.4606 21.1025 20.2726 21.4383 20.0241 21.7279C19.7756 22.0176 19.4715 22.2553 19.1294 22.4272C17.9112 22.947 16.5552 23.0581 15.2675 22.7435C14.7439 22.5997 14.2515 22.3614 13.8149 22.0406C13.0624 21.3512 12.5591 20.4355 12.3825 19.4345L12.3066 19.1081C10.9939 19.2171 9.68288 19.3443 8.37382 19.4898C8.36456 19.6075 8.37309 19.726 8.39913 19.8412C8.53121 20.7529 8.79546 21.6408 9.18366 22.4774L9.38612 22.8992L7.69053 24.5813L6 26.2634L7.38684 27.6342L8.76862 29L10.5148 27.2677L12.261 25.5353L12.5647 25.6609C14.5822 26.3652 16.7469 26.5501 18.8561 26.1981C19.4628 26.1089 20.0606 25.9678 20.6428 25.7764L20.8959 25.686L22.5662 27.343L24.2364 29L25.6132 27.6342L26.9949 26.2584L25.4461 24.7219L23.8973 23.1854L24.0897 22.7937C24.4794 22.0413 24.6873 21.2093 24.697 20.3635C24.7667 19.5897 24.6711 18.8101 24.4164 18.0755C24.1618 17.341 23.7538 16.6679 23.2191 16.1004C21.5636 14.6601 19.5049 13.7545 17.3174 13.5044C14.8221 12.8818 13.7491 12.455 13.3189 11.9177C13.1135 11.6644 12.9941 11.3532 12.9778 11.0286C12.9614 10.7039 13.0489 10.3824 13.2278 10.1101C13.5743 9.70891 14.0319 9.41737 14.5437 9.27153C15.3656 9.03938 16.2238 8.96106 17.0745 9.04056C17.7799 9.03095 18.4648 9.27634 19.0013 9.73093C19.5378 10.1855 19.8892 10.8182 19.9899 11.511L20.081 11.8725C20.081 11.8826 22.8496 11.7822 23.6746 11.742L24.1504 11.7219L24.1251 11.3905C24.0778 10.7433 23.9328 10.1069 23.6949 9.50251L23.5582 9.15102L25.2791 7.4438L27 5.73658L25.6182 4.36578L24.2314 3L22.4953 4.72229L20.7542 6.44959L20.329 6.28891C19.1973 5.88653 18.0033 5.68429 16.8012 5.69139C15.3976 5.61549 13.9931 5.82041 12.671 6.29394L12.2661 6.45964L10.5148 4.72731L8.76356 3L7.38178 4.3708Z" fill="#4A4A4A"/>
</svg>
