<svg width="32" height="32" viewBox="0 0 32 32" fill="none" xmlns="http://www.w3.org/2000/svg">
<path d="M7.23034 14.5683L14.6396 7.16533C14.9281 6.86583 15.0874 6.46499 15.0832 6.04917C15.079 5.63334 14.9117 5.2358 14.6172 4.94217C14.3227 4.64854 13.9247 4.48231 13.5089 4.4793C13.0931 4.47628 12.6927 4.63672 12.394 4.92606L4.9974 12.329C4.72732 12.6311 4.58315 13.0252 4.59449 13.4303C4.60583 13.8354 4.77181 14.2207 5.05837 14.5073C5.34492 14.7939 5.7303 14.9598 6.13539 14.9712C6.54048 14.9825 6.9282 14.8383 7.23034 14.5683ZM24.7259 17.2579L17.3229 24.6609C17.0344 24.9604 16.8751 25.3612 16.8793 25.777C16.8835 26.1929 17.0509 26.5904 17.3453 26.884C17.6398 27.1777 18.0378 27.3439 18.4536 27.3469C18.8695 27.3499 19.2699 27.1895 19.5686 26.9001L26.9651 19.5036C27.2545 19.2049 27.4149 18.8045 27.4119 18.3886C27.4089 17.9728 27.2427 17.5748 26.949 17.2803C26.6554 16.9859 26.2579 16.8185 25.842 16.8143C25.4262 16.8101 25.0254 16.9694 24.7259 17.2579ZM25.5696 4.1902L4.25521 25.5046C3.96672 25.8041 3.80741 26.2049 3.8116 26.6207C3.81579 27.0365 3.98314 27.4341 4.27761 27.7277C4.57207 28.0214 4.97008 28.1876 5.38592 28.1906C5.80176 28.1936 6.20214 28.0332 6.50083 27.7438L27.8152 6.43582C28.1121 6.13719 28.2783 5.73284 28.2771 5.3117C28.2759 4.89057 28.1075 4.48715 27.8088 4.1902C27.5102 3.89326 27.1058 3.7271 26.6847 3.72829C26.2636 3.72948 25.8602 3.89792 25.5632 4.19655L25.5696 4.1902Z" fill="#3671FF"/>
<path d="M5.37674 29C4.90656 28.9996 4.44704 28.8598 4.05623 28.5984C3.66542 28.337 3.36084 27.9656 3.18096 27.5312C3.00109 27.0968 2.95398 26.6188 3.0456 26.1576C3.13721 25.6965 3.36344 25.2728 3.6957 24.9401L25.0101 3.63845C25.461 3.21826 26.0574 2.9895 26.6737 3.00037C27.29 3.01124 27.878 3.2609 28.3138 3.69675C28.7497 4.13259 28.9993 4.72059 29.0102 5.33687C29.0211 5.95315 28.7923 6.54959 28.3721 7.00054L7.05779 28.3022C6.83891 28.5238 6.57811 28.6997 6.29058 28.8195C6.00306 28.9393 5.69457 29.0006 5.38309 29H5.37674ZM26.6911 4.52655C26.5855 4.52433 26.4805 4.5434 26.3824 4.58264C26.2843 4.62187 26.1951 4.68047 26.1202 4.75492L4.81851 26.0693C4.71072 26.1804 4.63784 26.3207 4.60887 26.4729C4.57989 26.625 4.59608 26.7822 4.65545 26.9252C4.71481 27.0683 4.81475 27.1908 4.94293 27.2776C5.0711 27.3645 5.22191 27.4119 5.37674 27.4141C5.48175 27.4146 5.5858 27.3942 5.68277 27.3539C5.77973 27.3135 5.86764 27.2542 5.94132 27.1794L27.2493 5.88407C27.3596 5.77282 27.4345 5.63139 27.4645 5.47763C27.4944 5.32387 27.4782 5.16467 27.4178 5.02013C27.3574 4.87558 27.2556 4.75217 27.1251 4.66545C26.9946 4.57874 26.8414 4.53261 26.6848 4.5329L26.6911 4.52655ZM18.4445 28.1626C17.9743 28.1622 17.5148 28.0225 17.124 27.7611C16.7331 27.4997 16.4286 27.1283 16.2487 26.6939C16.0688 26.2595 16.0217 25.7815 16.1133 25.3203C16.2049 24.8591 16.4312 24.4354 16.7634 24.1028L24.1664 16.6998C24.3852 16.4782 24.646 16.3024 24.9336 16.1826C25.2211 16.0628 25.5296 16.0014 25.8411 16.002C26.3118 16.0012 26.7722 16.14 27.164 16.401C27.5557 16.6619 27.8613 17.0332 28.042 17.4679C28.2226 17.9026 28.2703 18.3811 28.1789 18.8428C28.0874 19.3046 27.8611 19.7289 27.5284 20.0619L20.1255 27.4649C19.9052 27.6864 19.6433 27.8621 19.3548 27.9819C19.0662 28.1016 18.7569 28.1631 18.4445 28.1626ZM25.8474 17.5879C25.7439 17.5874 25.6413 17.6073 25.5455 17.6465C25.4497 17.6857 25.3626 17.7434 25.2892 17.8163L17.8862 25.2192C17.7373 25.3681 17.6537 25.5701 17.6537 25.7806C17.6537 25.9912 17.7373 26.1932 17.8862 26.342C18.0351 26.4909 18.2371 26.5746 18.4476 26.5746C18.6582 26.5746 18.8602 26.4909 19.009 26.342L26.412 18.9391C26.5223 18.8279 26.5971 18.6864 26.6271 18.5327C26.6571 18.3789 26.6409 18.2197 26.5805 18.0752C26.5201 17.9306 26.4182 17.8072 26.2878 17.7205C26.1573 17.6338 26.0041 17.5877 25.8474 17.5879ZM6.1126 15.8244C5.64187 15.8253 5.18148 15.6864 4.78969 15.4255C4.39791 15.1646 4.09235 14.7933 3.91168 14.3586C3.73102 13.9239 3.68338 13.4454 3.77479 12.9836C3.86621 12.5219 4.09256 12.0976 4.42521 11.7646L11.8281 4.36162C12.2791 3.94142 12.8755 3.71266 13.4918 3.72354C14.1081 3.73441 14.6961 3.98407 15.1319 4.41991C15.5678 4.85576 15.8174 5.44375 15.8283 6.06003C15.8392 6.67632 15.6104 7.27276 15.1902 7.72371L7.7873 15.133C7.34018 15.5763 6.7359 15.8249 6.10625 15.8244H6.1126ZM13.5092 5.24972C13.4052 5.25002 13.3024 5.27092 13.2066 5.3112C13.1108 5.35149 13.0239 5.41036 12.951 5.48443L5.54802 12.8874C5.47417 12.961 5.41559 13.0485 5.37561 13.1449C5.33564 13.2412 5.31506 13.3445 5.31506 13.4488C5.31506 13.5531 5.33564 13.6563 5.37561 13.7527C5.41559 13.849 5.47417 13.9365 5.54802 14.0102C5.69838 14.1563 5.89977 14.238 6.10942 14.238C6.31907 14.238 6.52046 14.1563 6.67083 14.0102L14.0674 6.60724C14.1773 6.49637 14.2521 6.35552 14.2823 6.20235C14.3125 6.04918 14.2968 5.8905 14.2371 5.74621C14.1775 5.60192 14.0767 5.47844 13.9472 5.39125C13.8177 5.30405 13.6653 5.25703 13.5092 5.25606V5.24972Z" fill="#3671FF"/>
</svg>
