<svg width="32" height="32" viewBox="0 0 32 32" fill="none" xmlns="http://www.w3.org/2000/svg">
<path d="M30 8.76539V23.1868C26.0612 25.9204 20.9947 27.9745 17.2803 31V28.569C20.7114 26.345 24.3349 24.2803 27.905 22.0403V12.3163C24.9549 14.1635 21.8979 15.6338 19.092 17.4968V20.7771L17.2803 21.6635V16.0531L30 8.76539ZM15.7785 16.0372V30.793L3 23.1231V8.70701L5.0576 9.9225V21.982L13.8812 27.3535V17.2686L10.9418 15.586V13.2771L15.7785 16.0372ZM29.1823 7.73036L27.1354 8.95117L25.0297 7.79405L16.5481 3.23461L7.981 7.80467L16.5481 12.6667L17.1894 12.2951L17.8468 11.9395L19.3058 11.1115L21.4436 12.1943L20.5137 12.7251L17.136 14.673L16.5 15.0446L3.83373 7.74628C7.99577 5.4075 12.2081 3.15822 16.4679 1C20.1395 2.67728 23.5172 4.70488 27.0499 6.62633C27.7767 7.00318 28.4715 7.36943 29.1823 7.73036Z" fill="#4A4A4A"/>
</svg>
