<svg width="32" height="32" viewBox="0 0 32 32" fill="none" xmlns="http://www.w3.org/2000/svg">
<path d="M21.2105 10.3249C21.2064 9.15017 20.8176 8.00376 20.0947 7.035L23 4.36919L21.5842 3L18.6053 5.73838C17.5965 5.0458 16.364 4.68461 15.1053 4.7127C13.5831 4.71201 12.116 5.23634 10.994 6.18201C9.87202 7.12769 9.17685 8.4259 9.04589 9.82C8.91494 11.2141 9.35773 12.6026 10.2867 13.7111C11.2157 14.8196 12.5634 15.5673 14.0632 15.8065V17.8579C12.5569 18.0978 11.2034 18.8483 10.27 19.9612C9.3367 21.0742 8.89151 22.4684 9.02245 23.8685C9.1534 25.2686 9.85095 26.5726 10.9772 27.5227C12.1035 28.4728 13.5766 29 15.1053 29C16.634 29 18.107 28.4728 19.2333 27.5227C20.3596 26.5726 21.0571 25.2686 21.1881 23.8685C21.319 22.4684 20.8738 21.0742 19.9405 19.9612C19.0072 18.8483 17.6536 18.0978 16.1474 17.8579V15.8065C17.5582 15.5868 18.8394 14.9165 19.7656 13.9138C20.6917 12.9112 21.2034 11.6403 21.2105 10.3249ZM19.2 23.4072C19.199 24.1515 18.9579 24.8788 18.5074 25.4971C18.0568 26.1155 17.4169 26.5972 16.6686 26.8813C15.9203 27.1655 15.0972 27.2393 14.3032 27.0935C13.5093 26.9478 12.7801 26.5889 12.208 26.0623C11.6359 25.5357 11.2464 24.865 11.0888 24.135C10.9313 23.4049 11.0127 22.6483 11.3227 21.9608C11.6328 21.2733 12.1576 20.6857 12.8309 20.2724C13.5042 19.859 14.2956 19.6383 15.1053 19.6383C16.1892 19.6472 17.2259 20.0473 17.9919 20.7523C18.7579 21.4573 19.1918 22.4108 19.2 23.4072ZM15.1053 14.0213C14.3027 14.0145 13.5204 13.7892 12.8572 13.3738C12.194 12.9583 11.6797 12.3714 11.3793 11.6873C11.0789 11.0032 11.006 10.2525 11.1697 9.53027C11.3334 8.80803 11.7265 8.14664 12.2991 7.62973C12.8717 7.11282 13.5982 6.76361 14.3867 6.62624C15.1753 6.48888 15.9904 6.56955 16.7291 6.85804C17.4677 7.14652 18.0967 7.62988 18.5365 8.24698C18.9764 8.86408 19.2073 9.58721 19.2 10.3249C19.1889 11.3143 18.7517 12.2593 17.9843 12.953C17.2168 13.6467 16.1816 14.0326 15.1053 14.0261V14.0213Z" fill="#181EA9"/>
</svg>
