<svg width="32" height="32" viewBox="0 0 32 32" fill="none" xmlns="http://www.w3.org/2000/svg">
<path d="M28.2566 14.2223H5.81201C5.81201 11.246 6.99436 8.39152 9.09894 6.28693C11.2035 4.18235 14.058 3 17.0343 3C20.0106 3 22.8651 4.18235 24.9697 6.28693C27.0742 8.39152 28.2566 11.246 28.2566 14.2223Z" fill="#53CBC8"/>
<path d="M30.6155 16.0149H4.60957C4.23058 16.0149 3.92334 16.3221 3.92334 16.7011V16.7957C3.92334 17.1747 4.23058 17.482 4.60957 17.482H30.6155C30.9945 17.482 31.3017 17.1747 31.3017 16.7957V16.7011C31.3017 16.3221 30.9945 16.0149 30.6155 16.0149Z" fill="#E1147B"/>
<path d="M19.6346 19.0558H0.686233C0.307237 19.0558 0 19.363 0 19.742V19.8367C0 20.2157 0.307237 20.5229 0.686233 20.5229H19.6346C20.0136 20.5229 20.3208 20.2157 20.3208 19.8367V19.742C20.3208 19.363 20.0136 19.0558 19.6346 19.0558Z" fill="#E1147B"/>
<path d="M23.6236 20.155H8.82223C8.56957 20.155 8.36475 20.3598 8.36475 20.6125V20.6756C8.36475 20.9283 8.56957 21.1331 8.82223 21.1331H23.6236C23.8762 21.1331 24.0811 20.9283 24.0811 20.6756V20.6125C24.0811 20.3598 23.8762 20.155 23.6236 20.155Z" fill="#E1147B"/>
<path d="M25.7408 22.2569H15.9008C15.6482 22.2569 15.4434 22.4618 15.4434 22.7144V22.7775C15.4434 23.0302 15.6482 23.235 15.9008 23.235H25.7408C25.9935 23.235 26.1983 23.0302 26.1983 22.7775V22.7144C26.1983 22.4618 25.9935 22.2569 25.7408 22.2569Z" fill="#E1147B"/>
<path d="M2.29351 17.4644C2.69211 17.4644 3.01523 17.1413 3.01523 16.7427C3.01523 16.3441 2.69211 16.021 2.29351 16.021C1.89491 16.021 1.57178 16.3441 1.57178 16.7427C1.57178 17.1413 1.89491 17.4644 2.29351 17.4644Z" fill="#E1147B"/>
<path d="M22.5426 24.3552H12.0835C11.8308 24.3552 11.626 24.5601 11.626 24.8127V24.8758C11.626 25.1285 11.8308 25.3333 12.0835 25.3333H22.5426C22.7953 25.3333 23.0001 25.1285 23.0001 24.8758V24.8127C23.0001 24.5601 22.7953 24.3552 22.5426 24.3552Z" fill="#E1147B"/>
<path d="M10.321 25.3255C10.5867 25.3255 10.8021 25.1101 10.8021 24.8443C10.8021 24.5786 10.5867 24.3632 10.321 24.3632C10.0553 24.3632 9.83984 24.5786 9.83984 24.8443C9.83984 25.1101 10.0553 25.3255 10.321 25.3255Z" fill="#E1147B"/>
<path d="M14.3264 23.2272C14.5921 23.2272 14.8075 23.0118 14.8075 22.746C14.8075 22.4803 14.5921 22.2649 14.3264 22.2649C14.0606 22.2649 13.8452 22.4803 13.8452 22.746C13.8452 23.0118 14.0606 23.2272 14.3264 23.2272Z" fill="#E1147B"/>
</svg>
