<svg width="32" height="32" viewBox="0 0 32 32" fill="none" xmlns="http://www.w3.org/2000/svg">
<path d="M6.95025 8.93054H6.72666C6.32534 8.93054 6 9.25588 6 9.65721V23.1172C6 23.5186 6.32534 23.8439 6.72666 23.8439H6.95025C7.35158 23.8439 7.67691 23.5186 7.67691 23.1172V9.65721C7.67691 9.25588 7.35158 8.93054 6.95025 8.93054Z" fill="#D8B45C"/>
<path d="M25.2095 15.2862H24.9859C24.5846 15.2862 24.2593 15.6115 24.2593 16.0128V23.1174C24.2593 23.5187 24.5846 23.844 24.9859 23.844H25.2095C25.6109 23.844 25.9362 23.5187 25.9362 23.1174V16.0128C25.9362 15.6115 25.6109 15.2862 25.2095 15.2862Z" fill="#D8B45C"/>
<path d="M13.9378 3.85523V8.94187H12.2832V3.85523C12.2832 3.63582 12.3704 3.4254 12.5255 3.27025C12.6807 3.11511 12.8911 3.02795 13.1105 3.02795C13.3299 3.02795 13.5403 3.11511 13.6955 3.27025C13.8506 3.4254 13.9378 3.63582 13.9378 3.85523ZM19.6728 3.85523V8.94187H17.9903V3.85523C17.9932 3.63026 18.0834 3.41522 18.242 3.25561C18.4006 3.096 18.615 3.00434 18.84 3C18.9508 3.00146 19.0603 3.02474 19.1621 3.06851C19.264 3.11228 19.3562 3.17568 19.4335 3.2551C19.5109 3.33452 19.5718 3.42839 19.6129 3.53136C19.6539 3.63433 19.6743 3.74438 19.6728 3.85523ZM18.0127 28.9307V23.844H19.6672V28.9307C19.6672 29.1501 19.5801 29.3605 19.4249 29.5157C19.2698 29.6708 19.0594 29.758 18.84 29.758C18.6205 29.758 18.4101 29.6708 18.255 29.5157C18.0998 29.3605 18.0127 29.1501 18.0127 28.9307ZM12.2832 28.9307V23.844H13.9601V28.9307C13.9558 29.1547 13.8649 29.3683 13.7065 29.5267C13.5481 29.6851 13.3345 29.776 13.1105 29.7803C12.8886 29.7759 12.6774 29.6843 12.5225 29.5253C12.3677 29.3662 12.2817 29.1526 12.2832 28.9307Z" fill="#D8B45C"/>
<path d="M6 9.65748V9.88106C6 10.2824 6.32534 10.6077 6.72666 10.6077L25.2733 10.6077C25.6747 10.6077 26 10.2824 26 9.88106V9.65748C26 9.25615 25.6747 8.93081 25.2733 8.93081L6.72666 8.93081C6.32534 8.93081 6 9.25615 6 9.65748Z" fill="#D8B45C"/>
<path d="M9.3335 20.5959V20.7449C9.3335 21.0125 9.55039 21.2294 9.81794 21.2294H22.1451C22.4127 21.2294 22.6296 21.0125 22.6296 20.7449V20.5959C22.6296 20.3283 22.4127 20.1114 22.1451 20.1114H9.81794C9.55039 20.1114 9.3335 20.3283 9.3335 20.5959Z" fill="#D8B45C"/>
<path d="M12.25 16.0128V16.2364C12.25 16.6377 12.5753 16.963 12.9767 16.963H25.2125C25.6139 16.963 25.9392 16.6377 25.9392 16.2364V16.0128C25.9392 15.6115 25.6139 15.2861 25.2125 15.2861H12.9767C12.5753 15.2861 12.25 15.6115 12.25 16.0128Z" fill="#D8B45C"/>
</svg>
