<svg width="32" height="32" viewBox="0 0 32 32" fill="none" xmlns="http://www.w3.org/2000/svg">
<path d="M26.8657 9.50287L25.8784 10.4553C26.2847 11.0549 26.5419 11.7428 26.6286 12.4618C26.7154 13.1809 26.6291 13.9102 26.3771 14.5892C25.9118 15.7796 25.0017 16.7423 23.8393 17.2737C22.677 17.8051 21.3535 17.8635 20.1488 17.4365C19.8017 17.317 19.4702 17.1563 19.1615 16.9578L15.995 20.0246L13.2324 17.3318C12.5767 17.7531 11.8346 18.0212 11.061 18.1161C10.2875 18.2111 9.50252 18.1305 8.76443 17.8803C8.15629 17.6824 7.59409 17.3643 7.11116 16.945C6.62823 16.5257 6.23442 16.0137 5.95306 15.4394C5.67171 14.8651 5.50854 14.2401 5.47324 13.6015C5.43793 12.9629 5.53121 12.3238 5.74754 11.7219L5.75253 11.697C5.89078 11.3172 6.08037 10.9582 6.31601 10.6298L5.12422 9.47794L4.89982 9.84694C4.01226 11.2575 3.41893 12.8328 3.15549 14.4784C2.89205 16.124 2.96393 17.8058 3.3668 19.4229C3.76968 21.04 4.49525 22.559 5.49992 23.8886C6.5046 25.2183 7.76765 26.3311 9.21322 27.1604C11.262 28.368 13.5968 29.0051 15.975 29.0054H15.995C19.3862 29.0614 22.6609 27.7688 25.0994 25.4116C27.538 23.0543 28.941 19.8254 29 16.4342C28.9993 14.1211 28.346 11.8552 27.1151 9.89681L26.8657 9.50287Z" fill="#00A6C4"/>
<path d="M7.78025 12.0461C7.43177 12.4937 7.24228 13.0446 7.2417 13.6119C7.2586 14.0987 7.40896 14.5715 7.67634 14.9786C7.94373 15.3858 8.31786 15.7116 8.75787 15.9206C9.19788 16.1295 9.68684 16.2135 10.1714 16.1634C10.6559 16.1133 11.1173 15.931 11.5052 15.6364L7.78025 12.0461Z" fill="#00A6C4"/>
<path d="M20.7842 15.4168C21.1801 15.6758 21.6377 15.825 22.1101 15.8493C22.5826 15.8736 23.053 15.772 23.4734 15.555C23.8937 15.3379 24.249 15.0132 24.5028 14.614C24.7566 14.2148 24.8999 13.7553 24.9181 13.2826C24.9206 12.769 24.7638 12.2672 24.4693 11.8464L20.7842 15.4168Z" fill="#00A6C4"/>
<path d="M16.0493 18.1096L5.30322 7.67268L5.73207 7.23885C7.05311 5.88691 8.63289 4.81486 10.3772 4.08664C12.1215 3.35841 13.9946 2.98894 15.8848 3.00025H15.9047C17.8403 2.99698 19.7559 3.39093 21.5331 4.15774C23.3103 4.92455 24.9113 6.04789 26.2369 7.45826L26.6408 7.89209L16.0493 18.1096ZM7.0585 7.67268L16.0393 16.3942L24.9155 7.84721C22.5027 5.52017 19.2818 4.21895 15.9296 4.21698H15.9047C12.6201 4.19011 9.45599 5.42741 7.0585 7.67268Z" fill="#00A6C4"/>
</svg>
