<svg width="32" height="32" viewBox="0 0 32 32" fill="none" xmlns="http://www.w3.org/2000/svg">
<path fill-rule="evenodd" clip-rule="evenodd" d="M14.5511 17.4354C13.4236 17.4354 12.3214 17.0967 11.3839 16.4622C10.4464 15.8278 9.71577 14.926 9.2843 13.8709C8.85282 12.8158 8.73993 11.6548 8.95989 10.5347C9.17986 9.41466 9.7228 8.38581 10.5201 7.57828C11.3173 6.77075 12.3331 6.22082 13.4389 5.99802C14.5447 5.77522 15.691 5.88957 16.7326 6.3266C17.7743 6.76363 18.6646 7.50372 19.291 8.45327C19.9174 9.40283 20.2518 10.5192 20.2518 11.6612C20.2543 12.4202 20.1086 13.1722 19.823 13.8739C19.5374 14.5756 19.1175 15.2131 18.5877 15.7498C18.0578 16.2865 17.4284 16.7117 16.7356 17.001C16.0428 17.2903 15.3004 17.4379 14.5511 17.4354ZM14.5511 3C16.2423 3 17.8956 3.50797 19.3018 4.45968C20.708 5.41138 21.804 6.76408 22.4512 8.34671C23.0984 9.92934 23.2678 11.6708 22.9378 13.3509C22.6079 15.031 21.7935 16.5743 20.5976 17.7856C19.4017 18.9969 17.878 19.8218 16.2193 20.156C14.5606 20.4902 12.8412 20.3187 11.2787 19.6631C9.71621 19.0076 8.38072 17.8975 7.44112 16.4731C6.50151 15.0488 6 13.3742 6 11.6612C6 9.36412 6.90091 7.1611 8.50455 5.53681C10.1082 3.91252 12.2832 3 14.5511 3ZM22.7031 20.7747C22.8403 20.9048 22.9497 21.062 23.0245 21.2367C23.0993 21.4113 23.1378 21.5997 23.1378 21.79C23.1378 21.9804 23.0993 22.1687 23.0245 22.3434C22.9497 22.518 22.8403 22.6752 22.7031 22.8053L17.0024 28.5795C16.8707 28.7128 16.7145 28.8186 16.5425 28.8907C16.3705 28.9629 16.1862 29 16 29C15.8138 29 15.6295 28.9629 15.4575 28.8907C15.2855 28.8186 15.1293 28.7128 14.9976 28.5795C14.866 28.4461 14.7616 28.2878 14.6903 28.1136C14.6191 27.9394 14.5824 27.7527 14.5824 27.5642C14.5824 27.3756 14.6191 27.1889 14.6903 27.0147C14.7616 26.8405 14.866 26.6822 14.9976 26.5489L20.6983 20.7747C20.8271 20.6364 20.9825 20.5262 21.1548 20.4508C21.3272 20.3755 21.513 20.3366 21.7007 20.3366C21.8884 20.3366 22.0742 20.3755 22.2466 20.4508C22.4189 20.5262 22.5743 20.6364 22.7031 20.7747ZM26 4.44354C26 4.72904 25.9164 5.00813 25.7598 5.24552C25.6032 5.48291 25.3806 5.66793 25.1202 5.77719C24.8598 5.88645 24.5732 5.91503 24.2968 5.85933C24.0203 5.80363 23.7664 5.66615 23.5671 5.46427C23.3678 5.26239 23.232 5.00517 23.177 4.72516C23.122 4.44514 23.1503 4.15489 23.2581 3.89112C23.366 3.62735 23.5487 3.4019 23.783 3.24328C24.0174 3.08466 24.2929 3 24.5748 3C24.952 3.00252 25.3131 3.15542 25.5798 3.42559C25.8466 3.69576 25.9975 4.06146 26 4.44354Z" fill="#6747ED"/>
</svg>
