<svg width="32" height="32" viewBox="0 0 32 32" fill="none" xmlns="http://www.w3.org/2000/svg">
<mask id="mask0_22_631" style="mask-type:luminance" maskUnits="userSpaceOnUse" x="3" y="3" width="27" height="27">
<path d="M3 3H30V30H3V3Z" fill="white"/>
</mask>
<g mask="url(#mask0_22_631)">
<path d="M29.0883 10.155L20.9316 14.4413V19.412L23.7369 17.9189V20.8011L15.8313 25.3641L9.47816 21.6962C9.00611 21.4236 8.61412 21.0316 8.3416 20.5596C8.06908 20.0875 7.92563 19.552 7.92566 19.007V11.6711L14.4826 7.88701C14.8925 7.65053 15.3574 7.52603 15.8306 7.52603C16.3038 7.52603 16.7687 7.65053 17.1786 7.88701L23.7355 11.6724L27.7491 9.35446L17.535 3.45496C17.0164 3.15619 16.4284 2.99893 15.8299 2.99893C15.2314 2.99893 14.6434 3.15619 14.1249 3.45496L3.91211 9.35446V21.3195C3.91211 22.4333 4.50611 23.4606 5.47001 24.0182L15.8313 30L26.179 24.0263C26.6569 23.7502 27.0536 23.3533 27.3295 22.8753C27.6053 22.3973 27.7505 21.8552 27.7504 21.3033V15.7845L29.0869 15.0744V10.155H29.0883Z" fill="#D35756"/>
</g>
</svg>
