<svg width="32" height="32" viewBox="0 0 32 32" fill="none" xmlns="http://www.w3.org/2000/svg">
<path d="M15.5639 23.9403L23.9409 15.5623C24.2161 15.287 24.5428 15.0687 24.9024 14.9198C25.2619 14.7708 25.6473 14.6942 26.0365 14.6942C26.4256 14.6942 26.811 14.7708 27.1706 14.9198C27.5301 15.0687 27.8568 15.287 28.132 15.5623C28.4072 15.8375 28.6255 16.1642 28.7744 16.5238C28.9233 16.8834 29 17.2688 29 17.658C29 18.0473 28.9233 18.4327 28.7744 18.7923C28.6255 19.1519 28.4072 19.4786 28.132 19.7538L19.755 28.1319C19.1992 28.6877 18.4454 29 17.6594 29C16.8734 29 16.1196 28.6877 15.5639 28.1319C15.0081 27.5761 14.6959 26.8222 14.6959 26.0361C14.6959 25.6469 14.7725 25.2615 14.9215 24.9019C15.0704 24.5423 15.2887 24.2155 15.5639 23.9403ZM3.86676 16.4334C4.42337 16.9857 5.17566 17.2956 5.95974 17.2956C6.74381 17.2956 7.49611 16.9857 8.05272 16.4334L16.4349 8.05532C16.99 7.49948 17.3016 6.74587 17.3011 5.96028C17.3006 5.17468 16.9881 4.42145 16.4323 3.86629C15.8765 3.31114 15.123 2.99952 14.3375 3C13.552 3.00048 12.7989 3.31302 12.2438 3.86886L3.86676 12.2418C3.31172 12.798 3 13.5517 3 14.3376C3 15.1234 3.31172 15.8771 3.86676 16.4334ZM12.8535 19.1389C13.4097 19.694 14.1633 20.0058 14.949 20.0058C15.7348 20.0058 16.4884 19.694 17.0446 19.1389L19.1453 17.0431C19.701 16.4866 20.013 15.7321 20.0125 14.9455C20.012 14.159 19.6991 13.4048 19.1427 12.849C18.5862 12.2932 17.8318 11.9812 17.0453 11.9816C16.2589 11.9821 15.5048 12.295 14.949 12.8516L12.8535 14.9525C12.3013 15.5092 11.9914 16.2615 11.9914 17.0457C11.9914 17.8299 12.3013 18.5823 12.8535 19.1389Z" fill="#6E2EF4"/>
</svg>
