<svg width="32" height="32" viewBox="0 0 32 32" fill="none" xmlns="http://www.w3.org/2000/svg">
<path d="M22.963 10.0589C22.7771 9.8697 22.5553 9.71942 22.3106 9.61683C22.066 9.51425 21.8033 9.46141 21.538 9.46141C21.2727 9.46141 21.0101 9.51425 20.7654 9.61683C20.5208 9.71942 20.299 9.8697 20.113 10.0589C19.8821 10.2801 19.7097 10.5551 19.6113 10.8593C19.5129 11.1635 19.4915 11.4874 19.549 11.8019C19.574 12.0191 19.5473 12.2391 19.471 12.4439C19.3525 12.6932 19.1412 12.8863 18.8823 12.9822C18.6234 13.078 18.3374 13.0689 18.085 12.9569C17.3692 12.623 16.5681 12.517 15.79 12.6533C15.012 12.7896 14.2946 13.1616 13.7349 13.719C13.1752 14.2763 12.8003 14.9922 12.6608 15.7697C12.5213 16.5472 12.624 17.3487 12.955 18.0659C13.0159 18.1938 13.0494 18.3329 13.0536 18.4744C13.0577 18.6159 13.0323 18.7567 12.979 18.8879C12.8782 19.1383 12.6849 19.3403 12.439 19.4519C12.305 19.525 12.1536 19.5602 12.001 19.5539C11.9321 19.5583 11.863 19.5502 11.797 19.5299C11.4827 19.4827 11.1617 19.5091 10.8592 19.6069C10.5568 19.7048 10.2812 19.8715 10.054 20.0939C9.86515 20.2829 9.71564 20.5075 9.61419 20.7547C9.51274 21.0019 9.46137 21.2667 9.46304 21.5339C9.45973 21.7969 9.51048 22.0577 9.61215 22.3003C9.71381 22.5428 9.86422 22.7619 10.054 22.9439C10.3558 23.2432 10.7444 23.4395 11.1643 23.5047C11.5842 23.5699 12.014 23.5008 12.3923 23.3072C12.7706 23.1135 13.0781 22.8053 13.2707 22.4265C13.4634 22.0477 13.5314 21.6177 13.465 21.1979V21.0929C13.46 20.9161 13.4959 20.7405 13.57 20.5799C13.6916 20.3327 13.9014 20.14 14.158 20.0399C14.2852 19.9871 14.4223 19.9622 14.56 19.9668C14.6976 19.9715 14.8327 20.0056 14.956 20.0669C15.6702 20.3989 16.4691 20.5032 17.2445 20.3658C18.02 20.2285 18.7344 19.856 19.291 19.2989C19.8529 18.7393 20.2302 18.0212 20.3723 17.2409C20.5144 16.4607 20.4145 15.6557 20.086 14.9339C20.0262 14.813 19.9915 14.6813 19.9838 14.5467C19.9761 14.4121 19.9957 14.2772 20.0413 14.1503C20.087 14.0235 20.1578 13.9071 20.2495 13.8082C20.3412 13.7093 20.4519 13.63 20.575 13.5749C20.7554 13.4799 20.9612 13.4442 21.163 13.4729H21.241C21.5521 13.5241 21.8708 13.4993 22.1702 13.4006C22.4695 13.3019 22.7405 13.1321 22.96 12.9059C23.3306 12.5241 23.5379 12.013 23.5379 11.4809C23.5379 10.9489 23.3306 10.4377 22.96 10.0559L22.963 10.0589ZM18.112 18.1169C17.6935 18.5353 17.1259 18.7704 16.534 18.7704C15.9422 18.7704 15.3746 18.5353 14.956 18.1169C14.5376 17.6935 14.3029 17.1222 14.3029 16.5269C14.3029 15.9316 14.5376 15.3603 14.956 14.9369C15.3746 14.5185 15.9422 14.2834 16.534 14.2834C17.1259 14.2834 17.6935 14.5185 18.112 14.9369C18.5305 15.3603 18.7651 15.9316 18.7651 16.5269C18.7651 17.1222 18.5305 17.6935 18.112 18.1169Z" fill="#38A2FF"/>
<path d="M16.5 3C13.83 3 11.2199 3.79176 8.99981 5.27516C6.77974 6.75856 5.04941 8.86697 4.02763 11.3338C3.00585 13.8006 2.7385 16.515 3.2594 19.1337C3.7803 21.7525 5.06606 24.1579 6.95406 26.0459C8.84207 27.9339 11.2475 29.2197 13.8663 29.7406C16.485 30.2615 19.1994 29.9942 21.6662 28.9724C24.133 27.9506 26.2414 26.2203 27.7248 24.0002C29.2082 21.7801 30 19.17 30 16.5C30 12.9196 28.5777 9.4858 26.0459 6.95406C23.5142 4.42232 20.0804 3 16.5 3ZM23.685 13.626C23.2597 14.0572 22.7155 14.3517 22.122 14.472C22.4561 15.3706 22.5677 16.3366 22.4474 17.2877C22.327 18.2388 21.9782 19.1466 21.4309 19.9336C20.8835 20.7207 20.1537 21.3635 19.304 21.8073C18.4542 22.251 17.5097 22.4825 16.551 22.482C15.84 22.4829 15.135 22.3517 14.472 22.095C14.3691 22.7024 14.0723 23.2602 13.626 23.685C13.0543 24.2567 12.279 24.5778 11.4705 24.5778C10.662 24.5778 9.88668 24.2567 9.315 23.685C8.74333 23.1133 8.42217 22.338 8.42217 21.5295C8.42217 20.721 8.74333 19.9457 9.315 19.374C9.73328 18.9336 10.2806 18.6374 10.878 18.528C10.4709 17.4594 10.3816 16.296 10.6207 15.1778C10.8599 14.0596 11.4174 13.0345 12.2259 12.2259C13.0345 11.4173 14.0596 10.8599 15.1778 10.6207C16.296 10.3816 17.4594 10.4709 18.528 10.878C18.6422 10.2814 18.9376 9.73452 19.374 9.312C19.9461 8.74032 20.7218 8.41932 21.5306 8.4196C22.3393 8.41988 23.1148 8.74143 23.6865 9.3135C24.2582 9.88557 24.5792 10.6613 24.5789 11.4701C24.5786 12.2788 24.2571 13.0543 23.685 13.626ZM20.094 10.032C19.8623 10.2533 19.6892 10.5287 19.5903 10.8335C19.4913 11.1382 19.4696 11.4628 19.527 11.778C19.5529 11.9949 19.5272 12.2149 19.452 12.42C19.3329 12.6688 19.1214 12.8612 18.8626 12.9565C18.6037 13.0517 18.3179 13.0422 18.066 12.93C17.3496 12.5934 16.5471 12.4855 15.7673 12.6209C14.9874 12.7563 14.2682 13.1285 13.7072 13.6868C13.1463 14.2452 12.7708 14.9627 12.6317 15.7418C12.4927 16.521 12.5968 17.3241 12.93 18.042C12.9908 18.1698 13.0244 18.3089 13.0285 18.4505C13.0326 18.592 13.0073 18.7328 12.954 18.864C12.8532 19.1144 12.6598 19.3164 12.414 19.428C12.2811 19.5015 12.1308 19.5378 11.979 19.533C11.9089 19.5368 11.8388 19.5277 11.772 19.506C11.4576 19.4588 11.1366 19.4852 10.8342 19.583C10.5317 19.6809 10.2561 19.8476 10.029 20.07C9.84011 20.259 9.6906 20.4836 9.58915 20.7308C9.4877 20.9779 9.43633 21.2428 9.438 21.51C9.43469 21.773 9.48545 22.0338 9.58711 22.2764C9.68877 22.5189 9.83918 22.738 10.029 22.92C10.3298 23.2226 10.7189 23.4218 11.1403 23.4889C11.5617 23.556 11.9934 23.4874 12.3733 23.2931C12.7532 23.0989 13.0615 22.7889 13.2538 22.408C13.446 22.0271 13.5123 21.595 13.443 21.174V21.072C13.4371 20.8954 13.472 20.7199 13.545 20.559C13.6675 20.3114 13.8784 20.1187 14.136 20.019C14.2625 19.966 14.399 19.9407 14.5361 19.9448C14.6732 19.9489 14.8079 19.9824 14.931 20.043C15.6455 20.3756 16.445 20.4803 17.2211 20.343C17.9971 20.2056 18.7121 19.8327 19.269 19.275C19.8302 18.7156 20.2071 17.998 20.3492 17.2184C20.4913 16.4388 20.3918 15.6344 20.064 14.913C20.0038 14.7922 19.9686 14.6604 19.9607 14.5257C19.9528 14.3909 19.9723 14.256 20.018 14.129C20.0637 14.002 20.1347 13.8855 20.2266 13.7867C20.3186 13.6879 20.4296 13.6087 20.553 13.554C20.7331 13.458 20.9388 13.4212 21.141 13.449H21.219C21.5298 13.5006 21.8484 13.4763 22.1477 13.378C22.4471 13.2798 22.7182 13.1107 22.938 12.885C23.3086 12.5032 23.5158 11.9921 23.5158 11.46C23.5158 10.9279 23.3086 10.4168 22.938 10.035C22.752 9.84578 22.5303 9.6955 22.2856 9.59291C22.0409 9.49032 21.7783 9.43749 21.513 9.43749C21.2477 9.43749 20.9851 9.49032 20.7404 9.59291C20.4957 9.6955 20.274 9.84578 20.088 10.035L20.094 10.032ZM18.09 18.09C17.883 18.2975 17.637 18.4622 17.3662 18.5745C17.0954 18.6869 16.8052 18.7447 16.512 18.7447C16.2188 18.7447 15.9286 18.6869 15.6578 18.5745C15.387 18.4622 15.1411 18.2975 14.934 18.09C14.5156 17.6666 14.2809 17.0953 14.2809 16.5C14.2809 15.9047 14.5156 15.3334 14.934 14.91C15.1411 14.7025 15.387 14.5378 15.6578 14.4255C15.9286 14.3131 16.2188 14.2553 16.512 14.2553C16.8052 14.2553 17.0954 14.3131 17.3662 14.4255C17.637 14.5378 17.883 14.7025 18.09 14.91C18.5084 15.3334 18.7431 15.9047 18.7431 16.5C18.7431 17.0953 18.5084 17.6666 18.09 18.09Z" fill="#38A2FF"/>
<path d="M22.963 10.0589C22.7771 9.8697 22.5553 9.71942 22.3106 9.61683C22.066 9.51425 21.8033 9.46141 21.538 9.46141C21.2727 9.46141 21.0101 9.51425 20.7654 9.61683C20.5208 9.71942 20.299 9.8697 20.113 10.0589C19.8821 10.2801 19.7097 10.5551 19.6113 10.8593C19.5129 11.1635 19.4915 11.4874 19.549 11.8019C19.574 12.0191 19.5473 12.2391 19.471 12.4439C19.3525 12.6932 19.1412 12.8863 18.8823 12.9822C18.6234 13.078 18.3374 13.0689 18.085 12.9569C17.3692 12.623 16.5681 12.517 15.79 12.6533C15.012 12.7896 14.2946 13.1616 13.7349 13.719C13.1752 14.2763 12.8003 14.9922 12.6608 15.7697C12.5213 16.5472 12.624 17.3487 12.955 18.0659C13.0159 18.1938 13.0494 18.3329 13.0536 18.4744C13.0577 18.6159 13.0323 18.7567 12.979 18.8879C12.8782 19.1383 12.6849 19.3403 12.439 19.4519C12.305 19.525 12.1536 19.5602 12.001 19.5539C11.9321 19.5583 11.863 19.5502 11.797 19.5299C11.4827 19.4827 11.1617 19.5091 10.8592 19.6069C10.5568 19.7048 10.2812 19.8715 10.054 20.0939C9.86515 20.2829 9.71564 20.5075 9.61419 20.7547C9.51274 21.0019 9.46137 21.2667 9.46304 21.5339C9.45973 21.7969 9.51048 22.0577 9.61215 22.3003C9.71381 22.5428 9.86422 22.7619 10.054 22.9439C10.3558 23.2432 10.7444 23.4395 11.1643 23.5047C11.5842 23.5699 12.014 23.5008 12.3923 23.3072C12.7706 23.1135 13.0781 22.8053 13.2707 22.4265C13.4634 22.0477 13.5314 21.6177 13.465 21.1979V21.0929C13.46 20.9161 13.4959 20.7405 13.57 20.5799C13.6916 20.3327 13.9014 20.14 14.158 20.0399C14.2852 19.9871 14.4223 19.9622 14.56 19.9668C14.6976 19.9715 14.8327 20.0056 14.956 20.0669C15.6702 20.3989 16.4691 20.5032 17.2445 20.3658C18.02 20.2285 18.7344 19.856 19.291 19.2989C19.8529 18.7393 20.2302 18.0212 20.3723 17.2409C20.5144 16.4607 20.4145 15.6557 20.086 14.9339C20.0262 14.813 19.9915 14.6813 19.9838 14.5467C19.9761 14.4121 19.9957 14.2772 20.0413 14.1503C20.087 14.0235 20.1578 13.9071 20.2495 13.8082C20.3412 13.7093 20.4519 13.63 20.575 13.5749C20.7554 13.4799 20.9612 13.4442 21.163 13.4729H21.241C21.5521 13.5241 21.8708 13.4993 22.1702 13.4006C22.4695 13.3019 22.7405 13.1321 22.96 12.9059C23.3306 12.5241 23.5379 12.013 23.5379 11.4809C23.5379 10.9489 23.3306 10.4377 22.96 10.0559L22.963 10.0589ZM18.112 18.1169C17.6935 18.5353 17.1259 18.7704 16.534 18.7704C15.9422 18.7704 15.3746 18.5353 14.956 18.1169C14.5376 17.6935 14.3029 17.1222 14.3029 16.5269C14.3029 15.9316 14.5376 15.3603 14.956 14.9369C15.3746 14.5185 15.9422 14.2834 16.534 14.2834C17.1259 14.2834 17.6935 14.5185 18.112 14.9369C18.5305 15.3603 18.7651 15.9316 18.7651 16.5269C18.7651 17.1222 18.5305 17.6935 18.112 18.1169Z" fill="#38A2FF"/>
</svg>
