<svg width="32" height="32" viewBox="0 0 32 32" fill="none" xmlns="http://www.w3.org/2000/svg">
<path d="M4.34629 23.9688C4.603 23.9688 4.87682 23.9802 5.13353 23.9688C5.62743 23.9239 6.11623 23.8344 6.59391 23.7015C7.54225 23.4347 8.42695 22.9802 9.19523 22.3651C9.41771 22.1888 9.63448 21.9954 9.84555 21.7963C10.6912 20.9368 11.2935 19.8694 11.5912 18.7026L11.614 18.5775H9.68582C9.28645 18.5759 8.88849 18.5302 8.49926 18.441C8.4632 18.4249 8.42458 18.4153 8.38517 18.4126L8.33953 18.3784C8.45362 18.1225 8.5506 17.8837 8.64758 17.6334L9.39489 15.8534C9.42023 15.7683 9.45872 15.6877 9.50898 15.6145C9.56139 15.5654 9.63106 15.5389 9.70294 15.5406C10.3019 15.5235 10.8952 15.5406 11.4942 15.5406H11.6539C11.6311 15.4382 11.6311 15.3586 11.6083 15.2733C11.3928 14.4231 11.0088 13.6244 10.4788 12.9245C10.219 12.586 9.93493 12.2667 9.62878 11.9691C9.24819 11.6009 8.82272 11.2818 8.36235 11.0194C7.8876 10.744 7.38702 10.5154 6.86774 10.3369C6.43439 10.1978 5.98962 10.097 5.53856 10.0355C5.18487 9.99572 4.83689 9.98434 4.4832 9.96159C4.39706 9.95831 4.31126 9.9488 4.22649 9.93316C4.2091 9.92764 4.19329 9.91805 4.18039 9.90519C4.16748 9.89233 4.15786 9.87656 4.15233 9.85923L3.78153 9.00048L3.35369 7.99387C3.23959 7.70952 3.1255 7.44792 3 7.15788L3.25671 7.08394C3.80088 7.00873 4.35088 6.98398 4.89964 7.01001C5.78067 7.03859 6.65545 7.16835 7.50666 7.39673C8.05179 7.54878 8.58553 7.73882 9.10395 7.96544C9.83005 8.28095 10.5188 8.67577 11.1576 9.14266C11.5697 9.4588 11.9694 9.79079 12.3556 10.1379C12.9751 10.7524 13.5173 11.4399 13.97 12.1852C14.4191 12.9287 14.7573 13.7333 14.974 14.5738C15.0482 14.8581 15.0995 15.1425 15.1566 15.4269C15.1637 15.4484 15.1775 15.4671 15.1959 15.4803C15.2144 15.4936 15.2365 15.5007 15.2592 15.5008H17.7522C17.7976 15.2991 17.8375 15.0961 17.872 14.8923C18.0156 14.307 18.2123 13.736 18.4595 13.1862C18.6569 12.7309 18.8996 12.2965 19.184 11.8895C19.4416 11.5177 19.7177 11.1589 20.0112 10.8147C20.2269 10.5535 20.4594 10.3065 20.7072 10.0753C21.2208 9.59584 21.7785 9.16552 22.3729 8.79006C22.9795 8.40072 23.6259 8.07664 24.3011 7.82326C24.7689 7.66402 25.2366 7.51047 25.6987 7.38536C26.0523 7.29969 26.4103 7.23325 26.7712 7.18631C27.0719 7.13923 27.3745 7.10508 27.6782 7.08394C27.8722 7.07257 28.0604 7.0612 28.2544 7.0612C28.551 7.0612 28.8306 7.04414 29.1101 7.0612C29.3977 7.08442 29.6836 7.12621 29.9658 7.18631L30 7.22043L29.7889 7.72658C29.4885 8.45691 29.1824 9.18488 28.8705 9.91041C28.8134 10.0355 28.6993 9.98434 28.6081 10.0128C28.5402 10.0249 28.4706 10.0249 28.4027 10.0128C27.6321 10.0242 26.8665 10.139 26.1266 10.354C25.6633 10.4912 25.2129 10.6681 24.7803 10.8829C24.0264 11.2761 23.3376 11.7825 22.738 12.3843C22.2924 12.8418 21.9123 13.3586 21.6085 13.9198C21.3617 14.391 21.1648 14.8865 21.0209 15.3984L20.9981 15.5292H21.1293C21.7682 15.5292 22.4186 15.5122 23.0575 15.5292C23.4418 15.529 23.8235 15.5924 24.187 15.7169L24.2269 15.7396L23.8675 16.5756C23.6222 17.1671 23.3655 17.7585 23.1259 18.3671C23.0461 18.5377 23.0004 18.5832 22.8008 18.5832H21.0095C21.0609 18.7538 21.0951 18.9073 21.1464 19.0609C21.3196 19.5914 21.5632 20.0963 21.8709 20.5623C22.0527 20.8322 22.2489 21.0923 22.4585 21.3414C22.5798 21.4941 22.7113 21.6385 22.8521 21.7736C23.3061 22.2258 23.8183 22.6159 24.3752 22.9338C24.8449 23.2113 25.3419 23.44 25.8584 23.6162C26.3555 23.7939 26.8729 23.9086 27.3987 23.9574L28.3685 24.0314C28.4826 24.0484 28.6081 24.0484 28.7336 24.0598C28.7577 24.0702 28.7778 24.0881 28.7906 24.111L29.4295 25.6237L29.9601 26.8578C29.7952 26.9002 29.6274 26.9306 29.4581 26.9488C29.0365 26.9787 28.6142 26.9957 28.1916 27C27.8135 26.995 27.4361 26.9646 27.0621 26.909C26.5512 26.8344 26.0432 26.7414 25.539 26.6303C24.9339 26.4782 24.3424 26.2766 23.7705 26.0275C23.0867 25.727 22.4365 25.3553 21.831 24.9185C21.5134 24.6774 21.2015 24.429 20.8954 24.1735C20.6951 24.0044 20.5064 23.822 20.3307 23.6276C19.5513 22.8132 18.9132 21.8754 18.4424 20.8523C18.1634 20.2433 17.9566 19.6039 17.8263 18.9471C17.8051 18.8804 17.7898 18.8119 17.7807 18.7424C17.7807 18.6173 17.7236 18.5889 17.6096 18.5889H15.128C15.0054 19.2717 14.8084 19.9391 14.5405 20.5793C14.322 21.1216 14.0446 21.6384 13.7133 22.1205C13.4573 22.492 13.1831 22.8507 12.8918 23.1954C12.683 23.4555 12.4542 23.6988 12.2073 23.9233C11.8251 24.2645 11.42 24.583 11.0093 24.8958C10.5256 25.2497 10.0099 25.5582 9.46905 25.8171C8.82432 26.1316 8.14974 26.3811 7.45531 26.5621C6.69444 26.7584 5.91737 26.8859 5.13353 26.9431C4.91693 26.9556 4.6998 26.9556 4.4832 26.9431C4.16374 26.9431 3.84428 26.9261 3.53623 26.9147C3.42519 26.9056 3.31473 26.8904 3.20537 26.8692C3.14832 26.8578 3.1198 26.8294 3.15402 26.7555L3.90704 25.0152C4.04965 24.6569 4.18656 24.3328 4.34629 23.9688Z" fill="#5546FF"/>
</svg>
