<svg width="32" height="32" viewBox="0 0 32 32" fill="none" xmlns="http://www.w3.org/2000/svg">
<path d="M23.1874 9.01505C21.2425 9.19869 19.436 10.101 18.121 11.5457C17.3539 12.2672 16.6409 13.0441 15.9878 13.8701C15.9878 13.8701 16.8632 14.8864 17.8342 15.9681C18.4775 15.1289 19.1839 14.3401 19.9473 13.6085C20.7736 12.6295 21.9298 11.987 23.1974 11.8023C24.295 11.8401 25.335 12.3028 26.0981 13.0926C26.8612 13.8824 27.2877 14.9378 27.2877 16.036C27.2877 17.1342 26.8612 18.1896 26.0981 18.9794C25.335 19.7692 24.295 20.2319 23.1974 20.2697C23.0632 20.2669 22.9298 20.2483 22.8 20.2144C23.433 20.5296 24.1259 20.7062 24.8325 20.7326C25.8893 20.8737 26.9624 20.6453 27.8701 20.086C28.7778 19.5267 29.4643 18.671 29.8134 17.6636C29.9385 17.1259 30.001 16.5755 29.9995 16.0234C30.0171 14.1932 29.3112 12.43 28.0355 11.1176C26.7598 9.80508 25.0174 9.04945 23.1874 9.01505Z" fill="url(#paint0_linear_22_658)"/>
<path d="M8.80285 23.0822C10.7481 22.9 12.5551 21.9974 13.8692 20.5515C14.6405 19.8276 15.3569 19.0473 16.0125 18.2171C16.0125 18.2171 15.1371 17.2008 14.1711 16.1191C13.5206 16.96 12.8075 17.7504 12.0379 18.4837C11.2114 19.459 10.0576 20.0994 8.79279 20.2849C7.7063 20.2319 6.68183 19.763 5.93162 18.9753C5.18142 18.1876 4.76297 17.1415 4.76297 16.0537C4.76297 14.9659 5.18142 13.9198 5.93162 13.1321C6.68183 12.3444 7.7063 11.8755 8.79279 11.8225C8.92511 11.824 9.05681 11.8408 9.18522 11.8728C8.552 11.5582 7.8592 11.3816 7.15264 11.3546C6.09851 11.214 5.02816 11.4422 4.12311 12.0006C3.21805 12.5591 2.53398 13.4133 2.1869 14.4186C2.06189 14.9546 1.99943 15.5033 2.00075 16.0537C1.97382 17.8869 2.67462 19.6559 3.94961 20.9734C5.22459 22.2908 6.9698 23.0491 8.80285 23.0822Z" fill="url(#paint1_linear_22_658)"/>
<path d="M24.8119 20.6672C23.029 20.4309 21.3666 19.6367 20.0625 18.3982C18.9104 17.2611 16.2388 14.177 16.0376 13.9305C14.0755 11.6061 11.4291 9 8.80785 9C7.25771 9.02681 5.7618 9.57507 4.56147 10.5563C3.36114 11.5376 2.52639 12.8946 2.19189 14.4085C2.57778 13.4299 3.27384 12.6048 4.17346 12.0595C5.07308 11.5143 6.12663 11.279 7.17273 11.3898C8.96128 11.6341 10.627 12.437 11.9322 13.684C13.0793 14.816 15.7559 17.9051 15.9571 18.1516C17.9142 20.471 20.5556 23.0822 23.1868 23.0822C24.7341 23.0545 26.2271 22.507 27.4253 21.5278C28.6236 20.5485 29.4575 19.1945 29.7927 17.6838C29.4002 18.6553 28.7015 19.4723 27.8026 20.0107C26.9037 20.5491 25.8537 20.7796 24.8119 20.6672Z" fill="#29ABE2"/>
<defs>
<linearGradient id="paint0_linear_22_658" x1="19.5925" y1="11.7691" x2="27.0523" y2="19.733" gradientUnits="userSpaceOnUse">
<stop offset="0.21" stop-color="#F15A24"/>
<stop offset="0.68" stop-color="#FBB03B"/>
</linearGradient>
<linearGradient id="paint1_linear_22_658" x1="12.2116" y1="20.2416" x2="4.7469" y2="12.2762" gradientUnits="userSpaceOnUse">
<stop offset="0.21" stop-color="#ED1E79"/>
<stop offset="0.89" stop-color="#522785"/>
</linearGradient>
</defs>
</svg>
