<svg width="32" height="32" viewBox="0 0 32 32" fill="none" xmlns="http://www.w3.org/2000/svg">
<path d="M24.1647 10.0624L21.2417 12.9902C22.03 14.2847 22.3605 15.8065 22.1802 17.3114C21.9999 18.8162 21.3193 20.2169 20.2476 21.2885C19.1759 22.3602 17.7753 23.0408 16.2704 23.2211C14.7656 23.4014 13.2438 23.0709 11.9493 22.2827L9.02144 25.2057C10.6263 26.4029 12.5327 27.1299 14.5272 27.3055C16.5218 27.4811 18.5258 27.0982 20.3152 26.1998C22.1045 25.3013 23.6086 23.9227 24.6591 22.2182C25.7097 20.5137 26.2652 18.5505 26.2637 16.5482C26.313 14.2141 25.5754 11.9312 24.1696 10.0672L24.1647 10.0624ZM8.74999 16.4997C8.75169 15.299 9.0731 14.1203 9.68119 13.0849C10.2893 12.0495 11.1621 11.1946 12.21 10.6083C13.2578 10.0219 14.443 9.72513 15.6435 9.74847C16.844 9.7718 18.0167 10.1144 19.041 10.741L21.964 7.8132C20.3588 6.61852 18.4529 5.89374 16.4595 5.71985C14.466 5.54597 12.4635 5.92982 10.6756 6.82853C8.88778 7.72723 7.38505 9.10538 6.33535 10.809C5.28565 12.5126 4.73035 14.4745 4.73149 16.4755C4.72449 18.796 5.47317 21.0556 6.86435 22.9129L9.79218 19.9899C9.10351 18.9572 8.73717 17.7409 8.74999 16.4997Z" fill="#0D98B7"/>
<path d="M26.3001 8.40001C27.7913 8.40001 29.0001 7.19117 29.0001 5.7C29.0001 4.20883 27.7913 3 26.3001 3C24.8089 3 23.6001 4.20883 23.6001 5.7C23.6001 7.19117 24.8089 8.40001 26.3001 8.40001Z" fill="#0D98B7"/>
<path d="M4.7 30C6.19117 30 7.40001 28.7912 7.40001 27.3C7.40001 25.8088 6.19117 24.6 4.7 24.6C3.20883 24.6 2 25.8088 2 27.3C2 28.7912 3.20883 30 4.7 30Z" fill="#0D98B7"/>
</svg>
