<svg width="32" height="32" viewBox="0 0 32 32" fill="none" xmlns="http://www.w3.org/2000/svg">
<path d="M18.2832 20.6676C18.2832 20.1352 18.4947 19.6245 18.8712 19.248C19.2478 18.8715 19.7584 18.6599 20.2909 18.6599H21.094C21.3576 18.6599 21.6187 18.7119 21.8623 18.8128C22.1059 18.9137 22.3272 19.0616 22.5136 19.248C22.7001 19.4344 22.8479 19.6557 22.9488 19.8993C23.0497 20.1429 23.1017 20.404 23.1017 20.6676V21.4707C23.1017 21.7344 23.0497 21.9954 22.9488 22.239C22.8479 22.4826 22.7001 22.7039 22.5136 22.8904C22.3272 23.0768 22.1059 23.2247 21.8623 23.3256C21.6187 23.4265 21.3576 23.4784 21.094 23.4784H20.2909C19.7584 23.4784 19.2478 23.2669 18.8712 22.8904C18.4947 22.5139 18.2832 22.0032 18.2832 21.4707V20.6676ZM20.2909 11.4323C19.7584 11.4323 19.2478 11.6438 18.8712 12.0203C18.4947 12.3968 18.2832 12.9075 18.2832 13.44V14.243C18.2832 14.7755 18.4947 15.2862 18.8712 15.6627C19.2478 16.0392 19.7584 16.2507 20.2909 16.2507H21.094C21.3576 16.2507 21.6187 16.1988 21.8623 16.0979C22.1059 15.997 22.3272 15.8491 22.5136 15.6627C22.7001 15.4763 22.8479 15.2549 22.9488 15.0113C23.0497 14.7678 23.1017 14.5067 23.1017 14.243V13.44C23.1017 13.1763 23.0497 12.9152 22.9488 12.6716C22.8479 12.4281 22.7001 12.2067 22.5136 12.0203C22.3272 11.8339 22.1059 11.686 21.8623 11.5851C21.6187 11.4842 21.3576 11.4323 21.094 11.4323H20.2909Z" fill="#1EEFA4"/>
<path fill-rule="evenodd" clip-rule="evenodd" d="M11.0408 3.00001C9.98553 2.99935 8.94045 3.20655 7.96526 3.60977C6.99006 4.013 6.10383 4.60436 5.35717 5.35008C4.61052 6.09581 4.01805 6.98129 3.61361 7.95599C3.20916 8.93068 3.00066 9.97549 3 11.0308V21.0692C3.00066 22.1245 3.20916 23.1693 3.61361 24.144C4.01805 25.1187 4.61052 26.0042 5.35717 26.7499C6.10383 27.4956 6.99006 28.087 7.96526 28.4902C8.94045 28.8934 9.98553 29.1006 11.0408 29.1H21.0993C22.1546 29.1006 23.1997 28.8934 24.1749 28.4902C25.1501 28.087 26.0363 27.4956 26.7829 26.7499C27.5296 26.0042 28.1221 25.1187 28.5265 24.144C28.931 23.1693 29.1395 22.1245 29.1401 21.0692V11.0308C29.1395 9.97507 28.9308 8.92985 28.526 7.95483C28.1213 6.97981 27.5284 6.0941 26.7812 5.34831C26.034 4.60252 25.1472 4.01126 24.1714 3.60833C23.1956 3.2054 22.15 2.99869 21.0943 3.00001H11.0408ZM21.0993 6.21231H11.0408C9.76286 6.21231 8.53727 6.71997 7.63364 7.6236C6.73 8.52724 6.22234 9.75283 6.22234 11.0308V21.0692C6.22234 22.3471 6.73 23.5727 7.63364 24.4764C8.53727 25.38 9.76286 25.8877 11.0408 25.8877H21.0993C21.7325 25.8883 22.3596 25.7642 22.9448 25.5223C23.53 25.2805 24.0618 24.9257 24.5097 24.4782C24.9577 24.0307 25.3131 23.4992 25.5555 22.9143C25.798 22.3294 25.9228 21.7024 25.9228 21.0692V11.0308C25.9228 10.3976 25.798 9.77059 25.5555 9.18566C25.3131 8.60073 24.9577 8.06933 24.5097 7.62183C24.0618 7.17433 23.53 6.81951 22.9448 6.57765C22.3596 6.3358 21.7325 6.21165 21.0993 6.21231Z" fill="#1EEFA4"/>
</svg>
