<svg width="32" height="32" viewBox="0 0 32 32" fill="none" xmlns="http://www.w3.org/2000/svg">
<path d="M21.9988 28.6116L21.8016 28.5077L18.157 25.7073C18.0886 25.6669 18.0391 25.6016 18.0194 25.5254C17.9996 25.4493 18.0112 25.3686 18.0515 25.3008L18.079 25.2556C18.1727 25.1132 18.2801 24.9801 18.4 24.8582C18.7248 24.4815 18.9006 24.0019 18.8951 23.5077V4.22132C18.8676 4.15003 18.8676 4.07129 18.8951 4C18.8823 4.24913 18.907 4.49874 18.9684 4.74074C19.1232 6.53338 19.4299 8.31013 19.8853 10.0524C20.219 11.3919 20.8172 12.6535 21.6458 13.7651C21.6675 13.7956 21.6791 13.8318 21.6791 13.869C21.6791 13.9062 21.6675 13.9425 21.6458 13.9729C21.106 14.5446 20.7865 15.2845 20.7426 16.0641C20.7288 16.7516 20.7548 17.4392 20.8206 18.1238V23.7922C20.8684 25.3765 21.2379 26.9353 21.9071 28.3767C21.9009 28.4368 21.9009 28.4973 21.9071 28.5574C21.9071 28.5574 22.0125 28.5122 21.9988 28.6116ZM14.0126 4.04065V5.30533C14.0126 11.0596 14.0126 16.832 14.1181 22.5863V23.5528C14.1107 24.0024 14.2668 24.4398 14.5582 24.7859C14.696 24.9257 14.8175 25.0802 14.9204 25.2466C14.945 25.2747 14.9637 25.3073 14.9754 25.3425C14.9872 25.3778 14.9917 25.415 14.9887 25.452C14.9857 25.4889 14.9753 25.525 14.958 25.5579C14.9408 25.5909 14.9171 25.6202 14.8883 25.6441L14.8424 25.6757L11.262 28.5077C11.191 28.5757 11.102 28.6227 11.0052 28.6432C10.9983 28.5937 10.9983 28.5436 11.0052 28.4941C11.5273 27.395 11.8826 26.2262 12.0597 25.0253C12.143 24.3254 12.1737 23.6204 12.1513 22.916V17.4824C12.1657 16.7564 12.073 16.0322 11.8763 15.3324C11.7606 14.8383 11.5064 14.386 11.1428 14.0271C11.1428 13.9548 11.0373 13.8916 11.1428 13.8013C12.299 12.2512 13.0486 10.4436 13.325 8.5393C13.5817 7.0533 13.733 5.6757 13.9255 4.23487V4.0271L14.0126 4.04065ZM11.7662 28.9955L11.9313 28.86L16.2269 25.5402C16.5112 25.3144 16.5708 25.3144 16.8412 25.5402C18.3495 26.6378 19.7065 27.7353 21.1506 28.8193C21.212 28.8664 21.2595 28.9288 21.2882 29L21.091 28.9232C20.04 28.3353 18.9104 27.8959 17.7352 27.6179C16.7367 27.3909 15.6937 27.4425 14.7232 27.7669C13.7414 28.0756 12.7925 28.478 11.89 28.9684H11.7525L11.7662 28.9955ZM16.5753 6.66938C16.7404 11.5023 16.7404 16.3397 16.5753 21.2087C16.4516 20.3189 16.4378 8.30443 16.5753 6.66938Z" fill="white"/>
<path d="M21.9988 28.6116L21.8016 28.5077L18.157 25.7073C18.0886 25.6669 18.0391 25.6016 18.0194 25.5254C17.9996 25.4493 18.0112 25.3686 18.0515 25.3008L18.079 25.2556C18.1727 25.1132 18.2801 24.9801 18.4 24.8582C18.7248 24.4815 18.9006 24.0019 18.8951 23.5077V4.22132C18.8676 4.15003 18.8676 4.07129 18.8951 4C18.8823 4.24913 18.907 4.49874 18.9684 4.74074C19.1232 6.53338 19.4299 8.31013 19.8853 10.0524C20.219 11.3919 20.8172 12.6535 21.6458 13.7651C21.6675 13.7956 21.6791 13.8318 21.6791 13.869C21.6791 13.9062 21.6675 13.9425 21.6458 13.9729C21.106 14.5446 20.7865 15.2845 20.7426 16.0641C20.7288 16.7516 20.7548 17.4392 20.8206 18.1238V23.7922C20.8684 25.3765 21.2379 26.9353 21.9071 28.3767C21.9009 28.4368 21.9009 28.4973 21.9071 28.5574C21.9071 28.5574 22.0125 28.5122 21.9988 28.6116ZM14.0126 4.04065V5.30533C14.0126 11.0596 14.0126 16.832 14.1181 22.5863V23.5528C14.1107 24.0024 14.2668 24.4398 14.5582 24.7859C14.696 24.9257 14.8175 25.0802 14.9204 25.2466C14.945 25.2747 14.9637 25.3073 14.9754 25.3425C14.9872 25.3778 14.9917 25.415 14.9887 25.452C14.9857 25.4889 14.9753 25.525 14.958 25.5579C14.9408 25.5909 14.9171 25.6202 14.8883 25.6441L14.8424 25.6757L11.262 28.5077C11.191 28.5757 11.102 28.6227 11.0052 28.6432C10.9983 28.5937 10.9983 28.5436 11.0052 28.4941C11.5273 27.395 11.8826 26.2262 12.0597 25.0253C12.143 24.3254 12.1737 23.6204 12.1513 22.916V17.4824C12.1657 16.7564 12.073 16.0322 11.8763 15.3324C11.7606 14.8383 11.5064 14.386 11.1428 14.0271C11.1428 13.9548 11.0373 13.8916 11.1428 13.8013C12.299 12.2512 13.0486 10.4436 13.325 8.5393C13.5817 7.0533 13.733 5.6757 13.9255 4.23487V4.0271L14.0126 4.04065ZM11.7662 28.9955L11.9313 28.86L16.2269 25.5402C16.5112 25.3144 16.5708 25.3144 16.8412 25.5402C18.3495 26.6378 19.7065 27.7353 21.1506 28.8193C21.212 28.8664 21.2595 28.9288 21.2882 29L21.091 28.9232C20.04 28.3353 18.9104 27.8959 17.7352 27.6179C16.7367 27.3909 15.6937 27.4425 14.7232 27.7669C13.7414 28.0756 12.7925 28.478 11.89 28.9684H11.7525L11.7662 28.9955ZM16.5753 6.66938C16.7404 11.5023 16.7404 16.3397 16.5753 21.2087C16.4516 20.3189 16.4378 8.30443 16.5753 6.66938Z" fill="url(#paint0_linear_22_679)"/>
<defs>
<linearGradient id="paint0_linear_22_679" x1="16.5" y1="4" x2="16.5" y2="29" gradientUnits="userSpaceOnUse">
<stop stop-color="#631486"/>
<stop offset="1" stop-color="#3623A5"/>
</linearGradient>
</defs>
</svg>
