<svg width="32" height="32" viewBox="0 0 32 32" fill="none" xmlns="http://www.w3.org/2000/svg">
<mask id="mask0_22_681" style="mask-type:luminance" maskUnits="userSpaceOnUse" x="2" y="5" width="28" height="23">
<path d="M2 5H30V27.7621H2V5Z" fill="white"/>
</mask>
<g mask="url(#mask0_22_681)">
<path d="M26.9954 5H29.9366L18.0133 18.6164C17.8645 18.7851 17.7807 19.0014 17.7769 19.2264C17.7732 19.4514 17.8497 19.6703 17.9928 19.844L24.8624 27.844H21.7985L15.4558 20.4271L15.1335 20.0281C14.9904 19.8545 14.9139 19.6355 14.9176 19.4106C14.9214 19.1856 15.0052 18.9693 15.154 18.8005L26.9954 5Z" fill="#17B5CB"/>
<path d="M20.3734 19.844C20.2775 19.7321 20.2091 19.5994 20.1736 19.4564C20.1381 19.3135 20.1364 19.1642 20.1688 19.0205C20.2308 18.8543 20.3266 18.7028 20.4501 18.5754L21.2379 17.711L30 27.8389H27.2225L20.3734 19.844ZM5.06394 27.8389H2L11.3862 16.9847C11.5316 16.8172 11.6116 16.6029 11.6116 16.3811C11.6116 16.1593 11.5316 15.945 11.3862 15.7775L2.07673 5H5.02302L14.3887 15.8593C14.5128 16.0118 14.5822 16.2015 14.586 16.398C14.5897 16.5946 14.5274 16.7867 14.4092 16.9437C11.954 19.7826 5.06394 27.8389 5.06394 27.8389ZM10.179 5H7.3555L16.0409 15.0511L17.0281 13.8849C17.0965 13.8227 17.1515 13.7473 17.1897 13.6632C17.228 13.5791 17.2487 13.4881 17.2506 13.3957C17.2525 13.3033 17.2356 13.2115 17.2008 13.1259C17.1661 13.0403 17.1143 12.9626 17.0486 12.8977C15.2327 11.0409 10.179 5 10.179 5ZM18.6394 12.0077L24.6598 5H21.8005L18.6598 8.66752L17.7545 9.73146C17.6057 9.90024 17.5219 10.1165 17.5181 10.3415C17.5144 10.5665 17.5909 10.7854 17.734 10.9591C17.954 11.2251 18.6394 12.0077 18.6394 12.0077ZM13.4015 20.8312L7.38107 27.8389H10.2199L13.3606 24.1714L14.2711 23.1074C14.4199 22.9386 14.5037 22.7224 14.5075 22.4974C14.5112 22.2724 14.4347 22.0534 14.2916 21.8798L13.4015 20.8312Z" fill="#17B5CB"/>
</g>
</svg>
