<svg width="32" height="32" viewBox="0 0 32 32" fill="none" xmlns="http://www.w3.org/2000/svg">
<path d="M9.65125 25.6882C10.9782 26.9321 12.5655 27.8649 14.298 28.4186C16.0304 28.9724 17.8645 29.1333 19.6669 28.8896C19.7163 28.8838 19.7625 28.8621 19.7986 28.8279C19.8644 28.7621 19.8644 28.7621 19.8644 28.6962V28.4987C19.9961 28.4987 19.9961 28.4329 19.9303 28.367C19.8644 28.3012 19.7986 28.2353 19.7327 28.2353C18.2139 27.9272 16.7549 27.3756 15.4121 26.6017C14.1146 25.9498 13.0064 24.9754 12.1936 23.7721C11.3808 22.5689 10.8908 21.1769 10.7705 19.7299C10.7604 18.6697 10.9838 17.6202 11.4248 16.656C11.684 15.9977 13.2559 13.7756 13.4534 13.3847C14.4986 11.747 14.1694 11.8787 12.6675 9.8459L10.5689 6.7762L9.19862 4.68172C8.39097 5.23536 7.62493 5.84737 6.90662 6.51284C5.45033 7.98823 4.35347 9.77925 3.70112 11.747C3.04987 13.707 2.84875 15.7886 3.11269 17.837C3.39044 19.8837 4.15219 21.8346 5.33473 23.5279C6.5096 25.2267 8.05618 26.6354 9.857 27.6469C7.62074 26.2319 5.91459 24.1177 5.00377 21.633C4.09294 19.1484 4.02847 16.4324 4.82037 13.9073C5.2942 12.5119 6.00099 11.2069 6.91074 10.0475L8.41679 12.2696C8.4995 12.4094 8.54484 12.5681 8.54846 12.7304C8.5351 12.8899 8.49035 13.0451 8.41679 13.1872C7.68785 14.0905 7.1136 15.1083 6.71734 16.1993C6.23023 17.8946 6.24877 19.6953 6.7707 21.3802C7.29263 23.0652 8.29522 24.561 9.65537 25.6841" fill="url(#paint0_linear_22_689)"/>
<path d="M12.8627 3.63652C12.9286 3.70235 12.9944 3.76819 13.0602 3.76819C14.5791 4.0763 16.0381 4.62796 17.3809 5.4018C18.6791 6.05323 19.7882 7.02733 20.6017 8.23066C21.4152 9.43399 21.9059 10.8262 22.0266 12.2737C22.0366 13.3339 21.8133 14.3833 21.3723 15.3475C21.109 16.0018 19.5412 18.2279 19.3437 18.6188C18.2985 20.2566 18.6236 20.1249 20.1255 22.1535L22.2241 25.2273L23.6643 27.3218C24.4705 26.768 25.2352 26.156 25.9522 25.4907C27.41 24.0157 28.5082 22.2247 29.1618 20.2566C29.813 18.2965 30.0142 16.215 29.7502 14.1665C29.4712 12.1195 28.7081 10.1686 27.5241 8.47563C26.3504 6.77731 24.8052 5.36867 23.0059 4.35662C25.2462 5.76616 26.9519 7.88328 27.8523 10.3722C28.7528 12.8612 28.7966 15.5796 27.9767 18.0962C27.5029 19.4916 26.7961 20.7967 25.8863 21.956L24.3803 19.734C24.2976 19.5942 24.2522 19.4355 24.2486 19.2731C24.262 19.1137 24.3067 18.9584 24.3803 18.8163C25.1091 17.913 25.6833 16.8952 26.0797 15.8042C28.0425 10.1134 22.7467 4.22494 17.1833 3.24149C15.8478 2.97028 14.476 2.92715 13.1261 3.11392C13.0767 3.11975 13.0305 3.1414 12.9944 3.17565C12.8627 3.17565 12.7969 3.24149 12.7969 3.30732V3.50484C12.8018 3.55535 12.8253 3.60225 12.8627 3.63652Z" fill="url(#paint1_linear_22_689)"/>
<defs>
<linearGradient id="paint0_linear_22_689" x1="7.95592" y1="26.5976" x2="17.7576" y2="9.61958" gradientUnits="userSpaceOnUse">
<stop stop-color="#174E5B"/>
<stop offset="0.07" stop-color="#195A6C"/>
<stop offset="0.21" stop-color="#1E779A"/>
<stop offset="0.4" stop-color="#27A7E3"/>
<stop offset="0.47" stop-color="#2ABAFF"/>
<stop offset="0.7" stop-color="#1DDAF0"/>
<stop offset="1" stop-color="#0EFFE0"/>
</linearGradient>
<linearGradient id="paint1_linear_22_689" x1="24.8165" y1="5.39769" x2="15.0148" y2="22.3716" gradientUnits="userSpaceOnUse">
<stop stop-color="#174E5B"/>
<stop offset="0.07" stop-color="#195A6C"/>
<stop offset="0.21" stop-color="#1E779A"/>
<stop offset="0.4" stop-color="#27A7E3"/>
<stop offset="0.47" stop-color="#2ABAFF"/>
<stop offset="0.7" stop-color="#1DDAF0"/>
<stop offset="1" stop-color="#0EFFE0"/>
</linearGradient>
</defs>
</svg>
