<svg width="32" height="32" viewBox="0 0 32 32" fill="none" xmlns="http://www.w3.org/2000/svg">
<path d="M16 2L4 9V23L16 30L28 23V9L16 2ZM16.2459 24.6737L7.03666 19.3692L7.07548 16.7889L16.2416 22.089L20.6585 19.5131L17.6952 17.7827L16.5866 18.4321L14.5075 17.2248L15.6204 16.571L14.1668 15.7167L13.2868 16.2354L11.1991 15.028L12.0877 14.5093L7.38605 11.7721L16.2416 6.6071L24.5924 11.4234L22.3494 12.7397L16.2416 9.2005L11.8203 11.7765L14.2919 13.2192L15.5557 12.4782L17.6434 13.6856L16.3666 14.4265L17.8246 15.2808L18.8598 14.6706L20.9432 15.8736L19.8994 16.4882L25.0798 19.5131L16.2459 24.6737Z" fill="#4A4A4A"/>
</svg>
