<svg width="32" height="32" viewBox="0 0 32 32" fill="none" xmlns="http://www.w3.org/2000/svg">
<path d="M18.6445 3V9.25664L24.0765 6.13071L18.6445 3Z" fill="#00D4D5"/>
<path opacity="0.9" d="M24.0757 6.13078V12.3874L29.5077 9.2567L24.0757 6.13078Z" fill="#00D4D5"/>
<path opacity="0.8" d="M18.6445 9.2569V15.5135L24.0765 12.3876L18.6445 9.2569ZM24.0765 12.3876V18.6442L29.5085 15.5135L24.0765 12.3876ZM18.6445 15.5135V21.7702L24.0765 18.6442L18.6445 15.5135Z" fill="#00D4D5"/>
<path d="M24.0757 18.644V24.9006L29.5077 21.7747L24.0757 18.644Z" fill="#00D4D5"/>
<path opacity="0.4" d="M4.60303 9.04591V15.3025L10.035 12.1718L4.60303 9.04591Z" fill="#00D4D5"/>
<path opacity="0.2" d="M11.4531 11.3711V17.6277L16.8803 14.5018L11.4531 11.3711Z" fill="#00D4D5"/>
<path opacity="0.3" d="M7.42627 15.3265V21.5831L12.8583 18.4524L7.42627 15.3265Z" fill="#00D4D5"/>
<path opacity="0.9" d="M11.0083 20.0489V26.3055L16.4307 23.1748L11.0083 20.0489Z" fill="#00D4D5"/>
<path opacity="0.7" d="M18.5977 22.7434V29L24.0249 25.8693L18.5977 22.7434Z" fill="#00D4D5"/>
<path opacity="0.9" d="M12.3657 8.27866V14.5401L17.7833 11.4142L12.3657 8.27866Z" fill="#00D4D5"/>
<path opacity="0.8" d="M18.6454 3V9.25664L13.2134 6.13071L18.6454 3Z" fill="#00D4D5"/>
<path opacity="0.6" d="M12.3625 5.65616V11.9128L6.9209 8.78208L12.3625 5.65616ZM17.7897 8.75331V15.0147L12.3625 11.8792L17.7897 8.75331Z" fill="#00D4D5"/>
<path opacity="0.95" d="M11.4305 11.3711V17.6277L5.99854 14.5018L11.4305 11.3711Z" fill="#00D4D5"/>
<path opacity="0.6" d="M18.6451 15.5135V21.7701L13.2227 18.6442L18.6451 15.5135Z" fill="#00D4D5"/>
<path opacity="0.55" d="M7.42721 16.9708V23.2274L2 20.0919L7.42721 16.9708Z" fill="#00D4D5"/>
<path d="M29.5077 9.2569V15.5135L24.0757 12.3876L29.5077 9.2569Z" fill="#00D4D5"/>
<path opacity="0.95" d="M24.0765 12.3874V18.644L18.6445 15.5133L24.0765 12.3874Z" fill="#00D4D5"/>
<path opacity="0.9" d="M29.5077 15.5135V21.7701L24.0757 18.6442L29.5077 15.5135Z" fill="#00D4D5"/>
<path opacity="0.7" d="M24.0765 18.644V24.9006L18.6445 21.7747L24.0765 18.644Z" fill="#00D4D5"/>
<path opacity="0.4" d="M17.4423 21.2475V27.5089L12.0103 24.383L17.4423 21.2475Z" fill="#00D4D5"/>
<path d="M24.0765 6.13078V12.3874L18.6445 9.2567L24.0765 6.13078Z" fill="#00D4D5"/>
</svg>
