<svg width="32" height="32" viewBox="0 0 32 32" fill="none" xmlns="http://www.w3.org/2000/svg">
<path d="M17.7435 8.85944L8.8199 13.8256V15.0671L14.0965 12.6616L14.1741 17.7054C14.1741 17.7054 5.94885 20.9645 7.11284 26.5514C8.27675 32.1384 15.338 28.7241 15.338 28.7241C15.338 28.7241 17.8211 27.8706 17.6659 23.4476C17.5107 19.0246 17.5884 18.2486 17.5884 18.2486L25.9687 13.5152V12.0409L17.5884 16.1535L17.7435 8.85944ZM10.6047 26.3962C7.0738 24.3885 14.1742 20.2662 14.1742 20.2662C14.1742 20.2662 14.5622 28.6466 10.6047 26.3962Z" fill="#FFFFF6" fill-opacity="0.580392"/>
<path d="M15.923 10.3856C16.8415 10.1688 17.4104 9.24836 17.1935 8.32983C16.9767 7.41129 16.0563 6.84244 15.1378 7.05927C14.2192 7.2761 13.6504 8.19649 13.8672 9.11503C14.084 10.0336 15.0044 10.6024 15.923 10.3856Z" fill="#FFFFF6" fill-opacity="0.580392"/>
</svg>
