<svg width="32" height="32" viewBox="0 0 32 32" fill="none" xmlns="http://www.w3.org/2000/svg">
<path d="M16.0435 25.3333C15.644 25.3333 15.2534 25.2149 14.9212 24.9929C14.589 24.7709 14.3301 24.4554 14.1772 24.0863C14.0243 23.7172 13.9843 23.311 14.0623 22.9191C14.1402 22.5273 14.3326 22.1673 14.6151 21.8848C14.8976 21.6023 15.2576 21.4099 15.6494 21.3319C16.0413 21.254 16.4475 21.294 16.8166 21.4469C17.1857 21.5998 17.5012 21.8587 17.7232 22.1909C17.9452 22.5231 18.0636 22.9137 18.0636 23.3132C18.0636 23.849 17.8508 24.3628 17.472 24.7417C17.0931 25.1205 16.5793 25.3333 16.0435 25.3333Z" fill="#B41514"/>
<path d="M16.0653 9.10542C15.466 9.10542 14.8802 8.9277 14.3818 8.59474C13.8835 8.26179 13.4952 7.78854 13.2658 7.23485C13.0365 6.68116 12.9765 6.0719 13.0934 5.48411C13.2103 4.89631 13.4989 4.35639 13.9227 3.93262C14.3464 3.50884 14.8864 3.22025 15.4742 3.10333C16.062 2.98641 16.6712 3.04642 17.2249 3.27576C17.7786 3.50511 18.2518 3.89349 18.5848 4.3918C18.9178 4.8901 19.0955 5.47595 19.0955 6.07526C19.0955 6.87891 18.7762 7.64964 18.208 8.2179C17.6397 8.78617 16.869 9.10542 16.0653 9.10542Z" fill="#B41514"/>
<path d="M7.78125 19.9363V17.1323H24.3039V19.9363H7.78125Z" fill="#B41514"/>
<path d="M16.0653 15.6181C12.6763 15.6201 9.41911 14.3051 6.98135 11.9508C4.54358 9.59649 3.11601 6.38704 3 3H7.48744C7.61717 5.18708 8.5774 7.24201 10.1718 8.74466C11.7662 10.2473 13.8744 11.0842 16.0653 11.0842C18.2563 11.0842 20.3645 10.2473 21.9589 8.74466C23.5533 7.24201 24.5135 5.18708 24.6432 3H29.1257C29.0097 6.38618 27.5828 9.59488 25.1461 11.9491C22.7094 14.3032 19.4535 15.6188 16.0653 15.6181Z" fill="#B41514"/>
</svg>
