<svg width="32" height="32" viewBox="0 0 32 32" fill="none" xmlns="http://www.w3.org/2000/svg">
<path d="M12.8211 12.011C14.0523 11.9641 15.2514 11.6189 16.3073 11.0073C17.0979 10.5042 17.8268 9.91647 18.4798 9.25522L23.9364 4.02345L23.9743 3.96262C23.9835 3.94146 23.9878 3.91862 23.987 3.8957L23.968 3.82878L23.9238 3.76795C23.434 3.34746 22.82 3.08503 22.1677 3.0174C21.5154 2.94977 20.8575 3.08032 20.2861 3.39077C19.8185 3.68637 19.3882 4.03344 19.004 4.42496L16.0673 7.29635C15.6671 7.70007 15.2175 8.0555 14.7284 8.35487C14.1784 8.6784 13.5615 8.882 12.921 8.95137C12.2806 9.02073 11.6321 8.95417 11.0212 8.75637C10.322 8.51708 9.69207 8.12087 9.18341 7.60052L7.2635 5.77549C7.23529 5.73899 7.19861 5.70935 7.15639 5.68893C7.11418 5.6685 7.06759 5.65787 7.02035 5.65787C6.97311 5.65787 6.92652 5.6685 6.88431 5.68893C6.84209 5.70935 6.80542 5.73899 6.7772 5.77549L4.92676 7.56402C4.91129 7.57873 4.89901 7.59626 4.89063 7.61557C4.88225 7.63489 4.87794 7.65562 4.87794 7.67656C4.87794 7.6975 4.88225 7.71823 4.89063 7.73755C4.89901 7.75687 4.91129 7.77439 4.92676 7.78911C5.70988 8.56779 6.48458 9.30591 7.25087 10.0035C7.98805 10.6864 8.86253 11.2169 9.82048 11.5621C10.7784 11.9074 11.7996 12.0601 12.8211 12.011ZM9.13289 21.0267C8.92054 21.7831 8.50693 22.4729 7.93294 23.0281C7.25929 23.7054 6.56669 24.3685 5.85514 25.0174C5.82895 25.0367 5.80773 25.0616 5.79312 25.0901C5.77851 25.1186 5.77092 25.1499 5.77092 25.1817C5.77092 25.2135 5.77851 25.2448 5.79312 25.2733C5.80773 25.3018 5.82895 25.3266 5.85514 25.3459L7.80032 27.2318L7.83189 27.2501L7.8761 27.2561L7.92031 27.2501L7.9582 27.2257C8.52239 26.6823 9.09078 26.1429 9.66339 25.6075C10.2435 25.0873 10.7681 24.5126 11.2296 23.892C12.1597 22.5449 12.5667 20.9249 12.3791 19.3172C12.3468 18.7799 12.245 18.2486 12.0759 17.7355C11.6785 16.6671 11.04 15.6968 10.2065 14.8946C8.13925 12.9114 6.0825 10.9444 4.03628 8.99363L3.97312 8.95713C3.94862 8.94983 3.92276 8.94775 3.89733 8.95105L3.82786 8.9693L3.76471 9.01796C3.29625 9.54209 3.02721 10.2043 3.00196 10.8955C2.9767 11.5867 3.19673 12.2656 3.62577 12.8201C3.96101 13.2223 4.32392 13.6024 4.71203 13.9577C5.68041 14.8581 6.64247 15.7625 7.59822 16.6709C7.95768 17.0038 8.28141 17.3706 8.56449 17.766C8.88691 18.2426 9.10379 18.7782 9.20159 19.3392C9.29939 19.9003 9.276 20.4747 9.13289 21.0267ZM27.9657 24.403L27.9784 24.3848L27.972 24.3665C27.9238 24.2842 27.8643 24.2085 27.7952 24.1414C27.29 23.671 26.77 23.1721 26.2353 22.6449C25.7661 22.1652 25.2548 21.7256 24.7069 21.3309C23.307 20.374 21.6071 19.912 19.8945 20.0229C18.3159 20.0765 16.8025 20.6425 15.6 21.629C15.2295 21.9331 14.8779 22.2434 14.5453 22.5597L8.84869 28.0227L8.81711 28.0713L8.8108 28.1261L8.82343 28.1808L8.85501 28.2234C9.47284 28.7472 10.2748 29.0243 11.0974 28.9983C11.92 28.9723 12.7013 28.6452 13.2822 28.0835C14.3684 27.0574 15.4926 25.9705 16.6547 24.8228C17.4541 23.8621 18.6082 23.2365 19.8756 23.0768C20.4388 23.0039 21.0115 23.0424 21.5588 23.1898C22.1061 23.3373 22.6164 23.5907 23.0586 23.9346C23.6522 24.4212 24.4375 25.1472 25.4143 26.1124C25.5088 26.2069 25.6124 26.2924 25.7237 26.368C25.7492 26.386 25.7806 26.3946 25.8121 26.3923C25.8432 26.3903 25.8725 26.3773 25.8942 26.3558L27.9657 24.403ZM20.6271 11.3783C20.4 13.1531 20.8808 14.9447 21.9723 16.3911C22.4592 16.9783 22.9867 17.5331 23.5512 18.0519L28.9951 23.2532C29.0045 23.2658 29.0168 23.276 29.0311 23.2831C29.0454 23.2901 29.0612 23.2938 29.0772 23.2938C29.0933 23.2938 29.1091 23.2901 29.1234 23.2831C29.1377 23.276 29.15 23.2658 29.1593 23.2532C29.579 22.8152 29.8565 22.2685 29.9575 21.6804C30.0585 21.0924 29.9786 20.4887 29.7277 19.9438C29.3912 19.3402 28.9441 18.8002 28.4078 18.35C27.5236 17.5226 26.6058 16.6709 25.6542 15.7949C25.3009 15.473 24.9717 15.1274 24.669 14.7607C24.0361 14.0024 23.7033 13.0523 23.7299 12.0796C23.7565 11.107 24.1408 10.175 24.8143 9.44989C25.5595 8.64079 26.3932 7.91078 27.1952 7.13209C27.2109 7.12076 27.2236 7.10607 27.2324 7.08917C27.2412 7.07228 27.2458 7.05365 27.2458 7.03476C27.2458 7.01587 27.2412 6.99724 27.2324 6.98035C27.2236 6.96345 27.2109 6.94876 27.1952 6.93742L25.1364 4.95422L25.1048 4.93597L25.0732 4.92989H25.0353L25.0037 4.95422C24.2922 5.63151 23.5849 6.31286 22.8817 6.99826C21.6213 8.1592 20.8235 9.70917 20.6271 11.3783Z" fill="#4A4A4A"/>
</svg>
