<svg width="32" height="32" viewBox="0 0 32 32" fill="none" xmlns="http://www.w3.org/2000/svg">
<mask id="mask0_22_736" style="mask-type:luminance" maskUnits="userSpaceOnUse" x="3" y="3" width="27" height="27">
<path d="M3 3H30V30H3V3Z" fill="white"/>
</mask>
<g mask="url(#mask0_22_736)">
<path d="M9.01953 21.3328C9.75692 22.3585 10.7028 23.2168 11.7951 23.8514C12.8874 24.4859 14.1015 24.8825 15.3578 25.0149C14.7109 24.0429 13.7715 23.1474 12.5993 22.4668C11.4259 21.7851 10.1839 21.4127 9.01953 21.3328Z" fill="url(#paint0_linear_22_736)"/>
<path d="M14.174 19.7533C11.915 18.4404 9.46925 18.1063 7.71875 18.6969C7.8875 19.256 8.11025 19.796 8.38363 20.3113C9.90463 20.2764 11.5651 20.6893 13.1086 21.5859C14.6544 22.4837 15.8356 23.7223 16.559 25.061C17.1423 25.0429 17.7225 24.9683 18.2915 24.8383C17.9383 23.0259 16.4341 21.0673 14.174 19.7533Z" fill="url(#paint1_linear_22_736)"/>
<path d="M29.415 13.6363C28.9844 11.8831 28.2048 10.2348 27.1228 8.78965C26.0408 7.34455 24.6786 6.13237 23.1177 5.22555C21.5567 4.31873 19.8289 3.73586 18.0376 3.51178C16.2463 3.2877 14.4282 3.427 12.6919 3.92136C15.5944 4.27573 18.8125 5.36585 21.9715 7.20017C25.1271 9.03448 27.6718 11.2924 29.415 13.6363Z" fill="url(#paint2_linear_22_736)"/>
<path d="M25.193 20.0657C23.708 17.6002 21.1667 15.2394 18.033 13.4186C14.8993 11.5995 11.5884 10.56 8.71459 10.4925C6.18503 10.4317 4.28659 11.1675 3.50697 12.5091L3.49178 12.5327C3.42335 12.783 3.36146 13.0351 3.30615 13.2887C4.39459 12.8584 5.65515 12.6204 7.05747 12.5934C10.1743 12.5344 13.6623 13.5317 16.8821 15.4014C20.1018 17.2729 22.6972 19.8109 24.189 22.5463C24.8589 23.7782 25.2774 24.9932 25.4428 26.1525C25.6352 25.9804 25.8242 25.8015 26.0064 25.6176L26.0199 25.5906C26.7995 24.2473 26.4975 22.2358 25.193 20.0674V20.0657Z" fill="url(#paint3_linear_22_736)"/>
<path d="M15.766 17.014C12.5676 15.1555 9.03288 14.8652 7.33301 16.1624C7.33638 16.5674 7.36676 16.9724 7.42638 17.3751C7.92588 17.2232 8.44113 17.1276 8.96201 17.0905C10.8621 16.9476 12.9558 17.4764 14.857 18.5811C16.756 19.6859 18.2545 21.244 19.0713 22.963C19.2974 23.4344 19.4695 23.9294 19.5854 24.439C19.9634 24.2905 20.3313 24.1172 20.6856 23.9192C20.9703 21.7997 18.9655 18.8736 15.766 17.014Z" fill="url(#paint4_linear_22_736)"/>
<path d="M27.6635 15.938C26.1616 13.4743 23.5966 11.1084 20.441 9.27577C17.2853 7.44314 13.961 6.38677 11.0787 6.30239C8.87991 6.23996 7.17722 6.77152 6.29297 7.77896C9.95991 7.15796 14.7963 8.20083 19.4842 10.9245C24.172 13.6481 27.4745 17.3336 28.7502 20.825C29.189 19.5594 28.8076 17.8162 27.6635 15.938Z" fill="url(#paint5_linear_22_736)"/>
</g>
<defs>
<linearGradient id="paint0_linear_22_736" x1="19.0602" y1="11.1516" x2="10.9692" y2="25.0611" gradientUnits="userSpaceOnUse">
<stop stop-color="#C7F284"/>
<stop offset="1" stop-color="#00BEF0"/>
</linearGradient>
<linearGradient id="paint1_linear_22_736" x1="19.0599" y1="11.1516" x2="10.9689" y2="25.061" gradientUnits="userSpaceOnUse">
<stop stop-color="#C7F284"/>
<stop offset="1" stop-color="#00BEF0"/>
</linearGradient>
<linearGradient id="paint2_linear_22_736" x1="20.5911" y1="8.72736" x2="8.45458" y2="29.5916" gradientUnits="userSpaceOnUse">
<stop stop-color="#C7F284"/>
<stop offset="1" stop-color="#00BEF0"/>
</linearGradient>
<linearGradient id="paint3_linear_22_736" x1="20.5895" y1="8.72737" x2="8.45303" y2="29.5916" gradientUnits="userSpaceOnUse">
<stop stop-color="#C7F284"/>
<stop offset="1" stop-color="#00BEF0"/>
</linearGradient>
<linearGradient id="paint4_linear_22_736" x1="19.06" y1="11.1516" x2="10.969" y2="25.0611" gradientUnits="userSpaceOnUse">
<stop stop-color="#C7F284"/>
<stop offset="1" stop-color="#00BEF0"/>
</linearGradient>
<linearGradient id="paint5_linear_22_736" x1="20.5912" y1="8.72733" x2="8.45466" y2="29.5916" gradientUnits="userSpaceOnUse">
<stop stop-color="#C7F284"/>
<stop offset="1" stop-color="#00BEF0"/>
</linearGradient>
</defs>
</svg>
