<svg width="32" height="32" viewBox="0 0 32 32" fill="none" xmlns="http://www.w3.org/2000/svg">
<path d="M28.9949 29.6181H23.9888L13.4263 15.8064L23.9835 2H28.9949L18.5805 15.8117L28.9949 29.6181Z" fill="#F08179"/>
<path d="M29.0002 29.6181H23.9888L13.4263 15.8064L23.9888 2H29.0002L18.5911 15.8117L29.0002 29.6181Z" fill="#FF564F"/>
<path d="M29.0002 29.6181H23.9888L13.4263 15.8064L23.9888 2H29.0002L18.5911 15.8117L29.0002 29.6181Z" fill="#FF564F"/>
<path d="M29.0002 29.6181H23.9888L13.4263 15.8064L23.9888 2H29.0002L18.5911 15.8117L29.0002 29.6181Z" fill="#FF564F"/>
<path opacity="0.2" d="M6.48229 25.0142L8.02222 29.6181L18.5847 15.8117L8.02222 2L6.4082 6.50865L13.4252 15.8064L6.48229 25.0142Z" fill="#FF564F"/>
<path d="M4 2H8.0218V29.6181H4V2Z" fill="#FF564F"/>
<path d="M29.0002 29.6181H23.9888L13.4263 15.8064L23.9888 2H29.0002L18.5911 15.8117L29.0002 29.6181Z" fill="#FF564F"/>
</svg>
