<svg width="32" height="32" viewBox="0 0 32 32" fill="none" xmlns="http://www.w3.org/2000/svg">
<path d="M28 22.9199V9.63997L16.4979 3L5 9.63997V22.9199L16.4979 29.5599L28 22.9199Z" fill="url(#paint0_linear_22_764)"/>
<path d="M19.3268 9.67409C19.5408 9.65885 19.7411 9.56309 19.8873 9.4061C20.0335 9.24911 20.1148 9.04255 20.1148 8.82802C20.1148 8.6135 20.0335 8.40694 19.8873 8.24995C19.7411 8.09296 19.5408 7.9972 19.3268 7.98196H15.964C15.8402 7.98196 15.7177 8.00634 15.6033 8.0537C15.489 8.10107 15.3851 8.17049 15.2976 8.258C15.21 8.34551 15.1406 8.44941 15.0933 8.56375C15.0459 8.6781 15.0215 8.80065 15.0215 8.92441V18.5031C14.3232 18.7158 13.7249 19.1728 13.336 19.7906C12.9471 20.4083 12.7938 21.1455 12.904 21.8671C13.0141 22.5887 13.3805 23.2465 13.9361 23.72C14.4916 24.1936 15.1991 24.4512 15.929 24.4458C16.659 24.4403 17.3625 24.1722 17.9109 23.6904C18.4593 23.2087 18.8159 22.5455 18.9153 21.8223C19.0148 21.0992 18.8504 20.3644 18.4524 19.7525C18.0544 19.1406 17.4493 18.6925 16.7479 18.4903V12.8184H18.62C18.8339 12.8032 19.0342 12.7074 19.1804 12.5505C19.3266 12.3935 19.4079 12.1869 19.4079 11.9724C19.4079 11.7578 19.3266 11.5513 19.1804 11.3943C19.0342 11.2373 18.8339 11.1415 18.62 11.1263H16.7479V9.6698L19.3268 9.67409ZM17.4205 21.4761C17.4121 21.7741 17.316 22.0629 17.1443 22.3066C16.9727 22.5503 16.733 22.738 16.4553 22.8462C16.1775 22.9545 15.8741 22.9785 15.5828 22.9152C15.2915 22.8519 15.0253 22.7042 14.8175 22.4905C14.6096 22.2768 14.4694 22.0066 14.4143 21.7137C14.3592 21.4208 14.3916 21.1181 14.5075 20.8435C14.6234 20.5688 14.8177 20.3345 15.0661 20.1697C15.3145 20.0049 15.6059 19.9169 15.904 19.9168C16.3115 19.9235 16.6998 20.0914 16.984 20.3835C17.2681 20.6757 17.4251 21.0685 17.4205 21.4761Z" fill="#252E37"/>
<defs>
<linearGradient id="paint0_linear_22_764" x1="16.4832" y1="26.1194" x2="16.4832" y2="3.12218" gradientUnits="userSpaceOnUse">
<stop stop-color="#00BED3"/>
<stop offset="1" stop-color="#23A2E7"/>
</linearGradient>
</defs>
</svg>
