<svg width="32" height="32" viewBox="0 0 32 32" fill="none" xmlns="http://www.w3.org/2000/svg">
<path d="M24.3624 26.0789L24.0977 25.8141C23.9325 25.6267 23.7556 25.4498 23.5681 25.2846C23.3475 25.064 23.1269 24.7992 22.9062 24.6227C22.7738 24.5344 22.7297 24.4021 22.6414 24.3579C22.4759 24.1708 22.2991 23.9939 22.1119 23.8284C22.1119 23.7843 22.0678 23.7843 22.0678 23.7401L21.5382 23.2106C21.3727 23.0372 21.1958 22.875 21.0087 22.7252C20.8763 22.5487 20.6998 22.4163 20.5674 22.2398C20.4389 22.1335 20.3207 22.0153 20.2144 21.8868C20.0379 21.7544 19.9055 21.5779 19.729 21.4455C19.669 21.3467 19.5947 21.2575 19.5084 21.1807C19.299 20.963 19.078 20.7568 18.8464 20.5629C18.8023 20.5188 18.7582 20.4747 18.7582 20.4305C18.4493 20.1658 18.1845 19.8569 17.8756 19.548C17.8526 19.5469 17.8307 19.5373 17.8144 19.5209C17.7981 19.5046 17.7884 19.4828 17.7874 19.4597C17.3537 19.0702 16.9413 18.6578 16.5518 18.2241C16.5077 18.18 16.4635 18.2242 16.4635 18.2683C16.2429 18.4889 15.9781 18.7096 15.7575 18.9302L15.0956 19.5921C14.9597 19.7501 14.8122 19.8976 14.6543 20.0334C14.6543 20.0775 14.6102 20.0775 14.6102 20.1216C14.4337 20.254 14.3013 20.4305 14.1248 20.5629C13.9924 20.6953 13.86 20.8718 13.7276 21.0042C13.5593 21.1284 13.4105 21.2772 13.2863 21.4455C13.1981 21.4896 13.1981 21.5337 13.1539 21.5779C13.0421 21.6552 12.9385 21.7439 12.845 21.8426C12.7127 21.975 12.6244 22.1074 12.492 22.2398C12.3649 22.3315 12.2467 22.4349 12.139 22.5487C12.0178 22.7055 11.885 22.853 11.7419 22.99C11.6095 23.1223 11.4771 23.2106 11.3447 23.343L10.9475 23.7401C10.8152 23.8725 10.7269 24.0049 10.5945 24.1373C10.422 24.288 10.2598 24.4501 10.1091 24.6227C10.0106 24.683 9.92145 24.7573 9.84435 24.8433L9.57958 25.1081C9.49133 25.1964 9.40307 25.2405 9.35895 25.3287C9.17881 25.5307 8.98727 25.7223 8.78528 25.9024C8.47639 26.2113 8.21162 26.5202 7.90272 26.785C7.8586 26.8291 7.8586 26.8732 7.90272 26.8732C7.99098 26.9615 8.07924 27.0056 8.16749 27.0939C8.53893 27.4082 8.93766 27.6888 9.35895 27.9323C9.61412 28.096 9.87942 28.2434 10.1532 28.3736C10.3104 28.4962 10.4904 28.5862 10.6828 28.6383C10.7502 28.6919 10.8244 28.7364 10.9034 28.7707C11.1241 28.859 11.3006 28.9472 11.5212 29.0355H11.5653C11.8231 29.1434 12.0886 29.2319 12.3596 29.3003C12.586 29.4 12.8228 29.474 13.0657 29.5209C13.1539 29.565 13.2422 29.565 13.3305 29.6091L13.9482 29.7415C14.1248 29.7857 14.3013 29.7857 14.4778 29.8298C14.566 29.8298 14.6984 29.8739 14.8308 29.8739C15.0494 29.9106 15.2712 29.9253 15.4927 29.918H15.5369C15.581 29.9622 15.6692 29.918 15.7134 29.9622H17.1255C17.2885 29.9714 17.4521 29.9566 17.6109 29.918C17.7739 29.9253 17.9372 29.9105 18.0963 29.8739C18.2287 29.8739 18.4052 29.8298 18.5817 29.8298C18.7141 29.7857 18.8464 29.7857 18.9788 29.7415C19.1553 29.6974 19.3319 29.6974 19.5084 29.6533C19.6045 29.6038 19.7095 29.5738 19.8173 29.565C20.0298 29.5326 20.2374 29.4732 20.435 29.3885C20.6496 29.3418 20.8572 29.2676 21.0528 29.1679C21.0768 29.1708 21.1011 29.1683 21.124 29.1607C21.1469 29.153 21.1678 29.1404 21.1852 29.1237C21.4571 29.0401 21.7226 28.9369 21.9795 28.8148C22.2508 28.7271 22.5046 28.5927 22.7297 28.4177C22.7738 28.4177 22.818 28.3736 22.8621 28.3736H22.9062C23.1954 28.213 23.4753 28.0362 23.7446 27.844H23.7888C24.23 27.5351 24.6713 27.2262 25.1126 26.8732C25.1567 26.8291 25.1126 26.8291 25.0685 26.785C24.8478 26.5202 24.5831 26.2996 24.3624 26.0789Z" fill="#921E12"/>
<path d="M29.9224 15.2234V15.1352C29.9147 14.9122 29.8852 14.6905 29.8341 14.4732C29.8231 14.2796 29.7935 14.0875 29.7459 13.8996C29.7374 13.7776 29.7075 13.6581 29.6576 13.5466C29.6534 13.3812 29.6237 13.2174 29.5694 13.0611C29.5694 13.017 29.5252 12.9729 29.5252 12.8846C29.5252 12.8405 29.4811 12.8405 29.4811 12.7964C29.437 12.5757 29.3487 12.3992 29.3046 12.1786C29.3046 12.1669 29.3 12.1557 29.2917 12.1474C29.2834 12.1391 29.2722 12.1345 29.2605 12.1345C29.1918 11.8779 29.1033 11.6271 28.9957 11.3843C28.8667 11.0671 28.7194 10.7577 28.5544 10.4576C28.3779 10.1046 28.2014 9.75156 27.9808 9.39853C27.6534 8.8808 27.2999 8.38004 26.9217 7.89818C26.8776 7.80993 26.8334 7.85406 26.7893 7.89818C26.4363 8.25121 26.0833 8.60423 25.7302 9.00138C25.4586 9.22891 25.2076 9.47993 24.9801 9.75155L24.3181 10.4135C24.1063 10.5662 23.9137 10.744 23.7445 10.943C23.6013 11.08 23.4685 11.2275 23.3473 11.3843C23.1938 11.4937 23.0595 11.6279 22.9502 11.7814C22.8231 11.8731 22.7049 11.9765 22.5972 12.0903C22.5089 12.2227 22.3765 12.311 22.2883 12.4434C22.1646 12.5233 22.0593 12.6286 21.9794 12.7523C21.847 12.8405 21.7587 12.9729 21.6263 13.0611C21.4687 13.213 21.3212 13.3752 21.1851 13.5466C20.9579 13.7301 20.7508 13.9372 20.5673 14.1643C20.2584 14.4291 19.9495 14.738 19.6406 15.0469C19.5862 15.0973 19.5414 15.1571 19.5082 15.2234C19.1111 15.6206 18.6698 16.0177 18.2726 16.4149C18.2726 16.459 18.1844 16.459 18.2726 16.5031C18.6698 16.9444 19.1111 17.3416 19.5082 17.7828L19.9054 18.18C20.3025 18.533 20.6555 18.9302 21.0527 19.2832C21.1409 19.3714 21.2292 19.5038 21.3174 19.548L22.1118 20.3423C22.2549 20.4792 22.3877 20.6267 22.5089 20.7835L22.7737 21.0483C22.8875 21.1398 22.9911 21.2434 23.0826 21.3572C23.2037 21.487 23.3366 21.6051 23.4797 21.7102C23.6448 21.9116 23.8217 22.1032 24.0093 22.2839C24.1416 22.3721 24.2299 22.5045 24.3623 22.5928L24.7594 22.9899C24.8987 23.1728 25.0619 23.3361 25.2448 23.4753L26.0391 24.2696C26.2598 24.4903 26.4363 24.7109 26.6569 24.9316C26.7452 24.9757 26.7893 25.1081 26.8776 25.1081C26.9217 25.1081 27.0099 24.9757 27.0541 24.8874C27.3435 24.5381 27.6089 24.1695 27.8484 23.7842C28.0652 23.461 28.2569 23.1217 28.422 22.7693C28.4758 22.702 28.5203 22.6278 28.5544 22.5486C28.6868 22.2839 28.8192 21.975 28.9516 21.6661C28.9957 21.4896 29.084 21.3572 29.1281 21.1807C29.2505 20.9088 29.3538 20.6286 29.437 20.3423C29.4461 20.2485 29.4763 20.158 29.5252 20.0775C29.6135 19.7686 29.6576 19.4597 29.7459 19.1508V19.1067C29.7459 18.9743 29.79 18.886 29.79 18.7978C29.8341 18.5771 29.8341 18.4006 29.8783 18.18C29.9292 17.9329 29.9587 17.6819 29.9665 17.4298V16.9885C29.9884 16.94 29.9998 16.8873 29.9998 16.8341C29.9998 16.7808 29.9884 16.7282 29.9665 16.6796V15.3558C29.9224 15.3117 29.9665 15.2675 29.9224 15.2234Z" fill="url(#paint0_linear_22_769)"/>
<path d="M13.1952 12.9729C13.0628 13.4142 12.8863 13.8113 12.7539 14.2085C12.7075 14.2571 12.6767 14.3186 12.6657 14.385C12.445 14.9587 12.2244 15.5765 12.0038 16.1501L11.9596 16.1942C11.3418 17.827 10.7682 19.4156 10.1504 21.0483C10.1445 21.0541 10.1398 21.0609 10.1367 21.0685C10.1335 21.0761 10.1318 21.0842 10.1318 21.0924C10.1318 21.1007 10.1335 21.1088 10.1367 21.1164C10.1398 21.124 10.1445 21.1308 10.1504 21.1366C10.1945 21.0924 10.1945 21.0483 10.2386 21.0483C11.2977 19.9451 12.3568 18.886 13.46 17.827C13.5949 17.6545 13.7424 17.4923 13.9012 17.3416C14.3867 16.8562 14.9162 16.3708 15.3575 15.8853C15.4016 15.8853 15.4016 15.8412 15.4457 15.7971C15.7546 15.5323 16.0194 15.2234 16.3283 14.9145C16.5451 14.7198 16.7513 14.5136 16.9461 14.2967C17.1292 14.1577 17.2925 13.9944 17.4315 13.8113C17.604 13.6607 17.7662 13.4985 17.9169 13.3259C18.0051 13.2377 18.0934 13.1935 18.1375 13.1053C18.2041 13.0725 18.264 13.0276 18.314 12.9729C18.3617 12.8911 18.4212 12.8167 18.4906 12.7523C18.5788 12.7081 18.6229 12.6199 18.6671 12.5758C18.825 12.4399 18.9725 12.2924 19.1083 12.1345C19.2766 12.0102 19.4253 11.8614 19.5496 11.6932C19.7703 11.5167 19.9468 11.296 20.1674 11.1195C20.3325 10.9181 20.5093 10.7266 20.6969 10.5459C20.8981 10.3804 21.0896 10.2036 21.2706 10.0163C21.4725 9.82055 21.664 9.61434 21.8443 9.39855C21.8884 9.39855 21.8884 9.35442 21.9325 9.35442C22.1275 9.13781 22.3337 8.93159 22.5503 8.73663C22.771 8.47186 23.0357 8.20709 23.3005 7.94233C23.9183 7.36866 24.4919 6.75087 25.1097 6.17721C25.1539 6.08895 25.1097 6.08895 25.0656 6.04483C24.4836 5.56865 23.8637 5.14067 23.2122 4.76512C22.6105 4.40888 21.9749 4.11324 21.3147 3.88256C20.8735 3.70605 20.4322 3.57366 19.9909 3.44128C19.5741 3.31089 19.1455 3.2222 18.7112 3.17651C18.4906 3.13238 18.314 3.13238 18.0934 3.08826C17.8286 3.04413 17.5197 3.04413 17.255 3C16.9902 3 16.9902 3 16.9019 3.22064L16.3724 4.67686C16.1959 5.07401 16.0194 5.51529 15.887 5.91244C15.7546 6.22134 15.6664 6.4861 15.534 6.795C15.4355 7.11087 15.3176 7.42035 15.181 7.72169C15.0969 7.99342 14.9937 8.25886 14.8721 8.51599C14.825 8.73044 14.7509 8.93803 14.6514 9.13378C14.5578 9.3472 14.4839 9.56877 14.4308 9.7957C14.3754 9.85601 14.344 9.93448 14.3425 10.0163C14.3016 10.0847 14.2718 10.1592 14.2543 10.237C14.2053 10.3175 14.1752 10.408 14.166 10.5017C14.1124 10.5691 14.0679 10.6433 14.0336 10.7224C13.9402 10.9359 13.8663 11.1574 13.813 11.3843L13.5482 12.0462C13.4158 12.3551 13.3276 12.664 13.1952 12.9729Z" fill="url(#paint1_linear_22_769)"/>
<path d="M8.07698 19.6361C8.13201 19.5422 8.16237 19.436 8.16523 19.3272C8.19215 19.3062 8.21404 19.2794 8.22931 19.2489C8.24457 19.2184 8.25284 19.1848 8.25349 19.1507C8.30888 19.057 8.33927 18.9506 8.34174 18.8418C8.4337 18.6735 8.50766 18.496 8.56238 18.3123C8.65064 18.1357 8.69477 17.9592 8.78302 17.7827C8.82715 17.6062 8.91541 17.4738 8.95953 17.2973C9.03804 17.128 9.09725 16.9503 9.13605 16.7678C9.22824 16.5843 9.30215 16.3921 9.35669 16.1941C9.45653 16.0141 9.53079 15.821 9.57733 15.6205C9.66558 15.3998 9.75384 15.2233 9.84209 14.9585C9.88622 14.8261 9.97448 14.6496 10.0186 14.5173C10.1069 14.2525 10.1951 14.0318 10.2834 13.7671C10.3716 13.5464 10.4599 13.3258 10.5481 13.061C10.6364 12.8404 10.7247 12.5756 10.8129 12.355C10.9391 12.1357 11.0286 11.8972 11.0777 11.6489C11.0944 11.6315 11.107 11.6106 11.1146 11.5877C11.1222 11.5648 11.1247 11.5405 11.1218 11.5166L11.519 10.5899C11.6513 10.2368 11.7837 9.8397 11.9161 9.48667C12.0926 9.08952 12.225 8.64824 12.4015 8.25109C12.4015 8.20696 12.4015 8.20696 12.4456 8.16284C12.7987 7.19202 13.1517 6.22121 13.5047 5.29452C13.5488 5.20627 13.5488 5.16214 13.593 5.11801C13.5488 5.11801 13.5488 5.11801 13.5488 5.07388C13.5047 5.11801 13.5047 5.16214 13.4606 5.20627L11.5631 7.10377L11.2542 7.41266C10.9012 7.76568 10.5481 8.11871 10.1951 8.4276C9.97448 8.69237 9.70971 8.95714 9.44494 9.22191C9.18017 9.48667 8.95953 9.75144 8.69477 9.97208C8.49288 10.1523 8.30135 10.3439 8.1211 10.5457C7.92556 10.7478 7.71933 10.9393 7.50331 11.1194C7.33783 11.3205 7.16104 11.5121 6.97378 11.6931C6.77157 11.873 6.58003 12.0645 6.40012 12.2667L6.00297 12.6639C5.83766 12.8375 5.66074 12.9997 5.47343 13.1493C5.33725 13.3207 5.18983 13.4828 5.03215 13.6347C4.82983 13.8145 4.63828 14.006 4.45849 14.2084L3.92895 14.7379C3.66419 14.9585 3.44355 15.2233 3.22291 15.4439C3.13465 15.5322 3.0464 15.5763 3.0464 15.6646C3.00969 15.972 2.99495 16.2817 3.00227 16.5913C2.99391 16.9155 3.00866 17.2399 3.0464 17.5621V17.6503C3.09052 17.6945 3.0464 17.7827 3.09052 17.8268C3.08604 17.9461 3.10094 18.0654 3.13465 18.1799C3.13465 18.2681 3.09052 18.3123 3.13465 18.4005C3.14285 18.5367 3.17264 18.6708 3.22291 18.7977C3.22415 19.0247 3.2691 19.2495 3.35529 19.4596C3.38799 19.7007 3.44719 19.9375 3.5318 20.1656C3.60817 20.4971 3.71148 20.8218 3.8407 21.1364C3.93127 21.4266 4.04948 21.7073 4.19372 21.9749C4.29282 22.2475 4.41078 22.5129 4.54674 22.7692L4.59087 22.8133C4.99467 23.5617 5.46741 24.2708 6.00297 24.9314C6.00297 24.9756 6.00297 24.9756 6.04709 24.9756C6.17948 24.6667 6.26773 24.3578 6.40012 24.0489C6.57663 23.6076 6.70901 23.2104 6.88552 22.8133C6.97378 22.5485 7.06204 22.3279 7.15029 22.0631C7.26468 21.8231 7.35342 21.5716 7.41506 21.3129C7.43174 21.2955 7.44435 21.2746 7.45198 21.2517C7.45961 21.2288 7.46207 21.2045 7.45919 21.1806C7.54744 21.0041 7.6357 20.7834 7.72395 20.5628C7.81221 20.3863 7.85634 20.2098 7.94459 19.9891C7.98872 19.8567 8.03285 19.7685 8.07698 19.6361Z" fill="url(#paint2_linear_22_769)"/>
<defs>
<linearGradient id="paint0_linear_22_769" x1="22.5354" y1="20.8056" x2="31.1889" y2="12.1521" gradientUnits="userSpaceOnUse">
<stop stop-color="#921E12"/>
<stop offset="1" stop-color="#EF8B34"/>
</linearGradient>
<linearGradient id="paint1_linear_22_769" x1="7.33943" y1="18.3256" x2="22.3473" y2="3.31772" gradientUnits="userSpaceOnUse">
<stop stop-color="#921E12"/>
<stop offset="0.168" stop-color="#962314"/>
<stop offset="0.371" stop-color="#A33218"/>
<stop offset="0.59" stop-color="#B84A20"/>
<stop offset="0.821" stop-color="#D46C2A"/>
<stop offset="1" stop-color="#EF8B34"/>
</linearGradient>
<linearGradient id="paint2_linear_22_769" x1="2.93166" y1="21.891" x2="16.651" y2="8.17607" gradientUnits="userSpaceOnUse">
<stop stop-color="#921E12"/>
<stop offset="0.234" stop-color="#952113"/>
<stop offset="0.419" stop-color="#9D2B16"/>
<stop offset="0.588" stop-color="#AB3C1B"/>
<stop offset="0.746" stop-color="#C05323"/>
<stop offset="0.896" stop-color="#D9712C"/>
<stop offset="1" stop-color="#EF8B34"/>
</linearGradient>
</defs>
</svg>
