<svg width="32" height="32" viewBox="0 0 32 32" fill="none" xmlns="http://www.w3.org/2000/svg">
<path d="M27 10.3869V21.5696C27 21.654 26.9528 21.6962 26.9528 21.7806C26.8583 21.8275 26.811 21.9072 26.7165 21.9072C26.6613 21.9224 26.6036 21.9265 26.5468 21.9192C26.49 21.912 26.4353 21.8935 26.3858 21.865L14.786 15.9806L26.3858 10.0915C26.6693 9.96494 27 10.1384 27 10.3869ZM25.9085 7.38144C25.9558 7.42364 25.9558 7.46584 26.003 7.50803C26.0264 7.54619 26.0388 7.58998 26.0388 7.63463C26.0388 7.67928 26.0264 7.72307 26.003 7.76123C26.003 7.84562 25.9085 7.88782 25.8613 7.93002L14.2143 13.6503L17.0776 2.25663C17.0776 2.20974 17.1249 2.17223 17.1249 2.13003C17.2002 2.05422 17.3013 2.00907 17.4084 2.00343H17.4556C17.5369 1.99265 17.6195 2.00741 17.6919 2.04563L25.866 7.38144L26.0078 7.21264L25.9085 7.38144ZM26.0503 24.3688C26.0126 24.458 25.9461 24.5322 25.8613 24.5798L17.6919 29.9156C17.6446 29.9578 17.5974 30 17.5501 30C17.4084 30 17.3139 30 17.2666 29.9578C17.1721 29.9156 17.0776 29.8312 17.0776 29.7468L14.2096 18.3062L25.8566 24.0265C25.8808 24.0265 25.9042 24.0357 25.9218 24.0523C25.9394 24.0689 25.9499 24.0916 25.9511 24.1156C25.9863 24.1471 26.0133 24.1866 26.0297 24.2307C26.0462 24.2748 26.0563 24.3222 26.0503 24.3688ZM10.9683 15.7696L14.0726 28.7293C14.0794 28.7767 14.0744 28.8251 14.0579 28.87C14.0414 28.915 14.014 28.9553 13.9781 28.9872C13.9156 29.0542 13.8325 29.0987 13.7418 29.1138C13.6601 29.1232 13.5774 29.1068 13.5056 29.0669L5.57243 23.6514C5.39265 23.5497 5.24434 23.4012 5.14357 23.2218C5.04279 23.0425 4.99339 22.8392 5.00071 22.634V8.90997C5.00236 8.70694 5.05508 8.50753 5.1541 8.32985C5.25312 8.15216 5.39529 8.00184 5.5677 7.89251L13.4914 2.51451C13.5598 2.46014 13.6448 2.43039 13.7324 2.43011H13.7796C13.8743 2.4603 13.957 2.51937 14.0159 2.59891C14.0495 2.63087 14.0722 2.67251 14.0806 2.71794C14.0891 2.76338 14.083 2.81031 14.0631 2.8521L10.9636 15.7321L10.9683 15.7696Z" fill="#28C39B"/>
</svg>
