<svg width="32" height="32" viewBox="0 0 32 32" fill="none" xmlns="http://www.w3.org/2000/svg">
<path d="M29.3003 7.94622C28.7831 7.44339 28.1194 7.11254 27.4019 7C26.5184 7.01291 25.6666 7.32602 24.9903 7.8864C24.3833 8.28882 23.2244 9.46344 22.7442 9.82779C22.2641 10.1921 21.039 10.5184 19.0689 11.7202C17.0988 12.9221 9.35623 17.974 9.35623 17.974L11.3705 18.0012L2.39182 22.6997H3.29134L2 23.7003C2.71271 23.8691 3.46404 23.76 4.09705 23.3958V23.6785C4.09705 23.6785 14.7865 19.3934 16.8504 20.5027L15.5922 20.8779C15.7026 20.8779 17.7334 21.0139 17.7334 21.0139C17.7795 21.4386 17.9189 21.8483 18.1419 22.2145C18.3649 22.5808 18.6662 22.8948 19.0247 23.1347C20.2499 23.9505 20.2775 24.4018 20.2775 24.4018C20.2775 24.4018 19.6373 24.6683 19.6373 25C20.2264 24.8261 20.8379 24.7363 21.4529 24.7335C22.0064 24.756 22.5551 24.8455 23.0864 25C23.0864 25 23.0202 24.6411 22.1703 24.4018C21.3291 24.0377 20.6042 23.4549 20.0733 22.716C19.8206 22.3864 19.6567 21.9991 19.5969 21.5902C19.537 21.1813 19.5832 20.7642 19.7311 20.3776C20.0236 19.5946 21.05 19.1704 23.1637 18.061C25.658 16.745 26.2264 15.777 26.5796 15.0157C26.9328 14.2544 27.4516 12.748 27.7441 12.0356C27.9814 11.376 28.3975 10.793 28.9471 10.3498C29.607 9.98999 30.2932 9.67916 31 9.41994C31 9.41994 29.7197 8.27795 29.3058 7.95166" fill="#4A4A4A"/>
</svg>
