<svg width="32" height="32" viewBox="0 0 32 32" fill="none" xmlns="http://www.w3.org/2000/svg">
<path d="M25.582 20.201C25.5802 22.3702 24.8187 24.4702 23.4297 26.1363C22.0407 27.8024 20.1121 28.9294 17.9787 29.3215C17.285 29.454 16.5778 29.5019 15.8726 29.4643C13.9894 29.3798 12.1764 28.7247 10.6742 27.5858C9.17198 26.447 8.05155 24.8784 7.46159 23.088C7.21597 22.3473 7.06748 21.5779 7.01984 20.7989C6.91227 19.1636 7.24347 17.5292 7.97919 16.0647C8.17247 15.687 8.38699 15.3205 8.62172 14.967C8.66634 14.9001 8.69312 14.9046 8.75558 14.9403L13.0704 17.4479L16.2161 19.2774C16.2385 19.2927 16.2649 19.301 16.292 19.301C16.3191 19.301 16.3455 19.2927 16.3679 19.2774L20.9504 16.6135L23.8284 14.9403C23.8909 14.9046 23.9177 14.9046 23.9623 14.967C24.6111 15.921 25.0798 16.9856 25.3455 18.1083C25.5044 18.796 25.5837 19.4997 25.582 20.2055V20.201Z" fill="#F59887"/>
<path d="M19.6915 8.31431C18.7544 6.81506 17.8174 5.35597 16.8848 3.89687C16.6985 3.58944 16.4991 3.2902 16.2869 3C16.2468 3.0357 16.2468 3.07585 16.2111 3.11155L12.5076 8.95239C11.6062 10.3356 10.6692 11.7635 9.77231 13.1824C9.73215 13.2583 9.73215 13.2583 9.80801 13.294C10.5576 13.7446 11.3073 14.1551 12.0167 14.6058C13.4 15.3911 14.7877 16.2122 16.1754 17.0019C16.2869 17.0778 16.3226 17.0778 16.3985 17.0019C17.4827 16.404 18.567 15.7659 19.6156 15.1279C20.6642 14.53 21.7529 13.932 22.8015 13.294C22.8372 13.2538 22.8729 13.2538 22.8372 13.1824C21.7886 11.5761 20.74 9.92065 19.6915 8.31431ZM20.7802 12.8076C19.3016 13.6598 17.8291 14.5225 16.3628 15.3956H16.2468C14.8078 14.5441 13.3605 13.7067 11.9052 12.8835C11.7535 12.7719 11.7535 12.7719 11.865 12.5845C13.3241 10.2999 14.7877 8.05105 16.2111 5.77094C16.2468 5.73078 16.2825 5.69508 16.2825 5.65492C16.4342 5.87803 16.5502 6.0699 16.6974 6.2573C17.5943 7.6807 18.4912 9.09963 19.3925 10.4873C19.8789 11.237 20.3295 11.9464 20.7757 12.6961C20.8531 12.7347 20.8575 12.7719 20.7802 12.8076Z" fill="#F59887"/>
</svg>
