<svg width="32" height="32" viewBox="0 0 32 32" fill="none" xmlns="http://www.w3.org/2000/svg">
<path fill-rule="evenodd" clip-rule="evenodd" d="M8.75429 4L24.8877 15.4119L26.8761 14.0101C27.2957 13.7138 27.6382 13.3199 27.8746 12.8618C28.1111 12.4037 28.2346 11.8949 28.2346 11.3785C28.2346 10.8622 28.1111 10.3534 27.8746 9.89532C27.6382 9.43723 27.2957 9.04333 26.8761 8.74696L23.2708 6.19636L19.078 9.1417L17.5466 8.04858L23.2708 4.01518L27.8904 7.28947C28.542 7.75077 29.0739 8.36338 29.4411 9.07554C29.8083 9.78771 30 10.5785 30 11.3811C30 12.1837 29.8083 12.9744 29.4411 13.6866C29.0739 14.3988 28.542 15.0114 27.8904 15.4727L26.7857 16.247L26.7958 16.2571L26.4392 16.5101L27.8904 17.5374C28.542 17.9987 29.0739 18.6114 29.4411 19.3235C29.8083 20.0357 30 20.8265 30 21.6291C30 22.4316 29.8083 23.2224 29.4411 23.9346C29.0739 24.6467 28.542 25.2594 27.8904 25.7206L23.2507 29L7.11234 17.5881L5.12893 18.9848C4.70937 19.2812 4.36685 19.6751 4.13037 20.1332C3.8939 20.5913 3.77043 21.1 3.77043 21.6164C3.77043 22.1328 3.8939 22.6415 4.13037 23.0996C4.36685 23.5577 4.70937 23.9516 5.12893 24.248L8.74425 26.7986L12.922 23.8482L14.4534 24.9413L8.72919 28.9747L4.10961 25.7055V25.7156C3.45796 25.2543 2.92607 24.6417 2.55888 23.9295C2.19169 23.2174 2 22.4266 2 21.624C2 20.8214 2.19169 20.0306 2.55888 19.3185C2.92607 18.6063 3.45796 17.9937 4.10961 17.5324L4.92306 16.9605L4.91804 16.9555L5.5708 16.5L4.11463 15.4727C3.46299 15.0114 2.93109 14.3988 2.5639 13.6866C2.19672 12.9744 2.00502 12.1837 2.00502 11.3811C2.00502 10.5785 2.19672 9.78771 2.5639 9.07554C2.93109 8.36338 3.46299 7.75077 4.11463 7.28947L8.75429 4ZM7.11234 15.4018L5.12893 14.0051C4.70937 13.7087 4.36685 13.3148 4.13037 12.8567C3.8939 12.3986 3.77043 11.8899 3.77043 11.3735C3.77043 10.8571 3.8939 10.3483 4.13037 9.89026C4.36685 9.43217 4.70937 9.03827 5.12893 8.7419L8.74425 6.1913L23.3361 16.5L17.5415 20.5789L19.078 21.667L19.5049 21.3684L19.5149 21.3887L24.8877 17.5931L26.866 18.9949C27.2856 19.2913 27.6281 19.6852 27.8646 20.1433C28.1011 20.6014 28.2245 21.1101 28.2245 21.6265C28.2245 22.1429 28.1011 22.6517 27.8646 23.1097C27.6281 23.5678 27.2856 23.9617 26.866 24.2581L23.2507 26.8036L8.66893 16.5L14.4735 12.416L12.937 11.3229L8.60868 14.3745L8.59863 14.3644L7.11234 15.4018Z" fill="url(#paint0_linear_22_796)"/>
<defs>
<linearGradient id="paint0_linear_22_796" x1="16" y1="1.42915" x2="16" y2="29.6478" gradientUnits="userSpaceOnUse">
<stop stop-color="#4ABFC8"/>
<stop offset="0.994" stop-color="#097C9F"/>
</linearGradient>
</defs>
</svg>
