<svg width="32" height="32" viewBox="0 0 32 32" fill="none" xmlns="http://www.w3.org/2000/svg">
<path d="M14.6384 27.3738C16.9144 27.3738 19.1392 26.699 21.0317 25.4346C22.9241 24.1703 24.3992 22.3732 25.2704 20.2706C26.1416 18.168 26.3698 15.8542 25.9262 13.6219C25.4825 11.3896 24.387 9.33901 22.778 7.72931C21.169 6.11961 19.1189 5.02312 16.8868 4.57848C14.6547 4.13385 12.3408 4.36102 10.2378 5.23129C8.13484 6.10156 6.3371 7.57584 5.07191 9.46774C3.80672 11.3596 3.1309 13.5842 3.12988 15.8601C3.12988 18.9124 4.34239 21.8396 6.50065 23.9979C8.65892 26.1562 11.5862 27.3738 14.6384 27.3738Z" fill="#2EB6EA"/>
<path d="M14.5766 27.3739C12.0597 27.3626 9.61582 26.5272 7.61865 24.9954C5.62148 23.4637 4.18097 21.32 3.5174 18.8921C2.85383 16.4643 3.00373 13.8859 3.94418 11.5513C4.88463 9.21668 6.56385 7.25435 8.72507 5.96439C7.522 18.5531 13.9162 18.8296 19.8548 18.5531C21.1037 18.394 22.3723 18.5037 23.5754 18.875C24.7784 19.2464 25.8882 19.8706 26.8302 20.706C27.7723 21.5414 28.5248 22.5685 29.0373 23.7185C29.5498 24.8686 29.8105 26.1149 29.8019 27.3739H14.5766Z" fill="#1542CD"/>
<path fill-rule="evenodd" clip-rule="evenodd" d="M25.4221 19.6535C24.5634 21.8525 23.0763 23.75 21.1462 25.1092C19.2161 26.4685 16.9286 27.2293 14.5688 27.2969L14.9221 27.302H29.8453C29.8172 25.7566 29.3964 24.2438 28.6227 22.9058C27.8489 21.5678 26.7475 20.4487 25.4221 19.6535Z" fill="#745DDF"/>
</svg>
