<svg width="32" height="32" viewBox="0 0 32 32" fill="none" xmlns="http://www.w3.org/2000/svg">
<path d="M13.9787 29.1237L17.5238 25.1378C17.536 25.1237 17.5437 25.1063 17.5461 25.0878C17.5485 25.0692 17.5454 25.0504 17.5373 25.0337C17.5291 25.0169 17.5163 25.0028 17.5003 24.9932C17.4843 24.9837 17.4658 24.979 17.4472 24.9797H13.5428C13.5123 24.9757 13.4838 24.9623 13.4613 24.9414L10.1557 21.2334C10.1318 21.1903 10.1126 21.152 10.1318 21.1136L15.6746 11.6041C15.6841 11.59 15.6891 11.5733 15.6891 11.5562C15.6891 11.5392 15.6841 11.5225 15.6746 11.5083L13.3847 7.55601C13.3761 7.54374 13.3651 7.53333 13.3524 7.52543C13.3397 7.51753 13.3256 7.5123 13.3108 7.51006C13.296 7.50782 13.2809 7.50862 13.2664 7.5124C13.2519 7.51618 13.2384 7.52287 13.2266 7.53206L13.2074 7.55601L5.01534 21.631C5.00528 21.6494 5 21.67 5 21.6909C5 21.7119 5.00528 21.7325 5.01534 21.7508L11.5929 29.1428C11.6021 29.1545 11.6137 29.1639 11.627 29.1706C11.6402 29.1772 11.6548 29.1808 11.6696 29.1812H13.9021L13.9787 29.1237Z" fill="#0D4395"/>
<path d="M16.413 2.05629L14.0991 6.00381C14.0902 6.0182 14.0854 6.0348 14.0854 6.05172C14.0854 6.06865 14.0902 6.08524 14.0991 6.09963L16.4944 10.21L22.8325 21.0897C22.8436 21.1088 22.8478 21.1311 22.8443 21.153C22.8408 21.1748 22.8298 21.1948 22.8133 21.2094L19.4599 24.9605L15.8956 28.9847C15.8834 28.9989 15.8757 29.0163 15.8733 29.0348C15.8709 29.0533 15.874 29.0721 15.8821 29.0889C15.8903 29.1057 15.9031 29.1197 15.9191 29.1293C15.9351 29.1389 15.9536 29.1436 15.9722 29.1428H21.3138C21.3449 29.1374 21.3734 29.1223 21.3953 29.0997L27.9729 21.7029C27.9921 21.6646 28.0112 21.6262 27.9921 21.5831L16.5711 2.06108C16.5519 1.97964 16.4513 1.97964 16.413 2.06108V2.05629Z" fill="#0D4395"/>
</svg>
