<svg width="32" height="32" viewBox="0 0 32 32" fill="none" xmlns="http://www.w3.org/2000/svg">
<path d="M18.8254 4.24105L16.1766 6.96048L16.7199 7.51927C16.7917 7.59478 16.8773 7.65495 16.9718 7.69632C17.0663 7.73768 17.1678 7.75942 17.2704 7.76029C17.3731 7.76115 17.4749 7.74113 17.5701 7.70136C17.6652 7.66159 17.7517 7.60287 17.8247 7.52858L17.8292 7.51927L20.478 4.79983L19.9347 4.24105C19.8629 4.16553 19.7773 4.10536 19.6828 4.064C19.5883 4.02263 19.4868 4.00089 19.3842 4.00003C19.2815 3.99916 19.1796 4.01919 19.0845 4.05895C18.9894 4.09872 18.9029 4.15744 18.8299 4.23173L18.8254 4.24105ZM12.088 4.24105L11.4541 4.79983L14.216 7.51927C14.3554 7.66736 14.5462 7.7525 14.7466 7.75599C14.9469 7.75948 15.1404 7.68104 15.2846 7.53789L15.3027 7.51927L15.8461 6.96048L13.1746 4.24105C13.0353 4.09296 12.8445 4.00782 12.6441 4.00432C12.4438 4.00083 12.2502 4.07927 12.1061 4.22242L12.088 4.24105ZM21.3247 7.81263L16.2988 12.9861L17.3131 14.0571C17.5912 14.3356 17.964 14.4914 18.3522 14.4914C18.7404 14.4914 19.1132 14.3356 19.3913 14.0571L24.4217 8.8557L23.4075 7.81263C23.1338 7.53452 22.7645 7.37856 22.3797 7.37856C21.9949 7.37856 21.6256 7.53452 21.3519 7.81263H21.3247ZM8.5925 7.81263L7.57827 8.8557L12.6087 14.0338C12.7394 14.1746 12.8958 14.2875 13.069 14.3661C13.2422 14.4446 13.4288 14.4873 13.618 14.4916C13.8073 14.4959 13.9955 14.4618 14.1719 14.3913C14.3483 14.3207 14.5095 14.2151 14.6462 14.0804L14.6869 14.0338L15.7012 12.9907L10.6753 7.81263C10.397 7.53276 10.0232 7.37606 9.63389 7.37606C9.24463 7.37606 8.87083 7.53276 8.5925 7.81263ZM15.4431 7.69156L14.9224 8.25035L16.0091 9.36792L17.0957 8.25035L16.5524 7.69156C16.413 7.54347 16.2222 7.45833 16.0219 7.45484C15.8215 7.45135 15.628 7.52979 15.4838 7.67293L15.4657 7.69156H15.4431ZM24.8972 12.865L16.5071 21.4703L18.1824 23.2165C18.3943 23.4499 18.6489 23.6381 18.9316 23.7702C19.2142 23.9024 19.5194 23.976 19.8297 23.9868C20.14 23.9976 20.4494 23.9454 20.7401 23.8332C21.0308 23.721 21.2971 23.551 21.5239 23.333L21.6371 23.2165L30 14.6159L28.3247 12.865C28.1125 12.632 27.8577 12.4442 27.5749 12.3124C27.292 12.1807 26.9868 12.1075 26.6765 12.0972C26.3661 12.0868 26.0569 12.1394 25.7664 12.252C25.4758 12.3645 25.2097 12.5349 24.9832 12.7532L24.8745 12.865H24.8972ZM3.63001 12.865L2 14.5879L10.3629 23.2165C10.5748 23.4499 10.8294 23.6381 11.112 23.7702C11.3947 23.9024 11.6999 23.976 12.0102 23.9868C12.3205 23.9976 12.6298 23.9454 12.9205 23.8332C13.2112 23.721 13.4776 23.551 13.7044 23.333L13.8131 23.2165L15.5155 21.4703L7.15265 12.865C6.94042 12.632 6.68562 12.4442 6.4028 12.3124C6.11999 12.1807 5.81471 12.1075 5.5044 12.0972C5.19409 12.0868 4.88483 12.1394 4.5943 12.252C4.30376 12.3645 4.03763 12.5349 3.81113 12.7532L3.70246 12.865H3.63001ZM14.9043 14.3737L13.8855 15.4168L15.9411 17.5309L18.0692 15.4168L17.0505 14.3737C16.7768 14.0913 16.4055 13.9317 16.0177 13.93C15.63 13.9282 15.2573 14.0844 14.9812 14.3644L14.9722 14.3737H14.9043ZM14.2885 23.7521L12.586 25.475L16.0136 29L19.414 25.475L17.7387 23.7521C17.5264 23.519 17.2716 23.3312 16.9888 23.1995C16.706 23.0677 16.4007 22.9946 16.0904 22.9842C15.7801 22.9738 15.4709 23.0264 15.1803 23.139C14.8898 23.2516 14.6237 23.4219 14.3972 23.6403L14.2885 23.7521Z" fill="url(#paint0_linear_22_820)"/>
<defs>
<linearGradient id="paint0_linear_22_820" x1="4.44751" y1="16.488" x2="27.6799" y2="16.488" gradientUnits="userSpaceOnUse">
<stop stop-color="#7398F0"/>
<stop offset="1" stop-color="#B44AF0"/>
</linearGradient>
</defs>
</svg>
