<svg width="32" height="32" viewBox="0 0 32 32" fill="none" xmlns="http://www.w3.org/2000/svg">
<path d="M26.6414 24.1341C25.4417 26.082 23.7239 27.6578 21.68 28.6855C19.6361 29.7131 17.3466 30.1521 15.0676 29.9533C12.7885 29.7546 10.6097 28.9259 8.77454 27.5599C6.93942 26.1939 5.52035 24.3444 4.67598 22.2183C4.6077 22.0496 4.54745 21.8769 4.48721 21.7042C4.02221 20.2155 3.88788 18.6433 4.0936 17.0974H21.4041L21.3679 17.1336C20.62 17.8762 20.1659 18.8643 20.0896 19.9156C20.0133 20.9668 20.3199 22.0102 20.9528 22.853C21.5857 23.6959 22.5021 24.2813 23.5329 24.5013C24.5637 24.7212 25.6393 24.5608 26.5611 24.0497C26.5727 24.0433 26.5862 24.041 26.5993 24.043C26.6124 24.045 26.6245 24.0514 26.6337 24.061C26.6429 24.0706 26.6486 24.083 26.65 24.0962C26.6514 24.1094 26.6484 24.1227 26.6414 24.1341Z" fill="url(#paint0_linear_22_823)"/>
<path d="M28.4693 15.4306C28.4532 15.4788 28.3327 15.4668 28.1801 15.4627C27.9873 15.4507 27.7905 15.4748 27.6018 15.4627C27.3528 15.4507 27.0676 15.4627 26.4812 15.4788C26.1679 15.4908 25.8346 15.5029 25.437 15.5431C24.9792 15.5839 24.5253 15.6604 24.0794 15.772C23.5167 15.9292 22.9766 16.1587 22.4729 16.4548C22.0902 16.6565 21.7212 16.8832 21.3684 17.1335C21.0638 17.358 20.7778 17.6064 20.5129 17.8766C19.811 18.6313 19.2505 19.506 18.8582 20.4591C18.6672 20.9626 18.4417 21.4524 18.1834 21.925C17.9666 22.3214 17.7209 22.7013 17.4484 23.0617C16.9932 23.6618 16.4581 24.1969 15.858 24.6521C15.0651 25.234 14.17 25.6618 13.2192 25.9133C12.1011 26.2797 10.9132 26.3814 9.74909 26.2105C8.40795 25.9441 7.16341 25.3211 6.14642 24.4071C5.5104 23.787 5.00987 23.0416 4.67644 22.2182C4.60415 22.0495 4.5439 21.8768 4.48365 21.7041C4.02194 20.2162 3.89036 18.6454 4.09808 17.1014C4.29552 15.356 4.86381 13.6731 5.76487 12.1653C6.58538 10.8854 7.63034 9.76425 8.84943 8.85584C10.5042 7.68176 12.2918 6.70708 14.1751 5.95202C14.2233 5.92792 14.6129 5.7753 15.123 5.5303C15.6816 5.29989 16.2092 5.00035 16.6934 4.63867C17.1361 4.28389 17.4999 3.84069 17.7617 3.33737L17.8501 3.15262C17.9103 3.03213 17.9224 3 17.9465 3C18.0027 3 18.0589 3.18475 18.083 3.26106C18.1069 3.33713 18.1243 3.41505 18.1352 3.49401C18.1663 3.79283 18.1784 4.09332 18.1714 4.39367C18.1593 4.59047 18.1392 4.73908 18.1312 4.83547C18.1192 4.97604 18.0991 5.08449 18.075 5.22506C18.0408 5.397 17.9938 5.56616 17.9344 5.73112C17.8657 5.90519 17.7824 6.07314 17.6854 6.23316C17.5553 6.46756 17.4076 6.69178 17.2436 6.90389C16.7667 7.43279 16.2113 7.88523 15.5969 8.24535C14.8991 8.62916 14.2447 9.08698 13.6449 9.61091C13.2683 9.9819 12.9609 10.4171 12.7373 10.8961C12.338 11.6764 12.2284 12.573 12.428 13.4264C12.6661 14.245 13.1888 14.9515 13.902 15.4186C14.8511 16.0445 16.0008 16.2911 17.1231 16.1094C17.7965 15.9564 18.4371 15.6844 19.0148 15.3061C19.5355 14.9153 20.0861 14.5662 20.6615 14.2618C21.0231 14.0934 21.3996 13.9589 21.7861 13.8602C22.6835 13.6195 23.6185 13.5514 24.5413 13.6594C25.0004 13.72 25.4542 13.8153 25.8988 13.9446C26.7792 14.2269 27.6011 14.6665 28.3247 15.2418C28.393 15.294 28.4974 15.3864 28.4733 15.4346L28.4693 15.4306Z" fill="url(#paint1_linear_22_823)"/>
<defs>
<linearGradient id="paint0_linear_22_823" x1="13.8614" y1="21.166" x2="21.392" y2="29.0983" gradientUnits="userSpaceOnUse">
<stop offset="0.107" stop-color="#FCB927"/>
<stop offset="0.949" stop-color="#F71A12"/>
</linearGradient>
<linearGradient id="paint1_linear_22_823" x1="8.21083" y1="9.84788" x2="17.8621" y2="19.5353" gradientUnits="userSpaceOnUse">
<stop offset="0.017" stop-color="#FBD32F"/>
<stop offset="1" stop-color="#F71A12"/>
</linearGradient>
</defs>
</svg>
