<svg width="32" height="32" viewBox="0 0 32 32" fill="none" xmlns="http://www.w3.org/2000/svg">
<path fill-rule="evenodd" clip-rule="evenodd" d="M8.5275 26.0402C6.41795 24.4684 4.85731 22.2719 4.06728 19.7626C3.27726 17.2533 3.29802 14.5589 4.12661 12.0621C4.95521 9.56529 6.54951 7.39307 8.68303 5.85401C10.8165 4.31495 13.3808 3.48732 16.0115 3.48868C18.8652 3.38601 21.6821 4.15817 24.0845 5.70166C26.4869 7.24515 28.3601 9.4862 29.4529 12.1244C28.4721 8.71994 26.237 5.81399 23.1983 3.99236C20.1596 2.17074 16.5433 1.56893 13.0784 2.30828C9.61355 3.04763 6.55784 5.07314 4.52737 7.97644C2.4969 10.8797 1.64269 14.4449 2.13695 17.9531C2.63122 21.4614 4.43719 24.6517 7.19078 26.881C9.94437 29.1103 13.4408 30.2127 16.975 29.966C20.5093 29.7192 23.8186 28.1417 26.2357 25.5514C28.6528 22.9612 29.998 19.5508 30 16.0079V15.2695H29.1353C29.0435 15.2695 28.9134 15.2695 28.745 15.258C28.3108 15.244 27.877 15.2185 27.4441 15.1815C26.4016 15.1183 25.3722 14.9163 24.3832 14.5808C23.2839 14.1196 22.2962 13.4281 21.4868 12.5529L21.4408 12.507C20.4497 11.4718 19.2807 10.623 17.9896 10.0008C16.4877 9.37597 14.8254 9.24728 13.2452 9.63352C12.6824 9.7488 12.1287 9.90481 11.5884 10.1003C11.3857 10.173 11.2211 10.2419 11.1063 10.2878C10.4406 10.5671 9.79779 10.9 9.14734 11.2061C9.14734 11.2061 10.4253 11.5504 11.0604 11.7532L11.1637 11.7877C11.2594 11.8144 11.3971 11.8642 11.5617 11.9331C11.9818 12.1018 12.3853 12.3093 12.7669 12.5529C13.4326 12.9284 13.9538 13.5155 14.2476 14.2211C12.8915 14.4431 11.5917 14.9279 10.4215 15.6483C9.90593 15.9518 9.40775 16.284 8.92925 16.6431C8.78748 16.7509 8.64717 16.8605 8.50837 16.9721L7.11947 18.1965C7.11947 18.1965 8.80298 18.3725 9.63709 18.5409C10.3438 18.6808 11.0404 18.8674 11.7224 19.0995C12.5115 19.3628 13.2618 19.7308 13.953 20.1938C14.5601 20.5773 15.0396 21.1327 15.3304 21.7893C15.65 22.5755 15.6898 23.4477 15.4433 24.2598C15.1967 25.0719 14.6787 25.7747 13.976 26.2506C13.1614 26.7943 12.1956 27.0664 11.217 27.028C10.2383 26.9895 9.2969 26.6424 8.5275 26.0363V26.0402ZM13.3026 28.2287C13.847 28.0517 14.3616 27.7938 14.8292 27.4635C15.7987 26.7964 16.5122 25.8192 16.8523 24.6926C17.1923 23.566 17.1387 22.3571 16.7002 21.2651C16.3036 20.3358 15.6406 19.545 14.7948 18.9923C13.9924 18.4534 13.1211 18.0249 12.2045 17.7182C11.6846 17.5371 11.1559 17.3826 10.6204 17.2553C10.7926 17.1443 10.9724 17.0295 11.1637 16.9186C12.3442 16.1636 13.6983 15.7237 15.097 15.6406C16.8643 15.6815 18.5981 16.1307 20.1629 16.953L20.5646 17.1366C21.8812 17.8748 23.3473 18.3064 24.8538 18.3993C26.1086 18.4158 27.3463 18.1073 28.4466 17.504C28.0799 20.5422 26.6131 23.3409 24.3234 25.3713C22.0336 27.4016 19.0794 28.5229 16.0192 28.5233C15.1082 28.5225 14.2 28.4238 13.3102 28.2287H13.3026ZM26.8472 16.6048C26.2035 16.8203 25.5288 16.9288 24.85 16.9262C23.5457 16.8276 22.2801 16.438 21.1462 15.786L20.7789 15.6138C19.2146 14.8121 17.5073 14.3271 15.7551 14.1867C15.5977 13.5861 15.322 13.0229 14.9443 12.5302C14.5665 12.0374 14.0942 11.625 13.5551 11.317C13.4556 11.2507 13.3574 11.1895 13.2605 11.1334L13.5321 11.0722C14.8019 10.7511 16.1409 10.8436 17.3545 11.3362C18.5067 11.8969 19.5487 12.6602 20.4307 13.5898L20.4613 13.6166C21.4098 14.6229 22.5597 15.4182 23.836 15.9505C24.8092 16.2957 25.8224 16.5155 26.8511 16.6048H26.8472Z" fill="url(#paint0_linear_22_840)"/>
<defs>
<linearGradient id="paint0_linear_22_840" x1="1.77047" y1="16.2719" x2="30.2525" y2="15.7477" gradientUnits="userSpaceOnUse">
<stop stop-color="#29CCB9"/>
<stop offset="0.49" stop-color="#0091FF"/>
<stop offset="1" stop-color="#FF66B7"/>
</linearGradient>
</defs>
</svg>
