<svg width="32" height="32" viewBox="0 0 32 32" fill="none" xmlns="http://www.w3.org/2000/svg">
<path fill-rule="evenodd" clip-rule="evenodd" d="M30 11.2466V18.7491H6.53188C6.9994 20.8059 8.09266 22.6674 9.66132 24.0775C11.23 25.4876 13.197 26.3771 15.2918 26.6237C17.3866 26.8702 19.5064 26.4617 21.3596 25.4544C23.2128 24.447 24.7084 22.8902 25.6407 20.9981H30V27.3011C30 28.0169 29.7157 28.7034 29.2095 29.2095C28.7034 29.7157 28.0169 30 27.3011 30H5.69889C4.9831 30 4.29663 29.7157 3.79049 29.2095C3.28435 28.7034 3 28.0169 3 27.3011V11.2522L30 11.2466ZM23.0529 21.0037C22.323 22.0723 21.3434 22.9466 20.199 23.5508C19.0547 24.155 17.7802 24.4708 16.4861 24.4708C15.1921 24.4708 13.9175 24.155 12.7732 23.5508C11.6288 22.9466 10.6492 22.0723 9.91937 21.0037H23.0529ZM10.7246 13.0514C9.71466 13.0516 8.73852 13.4153 7.97475 14.0761C7.21098 14.7369 6.71062 15.6505 6.5652 16.6499H8.86981C8.99653 16.2577 9.24432 15.9158 9.57758 15.6732C9.91084 15.4307 10.3124 15.3 10.7246 15.3C11.1368 15.3 11.5384 15.4307 11.8716 15.6732C12.2049 15.9158 12.4527 16.2577 12.5794 16.6499H14.884C14.7386 15.6505 14.2382 14.7369 13.4744 14.0761C12.7107 13.4153 11.7345 13.0516 10.7246 13.0514ZM22.2754 13.0514C21.2655 13.0516 20.2893 13.4153 19.5256 14.0761C18.7618 14.7369 18.2614 15.6505 18.116 16.6499H20.4206C20.5473 16.2577 20.7951 15.9158 21.1284 15.6732C21.4616 15.4307 21.8632 15.3 22.2754 15.3C22.6876 15.3 23.0892 15.4307 23.4224 15.6732C23.7557 15.9158 24.0035 16.2577 24.1302 16.6499H26.4348C26.2894 15.6505 25.789 14.7369 25.0252 14.0761C24.2615 13.4153 23.2853 13.0516 22.2754 13.0514ZM27.3011 3C28.0169 3 28.7034 3.28435 29.2095 3.79049C29.7157 4.29663 30 4.9831 30 5.69889V8.99753H3.00555V5.69889C3.00555 4.9831 3.2899 4.29663 3.79604 3.79049C4.30218 3.28435 4.98865 3 5.70444 3H27.3011Z" fill="#1C68F3"/>
</svg>
