<svg width="32" height="32" viewBox="0 0 32 32" fill="none" xmlns="http://www.w3.org/2000/svg">
<path d="M23.3744 11.3318C23.1163 11.1823 22.8245 11.1038 22.5276 11.1038C22.2307 11.1038 21.9389 11.1823 21.6807 11.3318L17.7952 13.6659L15.155 15.1881L11.2694 17.5222C11.0113 17.6717 10.7195 17.7503 10.4226 17.7503C10.1257 17.7503 9.83386 17.6717 9.57574 17.5222L6.48722 15.6956C6.2346 15.5442 6.02417 15.3295 5.87595 15.072C5.72773 14.8144 5.64663 14.5225 5.64037 14.2241V10.6214C5.63589 10.3207 5.71247 10.0245 5.86179 9.76506C6.01111 9.50561 6.22743 9.29285 6.48722 9.14994L9.52593 7.37399C9.78405 7.22453 10.0759 7.14595 10.3728 7.14595C10.6697 7.14595 10.9615 7.22453 11.2196 7.37399L14.2583 9.14994C14.511 9.3013 14.7214 9.51596 14.8696 9.77352C15.0178 10.0311 15.0989 10.323 15.1052 10.6214V12.9555L17.7454 11.3825V9.04845C17.7499 8.74774 17.6733 8.45154 17.524 8.19209C17.3746 7.93263 17.1583 7.71987 16.8985 7.57696L11.2694 4.22804C11.0113 4.07858 10.7195 4 10.4226 4C10.1257 4 9.83386 4.07858 9.57574 4.22804L3.84704 7.57696C3.58725 7.71987 3.37092 7.93263 3.22161 8.19209C3.07229 8.45154 2.9957 8.74774 3.00019 9.04845V15.797C2.9957 16.0977 3.07229 16.3939 3.22161 16.6534C3.37092 16.9129 3.58725 17.1256 3.84704 17.2685L9.57574 20.6174C9.83386 20.7669 10.1257 20.8455 10.4226 20.8455C10.7195 20.8455 11.0113 20.7669 11.2694 20.6174L15.155 18.3341L17.7952 16.7611L21.6807 14.4778C21.9389 14.3283 22.2307 14.2497 22.5276 14.2497C22.8245 14.2497 23.1163 14.3283 23.3744 14.4778L26.4131 16.2537C26.6658 16.4051 26.8762 16.6197 27.0244 16.8773C27.1726 17.1348 27.2537 17.4267 27.26 17.7252V21.3278C27.2645 21.6285 27.1879 21.9247 27.0386 22.1842C26.8893 22.4436 26.6729 22.6564 26.4131 22.7993L23.3744 24.626C23.1163 24.7755 22.8245 24.854 22.5276 24.854C22.2307 24.854 21.9389 24.7755 21.6807 24.626L18.642 22.8501C18.3887 22.6982 18.1778 22.4828 18.0296 22.2243C17.8813 21.9658 17.8006 21.6728 17.7952 21.3735V19.0445L15.155 20.6174V22.9515C15.1505 23.2523 15.2271 23.5485 15.3764 23.8079C15.5257 24.0674 15.7421 24.2801 16.0019 24.423L21.7306 27.772C21.9887 27.9214 22.2805 28 22.5774 28C22.8743 28 23.1661 27.9214 23.4243 27.772L29.153 24.423C29.4056 24.2717 29.616 24.057 29.7642 23.7995C29.9125 23.5419 29.9936 23.25 29.9998 22.9515V16.203C30.0043 15.9023 29.9277 15.606 29.7784 15.3466C29.6291 15.0871 29.4128 14.8744 29.153 14.7315L23.3744 11.3318Z" fill="#222222"/>
</svg>
