<svg width="32" height="32" viewBox="0 0 32 32" fill="none" xmlns="http://www.w3.org/2000/svg">
<path fill-rule="evenodd" clip-rule="evenodd" d="M3 16.0027V27L3.15213 26.9681C3.23906 26.9522 6.62934 26.3359 10.6988 25.6081C14.7682 24.8802 18.0987 24.2799 18.1096 24.2693C18.1204 24.2586 16.6589 23.993 14.8769 23.6689L11.6333 23.0845L8.53637 23.6424L5.43948 24.2002V7.79981L8.53637 8.36296L11.6333 8.92079L14.8769 8.33639C16.6644 8.01763 18.115 7.74668 18.1096 7.73605C18.1041 7.72543 14.7682 7.12509 10.7042 6.39725L3.15213 5.03719L3.00543 5L3 16.0027ZM21.8421 8.68172C17.3652 9.48925 13.2578 10.2224 12.709 10.3287L11.7148 10.504V21.5013L12.709 21.6766L21.8367 23.3236L29.9756 24.7846L29.9918 20.375C30.0027 17.9471 30.0027 13.9944 29.9918 11.5878L29.9756 7.22072L21.8421 8.68172Z" fill="#5B449B"/>
</svg>
