<svg width="32" height="32" viewBox="0 0 32 32" fill="none" xmlns="http://www.w3.org/2000/svg">
<path d="M15.7042 23.7331C14.0512 22.6847 12.2415 21.9104 10.6363 20.7881C10.3275 20.3835 9.80113 20.2878 9.44442 19.9485C9.22493 19.8744 9.03745 19.7274 8.91318 19.5319C8.78892 19.3364 8.73537 19.1042 8.76146 18.874C8.75276 17.0339 8.73535 15.1938 8.77451 13.3494C8.78756 12.9144 8.76581 12.3663 9.48792 12.462L9.96643 12.6925C10.6152 12.6769 11.246 12.9069 11.7326 13.3364C12.7766 14.1455 13.9685 14.7197 15.0821 15.4244C15.6222 15.6991 16.08 16.1118 16.4089 16.6207C16.5655 17.0216 16.6222 17.4545 16.5742 17.8822C16.5786 19.5396 16.609 21.2013 16.5568 22.8587C16.5438 23.359 16.5438 23.9854 15.7042 23.7331Z" fill="#195CF5"/>
<path d="M9.49046 12.4575C9.1207 12.5576 9.1294 12.849 9.1294 13.1448C9.1294 15.1285 9.14245 17.1121 9.1294 19.0914C9.12568 19.4065 9.23881 19.7118 9.44695 19.9484C9.26511 19.9104 9.0771 19.9133 8.89653 19.957C8.71597 20.0006 8.54736 20.0839 8.40293 20.2007C6.5411 21.3361 4.65751 22.4453 2.80437 23.5981C2.13011 24.0201 1.99526 23.833 2.00396 23.1239C2.03296 21.1432 2.03296 19.161 2.00396 17.1774C1.98489 16.9522 2.03508 16.7265 2.1478 16.5306C2.26053 16.3347 2.43042 16.1779 2.63472 16.0812C4.66186 14.8849 6.6803 13.6625 8.69439 12.4445C8.97279 12.2705 9.2338 12.0617 9.49046 12.4575Z" fill="#B3C6FE"/>
<path d="M16.0434 16.4598C17.1416 15.9628 18.194 15.3704 19.1885 14.6893C20.1151 14.1673 20.9938 13.567 21.8899 13.0014C22.2597 12.797 22.6294 12.6012 22.9948 12.3881C23.2994 12.2054 23.5691 12.1575 23.7953 12.4968C23.6281 14.7215 23.5962 16.9543 23.6996 19.1829C23.6996 19.4352 23.817 19.6919 23.6387 19.9268C22.6294 19.9224 21.9856 20.6489 21.2244 21.1318C19.667 21.9017 18.2315 22.8848 16.7394 23.7636C16.3697 23.9811 16.0391 24.1768 15.7041 23.7331C15.9956 23.7244 16.1957 23.6244 16.1913 23.2807C16.1783 21.1187 16.1739 18.9524 16.1565 16.786C16.1361 16.6734 16.0979 16.5604 16.0434 16.4598Z" fill="#B3C6FD"/>
<path d="M23.639 19.9266C23.4244 19.6245 23.3117 19.2618 23.3171 18.8913C23.3345 17.0034 23.3258 15.1154 23.3258 13.2231C23.3258 12.8838 23.2649 12.4967 23.7956 12.4967C25.8401 13.7234 27.8847 14.9588 29.9466 16.1725C30.1121 16.255 30.2487 16.3855 30.3388 16.5469C30.4288 16.7084 30.468 16.8932 30.4512 17.0773C30.4338 19.148 30.4382 21.2229 30.4425 23.2979C30.4425 23.7765 30.399 24.0418 29.8335 23.6981C27.7803 22.4279 25.7053 21.1838 23.639 19.9266Z" fill="#195CF5"/>
<path d="M16.2708 14.437C16.0539 14.3515 15.8419 14.2542 15.6357 14.1455C14.2002 13.2886 12.782 12.4142 11.3465 11.5659C10.8854 11.2962 10.8158 11.1179 11.3291 10.8177C12.8168 9.94768 14.2872 9.04287 15.7575 8.1424C15.8986 8.04537 16.0669 7.99561 16.2381 8.0003C16.4093 8.00499 16.5746 8.06388 16.7102 8.1685C18.1312 9.04432 19.5609 9.90273 20.9994 10.7437C21.5388 11.057 21.6954 11.2484 21.0255 11.6268C19.6247 12.4185 18.2632 13.2799 16.8842 14.1107C16.6884 14.2282 16.4796 14.3282 16.2708 14.437Z" fill="#F7B40B"/>
</svg>
