<svg width="32" height="32" viewBox="0 0 32 32" fill="none" xmlns="http://www.w3.org/2000/svg">
<path d="M6.70508 5.34882H24.2928V27.6025H6.70508V5.34882Z" fill="#E39400"/>
<path d="M16.6845 10.037V12.9548H14.309V10.037H9.04248V22.9364H11.9738V17.6476H14.309V19.9827H16.6845V17.6476H19.0196V22.9364H21.9509V10.037H16.6845Z" fill="#A1472A"/>
<path d="M9.80322 8.8992H11.366V10.456H9.80322V8.8992Z" fill="#FFE84F"/>
<path d="M19.9673 8.8992H21.53V10.456H19.9673V8.8992Z" fill="#A1472A"/>
<path d="M9.80322 22.181H11.366V23.7378H9.80322V22.181Z" fill="#FFE84F"/>
<path d="M19.9673 22.181H21.53V23.7378H19.9673V22.181Z" fill="#A1472A"/>
<path d="M4.35107 7.68402H6.70418V25.2718H4.35107V7.68402Z" fill="#FFE84F"/>
<path d="M2 7.68402H4.3531V25.2718H2V7.68402ZM24.294 7.68402H26.6471V25.2718H24.294V7.68402Z" fill="#A1472A"/>
<path d="M26.647 7.68402H29.0001V25.2718H26.647V7.68402Z" fill="#FFE84F"/>
<path d="M8.23389 8.8992H9.79665V10.459H8.23389V8.8992Z" fill="#A1472A"/>
<path d="M21.5342 8.8992H23.0969V10.459H21.5342V8.8992Z" fill="#FFE84F"/>
<path d="M21.5342 7.33643H23.0969V8.8962H21.5342V7.33643Z" fill="#451834"/>
<path d="M6.70418 3.00461H9.04832V5.34427H6.70418V3.00461ZM4.35107 25.2672H6.69521V27.6069H4.35107V25.2672ZM6.70418 27.6113H9.04832V29.951H6.70418V27.6113Z" fill="#A1472A"/>
<path d="M21.5342 22.1781H23.0969V23.7379H21.5342V22.1781Z" fill="#FFE84F"/>
<path d="M21.5342 23.7409H23.0969V25.3007H21.5342V23.7409Z" fill="#451834"/>
<path d="M9.04306 3H24.3001V5.34862H9.04306V3ZM9.03857 27.6067H24.2956V29.9554H9.03857V27.6067Z" fill="#FFE84F"/>
</svg>
