<svg width="32" height="32" viewBox="0 0 32 32" fill="none" xmlns="http://www.w3.org/2000/svg">
<path fill-rule="evenodd" clip-rule="evenodd" d="M13.9007 2.12917C10.9615 2.56982 8.25006 3.97072 6.18815 6.11397C4.75051 7.53127 3.63494 9.24229 2.91747 11.1304C2.2 13.0185 1.89749 15.0393 2.03057 17.0551C2.09755 18.494 2.36807 19.9162 2.83404 21.279C3.55464 23.1757 4.66212 24.9012 6.08582 26.3454C7.07035 27.3758 8.20504 28.251 9.4513 28.9412C9.93641 29.1461 10.0766 29.0436 10.7626 27.9924C11.3627 26.9892 11.8242 25.9092 12.1346 24.7818C12.1346 24.668 11.9451 24.5389 11.7101 24.4858C11.3767 24.3862 11.0609 24.2351 10.774 24.038C10.5736 23.8819 10.348 23.7612 10.107 23.6812C9.88052 23.6162 9.66658 23.5136 9.47404 23.3776C9.0081 23.0033 8.65948 22.5027 8.4697 21.9355C8.30838 21.4758 8.04237 21.06 7.69276 20.7211C7.33271 20.6262 6.97267 20 6.88171 19.3056C6.87741 19.1059 6.81723 18.9115 6.70802 18.7445C6.5988 18.5774 6.44494 18.4444 6.26395 18.3606C5.97841 18.2086 5.73192 17.9925 5.54385 17.7291C5.35578 17.4657 5.23125 17.1623 5.18002 16.8426C5.15543 16.619 5.07024 16.4064 4.93367 16.2278C4.82376 16.1557 4.83892 15.9621 4.98294 15.5712C5.10888 15.1532 5.16522 14.7173 5.1497 14.2809C5.10211 13.9031 5.14461 13.5193 5.27373 13.1611C5.40285 12.8029 5.61492 12.4805 5.89253 12.2202C6.09646 12.0231 6.25659 11.7852 6.36249 11.5219C6.35112 11.4422 6.48755 11.3094 6.66568 11.2297C6.84381 11.15 6.98783 11.0096 6.98783 10.9147C6.98783 10.8198 7.16217 10.6073 7.37819 10.4403C7.59422 10.2733 7.85573 10.0722 7.95427 9.98492C8.19834 9.82943 8.46054 9.70453 8.735 9.613C9.2006 9.4017 9.62133 9.1028 9.97431 8.73255C10.9291 7.77079 12.018 6.95267 13.2071 6.30372C14.3146 5.84689 15.5347 5.73835 16.7053 5.99252C17.4216 6.10638 18.7102 6.30751 19.5705 6.42896C21.5943 6.71738 22.3523 7.09688 22.9663 8.13673C23.1961 8.52184 23.3987 8.92256 23.5727 9.33596C23.8082 9.8632 24.074 10.3764 24.3686 10.873C24.9371 11.8748 24.9863 12.0191 24.8613 12.4745C24.5202 13.6851 24.793 14.205 26.5592 15.6699C27.2565 16.2505 27.2489 16.4441 26.5023 16.9602C26.0437 17.2828 26.0096 17.3511 26.0968 17.871C26.1641 18.1306 26.1345 18.4059 26.0134 18.6452C25.8845 18.8084 25.8845 18.9185 26.021 19.1424C26.1688 19.3815 26.1536 19.4991 25.9452 19.8255C25.8615 19.9464 25.8032 20.0831 25.7739 20.2273C25.7445 20.3715 25.7448 20.5201 25.7746 20.6642C25.837 20.9568 25.8116 21.2613 25.7017 21.5394C25.5918 21.8176 25.4022 22.0571 25.1569 22.2277C24.506 22.384 23.8401 22.4692 23.1709 22.482C21.2911 22.5731 21.2684 22.5959 20.9121 24.148C20.8453 24.5142 20.728 24.8693 20.5634 25.2031C20.4791 25.3032 20.431 25.4289 20.427 25.5598C20.3708 25.8534 20.2752 26.1381 20.1428 26.4061L19.5629 27.6736C19.0967 28.6983 18.9944 29.1955 19.1687 29.5825C19.2363 29.7527 19.3539 29.8983 19.506 30C21.1964 29.7224 22.7902 29.0242 24.1412 27.9697C27.171 25.7474 29.2212 22.4345 29.8602 18.7287C30.0466 17.1073 30.0466 15.4697 29.8602 13.8483C29.3739 10.9056 27.9754 8.19076 25.8627 6.08818C23.75 3.98559 21.0302 2.60186 18.0886 2.13296C16.6983 1.95696 15.2914 1.95568 13.9007 2.12917ZM18.3274 11.6471C17.6919 12.5444 17.2386 13.5579 16.9933 14.6301C16.9895 14.9147 15.7729 16.3644 15.6479 16.2354C15.5986 16.186 15.6213 15.9811 15.6971 15.7762C15.9301 14.9501 16.0085 14.0881 15.9283 13.2335L15.826 12.8274L15.4963 13.2183C15.0253 14.2331 14.8556 15.362 15.0074 16.4707C15.0794 16.9758 14.9721 17.4902 14.7042 17.9242C13.9955 19.1272 13.8514 19.0892 13.8476 17.7192C13.8476 16.6946 13.6316 15.6699 13.4194 15.6699C13.3436 15.6699 13.2147 15.8065 13.1238 15.9773C12.9987 16.2164 13.0176 16.6984 13.2071 18.0532C13.3398 19.0247 13.48 19.8634 13.5103 19.9204C13.4725 20.2374 13.3802 20.5456 13.2375 20.8312C12.9797 21.4573 12.866 21.6016 12.7334 21.4649C12.632 21.3537 12.5695 21.2125 12.5553 21.0627C12.3277 20.3039 11.9208 19.6114 11.369 19.0437C10.7778 18.926 11.3311 20.5503 12.3089 21.8217C12.6955 22.3226 12.7145 22.4061 12.5629 22.8767C12.4787 23.098 12.4425 23.3348 12.4567 23.5712C12.4908 23.6699 12.5591 23.5143 12.6121 23.2258C12.7107 22.7059 12.7258 22.6945 13.5293 22.6148C14.39 22.617 15.2252 22.3221 15.8942 21.7799C16.2505 21.4498 16.3111 21.3245 16.1595 21.2258C15.4778 21.1448 14.7889 21.3001 14.2077 21.6661C13.8931 21.8293 13.4876 22.0228 13.3057 22.0949C13.0063 22.2088 12.9835 22.1898 13.0631 21.8976C13.1162 21.7154 13.2981 21.2296 13.4687 20.8198L13.7794 20.0722L15.068 20.0076C15.7004 20.0472 16.3314 19.9106 16.891 19.613C17.1866 19.4308 17.4292 19.2334 17.4292 19.1689C17.4292 19.0019 16.2164 19.1575 15.0908 19.4687L14.1092 19.7306L14.2039 19.3359C14.3367 18.9541 14.5148 18.5897 14.7345 18.2505C15.1514 17.5864 15.1969 17.556 15.8336 17.556C16.8727 17.4785 17.882 17.1727 18.7897 16.6604L19.3582 16.3189L18.5282 16.2771C17.978 16.2425 17.4268 16.3293 16.9137 16.5314C15.5948 17.0361 15.5418 16.9109 16.5802 15.7534C17.2889 14.964 17.323 14.945 18.0469 14.964C19.2445 14.9944 21.1471 14.4213 21.1471 14.0304C21.1471 13.8445 19.9912 13.9014 19.1498 14.1291C17.9332 14.4631 17.9749 14.205 19.2521 13.4764C20.3553 12.9036 21.3775 12.1864 22.2917 11.3435C22.2917 11.1007 21.3934 11.3663 20.5748 11.8559C20.0126 12.1764 19.492 12.5652 19.0247 13.0134C18.5586 13.427 18.1455 13.6699 18.1455 13.5333C18.2404 13.2764 18.3611 13.0297 18.5055 12.797C18.7371 12.3749 18.9275 11.9313 19.074 11.4726L19.1233 11.3056C19.2521 10.8768 19.29 10.7553 19.2521 10.7212C19.237 10.7098 19.2104 10.7098 19.1725 10.7098H19.1346C18.8151 10.9733 18.5422 11.2927 18.3274 11.6471Z" fill="#01CEFF"/>
</svg>
