<svg width="32" height="32" viewBox="0 0 32 32" fill="none" xmlns="http://www.w3.org/2000/svg">
<path d="M27.2342 7.13822V6.46752C27.2724 6.15891 27.2445 5.8457 27.1524 5.54869C27.0603 5.25169 26.906 4.97769 26.6998 4.74489C26.4937 4.5121 26.2403 4.32584 25.9566 4.1985C25.6729 4.07115 25.3654 4.00563 25.0544 4.00629C24.4553 4.01033 23.8808 4.24442 23.4494 4.66015C23.0181 5.07588 22.763 5.64146 22.7369 6.23996L22.6471 6.90467C21.6391 7.30656 20.7688 7.99122 20.1409 8.87622C19.513 9.76123 19.1543 10.8089 19.1079 11.893L17.5869 24.2889C16.8662 24.4199 16.1278 24.4199 15.4071 24.2889L13.8861 11.893C13.8686 10.8207 13.5355 9.7774 12.9285 8.89339C12.3214 8.00938 11.4672 7.3239 10.4727 6.92263L10.3769 6.15013C10.3113 5.55262 10.0252 5.00108 9.57437 4.60346C9.12358 4.20584 8.54063 3.99075 7.93962 4.0003C7.62858 4.00039 7.32113 4.06667 7.03769 4.19475C6.75425 4.32282 6.50132 4.50976 6.2957 4.74313C6.09008 4.97651 5.93649 5.25097 5.84513 5.54828C5.75378 5.8456 5.72674 6.15895 5.76584 6.46752V7.13822C4.88771 7.55452 4.15528 8.22561 3.66395 9.06407C3.17262 9.90254 2.94516 10.8695 3.01118 11.8391V28.367H7.21502V8.21013C7.85446 8.04771 8.51876 8.00708 9.17322 8.09037L10.844 20.9175C10.8709 21.9156 11.1978 22.8824 11.782 23.692C12.3663 24.5017 13.1809 25.1166 14.1196 25.4567L14.3232 26.6364C14.319 26.9204 14.3738 27.2023 14.4841 27.4641C14.5944 27.7259 14.7578 27.962 14.964 28.1574L15.1496 28.2892C15.56 28.5259 16.0234 28.6556 16.497 28.6664C16.9673 28.6586 17.4275 28.5286 17.8324 28.2892L18.024 28.1574C18.2234 27.9811 18.3831 27.7645 18.4925 27.5219C18.6019 27.2793 18.6586 27.0163 18.6588 26.7502L18.8744 25.4567C19.8304 25.1256 20.6659 24.5167 21.274 23.7081C21.8821 22.8995 22.235 21.9278 22.2878 20.9175L23.9585 8.13827C24.5678 8.08032 25.1821 8.10449 25.785 8.21013V28.373H29.9888V11.8391C30.0548 10.8695 29.8274 9.90254 29.336 9.06407C28.8447 8.22561 28.1123 7.55452 27.2342 7.13822ZM24.1561 6.67112L24.1741 6.55135H24.1561L24.1741 6.43159C24.3178 5.45548 24.8688 5.45548 25.0544 5.45548C25.276 5.45548 25.785 5.45548 25.785 6.47351V6.73101C25.4033 6.6861 25.0195 6.66211 24.6352 6.65914C24.4735 6.65914 24.2999 6.65914 24.1561 6.67112ZM28.5396 26.9238H27.2342V8.80298C27.6816 9.16532 28.0342 9.631 28.2616 10.1599C28.489 10.6888 28.5845 11.2651 28.5396 11.8391V26.9238ZM19.1079 23.7619L20.5452 12.1146C20.5839 11.4235 20.774 10.7494 21.102 10.1399C21.4301 9.53037 21.888 9.00039 22.4435 8.5874L20.8506 20.7438C20.8167 21.3475 20.642 21.9349 20.3404 22.459C20.0389 22.983 19.6128 23.4293 19.1079 23.7619ZM17.2216 26.6364C17.2273 26.7891 17.1761 26.9385 17.0779 27.0556C16.9007 27.1558 16.7006 27.2085 16.497 27.2085C16.2934 27.2085 16.0933 27.1558 15.9161 27.0556C15.7975 26.9023 15.7418 26.7095 15.7604 26.5166L15.6407 25.78C16.2093 25.8526 16.7848 25.8526 17.3533 25.78L17.2216 26.6364ZM12.2752 20.7318L10.7122 8.63531C11.2281 9.05223 11.6488 9.57462 11.9463 10.1675C12.2437 10.7603 12.411 11.4099 12.4369 12.0726L13.8861 23.75C13.407 23.4012 13.0132 22.9485 12.7342 22.4258C12.4552 21.9031 12.2983 21.3239 12.2752 20.7318ZM7.21502 6.73101V6.46752C7.21502 5.44949 7.71805 5.44949 7.93363 5.44949C8.34683 5.44949 8.73607 5.52734 8.95165 6.40763L8.96962 6.53938L8.98758 6.6292C8.3949 6.57831 7.79798 6.61259 7.21502 6.73101ZM5.75985 26.9238H4.45438V11.8391C4.409 11.2659 4.50419 10.6903 4.73169 10.1623C4.95919 9.63424 5.31212 9.1697 5.75985 8.80897V26.9238Z" fill="white"/>
<path d="M27.2342 7.13822V6.46752C27.2724 6.15891 27.2445 5.8457 27.1524 5.54869C27.0603 5.25169 26.906 4.97769 26.6998 4.74489C26.4937 4.5121 26.2403 4.32584 25.9566 4.1985C25.6729 4.07115 25.3654 4.00563 25.0544 4.00629C24.4553 4.01033 23.8808 4.24442 23.4494 4.66015C23.0181 5.07588 22.763 5.64146 22.7369 6.23996L22.6471 6.90467C21.6391 7.30656 20.7688 7.99122 20.1409 8.87622C19.513 9.76123 19.1543 10.8089 19.1079 11.893L17.5869 24.2889C16.8662 24.4199 16.1278 24.4199 15.4071 24.2889L13.8861 11.893C13.8686 10.8207 13.5355 9.7774 12.9285 8.89339C12.3214 8.00938 11.4672 7.3239 10.4727 6.92263L10.3769 6.15013C10.3113 5.55262 10.0252 5.00108 9.57437 4.60346C9.12358 4.20584 8.54063 3.99075 7.93962 4.0003C7.62858 4.00039 7.32113 4.06667 7.03769 4.19475C6.75425 4.32282 6.50132 4.50976 6.2957 4.74313C6.09008 4.97651 5.93649 5.25097 5.84513 5.54828C5.75378 5.8456 5.72674 6.15895 5.76584 6.46752V7.13822C4.88771 7.55452 4.15528 8.22561 3.66395 9.06407C3.17262 9.90254 2.94516 10.8695 3.01118 11.8391V28.367H7.21502V8.21013C7.85446 8.04771 8.51876 8.00708 9.17322 8.09037L10.844 20.9175C10.8709 21.9156 11.1978 22.8824 11.782 23.692C12.3663 24.5017 13.1809 25.1166 14.1196 25.4567L14.3232 26.6364C14.319 26.9204 14.3738 27.2023 14.4841 27.4641C14.5944 27.7259 14.7578 27.962 14.964 28.1574L15.1496 28.2892C15.56 28.5259 16.0234 28.6556 16.497 28.6664C16.9673 28.6586 17.4275 28.5286 17.8324 28.2892L18.024 28.1574C18.2234 27.9811 18.3831 27.7645 18.4925 27.5219C18.6019 27.2793 18.6586 27.0163 18.6588 26.7502L18.8744 25.4567C19.8304 25.1256 20.6659 24.5167 21.274 23.7081C21.8821 22.8995 22.235 21.9278 22.2878 20.9175L23.9585 8.13827C24.5678 8.08032 25.1821 8.10449 25.785 8.21013V28.373H29.9888V11.8391C30.0548 10.8695 29.8274 9.90254 29.336 9.06407C28.8447 8.22561 28.1123 7.55452 27.2342 7.13822ZM24.1561 6.67112L24.1741 6.55135H24.1561L24.1741 6.43159C24.3178 5.45548 24.8688 5.45548 25.0544 5.45548C25.276 5.45548 25.785 5.45548 25.785 6.47351V6.73101C25.4033 6.6861 25.0195 6.66211 24.6352 6.65914C24.4735 6.65914 24.2999 6.65914 24.1561 6.67112ZM28.5396 26.9238H27.2342V8.80298C27.6816 9.16532 28.0342 9.631 28.2616 10.1599C28.489 10.6888 28.5845 11.2651 28.5396 11.8391V26.9238ZM19.1079 23.7619L20.5452 12.1146C20.5839 11.4235 20.774 10.7494 21.102 10.1399C21.4301 9.53037 21.888 9.00039 22.4435 8.5874L20.8506 20.7438C20.8167 21.3475 20.642 21.9349 20.3404 22.459C20.0389 22.983 19.6128 23.4293 19.1079 23.7619ZM17.2216 26.6364C17.2273 26.7891 17.1761 26.9385 17.0779 27.0556C16.9007 27.1558 16.7006 27.2085 16.497 27.2085C16.2934 27.2085 16.0933 27.1558 15.9161 27.0556C15.7975 26.9023 15.7418 26.7095 15.7604 26.5166L15.6407 25.78C16.2093 25.8526 16.7848 25.8526 17.3533 25.78L17.2216 26.6364ZM12.2752 20.7318L10.7122 8.63531C11.2281 9.05223 11.6488 9.57462 11.9463 10.1675C12.2437 10.7603 12.411 11.4099 12.4369 12.0726L13.8861 23.75C13.407 23.4012 13.0132 22.9485 12.7342 22.4258C12.4552 21.9031 12.2983 21.3239 12.2752 20.7318ZM7.21502 6.73101V6.46752C7.21502 5.44949 7.71805 5.44949 7.93363 5.44949C8.34683 5.44949 8.73607 5.52734 8.95165 6.40763L8.96962 6.53938L8.98758 6.6292C8.3949 6.57831 7.79798 6.61259 7.21502 6.73101ZM5.75985 26.9238H4.45438V11.8391C4.409 11.2659 4.50419 10.6903 4.73169 10.1623C4.95919 9.63424 5.31212 9.1697 5.75985 8.80897V26.9238Z" fill="url(#paint0_linear_22_882)"/>
<defs>
<linearGradient id="paint0_linear_22_882" x1="16.5" y1="4" x2="16.5" y2="28.6664" gradientUnits="userSpaceOnUse">
<stop stop-color="#ED8E38"/>
<stop offset="1" stop-color="#5C1C88"/>
</linearGradient>
</defs>
</svg>
