<svg width="32" height="32" viewBox="0 0 32 32" fill="none" xmlns="http://www.w3.org/2000/svg">
<path d="M4.18168 23V12.0085L12.7275 18.2819V23H14.9092V17.8412C14.9081 17.6502 14.862 17.4621 14.7744 17.2912C14.6867 17.1204 14.5598 16.9715 14.4036 16.8561L4.03801 9.24502C3.84862 9.10811 3.62403 9.02496 3.38912 9.0048C3.1542 8.98464 2.91815 9.02824 2.70711 9.13079C2.49608 9.23333 2.3183 9.3908 2.19349 9.58576C2.06868 9.78071 2.00171 10.0055 2 10.2353V22.9896L4.18168 23ZM27.8183 23V12.0085L19.2725 18.2819V23H17.0908V17.8412C17.0919 17.6502 17.138 17.4621 17.2256 17.2912C17.3133 17.1204 17.4402 16.9715 17.5964 16.8561L27.962 9.25021C28.1514 9.11329 28.376 9.03015 28.6109 9.00999C28.8458 8.98982 29.0819 9.03343 29.2929 9.13597C29.5039 9.23851 29.6817 9.39599 29.8065 9.59094C29.9313 9.7859 29.9983 10.0107 30 10.2405V22.9948L27.8183 23Z" fill="#69CCBA"/>
</svg>
