<svg width="32" height="32" viewBox="0 0 32 32" fill="none" xmlns="http://www.w3.org/2000/svg">
<path d="M24.6371 4.37599L19.0051 12.7516C18.9238 12.8728 18.8895 13.0195 18.9088 13.1642C18.9281 13.3089 18.9996 13.4416 19.1099 13.5372C19.2201 13.6328 19.3615 13.6847 19.5074 13.6833C19.6533 13.6818 19.7936 13.6271 19.9019 13.5293L25.4502 8.6954C25.4823 8.6663 25.5225 8.64759 25.5654 8.64172C25.6084 8.63584 25.6521 8.64308 25.6908 8.66247C25.7296 8.68186 25.7616 8.71252 25.7827 8.75041C25.8037 8.78831 25.8129 8.83169 25.8089 8.87487V23.9629C25.8116 24.0099 25.7992 24.0565 25.7736 24.096C25.7479 24.1355 25.7104 24.1658 25.6664 24.1824C25.6224 24.1991 25.5742 24.2013 25.5289 24.1887C25.4836 24.1761 25.4434 24.1494 25.4143 24.1124L8.63198 4.02302C8.36731 3.69956 8.03305 3.4401 7.65415 3.26399C7.27525 3.08789 6.86149 2.99969 6.44376 3.00598H5.84589C5.08788 3.0123 4.36317 3.31846 3.82997 3.8576C3.29677 4.39674 2.9984 5.12508 3.00001 5.88359V27.1217C2.99985 27.7496 3.20497 28.3604 3.58407 28.8608C3.96317 29.3612 4.49544 29.7238 5.09969 29.8932C5.70395 30.0627 6.34701 30.0297 6.9308 29.7994C7.51458 29.569 8.00704 29.1539 8.33304 28.6173L13.971 20.2537C14.0523 20.1325 14.0866 19.9857 14.0672 19.841C14.0479 19.6964 13.9764 19.5637 13.8662 19.4681C13.756 19.3725 13.6146 19.3205 13.4687 19.322C13.3228 19.3234 13.1825 19.3782 13.0742 19.476L7.52591 24.274C7.49377 24.3031 7.45361 24.3218 7.41067 24.3276C7.36773 24.3335 7.32402 24.3263 7.28526 24.3069C7.2465 24.2875 7.21449 24.2569 7.19342 24.219C7.17235 24.1811 7.16321 24.1377 7.16719 24.0945V9.03042C7.16617 8.98485 7.17924 8.94007 7.20462 8.90221C7.22999 8.86435 7.26642 8.83525 7.30894 8.81889C7.35145 8.80253 7.39798 8.7997 7.44217 8.81079C7.48635 8.82188 7.52604 8.84635 7.55581 8.88085L24.3381 28.9763C24.6048 29.2974 24.9394 29.5553 25.3179 29.7312C25.6963 29.9071 26.1091 29.9966 26.5264 29.9933H27.1242C27.5024 29.9933 27.8768 29.9187 28.2261 29.7737C28.5754 29.6287 28.8927 29.4162 29.1598 29.1484C29.4269 28.8805 29.6386 28.5626 29.7828 28.2128C29.927 27.8629 30.0008 27.4881 30 27.1097V5.87163C29.986 5.10821 29.6742 4.38053 29.1313 3.84399C28.5884 3.30745 27.8574 3.00456 27.0943 3C26.6015 3.00101 26.1172 3.12794 25.6872 3.36874C25.2571 3.60954 24.8957 3.95625 24.6371 4.37599Z" fill="#4A4A4A"/>
</svg>
