<svg width="32" height="32" viewBox="0 0 32 32" fill="none" xmlns="http://www.w3.org/2000/svg">
<path d="M9.06563 13.2602V12.7292L3.55347 9.75037C3.19326 10.3316 3.00164 11.0015 3 11.6852V16.536L3.0135 16.5405L9.06563 13.2602Z" fill="#3377B5"/>
<path d="M3.01768 16.5406L9.06531 19.8164V13.2603L3.01318 16.5361" fill="#4F6CB0"/>
<path d="M28.5294 9.8134L23.1343 12.7292V13.2647L29.0469 16.464V11.6853C29.0459 11.0247 28.8672 10.3811 28.5294 9.8134Z" fill="#504CA1"/>
<path d="M9.06563 20.0726V19.8161L3.0135 16.5403L3 16.5448V21.3146C3.00273 22.0222 3.20891 22.7142 3.59396 23.3079L9.07463 20.3381L9.06563 20.0726Z" fill="#3B9CC7"/>
<path d="M20.3836 13.5856V9.29883L16.4238 11.4437L20.3836 13.5856Z" fill="#5465AD"/>
<path d="M20.7563 13.7866V13.8196L24.353 11.8727C24.1045 11.4573 23.7478 11.1172 23.3211 10.8887L20.3843 9.29883V13.5886" fill="#513D9A"/>
<path d="M16.0947 22.9931L21.9984 19.7983V19.7398L16.0947 16.545V23.0021" fill="#214688"/>
<path d="M9.53857 20.6171V27.0967L9.61057 27.1327L15.5952 23.8929L9.54307 20.6171" fill="#4395C4"/>
<path d="M9.07393 20.3608V20.3428L3.59326 23.3126C3.96071 23.8829 4.46702 24.3505 5.06467 24.6715L9.5464 27.0969V20.6173L9.07393 20.3608Z" fill="#54A4CB"/>
<path d="M16.0904 11.2636L16.4204 11.4436L20.3801 9.29874L17.3893 7.67884C16.9823 7.45976 16.5286 7.34147 16.0664 7.33386V11.2756L16.0904 11.2636Z" fill="#7F6FB3"/>
<path d="M15.7329 11.4555L16.0658 11.2755V7.33378C15.6349 7.32607 15.2076 7.41419 14.8149 7.59176L11.7041 9.27466L15.7329 11.4555Z" fill="#5054A4"/>
<path d="M11.7013 9.27466L11.6953 9.28066V13.6424L15.7301 11.4555L11.7013 9.27466Z" fill="#50479E"/>
<path d="M11.3773 13.8164L11.5483 13.7234L11.6983 13.6424V9.2807L8.54252 10.9906C8.20351 11.2048 7.91738 11.493 7.70557 11.8335L11.3803 13.8224L11.3773 13.8164Z" fill="#5057A6"/>
<path d="M16.1351 24.1856L16.0991 24.1631V29.9992C16.794 29.9885 17.4761 29.8111 18.088 29.4818L22.5067 27.0924L16.6346 23.9156L16.1351 24.1856Z" fill="#2C7AB6"/>
<path d="M15.5979 23.8931L9.61328 27.1329L13.9555 29.4817C14.6132 29.8353 15.3508 30.0135 16.0974 29.9992V24.163" fill="#4FA2CA"/>
<path d="M16.6353 23.9109L22.5074 27.0922L22.5749 27.0517V20.6981L16.6353 23.9109Z" fill="#4D8DC0"/>
<path d="M23.1346 20.3968L22.5767 20.6983V27.0519L26.9864 24.667C27.6063 24.3338 28.1277 23.8434 28.4983 23.2451L23.1301 20.3428" fill="#4488BE"/>
<path d="M23.1343 20.3474L28.4979 23.2497C28.8582 22.6685 29.0498 21.9986 29.0514 21.3148V16.6126L23.1343 19.8119" fill="#6687BE"/>
<path d="M23.1343 19.8163L29.0469 16.6125V16.464L23.1343 13.2647V19.8163Z" fill="#415CA8"/>
<path d="M22.0029 19.7353V13.3457L16.0947 16.5405L22.0029 19.7353Z" fill="#5D62AC"/>
</svg>
