<svg width="32" height="32" viewBox="0 0 32 32" fill="none" xmlns="http://www.w3.org/2000/svg">
<path fill-rule="evenodd" clip-rule="evenodd" d="M30 3H4.91245L12.0543 11.4277C13.3495 10.3413 15.0064 9.77742 16.6985 9.84731C18.3906 9.9172 19.995 10.6158 21.1953 11.8053C22.3956 12.9948 23.1046 14.5889 23.1826 16.2733C23.2606 17.9576 22.7019 19.6099 21.6166 20.9043L30 28.1147V3ZM26.6955 30L20.0553 22.2465C19.0308 22.8804 17.8544 23.2294 16.6486 23.2569C15.4427 23.2845 14.2514 22.9897 13.1988 22.4033C12.1462 21.8168 11.2708 20.9601 10.6637 19.9225C10.0566 18.8848 9.73998 17.704 9.74687 16.5031C9.74766 15.2577 10.0949 14.0369 10.7501 12.976L3 6.23376V30H26.6955Z" fill="#4A4A4A"/>
</svg>
