<svg width="32" height="32" viewBox="0 0 32 32" fill="none" xmlns="http://www.w3.org/2000/svg">
<path fill-rule="evenodd" clip-rule="evenodd" d="M5.57195 15.4732C5.57195 15.7676 5.48358 16.0553 5.31803 16.3001C5.15248 16.5449 4.91717 16.7356 4.64187 16.8483C4.36656 16.9609 4.06363 16.9904 3.77136 16.933C3.4791 16.8756 3.21064 16.7338 2.99993 16.5257C2.78923 16.3175 2.64573 16.0523 2.5876 15.7636C2.52946 15.4749 2.5593 15.1756 2.67333 14.9037C2.78737 14.6317 2.98048 14.3992 3.22825 14.2357C3.47601 14.0722 3.76731 13.9849 4.0653 13.9849C4.46489 13.9849 4.84811 14.1417 5.13066 14.4208C5.41321 14.6999 5.57195 15.0785 5.57195 15.4732ZM29.5147 15.4732C29.5147 15.7676 29.4263 16.0553 29.2608 16.3001C29.0952 16.5449 28.8599 16.7356 28.5846 16.8483C28.3093 16.9609 28.0064 16.9904 27.7141 16.933C27.4219 16.8756 27.1534 16.7338 26.9427 16.5257C26.732 16.3175 26.5885 16.0523 26.5304 15.7636C26.4722 15.4749 26.5021 15.1756 26.6161 14.9037C26.7301 14.6317 26.9232 14.3992 27.171 14.2357C27.4188 14.0722 27.7101 13.9849 28.0081 13.9849C28.2059 13.9849 28.4018 14.0234 28.5846 14.0982C28.7674 14.173 28.9335 14.2826 29.0734 14.4208C29.2133 14.559 29.3243 14.7231 29.4 14.9037C29.4757 15.0842 29.5147 15.2778 29.5147 15.4732ZM17.5405 21.3486C17.5405 21.643 17.4521 21.9307 17.2866 22.1755C17.121 22.4202 16.8857 22.611 16.6104 22.7237C16.3351 22.8363 16.0322 22.8658 15.7399 22.8084C15.4477 22.7509 15.1792 22.6092 14.9685 22.401C14.7578 22.1929 14.6143 21.9277 14.5562 21.639C14.498 21.3502 14.5279 21.051 14.6419 20.779C14.7559 20.5071 14.949 20.2746 15.1968 20.1111C15.4446 19.9475 15.7359 19.8602 16.0339 19.8602C16.4334 19.8602 16.8167 20.0171 17.0992 20.2962C17.3818 20.5753 17.5405 20.9539 17.5405 21.3486ZM11.5139 18.4499C11.5139 18.7443 11.4255 19.0321 11.26 19.2768C11.0944 19.5216 10.8591 19.7123 10.5838 19.825C10.3085 19.9376 10.0056 19.9671 9.71332 19.9097C9.42106 19.8523 9.1526 19.7105 8.94189 19.5024C8.73118 19.2942 8.58769 19.029 8.52956 18.7403C8.47142 18.4516 8.50126 18.1523 8.61529 17.8804C8.72933 17.6084 8.92244 17.376 9.17021 17.2124C9.41797 17.0489 9.70927 16.9616 10.0073 16.9616C10.4068 16.9616 10.7901 17.1184 11.0726 17.3975C11.3552 17.6766 11.5139 18.0552 11.5139 18.4499ZM23.4881 18.4499C23.4881 18.7443 23.3997 19.0321 23.2342 19.2768C23.0686 19.5216 22.8333 19.7123 22.558 19.825C22.2827 19.9376 21.9798 19.9671 21.6875 19.9097C21.3953 19.8523 21.1268 19.7105 20.9161 19.5024C20.7054 19.2942 20.5619 19.029 20.5038 18.7403C20.4456 18.4516 20.4755 18.1523 20.5895 17.8804C20.7035 17.6084 20.8966 17.376 21.1444 17.2124C21.3922 17.0489 21.6835 16.9616 21.9815 16.9616C22.3811 16.9616 22.7643 17.1184 23.0468 17.3975C23.3294 17.6766 23.4881 18.0552 23.4881 18.4499ZM5.08102 19.9829C5.0799 20.1811 5.01939 20.3745 4.9071 20.5388C4.79482 20.7031 4.6358 20.8308 4.4501 20.9059C4.26441 20.981 4.06036 21.0001 3.8637 20.9607C3.66705 20.9214 3.48659 20.8254 3.3451 20.6848C3.20362 20.5443 3.10744 20.3655 3.0687 20.171C3.02996 19.9765 3.05041 19.7751 3.12745 19.5921C3.20449 19.409 3.33467 19.2527 3.50158 19.1426C3.66849 19.0326 3.86465 18.9739 4.0653 18.9739C4.33468 18.9739 4.59304 19.0796 4.78352 19.2678C4.974 19.456 5.08102 19.7168 5.08102 19.9829ZM29.0294 19.9829C29.0283 20.1809 28.9679 20.3741 28.8559 20.5382C28.7439 20.7024 28.5852 20.8301 28.3998 20.9054C28.2144 20.9806 28.0107 21 27.8142 20.9611C27.6177 20.9222 27.4372 20.8268 27.2955 20.6868C27.1538 20.5468 27.0572 20.3685 27.0178 20.1744C26.9784 19.9803 26.9981 19.779 27.0742 19.5959C27.1504 19.4128 27.2797 19.256 27.4459 19.1453C27.6121 19.0347 27.8077 18.975 28.0081 18.9739C28.2774 18.9739 28.5358 19.0796 28.7263 19.2678C28.9168 19.456 29.0238 19.7112 29.0238 19.9773M17.0552 25.9307C17.0552 26.1292 16.9956 26.3232 16.884 26.4882C16.7724 26.6532 16.6138 26.7818 16.4282 26.8577C16.2426 26.9337 16.0384 26.9535 15.8413 26.9148C15.6443 26.8761 15.4633 26.7805 15.3213 26.6402C15.1792 26.4999 15.0825 26.3211 15.0433 26.1265C15.0041 25.9318 15.0242 25.7301 15.1011 25.5467C15.178 25.3634 15.3082 25.2067 15.4752 25.0964C15.6422 24.9862 15.8386 24.9273 16.0395 24.9273C16.3089 24.9273 16.5672 25.033 16.7577 25.2212C16.9482 25.4094 17.0552 25.6646 17.0552 25.9307ZM11.0286 22.954C11.0286 23.1525 10.969 23.3465 10.8574 23.5115C10.7458 23.6765 10.5872 23.8051 10.4016 23.881C10.216 23.957 10.0118 23.9768 9.81474 23.9381C9.61771 23.8994 9.43673 23.8038 9.29468 23.6635C9.15263 23.5232 9.05589 23.3444 9.0167 23.1498C8.97751 22.9551 8.99762 22.7534 9.0745 22.57C9.15137 22.3867 9.28156 22.23 9.4486 22.1197C9.61563 22.0095 9.81201 21.9506 10.0129 21.9506C10.2823 21.9506 10.5406 22.0563 10.7311 22.2445C10.9216 22.4327 11.0286 22.6879 11.0286 22.954ZM22.9972 22.954C22.9972 23.1525 22.9376 23.3465 22.826 23.5115C22.7144 23.6765 22.5558 23.8051 22.3702 23.881C22.1846 23.957 21.9803 23.9768 21.7833 23.9381C21.5863 23.8994 21.4053 23.8038 21.2632 23.6635C21.1212 23.5232 21.0245 23.3444 20.9853 23.1498C20.9461 22.9551 20.9662 22.7534 21.0431 22.57C21.1199 22.3867 21.2501 22.23 21.4172 22.1197C21.5842 22.0095 21.7806 21.9506 21.9815 21.9506C22.2508 21.9506 22.5092 22.0563 22.6997 22.2445C22.8902 22.4327 22.9972 22.6879 22.9972 22.954ZM4.59573 23.5226C4.59573 23.6262 4.56462 23.7275 4.50633 23.8137C4.44805 23.8999 4.36521 23.967 4.26828 24.0067C4.17136 24.0464 4.06471 24.0567 3.96182 24.0365C3.85892 24.0163 3.76441 23.9664 3.69023 23.8931C3.61604 23.8198 3.56552 23.7265 3.54506 23.6248C3.52459 23.5232 3.5351 23.4178 3.57524 23.3221C3.61539 23.2263 3.68338 23.1445 3.77061 23.0869C3.85784 23.0293 3.96039 22.9986 4.0653 22.9986C4.20402 23.0001 4.33665 23.0551 4.43476 23.1521C4.53286 23.249 4.58862 23.38 4.59009 23.517M28.5385 23.5226C28.5385 23.6262 28.5074 23.7275 28.4491 23.8137C28.3908 23.8999 28.308 23.967 28.2111 24.0067C28.1141 24.0464 28.0075 24.0567 27.9046 24.0365C27.8017 24.0163 27.7072 23.9664 27.633 23.8931C27.5588 23.8198 27.5083 23.7265 27.4878 23.6248C27.4674 23.5232 27.4779 23.4178 27.518 23.3221C27.5582 23.2263 27.6261 23.1445 27.7134 23.0869C27.8006 23.0293 27.9032 22.9986 28.0081 22.9986C28.1478 22.9986 28.2818 23.053 28.3812 23.1501C28.4805 23.2472 28.537 23.3846 28.5385 23.5226ZM16.5643 29.4704C16.5654 29.5743 16.5353 29.6762 16.4777 29.7631C16.4201 29.85 16.3376 29.918 16.2408 29.9585C16.144 29.999 16.0371 30.0102 15.9339 29.9906C15.8306 29.971 15.7356 29.9216 15.6608 29.8485C15.5861 29.7755 15.535 29.6821 15.5141 29.5803C15.4931 29.4785 15.5033 29.3729 15.5433 29.2768C15.5833 29.1807 15.6512 29.0986 15.7386 29.0407C15.8259 28.9829 15.9287 28.952 16.0339 28.952C16.1736 28.952 16.3076 29.0065 16.4069 29.1035C16.5063 29.2006 16.5628 29.3324 16.5643 29.4704ZM10.5377 26.4937C10.5388 26.5976 10.5087 26.6994 10.4511 26.7863C10.3934 26.8732 10.311 26.9413 10.2142 26.9818C10.1174 27.0223 10.0105 27.0335 9.90728 27.0139C9.80402 26.9943 9.70897 26.9449 9.63423 26.8718C9.55948 26.7987 9.5084 26.7054 9.48747 26.6036C9.46654 26.5018 9.47671 26.3962 9.51669 26.3001C9.55666 26.204 9.62464 26.1219 9.71199 26.064C9.79933 26.0062 9.90211 25.9753 10.0073 25.9753C10.1479 25.9753 10.2829 26.0305 10.3823 26.1288C10.4818 26.2271 10.5377 26.3548 10.5377 26.4937ZM22.5119 26.4937C22.513 26.5976 22.4829 26.6994 22.4253 26.7863C22.3677 26.8732 22.2852 26.9413 22.1884 26.9818C22.0916 27.0223 21.9847 27.0335 21.8815 27.0139C21.7782 26.9943 21.6832 26.9449 21.6084 26.8718C21.5337 26.7987 21.4826 26.7054 21.4617 26.6036C21.4407 26.5018 21.4509 26.3962 21.4909 26.3001C21.5309 26.204 21.5988 26.1219 21.6862 26.064C21.7735 26.0062 21.8763 25.9753 21.9815 25.9753C22.1221 25.9753 22.2571 26.0305 22.3565 26.1288C22.456 26.2271 22.5119 26.3548 22.5119 26.4937ZM18.0258 4.01234C18.0247 4.40901 17.9046 4.79644 17.6807 5.12572C17.4568 5.455 17.1391 5.71134 16.7679 5.86238C16.3966 6.01341 15.9883 6.05236 15.5946 5.9743C15.2009 5.89624 14.8395 5.70467 14.5559 5.4238C14.2724 5.14293 14.0795 4.78535 14.0016 4.39622C13.9236 4.0071 13.9642 3.60389 14.1181 3.23753C14.272 2.87117 14.5324 2.55808 14.8663 2.33782C15.2003 2.11756 15.5928 2 15.9944 2C16.5331 2 17.0498 2.21143 17.4308 2.58777C17.8118 2.96411 18.0258 3.48011 18.0258 4.01234ZM18.0258 9.96018C18.0258 10.3571 17.9067 10.7451 17.6834 11.0751C17.4602 11.4051 17.143 11.6623 16.7718 11.8142C16.4006 11.9661 15.9921 12.0058 15.598 11.9284C15.204 11.851 14.842 11.6598 14.5579 11.3792C14.2738 11.0985 14.0803 10.741 14.002 10.3517C13.9236 9.96241 13.9638 9.55892 14.1176 9.19223C14.2713 8.82554 14.5317 8.51212 14.8658 8.29162C15.1998 8.07111 15.5926 7.95341 15.9944 7.95341C16.5331 7.95341 17.0498 8.16484 17.4308 8.54118C17.8118 8.91753 18.0258 9.42796 18.0258 9.96018ZM18.0258 15.8356C18.0247 16.2322 17.9046 16.6197 17.6807 16.9489C17.4568 17.2782 17.1391 17.5346 16.7679 17.6856C16.3966 17.8366 15.9883 17.8756 15.5946 17.7975C15.2009 17.7195 14.8395 17.5279 14.5559 17.247C14.2724 16.9661 14.0795 16.6086 14.0016 16.2194C13.9236 15.8303 13.9642 15.4271 14.1181 15.0607C14.272 14.6944 14.5324 14.3813 14.8663 14.161C15.2003 13.9408 15.5928 13.8232 15.9944 13.8232C16.5331 13.8232 17.0498 14.0346 17.4308 14.411C17.8118 14.7873 18.0258 15.2978 18.0258 15.83M30 9.96018C30 10.3571 29.8809 10.7451 29.6576 11.0751C29.4344 11.4051 29.1172 11.6623 28.746 11.8142C28.3748 11.9661 27.9663 12.0058 27.5722 11.9284C27.1782 11.851 26.8162 11.6598 26.5321 11.3792C26.248 11.0985 26.0545 10.741 25.9762 10.3517C25.8978 9.96241 25.938 9.55892 26.0918 9.19223C26.2455 8.82554 26.5059 8.51212 26.84 8.29162C27.174 8.07111 27.5668 7.95341 27.9686 7.95341C28.2353 7.95341 28.4995 8.00532 28.746 8.10617C28.9924 8.20702 29.2164 8.35484 29.405 8.54118C29.5936 8.72753 29.7433 8.94875 29.8454 9.19223C29.9475 9.4357 30 9.69665 30 9.96018ZM6.06288 9.96018C6.06287 10.3566 5.94401 10.7442 5.72129 11.0739C5.49857 11.4037 5.18196 11.6609 4.81142 11.8131C4.44088 11.9653 4.03301 12.0057 3.63926 11.9292C3.24551 11.8526 2.88353 11.6626 2.59898 11.3831C2.31443 11.1035 2.12007 10.747 2.04042 10.3585C1.96077 9.96994 1.99939 9.5668 2.15142 9.19992C2.30344 8.83304 2.56206 8.51886 2.89464 8.29702C3.22722 8.07518 3.61886 7.95562 4.02015 7.95341C4.2874 7.95268 4.55217 8.00405 4.79929 8.10457C5.0464 8.20509 5.27101 8.35279 5.46025 8.53921C5.64948 8.72563 5.79962 8.9471 5.90206 9.19094C6.00451 9.43477 6.06288 9.69618 6.06288 9.96018ZM12.0838 6.98905C12.0827 7.38571 11.9626 7.77315 11.7387 8.10243C11.5148 8.43171 11.1972 8.68805 10.8259 8.83908C10.4546 8.99012 10.0463 9.02906 9.65264 8.951C9.25895 8.87294 8.89751 8.68138 8.61397 8.40051C8.33043 8.11963 8.13752 7.76205 8.05959 7.37293C7.98166 6.98381 8.02222 6.5806 8.17614 6.21424C8.33006 5.84787 8.59044 5.53479 8.92438 5.31453C9.25833 5.09426 9.65086 4.97671 10.0524 4.97671C10.5912 4.97671 11.1079 5.18813 11.4888 5.56448C11.8698 5.94082 12.0838 6.45125 12.0838 6.98348M12.0838 12.8588C12.0838 13.2558 11.9647 13.6437 11.7415 13.9738C11.5183 14.3038 11.201 14.561 10.8298 14.7129C10.4586 14.8647 10.0501 14.9045 9.65609 14.8271C9.26202 14.7496 8.90006 14.5585 8.61596 14.2778C8.33185 13.9972 8.13838 13.6396 8.05999 13.2504C7.98161 12.8611 8.02184 12.4576 8.1756 12.0909C8.32935 11.7242 8.58972 11.4108 8.92379 11.1903C9.25786 10.9698 9.65062 10.8521 10.0524 10.8521C10.5912 10.8521 11.1079 11.0635 11.4888 11.4398C11.8698 11.8162 12.0838 12.3266 12.0838 12.8588ZM24.058 6.98905C24.0569 7.38548 23.937 7.77269 23.7133 8.10185C23.4897 8.431 23.1724 8.68735 22.8014 8.83855C22.4304 8.98974 22.0224 9.02902 21.6289 8.95141C21.2354 8.8738 20.8739 8.68278 20.5902 8.40247C20.3064 8.12215 20.113 7.76509 20.0345 7.37634C19.9559 6.98758 19.9957 6.58455 20.1487 6.21809C20.3018 5.85163 20.5613 5.53816 20.8945 5.31723C21.2277 5.0963 21.6197 4.97781 22.021 4.97671C22.2877 4.97671 22.5519 5.02861 22.7984 5.12946C23.0448 5.23031 23.2688 5.37813 23.4574 5.56448C23.646 5.75082 23.7957 5.97205 23.8978 6.21552C23.9999 6.45899 24.0524 6.71994 24.0524 6.98348M24.058 12.8588C24.058 13.2555 23.939 13.6433 23.7161 13.9732C23.4931 14.3031 23.1762 14.5603 22.8053 14.7123C22.4344 14.8644 22.0263 14.9044 21.6324 14.8275C21.2385 14.7505 20.8765 14.5599 20.5922 14.2798C20.3078 13.9997 20.1139 13.6427 20.0349 13.2538C19.9559 12.8649 19.9953 12.4615 20.1482 12.0947C20.3011 11.728 20.5606 11.4142 20.8939 11.193C21.2272 10.9718 21.6194 10.8532 22.021 10.8521C22.2877 10.8521 22.5519 10.904 22.7984 11.0048C23.0448 11.1057 23.2688 11.2535 23.4574 11.4398C23.646 11.6262 23.7957 11.8474 23.8978 12.0909C23.9999 12.3344 24.058 12.5953 24.058 12.8588Z" fill="#4A4A4A"/>
</svg>
