<svg width="32" height="32" viewBox="0 0 32 32" fill="none" xmlns="http://www.w3.org/2000/svg">
<path d="M14.8059 11.5911C14.4558 11.9044 14.1504 12.2645 13.8984 12.6611C14.1679 13.0606 14.4864 13.4246 14.8466 13.7447L15.8014 14.6826L16.7496 13.7447C17.118 13.4245 17.4394 13.0541 17.7044 12.6442C17.1419 11.9151 16.499 11.2518 15.7879 10.6667C15.4398 10.9519 15.1117 11.2608 14.8059 11.5911Z" fill="#F9B994"/>
<path d="M3.40693 12.3072L2 13.7599L6.50016 18.2448C10.2791 22.0034 11.2238 22.8161 12.3006 23.2833C13.5452 23.8367 14.9068 24.0756 16.2654 23.9791C17.6241 23.8826 18.9382 23.4535 20.0921 22.7297C21.8948 21.2084 23.6173 19.5944 25.2525 17.8943L29.4276 13.7192L27.9546 12.2463L26.4613 10.7479L22.2456 14.9687C17.9842 19.2149 17.1055 19.8752 15.7036 19.8752C14.3424 19.8752 13.418 19.2149 9.55783 15.4055C8.1442 13.9912 6.7083 12.5994 5.25068 11.2304C4.80879 10.8597 4.76815 10.9003 3.40693 12.3072Z" fill="#F9B994"/>
</svg>
