<svg width="32" height="32" viewBox="0 0 32 32" fill="none" xmlns="http://www.w3.org/2000/svg">
<path d="M9.31286 16.4203C8.06732 16.4169 6.84878 16.7828 5.81145 17.4717C4.77412 18.1605 3.96461 19.1414 3.48539 20.2901C3.00616 21.4388 2.87875 22.7037 3.11927 23.9248C3.3598 25.1458 3.95745 26.2682 4.8366 27.1497C5.71575 28.0313 6.83687 28.6325 8.0581 28.8772C9.27932 29.1219 10.5458 28.9991 11.6971 28.5244C12.8485 28.0498 13.8331 27.2445 14.5262 26.2105C15.2194 25.1765 15.5899 23.9603 15.5911 22.7158C15.5926 21.0501 14.9321 19.4519 13.7549 18.2725C12.5777 17.0931 10.98 16.4233 9.31286 16.4203ZM9.31286 27.099C8.44498 27.1001 7.59628 26.844 6.87412 26.363C6.15197 25.8821 5.58882 25.1979 5.25592 24.3971C4.92303 23.5962 4.83535 22.7148 5.00398 21.8641C5.17261 21.0135 5.58996 20.232 6.20325 19.6184C6.81653 19.0049 7.59819 18.5868 8.4493 18.4173C9.30042 18.2477 10.1828 18.3341 10.9847 18.6657C11.7866 18.9973 12.4721 19.5591 12.9543 20.28C13.4366 21.001 13.694 21.8486 13.694 22.7158C13.6948 23.2911 13.582 23.861 13.3622 24.3927C13.1423 24.9245 12.8197 25.4077 12.4128 25.8148C12.0059 26.2219 11.5227 26.5449 10.9908 26.7652C10.4589 26.9855 9.88868 27.099 9.31286 27.099ZM22.7218 3.00564C21.4758 3.00229 20.2568 3.36848 19.2192 4.05783C18.1816 4.74718 17.3721 5.72868 16.8932 6.87804C16.4143 8.02739 16.2876 9.29289 16.529 10.5143C16.7705 11.7357 17.3692 12.858 18.2495 13.7391C19.1298 14.6202 20.252 15.2205 21.474 15.464C22.6959 15.7074 23.9627 15.583 25.1139 15.1066C26.2651 14.6302 27.2488 13.8231 27.9406 12.7876C28.6324 11.7522 29.0011 10.5349 29 9.28987C29.0015 7.62417 28.3411 6.02601 27.1638 4.84659C25.9866 3.66717 24.3889 3.00863 22.7218 3.00564ZM22.7218 13.6843C21.8539 13.6866 21.0049 13.4315 20.2821 12.9515C19.5593 12.4715 18.9953 11.788 18.6614 10.9877C18.3275 10.1873 18.2386 9.30589 18.4062 8.45505C18.5737 7.60421 18.9901 6.82215 19.6026 6.2078C20.215 5.59345 20.9962 5.17442 21.8471 5.00375C22.698 4.83307 23.5804 4.9184 24.3827 5.24896C25.1851 5.57951 25.8713 6.14042 26.3545 6.86073C26.8377 7.58104 27.0962 8.42837 27.0973 9.29551C27.0981 9.87038 26.9855 10.4398 26.766 10.9711C26.5465 11.5025 26.2244 11.9855 25.8181 12.3925C25.4118 12.7996 24.9292 13.1226 24.398 13.3433C23.8667 13.564 23.2971 13.6836 22.7218 13.6843ZM9.31286 3.00564C7.85807 3.00286 6.44714 3.50316 5.31957 4.42161C4.19199 5.34007 3.41724 6.62009 3.12683 8.0444C2.83642 9.46872 3.04824 10.9496 3.72633 12.2356C4.40443 13.5216 5.50702 14.5335 6.84695 15.0996C8.18687 15.6657 9.68158 15.7511 11.0773 15.3412C12.4731 14.9314 13.6839 14.0516 14.5043 12.8512C15.3246 11.6507 15.704 10.2037 15.5779 8.75556C15.4518 7.30746 14.8281 5.94757 13.8126 4.90671H15.5911V3.00564H9.31286ZM13.6997 9.28987C13.6963 10.1536 13.437 10.9969 12.9545 11.7135C12.4719 12.4301 11.7877 12.9879 10.9882 13.3163C10.1887 13.6448 9.30976 13.7293 8.46226 13.5592C7.61476 13.389 6.83669 12.9719 6.22622 12.3604C5.61576 11.7488 5.20026 10.9703 5.03216 10.1231C4.86406 9.27588 4.95089 8.39789 5.28169 7.59992C5.6125 6.80195 6.17245 6.11976 6.89089 5.63944C7.60933 5.15912 8.45406 4.90219 9.3185 4.90107C9.8948 4.90106 10.4654 5.01466 10.9977 5.23536C11.53 5.45606 12.0135 5.77951 12.4205 6.1872C12.8275 6.59488 13.1499 7.07879 13.3694 7.6112C13.589 8.14361 13.7012 8.71406 13.6997 9.28987Z" fill="#1E64DC"/>
</svg>
