<svg width="32" height="32" viewBox="0 0 32 32" fill="none" xmlns="http://www.w3.org/2000/svg">
<path d="M23.9642 2.00001C23.1716 1.99848 22.3864 2.15289 21.6535 2.45443C20.9206 2.75596 20.2544 3.19872 19.6929 3.75742C19.1313 4.31611 18.6854 4.9798 18.3807 5.7106C18.0759 6.4414 17.9183 7.22499 17.9168 8.01663V14.685C17.2992 14.7257 16.6583 14.7548 16 14.7548C15.3417 14.7548 14.7066 14.7781 14.0774 14.813V8.02245C14.0287 6.45531 13.3711 4.96866 12.2439 3.87734C11.1168 2.78602 9.60856 2.17573 8.0387 2.17573C6.46885 2.17573 4.96064 2.78602 3.83348 3.87734C2.70633 4.96866 2.04874 6.45531 2 8.02245V23.9659C2 25.5663 2.63653 27.1011 3.76955 28.2327C4.90257 29.3643 6.43928 30 8.04162 30C9.64395 30 11.1807 29.3643 12.3137 28.2327C13.4467 27.1011 14.0832 25.5663 14.0832 23.9659V17.286C14.7066 17.2452 15.3417 17.2161 16 17.2161C16.6583 17.2161 17.2934 17.1929 17.9226 17.1579V23.9543C17.9713 25.5214 18.6289 27.0081 19.7561 28.0994C20.8832 29.1907 22.3914 29.801 23.9613 29.801C25.5312 29.801 27.0394 29.1907 28.1665 28.0994C29.2937 27.0081 29.9513 25.5214 30 23.9543V8.01081C29.9954 6.41505 29.3574 4.88622 28.226 3.75947C27.0946 2.63273 25.562 2 23.9642 2.00001ZM8.04162 4.46718C8.98524 4.46717 9.89039 4.84076 10.5587 5.50608C11.2271 6.1714 11.6041 7.07419 11.6072 8.01663V15.0748C9.83798 15.3301 8.11023 15.8172 6.46858 16.5237C5.7596 16.8355 5.09224 17.2342 4.4819 17.7107V8.01663C4.48497 7.0762 4.86038 6.17517 5.5262 5.51018C6.19202 4.84519 7.09418 4.47024 8.03579 4.46718H8.04162ZM11.6072 23.9601C11.6072 24.4277 11.5149 24.8908 11.3357 25.3229C11.1566 25.7549 10.8939 26.1475 10.5628 26.4782C10.2317 26.8089 9.83868 27.0712 9.40609 27.2501C8.9735 27.4291 8.50985 27.5212 8.04162 27.5212C7.57338 27.5212 7.10973 27.4291 6.67714 27.2501C6.24455 27.0712 5.85149 26.8089 5.5204 26.4782C5.1893 26.1475 4.92667 25.7549 4.74748 25.3229C4.5683 24.8908 4.47607 24.4277 4.47607 23.9601V22.3483C4.5784 21.5276 4.91522 20.7536 5.44627 20.119C5.97732 19.4844 6.68012 19.016 7.47066 18.7697C8.79452 18.1982 10.1838 17.7917 11.6072 17.5594V23.9485V23.9601ZM23.9584 27.5096C23.0148 27.5096 22.1096 27.136 21.4413 26.4707C20.7729 25.8053 20.3959 24.9025 20.3928 23.9601V16.8845C22.1621 16.6295 23.8899 16.1423 25.5314 15.4356C26.2404 15.1238 26.9078 14.725 27.5181 14.2486V23.9485C27.515 24.8889 27.1396 25.7899 26.4738 26.4549C25.808 27.1199 24.9058 27.4949 23.9642 27.4979L23.9584 27.5096ZM24.5293 13.1954C23.2052 13.7649 21.8159 14.1694 20.3928 14.3998V8.01663C20.3928 7.0714 20.7688 6.16488 21.438 5.4965C22.1072 4.82812 23.0149 4.45263 23.9613 4.45263C24.9077 4.45263 25.8154 4.82812 26.4846 5.4965C27.1538 6.16488 27.5298 7.0714 27.5298 8.01663V9.6168C27.4273 10.4377 27.0897 11.2115 26.5574 11.8453C26.0251 12.4792 25.3209 12.9517 24.5293 13.1954Z" fill="url(#paint0_linear_22_932)"/>
<defs>
<linearGradient id="paint0_linear_22_932" x1="4.51103" y1="27.9612" x2="28.535" y2="3.84156" gradientUnits="userSpaceOnUse">
<stop stop-color="#008ED7"/>
<stop offset="1" stop-color="#48C896"/>
</linearGradient>
</defs>
</svg>
