<svg width="32" height="32" viewBox="0 0 32 32" fill="none" xmlns="http://www.w3.org/2000/svg">
<path d="M3.11619 3.98285V13.6188C2.85494 15.789 3.03527 17.9881 3.64685 20.0901C4.25843 22.1921 5.28924 24.1558 6.6802 25.8685C7.83453 27.1275 9.24024 28.1433 10.8112 28.8537C12.3821 29.5642 14.0853 29.9542 15.8162 30H16.0099C19.1593 29.9814 22.1755 28.7579 24.4099 26.5928L3.11619 3.98285ZM29.7817 19.7783L29.8463 19.2493C30.1572 17.0837 29.9953 14.8784 29.371 12.7781C28.7468 10.6779 27.6744 8.73011 26.2241 7.06259C25.0636 5.79966 23.6462 4.78626 22.0622 4.08688C20.4782 3.38751 18.7622 3.01748 17.0236 3.00036C15.4509 2.9882 13.8917 3.28343 12.4379 3.86862C10.9841 4.45382 9.66524 5.31712 8.55905 6.40759L29.9173 29.0175L29.7817 19.7783Z" fill="#339FB9"/>
</svg>
