<svg width="32" height="32" viewBox="0 0 32 32" fill="none" xmlns="http://www.w3.org/2000/svg">
<path d="M7.52959 23.9896C6.1108 24.0516 4.71061 23.6433 3.54006 22.8262C3.03403 22.4339 2.62978 21.9221 2.36234 21.3352C2.09489 20.7482 1.97232 20.1039 2.00524 19.458C2.01103 19.0834 2.04445 18.7098 2.10523 18.3403C2.28187 17.3378 2.53518 16.1371 2.86514 14.7384C3.13502 13.0418 4.02457 11.511 5.35625 10.4516C6.68792 9.39221 8.36377 8.88207 10.0493 9.02301C11.0154 9.00664 11.9747 9.18984 12.869 9.56153C13.6639 9.87802 14.3479 10.4281 14.8337 11.1415C15.3226 11.8767 15.5726 12.749 15.5486 13.6359C15.5424 14.0054 15.509 14.3739 15.4487 14.7384C15.2454 15.9712 15.0004 17.1701 14.7137 18.3352C14.3785 19.9962 13.5076 21.4961 12.239 22.5976C10.8689 23.5885 9.20903 24.0791 7.52959 23.9896ZM7.81456 20.9922C8.52446 21.0147 9.21795 20.7726 9.76433 20.3115C10.3646 19.7576 10.7731 19.0218 10.9292 18.2133C11.2425 16.9093 11.4808 15.7714 11.6441 14.7993C11.6982 14.5045 11.725 14.2051 11.7241 13.9052C11.7241 12.6453 11.0775 12.0153 9.78433 12.0153C9.06978 11.9979 8.37275 12.2412 7.81956 12.7012C7.22844 13.2601 6.82604 13.9944 6.66969 14.7993C6.42639 15.7307 6.18142 16.867 5.93478 18.2082C5.87991 18.4961 5.85312 18.7888 5.85479 19.082C5.85479 20.3589 6.50971 20.9973 7.81956 20.9973L7.81456 20.9922ZM16.4935 23.7813C16.4288 23.7859 16.3638 23.7754 16.3036 23.7508C16.2422 23.7247 16.1875 23.6847 16.1436 23.634C16.0767 23.5231 16.0551 23.39 16.0836 23.2631L18.9083 9.7495C18.9319 9.60033 19.0105 9.4659 19.1282 9.37355C19.2387 9.28281 19.3761 9.23268 19.5182 9.23131H24.9625C26.2429 9.16779 27.5121 9.50085 28.6021 10.1864C29.0509 10.4842 29.4155 10.8957 29.6601 11.3803C29.9047 11.865 30.0208 12.406 29.997 12.9501C29.9945 13.3144 29.9525 13.6772 29.872 14.0322C29.6476 15.4334 28.91 16.6965 27.8072 17.5681C26.5581 18.3956 25.0815 18.7961 23.5927 18.7112H20.828L19.8881 23.2631C19.8632 23.4131 19.7827 23.5476 19.6632 23.6391C19.5542 23.7291 19.4186 23.7792 19.2782 23.7813H16.4935ZM23.7377 15.8408C24.2724 15.8522 24.796 15.6844 25.2275 15.3632C25.6731 15.0316 25.98 14.5421 26.0874 13.9916C26.1255 13.7855 26.1455 13.5764 26.1474 13.3667C26.1585 13.1975 26.1329 13.0279 26.0724 12.8699C26.0119 12.7119 25.9181 12.5693 25.7974 12.4522C25.4582 12.1966 25.0381 12.0772 24.6176 12.1169H22.1629L21.383 15.8408H23.7377Z" fill="#FF0420"/>
</svg>
