<svg width="32" height="32" viewBox="0 0 32 32" fill="none" xmlns="http://www.w3.org/2000/svg">
<path fill-rule="evenodd" clip-rule="evenodd" d="M3 14.5998C3.40715 14.6445 3.81915 14.6072 4.21158 14.4901C4.60401 14.373 4.9689 14.1785 5.28462 13.9182C5.76654 13.2896 5.99472 12.5036 5.92409 11.7154V9.53435C5.8864 8.5351 6.05379 7.53871 6.41599 6.60632C6.69644 5.92783 7.17186 5.3473 7.78239 4.93784C8.42188 4.54406 9.13672 4.28778 9.88118 4.18539C10.6846 4.05998 13.953 4 14.9095 4V7.14068C13.5369 7.12685 12.1656 7.229 10.8103 7.44602C10.6223 7.53904 10.4551 7.66915 10.3189 7.82847C10.1826 7.98779 10.0802 8.17302 10.0178 8.37296C9.86487 8.88569 9.79476 9.41946 9.81012 9.9542V12.8441C9.80966 13.3331 9.71695 13.8178 9.53684 14.2726C9.33134 14.7585 8.98976 15.175 8.55304 15.4722C7.92159 15.875 7.2183 16.1526 6.48158 16.2901L6.41599 16.301V16.699L6.48158 16.7099C7.21999 16.8415 7.9244 17.1196 8.55304 17.5278C8.99258 17.8219 9.33492 18.2393 9.53684 18.7274C9.7181 19.1819 9.81084 19.6668 9.81012 20.1559V23.0458C9.79528 23.5769 9.86539 24.107 10.0178 24.6161C10.0802 24.8161 10.1826 25.0013 10.3189 25.1606C10.4551 25.32 10.6223 25.4501 10.8103 25.5431C12.1656 25.7601 13.5369 25.8622 14.9095 25.8484V29C13.9476 29 10.6846 28.94 9.88118 28.8146C9.13672 28.7122 8.42188 28.4559 7.78239 28.0622C7.17186 27.6527 6.69644 27.0722 6.41599 26.3937C6.05379 25.4613 5.8864 24.4649 5.92409 23.4656V21.2846C5.99612 20.4946 5.76787 19.7064 5.28462 19.0763C4.9689 18.816 4.60401 18.6215 4.21158 18.5045C3.81915 18.3874 3.40715 18.3501 3 18.3948V14.5998ZM30 14.5998C29.592 14.6452 29.179 14.6083 28.7855 14.4912C28.3921 14.3741 28.0263 14.1792 27.7099 13.9182C27.228 13.2896 26.9998 12.5036 27.0704 11.7154V9.53435C27.1099 8.53548 26.9443 7.5391 26.584 6.60632C26.3036 5.92783 25.8281 5.3473 25.2176 4.93784C24.5781 4.54406 23.8633 4.28778 23.1188 4.18539C22.3099 4.05998 19.047 4 18.0905 4V7.14068C19.4631 7.12683 20.8344 7.22897 22.1897 7.44602C22.3767 7.53962 22.5429 7.66999 22.6781 7.82928C22.8134 7.98857 22.9149 8.1735 22.9767 8.37296C23.1315 8.8854 23.2035 9.41917 23.1899 9.9542V12.8441C23.1886 13.3328 23.2795 13.8174 23.4577 14.2726C23.6632 14.7585 24.0048 15.175 24.4415 15.4722C25.0747 15.8754 25.7799 16.1531 26.5184 16.2901L26.5785 16.301V16.699L26.513 16.7099C25.7765 16.8424 25.0741 17.1205 24.447 17.5278C24.0054 17.8211 23.6611 18.2386 23.4577 18.7274C23.2764 19.1819 23.1837 19.6668 23.1844 20.1559V23.0458C23.1993 23.5769 23.1292 24.107 22.9767 24.6161C22.9149 24.8156 22.8134 25.0005 22.6781 25.1598C22.5429 25.3191 22.3767 25.4495 22.1897 25.5431C20.8344 25.7601 19.4631 25.8623 18.0905 25.8484V29C19.047 29 22.3154 28.94 23.1188 28.8146C23.8614 28.7115 24.5743 28.4552 25.2121 28.0622C25.8247 27.6535 26.3021 27.0729 26.584 26.3937C26.9462 25.4613 27.1136 24.4649 27.0759 23.4656V21.2846C27.0023 20.4953 27.2286 19.7071 27.7099 19.0763C28.0263 18.8153 28.3921 18.6205 28.7855 18.5034C29.179 18.3863 29.592 18.3493 30 18.3948V14.5998ZM13.7126 16.5027C13.7393 15.9591 13.9254 15.4353 14.2477 14.9961C14.57 14.557 15.0144 14.2219 15.5259 14.0323C16.0373 13.8428 16.5932 13.8071 17.1248 13.9298C17.6563 14.0524 18.1401 14.328 18.5161 14.7223C18.8922 15.1166 19.144 15.6124 19.2403 16.1481C19.3366 16.6838 19.2733 17.2359 19.058 17.7361C18.8428 18.2362 18.4852 18.6623 18.0295 18.9616C17.5738 19.2609 17.0401 19.4203 16.4945 19.4198C16.1198 19.4107 15.7506 19.3279 15.408 19.1763C15.0654 19.0247 14.756 18.8072 14.4977 18.5363C14.2393 18.2654 14.037 17.9464 13.9023 17.5975C13.7676 17.2485 13.7031 16.8765 13.7126 16.5027ZM16.4945 11.0829C15.0902 11.12 13.7581 11.7116 12.7907 12.7278C11.8233 13.744 11.2998 15.1017 11.335 16.5027C11.2998 17.9037 11.8233 19.2614 12.7907 20.2776C13.7581 21.2938 15.0902 21.8855 16.4945 21.9226C17.8988 21.8855 19.231 21.2938 20.1984 20.2776C21.1657 19.2614 21.6893 17.9037 21.654 16.5027C21.6893 15.1017 21.1657 13.744 20.1984 12.7278C19.231 11.7116 17.8988 11.12 16.4945 11.0829Z" fill="#4A4A4A"/>
</svg>
