<svg width="32" height="32" viewBox="0 0 32 32" fill="none" xmlns="http://www.w3.org/2000/svg">
<path d="M23.9524 10.4248C23.6153 9.53514 22.9901 8.78396 22.1763 8.29108C21.4923 7.73687 20.6564 7.40295 19.7789 7.33332C19.6465 7.33298 19.5145 7.34618 19.3848 7.37272C19.2151 7.41457 19.057 7.49442 18.9226 7.60625C18.7882 7.71808 18.6809 7.85897 18.6089 8.0183C18.395 8.41965 18.3492 8.88952 18.4816 9.32461C18.5383 9.44451 18.602 9.5609 18.6726 9.67316C18.3299 9.90183 17.9591 10.0852 17.5693 10.2187C19.3218 10.8216 20.7912 12.0482 21.6974 13.6648L21.7095 13.5072C21.766 13.0213 21.881 12.5441 22.052 12.0858C22.2252 12.1372 22.4048 12.1637 22.5855 12.1646C22.8039 12.1711 23.0206 12.1249 23.2174 12.0299C23.4142 11.9349 23.5852 11.794 23.716 11.619C23.8424 11.4498 23.9298 11.2547 23.9717 11.0476C24.0137 10.8406 24.0091 10.6269 23.9584 10.4218L23.9524 10.4248Z" fill="#5E12A0"/>
<path d="M22.1254 11.7157C23.2801 12.037 23.7499 11.1338 23.5984 10.5276C23.2758 9.72486 22.7015 9.04846 21.9617 8.59993C21.2726 7.99839 20.3743 7.69242 19.4612 7.74825C18.852 7.87858 18.6732 8.82119 18.8247 9.18186C18.9325 9.39081 19.0647 9.58616 19.2187 9.76379C18.9763 9.93352 18.752 10.0608 18.561 10.179C19.7297 10.7111 20.7428 11.5333 21.504 12.5674C21.5914 12.2492 21.7028 11.9381 21.8374 11.6369C21.9359 11.6529 22.0324 11.6793 22.1254 11.7157Z" fill="url(#paint0_radial_22_944)"/>
<path d="M15.2697 28.5682C17.4216 28.6079 19.5366 28.0061 21.3452 26.8393C23.1538 25.6726 24.5741 23.9938 25.4251 22.0169C26.276 20.04 26.5191 17.8545 26.1234 15.7389C25.7277 13.6233 24.7111 11.6734 23.2031 10.1377C21.6952 8.60205 19.7641 7.5501 17.6561 7.11594C15.5481 6.68178 13.3585 6.88507 11.3664 7.69989C9.37435 8.51472 7.66997 9.9042 6.4705 11.6912C5.27102 13.4783 4.63075 15.582 4.63129 17.7343C4.60585 20.5816 5.71227 23.3224 7.70726 25.354C9.70225 27.3856 12.4225 28.5418 15.2697 28.5682Z" fill="url(#paint1_radial_22_944)"/>
<path opacity="0.6" d="M23.0123 9.93352C22.2974 9.12415 21.3255 8.58576 20.2602 8.40899C19.4995 8.22713 19.7026 7.78765 20.627 7.87858C20.2561 7.73398 19.8538 7.68904 19.4601 7.74825C18.8539 7.87858 18.6721 8.82119 18.8236 9.18489C18.9312 9.39391 19.0635 9.58928 19.2176 9.76682C18.9363 9.95807 18.6449 10.1341 18.3447 10.2942C18.4599 10.3457 18.5993 10.4124 18.763 10.5033C19.0794 10.6845 19.3805 10.8913 19.6632 11.1216C18.9539 10.5033 19.1055 10.2184 20.0814 9.51829C20.2995 9.41085 20.5416 9.36165 20.7844 9.37545C21.0271 9.38926 21.2621 9.46562 21.4665 9.59709C21.8872 9.86076 22.2679 10.1833 22.5971 10.5549L22.0121 11.6914L22.1273 11.7308C22.4167 11.825 22.7293 11.8197 23.0153 11.7157C23.279 11.546 23.9761 10.9792 23.0123 9.93352Z" fill="#A98698"/>
<path d="M20.2471 9.02742C20.5937 9.17981 20.9246 9.36557 21.2352 9.58207C21.6579 9.86245 22.0491 10.1876 22.4021 10.552C21.9946 11.1589 21.6866 11.8271 21.4898 12.5311C21.5807 12.6584 21.6807 12.7888 21.7686 12.9191C21.8897 12.4837 22.0385 12.0564 22.2141 11.64C22.2721 11.6507 22.3311 11.6548 22.3899 11.6522C22.5584 11.6613 22.7247 11.6109 22.8597 11.5097C22.9318 11.4541 22.9884 11.3808 23.024 11.2969C23.0596 11.213 23.0729 11.1214 23.0628 11.0308C22.9922 10.658 22.7833 10.3256 22.4778 10.1004C22.1518 9.79604 21.8044 9.51547 21.4382 9.2608C20.3471 8.52429 19.5864 8.31819 19.2439 8.66675C19.1539 8.76102 19.0938 8.87981 19.0711 9.00817C19.0485 9.13652 19.0643 9.26871 19.1166 9.3881C18.7104 9.66088 18.3679 9.85182 18.1406 9.98215C18.2922 10.0337 18.4316 10.1004 18.5831 10.164C19.1703 9.8351 19.7271 9.45475 20.2471 9.02742ZM22.6445 10.8763C22.6754 10.9266 22.6932 10.9839 22.696 11.043C22.7001 11.0761 22.6964 11.1098 22.6854 11.1413C22.6743 11.1728 22.6562 11.2014 22.6324 11.2248C22.5597 11.2699 22.4755 11.293 22.3899 11.2915C22.4642 11.1469 22.5493 11.0081 22.6445 10.8763ZM19.5106 8.94862C19.5558 8.92187 19.6061 8.90482 19.6583 8.89856C19.7105 8.89229 19.7634 8.89696 19.8137 8.91225C19.6894 9.0153 19.5621 9.10622 19.4348 9.19715C19.4243 9.15273 19.4258 9.1063 19.4391 9.06263C19.4524 9.01896 19.4771 8.97962 19.5106 8.94862Z" fill="#5E12A0"/>
<path d="M15.2708 6.25934C13.7773 6.27241 12.3009 6.57963 10.9261 7.16345C9.55126 7.74726 8.30494 8.59623 7.25832 9.66185C6.2117 10.7275 5.38529 11.9889 4.8263 13.374C4.26731 14.759 3.98669 16.2407 4.00048 17.7343C3.98669 19.2279 4.26731 20.7095 4.8263 22.0946C5.38529 23.4797 6.2117 24.7411 7.25832 25.8067C8.30494 26.8723 9.55126 27.7213 10.9261 28.3051C12.3009 28.8889 13.7773 29.1961 15.2708 29.2092C18.3142 29.2092 21.2329 28.0003 23.3849 25.8483C25.5368 23.6963 26.7458 20.7776 26.7458 17.7343C26.7458 14.6909 25.5368 11.7722 23.3849 9.62027C21.2329 7.4683 18.3142 6.25934 15.2708 6.25934ZM15.2708 28.5682C13.8607 28.5563 12.4667 28.2665 11.1686 27.7155C9.87049 27.1644 8.69376 26.3629 7.70571 25.3566C6.71765 24.3504 5.93765 23.1593 5.41031 21.8514C4.88296 20.5435 4.61863 19.1444 4.63243 17.7343C4.67094 15.639 5.32745 13.6017 6.51958 11.8781C7.7117 10.1545 9.38634 8.82145 11.3333 8.04615C13.2803 7.27084 15.4129 7.08786 17.4635 7.52016C19.5141 7.95245 21.3914 8.98077 22.8597 10.4761C24.328 11.9714 25.322 13.867 25.7169 15.9252C26.1118 17.9833 25.89 20.1122 25.0794 22.0448C24.2688 23.9773 22.9054 25.6274 21.1604 26.788C19.4154 27.9485 17.3665 28.5678 15.2708 28.5682Z" fill="#5E12A0"/>
<path opacity="0.6" d="M15.2697 28.5682C17.4216 28.6079 19.5366 28.0061 21.3452 26.8393C23.1538 25.6726 24.5741 23.9938 25.4251 22.0169C26.276 20.04 26.5191 17.8545 26.1234 15.7389C25.7277 13.6233 24.7111 11.6734 23.2031 10.1377C21.6952 8.60205 19.7641 7.5501 17.6561 7.11594C15.5481 6.68178 13.3585 6.88507 11.3664 7.69989C9.37435 8.51472 7.66997 9.9042 6.4705 11.6912C5.27102 13.4783 4.63075 15.582 4.63129 17.7343C4.60585 20.5816 5.71227 23.3224 7.70726 25.354C9.70225 27.3856 12.4225 28.5418 15.2697 28.5682Z" fill="url(#paint2_linear_22_944)"/>
<path opacity="0.6" d="M15.1933 27.2502C13.1842 26.8803 11.3196 25.9531 9.81213 24.5745C8.30464 23.1959 7.21501 21.4214 6.66753 19.4533C6.12005 17.4852 6.13678 15.4029 6.7158 13.4439C7.29483 11.4848 8.41283 9.72799 9.94227 8.37378C8.04098 9.50885 6.53096 11.1966 5.6136 13.212C4.69624 15.2274 4.41516 17.4746 4.80784 19.6538C5.20052 21.833 6.24829 23.8408 7.81141 25.4092C9.37454 26.9776 11.3787 28.0322 13.5566 28.4322C15.0953 28.6861 16.6713 28.5934 18.1696 28.1608C19.6679 27.7282 21.0508 26.9667 22.2174 25.9317C20.1019 27.1781 17.6168 27.6446 15.1933 27.2502Z" fill="#A98698"/>
<path opacity="0.6" d="M16.9653 7.05541C14.3844 6.62353 11.7353 7.17508 9.54117 8.60116L9.46388 8.68299C10.1101 8.31118 10.7851 7.99191 11.4825 7.72827C9.79597 8.62199 8.39645 9.97423 7.44531 11.629C8.27877 10.3978 9.39066 9.38037 10.6908 8.6592C11.991 7.93803 13.4428 7.53343 14.9286 7.47822C16.1701 7.41493 17.4114 7.60611 18.5763 8.04001C19.7412 8.47392 20.8051 9.14139 21.7026 10.0014C22.8338 11.0985 23.7219 12.4209 24.3093 13.8832C24.8967 15.3454 25.1703 16.9147 25.1124 18.4894C24.9975 20.3717 24.4365 22.1996 23.4757 23.8223C24.324 22.7891 25.022 21.6412 25.5488 20.4125C25.6326 20.0987 25.6964 19.7798 25.7397 19.4578C26.2145 16.6504 25.5578 13.7692 23.9134 11.4449C22.2689 9.12048 19.7707 7.54219 16.9653 7.05541Z" fill="url(#paint3_linear_22_944)"/>
<path d="M25.3763 17.6346C25.4169 18.9885 25.1853 20.3368 24.6952 21.5995C24.2051 22.8623 23.4666 24.0138 22.5232 24.9859C21.5799 25.9579 20.451 26.7307 19.2035 27.2584C17.956 27.7861 16.6153 28.058 15.2608 28.058C13.9062 28.058 12.5655 27.7861 11.318 27.2584C10.0705 26.7307 8.94163 25.9579 7.9983 24.9859C7.05497 24.0138 6.31637 22.8623 5.82628 21.5995C5.33619 20.3368 5.10457 18.9885 5.14517 17.6346H25.3763Z" fill="url(#paint4_linear_22_944)"/>
<path opacity="0.6" d="M24.5751 17.6346C24.5983 20.2713 23.6011 22.8149 21.792 24.7332C19.983 26.6516 17.5022 27.7961 14.8687 27.9275H15.2687C17.9733 27.9011 20.5568 26.8022 22.4518 24.8723C24.3468 22.9424 25.3982 20.3392 25.3752 17.6346H24.5751Z" fill="url(#paint5_linear_22_944)"/>
<path opacity="0.7" d="M6.56854 17.6346H5.14099C5.11798 20.34 6.17006 22.9438 8.06601 24.8739C9.96196 26.8039 12.5467 27.9023 15.252 27.9275C15.4975 27.9275 15.7249 27.9275 15.9522 27.9093C13.3817 27.693 10.9874 26.5147 9.24785 24.6099C7.50827 22.7051 6.55144 20.2141 6.56854 17.6346Z" fill="url(#paint6_linear_22_944)"/>
<path d="M25.3585 17.7347C25.3585 16.5526 23.3399 15.8707 20.6576 15.6434C18.5787 15.4827 16.4886 15.7329 14.5064 16.3799C12.8928 16.8359 11.2013 16.9474 9.54181 16.7072C6.7049 16.3753 5.14551 16.339 5.14551 17.7347C5.14551 19.7487 9.1781 22.2674 15.2338 21.3945C17.4574 20.9994 19.6251 20.3369 21.6896 19.4214C23.6445 18.7621 25.3585 18.7803 25.3585 17.7347Z" fill="url(#paint7_linear_22_944)"/>
<path d="M17.7202 13.8982C17.9515 13.903 18.179 13.8388 18.3736 13.7138C18.5682 13.5887 18.7212 13.4085 18.8129 13.1961C18.9046 12.9837 18.931 12.7488 18.8886 12.5214C18.8462 12.294 18.7371 12.0843 18.575 11.9193C18.4129 11.7542 18.2053 11.6411 17.9787 11.5946C17.7521 11.548 17.5168 11.57 17.3027 11.6578C17.0887 11.7456 16.9057 11.8952 16.7771 12.0875C16.6485 12.2798 16.5801 12.506 16.5806 12.7374C16.5782 13.0423 16.6968 13.3358 16.9104 13.5534C17.1241 13.771 17.4153 13.895 17.7202 13.8982ZM19.5872 14.765C19.6846 14.7662 19.7801 14.7385 19.8617 14.6853C19.9432 14.632 20.0071 14.5558 20.0452 14.4662C20.0833 14.3766 20.0939 14.2777 20.0756 14.182C20.0573 14.0864 20.0111 13.9983 19.9426 13.929C19.8742 13.8598 19.7868 13.8124 19.6913 13.793C19.5959 13.7735 19.4969 13.7829 19.4068 13.8199C19.3168 13.8568 19.2397 13.9198 19.1855 14.0006C19.1313 14.0815 19.1023 14.1767 19.1023 14.274C19.1015 14.3382 19.1135 14.4019 19.1375 14.4615C19.1615 14.521 19.1971 14.5752 19.2422 14.6209C19.2873 14.6665 19.341 14.7028 19.4003 14.7276C19.4595 14.7523 19.523 14.765 19.5872 14.765Z" fill="white"/>
<defs>
<radialGradient id="paint0_radial_22_944" cx="0" cy="0" r="1" gradientUnits="userSpaceOnUse" gradientTransform="translate(23.3677 9.78783) scale(5.66745 5.77124)">
<stop stop-color="#FFEAFF" stop-opacity="0.6"/>
<stop offset="0.681" stop-color="#A087C9"/>
<stop offset="1" stop-color="#10002F"/>
</radialGradient>
<radialGradient id="paint1_radial_22_944" cx="0" cy="0" r="1" gradientUnits="userSpaceOnUse" gradientTransform="translate(22.3385 10.3017) scale(20.7992 21.1802)">
<stop stop-color="#FFEAFF" stop-opacity="0.6"/>
<stop offset="0.681" stop-color="#A087C9"/>
<stop offset="1" stop-color="#10002F"/>
</radialGradient>
<linearGradient id="paint2_linear_22_944" x1="13.5057" y1="28.4182" x2="17.0337" y2="7.04586" gradientUnits="userSpaceOnUse">
<stop stop-color="#81FFFF"/>
<stop offset="0.62" stop-color="white" stop-opacity="0"/>
</linearGradient>
<linearGradient id="paint3_linear_22_944" x1="22.8665" y1="10.4833" x2="13.9193" y2="18.5394" gradientUnits="userSpaceOnUse">
<stop offset="0.289" stop-color="white"/>
<stop offset="0.78" stop-color="white" stop-opacity="0"/>
</linearGradient>
<linearGradient id="paint4_linear_22_944" x1="5.14517" y1="22.781" x2="25.3763" y2="22.781" gradientUnits="userSpaceOnUse">
<stop stop-color="#0002E9"/>
<stop offset="0.995" stop-color="#FF00C7"/>
</linearGradient>
<linearGradient id="paint5_linear_22_944" x1="26.3845" y1="18.5984" x2="15.1914" y2="28.9868" gradientUnits="userSpaceOnUse">
<stop offset="0.289" stop-color="white"/>
<stop offset="0.78" stop-color="white" stop-opacity="0"/>
</linearGradient>
<linearGradient id="paint6_linear_22_944" x1="5.14099" y1="22.781" x2="15.9522" y2="22.781" gradientUnits="userSpaceOnUse">
<stop stop-color="#000292"/>
<stop offset="0.995" stop-color="#7D00C7"/>
</linearGradient>
<linearGradient id="paint7_linear_22_944" x1="5.16824" y1="18.5803" x2="25.3585" y2="18.5803" gradientUnits="userSpaceOnUse">
<stop stop-color="#000292"/>
<stop offset="0.995" stop-color="#BE00C7"/>
</linearGradient>
</defs>
</svg>
