<svg width="32" height="32" viewBox="0 0 32 32" fill="none" xmlns="http://www.w3.org/2000/svg">
<path d="M8.47998 26.5492C9.32477 27.5117 10.3521 28.2969 11.5025 28.8595C12.653 29.4221 13.9036 29.7508 15.1819 29.8266C16.7094 29.7449 18.1504 29.0922 19.2193 27.9979C21.3281 26.1916 23.5422 24.5119 25.85 22.9679L27.1467 22.4359C28.0302 22.0308 28.8111 21.4317 29.4313 20.6832C30.081 19.8235 30.4537 18.7865 30.5 17.7099C30.3983 16.2682 29.9254 14.8774 29.1273 13.6725C27.0457 17.3815 24.0625 20.5058 20.4536 22.7565C16.8447 25.0072 12.7266 26.3117 8.47998 26.5492Z" fill="#EDE70A"/>
<path d="M11.3696 4.9091C11.9387 4.30958 12.6238 3.83202 13.3831 3.50541C14.1425 3.1788 14.9603 3.00997 15.7869 3.00918C16.3113 2.97342 16.8375 3.04236 17.3349 3.21198C17.8323 3.38159 18.2911 3.64849 18.6843 3.99714C20.8714 5.54557 23.4763 6.3951 26.1557 6.43378C26.7215 6.46808 27.275 6.6137 27.7844 6.8623C28.2938 7.11089 28.7492 7.45757 29.1244 7.88247C29.6238 8.56773 29.8902 9.39518 29.8843 10.2431C29.8235 11.4206 29.5667 12.5796 29.1244 13.6725L11.3696 4.9091Z" fill="#EBE638"/>
<path d="M8.48003 26.5489C7.5584 26.4249 6.65941 26.1689 5.81064 25.7889C4.49358 25.3719 3.36208 24.5107 2.60928 23.3523C2.19129 22.6078 1.9813 21.7645 2.00131 20.9109C2.0196 19.2955 2.40966 17.706 3.14126 16.2656C3.87099 14.4848 4.35824 12.6141 4.58995 10.7036L4.96993 9.17891C5.1413 8.36866 5.45144 7.59412 5.88664 6.88951L6.7226 5.97755C8.10862 5.10498 9.74958 4.72823 11.3774 4.90885C9.20063 8.02201 7.8016 11.6115 7.29749 15.3766C6.79338 19.1417 7.19888 22.9728 8.48003 26.5489Z" fill="#EFE812"/>
<path d="M11.3736 4.9093C13.6443 5.04134 15.8935 5.42364 18.0803 6.04925L20.2177 6.96596C18.3499 6.84883 16.4782 7.12011 14.7205 7.76267C12.9629 8.40524 11.3575 9.40515 10.0056 10.6993C8.4736 12.3854 7.36892 14.4148 6.78454 16.6168C6.20016 18.8188 6.15318 21.1289 6.64754 23.3528C5.46451 21.8641 4.86801 19.9935 4.97086 18.0947C5.07095 15.5742 5.69145 13.1016 6.79333 10.8324C7.89521 8.56328 9.45465 6.54664 11.3736 4.9093Z" fill="#DEC21C"/>
<path d="M21.5831 23.7327C23.0255 21.1118 23.6645 18.1243 23.4204 15.1427C23.1763 12.1611 22.0599 9.31727 20.2104 6.96588C22.4191 7.33461 24.4506 8.40367 26.0052 10.0153C27.2422 11.0517 28.2969 12.2879 29.1258 13.6726C27.6196 17.6751 25.0031 21.165 21.5831 23.7327Z" fill="#E5CB22"/>
<path d="M24.0219 10.3193C23.1347 8.85837 21.836 7.69185 20.2886 6.9659C18.3898 6.6313 16.4394 6.73923 14.5892 7.28129C12.7389 7.82336 11.0386 8.78495 9.62055 10.0913C7.31791 12.3457 5.97959 15.4055 5.88721 18.6266C5.90363 21.4995 6.86878 24.2864 8.63259 26.5541C10.898 26.9901 13.2259 26.9901 15.4913 26.5541C17.7251 26.2265 19.8299 25.3045 21.5853 23.8847C23.8703 21.6653 25.2541 18.6794 25.4706 15.5013C25.5207 13.6689 25.0157 11.8642 24.0219 10.324V10.3193ZM21.286 21.372C20.5784 22.1414 19.7186 22.7553 18.7611 23.1748C17.8036 23.5943 16.7694 23.8101 15.724 23.8087C14.6539 23.7943 13.5985 23.5561 12.6259 23.1095C11.6533 22.6629 10.7849 22.0176 10.0765 21.2153C8.92125 19.8274 8.30118 18.0716 8.3286 16.266C8.44171 15.0194 8.82806 13.8131 9.46018 12.7328C10.0923 11.6524 10.9547 10.7246 11.9859 10.0153C13.0759 9.22559 14.3745 8.77458 15.7193 8.71857C16.9881 8.57854 18.2686 8.84462 19.3766 9.47854C20.4914 10.227 21.4069 11.2357 22.0442 12.4175C22.6814 13.5994 23.0212 14.9186 23.034 16.2612C23.1103 18.1236 22.4829 19.9465 21.2765 21.3673L21.286 21.372Z" fill="#CCA727"/>
</svg>
