<svg width="32" height="32" viewBox="0 0 32 32" fill="none" xmlns="http://www.w3.org/2000/svg">
<path d="M18 26.4258C18 26.6078 17.9879 26.7785 17.9757 26.9521C17.6147 26.9865 17.2518 27.0023 16.8889 26.9997C15.1258 26.9995 13.3904 26.5951 11.8388 25.823C10.2872 25.0508 8.96809 23.9351 8 22.5762C8.94228 21.7097 10.175 21.163 11.4973 21.0252C11.6946 21.014 11.9223 21 12.1348 21C12.3473 21 12.5689 21.014 12.7662 21.0252C14.2062 21.1734 15.5362 21.8065 16.5014 22.803C17.4667 23.7996 18.0022 25.0896 18 26.4258Z" fill="#1E4480"/>
<mask id="mask0_22_970" style="mask-type:luminance" maskUnits="userSpaceOnUse" x="6" y="6" width="21" height="21">
<path d="M16.4999 26.9969C22.2973 26.9969 26.9969 22.2973 26.9969 16.4999C26.9969 10.7026 22.2973 6.00293 16.4999 6.00293C10.7026 6.00293 6.00293 10.7026 6.00293 16.4999C6.00293 22.2973 10.7026 26.9969 16.4999 26.9969Z" fill="#152E51"/>
</mask>
<g mask="url(#mask0_22_970)">
<path d="M17.5934 26.3848C17.5934 26.5798 17.5814 26.7628 17.5694 26.9488C17.2126 26.9856 16.8541 27.0026 16.4954 26.9998C14.7531 26.9995 13.0383 26.5662 11.505 25.7388C9.97168 24.9115 8.66809 23.7159 7.71143 22.2598C8.64259 21.3313 9.86075 20.7455 11.1674 20.5978C11.3624 20.5858 11.5874 20.5708 11.7974 20.5708C12.0074 20.5708 12.2264 20.5858 12.4214 20.5978C13.8444 20.7566 15.1587 21.435 16.1126 22.5028C17.0664 23.5707 17.5956 24.953 17.5934 26.3848Z" fill="#152E51"/>
</g>
<path d="M12 7.00302V21H11V7.63417C11.3204 7.39163 11.6546 7.18267 12 7.00302Z" fill="#003264"/>
<path d="M7.69512 25.302C5.95438 23.5607 4.76906 21.3423 4.28903 18.9273C3.80899 16.5124 4.05579 14.0093 4.99823 11.7346C5.94067 9.45995 7.53642 7.51578 9.58371 6.14795C11.631 4.78012 14.0379 4.05005 16.5001 4.05005C18.9623 4.05005 21.3692 4.78012 23.4165 6.14795C25.4638 7.51578 27.0596 9.45995 28.002 11.7346C28.9444 14.0093 29.1912 16.5124 28.7112 18.9273C28.2312 21.3423 27.0459 23.5607 25.3051 25.302C22.9682 27.6341 19.8016 28.9438 16.5001 28.9438C13.1986 28.9438 10.032 27.6341 7.69512 25.302ZM6.95412 26.046C8.84213 27.934 11.2476 29.2197 13.8663 29.7406C16.4851 30.2615 19.1995 29.9941 21.6663 28.9724C24.1331 27.9506 26.2415 26.2202 27.7249 24.0002C29.2082 21.7801 30 19.17 30 16.5C30 13.83 29.2082 11.2199 27.7249 8.99982C26.2415 6.77976 24.1331 5.04944 21.6663 4.02765C19.1995 3.00586 16.4851 2.73851 13.8663 3.25939C11.2476 3.78028 8.84213 5.06601 6.95412 6.954C5.70051 8.2076 4.70609 9.69583 4.02764 11.3337C3.34919 12.9716 3 14.7271 3 16.5C3 18.2729 3.34919 20.0284 4.02764 21.6663C4.70609 23.3042 5.70051 24.7924 6.95412 26.046Z" fill="#152E51"/>
</svg>
