<svg width="32" height="32" viewBox="0 0 32 32" fill="none" xmlns="http://www.w3.org/2000/svg">
<path d="M24.6834 19.0115C24.7614 19.0817 24.8161 19.1742 24.8399 19.2765C24.8637 19.3787 24.8555 19.4858 24.8164 19.5833C24.7581 19.7181 24.6763 19.8416 24.5749 19.948L24.2742 20.3374C24.0858 20.56 23.8454 20.7327 23.5743 20.8402C23.2707 20.9531 22.9433 20.987 22.623 20.9388C22.2814 20.8872 21.9339 20.8888 21.5928 20.9437C21.487 20.9621 21.3798 20.9703 21.2724 20.9684L19.4733 20.9979C18.936 20.9979 18.3987 20.9684 17.8615 20.9437C17.7622 20.9381 17.6643 20.9181 17.5707 20.8846C17.3475 20.81 17.1155 20.7652 16.8806 20.7515C16.644 20.7367 16.4123 20.6825 16.1806 20.6529C15.873 20.6187 15.5732 20.5338 15.2934 20.4015L14.4555 19.9825L13.7752 19.672L12.8091 19.1298C12.6662 19.0509 12.5134 18.9918 12.3606 18.9228C12.0622 18.7812 11.7811 18.6059 11.5226 18.4003L11.2811 18.213C11.179 18.1203 11.1142 17.9937 11.0988 17.8567C11.0834 17.7197 11.1184 17.5817 11.1973 17.4687C11.2156 17.4322 11.2451 17.4025 11.2814 17.3839C11.3178 17.3653 11.3591 17.3587 11.3994 17.3652C11.5689 17.385 11.7369 17.4163 11.9022 17.4588L13.2971 17.8778L14.0168 18.0503L15.3526 18.3214L16.3482 18.5235L17.4326 18.6862L18.5466 18.8439C18.729 18.8686 18.9114 18.8587 19.0987 18.8686L20.2915 18.9425L20.7844 18.977L21.5977 19.0263C22.0404 19.0298 22.483 19.01 22.9237 18.9671C23.3052 18.945 23.6772 18.839 24.013 18.6566C24.2502 18.5027 24.4545 18.3033 24.6144 18.07C24.8247 17.7905 24.9894 17.4794 25.1023 17.1483C25.1467 17.0152 25.1763 16.8723 25.2157 16.7343L25.2404 16.7145C25.3467 16.8927 25.439 17.079 25.5164 17.2715C25.5434 17.3882 25.5389 17.5099 25.5034 17.6242C25.4679 17.7385 25.4026 17.8414 25.3143 17.9222C25.0678 18.2179 24.8164 18.5071 24.5601 18.7897L24.6834 19.0115Z" fill="#A53410"/>
<path d="M22.6782 23.6844C22.5994 23.8071 22.5121 23.924 22.4169 24.0343L21.6332 24.7984L20.9086 25.4736L20.8692 25.4638L20.7607 24.6751C21.2086 24.5225 21.6174 24.2735 21.9585 23.9456C22.1021 23.8034 22.2806 23.7014 22.4761 23.6499C22.5368 23.6456 22.5977 23.6456 22.6585 23.6499L22.6782 23.6844Z" fill="#178320"/>
<path d="M23.889 10.4152L24.1453 10.8834C24.1715 10.9171 24.2052 10.9441 24.2439 10.9623C24.5609 11.1269 24.8571 11.3287 25.1262 11.5636C25.1774 11.6143 25.2206 11.6725 25.2543 11.7362C25.3628 11.9383 25.2938 12.0812 25.0621 12.1256C25.0724 12.1859 25.079 12.2468 25.0818 12.3079C25.0865 12.433 25.0815 12.5582 25.067 12.6826C25.0422 12.9587 25.0521 13.2369 25.0966 13.5106C25.1024 13.6175 25.0991 13.7247 25.0867 13.831C25.0649 14.155 24.9445 14.4646 24.7417 14.7183C24.6349 14.8506 24.5214 14.9773 24.4016 15.0978C24.3868 15.11 24.3751 15.1255 24.3674 15.1431C24.3597 15.1606 24.3562 15.1797 24.3571 15.1989C24.3581 15.218 24.3635 15.2367 24.3729 15.2533C24.3823 15.27 24.3955 15.2843 24.4114 15.295L24.7516 15.6597C24.939 15.8644 25.0742 16.1113 25.1459 16.3794C25.1576 16.4162 25.1799 16.4488 25.21 16.473C25.4573 16.7085 25.6362 17.0066 25.7275 17.3356C25.7438 17.4058 25.7461 17.4785 25.7343 17.5495C25.7225 17.6206 25.6967 17.6886 25.6585 17.7497C25.5246 17.9833 25.3549 18.1945 25.1557 18.3757C25.0452 18.499 24.9447 18.6308 24.8551 18.77C24.8462 18.7906 24.8424 18.813 24.8442 18.8353C24.8459 18.8576 24.853 18.8792 24.8649 18.8982C24.9813 19.036 25.0452 19.2106 25.0452 19.3911C25.0452 19.5715 24.9813 19.7461 24.8649 19.884L24.4706 20.3917C24.4468 20.4179 24.4309 20.4504 24.4248 20.4853C24.4187 20.5202 24.4226 20.5561 24.4361 20.5888C24.504 20.7863 24.5224 20.9974 24.4898 21.2037C24.4571 21.4099 24.3744 21.605 24.2488 21.7718C24.1238 21.9455 23.9889 22.1117 23.8446 22.2697C23.7608 22.3683 23.746 22.3978 23.8249 22.5063C23.9034 22.6427 24.0176 22.7551 24.1551 22.8316C24.5958 23.0414 25.0109 23.3011 25.3923 23.6055C25.5692 23.7442 25.7326 23.8993 25.8803 24.0688C26.1892 24.4335 26.4882 24.8065 26.7774 25.1877C26.874 25.3375 26.9596 25.4939 27.0337 25.656L27.2358 26.0158L27.6154 26.6911C27.6942 26.8488 27.7583 27.0164 27.8273 27.184C27.895 27.2971 27.929 27.4272 27.9255 27.559C27.922 27.6908 27.8811 27.8189 27.8076 27.9283C27.7306 28.0259 27.6372 28.1093 27.5316 28.1747C27.2814 28.3372 27.0213 28.4837 26.7528 28.6134C26.5106 28.7124 26.2619 28.7947 26.0085 28.8599L25.3874 29.0176C25.2038 29.0531 25.0174 29.0729 24.8304 29.0768C24.5248 29.0817 24.2241 29.0669 23.9185 29.0571L23.1151 29.0226L22.5039 28.9535L21.9765 28.8845C21.7323 28.8524 21.4983 28.7666 21.2913 28.6332L20.4977 28.1057L20.0689 27.8297C19.9433 27.7635 19.823 27.6877 19.7091 27.603C19.6372 27.5245 19.5788 27.4345 19.5366 27.3368C19.5119 27.2974 19.507 27.2431 19.4873 27.1988C19.4675 27.1544 19.4429 27.1248 19.4133 27.1199C19.3838 27.115 19.3443 27.1495 19.3246 27.1741L19.1472 27.4255C19.0496 27.566 18.9123 27.6742 18.7528 27.7361L18.112 27.9924C17.9299 28.0517 17.7438 28.0978 17.5551 28.1304C17.4182 28.1531 17.2797 28.1646 17.141 28.1649L14.6567 28.2043L13.735 28.2438L12.9562 28.3473C12.912 28.3518 12.8675 28.3535 12.8231 28.3522H11.6253L10.8367 28.3177L10.3684 28.2832L9.57975 28.1649L8.75166 28.0466C8.69987 28.037 8.64881 28.0238 8.59886 28.0072L7.57853 27.7114C7.32403 27.6459 7.08009 27.5446 6.85396 27.4107C6.73138 27.3311 6.59878 27.2681 6.45963 27.2234C6.17857 27.0996 5.9082 26.9529 5.65125 26.7847C5.34756 26.5966 5.08717 26.3463 4.88724 26.0503C4.78032 25.9137 4.68471 25.7686 4.60135 25.6165C4.50277 25.4243 4.42883 25.2173 4.34011 25.0152C4.21867 24.7136 4.13106 24.3995 4.07887 24.0787C4.02972 23.8485 4.0033 23.6141 4 23.3787C4.01728 23.1209 4.04854 22.8642 4.09365 22.6098L4.10844 22.4619L4.16759 21.9887L4.17745 21.8655L4.22674 21.2001L4.25139 20.9339L4.31546 20.3917L4.44362 19.4798L4.50277 19.1643L4.55206 18.8489L4.63093 18.1736L4.76401 17.5279L4.9316 16.9216L5.34565 15.7238C5.51817 15.3048 5.73012 14.9007 5.93221 14.4915L6.59271 13.2149C6.73628 12.9125 6.89588 12.618 7.07084 12.3326C7.17435 12.1601 7.23843 11.9678 7.33208 11.7904L7.67219 11.1989L8.16017 10.4152L8.42141 10.011C8.52767 9.86277 8.6429 9.7212 8.76645 9.58707C8.97358 9.38594 9.16017 9.16468 9.32344 8.92657C9.45238 8.75059 9.59582 8.58571 9.75227 8.43366L9.44667 8.23649C9.29693 8.16919 9.17735 8.04891 9.11093 7.89878C9.04451 7.74865 9.03593 7.57927 9.08684 7.42319L9.29879 6.50638C9.36505 6.1818 9.45399 5.86226 9.56497 5.55013C9.63878 5.35845 9.7437 5.18025 9.8755 5.02271C10.0298 4.756 10.2206 4.51212 10.4423 4.29814C10.7061 4.05681 11.0054 3.85733 11.3296 3.70664L11.7141 3.58834C11.7447 3.58281 11.7729 3.56804 11.795 3.54602C11.817 3.524 11.8318 3.49577 11.8373 3.46512C11.863 3.35329 11.9136 3.2487 11.9853 3.1591C12.0569 3.0695 12.1479 2.9972 12.2513 2.94756L13.1386 2.53844C13.5055 2.41121 13.8955 2.36414 14.2821 2.40043C14.37 2.40632 14.4556 2.43039 14.5337 2.47112C14.6118 2.51185 14.6805 2.56834 14.7356 2.63703C14.7553 2.66555 14.7838 2.6868 14.8168 2.69749C14.8497 2.70818 14.8853 2.70772 14.918 2.69617L15.401 2.58773L16.4411 2.38564C17.2437 2.21936 18.055 2.09759 18.8711 2.02089C19.2518 1.99685 19.6336 1.99356 20.0147 2.01103C20.5272 2.00972 21.036 2.09813 21.5181 2.27227L22.1342 2.49901C22.2742 2.56659 22.4064 2.64923 22.5285 2.74547C22.7124 2.8782 22.8885 3.02138 23.0559 3.1743C23.2907 3.3768 23.4862 3.62074 23.6326 3.89395C23.6721 3.97281 23.746 4.03689 23.7805 4.11576C23.8464 4.26101 23.896 4.41309 23.9284 4.56924C23.9941 4.96356 24.0483 5.35789 24.0911 5.75222L24.1946 6.96971L24.2734 7.73373L24.3326 8.44352C24.3289 8.47455 24.3363 8.50587 24.3534 8.53201C24.3706 8.55814 24.3963 8.57742 24.4262 8.58646L24.9783 8.79348C25.108 8.83028 25.2348 8.8764 25.3578 8.9315L26.6 9.62157L26.876 9.78423L27.1964 10.0011C27.2456 10.039 27.2985 10.072 27.3541 10.0997C27.5053 10.1692 27.6355 10.2773 27.7315 10.4132C27.8276 10.5491 27.8861 10.7079 27.9013 10.8736C27.9114 10.9439 27.9114 11.0152 27.9013 11.0855C27.9001 11.1742 27.8654 11.2591 27.8041 11.3231C27.7428 11.3872 27.6595 11.4256 27.571 11.4306C27.4254 11.4521 27.2768 11.4262 27.1471 11.3566L26.3634 11.0116C26.2796 10.9722 26.2007 10.9179 26.112 10.8884L25.0424 10.5433C24.8878 10.4845 24.7276 10.4416 24.5642 10.4152C24.3375 10.3954 24.1108 10.4102 23.884 10.4102L23.889 10.4152ZM24.2734 20.6776L23.9925 20.8797C23.7213 21.0736 23.399 21.1834 23.0658 21.1951C22.8834 21.1951 22.701 21.1803 22.5187 21.1705L22.1293 21.1458C22.0619 21.1424 21.9945 21.1424 21.9272 21.1458L20.3499 21.2493C19.8581 21.2636 19.366 21.2488 18.8761 21.205C18.5507 21.1803 18.2205 21.2001 17.8952 21.1951C17.8019 21.1926 17.7093 21.1793 17.6191 21.1557C17.4959 21.1261 17.3727 21.067 17.2494 21.0473L16.1897 20.9043C15.9815 20.8835 15.7764 20.8388 15.5785 20.7712C15.2039 20.6233 14.849 20.436 14.4842 20.2685L14.1195 20.0959L12.971 19.5143L12.5865 19.2974L12.0295 19.0362C11.7067 18.8527 11.4014 18.6398 11.1176 18.4003C11.0428 18.3295 10.9811 18.2461 10.9353 18.1539C10.8867 18.0675 10.8575 17.9716 10.8499 17.8729C10.8422 17.7741 10.8562 17.6749 10.8909 17.5821C10.9944 17.242 11.1472 17.104 11.4972 17.1483C11.7485 17.1864 11.9972 17.2407 12.2415 17.311L13.0991 17.5673L13.4935 17.7004C13.8188 17.7891 14.154 17.8483 14.4891 17.9025L16.165 18.2574L17.2987 18.4545L18.1367 18.5581L18.7873 18.6418L20.0196 18.6961L20.5125 18.7256L21.4885 18.7996L22.6665 18.7601C22.9653 18.7521 23.2619 18.7057 23.5489 18.6221C23.8828 18.5247 24.1711 18.3115 24.3622 18.0208C24.6479 17.6699 24.8456 17.2559 24.9389 16.8131C24.9952 16.5654 24.9528 16.3055 24.8206 16.0886L24.515 15.6696C24.4406 15.5864 24.3616 15.5074 24.2784 15.433L24.022 15.7287C23.8683 15.8754 23.6627 15.9551 23.4503 15.9506C23.332 15.9604 23.2186 15.9555 23.1003 15.9506C23.0214 15.9506 22.9623 15.9111 22.9672 15.8323C22.9685 15.8154 22.973 15.799 22.9806 15.7839C22.9883 15.7688 22.9988 15.7554 23.0116 15.7444C23.0244 15.7334 23.0393 15.7251 23.0554 15.7198C23.0715 15.7146 23.0884 15.7126 23.1052 15.714L23.6277 15.6844C23.815 15.6597 23.9037 15.5168 24.0122 15.3837H23.2975C23.2038 15.3837 23.1397 15.3295 23.1496 15.2654C23.1595 15.2013 23.2235 15.1619 23.3024 15.1668H23.746C23.8562 15.1644 23.965 15.141 24.0664 15.0978C24.43 14.893 24.7028 14.5586 24.8304 14.1613C24.8577 14.0583 24.8726 13.9524 24.8748 13.8458L24.8452 13.836L24.6283 14.0873C24.4476 14.3051 24.2155 14.4745 23.953 14.5803C23.6363 14.6911 23.3028 14.7462 22.9672 14.7429C22.4497 14.7478 21.9272 14.7232 21.4096 14.7084C21.2625 14.704 21.1159 14.6892 20.9709 14.6641L20.409 14.5408C20.2463 14.5014 20.0788 14.4373 20.0689 14.25C20.0581 14.0979 20.0852 13.9455 20.1478 13.8064C20.2708 13.5638 20.4342 13.3437 20.6308 13.1557C20.754 13.0325 20.8576 12.8945 20.9709 12.7614L21.104 12.5938C21.3854 12.3236 21.7062 12.0976 22.0553 11.9235C22.0872 11.9061 22.1226 11.896 22.1588 11.8939L23.12 11.82C23.3882 11.8227 23.6556 11.8507 23.9185 11.9038C24.0213 11.9148 24.1209 11.9462 24.2115 11.9961C24.302 12.046 24.3817 12.1135 24.4459 12.1946L24.7072 12.5692L24.8649 12.7861C24.9043 12.51 24.8909 12.229 24.8255 11.958L24.7811 11.9087C24.6054 11.7693 24.3994 11.6731 24.1798 11.6277C23.9318 11.5868 23.6816 11.5604 23.4306 11.5489L22.4349 11.5439C22.1294 11.5502 21.8293 11.6261 21.5575 11.7657C21.2457 11.9243 20.9665 12.14 20.7343 12.4016C20.685 12.4607 20.621 12.4854 20.5618 12.4213C20.5495 12.4099 20.5398 12.3959 20.5333 12.3804C20.5268 12.365 20.5237 12.3483 20.5242 12.3315C20.5247 12.3147 20.5287 12.2982 20.536 12.2831C20.5434 12.268 20.5538 12.2546 20.5667 12.2439C20.8153 11.9484 21.1254 11.7106 21.4753 11.5472C21.8251 11.3837 22.2064 11.2985 22.5926 11.2975C23.115 11.3014 23.6368 11.3359 24.1551 11.401C24.4705 11.4268 24.7661 11.565 24.9881 11.7904L25.0572 11.8298L25.0818 11.8002C25.0235 11.7354 24.9609 11.6745 24.8945 11.6179L24.4213 11.2876C24.2736 11.1778 24.1008 11.1066 23.9185 11.0806L23.2087 11.0214C22.9968 11.0165 22.7898 11.0313 22.5778 11.0461C22.2016 11.0445 21.8307 11.1359 21.4983 11.3123C21.4849 11.323 21.4693 11.3308 21.4526 11.3349C21.4359 11.3391 21.4185 11.3395 21.4016 11.3362C21.3847 11.3329 21.3687 11.326 21.3548 11.3159C21.3409 11.3058 21.3293 11.2928 21.3209 11.2778C21.3124 11.2641 21.307 11.2488 21.3049 11.2328C21.3029 11.2169 21.3042 11.2007 21.3089 11.1853C21.3135 11.1699 21.3214 11.1557 21.332 11.1436C21.3425 11.1315 21.3556 11.1218 21.3702 11.1151C21.5082 11.0324 21.6554 10.9663 21.8089 10.9179C22.2461 10.8232 22.6924 10.7769 23.1397 10.7799C23.327 10.775 23.5143 10.8095 23.7017 10.8243H23.8791L23.8988 10.7898L23.4552 10.2229C23.2554 10.0182 23.032 9.8378 22.7898 9.68565C22.696 9.61662 22.5806 9.5834 22.4644 9.592L21.7793 9.61665L20.0738 9.67087L19.9555 9.68072L19.3443 9.74973L18.6937 9.85324L18.8268 10.1046C18.99 10.3543 19.1334 10.6163 19.2556 10.8884C19.3229 11.0354 19.3334 11.2022 19.2852 11.3566C19.2791 11.3744 19.2768 11.3932 19.2785 11.4119C19.2802 11.4306 19.2858 11.4487 19.295 11.4651L19.576 11.7855C19.6741 11.8875 19.7585 12.0019 19.8274 12.1256C19.9421 12.4612 19.9808 12.8181 19.9407 13.1705C19.9368 13.1922 19.9275 13.2126 19.9137 13.2298C19.9 13.247 19.8822 13.2605 19.8619 13.2691C19.8395 13.2671 19.8178 13.2604 19.7983 13.2493C19.7787 13.2383 19.7618 13.2232 19.7485 13.205C19.7299 13.1703 19.7214 13.131 19.7239 13.0917C19.7246 12.9089 19.7147 12.7262 19.6943 12.5445C19.6752 12.3853 19.6214 12.2321 19.5366 12.096C19.384 11.9034 19.2176 11.7222 19.0387 11.5538L18.7676 11.2975C18.6786 11.1823 18.5654 11.0881 18.4359 11.0217C18.3064 10.9552 18.1638 10.9181 18.0184 10.913L17.0769 10.9081C17.0453 10.9103 17.014 10.9153 16.9833 10.9229V10.9524L17.2297 11.0461C17.5877 11.154 17.9109 11.3546 18.1663 11.6277C18.2446 11.7246 18.3303 11.8152 18.4226 11.8988C18.7269 12.1499 19.0181 12.4164 19.295 12.6973C19.5013 12.8772 19.6618 13.1036 19.7633 13.3578C19.8138 13.5332 19.8468 13.7132 19.8619 13.8951C19.8634 13.9097 19.8617 13.9245 19.8568 13.9384C19.8519 13.9522 19.844 13.9648 19.8336 13.9752C19.8232 13.9856 19.8106 13.9936 19.7967 13.9985C19.7828 14.0034 19.7681 14.0051 19.7534 14.0036C19.6894 14.0036 19.6598 13.9592 19.6499 13.9V13.8458C19.6344 13.5655 19.529 13.2975 19.3492 13.0818C19.0831 12.7959 18.7824 12.5347 18.4965 12.2636L18.1909 11.9826C17.9333 11.6593 17.5925 11.4122 17.2051 11.2679L16.308 10.9475C16.0306 10.8917 15.7461 10.88 15.4651 10.913L14.5532 10.9574C14.3525 10.9589 14.1518 10.9507 13.9519 10.9327C13.6393 10.9296 13.3287 10.983 13.0351 11.0904C12.7474 11.1773 12.4908 11.3449 12.2957 11.5735L11.7387 12.1551C11.693 12.208 11.6596 12.2703 11.6408 12.3377C11.6221 12.405 11.6185 12.4756 11.6303 12.5445C11.6352 12.6135 11.6746 12.6382 11.7387 12.6283C11.7965 12.6217 11.8521 12.6023 11.9015 12.5716C11.951 12.541 11.993 12.4997 12.0246 12.4509C12.1597 12.2283 12.3314 12.03 12.5323 11.8643C12.8674 11.6308 13.2491 11.4727 13.6512 11.401C13.9814 11.3172 14.3314 11.3073 14.6715 11.2531C15.0964 11.1957 15.5266 11.1891 15.9531 11.2334C16.0014 11.2368 16.0493 11.245 16.096 11.258C16.4313 11.356 16.7478 11.5092 17.0326 11.7115C17.226 11.8549 17.4342 11.9772 17.6536 12.0763C17.972 12.1838 18.2702 12.3438 18.5359 12.5495C18.7491 12.722 18.9125 12.9483 19.0091 13.205C19.0486 13.3233 19.1028 13.4367 19.1472 13.555L19.3443 14.0528C19.3529 14.0947 19.3712 14.1339 19.3977 14.1673C19.4243 14.2007 19.4583 14.2273 19.4971 14.2451C19.5583 14.2786 19.6107 14.326 19.6502 14.3835C19.6896 14.4411 19.7149 14.5071 19.724 14.5762C19.7331 14.6454 19.7258 14.7157 19.7027 14.7815C19.6795 14.8473 19.6412 14.9067 19.5908 14.9549C19.4154 15.1067 19.2217 15.2359 19.0141 15.3393C18.9238 15.3844 18.8408 15.4425 18.7676 15.5119C18.4423 15.8125 18.1909 16.1773 17.836 16.4533C17.5969 16.635 17.3308 16.778 17.0474 16.8772L16.2636 17.1483C16.0089 17.2812 15.7276 17.3553 15.4405 17.3652C15.3419 17.3553 15.2926 17.3258 15.2877 17.2518C15.2865 17.2336 15.2896 17.2153 15.2966 17.1985C15.3037 17.1816 15.3146 17.1666 15.3285 17.1547C15.3423 17.1427 15.3588 17.1342 15.3765 17.1296C15.3942 17.1251 15.4127 17.1248 15.4306 17.1286C15.6587 17.1253 15.883 17.0697 16.0862 16.9659L16.8748 16.6751C17.1684 16.5993 17.4424 16.4615 17.6783 16.2709L18.0332 15.9703C18.1564 15.852 18.2648 15.7238 18.3782 15.5957L18.4374 15.5119L18.3881 15.4872L17.3875 15.4527L16.8798 15.4133L16.3474 15.3492L15.3862 15.2605C15.0559 15.2387 14.7304 15.169 14.4201 15.0535C14.1727 14.9593 13.9465 14.8169 13.7547 14.6345L13.3801 14.2894L12.9907 13.9838C12.9773 13.9758 12.9657 13.9651 12.9566 13.9524C12.9475 13.9397 12.9412 13.9253 12.9379 13.91C12.9347 13.8948 12.9347 13.879 12.9378 13.8637C12.9409 13.8484 12.9472 13.8339 12.9562 13.8212C12.9617 13.8074 12.9702 13.795 12.9812 13.785C12.9921 13.775 13.0052 13.7676 13.0194 13.7633C13.0336 13.759 13.0486 13.758 13.0633 13.7604C13.0779 13.7627 13.0919 13.7683 13.1041 13.7768C13.1411 13.7917 13.1759 13.8116 13.2076 13.836C13.4354 14.0172 13.6527 14.2114 13.8582 14.4176C14.0148 14.5845 14.2069 14.7142 14.4201 14.7971C14.6641 14.9107 14.926 14.9807 15.194 15.0042C15.4898 15.0189 15.7855 15.0732 16.0862 15.1027C16.332 15.1111 16.5771 15.1325 16.8206 15.1668C17.1078 15.2082 17.3981 15.2247 17.6881 15.2161C17.8446 15.218 18.0009 15.2279 18.1564 15.2457C18.3544 15.2892 18.5611 15.2702 18.7479 15.1915C18.8563 15.1372 18.9746 15.1077 19.0781 15.0436C19.2036 14.9667 19.3224 14.8793 19.433 14.7824C19.4558 14.7657 19.4744 14.7441 19.4874 14.719C19.5003 14.694 19.5073 14.6663 19.5078 14.6382C19.5083 14.61 19.5022 14.5821 19.4901 14.5566C19.478 14.5312 19.4602 14.5089 19.438 14.4915C19.3838 14.4422 19.3295 14.4028 19.2556 14.4767C19.2159 14.5149 19.1628 14.5362 19.1077 14.5359C18.9276 14.5402 18.7514 14.5894 18.5951 14.6788C18.3282 14.7924 18.0422 14.8543 17.7522 14.8612C17.3014 14.864 16.8516 14.816 16.4115 14.7183C16.2371 14.6875 16.0644 14.648 15.8939 14.6L15.1299 14.3535L14.8342 14.2648L14.499 14.1317C14.3878 14.0867 14.2806 14.0322 14.1786 13.9691C14.089 13.902 14.0049 13.8278 13.9272 13.7472C13.7537 13.5575 13.5324 13.4179 13.2864 13.3431C12.9031 13.2232 12.5305 13.0715 12.1725 12.8896C12.0624 12.8302 11.9346 12.8127 11.8126 12.8403C11.7676 12.86 11.7184 12.8687 11.6693 12.8658C11.6202 12.8628 11.5725 12.8482 11.5302 12.8231C11.4878 12.7981 11.452 12.7634 11.4257 12.7218C11.3994 12.6802 11.3833 12.633 11.3789 12.584C11.3607 12.4845 11.3655 12.3822 11.3929 12.2848C11.4202 12.1874 11.4693 12.0976 11.5366 12.0221L12.0443 11.4848C12.3155 11.1532 12.6876 10.9195 13.1041 10.8193C13.319 10.7571 13.5409 10.7223 13.7646 10.7158L14.8687 10.7208L15.9679 10.6961L16.0763 10.6912L16.8009 10.6813H17.2938L17.7325 10.6665C17.8662 10.6692 17.9996 10.6807 18.1318 10.701C18.2371 10.7171 18.341 10.7418 18.4423 10.775C18.6286 10.8634 18.7947 10.9893 18.9303 11.1447L19.0436 11.2433L19.0831 11.2235C19.0776 11.1428 19.061 11.0632 19.0338 10.9869L18.4768 9.96661C18.4324 9.88775 18.3684 9.88775 18.2944 9.8976L17.8853 9.94197C17.7562 9.94699 17.6277 9.96182 17.5008 9.98633C17.3358 10.0246 17.1674 10.046 16.9981 10.0504L15.958 10.1391L15.9334 10.149C15.534 10.2277 15.1279 10.2673 14.7208 10.2673C14.4715 10.275 14.2221 10.2568 13.9765 10.2131C13.6889 10.1788 13.405 10.1178 13.1287 10.0307C12.8428 9.90582 12.5536 9.79081 12.2612 9.68565C11.8812 9.53529 11.537 9.30692 11.2507 9.01529C11.1571 8.92657 11.0782 8.81813 10.9254 8.83785L10.0776 8.53717C10.0437 8.51947 10.0045 8.51471 9.96727 8.52378C9.93009 8.53285 9.89747 8.55513 9.8755 8.58646C9.73238 8.7351 9.59745 8.89142 9.47131 9.05473C9.29053 9.30873 9.08765 9.54625 8.86503 9.76452C8.76239 9.87542 8.66846 9.99407 8.58407 10.1194L8.32283 10.5236C7.96683 11.0542 7.64576 11.6074 7.36165 12.1798C7.32545 12.2659 7.28431 12.3498 7.23843 12.4312C7.01351 12.7964 6.81104 13.175 6.63215 13.5649L6.3709 14.1071L5.90264 14.9943L5.54774 15.7731L5.35058 16.3104L5.21256 16.7589L4.97596 17.5377C4.94146 17.661 4.92667 17.7891 4.90696 17.9173L4.84288 18.2968L4.77387 18.8094L4.65557 19.6425L4.63093 19.7706C4.58688 19.9294 4.55232 20.0907 4.52742 20.2537L4.43376 21.1705C4.42883 21.5204 4.36968 21.8704 4.33518 22.2204L4.28589 22.6443C4.24068 22.9299 4.2127 23.2179 4.20209 23.5069C4.21669 23.7729 4.25629 24.0369 4.32039 24.2955C4.40265 24.6144 4.5064 24.9273 4.63093 25.2321C4.76657 25.582 4.96727 25.9032 5.22242 26.1785L5.33086 26.2968C5.48211 26.454 5.65667 26.587 5.84842 26.6911L6.35119 26.9671C6.53849 27.0608 6.74059 27.1248 6.91803 27.2382C7.15694 27.3805 7.41628 27.4852 7.68698 27.5487C8.08643 27.6983 8.50144 27.8025 8.92418 27.8593H8.93897L9.65369 28.0022L10.6395 28.0909L10.6937 28.0959C10.9944 28.16 11.3049 28.1205 11.6105 28.16C12.0092 28.1877 12.4092 28.191 12.8083 28.1698L12.9168 28.1649L13.7202 28.0417C13.9067 28.0198 14.0943 28.0082 14.2821 28.0072L16.722 27.9579L17.5403 27.9234C17.7083 27.9013 17.8735 27.8616 18.0332 27.8051C18.1909 27.7558 18.3486 27.6868 18.5064 27.6227C18.6235 27.5945 18.7339 27.5435 18.8312 27.4724C18.9285 27.4013 19.0108 27.3117 19.0732 27.2086C19.1233 27.1193 19.1864 27.0379 19.2605 26.9671C19.2876 26.9412 19.3088 26.9097 19.3224 26.8748C19.336 26.8399 19.3418 26.8024 19.3394 26.765C19.3255 26.6274 19.3255 26.4886 19.3394 26.351C19.3638 26.2202 19.3612 26.0857 19.3315 25.956C19.3018 25.8262 19.2458 25.704 19.1669 25.5968C18.9926 25.3056 18.7804 25.0387 18.5359 24.8032C18.3642 24.6495 18.2409 24.4491 18.1811 24.2265C18.1427 24.1257 18.1339 24.016 18.1558 23.9104C18.1776 23.8047 18.2291 23.7075 18.3043 23.6301C18.3889 23.5503 18.4814 23.4793 18.5803 23.4182C18.6818 23.3494 18.7983 23.3059 18.9201 23.2913C19.0419 23.2767 19.1653 23.2915 19.2802 23.3344C19.4189 23.3872 19.5401 23.4777 19.6302 23.5956L19.8274 23.4231C19.8964 23.3738 19.9703 23.3344 20.0443 23.29C20.0892 23.2674 20.132 23.2411 20.1724 23.2111L20.9266 22.5654C21.1719 22.3445 21.4358 22.1449 21.7152 21.969C21.9542 21.8108 22.2223 21.7019 22.5039 21.6486C22.6217 21.6201 22.7446 21.6196 22.8627 21.647C22.9807 21.6743 23.0908 21.7289 23.1841 21.8063L23.3862 21.9789L23.6672 22.2056L23.82 22.038C23.9764 21.8724 24.1076 21.6848 24.2094 21.481C24.3189 21.2312 24.3431 20.9524 24.2784 20.6874L24.2734 20.6776ZM24.1305 8.37944C24.1366 8.35862 24.14 8.33706 24.1403 8.31536L24.0763 7.74358L23.9826 6.74297L23.9284 6.00361L23.7411 4.63331C23.7282 4.48999 23.6863 4.35079 23.6179 4.2242C23.4864 3.99028 23.3312 3.77058 23.1545 3.56863C22.7895 3.11637 22.3068 2.77355 21.7596 2.57788L21.3406 2.43C21.0195 2.31732 20.6845 2.24932 20.3449 2.22791C20.0417 2.20252 19.7373 2.19265 19.433 2.19833C18.9723 2.19143 18.5118 2.22773 18.0578 2.30678L16.865 2.48915L15.3567 2.79969L13.8878 3.1743L13.6068 3.25809L12.3598 3.57849L11.4331 3.88409C11.2932 3.94298 11.1594 4.01563 11.0338 4.10097C10.8924 4.18709 10.7559 4.28088 10.6247 4.38193C10.534 4.45321 10.4514 4.5342 10.3783 4.62346C10.2759 4.74791 10.1805 4.8779 10.0924 5.01286C9.95808 5.17405 9.84996 5.35535 9.77199 5.55013L9.46638 6.5951L9.26429 7.48234C9.23898 7.55712 9.23432 7.63735 9.25081 7.71456C9.26729 7.79177 9.3043 7.8631 9.35794 7.92103C9.52823 8.09939 9.7374 8.23602 9.96915 8.32029L10.8367 8.59632C10.9034 8.62104 10.973 8.63759 11.0437 8.64561C11.0958 8.64787 11.1467 8.66245 11.1921 8.68815C11.2375 8.71385 11.2762 8.74995 11.3049 8.79348C11.523 9.06824 11.8082 9.28214 12.133 9.41455C12.3992 9.54271 12.6802 9.63143 12.9513 9.74973C13.3797 9.92181 13.8317 10.0282 14.292 10.0652C14.5861 10.0849 14.8814 10.0783 15.1743 10.0455L16.8403 9.8631C17.09 9.85449 17.3387 9.82813 17.5846 9.78423C17.6721 9.76535 17.7613 9.75544 17.8508 9.75466L18.6 9.68072L19.6992 9.51806L20.0837 9.46384L21.0104 9.43427L21.6561 9.41948C22.0087 9.3867 22.3638 9.39001 22.7158 9.42934C22.8376 9.45508 22.9612 9.47156 23.0855 9.47863C23.5052 9.4829 23.9239 9.52081 24.3375 9.592C24.6462 9.64253 24.9522 9.70833 25.2543 9.78916C25.4909 9.85324 25.7127 9.96661 25.9543 10.0159C26.2662 10.1268 26.564 10.274 26.8415 10.4546C26.8908 10.4792 26.9253 10.5285 26.8908 10.5729C26.8741 10.5873 26.8542 10.5975 26.8328 10.6027C26.8113 10.6078 26.789 10.6077 26.7676 10.6025C26.6892 10.5687 26.6134 10.5291 26.5408 10.4842C26.4742 10.4407 26.4051 10.4012 26.3338 10.3659L25.5796 10.0553L25.5304 10.0405L24.5642 9.81381L24.3424 9.76452L23.7559 9.69058C23.539 9.68072 23.3221 9.69058 23.0757 9.69058C23.3036 9.83091 23.5013 10.0152 23.6573 10.2328C23.677 10.2574 23.746 10.2673 23.7854 10.2574C24.1205 10.2004 24.4633 10.2071 24.7959 10.2771C24.9726 10.3235 25.1456 10.3828 25.3135 10.4546L26.0923 10.701L27.2605 11.2038C27.3242 11.2344 27.3924 11.2544 27.4626 11.263C27.5957 11.2728 27.6597 11.2235 27.6794 11.1151C27.7057 10.9731 27.6914 10.8266 27.6382 10.6923C27.585 10.5581 27.4951 10.4415 27.3788 10.356L26.5457 9.83845C26.3313 9.71772 26.0951 9.64066 25.8507 9.61172C25.636 9.59703 25.4232 9.56238 25.2149 9.5082C24.7529 9.38316 24.2838 9.28604 23.8101 9.21739C23.5981 9.17303 23.3763 9.15331 23.1595 9.12866L22.1342 9.03501C22.0159 9.02515 21.8927 9.03501 21.7694 9.03008L20.5322 9.01529C20.2463 9.02022 19.9605 9.06951 19.6746 9.07937C19.4058 9.07792 19.1373 9.09604 18.8711 9.13359L17.5058 9.32583C17.1819 9.3967 16.8515 9.43305 16.5199 9.43427C16.4848 9.4367 16.45 9.44332 16.4164 9.45398L15.8003 9.56242L14.7455 9.64129C14.4399 9.65115 14.1392 9.6265 13.8336 9.60679C13.4672 9.57561 13.108 9.48747 12.7689 9.34554C12.4929 9.24983 12.2335 9.11181 11.9999 8.93643C11.9359 8.88714 11.8718 8.82306 11.9211 8.74912C11.9704 8.67518 12.0492 8.71462 12.1182 8.73433C12.2955 8.79746 12.4789 8.84207 12.6654 8.86742C13.1134 8.89905 13.5637 8.87587 14.0061 8.79841L14.6617 8.65547L15.9482 8.38437C16.2039 8.30338 16.4689 8.25535 16.7368 8.24142C16.8086 8.23817 16.8797 8.2266 16.9488 8.20692C17.2887 8.12655 17.6351 8.07705 17.9839 8.05905C18.0864 8.05202 18.1885 8.03885 18.2895 8.01961C18.4914 7.98078 18.6955 7.95444 18.9007 7.94075L21.5624 7.92596C21.9341 7.93233 22.304 7.97692 22.6665 8.05905L24.0565 8.3893L24.1305 8.37944ZM22.9623 27.1791L22.7947 27.1938C22.6227 27.1957 22.4521 27.1631 22.2929 27.0979C22.1337 27.0328 21.9893 26.9363 21.868 26.8143C21.746 26.6893 21.6159 26.5724 21.4786 26.4643C21.2575 26.3042 21.0543 26.1208 20.8723 25.9172C20.7223 25.7672 20.6328 25.5671 20.621 25.3553C20.6183 25.149 20.5834 24.9445 20.5174 24.749C20.5128 24.7238 20.4993 24.701 20.4795 24.6848C20.4596 24.6685 20.4347 24.6599 20.409 24.6603C20.2938 24.653 20.1798 24.6332 20.0689 24.6011C19.9261 24.572 19.7976 24.4951 19.7044 24.3831C19.6112 24.2711 19.5589 24.1307 19.5563 23.985C19.5339 23.8563 19.4695 23.7386 19.3732 23.6503C19.2769 23.5621 19.1541 23.5081 19.0239 23.497C18.8352 23.5067 18.6572 23.5877 18.5261 23.7238C18.4604 23.7778 18.4143 23.8519 18.3947 23.9347C18.3751 24.0175 18.3832 24.1044 18.4176 24.1822C18.5092 24.4119 18.6566 24.6152 18.8465 24.7737C18.936 24.8538 19.0169 24.943 19.088 25.0398L19.4577 25.5968C19.5365 25.7167 19.5777 25.8575 19.576 26.001C19.5793 26.139 19.5776 26.2787 19.5711 26.42C19.5496 26.729 19.6038 27.0386 19.7288 27.322C19.7683 27.4116 19.8358 27.4859 19.921 27.534L20.4435 27.8544L21.1977 28.362C21.5668 28.6011 21.9952 28.7325 22.4349 28.7416L22.5137 28.7514L23.2038 28.8205L24.3917 28.8648C24.7561 28.9056 25.1248 28.8822 25.4811 28.7958L26.1514 28.6184C26.328 28.5719 26.501 28.5126 26.669 28.4409C26.9764 28.302 27.2688 28.1319 27.5414 27.9332C27.603 27.8956 27.6527 27.8415 27.685 27.777C27.7172 27.7125 27.7307 27.6402 27.7238 27.5685C27.7016 27.4336 27.6653 27.3014 27.6154 27.1741L27.3541 26.558C27.2871 26.3921 27.1975 26.2361 27.088 26.0947C26.9818 25.9706 26.8984 25.8287 26.8415 25.6757C26.7289 25.4128 26.5722 25.1711 26.3782 24.961L26.0479 24.5568L25.7226 24.1477C25.2612 23.6773 24.7206 23.2918 24.1256 23.009C24.0102 22.9533 23.9051 22.8783 23.815 22.7872C23.7324 22.6832 23.6583 22.5728 23.5932 22.457C23.5693 22.4238 23.5411 22.394 23.5094 22.3683L23.1644 22.0725C23.0549 21.9545 22.9095 21.8761 22.7508 21.8493C22.5922 21.8226 22.4291 21.8491 22.287 21.9246C21.965 22.0486 21.6641 22.2215 21.3948 22.4373L20.5076 23.2161L20.9019 23.5759C20.9598 23.6272 20.9958 23.6989 21.0022 23.776C21.0086 23.8531 20.9851 23.9297 20.9364 23.9899C20.848 24.1011 20.7507 24.2049 20.6456 24.3005C20.634 24.3112 20.6202 24.3195 20.6052 24.3246C20.5902 24.3298 20.5743 24.3317 20.5585 24.3303C20.5427 24.3289 20.5274 24.3242 20.5135 24.3165C20.4997 24.3088 20.4876 24.2983 20.478 24.2857C20.4337 24.2364 20.4534 24.1674 20.5174 24.1132L20.7294 23.9061C20.753 23.8829 20.7666 23.8515 20.7676 23.8184C20.7685 23.7853 20.7566 23.7532 20.7343 23.7287C20.6237 23.5932 20.4791 23.4895 20.3154 23.428C20.3029 23.4226 20.2895 23.4198 20.2759 23.4198C20.2624 23.4198 20.2489 23.4226 20.2365 23.428C20.0541 23.5217 19.8471 23.5907 19.7929 23.8322C19.7653 23.9312 19.7734 24.0368 19.8157 24.1305C19.8581 24.2242 19.932 24.3001 20.0245 24.3448C20.2198 24.4097 20.4253 24.4381 20.6308 24.4286C20.8115 24.4348 20.9889 24.3792 21.1336 24.2709L21.8828 23.709C22.0227 23.5684 22.2011 23.4724 22.3954 23.4329C22.7679 23.386 23.1441 23.4849 23.4453 23.709C23.5341 23.778 23.5341 23.8371 23.4453 23.9111C23.4235 23.925 23.405 23.9435 23.3911 23.9653L23.2137 24.3596C23.2478 24.342 23.2807 24.3223 23.3123 24.3005L24.0122 23.7385C24.0467 23.709 24.0861 23.6745 24.1256 23.6745C24.149 23.6754 24.1721 23.6811 24.1933 23.6913C24.2145 23.7015 24.2334 23.7159 24.2488 23.7336C24.2981 23.7977 24.2439 23.8519 24.1946 23.8913L23.4601 24.473C23.2038 24.6504 22.9376 24.7983 22.6715 24.9511C22.5181 25.0224 22.3684 25.1013 22.2229 25.1877C21.9875 25.3967 21.7949 25.6495 21.6561 25.932C21.6331 25.9815 21.6295 26.0378 21.6462 26.0897C21.6664 26.1632 21.698 26.2331 21.7399 26.2968C21.8701 26.499 22.0393 26.6733 22.2377 26.8094C22.4214 26.9196 22.6357 26.968 22.8489 26.9474C22.8975 26.9487 22.9452 26.9333 22.9838 26.9037C23.0223 26.874 23.0496 26.8321 23.0609 26.7847C23.2047 26.4571 23.3921 26.1504 23.6179 25.8729C23.7881 25.665 23.9974 25.4925 24.234 25.3652C24.2441 25.3567 24.2558 25.3505 24.2685 25.3469C24.2811 25.3433 24.2944 25.3424 24.3074 25.3442C24.3204 25.3461 24.3329 25.3507 24.344 25.3577C24.3552 25.3647 24.3647 25.3739 24.372 25.3849C24.3819 25.4055 24.3874 25.428 24.3883 25.4509C24.3891 25.4738 24.3853 25.4966 24.3769 25.518C24.3535 25.562 24.3174 25.598 24.2734 25.6215C24.0325 25.7587 23.8293 25.9535 23.6819 26.1883C23.5026 26.4287 23.3505 26.6882 23.2285 26.9622C23.1983 27.0408 23.1907 27.1262 23.2063 27.2089C23.222 27.2916 23.2604 27.3683 23.3172 27.4304C23.3349 27.4477 23.3571 27.4596 23.3813 27.465L24.1502 27.5389C24.1927 27.5452 24.2361 27.5392 24.2754 27.5218C24.3147 27.5043 24.3482 27.4761 24.372 27.4403C24.4655 27.2886 24.5819 27.1522 24.7171 27.0361L25.417 26.2968C25.4657 26.2388 25.5202 26.1859 25.5796 26.139C25.5979 26.1295 25.6182 26.1246 25.6388 26.1246C25.6594 26.1246 25.6797 26.1295 25.6979 26.139C25.7113 26.1554 25.7213 26.1743 25.7272 26.1947C25.7332 26.215 25.7349 26.2363 25.7324 26.2573C25.7324 26.2869 25.6979 26.3165 25.6733 26.3411L25.3184 26.7256L24.8403 27.2284C24.7728 27.2926 24.7101 27.3618 24.653 27.4354C24.6383 27.5142 24.6413 27.5954 24.6617 27.6729C24.6822 27.7505 24.7196 27.8226 24.7713 27.8839C24.8869 27.9382 25.0152 27.9595 25.1422 27.9456C25.2691 27.9317 25.3898 27.8831 25.4909 27.8051L25.9345 27.3072L26.3535 26.7995C26.3993 26.7504 26.4525 26.7088 26.5112 26.6763C26.5249 26.6691 26.5401 26.6651 26.5555 26.6645C26.5709 26.6639 26.5863 26.6668 26.6005 26.673C26.6147 26.6791 26.6273 26.6884 26.6375 26.7C26.6476 26.7117 26.655 26.7255 26.6591 26.7404C26.6788 26.8045 26.6394 26.8488 26.595 26.8932L26.181 27.3664C26.0707 27.5318 25.938 27.6811 25.7867 27.81L25.7324 27.8691C25.6639 27.9377 25.5897 28.0003 25.5106 28.0564C25.4085 28.1171 25.295 28.1563 25.1772 28.1715C25.0594 28.1868 24.9397 28.1778 24.8255 28.1452C24.7573 28.1317 24.6932 28.1024 24.6384 28.0595C24.5836 28.0167 24.5396 27.9616 24.51 27.8987C24.4819 27.8349 24.4588 27.769 24.441 27.7015C24.3926 27.7191 24.3432 27.7339 24.2931 27.7459C23.9843 27.7958 23.6683 27.779 23.3665 27.6966C23.2687 27.6761 23.1796 27.6257 23.1116 27.5524C23.0437 27.4791 23.0001 27.3866 22.9869 27.2875L22.9623 27.1791ZM25.2297 16.7343L25.205 16.754L25.0917 17.168C24.979 17.4993 24.8143 17.8104 24.6037 18.0898C24.4439 18.323 24.2395 18.5224 24.0023 18.6763C23.6665 18.8587 23.2945 18.9648 22.913 18.9869C22.4724 19.0297 22.0298 19.0495 21.5871 19.046C21.316 19.046 21.0449 19.0165 20.7688 18.9967L20.2759 18.9622L19.0831 18.8883L18.531 18.8637L17.417 18.7059L16.3326 18.5433L15.337 18.3412L14.0012 18.0701L13.2864 17.8976L11.8915 17.4786C11.7262 17.4361 11.5582 17.4048 11.3887 17.3849C11.3484 17.3785 11.3071 17.385 11.2708 17.4037C11.2344 17.4223 11.205 17.452 11.1866 17.4884C11.1077 17.6015 11.0727 17.7394 11.0881 17.8764C11.1035 18.0134 11.1683 18.1401 11.2704 18.2327C11.3444 18.3017 11.4331 18.3609 11.512 18.42C11.7703 18.6258 12.0515 18.8011 12.3499 18.9425L12.7985 19.1495L13.7646 19.6917C13.9864 19.81 14.223 19.8938 14.4448 20.0023L15.2827 20.4213C15.5626 20.5535 15.8624 20.6385 16.17 20.6726L16.8748 20.7712C17.1114 20.7845 17.3451 20.8293 17.5698 20.9043C17.6619 20.9374 17.7581 20.9573 17.8557 20.9635L19.4675 21.0177L21.2667 20.9881C21.374 20.99 21.4813 20.9818 21.5871 20.9635C21.9281 20.9087 22.2757 20.907 22.6172 20.9585C22.936 21.0061 23.2616 20.9722 23.5636 20.8599C23.8346 20.7522 24.075 20.5796 24.2636 20.3572L24.5642 19.9678C24.6656 19.8614 24.7474 19.7379 24.8058 19.603C24.8448 19.5056 24.853 19.3985 24.8292 19.2962C24.8054 19.1939 24.7508 19.1015 24.6727 19.0312L24.0763 19.5389C23.8995 19.7059 23.6725 19.8099 23.4306 19.8347L22.6172 19.8889L21.6758 19.9136C21.5279 19.9136 21.3308 19.8889 21.1829 19.8889C20.4804 19.9267 19.7759 19.9003 19.0781 19.81C18.6468 19.765 18.2187 19.6926 17.7966 19.5932C17.4537 19.492 17.0991 19.4357 16.7417 19.4256C16.4706 19.4256 16.1946 19.4206 15.9235 19.4108C15.8474 19.408 15.7717 19.3998 15.6968 19.3861L15.0264 19.2678C14.9149 19.2544 14.8046 19.233 14.6962 19.2038L13.6611 18.839L13.1139 18.6616C12.8196 18.607 12.5385 18.4966 12.2858 18.3362L11.926 18.0356C11.8964 18.0109 11.9063 17.9468 11.8964 17.9025C11.9444 17.888 11.9943 17.8814 12.0443 17.8828C12.0912 17.8993 12.1347 17.9244 12.1725 17.9567C12.3411 18.0738 12.5154 18.1824 12.695 18.282C12.8282 18.3317 12.9649 18.3712 13.1041 18.4003L14.223 18.77C14.4788 18.887 14.749 18.9699 15.0264 19.0165C15.1546 19.0263 15.2778 19.0657 15.406 19.0855L15.9876 19.1643L16.8453 19.189C17.2002 19.2163 17.5518 19.2774 17.8952 19.3714C18.1383 19.4272 18.3831 19.4749 18.6296 19.5143C18.7972 19.5389 18.9697 19.5439 19.1373 19.5587L20.2316 19.6425C20.4287 19.6523 20.6259 19.6178 20.8231 19.6227L21.6265 19.6671L22.5532 19.6277L23.3073 19.5981C23.4373 19.5981 23.5658 19.5709 23.6847 19.5183C23.8035 19.4657 23.9101 19.3888 23.9974 19.2925C24.0886 19.2008 24.1858 19.1152 24.2882 19.0362C24.3781 18.9711 24.4638 18.9003 24.5445 18.8242L25.2987 17.9567C25.387 17.8759 25.4523 17.7731 25.4878 17.6587C25.5233 17.5444 25.5278 17.4227 25.5008 17.3061C25.4218 17.1133 25.3279 16.9271 25.2198 16.7491L25.2297 16.7343ZM12.6062 9.05473V9.07444L12.6506 9.09909C12.8586 9.20528 13.0812 9.28003 13.3111 9.3209C13.6743 9.42143 14.0483 9.4777 14.4251 9.48849C14.6754 9.48524 14.9254 9.47044 15.1743 9.44413L16.0369 9.34554L16.727 9.25682L17.8853 9.12373L18.5162 9.01036C18.9242 8.95083 19.3362 8.92282 19.7485 8.92657L19.8027 8.92164C20.2834 8.8629 20.7678 8.83983 21.2519 8.85263L22.0307 8.87728L23.0757 8.94136L24.0023 9.07444L24.6875 9.2026L25.7472 9.44413C25.7949 9.44786 25.8429 9.44621 25.8902 9.4392L25.8606 9.38005L25.0867 9.04487C24.6819 8.91722 24.288 8.75733 23.9087 8.56674C23.7924 8.51142 23.6699 8.47005 23.5439 8.44352L22.8095 8.28086C22.31 8.13786 21.7905 8.07791 21.2716 8.10341C20.8477 8.13298 20.4238 8.12312 19.9999 8.1182C19.5971 8.11379 19.1943 8.12365 18.7923 8.14777C18.531 8.16256 18.2796 8.21185 18.0184 8.24142L17.0769 8.36465C16.8419 8.38836 16.6082 8.42455 16.377 8.47309L15.0659 8.75898C14.8194 8.79841 14.5828 8.89207 14.3413 8.94629C13.8814 9.04346 13.411 9.08156 12.9414 9.05966H12.6259L12.6062 9.05473ZM17.6734 12.3967L17.6783 12.3622L17.5748 12.3129L17.1903 12.1206L16.6777 11.7805C16.3745 11.5791 16.0211 11.4664 15.6573 11.4552C15.2505 11.4489 14.8438 11.4703 14.4399 11.5193C13.9923 11.5664 13.5521 11.6674 13.1287 11.82C13.0149 11.8605 12.9045 11.9099 12.7985 11.9678C12.5477 12.1336 12.3399 12.3566 12.1922 12.6185C12.2425 12.6788 12.3114 12.7207 12.3881 12.7377C12.4649 12.7546 12.545 12.7456 12.6161 12.7121C12.6831 12.678 12.7544 12.6531 12.828 12.6382L13.8631 12.5051L15.1349 12.4262L16.5199 12.4509L17.6684 12.4016L17.6734 12.3967ZM19.1472 14.3092C19.1406 14.231 19.1275 14.1534 19.1077 14.0775L18.8218 13.3578C18.7257 13.0915 18.5524 12.8598 18.324 12.6924C18.2755 12.6553 18.2173 12.633 18.1564 12.6283L17.6487 12.6185L16.9291 12.6628C17.0618 12.764 17.1544 12.909 17.1903 13.072C17.258 13.458 17.2118 13.8554 17.0572 14.2155C17.003 14.3289 16.934 14.4373 16.8699 14.5556L17.1164 14.5852C17.5932 14.6723 18.0848 14.6245 18.5359 14.4472C18.7189 14.3393 18.9303 14.2894 19.1422 14.3042L19.1472 14.3092ZM24.8403 13.2642L24.8846 13.2346C24.868 13.1693 24.8432 13.1064 24.8107 13.0473L24.2981 12.3622C24.2656 12.3107 24.2232 12.2663 24.1732 12.2316C24.1232 12.1968 24.0668 12.1725 24.0073 12.1601C23.7372 12.105 23.4639 12.0671 23.189 12.0467C22.9524 12.0319 22.7158 12.0664 22.4792 12.0713C22.1657 12.1075 21.8712 12.2401 21.6364 12.4509L21.6856 12.4706L23.1693 12.5495C23.4197 12.5685 23.6624 12.6443 23.8791 12.7713L24.8354 13.2593L24.8403 13.2642ZM23.2383 14.4817L23.5341 14.4422C23.7834 14.416 24.0189 14.3146 24.2094 14.1514L24.7171 13.6388C24.791 13.5599 24.7762 13.4909 24.6776 13.4367L24.5593 13.3776C24.2671 13.2693 23.9864 13.1323 23.7214 12.9684C23.5683 12.8713 23.3942 12.8122 23.2137 12.7959C23.4229 13.0254 23.5409 13.3236 23.5455 13.6341C23.55 13.9447 23.4408 14.2461 23.2383 14.4817ZM22.6813 23.6893L22.6616 23.6547C22.6009 23.6507 22.54 23.6507 22.4792 23.6547C22.2839 23.7065 22.1054 23.8085 21.9617 23.9505C21.6207 24.2785 21.2118 24.5275 20.7639 24.68L20.8723 25.4687L20.9118 25.4785L21.6364 24.8032L22.4201 24.0392C22.5138 23.9271 22.5995 23.8085 22.6764 23.6843L22.6813 23.6893ZM14.637 2.77504C14.6014 2.71736 14.5512 2.67012 14.4915 2.63809C14.4318 2.60606 14.3646 2.59039 14.2969 2.59266C14.0697 2.58891 13.8424 2.60044 13.6167 2.62717C13.3748 2.6627 13.1371 2.72214 12.9069 2.80462C12.6993 2.8869 12.501 2.99099 12.3154 3.11515C12.2198 3.19187 12.1352 3.28144 12.064 3.38132L12.0591 3.45033C12.0682 3.45884 12.0792 3.46506 12.0912 3.46849C12.1032 3.47192 12.1159 3.47245 12.1281 3.47004L12.6555 3.33203L13.6364 3.056L14.4399 2.84898C14.5086 2.82624 14.576 2.79991 14.6419 2.77011L14.637 2.77504ZM21.3751 26.0996L21.4096 26.0848C21.4011 25.9366 21.4486 25.7905 21.5427 25.6757L21.7596 25.3356C21.9023 25.1226 22.1046 24.9563 22.3412 24.8575C22.5014 24.8095 22.6382 24.7042 22.7257 24.5617C22.7908 24.4703 22.8616 24.383 22.9376 24.3005C23.0017 24.2214 23.0594 24.1373 23.1102 24.0491C23.2137 23.8568 23.1792 23.7583 22.9721 23.7238H22.9524L22.568 24.2216C22.4644 24.3399 22.3461 24.4434 22.2377 24.5518L21.3653 25.3849C21.2519 25.4884 21.1237 25.582 20.9906 25.6905L21.3751 26.0996ZM14.4842 12.6678C13.9085 12.7049 13.3357 12.7773 12.7689 12.8846L12.8428 12.929L13.3653 13.1262C13.5978 13.1877 13.8113 13.3063 13.9864 13.4712L14.016 13.4663C14.0875 13.1588 14.2508 12.8803 14.4842 12.6678ZM16.1946 13.8557C16.5052 13.8557 16.6629 13.7127 16.6629 13.4367C16.6661 13.377 16.6488 13.3181 16.6138 13.2696C16.5788 13.2212 16.5283 13.1862 16.4706 13.1705C16.3951 13.1462 16.3148 13.1407 16.2366 13.1544C16.1584 13.1682 16.0848 13.2008 16.0221 13.2494C15.9624 13.2875 15.9155 13.3426 15.8874 13.4076C15.8593 13.4726 15.8513 13.5446 15.8644 13.6142C15.8837 13.6866 15.9279 13.7499 15.9891 13.7931C16.0504 13.8364 16.1248 13.8568 16.1995 13.8508L16.1946 13.8557ZM20.8822 14.4077C20.768 13.9955 20.8137 13.5554 21.0104 13.1755C20.8905 13.2607 20.7798 13.3581 20.6801 13.4663C20.4964 13.6385 20.3721 13.8646 20.3252 14.112C20.3154 14.2402 20.3301 14.2747 20.4583 14.3092L20.8822 14.4077ZM23.0757 13.6191C23.0757 13.4022 22.9869 13.3283 22.701 13.3184C22.5975 13.3135 22.4792 13.4909 22.4842 13.6487C22.4891 13.8409 22.5975 13.9345 22.8193 13.9345C22.9968 13.9345 23.0757 13.831 23.0757 13.6191ZM14.9821 13.21C15.0076 13.2135 15.0336 13.2115 15.0583 13.2042C15.083 13.1969 15.1059 13.1845 15.1254 13.1677C15.145 13.151 15.1608 13.1303 15.1717 13.1069C15.1827 13.0836 15.1886 13.0583 15.1891 13.0325C15.1847 12.9843 15.1635 12.9392 15.1293 12.905C15.0951 12.8708 15.05 12.8496 15.0018 12.8452C14.9504 12.8495 14.9022 12.8715 14.8653 12.9075C14.8284 12.9435 14.8052 12.9912 14.7997 13.0424C14.8034 13.0881 14.8242 13.1308 14.8581 13.1619C14.8919 13.1929 14.9361 13.2101 14.9821 13.21ZM15.2679 13.6684C15.2679 13.5599 15.2187 13.4959 15.125 13.4959C15.0768 13.5 15.0312 13.5195 14.9948 13.5514C14.9584 13.5833 14.9333 13.626 14.9229 13.6733C14.9221 13.697 14.9264 13.7206 14.9354 13.7426C14.9444 13.7645 14.958 13.7843 14.9752 13.8006C14.9925 13.817 15.013 13.8294 15.0354 13.8372C15.0578 13.845 15.0816 13.8479 15.1053 13.8458C15.2088 13.8458 15.263 13.7817 15.2679 13.6684ZM21.8237 13.2198C21.821 13.1756 21.8035 13.1335 21.774 13.1004C21.7445 13.0673 21.7047 13.0451 21.661 13.0374C21.5821 13.0374 21.4885 13.1459 21.4885 13.2445C21.4907 13.2874 21.5084 13.328 21.5384 13.3588C21.5683 13.3896 21.6083 13.4085 21.6511 13.4121C21.6966 13.4032 21.7381 13.3804 21.7699 13.3469C21.8017 13.3133 21.8222 13.2706 21.8286 13.2248L21.8237 13.2198ZM21.8384 13.9493C21.8384 13.8409 21.8138 13.8162 21.7054 13.8162C21.5969 13.8162 21.5378 13.8606 21.5378 13.9592C21.5378 13.9997 21.5539 14.0386 21.5825 14.0672C21.6112 14.0959 21.6501 14.112 21.6906 14.112C21.7941 14.112 21.8384 14.0578 21.8384 13.9493Z" fill="#4A4A4A"/>
<path d="M24.1353 8.37917L24.0811 8.3841L22.6911 8.05385C22.327 7.97146 21.9553 7.92686 21.582 7.92076L18.9203 7.93555C18.7151 7.94918 18.511 7.97551 18.3091 8.01441C18.2081 8.03359 18.106 8.04676 18.0035 8.05385C17.6547 8.07188 17.3083 8.12137 16.9684 8.20172C16.8993 8.2214 16.8282 8.23298 16.7564 8.23622C16.4885 8.25015 16.2235 8.29818 15.9678 8.37917L14.6813 8.65027L14.0257 8.79321C13.5833 8.87072 13.133 8.89389 12.685 8.86222C12.5002 8.83646 12.3185 8.79187 12.1428 8.72913C12.0738 8.70942 11.99 8.66998 11.9456 8.74392C11.9013 8.81786 11.9604 8.88194 12.0245 8.93123C12.2582 9.1064 12.5176 9.24441 12.7934 9.34034C13.1326 9.48227 13.4918 9.57041 13.8581 9.60159L14.77 9.63609L15.8248 9.55722C16.0318 9.53258 16.2389 9.48329 16.441 9.44878C16.4746 9.43812 16.5093 9.4315 16.5445 9.42907C16.876 9.42788 17.2064 9.39153 17.5303 9.32063L18.8957 9.12839C19.1618 9.09084 19.4303 9.07271 19.6991 9.07417C19.985 9.06924 20.2709 9.01995 20.5568 9.01009L21.794 9.02488L22.1587 9.02981L23.184 9.12346L23.8346 9.21219C24.3083 9.28091 24.7774 9.37803 25.2394 9.503C25.4477 9.55723 25.6606 9.59189 25.8753 9.60652C26.1196 9.63546 26.3559 9.71252 26.5703 9.83325L27.4033 10.3508C27.5196 10.4363 27.6095 10.5529 27.6627 10.6872C27.7159 10.8214 27.7302 10.9679 27.704 11.1099C27.6793 11.2183 27.6202 11.2676 27.4871 11.2578C27.417 11.2491 27.3487 11.2291 27.285 11.1986L26.1168 10.6958C25.8654 10.5973 25.5992 10.5332 25.338 10.4494C25.1701 10.3776 24.9971 10.3183 24.8204 10.2719C24.4879 10.2019 24.145 10.1952 23.81 10.2522C23.7705 10.2621 23.6966 10.2522 23.6818 10.2276C23.5259 10.01 23.3281 9.82571 23.1002 9.68538H23.7804C23.9776 9.69524 24.1698 9.72974 24.367 9.75932C24.4409 9.76918 24.5148 9.79382 24.5888 9.80861L25.5549 10.0353L25.6042 10.0501L26.3583 10.3607C26.4296 10.3961 26.4987 10.4356 26.5654 10.479C26.6361 10.5255 26.7103 10.5667 26.7872 10.6022C26.8082 10.6081 26.8303 10.609 26.8517 10.6047C26.8732 10.6004 26.8933 10.5911 26.9104 10.5775C26.9449 10.5332 26.9104 10.4839 26.8611 10.4593C26.5836 10.2787 26.2858 10.1314 25.9739 10.0206C25.7373 9.97127 25.5105 9.8579 25.2739 9.79382L24.3571 9.59666C23.9419 9.52523 23.5215 9.48731 23.1002 9.48329C22.9759 9.47622 22.8523 9.45974 22.7305 9.434C22.3803 9.39332 22.0269 9.38837 21.6757 9.41921L21.03 9.434L20.1033 9.46357C19.9751 9.4685 19.847 9.49808 19.7188 9.51779L18.6196 9.68045L17.8704 9.75439C17.7809 9.75517 17.6917 9.76508 17.6042 9.78396C17.3584 9.82947 17.1097 9.85747 16.8599 9.86776C16.3073 9.95145 15.7515 10.0123 15.1939 10.0501C14.901 10.083 14.6057 10.0896 14.3116 10.0699C13.8513 10.0328 13.3993 9.92647 12.9709 9.75439L12.1526 9.41921C11.8279 9.2866 11.5428 9.07273 11.3245 8.79814C11.2958 8.75461 11.2571 8.71851 11.2117 8.69281C11.1663 8.6671 11.1154 8.65253 11.0633 8.65027C10.9926 8.6423 10.923 8.62575 10.8563 8.60098L9.98876 8.32495C9.75709 8.24052 9.54795 8.10391 9.37755 7.92569C9.32391 7.86776 9.28689 7.79643 9.27041 7.71922C9.25393 7.64201 9.25858 7.56178 9.28389 7.487L9.48599 6.59976L9.79159 5.55479C9.86919 5.35982 9.97734 5.17846 10.112 5.01751L10.3979 4.62811C10.4711 4.53899 10.5537 4.45802 10.6443 4.38659C10.7755 4.28554 10.912 4.19174 11.0534 4.10563C11.179 4.02029 11.3128 3.94764 11.4527 3.88875L12.3794 3.58314L13.6264 3.26768L13.9074 3.18388L15.3763 2.80927L16.8846 2.49874L18.0774 2.31636C18.5314 2.23732 18.9919 2.20102 19.4526 2.20792C19.7569 2.20223 20.0613 2.2121 20.3645 2.2375C20.7044 2.26049 21.0394 2.33015 21.3602 2.44452L21.7792 2.59239C22.3264 2.78806 22.8091 3.13088 23.1741 3.58314C23.3508 3.7851 23.506 4.00479 23.6375 4.23871C23.7058 4.36536 23.7477 4.50453 23.7607 4.64783L23.948 6.01812L24.0022 6.75749C24.0285 7.09267 24.0597 7.42621 24.0959 7.7581L24.1599 8.32988C24.1575 8.35014 24.1526 8.37001 24.1452 8.38903L24.1353 8.37917Z" fill="#D90118"/>
<path d="M12.6065 9.05416H12.922C13.3915 9.07601 13.862 9.03791 14.3219 8.94079L15.0464 8.75348L16.3576 8.46759C16.5888 8.41904 16.8225 8.38284 17.0575 8.35915L17.999 8.23593L18.7729 8.14227L19.9805 8.1127L21.2522 8.09791C21.7711 8.07233 22.2907 8.13228 22.7901 8.27536L23.5245 8.43802C23.6505 8.46456 23.773 8.50592 23.8893 8.56125C24.2685 8.75185 24.6625 8.91174 25.0673 9.03937C25.3335 9.12809 25.5849 9.26118 25.8412 9.37455L25.8757 9.42877C25.8284 9.43578 25.7804 9.43744 25.7328 9.4337L24.673 9.19217L23.9879 9.06402L23.0612 8.93093L22.0162 8.86685L21.2374 8.84221C20.7533 8.82941 20.2689 8.85247 19.7883 8.91121L19.739 8.91614C19.3267 8.91214 18.9147 8.94015 18.5067 8.99994C18.2947 9.02458 18.0877 9.08866 17.8758 9.11331L16.7174 9.24639L16.0273 9.33512L15.1647 9.4337L14.4155 9.47806C14.0388 9.46728 13.6648 9.41101 13.3015 9.31047C13.0719 9.27124 12.8493 9.19815 12.641 9.09359L12.5967 9.06895L12.6065 9.05416Z" fill="#D90118"/>
<path d="M17.6735 12.3965L16.525 12.4458C16.0666 12.4507 15.6032 12.4162 15.1448 12.4211L13.8731 12.5L12.838 12.6331C12.7643 12.6478 12.6929 12.6727 12.6261 12.707C12.555 12.7405 12.4748 12.7495 12.3981 12.7326C12.3214 12.7156 12.2525 12.6737 12.2021 12.6134C12.3499 12.3515 12.5577 12.1285 12.8084 11.9627C12.9143 11.9046 13.0248 11.8552 13.1387 11.8149C13.562 11.6621 14.0022 11.5611 14.4498 11.5142C14.8537 11.4652 15.2605 11.4438 15.6673 11.4501C16.0311 11.4613 16.3845 11.574 16.6876 11.7754L17.2003 12.1155C17.3235 12.1895 17.4566 12.2437 17.5847 12.3078L17.6882 12.3571L17.6735 12.3965Z" fill="#178320"/>
<path d="M19.1439 14.3094C18.932 14.2946 18.7206 14.3444 18.5376 14.4523C18.0865 14.6296 17.5949 14.6774 17.118 14.5903L16.8716 14.5607L17.0589 14.2206C17.2135 13.8605 17.2597 13.4631 17.192 13.0771C17.1565 12.9139 17.0638 12.7688 16.9307 12.668L17.6504 12.6236L18.1581 12.6335C18.219 12.6381 18.2772 12.6604 18.3257 12.6975C18.5543 12.8647 18.7277 13.0965 18.8235 13.363L19.1094 14.0826C19.1308 14.1584 19.1456 14.2359 19.1538 14.3143L19.1439 14.3094Z" fill="white"/>
<path d="M24.8406 13.264L23.8843 12.776C23.6677 12.649 23.4249 12.5732 23.1746 12.5542L21.6909 12.4753L21.6416 12.4556C21.8765 12.2448 22.171 12.1122 22.4845 12.076L23.1943 12.0514C23.4692 12.0717 23.7424 12.1096 24.0125 12.1648C24.072 12.1775 24.1283 12.2019 24.1782 12.2366C24.2281 12.2713 24.2707 12.3156 24.3033 12.3669L24.8159 13.052C24.8484 13.1111 24.8732 13.174 24.8899 13.2393L24.8406 13.264Z" fill="#178320"/>
<path d="M23.2355 14.4766C23.4387 14.2417 23.5488 13.9405 23.5452 13.63C23.5415 13.3194 23.4244 13.0209 23.2158 12.7908C23.3963 12.8073 23.5704 12.8664 23.7235 12.9634C23.9885 13.1274 24.2692 13.2644 24.5615 13.3725L24.6798 13.4316C24.7783 13.4858 24.7931 13.5548 24.7192 13.6337L24.2115 14.1463C24.0193 14.3089 23.7819 14.4086 23.5313 14.4322L23.2355 14.4766Z" fill="white"/>
<path d="M15.0906 7.18339C15.0466 7.20326 15.0016 7.2208 14.9558 7.23596L14.4202 7.37398L13.7663 7.558L13.4147 7.65001C13.4065 7.65161 13.3981 7.65126 13.3901 7.64897C13.3821 7.64669 13.3747 7.64254 13.3687 7.63686L13.3719 7.59086C13.4195 7.52435 13.4758 7.46465 13.5395 7.41341C13.6633 7.33064 13.7955 7.26125 13.9339 7.20639C14.0873 7.15157 14.2458 7.11195 14.4071 7.08809C14.5586 7.07011 14.7112 7.06243 14.8638 7.06509C14.909 7.06357 14.9537 7.07402 14.9935 7.09537C15.0334 7.11672 15.0668 7.14493 15.0906 7.18339Z" fill="#D90118"/>
<path d="M14.481 12.6675C14.2476 12.88 14.0843 13.1585 14.0127 13.466L13.9831 13.4709C13.8081 13.306 13.5946 13.1874 13.362 13.1259L12.8396 12.9287L12.7656 12.8844C13.3324 12.777 13.9053 12.7046 14.481 12.6675ZM16.1914 13.8554C16.1166 13.8614 16.0422 13.841 15.9809 13.7978C15.9197 13.7546 15.8755 13.6912 15.8562 13.6188C15.8431 13.5492 15.8511 13.4773 15.8792 13.4123C15.9073 13.3473 15.9542 13.2922 16.0139 13.254C16.0766 13.2054 16.1503 13.1728 16.2284 13.1591C16.3066 13.1453 16.3869 13.1509 16.4625 13.1752C16.5201 13.1909 16.5706 13.2259 16.6056 13.2743C16.6406 13.3227 16.6579 13.3817 16.6547 13.4414C16.6547 13.7174 16.492 13.8603 16.1864 13.8603L16.1914 13.8554ZM20.8789 14.4075L20.4501 14.299C20.322 14.2694 20.3121 14.23 20.317 14.1019C20.3645 13.8561 20.4888 13.6317 20.6719 13.4611C20.7717 13.3545 20.8824 13.2586 21.0022 13.1752C20.8055 13.5551 20.7647 13.9952 20.8789 14.4075ZM23.0724 13.6188C23.0724 13.8357 22.9935 13.9293 22.8161 13.9293C22.5943 13.9293 22.4858 13.8357 22.4809 13.6434C22.476 13.4906 22.5992 13.3083 22.6978 13.3132C22.9837 13.328 23.0724 13.397 23.0724 13.6139V13.6188ZM14.9788 13.2097C14.9321 13.2098 14.8871 13.1919 14.8532 13.1598C14.8193 13.1277 14.7989 13.0838 14.7964 13.0372C14.802 12.9859 14.8252 12.9383 14.862 12.9023C14.8989 12.8663 14.9472 12.8443 14.9985 12.84C15.0467 12.8444 15.0918 12.8656 15.126 12.8998C15.1603 12.934 15.1814 12.9791 15.1858 13.0273C15.1854 13.0531 15.1794 13.0784 15.1685 13.1017C15.1575 13.125 15.1417 13.1458 15.1222 13.1625C15.1026 13.1793 15.0797 13.1917 15.055 13.199C15.0303 13.2063 15.0043 13.2132 14.9788 13.2097ZM15.2598 13.6681C15.2598 13.7815 15.1957 13.8505 15.0922 13.8455C15.0685 13.8476 15.0447 13.8447 15.0223 13.8369C14.9999 13.8291 14.9794 13.8167 14.9621 13.8004C14.9449 13.784 14.9313 13.7643 14.9223 13.7423C14.9133 13.7204 14.909 13.6967 14.9098 13.673C14.9201 13.6257 14.9453 13.583 14.9817 13.5511C15.018 13.5192 15.0637 13.4997 15.1119 13.4956C15.2006 13.4956 15.2548 13.5596 15.2548 13.6681H15.2598ZM21.8204 13.2195C21.8144 13.2647 21.7946 13.3069 21.7637 13.3404C21.7328 13.3739 21.6924 13.3971 21.6479 13.4068C21.6051 13.4033 21.565 13.3844 21.5351 13.3536C21.5052 13.3228 21.4875 13.2821 21.4852 13.2393C21.4852 13.1407 21.5789 13.0322 21.6577 13.0322C21.7014 13.0399 21.7412 13.0621 21.7707 13.0952C21.8002 13.1283 21.8177 13.1753 21.8204 13.2195ZM21.8303 13.954C21.8303 14.0624 21.7859 14.1117 21.6824 14.1117C21.6419 14.1117 21.603 14.0956 21.5743 14.067C21.5457 14.0383 21.5296 13.9994 21.5296 13.9589C21.5296 13.8603 21.5838 13.816 21.6972 13.816C21.8105 13.816 21.8303 13.8455 21.8303 13.954Z" fill="white"/>
</svg>
