<svg width="32" height="32" viewBox="0 0 32 32" fill="none" xmlns="http://www.w3.org/2000/svg">
<path fill-rule="evenodd" clip-rule="evenodd" d="M9.81344 5.10615C10.5483 4.39658 11.5299 4 12.5514 4C13.573 4 14.5546 4.39658 15.2894 5.10615L18.9057 8.63972C19.2755 9.0062 19.5691 9.44233 19.7695 9.92292C19.9699 10.4035 20.073 10.919 20.073 11.4397C20.073 11.9604 19.9699 12.4759 19.7695 12.9565C19.5691 13.4371 19.2755 13.8732 18.9057 14.2397L12.6083 20.4131L17.1182 24.8404C17.5306 25.2426 17.7664 25.792 17.7737 26.368C17.7809 26.944 17.5591 27.4992 17.157 27.9116C16.7548 28.324 16.2053 28.5598 15.6294 28.5671C15.0534 28.5743 14.4982 28.3525 14.0858 27.9504L3.16475 17.267C2.79566 16.9006 2.50272 16.4648 2.30282 15.9847C2.10292 15.5046 2 14.9897 2 14.4696C2 13.9495 2.10292 13.4346 2.30282 12.9545C2.50272 12.4744 2.79566 12.0386 3.16475 11.6722L9.81344 5.10615ZM9.50348 17.3497L15.5219 11.4397L12.5308 8.52607L6.50718 14.4309L9.50348 17.3497Z" fill="#4A4A4A"/>
<path fill-rule="evenodd" clip-rule="evenodd" d="M18.8684 8.09718C19.6033 7.38761 20.5849 6.99103 21.6064 6.99103C22.6279 6.99103 23.6096 7.38761 24.3444 8.09718L27.9607 11.6359C28.3297 12.0023 28.6227 12.4381 28.8226 12.9182C29.0225 13.3983 29.1254 13.9133 29.1254 14.4333C29.1254 14.9534 29.0225 15.4683 28.8226 15.9484C28.6227 16.4285 28.3297 16.8644 27.9607 17.2307L17.0396 27.9193C16.6272 28.3214 16.072 28.5432 15.496 28.536C14.9201 28.5287 14.3706 28.2929 13.9684 27.8805C13.5663 27.4681 13.3445 26.9129 13.3517 26.3369C13.359 25.7609 13.5948 25.2115 14.0072 24.8093L18.5171 20.3769L15.2884 17.1894C14.9193 16.823 14.6263 16.3872 14.4264 15.9071C14.2265 15.427 14.1236 14.9121 14.1236 14.392C14.1236 13.8719 14.2265 13.357 14.4264 12.8769C14.6263 12.3968 14.9193 11.961 15.2884 11.5946L18.8684 8.09718ZM21.6271 17.3444L24.6182 14.4307L21.6219 11.5171L18.6308 14.4307L21.6271 17.3444Z" fill="#575756"/>
<path opacity="0.95" d="M18.6278 14.4305L15.4404 11.4394L12.4131 14.4357L15.523 17.5043L18.6278 14.4305Z" fill="#3C3C3B"/>
</svg>
