<svg width="32" height="32" viewBox="0 0 32 32" fill="none" xmlns="http://www.w3.org/2000/svg">
<path d="M24.9999 11.6421C25.0036 12.936 24.712 14.2136 24.1476 15.3779C23.5831 16.5421 22.7605 17.5623 21.7424 18.3608C21.4368 18.6334 21.1027 18.8723 20.7459 19.0733L20.6387 19.1376C19.3309 19.898 17.8439 20.2956 16.3311 20.2896H10.6518V28.428C10.6151 28.8104 10.4304 29.1634 10.1371 29.4116C9.84387 29.6598 9.46527 29.7836 9.08202 29.7567C8.69984 29.7863 8.32154 29.663 8.03022 29.4138C7.73889 29.1647 7.55836 28.8101 7.52827 28.428V18.784L7.50684 18.7626V18.7412L7.52827 18.5161C7.55924 18.1632 7.71775 17.8336 7.97415 17.589C8.23054 17.3445 8.56725 17.2017 8.92129 17.1874C8.98013 17.1689 9.04192 17.1617 9.10345 17.166H16.3311C17.7947 17.166 19.1983 16.5846 20.2332 15.5496C21.2682 14.5147 21.8496 13.1111 21.8496 11.6475C21.8496 10.1839 21.2682 8.78023 20.2332 7.74531C19.1983 6.71039 17.7947 6.12898 16.3311 6.12898H9.08202C8.87657 6.12898 8.67313 6.08852 8.48332 6.00989C8.29351 5.93127 8.12105 5.81603 7.97577 5.67076C7.8305 5.52549 7.71526 5.35302 7.63664 5.16321C7.55802 4.9734 7.51755 4.76996 7.51755 4.56451C7.51755 4.35907 7.55802 4.15563 7.63664 3.96582C7.71526 3.77601 7.8305 3.60354 7.97577 3.45827C8.12105 3.313 8.29351 3.19776 8.48332 3.11914C8.67313 3.04051 8.87657 3.00005 9.08202 3.00005H16.3311C17.842 2.99493 19.3271 3.39255 20.6334 4.15197L20.7673 4.23769C21.1189 4.43652 21.4462 4.67566 21.7424 4.95027C22.7593 5.7438 23.5815 6.75922 24.146 7.919C24.7106 9.07878 25.0027 10.3522 24.9999 11.6421Z" fill="#353046"/>
<path d="M16.2012 11.6424C16.1964 11.4893 16.1611 11.3386 16.0973 11.1992C16.0336 11.0598 15.9427 10.9346 15.8299 10.8308C15.7171 10.727 15.5848 10.6468 15.4406 10.5948C15.2965 10.5428 15.1434 10.5201 14.9903 10.528H7.23229C6.92136 10.5134 6.61728 10.6224 6.38641 10.8312C6.15555 11.04 6.01664 11.3316 6 11.6424C6.0068 11.7964 6.04427 11.9474 6.11022 12.0867C6.17617 12.2259 6.26926 12.3506 6.38404 12.4534C6.49883 12.5562 6.63298 12.6351 6.77864 12.6853C6.9243 12.7356 7.07853 12.7563 7.23229 12.7461H14.9903C15.1427 12.7548 15.2952 12.733 15.439 12.6819C15.5828 12.6308 15.715 12.5516 15.8277 12.4488C15.9405 12.346 16.0316 12.2217 16.0958 12.0833C16.1599 11.9448 16.1957 11.7949 16.2012 11.6424Z" fill="#353046"/>
</svg>
