<svg width="32" height="32" viewBox="0 0 32 32" fill="none" xmlns="http://www.w3.org/2000/svg">
<path d="M16 30C23.732 30 30 23.732 30 16C30 8.26801 23.732 2 16 2C8.26801 2 2 8.26801 2 16C2 23.732 8.26801 30 16 30Z" fill="#4A4A4A"/>
<path d="M14.6739 8.05151H19.3114V8.71651H14.6704L14.6739 8.05151Z" fill="#46C000"/>
<path d="M25.2734 12.6889H25.9069C25.9394 13.0075 25.9476 13.3281 25.9314 13.6479C25.9384 13.9734 25.9314 14.3024 25.9314 14.6524H25.3014C25.2314 15.0969 25.3014 15.5274 25.2524 15.9999H24.6084V15.3349H23.9434V14.6769H24.6084V14.0119H25.2734V12.6889Z" fill="#40686B"/>
<path d="M17.9855 23.9485H17.3485L17.3065 24.61H16.6625V22.9685C16.666 22.6325 16.6485 22.293 16.673 21.9605H17.324V23.2835H17.989L17.9855 23.9485Z" fill="#46C000"/>
<path d="M10.0356 9.37439V8.71289H12.6851V9.37789L10.0356 9.37439Z" fill="#A7EC00"/>
<path d="M6.72655 14.6769H6.08955C6.05727 14.3571 6.04908 14.0354 6.06505 13.7144C6.05805 13.3889 6.06505 13.0599 6.06505 12.6889H6.72655V14.6769Z" fill="#379C00"/>
<path d="M19.312 8.71289H21.3V9.37789H19.312V8.71289Z" fill="#46C000"/>
<path d="M14.6721 8.05151V8.71651H12.6841V8.05151H14.6721Z" fill="#A7EC00"/>
<path d="M24.6084 16V17.3265H23.9434V16H24.6084Z" fill="#40686B"/>
<path d="M16.66 24.6099V25.2504L16.03 25.2714H15.3335V24.6099H16.66Z" fill="#2D7B00"/>
<path d="M7.38814 16.0002H6.72314V15.3352H7.38814V16.0002Z" fill="#379C00"/>
<path d="M7.38814 15.3348H6.72314V14.6768H7.38814V15.3348ZM7.38814 16.6648V15.9998H8.04964V16.6648H7.38814Z" fill="#A7EC00"/>
<path d="M25.2749 12.0275V12.689H24.6099V12.024L25.2749 12.0275Z" fill="#40686B"/>
<path d="M6.72314 12.689V12.024H7.38814V12.689H6.72314Z" fill="#46C000"/>
<path d="M25.2749 12.0277H24.6099V11.3627H25.2749V12.0277Z" fill="#2D7B00"/>
<path d="M7.38814 12.0274H6.72314V11.3624H7.38814V12.0274ZM21.2971 9.37439V8.71289H21.9586V9.37789L21.2971 9.37439Z" fill="#379C00"/>
<path d="M23.9434 10.7009H24.6084V11.3659H23.9434V10.7009Z" fill="#2D7B00"/>
<path d="M7.39014 11.3624V10.7009H8.05164V11.3659L7.39014 11.3624Z" fill="#46C000"/>
<path d="M8.71139 17.9882H8.04639V17.3232H8.71139V17.9882Z" fill="#A7EC00"/>
<path d="M23.9452 17.3232V17.9882H23.2837V17.3232H23.9452Z" fill="#40686B"/>
<path d="M9.37439 18.6496H8.71289V17.9846H9.37789L9.37439 18.6496Z" fill="#A7EC00"/>
<path d="M23.2837 10.0395H23.9487V10.701H23.2837V10.0395Z" fill="#379C00"/>
<path d="M23.2821 17.9881V18.6496H22.6206V17.9846L23.2821 17.9881Z" fill="#40686B"/>
<path d="M10.037 19.3109H9.37549V18.6494H10.0405L10.037 19.3109Z" fill="#A7EC00"/>
<path d="M8.05029 10.7011V10.0361H8.71179V10.7011H8.05029ZM22.6208 18.6496V19.3146H21.9593V18.6496H22.6208Z" fill="#46C000"/>
<path d="M10.0356 19.9761V19.3111H10.7006V19.9761H10.0356Z" fill="#A7EC00"/>
<path d="M22.6206 9.37469H23.2856V10.0397H22.6206V9.37469Z" fill="#379C00"/>
<path d="M21.9609 19.3111H22.6259V19.9761H21.9609V19.3111Z" fill="#40686B"/>
<path d="M10.0356 19.976H10.7006V20.6375H10.0356V19.976Z" fill="#379C00"/>
<path d="M22.6224 9.37469V10.0397H21.9609V9.37469H22.6224Z" fill="#46C000"/>
<path d="M21.9594 19.9761V20.6376H21.2944V19.9726L21.9594 19.9761Z" fill="#40686B"/>
<path d="M11.3637 21.2989H10.6987V20.6339H11.3637V21.2989Z" fill="#379C00"/>
<path d="M21.2998 20.6373V21.2989H20.6348V20.6339L21.2998 20.6373Z" fill="#40686B"/>
<path d="M12.0233 21.9606H11.3618V21.2991H12.0268L12.0233 21.9606Z" fill="#379C00"/>
<path d="M20.6337 21.2991V21.9641H19.9722V21.2991H20.6337Z" fill="#40686B"/>
<path d="M12.6864 22.6255H12.0249V21.9605H12.6899L12.6864 22.6255Z" fill="#379C00"/>
<path d="M9.37549 9.37469H10.0405V10.0397H9.37549V9.37469Z" fill="#A7EC00"/>
<path d="M9.37439 9.37469V10.0397H8.71289V9.37469H9.37439Z" fill="#46C000"/>
<path d="M19.9735 21.9605V22.6255H19.312V21.9605H19.9735Z" fill="#40686B"/>
<path d="M13.3491 23.2869H12.6841V22.6219H13.3491V23.2869Z" fill="#379C00"/>
<path d="M19.31 22.6254V23.2869H18.645V22.6219L19.31 22.6254Z" fill="#40686B"/>
<path d="M14.0127 23.9487H13.3477V23.2837H14.0127V23.9487Z" fill="#379C00"/>
<path d="M14.0112 23.9487V23.2837H14.6762V23.9487H14.0112Z" fill="#A7EC00"/>
<path d="M17.9858 23.9487V23.2837H18.6508V23.9487H17.9858Z" fill="#40686B"/>
<path d="M15.3353 24.61H14.6738V23.9485H15.3353V24.61Z" fill="#A7EC00"/>
<path d="M7.39022 16.6648H8.05172V17.3228H7.38672L7.39022 16.6648Z" fill="#379C00"/>
<path d="M21.959 9.37439V10.0394H23.282V11.3449L22.6205 11.3904V12.0274H21.2975V12.6924H18.648V13.3504H15.9985V12.6854H14.0105V12.0449L13.3245 11.9994V11.3589H12.7085V10.0359H13.3525V9.37789H15.897C15.9177 9.37546 15.9372 9.36693 15.953 9.35339C15.9697 9.33982 15.9849 9.32457 15.9985 9.30789V8.71289H19.3095V9.37789L21.959 9.37439Z" fill="#A7EC00"/>
<path d="M15.9999 8.71289V9.30789C15.9863 9.32457 15.9711 9.33982 15.9544 9.35339C15.9382 9.36567 15.9187 9.37297 15.8984 9.37439H13.3574V10.0324H12.7099V11.3589H13.3259V11.9994L14.0119 12.0449V12.6854H11.3624V12.0344C10.8899 12.0064 10.4594 12.0519 10.0149 11.9994V11.3799C9.56689 11.3344 9.13289 11.4044 8.71289 11.3344V10.0394H10.0359V9.37439H12.6854V8.71289H15.9999Z" fill="#E8FE6F"/>
<path d="M24.6086 12.6889H25.2736V14.0119H24.6086V12.6889ZM23.9436 14.6769V15.3384H22.6206V14.6734L23.9436 14.6769Z" fill="#46C000"/>
<path d="M24.6084 16.0002H23.9434V15.3352H24.6084V16.0002Z" fill="#2D7B00"/>
<path d="M24.6084 14.012V14.677H23.9434V14.012H24.6084Z" fill="#46C000"/>
<path d="M17.3215 21.9603H16.6705C16.646 22.2928 16.6635 22.6323 16.66 22.9683V23.9483H15.9985V21.6488C15.9985 20.8683 16.009 20.0913 15.9915 19.3143H15.3335V16.6648H18.648V17.9878H17.983V19.9758H17.3215V21.9603Z" fill="#50A452"/>
<path d="M18.6493 23.287H17.3228V21.9605H17.9878V22.6255H18.6493V23.287Z" fill="#2D7B00"/>
<path d="M16 23.9485H16.665V24.61H16V23.9485Z" fill="#A7EC00"/>
<path d="M7.38814 15.3351V14.6771H6.72314V13.3506H7.36714L7.40914 14.0156H8.04964V14.6946H9.39014V15.3526H11.3711V16.0001H14.0101V16.6651H12.0221V18.6496H11.3431V17.3021H10.7131L10.6676 16.6371H10.0516L10.0026 15.9721H8.72864L8.67964 15.3386L7.38814 15.3351Z" fill="#F7F3E3"/>
<path d="M8.04964 14.0119H7.41264L7.36714 13.3504H6.72314V12.6854H7.38814V11.3624H8.05314V10.7009H8.71464V11.3344C9.13464 11.4044 9.56514 11.3344 10.0131 11.3799V12.0029C10.4611 12.0554 10.8916 12.0064 11.3606 12.0344V12.6889H10.0551L10.0131 13.3714H8.72864L8.68664 14.0119H8.04964Z" fill="#A7EC00"/>
<path d="M23.9452 16V16.665H23.2837V16H23.9452Z" fill="#2D7B00"/>
<path d="M23.2837 16.6648H23.9487V17.3228H23.2837V16.6648Z" fill="#46C000"/>
<path d="M16.0001 23.9487V24.6102H15.3351V23.9487H14.6736V23.2837H15.3351V19.3147H15.9896C16.0071 20.0917 15.9931 20.8722 15.9966 21.6527L16.0001 23.9487ZM7.39014 15.3352H8.68514L8.73414 15.9757H10.0081L10.0571 16.6407H10.6731L10.7186 17.3057H11.3416V18.6497H12.0241V19.9762H13.3646V21.3097H14.0121V22.6257H13.3471V21.9607H12.6891V21.2992H12.0241V20.6342H11.3626V19.9762H10.6976V19.3112H10.0396V18.6497H9.37464V17.9847H8.71314V17.3232H8.04814V16.0002H7.39014V15.3352Z" fill="#E8FE6F"/>
<path d="M24.6104 14.0122H23.9454V14.6772H23.2874V14.0332L22.6014 13.9877V13.3682L21.9609 13.3262V12.6892H22.6259V12.0242H23.9489V11.3627H24.6104V14.0122Z" fill="#379C00"/>
<path d="M23.9436 11.3624V12.0274H22.6206V11.3869L23.2856 11.3449V10.7009H23.9471L23.9436 11.3624Z" fill="#E8FE6F"/>
<path d="M23.2821 17.9882H22.6206V17.3232H23.2856L23.2821 17.9882Z" fill="#46C000"/>
<path d="M22.6224 18.6496H21.9609V17.9846H22.6259L22.6224 18.6496Z" fill="#2D7B00"/>
<path d="M22.6214 17.988H21.9564V19.311H21.2984V19.976H20.6334V20.6375H19.9719V21.299H19.3069V21.964H18.6489V20.634H19.3174V19.3005H19.9894V18.632H20.6194L20.6649 17.9635H21.3054V17.3125H21.9774V16.679L22.6249 16.644V16H23.2864V17.3265H22.6214V17.988Z" fill="#40686B"/>
<path d="M21.2974 19.9761V19.3111H21.9589V19.9761H21.2974Z" fill="#46C000"/>
<path d="M10.7022 19.976H11.3637V20.6375H10.6987L10.7022 19.976Z" fill="#A7EC00"/>
<path d="M20.6348 20.6376V19.9726H21.2998V20.6376H20.6348Z" fill="#46C000"/>
<path d="M11.3618 20.6373H12.0268V21.2988H11.3618V20.6373Z" fill="#A7EC00"/>
<path d="M19.9722 21.2989V20.6339H20.6372V21.2989H19.9722Z" fill="#2D7B00"/>
<path d="M12.0249 21.2991H12.6899V21.9641H12.0249V21.2991Z" fill="#A7EC00"/>
<path d="M19.312 21.9606V21.2991H19.977V21.9641L19.312 21.9606Z" fill="#2D7B00"/>
<path d="M12.6841 21.9605H13.3491V22.6255H12.6841V21.9605Z" fill="#A7EC00"/>
<path d="M18.6485 21.9605H19.31V22.6255H18.645L18.6485 21.9605Z" fill="#2D7B00"/>
<path d="M13.3512 22.6253H14.0127V23.2868H13.3477L13.3512 22.6253Z" fill="#A7EC00"/>
<path d="M14.0112 23.287V22.622H14.6762V23.287H14.0112ZM15.9992 13.3505H18.6487V14.0155H15.9992V13.3505ZM18.6487 13.3505V12.6855H21.2982V13.3505H18.6487ZM14.0112 12.689H15.9992V13.3505H14.0112V12.689ZM22.6212 12.0275V12.689L21.2982 12.6855V12.024L22.6212 12.0275Z" fill="#E8FE6F"/>
<path d="M14.0113 12.689V13.3505H11.3618V12.6855L14.0113 12.689Z" fill="#F7F3E3"/>
<path d="M21.2984 12.6889H21.9599V13.3259L22.6004 13.3679V13.9874L23.2829 14.0329V14.6769H22.6214V15.3384H20.6334V15.9999H18.6489V14.6944L19.3314 14.6489V14.0329L19.9719 13.9874V13.3504H21.2984V12.6889Z" fill="#2D7B00"/>
<path d="M23.2821 16.0002H22.6206V15.3352H23.2856L23.2821 16.0002Z" fill="#2D7B00"/>
<path d="M23.2837 16.0002V15.3352H23.9487V16.0002H23.2837Z" fill="#40686B"/>
<path d="M14.0112 16.665V16H17.3222V16.665H15.3342V19.311H14.6727V16.77C14.6714 16.7486 14.6641 16.728 14.6517 16.7105L14.6132 16.665H14.0112Z" fill="#E8FE6F"/>
<path d="M17.3228 16.665V16H20.6373V16.679H19.3038V17.988H18.6493V16.6615L17.3228 16.665ZM17.9843 19.976V17.988H18.6493V19.976H17.9843ZM17.9843 21.9605H17.3228V19.976H17.9843V21.9605Z" fill="#46C000"/>
<path d="M18.6508 21.9605V22.6255H17.9858V21.9605H18.6508Z" fill="#40686B"/>
<path d="M14.0129 16.6649H14.6149L14.6534 16.7069C14.6658 16.7244 14.6731 16.745 14.6744 16.7664V19.3109H15.3359V23.2869H14.6744V22.6219H14.0094V21.3094H13.3654V19.9759H12.6864V18.6494H12.0249V16.6614L14.0129 16.6649Z" fill="#A7EC00"/>
<path d="M11.3641 12.6889V13.9944L12.0501 14.0364V14.6559L12.7116 14.7014V15.3174L13.3521 15.3629V15.9999H11.3746V15.3524H9.39364V14.6944H8.05664V14.0119H8.69364L8.73564 13.3714H10.0201L10.0621 12.6889H11.3641Z" fill="#E8FE6F"/>
<path d="M13.3498 16.0001V15.3631L12.7093 15.3176V14.7051L12.0443 14.6596V14.0401L11.3618 13.9981V13.3541H14.0113V14.0191H15.9993V14.6596L15.3133 14.7051V15.3211L14.6728 15.3666V16.0001H13.3498Z" fill="#46C000"/>
<path d="M12.0249 18.6494H12.6899V19.9759H12.0249V18.6494Z" fill="#F7F3E3"/>
<path d="M18.6508 21.9605H17.9858V19.976H18.6508V17.988H19.3053V16.679H20.6353V16H22.6233V16.6405L21.9758 16.6755V17.3125H21.3073V17.96H20.6633L20.6178 18.6285H19.9913V19.3005H19.3193V20.6305H18.6508V21.9605Z" fill="#2D7B00"/>
<path d="M14.6738 15.9999V15.3629L15.3143 15.3174V14.7049L16.0003 14.6594V14.0154H17.3268V14.6909H17.9953V15.3419H18.6498V15.9999H14.6738Z" fill="#A7EC00"/>
<path d="M18.6493 15.3351H17.9948V14.6876H17.3228V14.0121H18.6493V13.3506H19.9723V13.9876L19.3353 14.0331V14.6491L18.6493 14.6946V15.3351Z" fill="#379C00"/>
<path d="M15.9992 14.0121H14.0112V13.3506H15.9992V14.0121Z" fill="#F7F3E3"/>
<path d="M22.6228 16.0002H20.6348V15.3352H22.6228V16.0002Z" fill="#46C000"/>
</svg>
