<svg width="32" height="32" viewBox="0 0 32 32" fill="none" xmlns="http://www.w3.org/2000/svg">
<path d="M20.6295 15.0002C19.3517 15.9022 17.7986 16.3219 16.2434 16.1854H7V30H10.8623V19.7806H16.7213C18.3828 19.8197 20.0318 19.4821 21.546 18.793C22.8841 18.159 24.0182 17.1597 24.8191 15.9089C25.6263 14.5881 26.0356 13.0603 25.9975 11.5103C26.0363 9.88552 25.6286 8.28143 24.8191 6.87476C24.0239 5.6287 22.8871 4.64077 21.546 4.0302C20.039 3.31519 18.387 2.96348 16.7213 3.003H7V6.59162H16.2369C17.7929 6.45646 19.3463 6.87858 20.6229 7.78344C21.0942 8.27531 21.4578 8.86112 21.6901 9.50307C21.9223 10.145 22.0182 10.8288 21.9715 11.5103C22.0144 12.1553 21.9165 12.8019 21.6846 13.4047C21.4528 14.0076 21.0927 14.5521 20.6295 15.0002Z" fill="url(#paint0_linear_22_1103)"/>
<defs>
<linearGradient id="paint0_linear_22_1103" x1="16.5118" y1="2.28527" x2="16.4059" y2="54.3105" gradientUnits="userSpaceOnUse">
<stop stop-color="#FF2E72"/>
<stop offset="0.935" stop-color="#4A125E"/>
</linearGradient>
</defs>
</svg>
