<svg width="32" height="32" viewBox="0 0 32 32" fill="none" xmlns="http://www.w3.org/2000/svg">
<path opacity="0.9" d="M16.419 3L20.9284 7.46346L16.4148 11.9311L11.918 7.46768L16.419 3Z" fill="#45DAE2"/>
<path opacity="0.85" d="M9.63908 4.8689L15.8232 6.36656L14.3088 12.5007L8.12891 11.003L9.63908 4.8689Z" fill="#45DAE2"/>
<path opacity="0.3" d="M23.1395 4.81378L19.44 5.80519L21.1105 7.46739L18.0859 10.4669L18.6554 12.5552L24.8016 10.9099L23.1395 4.81378Z" fill="#45DAE2"/>
<path opacity="0.35" d="M28.0247 9.65289L26.5103 15.7828L20.3262 14.2809L21.8406 8.14679L28.0247 9.65289Z" fill="#45DAE2"/>
<path opacity="0.4" d="M29.9997 16.3986L25.6 20.9634L21.002 16.6012L25.3975 12.0364L29.9997 16.3986Z" fill="#45DAE2"/>
<path opacity="0.45" d="M28.1246 23.3641L21.9489 24.8913L20.4092 18.7614L26.5891 17.2384L28.1246 23.3641Z" fill="#45DAE2"/>
<path opacity="0.5" d="M23.231 28.1353L17.0469 26.6334L18.5613 20.4993L24.7454 21.997L23.231 28.1353Z" fill="#45DAE2"/>
<path opacity="0.55" d="M16.4531 30L11.9521 25.5323L16.4531 21.0688L20.9542 25.5323L16.4531 30Z" fill="#45DAE2"/>
<path opacity="0.6" d="M9.73754 28.283L8.07129 22.1869L14.2175 20.5374L15.8795 26.6335L9.73754 28.283Z" fill="#45DAE2"/>
<path opacity="0.65" d="M4.75488 23.1953L6.26928 17.0612L12.4534 18.5588L10.939 24.6929L4.75488 23.1953Z" fill="#45DAE2"/>
<path opacity="0.7" d="M3 16.656L7.501 12.1967L12.002 16.6602L7.501 21.1279L3 16.656Z" fill="#45DAE2"/>
<path opacity="0.75" d="M4.65625 9.66562L10.8319 8.14264L12.3716 14.2683L6.19174 15.7955L4.65625 9.66562Z" fill="#45DAE2"/>
</svg>
