<svg width="32" height="32" viewBox="0 0 32 32" fill="none" xmlns="http://www.w3.org/2000/svg">
<path d="M23.9728 15.652C24.002 15.832 23.9878 16.0164 23.9314 16.1898C23.93 16.3893 23.8878 16.5864 23.8073 16.769C23.7688 17.0168 23.6846 17.2552 23.5591 17.4723C23.4961 17.6932 23.3984 17.9027 23.2695 18.0928C23.0627 18.2997 23.104 18.5892 22.8558 18.7547C22.7165 19.0672 22.5356 19.3595 22.318 19.6235C22.1373 19.9051 21.9295 20.1684 21.6975 20.4095C21.5826 20.5929 21.4434 20.7599 21.2838 20.9059C21.0577 21.2008 20.8087 21.4775 20.5391 21.7333C20.2407 22.1078 19.9083 22.454 19.5463 22.7675C19.2062 23.1835 18.8327 23.5709 18.4293 23.9259L17.271 24.9601C16.9814 25.3324 16.6918 25.6634 16.4022 26.0357C16.2367 26.3667 16.0299 26.6563 15.8644 26.9872C15.823 27.07 15.823 27.1113 15.7817 27.1527C15.7358 27.2282 15.7075 27.313 15.6989 27.4009C15.4626 27.9506 15.269 28.5176 15.1198 29.097C14.9769 28.5702 14.8936 28.029 14.8715 27.4836C14.7608 26.9776 14.775 26.4523 14.9129 25.953C15.0216 25.5909 15.1744 25.2435 15.368 24.9187C15.4735 24.5355 15.6412 24.1721 15.8644 23.8431C16.0733 23.4331 16.3228 23.0451 16.6091 22.6848C16.8287 22.2844 17.0923 21.9097 17.3951 21.5678C17.5467 21.3008 17.727 21.0511 17.9329 20.8232C18.0435 20.648 18.168 20.482 18.3052 20.3268C18.512 20.0372 18.7189 19.7476 18.9671 19.458C19.1733 19.2059 19.3666 18.9436 19.5463 18.672C19.6704 18.4651 19.7945 18.2997 19.9186 18.0928C19.96 17.9687 20.0013 17.8446 20.0427 17.6791V17.4309C20.0427 17.2654 19.96 17.3482 19.8359 17.3895C19.7125 17.6519 19.5099 17.8689 19.2567 18.0101C18.9844 18.2401 18.6938 18.4476 18.3879 18.6306C18.15 18.8522 17.8681 19.0214 17.5605 19.127C17.3289 19.3665 17.046 19.5504 16.7332 19.6648C16.4559 19.907 16.1321 20.09 15.7817 20.2026C15.2025 20.4509 14.6233 20.7404 14.0028 21.03C13.4761 21.3736 12.9903 21.7761 12.5549 22.2297C12.348 22.478 12.1825 22.7262 12.0171 22.933C11.734 23.4423 11.5647 24.0068 11.5206 24.5878C11.2231 24.0909 11.12 23.5014 11.231 22.933C11.2393 22.5764 11.3546 22.2304 11.562 21.9402C11.6845 21.6066 11.8667 21.2982 12.0998 21.03C12.3299 20.6635 12.6081 20.3295 12.9272 20.0372C13.0853 19.8379 13.2657 19.6575 13.465 19.4994C13.5933 19.365 13.7316 19.2406 13.8787 19.127C14.1409 18.8607 14.4323 18.6248 14.7474 18.4238C14.8534 18.2682 14.9953 18.1405 15.1611 18.0514C15.5021 17.7663 15.8615 17.5037 16.2367 17.2654C16.4947 17.0359 16.7715 16.8283 17.0641 16.6449C17.3229 16.4286 17.5997 16.2348 17.8915 16.0657C18.2396 15.7709 18.6134 15.5079 19.0085 15.2797L19.9186 14.4937C20.0841 14.2868 20.2909 14.08 20.4564 13.8731C20.6219 13.6663 20.7874 13.4181 20.9528 13.2112L21.4493 12.2184C21.6182 11.8157 21.7565 11.4008 21.863 10.9773C22.302 11.3417 22.6792 11.7748 22.9799 12.2597C23.2013 12.5444 23.3695 12.8668 23.4764 13.2112C23.5959 13.4456 23.6795 13.6967 23.7246 13.9559C23.7895 14.1573 23.8311 14.3655 23.8487 14.5764C23.9169 14.8043 23.9449 15.0422 23.9314 15.2797C24.0142 15.3624 24.0142 15.4865 23.9728 15.652Z" fill="url(#paint0_linear_22_1124)"/>
<path d="M20.6599 8.70183C20.5789 8.99504 20.4533 9.27408 20.2876 9.52921C20.0915 9.90863 19.8406 10.2571 19.543 10.5634C19.2261 11.0116 18.8504 11.4151 18.426 11.7632C18.0653 12.151 17.663 12.4978 17.2263 12.7974C16.8715 13.0961 16.4984 13.3724 16.1093 13.6248C15.8475 13.8679 15.5555 14.0765 15.2406 14.2453C14.9236 14.53 14.5768 14.7796 14.2063 14.99C14.0307 15.1508 13.8362 15.2897 13.6272 15.4037C13.2962 15.6105 13.0066 15.8587 12.6757 16.1069C12.3861 16.3551 12.0965 16.6447 11.8069 16.8929C11.6414 17.0584 11.5173 17.2653 11.3518 17.4307C11.265 17.5884 11.1682 17.7403 11.0623 17.8858C10.9088 18.1251 10.7707 18.3738 10.6486 18.6305C10.6053 18.7798 10.5352 18.9199 10.4417 19.0441C10.4004 19.2096 10.3176 19.4165 10.2762 19.582C10.191 19.7651 10.1351 19.9606 10.1108 20.1611C9.72108 19.8176 9.37387 19.4287 9.07654 19.0028C8.94174 18.8628 8.84244 18.6926 8.78695 18.5063C8.63256 18.3158 8.5325 18.0871 8.49737 17.8444C8.4002 17.7115 8.34281 17.5537 8.33189 17.3894C8.25265 17.2507 8.20994 17.0941 8.20778 16.9343C8.11334 16.6965 8.05747 16.4451 8.0423 16.1897V15.9828C8.01002 15.8474 7.9961 15.7083 8.00094 15.5691C8.00094 15.4037 8.00094 15.3209 8.08367 15.2795C8.06298 15.1286 8.06298 14.9755 8.08367 14.8245C8.089 14.5888 8.1607 14.3594 8.29052 14.1626C8.30097 13.9725 8.35779 13.7879 8.456 13.6248C8.53519 13.4103 8.63205 13.2027 8.74558 13.0042C8.94057 12.6085 9.17627 12.2341 9.44886 11.8873C9.67323 11.5027 9.93663 11.1423 10.2349 10.8117C10.5299 10.4341 10.8476 10.0749 11.1864 9.73606C11.5232 9.33035 11.8823 8.94364 12.262 8.57772C12.5992 8.18541 12.9583 7.81249 13.3376 7.46075C13.6685 7.08842 14.1236 6.79884 14.4959 6.42651C15.5283 5.38018 16.2698 4.08256 16.6471 2.66191L16.7712 2.28958C16.7794 2.18853 16.8075 2.0901 16.854 2C17.1188 2.73268 17.2261 3.51294 17.1691 4.2899C17.1121 5.06687 16.8919 5.82309 16.523 6.50925C16.3827 6.91483 16.1727 7.29282 15.9025 7.62622C15.6937 8.03633 15.4442 8.42439 15.1578 8.78456C14.9058 9.18709 14.6294 9.57391 14.3304 9.9429C14.1194 10.2637 13.8843 10.5679 13.6272 10.853C13.3335 11.2974 13.0158 11.7255 12.6757 12.1355L12.0551 13.1283L11.931 13.5834C11.931 13.6661 11.8896 13.7902 11.9724 13.873C12.1379 13.7902 12.1792 13.5834 12.3447 13.5007C12.6651 13.1668 13.0265 12.8749 13.4203 12.6319C13.9326 12.2489 14.4718 11.9033 15.0337 11.5977C15.3344 11.3568 15.6689 11.1616 16.0266 11.0185C16.4816 10.8117 16.9367 10.6048 17.4331 10.398C17.9543 10.1057 18.4522 9.77376 18.9224 9.4051C19.2587 9.09072 19.5635 8.74434 19.8326 8.37087C20.1728 7.81811 20.3848 7.19612 20.4531 6.55062C20.6492 6.86972 20.7698 7.22943 20.8057 7.60226C20.8415 7.9751 20.7917 8.3512 20.6599 8.70183Z" fill="url(#paint1_linear_22_1124)"/>
<defs>
<linearGradient id="paint0_linear_22_1124" x1="17.4819" y1="26.5487" x2="17.6764" y2="13.7325" gradientUnits="userSpaceOnUse">
<stop stop-color="#EE5A24"/>
<stop offset="0.21" stop-color="#EE5E24"/>
<stop offset="0.406" stop-color="#F06922"/>
<stop offset="0.597" stop-color="#F27C20"/>
<stop offset="0.785" stop-color="#F5971D"/>
<stop offset="0.969" stop-color="#F9B81A"/>
<stop offset="1" stop-color="#FABF19"/>
</linearGradient>
<linearGradient id="paint1_linear_22_1124" x1="14.2312" y1="20.852" x2="14.4752" y2="8.04405" gradientUnits="userSpaceOnUse">
<stop stop-color="#EE5A24"/>
<stop offset="0.192" stop-color="#F27C20"/>
<stop offset="0.4" stop-color="#F5991D"/>
<stop offset="0.606" stop-color="#F8AE1B"/>
<stop offset="0.808" stop-color="#F9BB19"/>
<stop offset="1" stop-color="#FABF19"/>
</linearGradient>
</defs>
</svg>
