<svg width="32" height="32" viewBox="0 0 32 32" fill="none" xmlns="http://www.w3.org/2000/svg">
<path d="M18.75 13C18.75 13.7293 18.4603 14.4288 17.9445 14.9445C17.4288 15.4603 16.7293 15.75 16 15.75V18.5C17.0878 18.5 18.1512 18.1774 19.0556 17.5731C19.9601 16.9687 20.6651 16.1097 21.0813 15.1048C21.4976 14.0998 21.6065 12.9939 21.3943 11.927C21.1821 10.8601 20.6583 9.8801 19.8891 9.11091C19.1199 8.34173 18.1399 7.8179 17.073 7.60568C16.0061 7.39346 14.9002 7.50238 13.8952 7.91866C12.8902 8.33495 12.0313 9.03989 11.4269 9.94436C10.8226 10.8488 10.5 11.9122 10.5 13V26.75L12.9732 29.2232L13.25 29.5V13C13.25 12.2707 13.5397 11.5712 14.0555 11.0555C14.5712 10.5397 15.2707 10.25 16 10.25C16.7293 10.25 17.4288 10.5397 17.9445 11.0555C18.4603 11.5712 18.75 12.2707 18.75 13Z" fill="#E6DAFE"/>
<path d="M16 2C14.4393 2.00014 12.8965 2.3324 11.474 2.97471C10.0516 3.61701 8.78216 4.55465 7.75001 5.72533C5.97472 7.73242 4.99639 10.3204 5.00001 13V21.25L7.75001 24V13C7.75001 10.558 8.81334 8.36166 10.5 6.851C12.0117 5.49671 13.9704 4.7485 16 4.75C18.188 4.75 20.2865 5.61919 21.8336 7.16637C23.3808 8.71354 24.25 10.812 24.25 13C24.25 15.188 23.3808 17.2864 21.8336 18.8336C20.2865 20.3808 18.188 21.25 16 21.25V24C18.9174 24 21.7153 22.8411 23.7782 20.7782C25.8411 18.7153 27 15.9174 27 13C27 10.0826 25.8411 7.28472 23.7782 5.22182C21.7153 3.15893 18.9174 2 16 2Z" fill="#E6DAFE"/>
</svg>
