<svg width="32" height="32" viewBox="0 0 32 32" fill="none" xmlns="http://www.w3.org/2000/svg">
<path d="M11.7798 7.73606L16.3622 13.1062L19.4339 11.2957C19.4339 11.2957 15.7225 6.33388 14.7359 6.68442C13.8108 7.03497 11.7798 7.73606 11.7798 7.73606ZM19.5496 11.2957C20.029 10.3944 20.3817 9.43129 20.5976 8.43353C21.0631 8.61121 21.4886 8.87975 21.8492 9.22351C22.2099 9.56727 22.4985 9.97938 22.6983 10.4358C22.8981 10.8922 23.0051 11.3839 23.0129 11.8821C23.0208 12.3802 22.9295 12.875 22.7442 13.3375L19.5496 11.2957Z" fill="#4A4A4A"/>
<path d="M22.7446 13.3371L23.0337 17.016L24.3709 16.8426C24.3709 16.8426 24.7178 16.7269 24.66 16.0837L24.4829 13.9226C24.4829 13.9226 24.5443 13.572 23.7312 13.4564C22.7446 13.2829 22.7446 13.3407 22.7446 13.3407" fill="#4A4A4A"/>
<path d="M26.5471 17.5243L22.5466 20.766L24.3734 24.3545C24.3734 24.3545 24.8071 25.7531 26.1135 24.1811C27.3332 22.6036 27.8535 22.338 27.7668 21.3785C27.6801 20.419 27.4199 18.1369 26.5471 17.5243ZM22.4599 20.766L16.974 18.3104L12.1875 28.0298C12.1875 28.0298 11.8405 28.7345 13.0548 28.8213C14.2745 28.9947 16.2802 29.4338 17.321 28.3822C19.1702 25.9381 20.8857 23.3957 22.4599 20.766ZM16.974 18.2236L16.4536 11.7458L4.61463 12.5318C4.61463 12.5318 3.92077 12.6185 4.0075 13.9358C4.09424 15.6867 4.2677 17.6111 4.2677 17.6111C4.2677 17.6111 4.18097 18.3971 5.74757 18.4892C9.49158 18.6379 13.2412 18.5492 16.974 18.2236Z" fill="#4A4A4A"/>
</svg>
