<svg width="32" height="32" viewBox="0 0 32 32" fill="none" xmlns="http://www.w3.org/2000/svg">
<path d="M28.5612 24.3851C28.7487 24.3828 28.9348 24.4181 29.1085 24.489C29.2822 24.5599 29.4401 24.6649 29.573 24.7978C29.7082 24.9308 29.8156 25.0896 29.8889 25.2648C29.9622 25.44 30 25.6282 30 25.8183C30 26.0083 29.9622 26.1965 29.8889 26.3717C29.8156 26.547 29.7082 26.7057 29.573 26.8388C29.3732 27.0427 29.1174 27.1822 28.8383 27.2393C28.5592 27.2965 28.2694 27.2688 28.0061 27.1597C27.7428 27.0506 27.5178 26.8651 27.36 26.627C27.2022 26.3888 27.1188 26.1088 27.1203 25.8228C27.1212 25.6927 27.1379 25.5633 27.17 25.4373C27.1994 25.3146 27.2498 25.1979 27.3191 25.0926L24.8032 22.9201L19.654 26.6301C19.6847 26.6868 19.706 26.748 19.7172 26.8115C19.7262 26.8716 19.7308 26.9322 19.7308 26.993C19.7334 27.1256 19.7087 27.2573 19.6582 27.3798C19.6076 27.5024 19.5324 27.6131 19.4372 27.705C19.3494 27.7981 19.2437 27.8723 19.1264 27.923C19.0091 27.9737 18.8828 27.9998 18.7552 27.9998C18.527 28.0039 18.3041 27.9304 18.1228 27.7912C17.945 27.657 17.8227 27.4615 17.7795 27.2424H12.3142C12.2711 27.4592 12.1506 27.6528 11.9754 27.7867C11.7831 27.9359 11.5433 28.0099 11.3007 27.9949C11.0581 27.9798 10.8291 27.8768 10.6565 27.705C10.5619 27.6136 10.487 27.5036 10.4364 27.3819C10.3859 27.2602 10.3609 27.1293 10.3629 26.9975C10.3634 26.936 10.3726 26.875 10.39 26.8161L10.4352 26.6347L5.92286 23.3872C5.83828 23.4544 5.74381 23.508 5.64282 23.546C5.53026 23.5887 5.41083 23.6102 5.29051 23.6095C5.15887 23.6107 5.02831 23.5856 4.90641 23.5357C4.78451 23.4858 4.67369 23.4121 4.5804 23.3189C4.4871 23.2256 4.41319 23.1147 4.36296 22.9925C4.31273 22.8703 4.28717 22.7393 4.28777 22.6071C4.28602 22.4343 4.33299 22.2645 4.42328 22.1173C4.51052 21.9745 4.63356 21.8572 4.7801 21.7771L3.04113 16.4751H2.99596C2.73181 16.4751 2.47849 16.3698 2.29171 16.1822C2.10493 15.9947 2 15.7403 2 15.4751C2 15.2098 2.10493 14.9555 2.29171 14.7679C2.47849 14.5804 2.73181 14.475 2.99596 14.475H3.06823L4.77559 9.22742H4.74849C4.61523 9.14096 4.50388 9.02449 4.42328 8.88726C4.33299 8.74009 4.28602 8.57027 4.28777 8.39743C4.28942 8.23541 4.32981 8.07617 4.40554 7.93309C4.48127 7.79002 4.59012 7.66731 4.72293 7.57529C4.85574 7.48328 5.00862 7.42464 5.1687 7.40433C5.32879 7.38402 5.49139 7.40263 5.64282 7.45858C5.74801 7.49826 5.8435 7.56012 5.92286 7.64L10.4352 4.36991C10.4179 4.31307 10.4028 4.25558 10.39 4.19756C10.3728 4.13395 10.3637 4.06843 10.3629 4.00253C10.3629 3.87112 10.3887 3.74099 10.439 3.61964C10.4892 3.49828 10.5628 3.38808 10.6555 3.29537C10.7483 3.20265 10.8584 3.12925 10.9795 3.07937C11.1005 3.02949 11.2302 3.00413 11.3611 3.00472C11.5836 3.00249 11.7997 3.07964 11.9709 3.22243C12.1425 3.35651 12.2636 3.54526 12.3142 3.75762H17.7795C17.8216 3.53916 17.9422 3.34384 18.1183 3.20882C18.2994 3.06933 18.5224 2.99577 18.7506 3.00019C18.8791 2.9996 19.0063 3.02545 19.1243 3.07616C19.2424 3.12687 19.3489 3.20135 19.4372 3.295C19.5316 3.38658 19.6064 3.49659 19.6569 3.61827C19.7074 3.73996 19.7325 3.87072 19.7308 4.00253C19.7306 4.06777 19.726 4.13292 19.7172 4.19756C19.7117 4.25889 19.6915 4.31799 19.6585 4.36991L24.1708 7.64C24.2539 7.55821 24.3543 7.49621 24.4644 7.45858C24.5731 7.41949 24.6877 7.39954 24.8032 7.39962C24.9344 7.39842 25.0646 7.42335 25.1862 7.47295C25.3078 7.52256 25.4185 7.59587 25.5117 7.68864C25.6049 7.78142 25.6789 7.89182 25.7294 8.01348C25.7799 8.13513 25.8059 8.26563 25.8059 8.39743C25.8077 8.57027 25.7607 8.74009 25.6704 8.88726C25.5885 9.02499 25.4756 9.14151 25.3407 9.22742L27.048 14.5022H27.1203C27.2477 14.5014 27.3739 14.5267 27.4912 14.5766C27.6085 14.6265 27.7144 14.7 27.8024 14.7925C27.8952 14.8852 27.9689 14.9954 28.0192 15.1169C28.0695 15.2383 28.0954 15.3685 28.0954 15.5C28.0954 15.6315 28.0695 15.7617 28.0192 15.8832C27.9689 16.0046 27.8952 16.1148 27.8024 16.2076C27.7147 16.3009 27.609 16.3752 27.4917 16.4259C27.3744 16.4766 27.248 16.5026 27.1203 16.5024H27.048L25.0968 22.53L27.6307 24.7252C27.757 24.6148 27.9025 24.5287 28.0598 24.4712C28.2205 24.4128 28.3903 24.3836 28.5612 24.3851ZM24.9748 9.66737L24.6586 14.5203C24.8181 14.5856 24.9625 14.6828 25.0832 14.8061C25.2071 14.9287 25.2893 15.0874 25.3181 15.2596H26.1447C26.1732 15.135 26.227 15.0177 26.3028 14.9149C26.3784 14.8149 26.4737 14.7315 26.5828 14.67L24.9748 9.66737ZM24.5096 9.34988L24.487 9.32267C24.3971 9.30213 24.3134 9.26012 24.2431 9.20021C24.1657 9.13953 24.0918 9.07441 24.0218 9.00519L22.3641 9.71272L22.3776 9.8125L22.3867 9.88507C22.3887 10.0298 22.3561 10.1728 22.2918 10.3023C22.2338 10.4243 22.1506 10.5325 22.0479 10.6198L24.094 14.5203L24.1302 14.4977H24.1663L24.5096 9.34988ZM18.9223 14.5203L20.7516 10.6425C20.6556 10.5627 20.5732 10.4677 20.5077 10.3613C20.442 10.2536 20.4004 10.1329 20.3857 10.0075L15.9728 9.44513C15.9413 9.5083 15.9051 9.56895 15.8644 9.62655C15.8235 9.68304 15.7782 9.73612 15.7289 9.78529L18.4616 14.5476C18.5087 14.5316 18.557 14.5194 18.6061 14.5113C18.6538 14.5026 18.7022 14.498 18.7506 14.4977L18.85 14.5113L18.9223 14.5203ZM21.1942 10.8602L19.3875 14.7426C19.4667 14.8062 19.5326 14.8848 19.5817 14.9739C19.6307 15.0638 19.6715 15.1579 19.7037 15.2551H23.3849C23.4018 15.1563 23.4354 15.0612 23.4843 14.9739C23.5349 14.8858 23.6024 14.8087 23.683 14.7471L21.6324 10.8375C21.588 10.8524 21.5427 10.8645 21.4969 10.8738L21.3839 10.8874L21.2891 10.8738L21.1942 10.8602ZM18.046 14.7925L15.3133 10.0302C15.2678 10.0304 15.2225 10.035 15.1778 10.0438C15.1332 10.053 15.0878 10.0575 15.0423 10.0574C14.9968 10.0574 14.9514 10.0528 14.9068 10.0438C14.8711 10.0371 14.8348 10.034 14.7984 10.0347L12.0432 14.7925C12.1057 14.8562 12.1617 14.9261 12.2103 15.0011C12.2611 15.0777 12.295 15.1643 12.3096 15.2551H17.775C17.8048 15.1671 17.8426 15.0821 17.8879 15.0011C17.9305 14.9244 17.9838 14.8542 18.046 14.7925ZM11.6321 14.5476L14.3603 9.78529C14.3108 9.73625 14.2655 9.68315 14.2248 9.62655C14.1809 9.56296 14.1445 9.49447 14.1164 9.42245L9.70344 10.0121C9.68818 10.1359 9.64659 10.255 9.58149 10.3613C9.5162 10.4679 9.43378 10.5629 9.33758 10.6425L11.1669 14.5249L11.2663 14.5113L11.3611 14.4977C11.4066 14.4974 11.4521 14.502 11.4966 14.5113C11.5425 14.5203 11.5878 14.5324 11.6321 14.5476ZM10.7288 14.7426L8.92203 10.8602L8.82266 10.8738C8.79171 10.8822 8.75986 10.8867 8.72781 10.8874C8.6823 10.8875 8.6369 10.8829 8.5923 10.8738L8.47938 10.8602L6.43326 14.7653C6.51059 14.8272 6.57636 14.9025 6.62749 14.9875C6.67805 15.0734 6.71895 15.1647 6.74944 15.2596H10.4081C10.4194 15.1525 10.4566 15.0497 10.5165 14.9603C10.5765 14.8779 10.648 14.8046 10.7288 14.7426ZM6.75396 15.7404C6.722 15.8355 6.67958 15.9268 6.62749 16.0125C6.57593 16.0959 6.51019 16.1696 6.43326 16.2302L8.4839 20.1625C8.51777 20.1465 8.5549 20.1388 8.5923 20.1398H8.89945L10.7288 16.2574C10.6493 16.1937 10.5793 16.1189 10.521 16.0352C10.46 15.9467 10.4142 15.8486 10.3855 15.7449L6.75396 15.7404ZM11.1669 16.4751L9.33758 20.3575C9.43367 20.4372 9.51607 20.5322 9.58149 20.6387C9.64707 20.7464 9.68867 20.8671 9.70344 20.9925L14.1209 21.5549C14.1539 21.4882 14.1901 21.4231 14.2293 21.3599C14.2678 21.2974 14.3133 21.2396 14.3648 21.1875L11.6321 16.4525C11.5934 16.4704 11.5524 16.4826 11.5102 16.4888C11.461 16.4978 11.4111 16.5023 11.3611 16.5024L11.2663 16.4888L11.1669 16.4751ZM12.0477 16.2076L14.7713 20.9426V20.9653L14.9068 20.929C14.9516 20.9214 14.997 20.9183 15.0423 20.9199C15.0922 20.9188 15.142 20.9218 15.1914 20.929L15.3088 20.9426L18.0415 16.2076C17.9776 16.1439 17.9201 16.074 17.8699 15.9989C17.8184 15.921 17.7845 15.8328 17.7705 15.7404H12.3051C12.2925 15.8324 12.2601 15.9206 12.2103 15.9989C12.1601 16.074 12.1026 16.1439 12.0386 16.2076H12.0477ZM18.9223 16.4797L18.85 16.4888C18.81 16.498 18.7691 16.5026 18.7281 16.5024C18.6825 16.5026 18.6371 16.498 18.5926 16.4888C18.5466 16.4796 18.5014 16.4675 18.457 16.4525L15.7515 21.1875C15.8012 21.2379 15.8424 21.2961 15.8734 21.3599L15.9728 21.5549L20.4128 20.9925C20.4267 20.8688 20.4634 20.7488 20.5212 20.6387C20.5794 20.5311 20.6576 20.4356 20.7516 20.3575L18.9223 16.4797ZM19.3649 16.2529L21.1942 20.1398H21.4969C21.5343 20.1386 21.5715 20.1464 21.6053 20.1625L23.7056 16.2076C23.6241 16.1603 23.5557 16.0933 23.5069 16.0125C23.4562 15.9267 23.4152 15.8354 23.3849 15.7404H19.7082C19.6799 15.8456 19.6341 15.9453 19.5727 16.0352C19.5157 16.1185 19.4473 16.1933 19.3694 16.2574L19.3649 16.2529ZM23.8276 8.54256L23.814 8.4836C23.8059 8.45409 23.8029 8.42342 23.805 8.39289C23.8049 8.32872 23.8125 8.26477 23.8276 8.2024C23.8404 8.1444 23.8555 8.0869 23.8727 8.03005L19.3875 4.75996L19.3649 4.77357V4.78264L21.2168 8.90087L21.2891 8.88726H21.3885C21.5414 8.88472 21.6924 8.92223 21.8266 8.99611C21.9565 9.06899 22.0727 9.16417 22.1699 9.27731L23.8276 8.54256ZM18.3622 4.93231L15.8237 8.44732C15.8752 8.51576 15.9205 8.58861 15.9592 8.66502C16.0017 8.74933 16.0234 8.84266 16.0225 8.93715L20.4625 9.52223C20.4951 9.44109 20.5359 9.36357 20.5845 9.29092C20.6352 9.21687 20.7015 9.15493 20.7787 9.1095L18.9268 4.9822L18.8274 4.99581L18.7326 5.00488C18.6716 5.00552 18.6108 4.99789 18.5519 4.9822L18.3712 4.93685L18.3622 4.93231ZM12.3096 4.24745C12.2982 4.32016 12.2754 4.39059 12.2419 4.45608C12.205 4.51901 12.1643 4.5796 12.1199 4.6375L14.681 8.12983V8.15251C14.7316 8.12049 14.7887 8.10033 14.8481 8.09355C14.914 8.0848 14.9804 8.08026 15.0468 8.07994C15.1073 8.08023 15.1677 8.08477 15.2275 8.09355C15.2812 8.10061 15.3342 8.11276 15.3856 8.12983L17.9692 4.6375C17.9227 4.57637 17.8819 4.51108 17.8473 4.44248C17.816 4.3804 17.7917 4.31498 17.775 4.24745H12.3096ZM11.3611 5.00488L11.2663 4.99127L11.1895 4.97766L9.33758 9.10497C9.40476 9.15507 9.46283 9.21645 9.50922 9.28639C9.55775 9.35903 9.59862 9.43655 9.63117 9.5177L14.0712 8.93262C14.0856 8.83958 14.1098 8.74835 14.1435 8.66049C14.1772 8.58055 14.2263 8.5081 14.288 8.44732L11.727 4.93231L11.5553 4.97766C11.4919 4.99457 11.4267 5.00371 11.3611 5.00488ZM10.7288 4.75996L6.21194 8.03005L6.26614 8.1888C6.28199 8.24793 6.28959 8.30898 6.28872 8.37022V8.47C6.29103 8.49623 6.28291 8.52232 6.26614 8.54256L7.9464 9.27731C8.0329 9.15899 8.14584 9.06268 8.27613 8.99611C8.41538 8.9228 8.57059 8.8854 8.72781 8.88726H8.81815C8.84657 8.88875 8.87433 8.89649 8.89945 8.90994L10.7513 4.78264L10.7288 4.76903V4.75996ZM6.0674 9.00519C6.01252 9.0755 5.94698 9.13672 5.87318 9.1866C5.78995 9.24502 5.69864 9.29086 5.60217 9.32267L5.96803 14.5249H6.01771L8.06835 10.6198C7.95497 10.5399 7.86586 10.43 7.81089 10.3023C7.75554 10.1797 7.72631 10.0469 7.72507 9.91228V9.8125C7.72599 9.77754 7.73529 9.74331 7.75218 9.71272L6.0674 9.00519ZM5.14145 21.3327L5.48021 16.4525H5.45763C5.31054 16.3861 5.1784 16.2904 5.06918 16.1713C4.9559 16.0502 4.87238 15.9042 4.82527 15.7449H3.94449C3.91502 15.8678 3.86126 15.9835 3.7864 16.0851C3.71076 16.1851 3.61544 16.2685 3.50636 16.33L5.14145 21.3327ZM4.82527 15.2551C4.87238 15.0958 4.9559 14.9498 5.06918 14.8288C5.18387 14.7057 5.32423 14.6097 5.48021 14.5476L5.14145 9.66737L3.52894 14.6473C3.6326 14.7164 3.72417 14.8023 3.79995 14.9013C3.87916 15.0039 3.92911 15.1262 3.94449 15.2551H4.82527ZM5.60668 21.6774C5.69749 21.7066 5.78406 21.7478 5.86414 21.7998C5.94125 21.8542 6.00977 21.92 6.0674 21.9948L7.75218 21.2873C7.7376 21.2593 7.72986 21.2282 7.72959 21.1966V21.115C7.72864 20.9714 7.75788 20.8292 7.81541 20.6977C7.86913 20.5706 7.95664 20.4607 8.06835 20.3802L6.02223 16.4797H5.97255L5.60668 21.6774ZM6.27517 22.4529L6.28872 22.53V22.6298C6.28788 22.6957 6.27878 22.7612 6.26162 22.8248C6.24865 22.8813 6.23358 22.9373 6.21645 22.9927L10.7288 26.2401L10.7513 26.2174L8.89945 22.0901C8.86996 22.1048 8.83752 22.1125 8.80459 22.1128H8.70071C8.54773 22.1153 8.39673 22.0778 8.26258 22.0039C8.13418 21.9308 8.01952 21.8356 7.92381 21.7227L6.27517 22.4529ZM11.1895 26.0224L11.2617 26.0088L11.3611 25.9997C11.4265 25.9992 11.4918 26.0069 11.5553 26.0224L11.727 26.0677L13.8499 23.1423L14.288 22.5527C14.2287 22.4799 14.18 22.399 14.1435 22.3123C14.1079 22.2248 14.0822 22.1335 14.0667 22.0402L9.65376 21.4823H9.63117C9.59834 21.5619 9.55748 21.6379 9.50922 21.7091C9.46283 21.779 9.40476 21.8404 9.33758 21.8905L11.1895 26.0224ZM15.4172 22.8339C15.36 22.8599 15.299 22.8768 15.2366 22.8838C15.1076 22.9 14.9771 22.9 14.8481 22.8838C14.7886 22.8773 14.7314 22.8572 14.681 22.8248L12.1154 26.3625C12.1668 26.415 12.2082 26.4765 12.2374 26.5439C12.2687 26.6097 12.2944 26.6779 12.3142 26.748H17.7795C17.7962 26.6805 17.8204 26.6151 17.8518 26.553C17.8863 26.4843 17.9271 26.419 17.9737 26.358L15.4172 22.8339ZM18.9223 26.0224L18.972 25.8727L20.7516 21.8951C20.6913 21.8341 20.6355 21.769 20.5845 21.7C20.5344 21.6332 20.4934 21.56 20.4625 21.4823L16.0225 22.0402C16.0231 22.1346 16.0014 22.2279 15.9592 22.3123C15.9148 22.3976 15.8618 22.4782 15.8012 22.5527L18.3622 26.0677L18.5429 26.0224C18.6016 26.0051 18.6624 25.996 18.7235 25.9952L18.8229 26.0088L18.9223 26.0224ZM19.3875 26.2401L24.3154 22.6525L22.1699 21.7227V21.7499C22.0746 21.8615 21.9578 21.9525 21.8266 22.0175C21.69 22.0833 21.5399 22.1159 21.3885 22.1128H21.2891C21.263 22.1151 21.237 22.1069 21.2168 22.0901L19.4101 26.0949L19.3604 26.2174V26.2401H19.3875ZM22.3641 21.2873L24.5322 22.2398L24.1708 16.4525H24.1211L22.0434 20.3847C22.1419 20.4806 22.2257 20.5906 22.2918 20.7113C22.3566 20.8358 22.3892 20.9746 22.3867 21.115L22.3776 21.2011C22.3685 21.2289 22.364 21.258 22.3641 21.2873ZM24.6541 16.4298L24.9703 21.3327L26.5828 16.33C26.4737 16.2686 26.3783 16.1852 26.3028 16.0851C26.2279 15.9835 26.1742 15.8678 26.1447 15.7449H25.2865C25.257 15.9012 25.1815 16.045 25.0697 16.1577C24.9525 16.2755 24.8081 16.3681 24.6541 16.4298Z" fill="#32A5D2"/>
</svg>
