<svg width="32" height="32" viewBox="0 0 32 32" fill="none" xmlns="http://www.w3.org/2000/svg">
<path fill-rule="evenodd" clip-rule="evenodd" d="M15.7613 18.8459L14.6688 18.4954C9.38839 16.9522 8 15.0039 8 12.1998C8 7.71142 12.238 5.95431 15.6703 5.87238V3H17.9919V5.94521C18.5088 5.99121 19.0248 6.04736 19.5396 6.11364C20.351 6.22977 21.169 6.29363 21.9886 6.30482C22.4872 6.29578 22.984 6.24092 23.4726 6.14095L23.8868 13.0875H23.8413C21.2466 8.69923 18.7475 6.30482 15.5474 6.30482C13.1848 6.30482 11.1 7.52024 11.1 9.92375C11.1 11.7309 12.6386 12.564 15.7613 13.6565V18.8459ZM18.0899 14.4258C22.2861 15.7456 24.9989 17.3749 25 20.7329C24.9987 25.2058 21.2076 26.8076 17.9989 27.026V29.9303H15.6728V26.9714C15.1538 26.9122 14.6349 26.8348 14.1251 26.7529C13.2185 26.5882 12.3011 26.4908 11.3801 26.4616C10.3772 26.4111 9.37706 26.6064 8.4668 27.0306V18.9005H8.51232C9.94623 21.8639 12.5318 26.6437 17.5164 26.6619H17.571C20.102 26.6528 21.85 25.4373 21.85 23.0475C21.85 21.5089 20.4161 20.5484 18.0899 19.6516V14.4258ZM25 20.7329C25 20.7336 25 20.7343 25 20.735V20.7305C25 20.7313 25 20.7321 25 20.7329Z" fill="black"/>
<path fill-rule="evenodd" clip-rule="evenodd" d="M15.7613 18.8459L14.6688 18.4954C9.38839 16.9522 8 15.0039 8 12.1998C8 7.71142 12.238 5.95431 15.6703 5.87238V3H17.9919V5.94521C18.5088 5.99121 19.0248 6.04736 19.5396 6.11364C20.351 6.22977 21.169 6.29363 21.9886 6.30482C22.4872 6.29578 22.984 6.24092 23.4726 6.14095L23.8868 13.0875H23.8413C21.2466 8.69923 18.7475 6.30482 15.5474 6.30482C13.1848 6.30482 11.1 7.52024 11.1 9.92375C11.1 11.7309 12.6386 12.564 15.7613 13.6565V18.8459ZM18.0899 14.4258C22.2861 15.7456 24.9989 17.3749 25 20.7329C24.9987 25.2058 21.2076 26.8076 17.9989 27.026V29.9303H15.6728V26.9714C15.1538 26.9122 14.6349 26.8348 14.1251 26.7529C13.2185 26.5882 12.3011 26.4908 11.3801 26.4616C10.3772 26.4111 9.37706 26.6064 8.4668 27.0306V18.9005H8.51232C9.94623 21.8639 12.5318 26.6437 17.5164 26.6619H17.571C20.102 26.6528 21.85 25.4373 21.85 23.0475C21.85 21.5089 20.4161 20.5484 18.0899 19.6516V14.4258ZM25 20.7329C25 20.7336 25 20.7343 25 20.735V20.7305C25 20.7313 25 20.7321 25 20.7329Z" fill="url(#paint0_linear_22_1143)"/>
<defs>
<linearGradient id="paint0_linear_22_1143" x1="16.5" y1="3" x2="16.5" y2="29.9303" gradientUnits="userSpaceOnUse">
<stop stop-color="#B8DE38"/>
<stop offset="1" stop-color="#01ECFA"/>
</linearGradient>
</defs>
</svg>
