<svg width="32" height="32" viewBox="0 0 32 32" fill="none" xmlns="http://www.w3.org/2000/svg">
<path d="M20.3413 18.094L30 16.5041L20.3413 14.9142L26.0478 6.95633L18.0899 12.6669L16.5 3L14.9101 12.6587L6.95222 6.95222L12.6628 14.9101L3 16.5L12.6587 18.0899L6.95222 26.0478L14.9101 20.3372L16.5 30L18.0899 20.3413L26.0478 26.0478L20.3413 18.094Z" fill="white"/>
<path d="M20.3413 18.094L30 16.5041L20.3413 14.9142L26.0478 6.95633L18.0899 12.6669L16.5 3L14.9101 12.6587L6.95222 6.95222L12.6628 14.9101L3 16.5L12.6587 18.0899L6.95222 26.0478L14.9101 20.3372L16.5 30L18.0899 20.3413L26.0478 26.0478L20.3413 18.094Z" fill="url(#paint0_linear_22_1156)"/>
<defs>
<linearGradient id="paint0_linear_22_1156" x1="16.5" y1="3" x2="16.5" y2="30" gradientUnits="userSpaceOnUse">
<stop stop-color="#20FDB4"/>
<stop offset="1" stop-color="#5A10F6"/>
</linearGradient>
</defs>
</svg>
