<svg width="32" height="32" viewBox="0 0 32 32" fill="none" xmlns="http://www.w3.org/2000/svg">
<path d="M16.5 30C13.83 30 11.2199 29.2082 8.99981 27.7248C6.77974 26.2414 5.04941 24.133 4.02763 21.6662C3.00585 19.1994 2.7385 16.485 3.2594 13.8663C3.78031 11.2475 5.06606 8.84207 6.95406 6.95406C8.84207 5.06606 11.2475 3.78031 13.8663 3.2594C16.485 2.7385 19.1994 3.00585 21.6662 4.02763C24.133 5.04941 26.2414 6.77974 27.7248 8.99981C29.2082 11.2199 30 13.83 30 16.5C30 20.0804 28.5777 23.5142 26.0459 26.0459C23.5142 28.5777 20.0804 30 16.5 30ZM10.617 11.13L11.973 10.347L12.165 10.662L17.205 7.75201L16.833 7.53301L16.461 7.326L16.281 7.21801L8.06101 11.967V12.171L10.425 10.815L10.617 11.13ZM10.617 14.121L14.568 11.841L14.745 12.159L19.797 9.249L19.425 9.03L19.056 8.823L18.876 8.715L8.064 14.94V15.159L10.425 13.803L10.617 14.121ZM10.617 15.615L15.858 12.585L16.035 12.9L21.087 9.99L20.718 9.783L20.343 9.564L20.166 9.453L8.064 16.443V16.662L10.425 15.291L10.617 15.615ZM10.617 17.1L17.19 13.311L17.37 13.629L22.38 10.731L22.008 10.524L21.636 10.308L21.459 10.209L8.064 17.94V18.144L10.425 16.788L10.617 17.1ZM10.617 18.594L18.48 14.055L18.66 14.385L23.67 11.487L23.298 11.268L22.944 11.061L22.749 10.953L8.064 19.434V19.638L10.425 18.279L10.617 18.594ZM24.228 11.802L24.039 11.694L8.064 20.928V21.132L10.422 19.776L10.617 20.091L18.48 15.549L18.66 15.864L24.504 12.504V11.97L24.228 11.802ZM9.078 22.041L10.398 21.285L10.59 21.6L18.438 17.058L18.63 17.388L24.504 13.98V12.924L8.90401 21.927L9.078 22.041ZM18.438 18.555L18.63 18.885L24.504 15.483V14.424L10.194 22.689L10.368 22.797L11.715 22.017L11.904 22.329L18.438 18.555ZM11.658 23.535L13.017 22.752L13.194 23.082L18.438 20.049L18.627 20.364L24.504 16.974V15.903L11.481 23.43L11.661 23.541L11.658 23.535ZM12.96 24.276L14.307 23.508L14.484 23.823L18.438 21.543L18.627 21.858L24.504 18.468V17.403L12.768 24.183L12.96 24.276ZM14.058 24.921L14.253 25.029L15.597 24.249L15.777 24.579L18.438 23.04L18.627 23.358L24.504 19.968V18.897L14.058 24.921ZM15.543 25.77L16.887 25.002L17.079 25.317L18.438 24.522L18.627 24.852L24.501 21.462V20.391L15.363 25.68L15.543 25.77ZM18.507 8.49001L18.135 8.286L17.766 8.067L17.574 7.956L8.064 13.461V13.665L10.422 12.306L10.617 12.624L13.278 11.088L13.458 11.403L18.507 8.49001Z" fill="#0F3056"/>
</svg>
