<svg width="32" height="32" viewBox="0 0 32 32" fill="none" xmlns="http://www.w3.org/2000/svg">
<path d="M20.157 17.6211L26.6874 11.116C26.9301 10.8732 27.1221 10.5846 27.2522 10.2669C27.3823 9.9492 27.4479 9.60882 27.4453 9.26554L27.4642 4.00462C27.4641 3.73423 27.3601 3.47423 27.1737 3.27832L14.6372 15.7833C14.3935 16.0246 14.2001 16.3119 14.0681 16.6284C13.9361 16.9449 13.8682 17.2845 13.8682 17.6274C13.8682 17.9704 13.9361 18.3099 14.0681 18.6265C14.2001 18.943 14.3935 19.2302 14.6372 19.4716L23.4791 28.2756C23.7169 28.5352 24.0049 28.7439 24.3256 28.889C24.6464 29.0341 24.9933 29.1126 25.3453 29.1197C25.6973 29.1268 26.0471 29.0624 26.3735 28.9304C26.6999 28.7984 26.9961 28.6016 27.2442 28.3518C27.4923 28.102 27.6871 27.8044 27.8168 27.4771C27.9466 27.1498 28.0086 26.7996 27.999 26.4477C27.9895 26.0957 27.9086 25.7494 27.7613 25.4296C27.614 25.1098 27.4034 24.8232 27.1421 24.5873L20.157 17.6211Z" fill="#008C62"/>
<path d="M26.4358 3.0004H6.76891C6.39742 2.99401 6.02855 3.06373 5.68502 3.20528C5.34149 3.34682 5.03058 3.5572 4.77143 3.82345C4.51228 4.0897 4.31039 4.40618 4.17817 4.75341C4.04596 5.10064 3.98623 5.47125 4.00266 5.84244V26.4061C4.00597 27.0975 4.28164 27.7597 4.76991 28.2491C5.25818 28.7386 5.91969 29.0158 6.61102 29.0208H6.69312C7.3822 29.0175 8.04211 28.7423 8.52937 28.255C9.01663 27.7677 9.29184 27.1078 9.29516 26.4188V8.06554H22.3875L27.181 3.29724C27.0851 3.20107 26.9708 3.12522 26.8449 3.07421C26.7191 3.02321 26.5842 2.99811 26.4484 3.0004" fill="#00E6A0"/>
</svg>
