<svg width="32" height="32" viewBox="0 0 32 32" fill="none" xmlns="http://www.w3.org/2000/svg">
<path d="M16.4941 3H16.4315V4.81573H16.4941C19.1217 4.81215 21.674 5.69251 23.7407 7.31519C25.8073 8.93788 27.2681 11.2086 27.8879 13.762C28.5078 16.3154 28.2508 19.0031 27.1582 21.3927C26.0655 23.7823 24.2009 25.735 21.8641 26.9365C19.5274 28.1381 16.8544 28.5187 14.2751 28.0171C11.6959 27.5156 9.36031 26.161 7.64413 24.1713C5.92794 22.1816 4.93092 19.6725 4.81343 17.0476C4.69595 14.4226 5.46484 11.8345 6.99641 9.69943C7.36172 9.19642 7.7642 8.72149 8.20048 8.27863C7.89944 8.16192 7.63798 7.96168 7.44687 7.70145C7.25575 7.44123 7.14291 7.13183 7.12163 6.80967C6.61612 7.28776 6.1506 7.80644 5.72973 8.36051C3.89472 10.7886 2.93403 13.7655 3.00352 16.8083C3.07302 19.851 4.16863 22.7809 6.11258 25.1227C8.05653 27.4645 10.7348 29.0807 13.7127 29.7091C16.6906 30.3375 19.7935 29.9412 22.5179 28.5845C25.2423 27.2278 27.4283 24.9903 28.7212 22.235C30.0142 19.4798 30.3382 16.3685 29.6407 13.406C28.9432 10.4435 27.2651 7.80366 24.8787 5.91473C22.4923 4.0258 19.5376 2.99867 16.4941 3Z" fill="#CF1011"/>
<path d="M16.494 21.716C19.3694 21.716 21.7004 19.385 21.7004 16.5096C21.7004 13.6342 19.3694 11.3032 16.494 11.3032C13.6186 11.3032 11.2876 13.6342 11.2876 16.5096C11.2876 19.385 13.6186 21.716 16.494 21.716Z" fill="#CF1011"/>
<path d="M13.5099 9.07381C13.388 8.67419 13.1606 8.31482 12.8517 8.0335C12.5131 7.71857 12.09 7.50928 11.6343 7.43127C11.1785 7.35327 10.7099 7.40994 10.2859 7.59435C9.86184 7.77875 9.50083 8.08287 9.2471 8.46943C8.99337 8.85598 8.85794 9.30818 8.85742 9.77057C8.85699 10.1685 8.9587 10.5599 9.15282 10.9072C9.3481 11.2759 9.64001 11.5844 9.99727 11.7998C10.369 12.0282 10.7971 12.1483 11.2334 12.1466C11.8642 12.1466 12.4692 11.8965 12.9158 11.4511C13.3624 11.0057 13.6142 10.4013 13.6159 9.77057C13.6149 9.53438 13.5792 9.29961 13.5099 9.07381ZM11.2334 10.9393C11.0834 10.9419 10.9345 10.9123 10.7968 10.8526C10.5961 10.7748 10.4218 10.6413 10.2944 10.4678C10.167 10.2944 10.0917 10.0881 10.0775 9.87331C10.0664 9.84027 10.0621 9.80533 10.0647 9.77057C10.0647 9.4606 10.1878 9.16332 10.407 8.94414C10.6262 8.72495 10.9235 8.60182 11.2334 8.60182C11.3619 8.59944 11.4895 8.62235 11.6091 8.66925C11.8155 8.73511 11.9986 8.85873 12.1369 9.02546C12.2752 9.19219 12.3628 9.39505 12.3894 9.61002C12.4022 9.66257 12.4087 9.71647 12.4086 9.77057C12.4069 10.0811 12.2824 10.3784 12.0622 10.5974C11.842 10.8164 11.544 10.9393 11.2334 10.9393Z" fill="#CF1011"/>
</svg>
