<svg width="32" height="32" viewBox="0 0 32 32" fill="none" xmlns="http://www.w3.org/2000/svg">
<path fill-rule="evenodd" clip-rule="evenodd" d="M6 4.15249V21.4254C5.99999 21.7482 6.0727 22.0667 6.21273 22.3575C6.35276 22.6483 6.55651 22.9038 6.80884 23.105L14.9856 29.642C15.2734 29.8708 15.6302 29.9953 15.9978 29.9953C16.3654 29.9953 16.7222 29.8708 17.0099 29.642L25.1912 23.105C25.4435 22.9038 25.6472 22.6483 25.7873 22.3575C25.9273 22.0667 26 21.7482 26 21.4254V4.15249C25.9994 3.86924 25.9431 3.58888 25.8341 3.32741C25.7252 3.06595 25.5658 2.8285 25.3651 2.62862C25.1644 2.42874 24.9263 2.27035 24.6644 2.1625C24.4025 2.05464 24.1219 1.99942 23.8387 2H8.16133C7.87808 1.99942 7.59749 2.05464 7.33558 2.1625C7.07367 2.27035 6.83557 2.42874 6.63487 2.62862C6.43417 2.8285 6.27481 3.06595 6.16588 3.32741C6.05694 3.58888 6.00058 3.86924 6 4.15249Z" fill="#004DE5"/>
<path d="M21.8247 11.9801V8.20996C21.8244 7.71162 21.6274 7.23354 21.2766 6.87957C21.1045 6.70508 20.8994 6.56641 20.6733 6.47158C20.4473 6.37676 20.2047 6.32765 19.9595 6.32709H12.0302C11.7843 6.32706 11.5409 6.37589 11.314 6.47073C11.0872 6.56558 10.8814 6.70455 10.7087 6.87957C10.3595 7.23425 10.1642 7.71225 10.165 8.20996V19.1315C10.1648 19.4127 10.2274 19.6903 10.3482 19.9442C10.469 20.1981 10.645 20.4218 10.8634 20.5989L13.7496 22.9415C13.7842 22.9687 13.8257 22.9856 13.8695 22.9903C13.9133 22.995 13.9575 22.9873 13.9971 22.968C14.0371 22.9482 14.0708 22.9176 14.0943 22.8796C14.1174 22.8424 14.1297 22.7996 14.1297 22.7558V15.0387C14.1291 15.0077 14.1346 14.9769 14.146 14.9481C14.1574 14.9192 14.1744 14.893 14.196 14.8707C14.2177 14.8481 14.2438 14.8302 14.2726 14.818C14.3015 14.8059 14.3326 14.7997 14.3639 14.8H16.4634C16.6477 14.8003 16.8301 14.8372 17.0001 14.9085C17.17 14.9798 17.3241 15.0841 17.4534 15.2155C17.7156 15.4817 17.8618 15.8408 17.8601 16.2144V22.7602C17.8601 22.804 17.8723 22.8469 17.8954 22.884C17.9187 22.9221 17.9525 22.9528 17.9927 22.9724C18.0321 22.9922 18.0764 23.0002 18.1203 22.9955C18.1642 22.9908 18.2058 22.9736 18.2402 22.9459L21.1264 20.6033C21.3455 20.4266 21.5224 20.2032 21.644 19.9492C21.7656 19.6953 21.8289 19.4174 21.8291 19.1359V15.7415C21.8276 15.2446 21.6308 14.7684 21.2811 14.4155C21.1089 14.241 20.9038 14.1023 20.6778 14.0075C20.4517 13.9127 20.2091 13.8636 19.9639 13.863C20.2091 13.8624 20.4517 13.8133 20.6778 13.7185C20.9038 13.6237 21.1089 13.485 21.2811 13.3105C21.6302 12.9558 21.8256 12.4778 21.8247 11.9801ZM16.459 12.9216H14.3595C14.3289 12.9213 14.2987 12.9148 14.2706 12.9027C14.2425 12.8906 14.2172 12.8729 14.196 12.8508C14.1744 12.8286 14.1574 12.8023 14.146 12.7735C14.1346 12.7447 14.1291 12.7139 14.1297 12.6829V8.44863C14.1296 8.38756 14.1534 8.32888 14.196 8.2851C14.2172 8.26302 14.2425 8.24539 14.2706 8.23325C14.2987 8.2211 14.3289 8.21469 14.3595 8.21438H17.6258C17.6564 8.21469 17.6866 8.2211 17.7147 8.23325C17.7428 8.24539 17.7682 8.26302 17.7894 8.2851C17.8335 8.32817 17.859 8.38694 17.8601 8.44863V11.5072C17.8606 11.8814 17.7128 12.2406 17.449 12.5061C17.3196 12.6372 17.1654 12.7415 16.9955 12.8128C16.8256 12.8841 16.6432 12.921 16.459 12.9216Z" fill="url(#paint0_linear_22_1173)"/>
<defs>
<linearGradient id="paint0_linear_22_1173" x1="15.9949" y1="6.33151" x2="15.9949" y2="22.9945" gradientUnits="userSpaceOnUse">
<stop stop-color="white"/>
<stop offset="0.458" stop-color="white"/>
<stop offset="1" stop-color="white"/>
</linearGradient>
</defs>
</svg>
