<svg width="32" height="32" viewBox="0 0 32 32" fill="none" xmlns="http://www.w3.org/2000/svg">
<path fill-rule="evenodd" clip-rule="evenodd" d="M27.1544 7.55654C26.1454 6.20468 24.8402 5.10176 23.339 4.33232C21.8378 3.56287 20.1804 3.14732 18.4937 3.11752C15.2678 3.32688 12.2529 4.79382 10.0974 7.2029C7.94178 9.61197 6.81767 12.7708 6.96678 16C6.78345 17.943 7.36347 19.8811 8.58406 21.404C9.80465 22.9268 11.57 23.9148 13.5063 24.1589C13.8292 24.1622 14.1516 24.1328 14.4686 24.071C13.2562 23.1105 12.2834 21.8815 11.6271 20.4809C10.9708 19.0803 10.6488 17.5463 10.6866 16C10.4957 13.7189 11.2069 11.4538 12.6676 9.69127C14.1283 7.92875 16.2219 6.80937 18.4989 6.57354C20.773 6.81315 22.8628 7.93415 24.3202 9.69624C25.7777 11.4583 26.4868 13.7213 26.2956 16C26.2912 19.5731 25.0375 23.0321 22.7516 25.7783C20.8949 28.0044 18.3043 29.4942 15.4464 29.9793C15.4464 29.9793 15.6896 30 15.9948 30C19.7079 29.9986 23.2686 28.5234 25.8946 25.8983C28.5206 23.2732 29.9972 19.7131 29.9999 16C30.0089 12.9487 29.0085 9.98003 27.1544 7.55654ZM25.0332 16C25.2166 14.057 24.6365 12.1189 23.4159 10.596C22.1953 9.0732 20.43 8.08516 18.4937 7.84109C18.1708 7.8378 17.8484 7.86727 17.5314 7.92905C18.7438 8.88951 19.7166 10.1185 20.3729 11.5191C21.0292 12.9197 21.3512 14.4537 21.3134 16C21.5044 18.2803 20.7939 20.5447 19.3343 22.3071C17.8746 24.0694 15.7823 25.1894 13.5063 25.4265C11.2294 25.1906 9.13571 24.0712 7.67501 22.3087C6.21432 20.5462 5.50308 18.2811 5.69406 16C5.69994 12.4263 6.95546 8.9672 9.24319 6.22173C11.1002 3.99598 13.6907 2.50624 16.5484 2.02069C16.5484 2.02069 16.3052 2 16 2C12.2878 2.00274 8.72848 3.47862 6.10357 6.10353C3.47867 8.72845 2.0028 12.2878 2.00006 16C1.99109 19.0513 2.99155 22.02 4.84558 24.4435C5.85541 25.7929 7.1612 26.8929 8.66259 27.6589C10.164 28.4248 11.821 28.8363 13.5063 28.8618C16.7313 28.6602 19.7478 27.1985 21.9044 24.7921C24.061 22.3858 25.1848 19.2278 25.0332 16Z" fill="#0089DB"/>
</svg>
