<svg width="32" height="32" viewBox="0 0 32 32" fill="none" xmlns="http://www.w3.org/2000/svg">
<path fill-rule="evenodd" clip-rule="evenodd" d="M30 4C29.5548 6.76091 28.5191 9.39668 26.9617 11.7321C25.4042 14.0674 23.3608 16.0489 20.9672 17.5447L19.9844 21.1745L16.5445 23.4835L15.5242 19.7383C14.818 19.7808 14.1147 19.617 13.5023 19.2673L12.117 20.4218L10.9002 18.9994L12.2855 17.8449C12.0884 17.4578 11.9904 17.0289 12.0002 16.5958C12.01 16.1626 12.1272 15.7385 12.3417 15.3604C11.546 14.9679 9.69267 14.192 8.85959 13.8503L11.7426 10.8855L15.3931 10.3775C17.2087 8.32864 19.4565 6.6965 21.979 5.59559C24.5015 4.49468 27.2376 3.95166 29.9953 4.00462L30 4ZM20.2933 12.3356C20.5302 12.6113 20.8445 12.8115 21.1966 12.911C21.5488 13.0106 21.9229 13.0049 22.2718 12.8948C22.6206 12.7846 22.9286 12.5749 23.1568 12.2922C23.385 12.0095 23.5231 11.6664 23.5538 11.3062C23.5845 10.9461 23.5064 10.585 23.3292 10.2686C23.1521 9.95228 22.8839 9.69481 22.5586 9.52873C22.2333 9.36266 21.8653 9.29543 21.5013 9.33554C21.1373 9.37565 20.7935 9.5213 20.5133 9.75409C20.3267 9.9091 20.1729 10.0989 20.0609 10.3127C19.9488 10.5265 19.8806 10.7599 19.8601 10.9998C19.8397 11.2396 19.8675 11.4811 19.9418 11.7103C20.0161 11.9395 20.1356 12.152 20.2933 12.3356ZM3.90328 24.2501L8.50858 20.6804L9.67863 22.1582L5.078 25.7279L3.90328 24.2501ZM3 20.6804L7.60062 17.1106L8.77535 18.5884L4.17005 22.1582L3 20.6804ZM7.60062 26.5268L12.2059 22.9525L13.376 24.4302L8.77535 28L7.60062 26.5268Z" fill="white"/>
</svg>
