<svg width="32" height="32" viewBox="0 0 32 32" fill="none" xmlns="http://www.w3.org/2000/svg">
<path fill-rule="evenodd" clip-rule="evenodd" d="M10.124 3.00007H13.7058C13.7708 3.00153 13.8327 3.02874 13.8782 3.07587C13.9236 3.123 13.9491 3.1863 13.9491 3.25222V8.55307C13.9491 8.61994 13.9753 8.68408 14.0219 8.73137C14.0686 8.77866 14.1318 8.80522 14.1978 8.80522H18.7967C18.8627 8.80522 18.9259 8.77866 18.9726 8.73137C19.0192 8.68408 19.0454 8.61994 19.0454 8.55307V3.25222C19.0454 3.18534 19.0716 3.12121 19.1183 3.07392C19.1649 3.02663 19.2282 3.00007 19.2942 3.00007H22.876C22.942 3.00007 23.0052 3.02663 23.0519 3.07392C23.0985 3.12121 23.1247 3.18534 23.1247 3.25222V8.55307C23.1247 8.61994 23.1509 8.68408 23.1976 8.73137C23.2442 8.77866 23.3075 8.80522 23.3735 8.80522H27.7513C27.8172 8.80522 27.8805 8.83179 27.9271 8.87908C27.9738 8.92637 28 8.9905 28 9.05738V12.6828C28 12.7497 27.9738 12.8138 27.9271 12.8611C27.8805 12.9084 27.8172 12.935 27.7513 12.935H23.3735C23.3075 12.935 23.2442 12.9615 23.1976 13.0088C23.1509 13.0561 23.1247 13.1202 23.1247 13.1871V18.813C23.1247 18.8798 23.1509 18.944 23.1976 18.9913C23.2442 19.0385 23.3075 19.0651 23.3735 19.0651H27.7513C27.8172 19.0651 27.8805 19.0917 27.9271 19.139C27.9738 19.1863 28 19.2504 28 19.3173V22.9427C28 22.9758 27.9936 23.0086 27.9811 23.0392C27.9686 23.0698 27.9502 23.0976 27.9271 23.121C27.904 23.1444 27.8766 23.163 27.8464 23.1756C27.8163 23.1883 27.7839 23.1948 27.7513 23.1948H23.3735C23.3075 23.1948 23.2442 23.2214 23.1976 23.2687C23.1509 23.316 23.1247 23.3801 23.1247 23.447V28.7478C23.1247 28.8147 23.0985 28.8789 23.0519 28.9261C23.0052 28.9734 22.942 29 22.876 29H19.2942C19.2282 29 19.1649 28.9734 19.1183 28.9261C19.0716 28.8789 19.0454 28.8147 19.0454 28.7478V23.447C19.0454 23.3801 19.0192 23.316 18.9726 23.2687C18.9259 23.2214 18.8627 23.1948 18.7967 23.1948H14.2033C14.1373 23.1948 14.0741 23.2214 14.0274 23.2687C13.9808 23.316 13.9546 23.3801 13.9546 23.447V28.7478C13.9546 28.8147 13.9284 28.8789 13.8817 28.9261C13.8351 28.9734 13.7718 29 13.7058 29H10.124C10.058 29 9.99477 28.9734 9.94812 28.9261C9.90148 28.8789 9.87527 28.8147 9.87527 28.7478V23.447C9.87527 23.3801 9.84906 23.316 9.80242 23.2687C9.75577 23.2214 9.6925 23.1948 9.62653 23.1948H5.24874C5.21607 23.1948 5.18373 23.1883 5.15355 23.1756C5.12337 23.163 5.09595 23.1444 5.07285 23.121C5.04976 23.0976 5.03144 23.0698 5.01894 23.0392C5.00643 23.0086 5 22.9758 5 22.9427V19.3173C5 19.2504 5.02621 19.1863 5.07285 19.139C5.1195 19.0917 5.18277 19.0651 5.24874 19.0651H9.62653C9.6925 19.0651 9.75577 19.0385 9.80242 18.9913C9.84906 18.944 9.87527 18.8798 9.87527 18.813V13.1871C9.87527 13.1202 9.84906 13.0561 9.80242 13.0088C9.75577 12.9615 9.6925 12.935 9.62653 12.935H5.24874C5.18277 12.935 5.1195 12.9084 5.07285 12.8611C5.02621 12.8138 5 12.7497 5 12.6828V9.05738C5 8.9905 5.02621 8.92637 5.07285 8.87908C5.1195 8.83179 5.18277 8.80522 5.24874 8.80522H9.62653C9.6925 8.80522 9.75577 8.77866 9.80242 8.73137C9.84906 8.68408 9.87527 8.61994 9.87527 8.55307V3.25222C9.87452 3.2189 9.88043 3.18576 9.89266 3.15483C9.9049 3.12389 9.92319 3.09578 9.94644 3.07221C9.96969 3.04864 9.99741 3.0301 10.0279 3.0177C10.0585 3.0053 10.0911 2.9993 10.124 3.00007ZM19.0454 18.8242V13.1871C19.0454 13.1202 19.0192 13.0561 18.9726 13.0088C18.9259 12.9615 18.8627 12.935 18.7967 12.935H14.1978C14.1318 12.935 14.0686 12.9615 14.0219 13.0088C13.9753 13.0561 13.9491 13.1202 13.9491 13.1871V18.813C13.9491 18.8798 13.9753 18.944 14.0219 18.9913C14.0686 19.0385 14.1318 19.0651 14.1978 19.0651H18.7967C18.8617 19.0651 18.9241 19.0393 18.9706 18.9932C19.0171 18.9472 19.044 18.8901 19.0454 18.8242Z" fill="#4A4A4A"/>
</svg>
