<svg width="32" height="32" viewBox="0 0 32 32" fill="none" xmlns="http://www.w3.org/2000/svg">
<path d="M13.2585 8.76746L8.60665 28.1968L7 28.8506L13.2585 8.76746Z" fill="#182160"/>
<path d="M13.4817 8.63232L16.1392 25.0445L20.6089 25.1239L13.4771 8.63232H13.4817Z" fill="#3C4183"/>
<path d="M13.5771 8.51093L20.751 25.1239L22.9228 9.83735L13.5771 8.51093Z" fill="#E1553B"/>
<path d="M20.9202 24.8855L24.4044 11.7287L23.0219 9.97723L20.9202 24.8855Z" fill="#182160"/>
<path d="M20.5902 11.7979L19.983 9.13574L14.5186 10.9323L20.5996 11.7979H20.5902Z" fill="#0E0546"/>
<path d="M14.4907 10.8392L19.9864 9.04264L18.2116 8.26111L14.4907 10.8392Z" fill="#3C4183"/>
<path d="M14.3965 10.8112L18.1453 8.21753L15.1157 9.43497L14.3996 10.8112H14.3965ZM15.1157 9.3727L17.9648 8.22064L15.4614 8.3016L15.1157 9.3727ZM15.4396 8.22064L17.9772 8.13657L16.2429 7.35504L15.4396 8.22064Z" fill="#E1553B"/>
<path d="M16.2969 7.29906L19.0712 8.5383L17.5081 6.70435L16.2969 7.29906ZM17.6825 6.77907L19.1646 8.54764L19.4853 7.56995L17.6825 6.77907Z" fill="#F05239"/>
<path d="M19.2287 8.57835L19.9635 8.95199L19.5556 7.57886L19.2256 8.58146L19.2287 8.57835Z" fill="#E1553B"/>
<path d="M17.5469 6.66669L19.4805 7.46379L18.8733 6.66669H17.5469Z" fill="#F05239"/>
<path d="M22.3345 8.38852L20.0491 8.98635L19.6692 7.62567L22.3345 8.38852Z" fill="#F57C08"/>
<path d="M16.0041 22.064L10.8604 25.3333L11.1624 24.1314L16.0041 22.064Z" fill="#0E0546"/>
<path d="M8.29053 29.9999L16.0389 25.1005L13.4047 8.75842L8.29053 29.9999Z" fill="#0E0546"/>
</svg>
