<svg width="32" height="32" viewBox="0 0 32 32" fill="none" xmlns="http://www.w3.org/2000/svg">
<path d="M16.0044 7.85352C13.853 7.85352 11.7898 8.70816 10.2685 10.2294C8.74722 11.7507 7.89258 13.814 7.89258 15.9654C7.89258 18.1168 8.74722 20.18 10.2685 21.7013C11.7898 23.2226 13.853 24.0772 16.0044 24.0772H24.1142V15.9633C24.1131 13.8128 23.2584 11.7507 21.7377 10.23C20.2171 8.70938 18.155 7.8546 16.0044 7.85352ZM11.0884 15.9633C11.0884 14.6551 11.6081 13.4006 12.5331 12.4755C13.4581 11.5505 14.7127 11.0308 16.0209 11.0308C17.329 11.0308 18.5836 11.5505 19.5087 12.4755C20.4337 13.4006 20.9533 14.6551 20.9533 15.9633V20.9163H16.0044C14.6959 20.9109 13.443 20.3861 12.5212 19.4574C11.5994 18.5286 11.084 17.2719 11.0884 15.9633Z" fill="#00C59C"/>
<path d="M6.32658 7.98085C7.25959 7.98085 8.01595 7.2245 8.01595 6.29148C8.01595 5.35847 7.25959 4.60211 6.32658 4.60211C5.39356 4.60211 4.63721 5.35847 4.63721 6.29148C4.63721 7.2245 5.39356 7.98085 6.32658 7.98085Z" fill="#00C59C"/>
<path d="M15.9836 2.00018C13.3947 1.98685 10.8561 2.71422 8.66708 4.09648L9.24253 4.71304C11.2685 3.46471 13.6039 2.80964 15.9836 2.82226C18.585 2.82226 21.1281 3.59368 23.2911 5.03898C25.4542 6.48428 27.14 8.53853 28.1356 10.942C29.1311 13.3454 29.3916 15.9901 28.8841 18.5416C28.3766 21.0931 27.1238 23.4367 25.2843 25.2763C23.4448 27.1158 21.1011 28.3685 18.5496 28.876C15.9982 29.3835 13.3535 29.1231 10.95 28.1275C8.5466 27.132 6.49234 25.4461 5.04704 23.2831C3.60175 21.12 2.83032 18.577 2.83032 15.9755C2.82357 13.591 3.49347 11.2535 4.76221 9.23447L4.10454 8.61791C2.46903 11.2533 1.75498 14.3572 2.0745 17.4424C2.39402 20.5275 3.72901 23.4192 5.8699 25.6635C8.01079 27.9078 10.8364 29.3776 13.903 29.8422C16.9697 30.3068 20.1038 29.7398 22.8134 28.2304C25.5229 26.7209 27.6545 24.3543 28.8735 21.5023C30.0925 18.6502 30.3298 15.474 29.5483 12.4725C28.7667 9.4709 27.0105 6.81384 24.5554 4.91842C22.1003 3.023 19.0852 1.99654 15.9836 2.00018Z" fill="#7C8889"/>
</svg>
