<svg width="32" height="32" viewBox="0 0 32 32" fill="none" xmlns="http://www.w3.org/2000/svg">
<path fill-rule="evenodd" clip-rule="evenodd" d="M17.6138 14.6566C15.6945 13.8961 13.8839 13.2081 13.8115 11.6509C13.7753 10.4921 15.1151 9.65926 16.0929 9.62305C17.0937 9.55648 18.0963 9.72483 19.0206 10.1147C19.9449 10.5045 20.7652 11.105 21.4161 11.8682C21.4631 11.9158 21.5193 11.9535 21.5812 11.979C21.6431 12.0045 21.7095 12.0173 21.7765 12.0167C21.8434 12.016 21.9096 12.0019 21.9709 11.9752C22.0323 11.9485 22.0877 11.9097 22.1339 11.8612C22.18 11.8126 22.2159 11.7553 22.2394 11.6926C22.2629 11.6299 22.2736 11.5632 22.2708 11.4963C22.2681 11.4294 22.2519 11.3637 22.2232 11.3032C22.1946 11.2427 22.1541 11.1885 22.1041 11.144C21.3415 10.2793 20.3885 9.60349 19.3202 9.16988C18.2519 8.73628 17.0975 8.55671 15.948 8.64531C13.0872 8.79016 10.5886 10.2749 10.7696 13.4254C10.8783 16.2137 13.5942 17.2277 15.9842 18.1692C17.7948 18.8572 19.3882 19.4366 19.4968 20.7403C19.5693 22.1888 18.0845 23.0579 16.8171 23.1303C15.81 23.2053 14.7995 23.0409 13.868 22.6507C12.9366 22.2605 12.1106 21.6555 11.4577 20.8851C11.3645 20.8011 11.2453 20.7516 11.1201 20.745C10.9948 20.7384 10.8711 20.7751 10.7696 20.8489C10.7123 20.8931 10.6653 20.9493 10.6318 21.0135C10.5983 21.0777 10.5792 21.1484 10.5758 21.2208C10.5723 21.2931 10.5846 21.3653 10.6119 21.4324C10.6391 21.4995 10.6806 21.5599 10.7334 21.6094C11.5075 22.4794 12.4729 23.1579 13.5537 23.5915C14.6345 24.0251 15.8012 24.2019 16.962 24.108C19.6055 23.927 22.8646 22.4422 22.7197 19.2918C22.5749 16.5396 19.9676 15.5257 17.6138 14.6566ZM20.0762 22.225L20.0038 22.1888C20.3172 21.6661 20.4567 21.0575 20.4021 20.4506C20.4021 18.6399 18.4467 17.9519 16.3826 17.2277C14.1012 16.3948 11.6749 15.5257 11.6749 13.0994C11.6581 12.5406 11.7859 11.9869 12.0461 11.492C12.3062 10.9971 12.6898 10.5779 13.1596 10.2749L13.1959 10.3111C12.9517 10.8449 12.828 11.426 12.8337 12.0131C12.8337 13.9685 15.0065 14.8014 17.2154 15.5981C19.4968 16.431 21.7058 17.2639 21.7058 19.328C21.7044 19.9099 21.5539 20.4817 21.2686 20.9889C20.9834 21.4961 20.5728 21.9216 20.0762 22.225Z" fill="#4A4A4A"/>
<path fill-rule="evenodd" clip-rule="evenodd" d="M21.7071 19.3283C21.7058 19.9102 21.5553 20.482 21.27 20.9892C20.9847 21.4963 20.5742 21.9219 20.0776 22.2253L20.0051 22.189C20.3185 21.6664 20.458 21.0578 20.4035 20.4508C20.4035 18.6402 18.448 17.9522 16.3839 17.2279C14.1025 16.395 11.6763 15.5259 11.6763 13.0997C11.6594 12.5409 11.7873 11.9872 12.0474 11.4923C12.3075 10.9974 12.6911 10.5781 13.161 10.2751L13.1972 10.3114C12.953 10.8452 12.8294 11.4263 12.8351 12.0133C12.8351 13.9688 15.0078 14.8017 17.2168 15.5984C19.4982 16.4313 21.7071 17.2641 21.7071 19.3283Z" fill="#646464"/>
<path d="M16.5 30C13.83 30 11.2199 29.2082 8.99981 27.7248C6.77974 26.2414 5.04941 24.133 4.02763 21.6662C3.00585 19.1994 2.7385 16.485 3.2594 13.8663C3.78031 11.2475 5.06606 8.84207 6.95406 6.95406C8.84207 5.06606 11.2475 3.78031 13.8663 3.2594C16.485 2.7385 19.1994 3.00585 21.6662 4.02763C24.133 5.04941 26.2414 6.77974 27.7248 8.99981C29.2082 11.2199 30 13.83 30 16.5C29.9962 20.0792 28.5726 23.5108 26.0417 26.0417C23.5108 28.5726 20.0792 29.9962 16.5 30ZM16.5 3.76047C13.9804 3.76047 11.5173 4.50763 9.4223 5.90747C7.32729 7.3073 5.69443 9.29695 4.73021 11.6248C3.76598 13.9526 3.5137 16.5141 4.00525 18.9854C4.49681 21.4566 5.71014 23.7266 7.49179 25.5082C9.27345 27.2899 11.5434 28.5032 14.0146 28.9948C16.4859 29.4863 19.0474 29.234 21.3752 28.2698C23.7031 27.3056 25.6927 25.6727 27.0925 23.5777C28.4924 21.4827 29.2395 19.0196 29.2395 16.5C29.2357 13.1224 27.8923 9.88432 25.504 7.49603C23.1157 5.10773 19.8776 3.7643 16.5 3.76047Z" fill="#4A4A4A"/>
</svg>
