<svg width="32" height="32" viewBox="0 0 32 32" fill="none" xmlns="http://www.w3.org/2000/svg">
<mask id="mask0_22_1221" style="mask-type:luminance" maskUnits="userSpaceOnUse" x="3" y="3" width="26" height="26">
<path d="M3 3H29V29H3V3Z" fill="white"/>
</mask>
<g mask="url(#mask0_22_1221)">
<path d="M16.0017 29.0033C23.1823 29.0033 29.0033 23.1823 29.0033 16.0017C29.0033 8.82104 23.1823 3 16.0017 3C8.82104 3 3 8.82104 3 16.0017C3 23.1823 8.82104 29.0033 16.0017 29.0033Z" fill="#F3E3CC"/>
<path fill-rule="evenodd" clip-rule="evenodd" d="M15.9688 27.7611C17.6285 27.7643 19.2702 27.4167 20.7862 26.7409C22.3022 26.0652 23.6582 25.0766 24.7654 23.8401C24.2697 23.411 23.6392 23.1694 22.9837 23.1573C22.3282 23.1452 21.6892 23.3635 21.178 23.774L20.9732 23.9392C20.0297 24.6982 18.831 25.0665 17.6241 24.9682C16.4171 24.8699 15.2938 24.3124 14.4856 23.4107C14.0453 22.9196 13.4302 22.6205 12.7721 22.5773C12.114 22.5341 11.4651 22.7502 10.9643 23.1794L8.6091 25.1944C10.6998 26.8634 13.2969 27.7699 15.9721 27.7644L15.9688 27.7611ZM19.794 22.0695C20.6837 21.3534 21.7916 20.963 22.9337 20.963C24.0759 20.963 25.1837 21.3534 26.0735 22.0695C27.2392 20.1378 27.824 17.9111 27.7578 15.6558C27.6916 13.4005 26.9772 11.212 25.7002 9.35196C25.272 9.26061 24.8284 9.271 24.405 9.3823C23.9816 9.4936 23.5903 9.7027 23.2624 9.99279L23.0642 10.1679C22.1564 10.969 20.976 11.3916 19.766 11.3486C18.5561 11.3056 17.4086 10.8002 16.5601 9.93664C16.0982 9.46696 15.4711 9.19645 14.8126 9.18287C14.154 9.16929 13.5163 9.41372 13.0355 9.86397L10.2938 12.4372L8.78418 10.8384L11.5259 8.26188C12.4274 7.41823 13.623 6.96048 14.8574 6.98641C16.0918 7.01233 17.2671 7.51986 18.1324 8.40062C18.5854 8.86169 19.198 9.13139 19.8439 9.15413C20.4898 9.17687 21.1199 8.95091 21.6041 8.52284L21.8023 8.34777C22.3916 7.82737 23.0957 7.45383 23.857 7.25769C22.261 5.82618 20.3053 4.85639 18.1999 4.45247C16.0944 4.04854 13.9186 4.22573 11.9063 4.96501C9.89387 5.70429 8.12086 6.97773 6.77758 8.6486C5.43431 10.3195 4.57151 12.3247 4.28183 14.4489C5.19233 14.0135 6.21615 13.8737 7.21004 14.0491C8.20392 14.2244 9.11812 14.7061 9.82471 15.4267C10.2774 15.8894 10.8847 16.1691 11.5307 16.2124C12.1766 16.2557 12.8158 16.0594 13.3262 15.6612L14.8556 14.4687C15.79 13.7413 16.948 13.3608 18.1318 13.3921C19.3156 13.4235 20.4518 13.8647 21.3465 14.6405L24.3326 17.2336L22.8858 18.8885L19.903 16.2954C19.3943 15.8534 18.7479 15.6018 18.0742 15.5837C17.4006 15.5657 16.7416 15.7822 16.2099 16.1963L14.6772 17.3888C13.7398 18.1188 12.5667 18.4784 11.3813 18.3992C10.1959 18.32 9.08098 17.8075 8.24905 16.9594C7.76776 16.469 7.11384 16.1863 6.42692 16.1714C5.73999 16.1566 5.07449 16.4109 4.57251 16.8801L4.24219 17.1906C4.48351 19.5799 5.45462 21.837 7.02354 23.6551L9.53402 21.508C10.4728 20.7044 11.6889 20.3005 12.9219 20.3826C14.1549 20.4647 15.3067 21.0264 16.1306 21.9473C16.5616 22.4289 17.1608 22.7268 17.8049 22.7797C18.449 22.8325 19.0888 22.6363 19.5925 22.2314L19.794 22.0695Z" fill="url(#paint0_linear_22_1221)"/>
</g>
<defs>
<linearGradient id="paint0_linear_22_1221" x1="16.0018" y1="4.23851" x2="16.0018" y2="27.7611" gradientUnits="userSpaceOnUse">
<stop stop-color="#893455"/>
<stop offset="1" stop-color="#E23E40"/>
</linearGradient>
</defs>
</svg>
