<svg width="32" height="32" viewBox="0 0 32 32" fill="none" xmlns="http://www.w3.org/2000/svg">
<path d="M14.3983 3C13.6072 2.99888 12.848 3.31153 12.2874 3.86932L3.4992 12.6579C3.17954 12.9779 3 13.4116 3 13.8638C3 14.316 3.17954 14.7497 3.4992 15.0697L9.25901 20.8263V10.6383C9.25901 10.2742 9.40373 9.92502 9.66134 9.66755C9.91895 9.41009 10.2683 9.26545 10.6327 9.26545H22.741L28.994 3.0106H14.4036L14.3983 3ZM9.26431 22.7293H21.3673C21.5477 22.7293 21.7263 22.6937 21.893 22.6248C22.0597 22.5558 22.2111 22.4546 22.3387 22.3271C22.4662 22.1997 22.5674 22.0483 22.6364 21.8817C22.7055 21.7152 22.741 21.5367 22.741 21.3564V11.1737L28.5008 16.9303C28.8205 17.2503 29 17.684 29 18.1362C29 18.5884 28.8205 19.0221 28.5008 19.3421L19.7126 28.1307C19.152 28.6885 18.3928 29.0011 17.6017 29H3.00065L9.25901 22.7452L9.26431 22.7293Z" fill="#4A21EF"/>
</svg>
