<svg width="32" height="32" viewBox="0 0 32 32" fill="none" xmlns="http://www.w3.org/2000/svg">
<path d="M21.8208 5.28815C21.1505 5.95741 20.5389 6.68297 19.9927 7.45683L19.82 7.39925C18.8284 7.07412 17.8001 6.87426 16.7589 6.80431C16.1386 6.78024 15.5176 6.78024 14.8973 6.80431C13.863 6.85793 12.8418 7.05991 11.865 7.40405L11.7547 7.44244C11.1889 6.67033 10.5563 5.94946 9.86426 5.28815C11.5074 4.44612 13.3098 3.96043 15.1535 3.86287C16.9973 3.76531 18.8409 4.05807 20.5637 4.722C20.9379 4.86593 21.3026 5.02906 21.6576 5.20179L21.8208 5.28815Z" fill="#F00500"/>
<path d="M28.022 20.4836C27.5206 21.9204 26.7613 23.2536 25.7814 24.4179C25.2477 25.041 24.6601 25.6158 24.0254 26.1356C22.542 27.3292 20.8137 28.1811 18.9635 28.6305C16.9201 29.1231 14.7888 29.1231 12.7454 28.6305C10.8949 28.182 9.16636 27.33 7.68353 26.1356C7.0489 25.6157 6.46128 25.0409 5.92747 24.4179C4.53844 22.7771 3.60122 20.8025 3.20828 18.6889C2.81535 16.5753 2.98029 14.3958 3.68683 12.3655C3.95801 11.5995 4.30015 10.8606 4.70879 10.1584C4.89591 9.84173 5.12622 9.48188 5.23657 9.33315C5.62041 10.9884 6.1002 12.4422 6.27293 12.9652L6.22975 13.0564C5.33113 14.8148 4.80054 16.7379 4.67041 18.7083V18.7851C4.62347 19.1943 4.64946 19.6085 4.74718 20.0086C5.26414 21.4556 6.19517 22.7187 7.42444 23.6406C9.69131 25.6124 12.4844 26.8797 15.461 27.2871C18.7103 27.1862 21.8225 25.9542 24.2605 23.8038C24.6511 23.456 25.0197 23.0843 25.364 22.6906C25.5816 22.4447 25.779 22.1816 25.9541 21.9038L25.9733 21.8894L25.9877 21.8606L26.0021 21.8414L26.0213 21.8222L26.0357 21.803L26.0501 21.779L26.0549 21.7598L26.0741 21.7407L26.0885 21.7215L26.1077 21.7071C26.1196 21.6732 26.1357 21.641 26.1556 21.6111C26.2739 21.4181 26.3859 21.2212 26.4915 21.021C26.7037 20.5636 26.8522 20.0793 26.9329 19.5816C26.9654 19.3431 26.9767 19.1023 26.9665 18.8619L26.9617 18.7755L26.9377 18.4541C26.9305 18.2683 26.9193 18.0828 26.9041 17.8975C26.7615 16.1791 26.2422 14.5131 25.3832 13.018C25.3506 12.964 25.3217 12.9079 25.2968 12.85L25.2824 12.8165C25.685 11.5953 26.0308 10.3561 26.3188 9.10284L26.3284 9.10764L26.386 9.18921C26.4915 9.33315 26.7698 9.74577 26.8897 9.94728C27.8522 11.5079 28.4538 13.2638 28.6505 15.0868C28.8472 16.9097 28.6342 18.7536 28.0268 20.4836H28.022Z" fill="#F00500"/>
<path d="M22.8189 15.6999C22.7192 15.8559 22.5886 15.9898 22.4351 16.0933C21.659 16.5848 20.7902 16.9114 19.8825 17.0529C19.4501 17.1576 19.0003 17.1691 18.5631 17.0865C18.4528 17.0337 18.4384 16.9905 18.4767 16.8466C18.6297 16.4573 18.9039 16.1276 19.2588 15.9062C19.4747 15.7526 20.3527 15.2201 20.7606 14.9946C21.2506 14.698 21.7852 14.4825 22.3439 14.3564C22.4453 14.337 22.5495 14.337 22.651 14.3564C22.7229 14.3852 22.7997 14.5963 22.8333 14.8506C22.8466 15.1321 22.8418 15.419 22.8189 15.6999Z" fill="black"/>
<path d="M13.3789 17.0242C13.3024 17.0975 13.2017 17.1402 13.0958 17.1441C12.8335 17.1605 12.5702 17.1541 12.3089 17.1249C11.4755 17.0164 10.6633 16.7818 9.90037 16.4292C9.59481 16.2909 9.31432 16.1028 9.07032 15.8727L8.95997 15.7575L8.94557 15.604C8.92303 15.3275 8.92785 15.0495 8.95997 14.7739C8.98126 14.6509 9.02345 14.5325 9.08471 14.4237C9.1183 14.3805 9.1183 14.3805 9.26224 14.3805C9.45554 14.3837 9.64691 14.4194 9.8284 14.486C10.5695 14.761 11.2789 15.1149 11.9443 15.5416C12.4171 15.7687 12.8359 16.0942 13.1726 16.4964C13.3033 16.6413 13.3767 16.829 13.3789 17.0242Z" fill="black"/>
<path d="M19.0538 22.5997L18.9483 23.0315L18.8379 23.4537C18.7964 23.4574 18.7547 23.4574 18.7132 23.4537H18.5836L18.4061 23.8712L18.2142 24.3462L18.1854 24.4037L18.1038 24.2646L18.0175 24.1303V23.0219L17.9839 23.0267C17.7291 23.068 17.4731 23.1016 17.2162 23.1275C16.3409 23.216 15.458 23.1982 14.5869 23.0747C14.498 23.0591 14.4083 23.0479 14.3182 23.0411L14.3278 23.6169L14.3422 24.183L14.2703 24.2886L14.1983 24.3989C14.1887 24.4085 14.1503 24.3462 14.0544 24.159C13.9567 23.9655 13.8826 23.7609 13.8337 23.5497L13.8049 23.4346L13.6801 23.4441L13.5554 23.4585L13.5218 23.3098C13.5046 23.2191 13.4902 23.1279 13.4786 23.0363L13.469 22.9068L13.3635 22.8108L13.2339 22.7053C13.2245 22.6969 13.217 22.6865 13.2121 22.6749C13.2071 22.6633 13.2047 22.6507 13.2051 22.6381V22.5901H13.7041L14.2079 22.5949L14.2223 22.6477L14.2415 22.7005L14.4094 22.7101L15.0811 22.7293L15.5849 22.7436L15.7145 22.5421L15.844 22.3406H16.0119V21.9232L16.0023 21.5058L15.7816 21.4098C15.5046 21.322 15.2482 21.179 15.028 20.9893C14.8078 20.7996 14.6284 20.5673 14.5006 20.3063C14.4568 20.1373 14.4422 19.962 14.4574 19.7881C14.4367 19.6136 14.4448 19.437 14.4814 19.2651C14.5083 19.1669 14.5607 19.0776 14.6331 19.006C14.7055 18.9344 14.7955 18.8831 14.894 18.8573C15.2914 18.8258 15.6905 18.8194 16.0887 18.8381H17.2018L17.3266 18.9005C17.4481 18.9501 17.5529 19.0333 17.6288 19.1404C17.7286 19.2756 17.7732 19.4437 17.7536 19.6106C17.7608 19.868 17.7399 20.1254 17.6912 20.3783C17.6387 20.5428 17.561 20.6982 17.4609 20.8389C17.2216 21.1228 16.9123 21.3395 16.5637 21.4674L16.4677 21.5058V21.928L16.4725 22.3454L16.5637 22.355L16.6501 22.3598L16.77 22.5421L16.8852 22.7245H17.4225L18.0031 22.7293C18.0463 22.7388 18.0511 22.7341 18.0942 22.6669L18.1422 22.5949H18.6028C18.7509 22.5735 18.9062 22.5752 19.0538 22.5997Z" fill="black"/>
<path d="M16.9388 23.7507C16.8669 23.7939 16.8141 23.8131 16.7997 23.8083L16.6702 23.7123L16.5646 23.6211L16.4542 23.7411C16.2096 24.005 16.2 24.0194 16.128 24.0242C16.0128 24.0338 15.9888 24.0146 15.8545 23.8083L15.725 23.6163L15.6146 23.6067L15.5043 23.5924L15.4515 23.7027L15.3987 23.8083L15.3027 23.7795C15.2308 23.7564 15.1604 23.7292 15.0916 23.6979L14.9717 23.6355V23.41H16.0368L17.1068 23.4148V23.5252C17.1116 23.6547 17.1164 23.6499 16.9388 23.7507Z" fill="black"/>
<path d="M26.9537 18.8621L26.9441 18.7709C25.8257 18.666 24.6976 18.7832 23.6247 19.1159C22.5518 19.4485 21.5553 19.99 20.6924 20.7093C20.4485 19.6493 19.8558 18.7019 19.0093 18.019C18.1628 17.336 17.1115 16.9571 16.024 16.9429C14.875 16.9959 13.7658 17.3796 12.8296 18.0477C11.8934 18.7158 11.17 19.64 10.7462 20.7093C9.96873 19.9112 9.0101 19.3127 7.95178 18.9643C6.89347 18.616 5.76672 18.5283 4.66723 18.7085V18.7853C4.62029 19.1944 4.64628 19.6087 4.744 20.0088C5.26096 21.4558 6.19199 22.7189 7.42126 23.6408C9.68813 25.6125 12.4812 26.8798 15.4578 27.2873C18.7071 27.1864 21.8193 25.9544 24.2573 23.8039C24.6479 23.4562 25.0165 23.0845 25.3608 22.6908C25.5782 22.4464 25.7756 22.1849 25.951 21.9088L25.9701 21.8896L25.9845 21.8608L25.9989 21.8416L26.0181 21.8224L26.0325 21.8032L26.0469 21.7792L26.0517 21.76L26.0709 21.7408L26.0853 21.7216L26.1045 21.7072C26.1164 21.6734 26.1325 21.6411 26.1525 21.6113C26.2148 21.5201 26.4547 21.0931 26.4883 21.0211C26.7005 20.5637 26.849 20.0794 26.9297 19.5817C26.9557 19.3428 26.9637 19.1022 26.9537 18.8621ZM16.9356 23.7512C16.8636 23.7943 16.8109 23.8135 16.7965 23.8087L16.6669 23.7128L16.5614 23.6216L16.451 23.7416C16.2063 24.0055 16.1967 24.0199 16.1247 24.0247C16.0096 24.0342 15.9856 24.0151 15.8513 23.8087L15.7217 23.6168L15.6114 23.6072L15.501 23.5928L15.4482 23.7032L15.3955 23.8087L15.2995 23.78C15.2276 23.7569 15.1571 23.7297 15.0884 23.6984L14.9684 23.636V23.4105H16.0336L17.1035 23.4153V23.5257C17.1083 23.6552 17.1131 23.6504 16.9356 23.7512ZM18.9411 23.0315C18.9027 23.1702 18.8659 23.3093 18.8308 23.4489C18.7894 23.4544 18.7477 23.456 18.706 23.4537H18.5765L18.4038 23.8759L18.2119 24.3509L18.1831 24.4037L18.1015 24.2693L18.0151 24.1302V23.0219L17.9816 23.0267C17.7267 23.068 17.4707 23.1016 17.2139 23.1274C16.3385 23.2159 15.4557 23.1982 14.5846 23.0747C14.4957 23.059 14.406 23.0478 14.3159 23.0411L14.3255 23.6168L14.3399 24.183L14.2679 24.2885L14.196 24.3989C14.1864 24.4085 14.148 24.3461 14.052 24.159C13.9544 23.9654 13.8803 23.7608 13.8313 23.5497L13.8025 23.4345L13.6778 23.4441L13.553 23.4585L13.5195 23.3098C13.5023 23.2191 13.4879 23.1279 13.4763 23.0363L13.4667 22.9067L13.3611 22.8108L13.2316 22.7052C13.2222 22.6968 13.2147 22.6864 13.2097 22.6748C13.2048 22.6632 13.2024 22.6507 13.2028 22.638V22.5901H13.7018L14.2056 22.5949L14.22 22.6476L14.2391 22.7004L14.4071 22.71L15.0788 22.7292L15.5826 22.7436L15.7121 22.5421L15.8417 22.3406H16.0096V21.9231L16 21.5057L15.7793 21.4098C15.5023 21.322 15.2459 21.1789 15.0257 20.9893C14.8055 20.7996 14.6261 20.5672 14.4982 20.3062C14.4545 20.1372 14.4399 19.962 14.4551 19.7881C14.4343 19.6136 14.4424 19.4369 14.479 19.2651C14.506 19.1669 14.5583 19.0775 14.6308 19.0059C14.7032 18.9343 14.7932 18.8831 14.8917 18.8573C15.2891 18.8257 15.6881 18.8193 16.0864 18.8381H17.1995L17.3242 18.9004C17.4457 18.9501 17.5506 19.0333 17.6265 19.1403C17.7262 19.2756 17.7708 19.4436 17.7513 19.6105C17.7585 19.8679 17.7376 20.1254 17.6889 20.3782C17.6364 20.5427 17.5587 20.6981 17.4586 20.8388C17.2193 21.1228 16.91 21.3394 16.5614 21.4673L16.4654 21.5057V21.9279L16.4702 22.3454L16.5614 22.355L16.6477 22.3598L16.7677 22.5421L16.8828 22.7244H17.4202L18.0007 22.7292C18.0439 22.7388 18.0487 22.734 18.0919 22.6668L18.1399 22.5949H18.6005C18.754 22.5812 18.9087 22.586 19.0611 22.6093C19.0086 22.7449 18.9669 22.8845 18.9363 23.0267L18.9411 23.0315Z" fill="white"/>
<path d="M26.9261 18.4542C26.917 18.2685 26.9042 18.0829 26.8877 17.8976C26.745 16.1792 26.2258 14.5133 25.3667 13.0181C25.334 12.9626 25.3051 12.9049 25.2804 12.8454L25.266 12.8166C25.6686 11.5954 26.0144 10.3562 26.3023 9.103C26.8493 6.68003 27.1996 3.84924 26.1344 3C25.2995 3.07384 24.4878 3.31393 23.747 3.70614C23.0063 4.09836 22.3514 4.63477 21.8211 5.28383C21.1526 5.95341 20.5426 6.67895 19.9978 7.4525L19.8251 7.39972C18.8335 7.07459 17.8052 6.87473 16.764 6.80478C16.1437 6.78071 15.5227 6.78071 14.9024 6.80478C13.8684 6.85685 12.8472 7.05722 11.8701 7.39972L11.7597 7.4429C11.1941 6.67068 10.5615 5.9498 9.86935 5.28862C8.73612 3.96687 7.12789 3.14465 5.39286 3C4.26534 3.87803 4.64918 6.83356 5.23453 9.3333C5.61837 10.9886 6.08857 12.4424 6.26609 12.9654L6.21811 13.0565C5.32141 14.8154 4.79248 16.7385 4.66357 18.7085C5.76456 18.5262 6.89331 18.613 7.95351 18.9614C9.01371 19.3098 9.97391 19.9094 10.7522 20.7092C11.1756 19.6407 11.8983 18.717 12.8336 18.0489C13.7689 17.3809 14.877 16.9968 16.0251 16.9429C17.1127 16.9571 18.164 17.336 19.0105 18.019C19.857 18.7019 20.4497 19.6493 20.6935 20.7092C21.557 19.9909 22.5536 19.45 23.6263 19.1174C24.6991 18.7848 25.8269 18.667 26.9453 18.7709L26.9261 18.4542ZM7.01937 11.4588C6.24508 9.59456 5.86605 7.58994 5.90624 5.5717C5.95496 5.24044 6.08339 4.92596 6.28049 4.65529C6.28049 4.65529 7.97896 4.82322 10.7186 7.86992C10.289 8.0942 9.88109 8.3576 9.49991 8.65679L9.49511 8.66159C8.49519 9.42345 7.65412 10.3737 7.01937 11.4588ZM13.3815 17.0244C13.305 17.0978 13.2043 17.1405 13.0984 17.1444C12.836 17.1608 12.5727 17.1544 12.3115 17.1252C11.478 17.0166 10.6659 16.7821 9.90294 16.4295C9.59738 16.2911 9.31689 16.1031 9.07289 15.8729L8.96254 15.7578L8.94815 15.6042C8.9256 15.3277 8.93043 15.0497 8.96254 14.7742C8.98383 14.6512 9.02602 14.5327 9.08729 14.4239C9.12087 14.3807 9.12087 14.3807 9.26481 14.3807C9.45811 14.384 9.64949 14.4197 9.83097 14.4863C10.5721 14.7612 11.2815 15.1151 11.9469 15.5419C12.4197 15.7689 12.8384 16.0945 13.1751 16.4966C13.3059 16.6416 13.3793 16.8292 13.3815 17.0244ZM22.819 15.6954C22.7199 15.8531 22.5892 15.9887 22.4352 16.0936C21.6592 16.5851 20.7903 16.9118 19.8827 17.0532C19.4502 17.158 19.0005 17.1694 18.5632 17.0868C18.4529 17.034 18.4385 16.9908 18.4769 16.8469C18.6298 16.4576 18.9041 16.1279 19.259 15.9065C19.4749 15.753 20.3529 15.2204 20.7607 14.9949C21.2507 14.6983 21.7854 14.4829 22.344 14.3568C22.4455 14.3373 22.5497 14.3373 22.6511 14.3568C22.7231 14.3855 22.7998 14.5967 22.8334 14.8509C22.8468 15.1324 22.842 15.4145 22.819 15.6954ZM22.1569 8.65679L22.1473 8.65199C21.7814 8.35152 21.3878 8.08644 20.9718 7.86033C23.6203 4.81842 25.2564 4.6457 25.2564 4.6457C25.4454 4.92112 25.5685 5.23631 25.6162 5.56691C25.6559 7.58145 25.2904 9.58342 24.5415 11.454C23.9354 10.3759 23.1255 9.42586 22.1569 8.65679Z" fill="#FFA409"/>
<path d="M25.6228 5.56696C25.311 5.52858 23.8332 5.51898 22.1587 8.65684L22.1491 8.65204C21.7832 8.35157 21.3896 8.0865 20.9736 7.86038C23.6221 4.81848 25.2582 4.64575 25.2582 4.64575C25.4508 4.91972 25.5757 5.23541 25.6228 5.56696Z" fill="#FF9300"/>
<path d="M24.5486 11.4589C23.9425 10.378 23.1308 9.42609 22.1592 8.65687C23.8337 5.51901 25.3066 5.5286 25.6233 5.56699C25.6641 7.58318 25.2986 9.58695 24.5486 11.4589Z" fill="#FF8300"/>
<path d="M10.7175 7.86028C10.2877 8.08592 9.87973 8.35094 9.49886 8.65195H9.48926C7.7572 5.51408 6.22665 5.52848 5.90039 5.56686C5.94892 5.23555 6.07736 4.92103 6.27463 4.65045C6.27463 4.65045 7.9779 4.81358 10.7175 7.86028Z" fill="#FF9300"/>
<path d="M9.4966 8.65687C8.49561 9.4195 7.65439 10.3716 7.02086 11.4589C6.24618 9.59307 5.86715 7.58681 5.90773 5.56699C6.23399 5.5286 7.76454 5.51901 9.4966 8.65687Z" fill="#FF8300"/>
<path d="M20.4932 13.536C20.4932 13.536 19.2122 13.6176 19.3705 12.6148C19.4293 12.2858 19.6103 11.9912 19.8773 11.79C20.1443 11.5889 20.4774 11.4962 20.8099 11.5305C21.0978 11.5737 22.2157 11.9719 22.0094 12.8163C21.8031 13.6608 21.5296 13.4976 21.3712 13.536C21.0789 13.5564 20.7855 13.5564 20.4932 13.536Z" fill="white"/>
<path d="M11.0332 13.536C11.0332 13.536 9.75219 13.6175 9.91053 12.6148C9.96935 12.2848 10.1511 11.9895 10.4191 11.7882C10.6871 11.587 11.0215 11.4949 11.3547 11.5304C11.633 11.5736 12.7557 11.9718 12.5542 12.8163C12.3527 13.6607 12.0744 13.4976 11.9113 13.536C11.619 13.5563 11.3256 13.5563 11.0332 13.536Z" fill="white"/>
</svg>
