<svg width="32" height="32" viewBox="0 0 32 32" fill="none" xmlns="http://www.w3.org/2000/svg">
<path d="M29.202 17.1753C28.9833 16.7031 28.6573 16.2885 28.2499 15.9646C27.3073 15.3688 26.253 14.9717 25.1515 14.7978L24.9479 14.7428L24.172 14.5667C22.1357 14.1264 21.0626 13.466 21.0626 12.6736C21.0587 12.4311 21.1174 12.1918 21.2331 11.9788C21.3488 11.7657 21.5175 11.5861 21.723 11.4573C22.317 11.0923 23.0078 10.9157 23.7042 10.951C24.4466 10.9072 25.1809 11.1253 25.7789 11.5674C26.1935 11.9179 26.4624 12.4104 26.5329 12.9487L26.5494 13.0423H29.1139L29.1029 12.9212C29.0831 12.3509 28.9452 11.7908 28.698 11.2765C28.4508 10.7621 28.0996 10.3046 27.6666 9.93291C26.5722 9.08387 25.2083 8.65791 23.8252 8.73318C22.4615 8.66911 21.1166 9.07085 20.0114 9.87237C19.535 10.237 19.1519 10.7095 18.8936 11.251C18.6353 11.7925 18.5091 12.3875 18.5255 12.9873C18.4997 13.4533 18.5787 13.9192 18.7568 14.3507C18.935 14.7821 19.2076 15.1681 19.5547 15.4803C20.7192 16.2543 22.0402 16.7617 23.4235 16.9662L23.7427 17.0432C25.845 17.5165 26.9071 18.1659 26.9071 18.9584C26.9152 19.2422 26.8495 19.5233 26.7164 19.7741C26.5832 20.0249 26.3873 20.2369 26.1476 20.3892C25.4559 20.807 24.6542 21.0065 23.8473 20.9616C23.0022 21.0079 22.1696 20.7414 21.5083 20.2131C21.0838 19.8513 20.7979 19.3533 20.6994 18.8043L20.6828 18.7162H18.1128L18.1293 18.8373C18.2421 20.0445 18.8061 21.1647 19.7088 21.9742C20.89 22.893 22.3642 23.3525 23.8583 23.2675C25.3203 23.3416 26.764 22.9166 27.9527 22.0622C28.4581 21.6752 28.864 21.1733 29.1368 20.5981C29.4095 20.0229 29.5413 19.391 29.5212 18.7547C29.5297 18.2114 29.4208 17.6727 29.202 17.1753Z" fill="#141D2B"/>
<path d="M24.1108 6.8122V4H3V28H24.1108V25.1878H5.8067V6.8122H24.1108Z" fill="#141D2B"/>
</svg>
