<svg width="32" height="32" viewBox="0 0 32 32" fill="none" xmlns="http://www.w3.org/2000/svg">
<path d="M11.6089 14.8748C10.7043 14.8688 9.80107 14.9473 8.91067 15.1095C9.2465 11.8029 10.7725 8.7385 13.196 6.50383C15.6195 4.26916 18.77 3.02148 22.0436 3C26.1747 3 29 5.05345 29 9.30117C29 13.5489 25.6027 15.6023 20.6569 15.6023C16.9996 15.6023 15.2662 14.8866 11.6147 14.8866M11.3489 17.3977C6.39733 17.3977 3 19.4511 3 23.6988C3 27.9465 5.83111 30 9.95644 30C13.2321 29.9795 16.3849 28.7306 18.8089 26.4933C21.233 24.256 22.7574 21.188 23.0893 17.8787C22.197 18.041 21.2918 18.1196 20.3853 18.1134C16.7338 18.1134 15.0004 17.3977 11.3489 17.3977Z" fill="#5B6DEE"/>
</svg>
