<svg width="32" height="32" viewBox="0 0 32 32" fill="none" xmlns="http://www.w3.org/2000/svg">
<path d="M9.52438 10.6625C9.44138 10.5547 9.33455 10.4677 9.21231 10.4083C9.09007 10.3489 8.95575 10.3188 8.81992 10.3202H3.16799C3.12295 10.3174 3.08053 10.298 3.04877 10.2659C3.01895 10.2375 3.00144 10.1985 3 10.1572V6.1586C3.00144 6.11738 3.01895 6.07836 3.04877 6.04994C3.06303 6.03251 3.0814 6.01892 3.10221 6.01038C3.12302 6.00184 3.14563 5.99864 3.16799 6.00105H9.15048C9.9048 6.00733 10.6479 6.18515 11.3237 6.52112C11.9995 6.85709 12.5905 7.34244 13.0521 7.94061L14.5098 9.80411L11.6757 13.4224L9.52438 10.6625ZM19.9721 7.92431C20.4384 7.32716 21.0337 6.84383 21.7133 6.51069C22.3928 6.17756 23.1389 6.00331 23.8954 6.00105H29.8562C29.8755 5.99867 29.8951 6.00035 29.9138 6.00596C29.9324 6.01157 29.9497 6.021 29.9646 6.03364C29.9791 6.0506 29.9896 6.07068 29.9953 6.09234C30.0009 6.114 30.0015 6.13667 29.9971 6.1586V10.1572C29.9982 10.196 29.9868 10.2342 29.9646 10.2659C29.953 10.2838 29.9368 10.2983 29.9178 10.3079C29.8987 10.3175 29.8774 10.3217 29.8562 10.3202H24.1988C24.0634 10.3181 23.9294 10.3474 23.8072 10.4059C23.685 10.4643 23.5779 10.5503 23.4944 10.6571L19.3326 15.9814L23.516 21.3437C23.5984 21.4435 23.702 21.5236 23.8191 21.5781C23.9363 21.6326 24.0642 21.6602 24.1934 21.6588H29.8508C29.8719 21.6583 29.8928 21.6631 29.9116 21.6725C29.9305 21.682 29.9468 21.6959 29.9591 21.7131C29.9853 21.7494 29.9986 21.7934 29.9971 21.8381V25.8367C29.9967 25.8761 29.9833 25.9143 29.9591 25.9454C29.9476 25.9633 29.9314 25.9778 29.9123 25.9874C29.8933 25.9969 29.872 26.0012 29.8508 25.9997H23.8954C23.14 25.996 22.3956 25.8188 21.7192 25.4816C21.0428 25.1444 20.4526 24.6563 19.9937 24.0547L16.5256 19.6106L13.0575 24.0547C12.5931 24.6565 11.9978 25.144 11.3169 25.4801C10.6361 25.8163 9.88771 25.9921 9.1288 25.9943H3.16799C3.14735 25.9953 3.12675 25.9915 3.1079 25.983C3.08905 25.9745 3.0725 25.9616 3.05961 25.9454C3.03124 25.9103 3.01764 25.8654 3.02168 25.8204V21.8218C3.02009 21.7829 3.03154 21.7447 3.05419 21.7131C3.06576 21.6952 3.08192 21.6807 3.10098 21.6711C3.12004 21.6616 3.14131 21.6573 3.16257 21.6588H8.81992C8.95484 21.6581 9.08795 21.6276 9.20973 21.5694C9.33151 21.5111 9.43896 21.4267 9.52438 21.3219L13.6157 16.0792L19.9721 7.92431Z" fill="#00D1FF"/>
</svg>
