<svg width="32" height="32" viewBox="0 0 32 32" fill="none" xmlns="http://www.w3.org/2000/svg">
<path fill-rule="evenodd" clip-rule="evenodd" d="M4.00638 13.2804H25.5774C25.7101 13.2796 25.8417 13.3053 25.9643 13.3561C26.0869 13.4069 26.1981 13.4817 26.2913 13.5761L29.7022 17.0087C29.8442 17.149 29.941 17.3284 29.9803 17.5239C30.0197 17.7195 29.9998 17.9223 29.9231 18.1065C29.8465 18.2907 29.7167 18.4479 29.5501 18.558C29.3836 18.6682 29.188 18.7263 28.9883 18.7249H7.42262C7.2895 18.725 7.15772 18.6984 7.03508 18.6467C6.91245 18.595 6.80146 18.5193 6.7087 18.4239L3.29775 14.9914C3.15797 14.8511 3.06287 14.6726 3.0244 14.4785C2.98594 14.2843 3.00583 14.0831 3.08157 13.9003C3.15732 13.7174 3.28553 13.5609 3.45009 13.4506C3.61464 13.3403 3.80819 13.2811 4.00638 13.2804ZM3.29775 8.73358L6.7087 5.30103C6.80182 5.20616 6.91288 5.1307 7.03543 5.07903C7.15798 5.02736 7.28959 5.00051 7.42262 5.00002H28.9777C29.1775 4.99865 29.3731 5.05675 29.5396 5.16691C29.7061 5.27706 29.8359 5.43427 29.9126 5.61846C29.9892 5.80266 30.0091 6.00547 29.9697 6.20101C29.9304 6.39656 29.8336 6.57595 29.6917 6.7163L26.286 10.1488C26.1924 10.2428 26.0812 10.3172 25.9586 10.368C25.8361 10.4188 25.7047 10.4448 25.5721 10.4446H4.00638C3.80819 10.4438 3.61464 10.3846 3.45009 10.2743C3.28553 10.164 3.15732 10.0076 3.08157 9.82468C3.00583 9.6418 2.98594 9.44063 3.0244 9.24648C3.06287 9.05233 3.15797 8.87388 3.29775 8.73358ZM29.6969 23.2664L26.286 26.699C26.1929 26.7939 26.0818 26.8693 25.9593 26.921C25.8367 26.9727 25.7051 26.9995 25.5721 27H4.00638C3.8071 27.0003 3.61223 26.9415 3.44654 26.8309C3.28085 26.7203 3.15182 26.5631 3.07586 26.3791C2.9999 26.1951 2.98044 25.9928 3.01995 25.7977C3.05946 25.6027 3.15615 25.4238 3.29775 25.2837L6.7087 21.8512C6.80226 21.7573 6.91351 21.6828 7.03605 21.632C7.15858 21.5813 7.28996 21.5552 7.42262 21.5555H28.9777C29.1764 21.5551 29.3706 21.6136 29.536 21.7235C29.7014 21.8334 29.8304 21.9898 29.9068 22.1729C29.9832 22.356 30.0035 22.5576 29.9653 22.7522C29.927 22.9469 29.837 23.1258 29.6969 23.2664Z" fill="url(#paint0_linear_22_1268)"/>
<defs>
<linearGradient id="paint0_linear_22_1268" x1="4.53521" y1="27.9453" x2="28.4204" y2="4.02103" gradientUnits="userSpaceOnUse">
<stop stop-color="#CB4EE8"/>
<stop offset="1" stop-color="#10F4B1"/>
</linearGradient>
</defs>
</svg>
