<svg width="32" height="32" viewBox="0 0 32 32" fill="none" xmlns="http://www.w3.org/2000/svg">
<path d="M15.8117 12.3903C17.2011 12.3903 18.3274 11.2639 18.3274 9.87453C18.3274 8.48511 17.2011 7.35876 15.8117 7.35876C14.4222 7.35876 13.2959 8.48511 13.2959 9.87453C13.2959 11.2639 14.4222 12.3903 15.8117 12.3903Z" fill="#FDE993"/>
<path d="M15.9782 14.9057C17.3676 14.9057 18.4939 13.7794 18.4939 12.39C18.4939 11.0006 17.3676 9.87421 15.9782 9.87421C14.5887 9.87421 13.4624 11.0006 13.4624 12.39C13.4624 13.7794 14.5887 14.9057 15.9782 14.9057Z" fill="#FDE993"/>
<path d="M14.2472 6.13168C14.7999 6.13168 15.2479 5.68367 15.2479 5.13102C15.2479 4.57838 14.7999 4.13037 14.2472 4.13037C13.6946 4.13037 13.2466 4.57838 13.2466 5.13102C13.2466 5.68367 13.6946 6.13168 14.2472 6.13168Z" fill="#B88A5A"/>
<path d="M9.19548 18.9195C9.74812 18.9195 10.1961 18.4715 10.1961 17.9189C10.1961 17.3662 9.74812 16.9182 9.19548 16.9182C8.64283 16.9182 8.19482 17.3662 8.19482 17.9189C8.19482 18.4715 8.64283 18.9195 9.19548 18.9195Z" fill="#B88A5A"/>
<path d="M4.80773 14.5443C5.11684 14.5443 5.36742 14.2937 5.36742 13.9846C5.36742 13.6755 5.11684 13.4249 4.80773 13.4249C4.49863 13.4249 4.24805 13.6755 4.24805 13.9846C4.24805 14.2937 4.49863 14.5443 4.80773 14.5443Z" fill="#F4A836"/>
<path d="M22.1876 14.3801C22.4967 14.3801 22.7473 14.1295 22.7473 13.8204C22.7473 13.5113 22.4967 13.2607 22.1876 13.2607C21.8785 13.2607 21.6279 13.5113 21.6279 13.8204C21.6279 14.1295 21.8785 14.3801 22.1876 14.3801Z" fill="#C8A156"/>
<path d="M13.9748 20.9153C14.8678 20.9153 15.5917 20.1914 15.5917 19.2984C15.5917 18.4054 14.8678 17.6815 13.9748 17.6815C13.0818 17.6815 12.3579 18.4054 12.3579 19.2984C12.3579 20.1914 13.0818 20.9153 13.9748 20.9153Z" fill="#C8A156"/>
<path d="M19.5279 15.6521C19.734 15.6521 19.901 15.485 19.901 15.2789C19.901 15.0729 19.734 14.9058 19.5279 14.9058C19.3218 14.9058 19.1548 15.0729 19.1548 15.2789C19.1548 15.485 19.3218 15.6521 19.5279 15.6521Z" fill="#C8A156"/>
<path d="M12.1289 17.9641C14.8015 17.9641 16.9682 15.7975 16.9682 13.1248C16.9682 10.4522 14.8015 8.28552 12.1289 8.28552C9.45618 8.28552 7.28955 10.4522 7.28955 13.1248C7.28955 15.7975 9.45618 17.9641 12.1289 17.9641Z" fill="#FCE995"/>
<path d="M13.4267 19.2423C16.0994 19.2423 18.266 17.0757 18.266 14.403C18.266 11.7303 16.0994 9.56366 13.4267 9.56366C10.754 9.56366 8.5874 11.7303 8.5874 14.403C8.5874 17.0757 10.754 19.2423 13.4267 19.2423Z" fill="#F4A836"/>
<path d="M13.2701 17.5966C15.6524 17.5966 17.5836 15.6653 17.5836 13.283C17.5836 10.9007 15.6524 8.96948 13.2701 8.96948C10.8878 8.96948 8.95654 10.9007 8.95654 13.283C8.95654 15.6653 10.8878 17.5966 13.2701 17.5966Z" fill="#FDFDFE"/>
<path d="M22.8691 23.1063V24.026C22.8691 24.1634 22.9805 24.2747 23.1179 24.2747H24.0375C24.1749 24.2747 24.2863 24.1634 24.2863 24.026V23.1063C24.2863 22.969 24.1749 22.8576 24.0375 22.8576H23.1179C22.9805 22.8576 22.8691 22.969 22.8691 23.1063Z" fill="#615EE7"/>
<path d="M11.0386 12.2939L12.3106 11.0219L28.0214 26.7383L26.7494 28.0047L11.0386 12.2939Z" fill="#615EE7"/>
<path d="M3.5127 4.02858L3.5127 10.7731C3.5127 11.026 3.71771 11.231 3.97062 11.231H10.7151C10.968 11.231 11.1731 11.026 11.1731 10.7731V4.02858C11.1731 3.77568 10.968 3.57066 10.7151 3.57066H3.97062C3.71771 3.57066 3.5127 3.77568 3.5127 4.02858Z" fill="#7C79F6"/>
<path d="M4.64551 5.07486V9.84068C4.64551 10.0468 4.81256 10.2138 5.01863 10.2138H9.78445C9.99052 10.2138 10.1576 10.0468 10.1576 9.84068V5.07486C10.1576 4.86879 9.99052 4.70174 9.78445 4.70174H5.01863C4.81256 4.70174 4.64551 4.86879 4.64551 5.07486Z" fill="#9594F7"/>
<path d="M11.5843 6.46503C11.6762 6.47679 11.7615 6.51869 11.827 6.58417C11.8925 6.64965 11.9344 6.735 11.9461 6.82685V11.7057C11.9066 11.6605 11.9066 11.6605 11.9066 11.7453C11.867 11.8584 11.7935 11.9432 11.7087 11.9432C11.6239 11.9432 11.6691 11.9827 11.6691 11.9827C11.6586 11.9931 11.6444 11.9989 11.6296 11.9989C11.6148 11.9989 11.6006 11.9931 11.59 11.9827H9.58868L9.54911 12.0223L8.94985 11.9827H6.79025C6.59238 12.0223 6.43408 11.864 6.43408 11.6209V6.82685C6.44557 6.73583 6.48665 6.65111 6.551 6.58573C6.61536 6.52035 6.69942 6.47794 6.79025 6.46503H11.5843Z" fill="#7875F8"/>
<path d="M12.4342 8.98642C12.4868 8.98401 12.5393 8.99259 12.5884 9.01162C12.6375 9.03066 12.6821 9.05972 12.7194 9.09696C12.7566 9.1342 12.7857 9.1788 12.8047 9.22791C12.8237 9.27701 12.8323 9.32955 12.8299 9.38216L12.8695 11.6605H11.9932L11.9536 11.7001C11.9084 11.6605 11.9084 11.6605 11.9084 11.7396C11.8688 11.8583 11.7953 11.9432 11.7105 11.9432C11.6257 11.9432 11.6709 11.9827 11.6709 11.9827L11.6314 12.0223V12.418L11.6709 12.8647L11.6314 12.9042L11.5918 12.8647L9.39263 12.9042C9.27567 12.9042 9.16351 12.8578 9.08082 12.7751C8.99812 12.6924 8.95166 12.5802 8.95166 12.4633V11.2647L8.99123 11.2252V10.1849L8.95166 9.34259C8.96546 9.25212 9.00816 9.16856 9.07337 9.10436C9.13858 9.04017 9.22281 8.9988 9.31348 8.98642H12.4342Z" fill="#7875F8"/>
<path d="M12.6706 12.8199C12.6459 12.8395 12.626 12.8645 12.6123 12.8928C12.5986 12.9212 12.5915 12.9524 12.5915 12.9839L12.5519 13.8206H11.9866C11.8894 13.7999 11.8004 13.7515 11.7302 13.6812C11.6599 13.611 11.6116 13.522 11.5908 13.4248L11.6304 12.9047L11.5908 12.8652L11.6304 12.4242L11.67 12.8652H12.4671C12.5381 12.8744 12.6102 12.8584 12.6706 12.8199ZM13.3943 13.781C13.4282 13.8206 13.4677 13.781 13.5073 13.7414C13.4677 13.781 13.4282 13.8206 13.4678 13.8602L13.4282 14.7817H12.9476C12.8505 14.7609 12.7615 14.7125 12.6912 14.6423C12.621 14.5721 12.5726 14.483 12.5519 14.3859V13.8206L13.3943 13.781ZM14.508 14.6629C14.484 14.6819 14.4645 14.706 14.4508 14.7333C14.4372 14.7607 14.4297 14.7907 14.4288 14.8212L14.3893 15.6636H13.8239C13.726 15.6425 13.6365 15.5932 13.5662 15.5219C13.4959 15.4506 13.4479 15.3604 13.4282 15.2622V14.7817L14.3497 14.7421C14.3802 14.7413 14.4103 14.7338 14.4376 14.7201C14.465 14.7064 14.489 14.6869 14.508 14.6629ZM15.3899 15.5449C15.3646 15.563 15.3438 15.5867 15.3291 15.6142C15.3144 15.6416 15.3062 15.6721 15.3051 15.7032V16.5794H14.7511C14.6604 16.5671 14.5762 16.5257 14.511 16.4615C14.4458 16.3973 14.4031 16.3137 14.3893 16.2233V15.6636L15.226 15.624C15.258 15.6234 15.2894 15.6154 15.3178 15.6007C15.3462 15.586 15.3709 15.5706 15.3899 15.5449ZM16.3453 16.506C16.3221 16.5243 16.303 16.5474 16.2893 16.5738C16.2757 16.6001 16.2678 16.629 16.2662 16.6586V17.4614H15.6273C15.5359 17.4487 15.451 17.4065 15.3857 17.3412C15.3204 17.2759 15.2782 17.191 15.2655 17.0996L15.3051 16.5794H16.187C16.2177 16.579 16.2478 16.5717 16.2752 16.558C16.3026 16.5443 16.3266 16.5302 16.3453 16.506ZM17.069 17.4614L17.1085 17.4218V18.3829L16.5884 18.4225C16.498 18.4087 16.4144 18.366 16.3502 18.3007C16.286 18.2355 16.2446 18.1513 16.2323 18.0606L16.2662 17.4614H17.069ZM18.1035 18.3377C18.0767 18.3734 18.0627 18.4173 18.064 18.462V19.2592L17.4647 19.2987C17.3742 19.2849 17.2907 19.2422 17.2265 19.177C17.1623 19.1118 17.1209 19.0276 17.1085 18.9369V18.3829L17.9848 18.3772C18.0244 18.4168 18.1035 18.4168 18.1035 18.3377ZM18.9855 19.2196C18.9598 19.2538 18.9459 19.2955 18.9459 19.3383L18.9063 20.2598H18.4258C18.3343 20.2471 18.2495 20.2049 18.1841 20.1396C18.1188 20.0743 18.0766 19.9895 18.064 19.898V19.2592H18.8667C18.9063 19.2987 18.9855 19.2987 18.9855 19.2196ZM19.9465 20.1807C19.8674 20.1807 19.8674 20.2598 19.907 20.2994L19.8674 21.1417H19.3021C19.2039 21.1213 19.1139 21.0723 19.0435 21.0009C18.9731 20.9294 18.9254 20.8388 18.9063 20.7404V20.2598L19.8222 20.2202C19.8674 20.2598 19.9465 20.2598 19.9465 20.1807Z" fill="#3835C1"/>
<path d="M20.8211 21.0569C20.742 21.0569 20.742 21.136 20.7816 21.1756L20.742 22.0971H20.2615C20.1643 22.0764 20.0753 22.028 20.0051 21.9578C19.9348 21.8875 19.8865 21.7985 19.8657 21.7014V21.136L20.7024 21.0965C20.742 21.136 20.8211 21.136 20.8211 21.0569ZM21.7822 22.018C21.7031 22.018 21.7031 22.0971 21.7427 22.1367L21.7031 22.979H21.1434C21.0445 22.9589 20.9537 22.9101 20.8823 22.8387C20.811 22.7673 20.7622 22.6766 20.742 22.5777V22.0971L21.6635 22.0575C21.7063 22.0575 21.748 22.0437 21.7822 22.018Z" fill="#3835C1"/>
<path d="M22.6662 22.8939C22.587 22.8939 22.587 22.9787 22.6266 23.0182V23.8945H22.0669C21.9762 23.8821 21.892 23.8408 21.8268 23.7766C21.7616 23.7124 21.7189 23.6288 21.7051 23.5383V22.973L22.5418 22.9334C22.5859 22.9363 22.6296 22.9244 22.6662 22.8995V22.8939ZM23.6272 23.8549C23.5424 23.8549 23.5424 23.9341 23.582 23.9737V24.7764H22.9488C22.8573 24.7638 22.7725 24.7216 22.7072 24.6563C22.6419 24.591 22.5997 24.5061 22.587 24.4146L22.6266 23.8945H23.5085C23.5513 23.8945 23.593 23.8806 23.6272 23.8549ZM24.3848 24.7764H24.4639L24.4244 24.816V25.6923L23.9043 25.7375C23.8128 25.7249 23.7279 25.6827 23.6626 25.6173C23.5973 25.552 23.5551 25.4672 23.5424 25.3757L23.582 24.7764H24.3848Z" fill="#3835C1"/>
<path d="M22.311 22.4091C22.2939 22.4218 22.2798 22.4382 22.27 22.4572C22.2602 22.4761 22.2549 22.4971 22.2545 22.5184V23.0498L21.855 23.0762C21.7945 23.068 21.7384 23.0404 21.6949 22.9976C21.6514 22.9548 21.623 22.8991 21.6138 22.8388V22.4619H22.2017C22.2228 22.4622 22.2436 22.4576 22.2626 22.4484C22.2816 22.4392 22.2982 22.4258 22.311 22.4091Z" fill="#3835C1"/>
<path d="M22.8951 22.997C22.8791 23.0097 22.8661 23.0257 22.857 23.0439C22.8479 23.0622 22.8429 23.0822 22.8423 23.1025V23.6905L22.4956 23.7169C22.4346 23.7084 22.3781 23.6803 22.3345 23.6368C22.291 23.5932 22.2628 23.5367 22.2544 23.4757V23.0498H22.7858C22.8068 23.0498 22.8276 23.045 22.8465 23.0359C22.8654 23.0268 22.882 23.0135 22.8951 22.997ZM23.4265 23.6867C23.4251 23.6735 23.4277 23.6602 23.4341 23.6486C23.4406 23.6369 23.4505 23.6276 23.4624 23.6219C23.4744 23.6161 23.4879 23.6142 23.5009 23.6164C23.514 23.6186 23.5261 23.6249 23.5355 23.6343C23.5449 23.6437 23.5511 23.6558 23.5534 23.6688C23.5556 23.6819 23.5537 23.6954 23.5479 23.7074C23.5422 23.7193 23.5328 23.7292 23.5212 23.7357C23.5096 23.7421 23.4963 23.7447 23.4831 23.7433L23.4567 24.3011H23.0836C23.0231 24.2928 22.967 24.2652 22.9235 24.2224C22.88 24.1796 22.8515 24.1239 22.8423 24.0636V23.6905L23.4265 23.6867Z" fill="#3835C1"/>
<path d="M6.84277 7.19432V8.55679C6.84277 8.71915 6.97439 8.85077 7.13675 8.85077H8.49922C8.66158 8.85077 8.7932 8.71915 8.7932 8.55679V7.19432C8.7932 7.03196 8.66158 6.90034 8.49922 6.90034H7.13675C6.97439 6.90034 6.84277 7.03196 6.84277 7.19432Z" fill="#9695F7"/>
<path d="M7.41162 7.56764V8.17255C7.41162 8.23188 7.45971 8.27997 7.51904 8.27997H8.12395C8.18327 8.27997 8.23136 8.23188 8.23136 8.17255V7.56764C8.23136 7.50832 8.18327 7.46022 8.12395 7.46022H7.51904C7.45971 7.46022 7.41162 7.50832 7.41162 7.56764Z" fill="#C3C3FE"/>
<path d="M11.6317 12.4239L11.6712 12.8649L11.6317 12.9044H9.39293C9.27598 12.9044 9.16382 12.858 9.08112 12.7753C8.99842 12.6926 8.95196 12.5804 8.95196 12.4635V11.9829H6.79236C6.69012 11.9641 6.598 11.9093 6.53267 11.8284C6.46735 11.7475 6.43312 11.6459 6.4362 11.542V11.3045L3.99393 11.265C3.87842 11.262 3.76854 11.2145 3.68736 11.1322C3.60619 11.05 3.56004 10.9395 3.55862 10.824L3.51904 10.2247L6.4362 10.2643H7.23333V10.9031C7.23333 11.0614 7.2729 11.1858 7.47077 11.2254C7.50656 11.2523 7.55041 11.2662 7.59515 11.265H9.5173L9.55122 11.3045L9.5908 11.9829L9.55122 12.0225C9.51165 12.2204 9.66995 12.3843 9.91304 12.3843L11.6317 12.4239Z" fill="#3835C1"/>
<path d="M12.8093 12.684C12.8289 12.6594 12.8538 12.6394 12.8822 12.6257C12.9106 12.612 12.9417 12.6049 12.9733 12.6049L13.81 12.5653V12.0056C13.7899 11.9082 13.7417 11.8188 13.6714 11.7485C13.6011 11.6781 13.5117 11.63 13.4142 11.6099L12.8941 11.6438L12.8489 11.6042L12.4136 11.6438L12.8489 11.6834V12.4862C12.859 12.5547 12.845 12.6247 12.8093 12.684ZM13.7704 13.402C13.81 13.4416 13.7704 13.4812 13.7308 13.5208C13.7704 13.4812 13.81 13.4416 13.8495 13.4812L14.771 13.4416V12.9611C14.751 12.8636 14.7028 12.7742 14.6325 12.7039C14.5621 12.6336 14.4727 12.5854 14.3753 12.5653H13.81L13.7704 13.402Z" fill="#7673F7"/>
<path d="M14.6494 14.5269C14.6678 14.5019 14.6916 14.4813 14.719 14.4666C14.7464 14.4519 14.7767 14.4436 14.8077 14.4421L15.6444 14.4025V13.8371C15.6237 13.74 15.5753 13.651 15.5051 13.5808C15.4348 13.5105 15.3458 13.4621 15.2487 13.4414H14.7681L14.7286 14.3629C14.7277 14.3935 14.7202 14.4235 14.7066 14.4508C14.6929 14.4782 14.6734 14.5079 14.6494 14.5269Z" fill="#7673F7"/>
<path d="M15.5271 15.4034C15.5464 15.3784 15.5713 15.3582 15.5998 15.3445C15.6282 15.3308 15.6595 15.3238 15.6911 15.3243H16.5617V14.7589C16.5479 14.6685 16.5052 14.5849 16.44 14.5207C16.3748 14.4565 16.2906 14.4151 16.1999 14.4028H15.6402L15.6006 15.2451C15.5998 15.2757 15.5923 15.3057 15.5786 15.3331C15.5649 15.3604 15.5511 15.3844 15.5271 15.4034ZM16.4882 16.3588C16.5072 16.3349 16.5312 16.3154 16.5586 16.3017C16.5859 16.288 16.6159 16.2805 16.6465 16.2797H17.4493V15.6409C17.4366 15.5494 17.3944 15.4645 17.3291 15.3992C17.2638 15.3339 17.179 15.2917 17.0875 15.279L16.5617 15.3243L16.5674 16.2006C16.5674 16.2321 16.5603 16.2632 16.5466 16.2916C16.5329 16.32 16.5129 16.3393 16.4882 16.3588ZM17.4493 17.0825L17.4097 17.1221H18.3708L18.4104 16.6019C18.398 16.5113 18.3566 16.427 18.2924 16.3618C18.2282 16.2966 18.1447 16.2539 18.0542 16.2401L17.4493 16.2797V17.0825ZM18.3256 18.1171C18.3614 18.0902 18.4052 18.0762 18.4499 18.0775H19.2414L19.2866 17.4782C19.2728 17.3878 19.2302 17.3042 19.1649 17.24C19.0997 17.1758 19.0155 17.1344 18.9248 17.1221H18.3708V17.9983C18.4104 18.0379 18.4047 18.1171 18.3256 18.1171ZM19.2075 18.999C19.2418 18.9733 19.2834 18.9594 19.3262 18.9594L20.2477 18.9198V18.4393C20.2351 18.3478 20.1929 18.263 20.1276 18.1977C20.0622 18.1324 19.9774 18.0902 19.8859 18.0775H19.2414L19.2471 18.8803C19.2867 18.9198 19.2867 18.999 19.2075 18.999ZM20.1629 19.9544C20.1629 19.8809 20.2477 19.8809 20.2873 19.9205L21.124 19.8809V19.3156C21.1039 19.2182 21.0558 19.1287 20.9854 19.0584C20.9151 18.9881 20.8257 18.9399 20.7283 18.9198H20.2477L20.2082 19.8413C20.2477 19.8809 20.2477 19.9544 20.1629 19.9544ZM21.0449 20.8363C21.0449 20.7572 21.124 20.7572 21.1636 20.7968L22.0851 20.7572V20.2767C22.0644 20.1795 22.016 20.0905 21.9457 20.0203C21.8755 19.95 21.7865 19.9016 21.6893 19.8809H21.124L21.0844 20.7176C21.124 20.7572 21.124 20.8363 21.0449 20.8363ZM22.0059 21.7974C22.0059 21.7183 22.0851 21.7183 22.1247 21.7578L22.967 21.7183V21.1586C22.9466 21.0604 22.8975 20.9705 22.8261 20.9001C22.7547 20.8296 22.6641 20.7819 22.5656 20.7628L22.0851 20.7572L22.0455 21.6787C22.0455 21.7215 22.0316 21.7632 22.0059 21.7974Z" fill="#7673F7"/>
<path d="M22.8809 22.679C22.8809 22.5942 22.96 22.5942 23.0052 22.6395H23.8815V22.0741C23.8689 21.9841 23.8273 21.9007 23.763 21.8364C23.6988 21.7722 23.6153 21.7306 23.5253 21.718H22.96L22.9204 22.5547C22.9217 22.5994 22.9077 22.6432 22.8809 22.679Z" fill="#7673F7"/>
<path d="M23.8418 23.6344C23.8418 23.5552 23.9209 23.5552 23.9605 23.5948H24.7633V22.956C24.7495 22.8655 24.7068 22.7819 24.6416 22.7177C24.5764 22.6535 24.4922 22.6122 24.4015 22.5998L23.8814 22.6394V23.5156C23.8814 23.5585 23.8675 23.6001 23.8418 23.6344Z" fill="#7673F7"/>
<path d="M24.7583 24.3982V24.4774L24.8035 24.4378H25.6798L25.7194 23.9121C25.7067 23.8206 25.6645 23.7357 25.5992 23.6704C25.5339 23.6051 25.449 23.5629 25.3576 23.5502L24.7583 23.5898V24.3982Z" fill="#7673F7"/>
<path d="M25.6082 25.4778C25.6272 25.4539 25.6512 25.4344 25.6786 25.4207C25.7059 25.407 25.7359 25.3995 25.7665 25.3987H26.558L26.6032 24.7938C26.5894 24.7033 26.5467 24.6198 26.4815 24.5556C26.4163 24.4914 26.332 24.45 26.2414 24.4376H25.6817V25.3139C25.6821 25.3455 25.6752 25.3768 25.6615 25.4052C25.6477 25.4337 25.6332 25.4585 25.6082 25.4778ZM26.4845 26.3541C26.5035 26.3302 26.5275 26.3107 26.5548 26.297C26.5822 26.2833 26.6122 26.2758 26.6428 26.275H27.5247L27.5643 25.7549C27.5516 25.6634 27.5094 25.5785 27.4441 25.5132C27.3788 25.4479 27.2939 25.4057 27.2025 25.393H26.5636V26.1958C26.5628 26.2264 26.5553 26.2564 26.5416 26.2838C26.5279 26.3111 26.5084 26.3351 26.4845 26.3541Z" fill="#7673F7"/>
<path d="M23.6836 23.4379C23.6831 23.4582 23.6781 23.4782 23.669 23.4965C23.6598 23.5147 23.6468 23.5307 23.6309 23.5434C23.6433 23.5272 23.6593 23.5141 23.6776 23.5049C23.6959 23.4958 23.716 23.4909 23.7364 23.4906L24.2904 23.4605V23.0836C24.2814 23.0238 24.2535 22.9685 24.2108 22.9258C24.168 22.883 24.1127 22.8551 24.053 22.8461H23.6761L23.6836 23.4379Z" fill="#7673F7"/>
<path d="M9.88965 10.2471V11.6266C9.88965 11.8326 10.0567 11.9997 10.2628 11.9997H11.6422C11.8483 11.9997 12.0153 11.8326 12.0153 11.6266V10.2471C12.0153 10.0411 11.8483 9.87402 11.6422 9.87402H10.2628C10.0567 9.87402 9.88965 10.0411 9.88965 10.2471Z" fill="#615EE7"/>
<path d="M11.4759 3.31659C11.2793 3.13273 11.0262 3.0211 10.7579 3L4.00773 3.03957C3.86733 3.02468 3.7254 3.04244 3.593 3.09147C3.46061 3.14051 3.34134 3.21949 3.24452 3.32224C3.15372 3.41768 3.08531 3.53214 3.04424 3.6573C3.00317 3.78246 2.99048 3.9152 3.00708 4.04588V11.1579L3.041 11.1918C3.11961 11.3817 3.25302 11.5439 3.42419 11.6577C3.59536 11.7714 3.79654 11.8316 4.00208 11.8306L5.95815 11.8702C5.9629 11.9726 5.99081 12.0726 6.03977 12.1627C6.08873 12.2528 6.15747 12.3306 6.24082 12.3903C6.34029 12.468 6.45585 12.5226 6.57909 12.55C6.70233 12.5774 6.83012 12.5769 6.95315 12.5486H8.38912C8.41648 12.7966 8.53306 13.0263 8.71715 13.1948C8.90123 13.3633 9.14028 13.4591 9.38977 13.4644L11.0293 13.504L11.0688 13.5436C11.1153 13.7483 11.2183 13.9359 11.3663 14.0848C11.5142 14.2338 11.7011 14.3381 11.9055 14.386H11.9847C12.0223 14.6474 12.1503 14.8874 12.3465 15.0644C12.4912 15.2027 12.6711 15.2985 12.8666 15.3414C12.938 15.567 13.062 15.7724 13.2284 15.9406C13.3723 16.0812 13.5523 16.1791 13.7485 16.2233H13.8277C13.8595 16.4638 13.971 16.6867 14.1443 16.8565C14.2201 16.9414 14.3122 17.0102 14.4152 17.0588C14.5181 17.1073 14.6298 17.1347 14.7435 17.1392V17.2183C14.7726 17.4345 14.877 17.6335 15.0383 17.7803C15.1996 17.9271 15.4075 18.0124 15.6255 18.0211H15.7046C15.697 18.1422 15.7138 18.2636 15.7541 18.3781C15.7943 18.4926 15.8572 18.5978 15.939 18.6875C16.0207 18.7771 16.1197 18.8494 16.23 18.9001C16.3403 18.9507 16.4596 18.9786 16.5809 18.9822C16.5907 19.1983 16.6757 19.4042 16.8213 19.5642C16.9668 19.7242 17.1638 19.8283 17.378 19.8584H17.4628L17.5024 19.898C17.5202 20.1226 17.612 20.3349 17.7634 20.5016C17.9149 20.6684 18.1173 20.7802 18.3391 20.8195C18.4109 21.045 18.5349 21.2503 18.7009 21.4188C18.839 21.5629 19.019 21.6598 19.2154 21.6958H19.2945C19.3322 21.9573 19.4602 22.1973 19.6563 22.3742C19.8002 22.5148 19.9802 22.6127 20.1765 22.6569C20.247 22.8799 20.369 23.0833 20.5326 23.2505C20.6715 23.3977 20.8537 23.4967 21.0527 23.5332H21.1319C21.164 23.7764 21.2776 24.0016 21.4541 24.172C21.5299 24.2569 21.6221 24.3257 21.725 24.3743C21.828 24.4228 21.9396 24.4502 22.0534 24.4547V24.5282C22.0823 24.7434 22.1859 24.9417 22.346 25.0884C22.5061 25.2351 22.7127 25.321 22.9297 25.3309H23.0088C23.002 25.4516 23.0194 25.5724 23.06 25.6862C23.1006 25.8 23.1636 25.9046 23.2453 25.9936C23.327 26.0827 23.4257 26.1545 23.5356 26.2048C23.6454 26.255 23.7643 26.2828 23.8851 26.2864C23.8881 26.5188 23.9821 26.7409 24.147 26.9047C24.3119 27.0686 24.5345 27.1612 24.767 27.1626L24.8066 27.2022C24.8244 27.4268 24.9162 27.639 25.0676 27.8058C25.219 27.9726 25.4215 28.0844 25.6433 28.1237H25.7225C25.7322 28.3398 25.8172 28.5457 25.9628 28.7058C26.1084 28.8658 26.3054 28.9699 26.5196 29H27.7181L28.0799 28.9604C28.3165 28.9661 28.5458 28.8788 28.7188 28.7173C28.8091 28.6291 28.8807 28.5235 28.9293 28.4069C28.9778 28.2904 29.0024 28.1652 29.0014 28.0389V26.5973C28.9738 26.3736 28.8719 26.1656 28.712 26.0067C28.552 25.8478 28.3434 25.7472 28.1195 25.721V25.6419C28.0815 25.4199 27.9711 25.2168 27.8053 25.0644C27.6396 24.912 27.428 24.8188 27.2036 24.7995L27.1641 24.8391C27.1649 24.5973 27.0746 24.3642 26.9111 24.186C26.7477 24.0079 26.5231 23.8979 26.2821 23.878C26.2596 23.6428 26.1558 23.4227 25.9887 23.2556C25.8216 23.0885 25.6015 22.9847 25.3663 22.9622L25.3267 22.9226C25.3169 22.7065 25.2319 22.5006 25.0863 22.3405C24.9408 22.1805 24.7438 22.0764 24.5296 22.0463H24.4504C24.4253 21.8346 24.3343 21.636 24.1902 21.4788C24.0462 21.3216 23.8564 21.2136 23.6477 21.17L23.5346 21.1305C23.5029 20.8871 23.3892 20.6618 23.2123 20.4916C23.073 20.345 22.891 20.2461 22.6922 20.209H22.6131C22.588 19.9972 22.4969 19.7987 22.3529 19.6415C22.2088 19.4842 22.019 19.3762 21.8103 19.3327L21.6972 19.2931C21.6651 19.0499 21.5515 18.8247 21.375 18.6543C21.2357 18.5077 21.0537 18.4088 20.8549 18.3716H20.7757C20.7611 18.144 20.6641 17.9295 20.5028 17.7683C20.3415 17.607 20.127 17.51 19.8994 17.4953L19.8599 17.4558V17.3766C19.8171 17.1675 19.7094 16.9772 19.552 16.833C19.3946 16.6888 19.1957 16.5981 18.9836 16.5738C18.9608 16.3377 18.8563 16.1169 18.688 15.9497C18.5198 15.7825 18.2984 15.6793 18.0621 15.658L18.0225 15.6184C18.0125 15.4014 17.9267 15.1949 17.78 15.0347C17.6333 14.8746 17.435 14.771 17.2197 14.7421H17.1406C17.1169 14.5301 17.0272 14.3309 16.8842 14.1727C16.7412 14.0144 16.552 13.9051 16.3435 13.8602L16.2247 13.8206C16.1926 13.5774 16.079 13.3522 15.9025 13.1818C15.7647 13.0362 15.5848 12.9374 15.388 12.8991H15.3032C15.2785 12.6881 15.1883 12.4902 15.0453 12.333C14.9024 12.1759 14.7138 12.0674 14.5061 12.0228L14.3874 11.9833C14.3553 11.74 14.2417 11.5148 14.0651 11.3444C13.9276 11.1985 13.7476 11.0997 13.5507 11.0618H13.4659L13.4263 11.0278L13.3867 9.38835C13.3944 9.26723 13.3776 9.14582 13.3373 9.03134C13.297 8.91687 13.2342 8.81166 13.1524 8.72198C13.0706 8.63231 12.9717 8.56 12.8614 8.50937C12.7511 8.45874 12.6317 8.43082 12.5104 8.42727V6.82735C12.4981 6.61331 12.418 6.40873 12.2819 6.24311C12.1457 6.07749 11.9605 5.95939 11.7529 5.90585L11.7925 4.02892C11.7701 3.76261 11.6586 3.51163 11.4759 3.31659ZM11.2384 4.03457L11.1932 6.47119H11.5889C11.6808 6.48295 11.7661 6.52486 11.8316 6.59033C11.8971 6.65581 11.939 6.74116 11.9508 6.83301V8.99261H12.4313C12.4839 8.99019 12.5364 8.99878 12.5856 9.01781C12.6347 9.03685 12.6793 9.06591 12.7165 9.10315C12.7537 9.14039 12.7828 9.18499 12.8018 9.23409C12.8209 9.2832 12.8295 9.33574 12.827 9.38835L12.8723 11.5875L12.9514 11.6667L13.4263 11.5875C13.5237 11.6076 13.6131 11.6558 13.6835 11.7261C13.7538 11.7964 13.802 11.8858 13.822 11.9833V12.5486L13.8673 12.5882L14.3874 12.5486C14.4848 12.5687 14.5742 12.6168 14.6445 12.6872C14.7149 12.7575 14.7631 12.8469 14.7831 12.9443V13.4249H15.2637C15.3611 13.4449 15.4505 13.4931 15.5208 13.5634C15.5912 13.6338 15.6393 13.7232 15.6594 13.8206V14.386L15.7046 14.4255L16.2247 14.3803C16.3166 14.3921 16.4019 14.434 16.4674 14.4994C16.5329 14.5649 16.5748 14.6503 16.5866 14.7421V15.3018L16.6261 15.3414L17.101 15.2622C17.1929 15.274 17.2782 15.3159 17.3437 15.3814C17.4092 15.4469 17.4511 15.5322 17.4628 15.624V16.1781L17.5759 16.3025L18.0621 16.2177C18.1525 16.2315 18.2361 16.2742 18.3003 16.3394C18.3645 16.4046 18.4059 16.4888 18.4183 16.5795L18.3787 17.0996L18.4183 17.1392L18.9384 17.0939C19.0302 17.1057 19.1156 17.1476 19.181 17.2131C19.2465 17.2786 19.2884 17.3639 19.3002 17.4558L19.255 17.9759L19.3793 18.0946L19.8938 18.055C19.9856 18.0668 20.071 18.1087 20.1365 18.1742C20.2019 18.2396 20.2438 18.325 20.2556 18.4168V18.8917H20.7361C20.8343 18.9122 20.9243 18.9612 20.9947 19.0326C21.0651 19.104 21.1128 19.1946 21.1319 19.2931V19.8584L21.1715 19.8924L21.6916 19.8528C21.789 19.8729 21.8784 19.921 21.9487 19.9914C22.0191 20.0617 22.0673 20.1511 22.0873 20.2485V20.7291H22.5735C22.6709 20.7491 22.7603 20.7973 22.8307 20.8676C22.901 20.938 22.9492 21.0274 22.9692 21.1248V21.6901L23.0088 21.7297L23.5289 21.6901C23.6199 21.7016 23.7047 21.7427 23.77 21.8071C23.8354 21.8714 23.8778 21.9555 23.8907 22.0463V22.606L23.9303 22.6456L24.4109 22.5664C24.5009 22.5791 24.5843 22.6206 24.6486 22.6849C24.7128 22.7492 24.7544 22.8326 24.767 22.9226V23.4879L24.8914 23.601L25.3663 23.5219C25.4578 23.5345 25.5426 23.5767 25.6079 23.642C25.6732 23.7073 25.7154 23.7922 25.7281 23.8837L25.6885 24.4038L25.7281 24.4434L26.2482 24.4038C26.3379 24.4173 26.4208 24.4591 26.4849 24.5232C26.549 24.5873 26.5909 24.6703 26.6044 24.7599L26.5648 25.2801L26.6835 25.3988L27.2036 25.3592C27.2955 25.371 27.3808 25.4129 27.4463 25.4783C27.5118 25.5438 27.5537 25.6292 27.5655 25.721L27.5259 26.2411L27.5655 26.2807L28.0856 26.2411C28.1756 26.2538 28.259 26.2954 28.3233 26.3596C28.3875 26.4239 28.4291 26.5073 28.4417 26.5973V28.0389C28.4442 28.0863 28.4366 28.1337 28.4196 28.178C28.4026 28.2224 28.3764 28.2626 28.3428 28.2962C28.3093 28.3298 28.269 28.3559 28.2247 28.3729C28.1804 28.39 28.133 28.3975 28.0856 28.3951H27.1923L27.1528 28.4347H26.5931C26.5023 28.4217 26.4182 28.3793 26.3538 28.314C26.2895 28.2486 26.2484 28.1639 26.2369 28.0728V27.5132L25.7168 27.5584C25.6249 27.5466 25.5396 27.5047 25.4741 27.4392C25.4086 27.3738 25.3667 27.2884 25.355 27.1966V26.6369L25.3154 26.5973H24.7614C24.6707 26.5849 24.5865 26.5436 24.5213 26.4794C24.456 26.4152 24.4134 26.3316 24.3996 26.2411V25.6815L23.8794 25.721C23.789 25.7072 23.7054 25.6645 23.6412 25.5993C23.577 25.5341 23.5356 25.4499 23.5233 25.3592L23.5628 24.8447L23.4837 24.7599H22.9184C22.8287 24.7465 22.7458 24.7046 22.6817 24.6405C22.6176 24.5764 22.5757 24.4934 22.5622 24.4038L22.6018 23.8837H22.0477C21.9559 23.8719 21.8705 23.83 21.8051 23.7645C21.7396 23.699 21.6977 23.6137 21.6859 23.5219V22.9622H21.1319C21.0345 22.9421 20.9451 22.8939 20.8747 22.8236C20.8044 22.7533 20.7562 22.6639 20.7361 22.5664V22.0859H20.2556C20.1571 22.0668 20.0665 22.0191 19.9951 21.9487C19.9237 21.8783 19.8747 21.7883 19.8542 21.6901V21.1248H19.2945C19.1971 21.1047 19.1077 21.0566 19.0374 20.9862C18.967 20.9159 18.9189 20.8265 18.8988 20.7291V20.2542H18.4183C18.3264 20.2424 18.2411 20.2005 18.1756 20.135C18.1101 20.0696 18.0682 19.9842 18.0564 19.8924V19.3327L18.0169 19.2931H17.4572C17.3675 19.2796 17.2846 19.2377 17.2205 19.1736C17.1564 19.1095 17.1145 19.0266 17.101 18.9369V18.3773L16.5809 18.4168C16.4902 18.4045 16.406 18.3631 16.3408 18.2989C16.2756 18.2347 16.2329 18.1511 16.2191 18.0607L16.2587 17.5406L16.1795 17.4614H15.6198C15.529 17.4485 15.4449 17.4061 15.3806 17.3407C15.3162 17.2753 15.2751 17.1906 15.2637 17.0996L15.3032 16.5795H14.7435C14.6527 16.5666 14.5687 16.5241 14.5043 16.4588C14.4399 16.3934 14.3989 16.3087 14.3874 16.2177V15.658H13.822C13.7246 15.6379 13.6352 15.5897 13.5649 15.5194C13.4945 15.4491 13.4464 15.3597 13.4263 15.2622V14.7817H12.9458C12.8483 14.7616 12.7589 14.7135 12.6886 14.6431C12.6183 14.5728 12.5701 14.4834 12.55 14.386V13.8206H11.9903C11.8919 13.8015 11.8012 13.7538 11.7298 13.6834C11.6584 13.613 11.6094 13.5231 11.5889 13.4249L11.6285 12.9048H9.38977C9.2738 12.9033 9.16308 12.8562 9.08161 12.7736C9.00013 12.6911 8.95445 12.5798 8.95446 12.4638V11.9889H6.79486C6.59699 12.0285 6.43869 11.8702 6.43869 11.6271V11.3105L4.00208 11.2709C3.8861 11.2709 3.77478 11.2253 3.69225 11.1438C3.60971 11.0623 3.5626 10.9516 3.56111 10.8356L3.52154 10.796V10.2307L3.56111 4.04588C3.54367 3.99096 3.54184 3.93227 3.55581 3.87637C3.56979 3.82046 3.59902 3.76954 3.64026 3.72929C3.68064 3.67563 3.73605 3.63516 3.79946 3.61302C3.86286 3.59088 3.93141 3.58806 3.99642 3.60491L10.7579 3.55969C10.8822 3.56634 10.9998 3.61835 11.0884 3.70586C11.1769 3.79338 11.2303 3.91033 11.2384 4.03457ZM14.7888 13.504L14.7831 13.4249L14.7435 13.4644L14.7888 13.504ZM20.2556 18.9709V18.8917L20.216 18.9313L20.2556 18.9709ZM22.093 20.8082L22.0873 20.7291L22.0534 20.7686L22.093 20.8082ZM20.7361 22.0067V22.0859L20.8153 22.0915L20.7361 22.0067ZM18.8988 20.1694V20.2542H18.9779L18.8988 20.1694ZM13.432 14.7025L13.4263 14.7817H13.5111L13.432 14.7025ZM14.7492 13.4588L14.7888 13.504L14.7831 13.4249L14.7492 13.4588ZM20.2613 18.9709V18.8917L20.216 18.9313L20.2613 18.9709ZM22.093 20.8082L22.0873 20.7291L22.0534 20.7686L22.093 20.8082ZM20.8153 22.0915L20.7361 22.0067V22.0859L20.8153 22.0915ZM18.9779 20.2542L18.8988 20.1694V20.2542H18.9779ZM13.5111 14.7817L13.432 14.7025L13.4263 14.7817H13.5111Z" fill="#C2C2F9"/>
</svg>
