<svg width="32" height="32" viewBox="0 0 32 32" fill="none" xmlns="http://www.w3.org/2000/svg">
<path d="M9.52642 16.885C10.0014 14.4024 11.1598 12.1016 12.8714 10.2416C14.1025 8.61559 15.3476 7.23115 15.9376 6.59003C16.5415 7.23115 17.8145 8.62488 19.0642 10.2416C20.8022 12.0913 21.9826 14.3941 22.4695 16.885C22.4695 18.6014 21.7877 20.2475 20.574 21.4611C19.3604 22.6748 17.7143 23.3566 15.998 23.3566C14.2816 23.3566 12.6355 22.6748 11.4219 21.4611C10.2082 20.2475 9.52642 18.6014 9.52642 16.885ZM15.5798 5.51686C15.2918 5.81419 8.53223 12.8897 8.53223 16.8943C8.53346 18.8744 9.32121 20.7728 10.7222 22.172C12.1231 23.5713 14.0226 24.3567 16.0026 24.3554C17.9826 24.3542 19.8811 23.5664 21.2803 22.1655C22.6795 20.7645 23.4649 18.8651 23.4637 16.885C23.4637 12.8804 16.588 5.8049 16.2953 5.50293L15.9329 5.1452L15.5798 5.51686Z" fill="url(#paint0_linear_22_1309)"/>
<path d="M17.2914 3.73771C17.2442 3.78361 17.2067 3.8385 17.1811 3.89915C17.1555 3.95979 17.1423 4.02496 17.1423 4.09079C17.1423 4.15663 17.1555 4.22179 17.1811 4.28244C17.2067 4.34309 17.2442 4.39798 17.2914 4.44387C18.6517 5.83444 19.9241 7.30845 21.101 8.85734C23.1276 11.103 24.4407 13.9006 24.8733 16.8945C24.8733 19.2454 23.9394 21.5 22.2771 23.1624C20.6147 24.8247 18.3601 25.7586 16.0092 25.7586C13.6583 25.7586 11.4037 24.8247 9.74132 23.1624C8.07898 21.5 7.14509 19.2454 7.14509 16.8945C7.14509 11.9979 14.5086 4.63899 14.5876 4.56001C14.6728 4.46416 14.7181 4.3393 14.7141 4.2111C14.7101 4.0829 14.6572 3.96109 14.5662 3.8707C14.4752 3.7803 14.3531 3.72818 14.2249 3.72505C14.0966 3.72192 13.9721 3.76801 13.8768 3.85386C13.5609 4.16048 6.1416 11.5798 6.1416 16.8945C6.1416 19.5116 7.18122 22.0214 9.03175 23.872C10.8823 25.7225 13.3921 26.7621 16.0092 26.7621C18.6262 26.7621 21.1361 25.7225 22.9866 23.872C24.8372 22.0214 25.8768 19.5116 25.8768 16.8945C25.8768 11.5705 18.3228 4.04898 17.9976 3.73771C17.9028 3.64271 17.7741 3.58923 17.6399 3.58905C17.5748 3.58908 17.5103 3.60226 17.4505 3.62781C17.3906 3.65336 17.3365 3.69074 17.2914 3.73771Z" fill="url(#paint1_linear_22_1309)"/>
<path d="M19.0987 2.14402C19.0515 2.18962 19.0137 2.24413 18.9877 2.3044C18.9616 2.36467 18.9477 2.42951 18.9469 2.49516C18.946 2.56082 18.9582 2.626 18.9826 2.68693C19.0071 2.74787 19.0434 2.80335 19.0894 2.85018C20.5311 4.38375 21.8631 6.0169 23.0755 7.73752C25.2662 10.4283 26.6312 13.6957 27.0058 17.1452C27.0058 20.0641 25.8463 22.8635 23.7823 24.9275C21.7183 26.9915 18.9189 28.151 16 28.151C13.0811 28.151 10.2817 26.9915 8.21772 24.9275C6.15373 22.8635 4.99419 20.0641 4.99419 17.1452C5.36489 13.6997 6.71965 10.4337 8.89663 7.73752C10.0966 6.01774 11.4162 4.38459 12.8455 2.85018C12.9234 2.75287 12.9623 2.63007 12.9546 2.50567C12.9469 2.38127 12.8932 2.26419 12.8039 2.17723C12.7146 2.09027 12.5962 2.03965 12.4716 2.03523C12.347 2.0308 12.2253 2.0729 12.1301 2.15332C10.6623 3.71964 9.30989 5.3903 8.08362 7.15215C5.77496 10.0107 4.35518 13.4834 4 17.1405C4 20.3231 5.26428 23.3754 7.51472 25.6258C9.76515 27.8763 12.8174 29.1405 16 29.1405C19.1826 29.1405 22.2348 27.8763 24.4853 25.6258C26.7357 23.3754 28 20.3231 28 17.1405C28 10.6597 20.1394 2.4971 19.8049 2.15332C19.7595 2.10515 19.7048 2.06672 19.6441 2.04036C19.5834 2.01401 19.518 2.00027 19.4518 2.00001C19.3206 1.99941 19.1942 2.04931 19.0987 2.13938" fill="url(#paint2_linear_22_1309)"/>
<defs>
<linearGradient id="paint0_linear_22_1309" x1="-396.607" y1="3003.83" x2="-407.129" y2="3014.43" gradientUnits="userSpaceOnUse">
<stop stop-color="#05AAC5"/>
<stop offset="1" stop-color="#71E0EC"/>
</linearGradient>
<linearGradient id="paint1_linear_22_1309" x1="-396.418" y1="3003.62" x2="-410.327" y2="3017.63" gradientUnits="userSpaceOnUse">
<stop stop-color="#05AAC5"/>
<stop offset="1" stop-color="#71E0EC"/>
</linearGradient>
<linearGradient id="paint2_linear_22_1309" x1="-395.974" y1="3003.17" x2="-413.184" y2="3020.2" gradientUnits="userSpaceOnUse">
<stop stop-color="#05AAC5"/>
<stop offset="1" stop-color="#71E0EC"/>
</linearGradient>
</defs>
</svg>
