<svg width="32" height="32" viewBox="0 0 32 32" fill="none" xmlns="http://www.w3.org/2000/svg">
<path d="M11.2969 23.2698L15.2402 18.9395C15.4528 18.7321 15.738 18.616 16.0349 18.616C16.3318 18.616 16.617 18.7321 16.8295 18.9395L20.7729 23.2698C20.9071 23.4361 20.9803 23.6434 20.9803 23.8571C20.9803 24.0709 20.9071 24.2782 20.7729 24.4445L16.8295 28.7702C16.617 28.9775 16.3318 29.0936 16.0349 29.0936C15.738 29.0936 15.4528 28.9775 15.2402 28.7702L11.2969 24.4399C11.1638 24.2739 11.0913 24.0675 11.0913 23.8548C11.0913 23.6421 11.1638 23.4357 11.2969 23.2698Z" fill="#72C7FB"/>
<path d="M26.7925 13.444L22.8492 9.11832C22.6367 8.91094 22.3515 8.79486 22.0546 8.79486C21.7576 8.79486 21.4724 8.91094 21.2599 9.11832L17.312 13.4486C17.1789 13.6146 17.1064 13.8209 17.1064 14.0337C17.1064 14.2464 17.1789 14.4527 17.312 14.6187L21.2599 18.949C21.4724 19.1564 21.7576 19.2724 22.0546 19.2724C22.3515 19.2724 22.6367 19.1564 22.8492 18.949L26.7925 14.6187C26.9268 14.4524 27 14.2451 27 14.0314C27 13.8176 26.9268 13.6103 26.7925 13.444ZM10.7428 9.11832C10.5301 8.90956 10.2439 8.79261 9.94589 8.79261C9.64783 8.79261 9.36167 8.90956 9.14893 9.11832L5.20561 13.4486C5.07253 13.6146 5 13.8209 5 14.0337C5 14.2464 5.07253 14.4527 5.20561 14.6187L9.14893 18.949C9.36167 19.1577 9.64783 19.2747 9.94589 19.2747C10.2439 19.2747 10.5301 19.1577 10.7428 18.949L14.6862 14.6187C14.8204 14.4524 14.8936 14.2451 14.8936 14.0314C14.8936 13.8176 14.8204 13.6103 14.6862 13.444L10.7428 9.11832ZM20.7716 6.64453L16.8283 2.32346C16.6157 2.11608 16.3306 2 16.0336 2C15.7367 2 15.4515 2.11608 15.239 2.32346L11.2956 6.65374C11.1626 6.8197 11.09 7.02607 11.09 7.23879C11.09 7.45152 11.1626 7.65789 11.2956 7.82384L15.239 12.1541C15.4515 12.3615 15.7367 12.4776 16.0336 12.4776C16.3306 12.4776 16.6157 12.3615 16.8283 12.1541L20.7716 7.82384C20.9058 7.65752 20.9791 7.45023 20.9791 7.23649C20.9791 7.02275 20.9058 6.81085 20.7716 6.64453Z" fill="#1BA5F8"/>
</svg>
