<svg width="32" height="32" viewBox="0 0 32 32" fill="none" xmlns="http://www.w3.org/2000/svg">
<path d="M6.73062 5.0388C6.45205 4.89991 3 7.80547 3 9.93882C4.21382 14.1051 5.79136 18.1527 7.7138 22.0333C8.29825 24.2333 6.7197 26.8667 7.15667 26.9833C9.10547 25.734 10.6144 23.888 11.4663 21.7111C11.6629 19.0833 7.06927 11.3944 6.70331 9.42215C6.26634 7.11103 7.03104 5.09435 6.73062 5.0388ZM15.3498 2.00545C15.0003 1.83879 10.5923 5.52769 10.5923 8.26103C10.5923 11.9888 15.7267 20.4277 16.6007 23.6889C17.3435 26.4944 15.3389 29.8556 15.8851 30C18.3709 28.4097 20.2938 26.055 21.3745 23.2778C21.6203 19.9222 15.765 10.1388 15.3007 7.60547C14.7709 4.66102 15.7376 2.08323 15.3553 2.01101L15.3498 2.00545ZM24.2531 5.0388C23.9854 4.89991 20.5279 7.80547 20.5279 9.93882C21.74 14.1049 23.3157 18.1525 25.2363 22.0333C25.8207 24.2333 24.2422 26.8667 24.6791 26.9833C26.63 25.7349 28.1409 23.8888 28.9942 21.7111C29.1854 19.0833 24.5917 11.3944 24.2312 9.42215C23.8052 7.11103 24.559 5.09435 24.2531 5.0388Z" fill="#1A4F95"/>
</svg>
