<svg width="32" height="32" viewBox="0 0 32 32" fill="none" xmlns="http://www.w3.org/2000/svg">
<path d="M15.9885 27.4848C15.807 27.484 15.631 27.5469 15.4915 27.6624C15.3521 27.7779 15.2581 27.9386 15.2262 28.1162V28.1583C15.2094 28.3287 15.2502 28.4999 15.3422 28.6447C15.4343 28.7896 15.5723 28.8998 15.7344 28.9579C15.8041 28.976 15.8748 28.9901 15.9462 29C16.1366 28.9929 16.3192 28.9227 16.465 28.8007C16.6107 28.6787 16.7114 28.5119 16.7509 28.3266V28.2424C16.7509 28.0415 16.6705 27.8488 16.5276 27.7067C16.3846 27.5647 16.1907 27.4848 15.9885 27.4848ZM26.5341 21.7189C26.4257 21.634 26.2909 21.5893 26.153 21.5926C25.9508 21.5926 25.7569 21.6724 25.6139 21.8145C25.4709 21.9566 25.3906 22.1492 25.3906 22.3502C25.3849 22.5209 25.4363 22.6886 25.537 22.8271C25.6376 22.9655 25.7817 23.0668 25.9465 23.115C26.1114 23.1632 26.2877 23.1555 26.4478 23.0933C26.6078 23.031 26.7425 22.9177 26.8306 22.771C26.8821 22.683 26.9154 22.5855 26.9283 22.4845C26.9413 22.3834 26.9337 22.2808 26.9061 22.1827C26.8785 22.0846 26.8313 21.993 26.7674 21.9133C26.7035 21.8336 26.6242 21.7675 26.5341 21.7189ZM6.16289 9.97643C6.0286 9.90096 5.87478 9.8668 5.72094 9.87827C5.56709 9.88975 5.42014 9.94635 5.29869 10.0409C5.17724 10.1355 5.08677 10.2637 5.03873 10.4094C4.9907 10.5551 4.98726 10.7117 5.02886 10.8593C5.07046 11.007 5.15522 11.139 5.2724 11.2387C5.38959 11.3384 5.53392 11.4014 5.68712 11.4195C5.84031 11.4376 5.99548 11.4102 6.13295 11.3406C6.27043 11.271 6.38402 11.1624 6.45935 11.0286C6.55996 10.8499 6.58525 10.6389 6.52969 10.4417C6.47413 10.2445 6.34224 10.0772 6.16289 9.97643ZM26.2377 9.93434C26.0355 9.93434 25.8416 10.0142 25.6986 10.1562C25.5557 10.2983 25.4753 10.491 25.4753 10.6919C25.4626 10.8239 25.4922 10.9565 25.56 11.0707C25.6247 11.1917 25.7229 11.2917 25.843 11.3588C25.9631 11.426 26.1001 11.4574 26.2377 11.4495C26.4398 11.4495 26.6338 11.3697 26.7767 11.2276C26.9197 11.0855 27 10.8928 27 10.6919C27 10.491 26.9197 10.2983 26.7767 10.1562C26.6338 10.0142 26.4398 9.93434 26.2377 9.93434ZM15.9885 4C15.7863 4 15.5924 4.07982 15.4495 4.22189C15.3065 4.36396 15.2262 4.55665 15.2262 4.75758C15.2262 4.9585 15.3065 5.15119 15.4495 5.29326C15.5924 5.43534 15.7863 5.51515 15.9885 5.51515C16.1907 5.51515 16.3846 5.43534 16.5276 5.29326C16.6705 5.15119 16.7509 4.9585 16.7509 4.75758C16.7509 4.55665 16.6705 4.36396 16.5276 4.22189C16.3846 4.07982 16.1907 4 15.9885 4ZM6.5017 21.9293C6.42286 21.8214 6.3215 21.7317 6.20454 21.6663C6.08759 21.6009 5.95781 21.5614 5.82407 21.5505C5.72074 21.546 5.61755 21.5622 5.52065 21.5981C5.42375 21.634 5.33512 21.689 5.26003 21.7597C5.18495 21.8304 5.12495 21.9154 5.08361 22.0096C5.04226 22.1038 5.02042 22.2053 5.01939 22.3081C5.01585 22.414 5.03424 22.5196 5.07343 22.6182C5.11262 22.7168 5.17176 22.8064 5.2472 22.8814C5.32264 22.9563 5.41277 23.0151 5.512 23.054C5.61122 23.093 5.71744 23.1113 5.82407 23.1077C5.92749 23.1067 6.02965 23.085 6.12446 23.0439C6.21927 23.0028 6.30478 22.9432 6.37591 22.8686C6.44705 22.794 6.50234 22.7059 6.5385 22.6096C6.57467 22.5133 6.59096 22.4108 6.5864 22.3081C6.57853 22.1782 6.54994 22.0503 6.5017 21.9293Z" fill="#2683FF"/>
<path d="M27.6396 20.4186L27.3788 20.2889V12.8955C27.4902 12.8292 27.6064 12.7714 27.7265 12.7225C28.3027 12.4015 28.7272 11.8658 28.9065 11.2333C29.0858 10.6009 29.0052 9.92348 28.6825 9.35013C28.3598 8.77679 27.8214 8.35447 27.1857 8.17609C26.55 7.9977 25.8692 8.07787 25.2929 8.39894C25.1971 8.46583 25.0953 8.52373 24.9887 8.57188L18.4703 4.81035V4.46446C18.4703 3.81084 18.2094 3.184 17.7448 2.72182C17.2803 2.25965 16.6503 2 15.9933 2C15.3317 2.00911 14.7004 2.2776 14.2366 2.74715C13.7728 3.21669 13.514 3.84936 13.5164 4.50769V4.81035L7.04141 8.57188C6.67199 8.2896 6.23095 8.11508 5.76758 8.06783C5.30421 8.02058 4.83676 8.10246 4.41747 8.30432C3.99818 8.50618 3.64356 8.82006 3.39324 9.21089C3.14293 9.60173 3.00677 10.0541 3 10.5175C3.00585 10.9024 3.09873 11.2811 3.27176 11.6254C3.44479 11.9697 3.69351 12.2708 3.99949 12.5064C4.09529 12.5733 4.19712 12.6312 4.30368 12.6793C4.39501 12.753 4.49774 12.8114 4.60787 12.8523V20.2456C4.30827 20.3677 4.03577 20.5473 3.80592 20.7741C3.57608 21.001 3.39339 21.2707 3.2683 21.5678C3.01566 22.1678 3.01294 22.8431 3.26074 23.4451C3.50853 24.0471 3.98654 24.5265 4.58961 24.7779C5.19268 25.0292 5.8714 25.032 6.47648 24.7854C6.5874 24.7689 6.69218 24.7243 6.78067 24.6557C6.88919 24.5941 6.99111 24.5217 7.08486 24.4395L13.5598 28.1578C13.5041 28.4763 13.5131 28.8026 13.5862 29.1175C13.6592 29.4325 13.795 29.7296 13.9853 29.9916C14.1757 30.2535 14.4168 30.4748 14.6945 30.6426C14.9722 30.8103 15.2808 30.921 15.6022 30.9682C15.9219 31.02 16.2487 31.0085 16.5639 30.9343C16.879 30.8601 17.1764 30.7247 17.4388 30.5359C17.7013 30.3471 17.9237 30.1086 18.0932 29.834C18.2628 29.5595 18.3762 29.2543 18.4269 28.9361C18.4608 28.7946 18.4754 28.6491 18.4703 28.5037C18.4703 28.374 18.4269 28.2875 18.4269 28.1578L24.8149 24.4828C24.9205 24.5701 25.0374 24.6428 25.1626 24.6989C25.4446 24.857 25.7553 24.9578 26.0768 24.9954C26.3982 25.0331 26.724 25.007 27.0352 24.9185C27.3465 24.83 27.637 24.681 27.8899 24.48C28.1428 24.2791 28.3531 24.0302 28.5087 23.7478C28.8209 23.1879 28.9048 22.53 28.743 21.9103C28.5812 21.2906 28.1861 20.7565 27.6396 20.4186ZM28.1176 23.5316C27.8515 23.9541 27.4314 24.2576 26.9452 24.3785C26.4591 24.4994 25.9448 24.4283 25.5102 24.1801C25.1589 23.9858 24.8827 23.6804 24.7253 23.3124C24.5679 22.9444 24.5382 22.5347 24.6411 22.148L21.5992 20.3753C21.1403 20.8417 20.554 21.164 19.913 21.3023C19.2719 21.4406 18.6042 21.3889 17.9923 21.1536C17.5194 21.2557 17.0404 21.3279 16.5583 21.3698V26.6446C16.811 26.7142 17.0468 26.8345 17.251 26.9982C17.4552 27.1619 17.6236 27.3654 17.7457 27.5963C17.8679 27.8272 17.9412 28.0805 17.9612 28.3407C17.9812 28.6009 17.9474 28.8623 17.862 29.109C17.7877 29.3578 17.6642 29.5893 17.4986 29.7898C17.3331 29.9904 17.1289 30.156 16.8981 30.2768C16.6673 30.3977 16.4145 30.4714 16.1547 30.4936C15.8948 30.5158 15.6331 30.486 15.385 30.4061H15.3415C15.2742 30.3659 15.2008 30.3367 15.1242 30.3196C14.6517 30.0785 14.2921 29.6638 14.1218 29.1634C13.9514 28.6629 13.9837 28.1162 14.2116 27.639C14.4753 27.1656 14.9104 26.81 15.4284 26.6446V21.2833C15.0448 21.1581 14.6677 21.0138 14.2986 20.8509C13.7279 20.9556 13.1412 20.9364 12.5787 20.7947C12.0162 20.6529 11.4911 20.3919 11.0394 20.0294L7.43251 22.1048C7.47069 22.2456 7.48537 22.3916 7.47597 22.5371C7.47143 23.0403 7.26853 23.5215 6.91092 23.8773C6.55332 24.2331 6.06961 24.435 5.5639 24.4395C5.31566 24.4367 5.0704 24.3853 4.84214 24.2881C4.61388 24.191 4.40708 24.0501 4.23356 23.8734C4.06004 23.6968 3.9232 23.4878 3.83084 23.2585C3.73848 23.0293 3.69243 22.7841 3.6953 22.5371C3.6988 22.1143 3.84066 21.7041 4.09942 21.3686C4.35817 21.0332 4.71972 20.7907 5.12934 20.678C5.43623 20.6145 5.75388 20.6245 6.05611 20.7072C6.35834 20.7899 6.63648 20.9429 6.86758 21.1536L10.2572 19.208C9.70854 18.4369 9.45129 17.4979 9.53079 16.5565C9.6103 15.6152 10.0215 14.732 10.6917 14.0629L6.86758 11.9011C6.68685 12.075 6.47284 12.211 6.23827 12.301C6.0037 12.391 5.75334 12.4333 5.50205 12.4252C5.25076 12.4171 5.00366 12.3589 4.77541 12.254C4.54716 12.1491 4.34241 11.9997 4.17331 11.8146C3.85121 11.4569 3.66651 10.9975 3.65184 10.5175C3.67813 9.99791 3.89452 9.50581 4.26022 9.13395C4.63472 8.80171 5.12324 8.6254 5.62473 8.6415C6.12622 8.6576 6.6023 8.86486 6.9545 9.22043C7.16625 9.45036 7.32002 9.72709 7.40314 10.0278C7.48625 10.3285 7.49632 10.6445 7.43251 10.9499L11.6477 13.3711C12.193 13.0685 12.8052 12.905 13.4294 12.8955C14.0975 12.4819 14.8122 12.1481 15.5588 11.9011V6.15066C15.3329 6.08607 15.1221 5.97767 14.9386 5.83169C14.755 5.68571 14.6023 5.50504 14.4892 5.30008C14.3761 5.09513 14.3049 4.86994 14.2796 4.63748C14.2543 4.40502 14.2756 4.16989 14.342 3.94562C14.4934 3.50742 14.8067 3.14294 15.2183 2.92614C15.6298 2.70934 16.1089 2.65647 16.5583 2.77825C16.7818 2.84485 16.9898 2.95502 17.1702 3.10235C17.3505 3.24968 17.4997 3.43122 17.6088 3.63641C17.718 3.84161 17.7851 4.06636 17.8062 4.29759C17.8272 4.52881 17.8019 4.7619 17.7316 4.98329C17.6612 5.26562 17.5147 5.52351 17.308 5.7292C17.1012 5.93489 16.842 6.08061 16.5583 6.15066V11.8146C17.8887 12.115 19.1355 12.7057 20.2086 13.544L24.728 10.9931C24.6588 10.7477 24.6402 10.4909 24.6734 10.2382C24.7065 9.98546 24.7907 9.74201 24.9209 9.5225C25.0511 9.303 25.2245 9.11196 25.4309 8.9609C25.6372 8.80984 25.8721 8.70187 26.1215 8.64349C26.3708 8.58512 26.6295 8.57754 26.8819 8.62122C27.1342 8.6649 27.3751 8.75893 27.59 8.89765C27.8049 9.03637 27.9894 9.21692 28.1323 9.42843C28.2753 9.63994 28.3737 9.87803 28.4218 10.1284C28.5328 10.6212 28.4447 11.1376 28.1764 11.5663C27.9081 11.9951 27.4812 12.3016 26.9877 12.4199C26.6808 12.4834 26.3632 12.4734 26.0609 12.3907C25.7587 12.308 25.4806 12.155 25.2495 11.9443L20.817 14.452C20.9588 14.7142 21.0752 14.9893 21.1646 15.2735C21.8192 15.7282 22.2914 16.3982 22.4981 17.1655C22.7048 17.9327 22.6327 18.7479 22.2945 19.4674L25.206 21.1536C25.5087 20.8796 25.8924 20.7105 26.2997 20.6715C26.7071 20.6325 27.1161 20.7258 27.4657 20.9374C27.8904 21.2021 28.1955 21.6201 28.317 22.1038C28.4385 22.5875 28.367 23.0992 28.1176 23.5316Z" fill="#2683FF"/>
<path d="M27.0301 20.7074C26.692 20.5018 26.2964 20.4112 25.9025 20.449C25.5086 20.4869 25.1375 20.6512 24.8448 20.9175L22.029 19.279C22.3561 18.5799 22.4259 17.7878 22.226 17.0422C22.0261 16.2967 21.5694 15.6457 20.9364 15.2038C20.85 14.9277 20.7374 14.6604 20.6002 14.4056L24.8868 11.9689C25.1103 12.1736 25.3793 12.3223 25.6716 12.4026C25.9638 12.483 26.271 12.4927 26.5678 12.431C27.0451 12.3161 27.4579 12.0182 27.7174 11.6016C27.9769 11.1851 28.0621 10.6832 27.9547 10.2044C27.9082 9.96112 27.813 9.72977 27.6748 9.52425C27.5365 9.31873 27.3581 9.14329 27.1503 9.0085C26.9425 8.8737 26.7095 8.78233 26.4655 8.73989C26.2214 8.69745 25.9712 8.70481 25.7301 8.76154C25.4889 8.81826 25.2618 8.92317 25.0622 9.06996C24.8627 9.21674 24.6949 9.40237 24.569 9.61566C24.4431 9.82896 24.3617 10.0655 24.3296 10.3111C24.2976 10.5567 24.3156 10.8062 24.3825 11.0446L20.0118 13.5233C18.9741 12.7088 17.7683 12.1348 16.4816 11.8429V6.33928C16.7561 6.2712 17.0067 6.12961 17.2067 5.92974C17.4066 5.72987 17.5482 5.47929 17.6163 5.20495C17.6843 4.98983 17.7089 4.76334 17.6885 4.53866C17.6681 4.31398 17.6032 4.09559 17.4976 3.8962C17.392 3.69682 17.2478 3.52042 17.0734 3.37726C16.899 3.2341 16.6978 3.12705 16.4816 3.06233C16.0471 2.944 15.5838 2.99537 15.1857 3.20604C14.7877 3.4167 14.4847 3.77087 14.3383 4.19666C14.2741 4.41458 14.2535 4.64305 14.278 4.86893C14.3024 5.09481 14.3713 5.31362 14.4806 5.51278C14.59 5.71193 14.7377 5.88748 14.9153 6.02933C15.0928 6.17118 15.2966 6.27652 15.5151 6.33928V11.9269C14.793 12.167 14.1018 12.4913 13.4558 12.8932C12.8521 12.9024 12.26 13.0612 11.7327 13.3553L7.65624 11.0026C7.71795 10.7059 7.70821 10.3988 7.62783 10.1066C7.54745 9.81446 7.39874 9.54556 7.19396 9.32214C6.85335 8.97664 6.39294 8.77524 5.90795 8.7596C5.42297 8.74396 4.95053 8.91528 4.58836 9.23811C4.23469 9.59944 4.02543 10.0776 4 10.5825C4.01419 11.0489 4.19281 11.4953 4.50431 11.8429C4.66784 12.0227 4.86585 12.1679 5.08659 12.2699C5.30733 12.3718 5.5463 12.4283 5.78932 12.4362C6.03234 12.444 6.27445 12.403 6.50131 12.3155C6.72816 12.228 6.93512 12.0959 7.1099 11.9269L10.8082 14.0275C10.16 14.6777 9.76235 15.5358 9.68546 16.4505C9.60857 17.3653 9.85735 18.2777 10.3879 19.0269L7.1099 20.9175C6.8864 20.7128 6.61742 20.5641 6.32514 20.4837C6.03286 20.4034 5.72566 20.3937 5.42888 20.4553C5.03274 20.5649 4.68308 20.8005 4.43285 21.1264C4.18261 21.4524 4.04541 21.851 4.04203 22.2619C4.03925 22.5019 4.08379 22.7401 4.17311 22.9628C4.26243 23.1856 4.39477 23.3886 4.56258 23.5603C4.73038 23.732 4.93037 23.8689 5.15112 23.9633C5.37187 24.0577 5.60906 24.1077 5.84913 24.1104C6.3382 24.106 6.80598 23.9098 7.15182 23.5641C7.49765 23.2184 7.69388 22.7508 7.69827 22.2619C7.70759 22.1205 7.69339 21.9785 7.65624 21.8417L11.1444 19.8252C11.5812 20.1773 12.089 20.4309 12.6331 20.5687C13.1771 20.7065 13.7444 20.7251 14.2963 20.6234C14.6532 20.7818 15.0179 20.922 15.389 21.0435V26.253C14.8881 26.4137 14.4672 26.7593 14.2123 27.2193C13.9918 27.683 13.9606 28.2142 14.1253 28.7005C14.2901 29.1868 14.6378 29.5898 15.0948 29.824C15.1689 29.8407 15.2398 29.8691 15.3049 29.9081H15.3469C15.5869 29.9857 15.84 30.0146 16.0913 29.9931C16.3427 29.9715 16.5871 29.8999 16.8103 29.7824C17.0335 29.665 17.231 29.5041 17.3911 29.3092C17.5511 29.1143 17.6706 28.8894 17.7424 28.6477C17.825 28.408 17.8577 28.1539 17.8384 27.9011C17.819 27.6483 17.7481 27.4022 17.63 27.1778C17.5119 26.9535 17.3491 26.7557 17.1516 26.5966C16.9541 26.4376 16.7261 26.3206 16.4816 26.253V21.1275C16.9479 21.0869 17.4111 21.0167 17.8685 20.9175C18.4602 21.1461 19.106 21.1964 19.7259 21.062C20.3459 20.9276 20.9128 20.6144 21.3566 20.1613L24.2984 21.8838C24.199 22.2595 24.2276 22.6576 24.3798 23.0152C24.5321 23.3728 24.7992 23.6695 25.1389 23.8583C25.3459 23.9825 25.5753 24.0646 25.814 24.1001C26.0527 24.1356 26.2961 24.1238 26.5303 24.0653C26.7644 24.0068 26.9847 23.9027 27.1787 23.7591C27.3726 23.6154 27.5363 23.435 27.6605 23.2281C27.7847 23.0212 27.8669 22.7919 27.9024 22.5533C27.9379 22.3146 27.9261 22.0713 27.8675 21.8373C27.809 21.6032 27.7049 21.3829 27.5612 21.1891C27.4175 20.9952 27.2371 20.8315 27.0301 20.7074ZM26.1476 9.86829C26.3482 9.86829 26.5406 9.94797 26.6825 10.0898C26.8243 10.2316 26.904 10.4239 26.904 10.6245C26.904 10.8251 26.8243 11.0174 26.6825 11.1592C26.5406 11.3011 26.3482 11.3807 26.1476 11.3807C26.011 11.3886 25.8751 11.3572 25.7559 11.2902C25.6367 11.2232 25.5393 11.1234 25.4752 11.0026C25.4079 10.8886 25.3784 10.7563 25.3911 10.6245C25.3911 10.4239 25.4708 10.2316 25.6127 10.0898C25.7545 9.94797 25.9469 9.86829 26.1476 9.86829ZM6.52154 10.9606C6.4468 11.0942 6.33407 11.2025 6.19766 11.272C6.06124 11.3415 5.90727 11.3689 5.75526 11.3508C5.60324 11.3327 5.46002 11.2699 5.34374 11.1703C5.22746 11.0708 5.14335 10.939 5.10207 10.7916C5.06079 10.6442 5.0642 10.4879 5.11187 10.3425C5.15953 10.1971 5.24931 10.069 5.36982 9.97466C5.49033 9.88028 5.63616 9.82378 5.78882 9.81232C5.94148 9.80087 6.09411 9.83497 6.22736 9.91031C6.40534 10.0109 6.53621 10.1779 6.59134 10.3747C6.64647 10.5716 6.62138 10.7822 6.52154 10.9606ZM5.89116 23.0181C5.78535 23.0216 5.67995 23.0033 5.58149 22.9645C5.48302 22.9256 5.39359 22.8669 5.31873 22.7921C5.24387 22.7173 5.18518 22.6279 5.1463 22.5294C5.10741 22.431 5.08916 22.3256 5.09267 22.2199C5.0937 22.1173 5.11537 22.0159 5.1564 21.9219C5.19742 21.8278 5.25696 21.743 5.33147 21.6724C5.40597 21.6019 5.49392 21.547 5.59008 21.5111C5.68623 21.4753 5.78863 21.4591 5.89116 21.4636C6.02386 21.4745 6.15265 21.514 6.2687 21.5792C6.38475 21.6445 6.48534 21.734 6.56357 21.8417C6.61144 21.9625 6.63981 22.0902 6.64762 22.2199C6.65214 22.3223 6.63597 22.4247 6.60009 22.5208C6.56421 22.617 6.50934 22.7049 6.43875 22.7794C6.36817 22.8538 6.28331 22.9134 6.18923 22.9544C6.09516 22.9954 5.99379 23.0171 5.89116 23.0181ZM15.2209 4.70081C15.2209 4.50024 15.3006 4.3079 15.4424 4.16608C15.5843 4.02426 15.7767 3.94459 15.9773 3.94459C16.178 3.94459 16.3704 4.02426 16.5122 4.16608C16.6541 4.3079 16.7338 4.50024 16.7338 4.70081C16.7338 4.90137 16.6541 5.09371 16.5122 5.23553C16.3704 5.37735 16.178 5.45702 15.9773 5.45702C15.7767 5.45702 15.5843 5.37735 15.4424 5.23553C15.3006 5.09371 15.2209 4.90137 15.2209 4.70081ZM16.7338 28.1436V28.2276C16.6946 28.4125 16.5948 28.5791 16.4501 28.7009C16.3055 28.8226 16.1243 28.8926 15.9353 28.8998C15.8645 28.8899 15.7943 28.8758 15.7252 28.8578C15.5643 28.7997 15.4274 28.6897 15.336 28.5451C15.2447 28.4006 15.2042 28.2297 15.2209 28.0595V28.0175C15.2525 27.8402 15.3458 27.6798 15.4842 27.5646C15.6226 27.4493 15.7972 27.3865 15.9773 27.3873C16.178 27.3873 16.3704 27.467 16.5122 27.6088C16.6541 27.7506 16.7338 27.943 16.7338 28.1436ZM20.8943 18.1027C20.8961 18.1615 20.8816 18.2196 20.8523 18.2707V18.3127C20.8442 18.4154 20.8156 18.5154 20.7683 18.6068C20.6426 18.9531 20.4063 19.2485 20.0959 19.4471C20.0205 19.4796 19.9499 19.5219 19.8857 19.5731H19.8437C19.767 19.6196 19.6808 19.6483 19.5915 19.6571C19.5495 19.6991 19.4655 19.6991 19.3814 19.7411H19.0452C18.6483 19.7447 18.2623 19.6111 17.9525 19.363L17.6163 19.4891C17.5212 19.5669 17.403 19.6112 17.2801 19.6151C17.0076 19.698 16.7244 19.7404 16.4396 19.7411C15.931 19.7347 15.4296 19.6201 14.9687 19.405C14.8933 19.3726 14.8227 19.3302 14.7586 19.279H14.7166C14.6668 19.2015 14.593 19.1424 14.5064 19.111C14.2162 19.2446 13.9013 19.3161 13.5819 19.321C13.4819 19.331 13.3809 19.3166 13.2877 19.279H13.2457L13.0355 19.237H12.9935C12.9042 19.2284 12.818 19.1997 12.7414 19.153C12.5448 19.1046 12.3594 19.019 12.195 18.9009C11.8179 18.6591 11.5244 18.307 11.3545 17.8926L11.3125 17.8506C11.3125 17.8086 11.2705 17.7666 11.2705 17.7246C11.2284 17.6825 11.2284 17.6825 11.2284 17.6405C11.2284 17.5985 11.1864 17.5565 11.1864 17.5145C11.1864 17.4725 11.1864 17.4305 11.1444 17.4305V17.3044C11.1471 17.2816 11.1448 17.2585 11.1375 17.2367C11.1302 17.2149 11.1182 17.195 11.1023 17.1784V16.4642C11.1363 16.3997 11.1509 16.3267 11.1444 16.2541C11.1474 16.2219 11.1624 16.1919 11.1864 16.1701C11.1864 16.1281 11.2284 16.0441 11.2284 16.0021C11.2705 15.96 11.2705 15.96 11.2705 15.918C11.2719 15.8401 11.3018 15.7654 11.3545 15.708L11.3965 15.666C11.5264 15.4156 11.6968 15.1885 11.9008 14.9938C12.3237 14.5992 12.8775 14.3747 13.4558 14.3636H14.0021C14.0862 14.3216 14.1282 14.2376 14.2123 14.1535L14.2543 14.1115C14.3383 14.0275 14.4224 13.9855 14.4644 13.9435L14.5064 13.9015C14.5485 13.8594 14.6745 13.8174 14.6745 13.7754C14.7166 13.7754 14.8006 13.6914 14.8426 13.6914C14.8847 13.6914 14.9267 13.6494 14.9687 13.6494C15.0382 13.583 15.1261 13.5391 15.2209 13.5233L15.3049 13.4813C15.6581 13.3094 16.0468 13.223 16.4396 13.2293C16.581 13.2224 16.7226 13.2365 16.8599 13.2713C16.986 13.2713 17.07 13.3133 17.1541 13.3133H17.1961C17.2801 13.3553 17.3642 13.3553 17.4482 13.3973H17.4903L17.7424 13.5233H17.7844L18.0366 13.6494V13.6914C18.1206 13.6914 18.2047 13.7754 18.2888 13.8174C18.3728 13.9015 18.4569 13.9435 18.4989 14.0275H18.5409L18.751 14.2376C19.0509 14.5573 19.2927 14.927 19.4655 15.3299V15.3719C19.5075 15.4559 19.5075 15.5399 19.5495 15.5819V15.666C19.5495 15.75 19.5915 15.792 19.5915 15.876C19.5915 15.96 19.6336 16.0441 19.6336 16.1701C20.0087 16.2845 20.3355 16.5195 20.5635 16.8385C20.7914 17.1575 20.9077 17.5428 20.8943 17.9346V18.1027ZM26.7359 22.682C26.6485 22.8283 26.5148 22.9415 26.356 23.0036C26.1972 23.0658 26.0223 23.0734 25.8587 23.0253C25.6951 22.9772 25.5521 22.8761 25.4522 22.7379C25.3524 22.5997 25.3013 22.4322 25.3071 22.2619C25.3071 22.0613 25.3867 21.869 25.5286 21.7271C25.6705 21.5853 25.8629 21.5056 26.0635 21.5056C26.2004 21.5024 26.3342 21.5469 26.4417 21.6317C26.5311 21.6803 26.6098 21.7463 26.6732 21.8258C26.7366 21.9053 26.7834 21.9968 26.8109 22.0947C26.8383 22.1926 26.8458 22.295 26.8329 22.3959C26.82 22.4968 26.7871 22.5941 26.7359 22.682Z" fill="#F9FAFB"/>
<path d="M20.9984 18.0546V18.2371C21.0005 18.3009 20.9857 18.364 20.9555 18.4196V18.4641C20.9469 18.5743 20.9178 18.6816 20.8696 18.7802C20.7429 19.1528 20.5017 19.4719 20.1831 19.6884C20.1061 19.7227 20.0339 19.7676 19.9685 19.8219H19.9256C19.8474 19.8716 19.7594 19.902 19.6681 19.9109C19.6252 19.9555 19.5394 19.9555 19.4536 20H19.1103C18.7038 20.0023 18.3092 19.8575 17.9946 19.5904L17.6513 19.724C17.5543 19.8067 17.4335 19.8537 17.308 19.8575C17.0299 19.946 16.7406 19.991 16.4498 19.9911C15.9299 19.9846 15.4176 19.8616 14.9479 19.6305C14.8708 19.5963 14.7986 19.5514 14.7333 19.4969H14.6904C14.6403 19.4131 14.5649 19.3489 14.4758 19.3144C14.1799 19.4571 13.8581 19.533 13.5318 19.537C13.4296 19.5479 13.3265 19.5326 13.2314 19.4925H13.1885L12.9739 19.448H12.931C12.8398 19.4391 12.7517 19.4086 12.6735 19.3589C12.4728 19.3078 12.2834 19.2171 12.1157 19.0918C11.7294 18.8292 11.4299 18.4501 11.2575 18.0056L11.2146 17.9611C11.2146 17.9166 11.1716 17.8721 11.1716 17.8276C11.1287 17.783 11.1287 17.783 11.1287 17.7385C11.1287 17.694 11.0858 17.6495 11.0858 17.605C11.0858 17.5605 11.0858 17.5159 11.0429 17.5159V17.3824C11.0454 17.3582 11.0429 17.3338 11.0355 17.3108C11.0281 17.2877 11.016 17.2666 11 17.2488V16.4743C11.034 16.4057 11.0489 16.3286 11.0429 16.2517C11.0464 16.2176 11.0617 16.186 11.0858 16.1626C11.0858 16.1181 11.1287 16.0291 11.1287 15.9801C11.1716 15.9356 11.1716 15.9356 11.1716 15.8911C11.1732 15.8072 11.2037 15.7267 11.2575 15.6641L11.3004 15.6195C11.4326 15.35 11.6065 15.1049 11.8153 14.8939C12.244 14.4691 12.8104 14.2261 13.403 14.2128H13.9609C14.0467 14.1683 14.0896 14.0793 14.1755 13.9902L14.2184 13.9457C14.3042 13.8567 14.39 13.8122 14.4329 13.7632L14.4758 13.7187C14.5187 13.6742 14.6475 13.6296 14.6475 13.5851C14.6904 13.5851 14.7762 13.4961 14.8191 13.4961C14.862 13.4961 14.9049 13.4516 14.9479 13.4516C15.0187 13.3811 15.1085 13.3345 15.2053 13.318L15.2912 13.2735C15.651 13.0886 16.0482 12.9955 16.4498 13.002C16.5941 12.9943 16.7388 13.0093 16.8789 13.0465C17.0076 13.0465 17.0934 13.091 17.1793 13.091H17.2222C17.308 13.1355 17.3938 13.1355 17.4796 13.18H17.5225L17.78 13.3136H17.8229L18.0804 13.4471V13.4916C18.1662 13.4916 18.252 13.5807 18.3379 13.6252C18.4237 13.7142 18.5095 13.7587 18.5524 13.8478H18.5953L18.8099 14.0793C19.1165 14.4245 19.3633 14.8221 19.5394 15.2545V15.299C19.5823 15.3881 19.5823 15.4771 19.6252 15.5216V15.6106C19.6252 15.6997 19.6681 15.7442 19.6681 15.8421C19.6681 15.9401 19.711 16.0202 19.711 16.1537C20.0976 16.2805 20.4331 16.5358 20.6658 16.8802C20.8985 17.2246 21.0154 17.6344 20.9984 18.0546Z" fill="#2683FF"/>
</svg>
