<svg width="32" height="32" viewBox="0 0 32 32" fill="none" xmlns="http://www.w3.org/2000/svg">
<path d="M29.4781 16.5047C29.2627 16.3939 29.0215 16.3399 28.7784 16.3481C28.5352 16.3564 28.2984 16.4265 28.0913 16.5515C28.01 16.5984 16.9875 22.6084 16.5571 22.866C16.4758 22.9128 16.4375 22.9363 16.2702 22.8473C12.4459 20.7582 8.62344 18.6659 4.8029 16.5703C4.72905 16.5379 4.66632 16.4853 4.62222 16.4188C4.57811 16.3523 4.55451 16.2748 4.55423 16.1955V14.3874L15.5768 20.4442C15.8365 20.588 16.1296 20.6639 16.428 20.6644C16.7398 20.6608 17.0458 20.5802 17.3174 20.4302L29.3155 13.9096C29.5186 13.8053 29.6893 13.6493 29.8096 13.4581C29.93 13.2669 29.9955 13.0474 29.9993 12.8228C29.9956 12.6181 29.9348 12.4183 29.8235 12.2449C29.7123 12.0715 29.5548 11.9312 29.3681 11.8391L17.1405 5.19209C16.922 5.06922 16.6751 5.00311 16.4232 5.00003C16.194 4.99846 15.9684 5.05493 15.7681 5.16398L3.58348 11.8672C3.40504 11.9648 3.2567 12.1076 3.15405 12.2807C3.05139 12.4538 2.99821 12.6508 3.00008 12.8509V16.1909C2.99684 16.5445 3.09336 16.8922 3.279 17.1955C3.46463 17.4989 3.73217 17.7461 4.05212 17.91C4.28644 18.0365 15.3377 24.0886 15.529 24.187C15.8071 24.3519 16.1264 24.4379 16.4515 24.4354C16.7766 24.4329 17.0946 24.3421 17.37 24.1729C17.6283 24.0183 26.4272 19.2029 28.4452 18.1067V19.7837C28.4452 19.8025 28.4452 19.868 28.1439 20.0507C27.7566 20.2849 17.1692 26.1216 16.6671 26.3839C16.4519 26.501 16.428 26.4823 16.3419 26.4308L3.8991 19.587L3.13398 20.9173C3.25353 20.9829 15.1847 27.5456 15.5577 27.7564C15.8221 27.9124 16.1241 27.9965 16.4328 28C16.7749 27.9892 17.1088 27.8942 17.4035 27.7236C17.4896 27.6768 28.5313 21.6106 28.9664 21.3389C29.2629 21.1902 29.5143 20.9678 29.6956 20.6941C29.8768 20.4204 29.9816 20.1048 29.9993 19.779V17.4744C30.0061 17.2824 29.961 17.0921 29.8687 16.9227C29.7763 16.7532 29.6399 16.6107 29.4733 16.5094L29.4781 16.5047ZM16.4375 6.56459L28.0339 12.865L16.5667 19.0951C16.5354 19.1179 16.4982 19.1317 16.4594 19.135C16.4205 19.1383 16.3815 19.131 16.3467 19.1139L4.96549 12.865L16.4375 6.56459Z" fill="#2488D1"/>
</svg>
