<svg width="32" height="32" viewBox="0 0 32 32" fill="none" xmlns="http://www.w3.org/2000/svg">
<path fill-rule="evenodd" clip-rule="evenodd" d="M8.17023 12.0335L8.63553 10.5961C8.68194 10.4522 8.76243 10.3216 8.87014 10.2155C8.97785 10.1094 9.1096 10.0309 9.25417 9.98658L10.6986 9.54242C10.8985 9.48131 10.9001 9.19934 10.7018 9.13499L9.26396 8.6697C9.12013 8.62312 8.98963 8.54257 8.88352 8.43487C8.77741 8.32717 8.69881 8.19549 8.65437 8.05098L8.21073 6.60666C8.14969 6.40722 7.86765 6.40508 7.8033 6.60394L7.33801 8.04126C7.29142 8.18508 7.21088 8.31557 7.1032 8.42168C6.99551 8.52779 6.86386 8.6064 6.71936 8.65085L5.2749 9.09443C5.07501 9.15605 5.07288 9.43758 5.27173 9.50185L6.70957 9.96714C6.85343 10.0138 6.98393 10.0945 7.09004 10.2023C7.19614 10.3101 7.27473 10.4418 7.31916 10.5864L7.76281 12.0303C7.82392 12.2301 8.10589 12.2324 8.17023 12.0335Z" fill="#FAFAFA"/>
<path fill-rule="evenodd" clip-rule="evenodd" d="M31 11.1969C30.4045 10.531 29.4753 10.1561 28.5718 10.0024C27.6612 9.85473 26.7062 9.86843 25.8073 10.0282C23.9881 10.3359 22.3356 11.0891 20.8941 12.0183C20.1456 12.4744 19.5072 13.002 18.8459 13.5394C18.5273 13.8113 18.2368 14.1007 17.9342 14.386L17.1075 15.2085C16.2092 16.1474 15.3239 17.0027 14.4672 17.7115C13.6071 18.4171 12.8029 18.9531 12.0104 19.3273C11.2184 19.7035 10.3709 19.9248 9.26637 19.9601C8.17154 19.9988 6.87615 19.8012 5.49058 19.4749C4.09758 19.1503 2.63478 18.6874 1 18.2892C1.57042 19.8715 2.4293 21.2698 3.53209 22.5482C4.64776 23.8043 6.04091 24.949 7.83059 25.7019C9.59443 26.4715 11.811 26.7478 13.8837 26.331C15.9617 25.9309 17.7853 24.9695 19.2593 23.8573C20.7372 22.7338 21.9328 21.454 22.9408 20.1235C23.1557 19.8411 23.3647 19.5542 23.5675 19.2629L24.1241 18.4386C24.5109 17.9287 24.863 17.3481 25.2456 16.8428C25.9962 15.7847 26.7362 14.7278 27.5961 13.7541C28.0288 13.2602 28.4852 12.7878 29.0239 12.3339C29.2926 12.1123 29.5829 11.8954 29.9044 11.7C30.2309 11.4894 30.5756 11.3245 31 11.1969Z" fill="#EC796B"/>
<path fill-rule="evenodd" clip-rule="evenodd" d="M31 11.1969C30.3604 9.5827 29.1712 8.22393 27.5748 7.22127C25.9883 6.22958 23.7849 5.7235 21.6012 6.15492C20.5225 6.36357 19.4775 6.76525 18.5604 7.30012C17.6474 7.83285 16.8292 8.47417 16.121 9.16224C15.7674 9.50738 15.4465 9.86739 15.1277 10.2295L14.3013 11.2831L13.0249 12.9791C11.3979 15.1612 9.64567 17.7185 6.77014 18.4762C3.94724 19.2201 2.72291 18.5612 1 18.2891C1.3151 19.1024 1.7053 19.8923 2.23428 20.5871C2.75346 21.2961 3.36666 21.9618 4.12909 22.5327C4.51435 22.8068 4.92112 23.0773 5.37286 23.3069C5.82262 23.5285 6.30757 23.7236 6.82521 23.8704C7.85489 24.1526 9.01414 24.2516 10.1366 24.0997C11.2595 23.9498 12.3329 23.5941 13.271 23.1215C14.2162 22.6532 15.0395 22.083 15.7746 21.4814C17.236 20.2677 18.3728 18.9268 19.3329 17.5713C19.8159 16.8937 20.2543 16.2032 20.6598 15.5125L21.137 14.6902C21.2829 14.4499 21.4304 14.208 21.5802 13.9828C22.185 13.0779 22.7764 12.3524 23.4947 11.8077C24.2031 11.2491 25.1895 10.8363 26.5077 10.7403C27.8203 10.6433 29.3358 10.8226 31 11.1968V11.1969Z" fill="#FAFAFA"/>
<path fill-rule="evenodd" clip-rule="evenodd" d="M23.8992 24.6086C23.8992 25.7942 24.8609 26.7557 26.0464 26.7557C27.232 26.7557 28.1923 25.7942 28.1923 24.6086C28.1923 23.4231 27.232 22.4614 26.0464 22.4614C24.8609 22.4614 23.8992 23.4231 23.8992 24.6086Z" fill="#EC796B"/>
</svg>
