<svg width="32" height="32" viewBox="0 0 32 32" fill="none" xmlns="http://www.w3.org/2000/svg">
<path fill-rule="evenodd" clip-rule="evenodd" d="M22.8047 14.2111C23.9448 15.642 24.5627 17.4263 24.5542 19.2638C24.5457 21.1013 23.9114 22.8798 22.758 24.2998L22.6647 24.4177L22.6367 24.2667C22.6143 24.1354 22.5879 24.0048 22.5573 23.8751C22.1486 22.494 21.4547 21.2162 20.5216 20.1263C19.5884 19.0363 18.4372 18.1589 17.144 17.552C16.2938 17.1661 15.5383 16.595 14.9317 15.8796C14.325 15.1642 13.8821 14.3222 13.6347 13.4137C13.4662 12.4311 13.5465 11.4214 13.868 10.4786C14.1002 9.73197 14.4604 9.0324 14.932 8.4118L16.108 6.97258C16.1562 6.91331 16.2167 6.86556 16.2853 6.83278C16.3539 6.79999 16.4288 6.78299 16.5047 6.78299C16.5805 6.78299 16.6555 6.79999 16.724 6.83278C16.7926 6.86556 16.8532 6.91331 16.9013 6.97258L22.8047 14.2111ZM24.6667 12.7719L16.7893 3.13625C16.7539 3.09358 16.7096 3.05927 16.6596 3.03573C16.6096 3.0122 16.5551 3 16.5 3C16.4449 3 16.3904 3.0122 16.3404 3.03573C16.2904 3.05927 16.2461 3.09358 16.2107 3.13625L8.338 12.7719L8.31467 12.8049C6.81587 14.662 5.99812 16.9859 6 19.3829C6 22.1987 7.10625 24.8992 9.07538 26.8903C11.0445 28.8814 13.7152 30 16.5 30C19.2848 30 21.9555 28.8814 23.9246 26.8903C25.8937 24.8992 27 22.1987 27 19.3829C27.0019 16.9859 26.1841 14.662 24.6853 12.8049L24.6667 12.7719ZM10.228 14.1781L10.928 13.3146L10.9513 13.475L11.012 13.8525C11.3224 15.1433 11.9155 16.3473 12.7474 17.3755C13.5793 18.4037 14.6289 19.23 15.8187 19.7934C16.7848 20.2298 17.651 20.8639 18.3626 21.6558C19.0743 22.4477 19.6159 23.38 19.9533 24.3941C20.1099 25.0534 20.1525 25.7351 20.0793 26.409L20.0747 26.4468L20.0373 26.4657C18.8151 27.0623 17.4638 27.3378 16.1084 27.2666C14.753 27.1954 13.4373 26.7799 12.2827 26.0584C11.1282 25.3369 10.1722 24.3327 9.50314 23.1387C8.83405 21.9447 8.47344 20.5994 8.45467 19.2271C8.45182 17.3876 9.07836 15.6037 10.228 14.1781Z" fill="#63A1F8"/>
</svg>
