<svg width="32" height="32" viewBox="0 0 32 32" fill="none" xmlns="http://www.w3.org/2000/svg">
<path d="M11.9996 4.00464C13.3579 4.0338 14.7008 4.29884 15.9683 4.78793C19.7665 6.20416 23.1653 8.51901 25.8742 11.5346C27.0481 12.7637 27.9752 14.2067 28.6052 15.7852C28.9747 16.6565 29.0782 17.6176 28.9029 18.5476C28.805 18.9595 28.6237 19.3469 28.3702 19.686L23.4617 26.5423C23.1559 26.9547 22.7639 27.2954 22.313 27.5407C21.862 27.786 21.363 27.93 20.8507 27.9627C19.4593 28.0847 18.0578 27.9066 16.7411 27.4405C14.081 26.5756 11.5978 25.2402 9.40955 23.498C7.58246 22.1313 5.98383 20.4833 4.6733 18.6155C3.87874 17.548 3.33119 16.3173 3.07018 15.0124C2.97425 14.5414 2.97669 14.0557 3.07733 13.5858C3.17798 13.1158 3.37466 12.6717 3.65503 12.2813C5.2216 10.1143 6.80383 7.95761 8.31818 5.75398C8.66859 5.22702 9.14131 4.79269 9.69599 4.48807C10.2507 4.18345 10.8708 4.01759 11.5035 4.00464C11.6654 3.9942 11.8325 4.00464 11.9944 4.00464H11.9996Z" fill="url(#paint0_linear_22_1353)"/>
<path d="M11.9844 4.86599C13.2117 4.89384 14.4252 5.13229 15.5718 5.57095C19.3587 6.96359 22.7383 9.2789 25.4046 12.3072C26.4153 13.4002 27.2202 14.6669 27.7806 16.0461C28.0711 16.6886 28.1847 17.3971 28.1096 18.0983C28.0525 18.5598 27.8452 18.9898 27.5196 19.322C27.1941 19.6541 26.7683 19.87 26.308 19.9364C25.159 20.1328 23.9804 20.0649 22.8616 19.7379C21.149 19.2966 19.5084 18.6126 17.9895 17.7066C16.0971 16.6272 14.3524 15.3073 12.799 13.7798C11.4424 12.5119 10.3277 11.0079 9.50918 9.34116C9.17556 8.68071 8.99022 7.95537 8.9661 7.21585C8.9344 6.69053 9.09824 6.17206 9.42606 5.76036C9.75388 5.34866 10.2225 5.07285 10.7415 4.9861C11.1488 4.89181 11.5666 4.85143 11.9844 4.86599ZM8.10971 9.0174C8.10971 8.91296 8.14627 8.82941 8.2507 8.80852C8.3917 8.78241 8.44392 8.87641 8.48047 8.99651C8.61199 9.47441 8.78678 9.93934 9.00266 10.3855C9.60246 11.5509 10.3695 12.6223 11.2794 13.5657C12.0313 14.3791 12.8318 15.1464 13.6763 15.8633L13.8381 16.0095C13.9426 16.0983 14.0366 16.2079 13.9165 16.3333C13.812 16.4534 13.7024 16.3803 13.6031 16.2915C13.3838 16.0983 13.1541 15.9103 12.9347 15.7119C11.5516 14.5147 10.3267 13.1459 9.28986 11.6388C8.79473 10.8971 8.41282 10.0857 8.15671 9.2315L8.10971 9.0174Z" fill="#FEFEFE"/>
<path d="M24.972 21.1535C24.4543 21.1481 23.9376 21.1045 23.4263 21.0229C23.301 21.0021 23.1443 20.9864 23.1652 20.8088C23.1809 20.6104 23.348 20.6365 23.4785 20.6522C24.2336 20.7853 25.0041 20.8082 25.7657 20.7201C25.8963 20.6992 26.0216 20.7305 26.0268 20.8872C26.032 21.0438 25.9224 21.0856 25.7918 21.096C25.52 21.1317 25.2461 21.1544 24.972 21.1535Z" fill="#FCFCFC"/>
<path d="M22.5343 20.8607C22.3254 20.798 22.08 20.7405 21.845 20.6674C21.8221 20.6628 21.8005 20.6533 21.7817 20.6396C21.7628 20.6259 21.7472 20.6083 21.7358 20.588C21.7244 20.5676 21.7175 20.5451 21.7156 20.5218C21.7137 20.4986 21.7169 20.4752 21.7249 20.4533C21.7303 20.4308 21.7403 20.4097 21.7541 20.3911C21.7679 20.3725 21.7853 20.3569 21.8053 20.3452C21.8253 20.3335 21.8474 20.326 21.8704 20.323C21.8933 20.32 21.9167 20.3218 21.939 20.328C22.1844 20.3802 22.4246 20.4377 22.6648 20.5056C22.688 20.5113 22.7097 20.522 22.7285 20.5368C22.7472 20.5517 22.7625 20.5704 22.7734 20.5917C22.7843 20.6129 22.7905 20.6363 22.7916 20.6602C22.7927 20.6841 22.7886 20.7079 22.7797 20.7301C22.7484 20.8345 22.6596 20.8554 22.5343 20.8607Z" fill="#FAFAFA"/>
<path d="M15.2401 8.74573C16.2001 8.8015 17.1369 9.06331 17.9868 9.51335C19.7636 10.3479 21.3064 11.609 22.4776 13.1843C22.7776 13.5928 23.0119 14.0456 23.1721 14.5264C23.5011 15.5394 23.0625 16.1608 21.9972 16.166C21.2122 16.1595 20.4371 15.9906 19.7205 15.67C17.6913 14.8497 15.9277 13.4855 14.6239 11.7274C14.2613 11.2602 14.0031 10.7207 13.8667 10.1452C13.8061 9.99285 13.7837 9.82796 13.8016 9.66497C13.8196 9.50198 13.8772 9.34587 13.9694 9.21032C14.0617 9.07477 14.1858 8.96391 14.3308 8.88746C14.4759 8.81102 14.6375 8.77132 14.8014 8.77184C14.8549 8.76161 14.909 8.75463 14.9633 8.75095H15.2401V8.74573Z" fill="url(#paint1_linear_22_1353)"/>
<defs>
<linearGradient id="paint0_linear_22_1353" x1="7.17458" y1="7.58686" x2="23.6497" y2="23.2943" gradientUnits="userSpaceOnUse">
<stop stop-color="#2EACE3"/>
<stop offset="0.023" stop-color="#3DA5DE"/>
<stop offset="0.122" stop-color="#788BCB"/>
<stop offset="0.214" stop-color="#A777BB"/>
<stop offset="0.294" stop-color="#C868B0"/>
<stop offset="0.36" stop-color="#DD5FA9"/>
<stop offset="0.405" stop-color="#E45CA7"/>
<stop offset="0.455" stop-color="#DA589F"/>
<stop offset="0.541" stop-color="#BD4C8B"/>
<stop offset="0.654" stop-color="#903A69"/>
<stop offset="0.789" stop-color="#50203B"/>
<stop offset="0.941" stop-color="#010000"/>
<stop offset="0.942"/>
</linearGradient>
<linearGradient id="paint1_linear_22_1353" x1="13.2767" y1="7.68046" x2="24.0546" y2="17.435" gradientUnits="userSpaceOnUse">
<stop stop-color="#2EACE3"/>
<stop offset="0.024" stop-color="#40A4DD"/>
<stop offset="0.094" stop-color="#728ECD"/>
<stop offset="0.163" stop-color="#9B7CBF"/>
<stop offset="0.231" stop-color="#BB6EB5"/>
<stop offset="0.296" stop-color="#D264AD"/>
<stop offset="0.357" stop-color="#DF5EA9"/>
<stop offset="0.411" stop-color="#E45CA7"/>
<stop offset="0.461" stop-color="#DD59A2"/>
<stop offset="0.531" stop-color="#CB5295"/>
<stop offset="0.613" stop-color="#AD467F"/>
<stop offset="0.704" stop-color="#833560"/>
<stop offset="0.802" stop-color="#4E1F39"/>
<stop offset="0.906" stop-color="#0D050A"/>
<stop offset="0.926"/>
</linearGradient>
</defs>
</svg>
