<svg width="32" height="32" viewBox="0 0 32 32" fill="none" xmlns="http://www.w3.org/2000/svg">
<mask id="mask0_22_1346" style="mask-type:luminance" maskUnits="userSpaceOnUse" x="3" y="3" width="27" height="27">
<path d="M3 3H30V30H3V3Z" fill="white"/>
</mask>
<g mask="url(#mask0_22_1346)">
<path d="M15.1806 3.03637C12.6773 3.28925 10.2919 4.22654 8.28608 5.74546C7.49586 6.37504 6.76659 7.07752 6.1079 7.84365L5.76608 8.27274H3.99881V10.0109H4.61699L4.36244 10.5236C3.6573 11.9654 3.2117 13.52 3.04608 15.1164C2.96423 16.3085 2.99955 17.5057 3.15154 18.6909C3.40489 20.2134 3.91259 21.6824 4.65335 23.0364C4.72489 23.1479 4.7881 23.2646 4.84244 23.3855C4.64192 23.4059 4.44028 23.4132 4.23881 23.4073H3.63154V25.0946H6.03154L6.52244 25.6218L7.00972 26.1491H6.42426V27.8873H9.17699L9.78426 28.2364C11.1848 29.0364 12.7166 29.5807 14.3079 29.8436C15.0221 29.9667 15.7478 30.0094 16.4715 29.9709C17.1578 29.9964 17.845 29.9647 18.5261 29.8764C21.2818 29.4572 23.8395 28.193 25.8461 26.2582C26.4323 25.6887 26.9721 25.0734 27.4606 24.4182L27.577 24.2509H26.8861V22.5636H28.6097L28.8788 21.9418C29.3327 20.9008 29.6563 19.8076 29.8424 18.6873C29.9655 17.9731 30.0082 17.2473 29.9697 16.5236C30.0257 15.4138 29.9067 14.302 29.617 13.2291C29.088 11.1091 28.0552 9.1481 26.6061 7.51274L26.2461 7.11274H21.5588V5.42546H24.2752L23.8788 5.16728C23.6606 5.02183 23.2243 4.76728 22.9043 4.58546L22.3224 4.26546H18.657V3.71274C18.657 3.07274 18.7297 3.13456 17.9479 3.05092C17.0262 3.00143 16.1027 2.99657 15.1806 3.03637ZM12.7952 11.4146C13.4412 11.5 14.0467 11.7776 14.533 12.2114C15.0193 12.6452 15.3641 13.2151 15.5224 13.8473C15.5593 14.003 15.586 14.1609 15.6024 14.32V14.4436H13.5079L13.4752 14.24C13.4337 14.0839 13.37 13.9345 13.2861 13.7964C13.0652 13.5336 12.7783 13.3344 12.4549 13.2193C12.1315 13.1043 11.7833 13.0775 11.4461 13.1418C10.5552 13.1927 9.99517 13.6509 9.99517 14.3273C9.99517 15.0655 10.4061 15.3382 12.1261 15.7636C12.89 15.9069 13.6279 16.1643 14.3152 16.5273C14.7343 16.7919 15.0935 17.1412 15.3697 17.5527C15.4788 17.7418 15.5515 17.8146 15.6424 17.8146C15.7879 17.8146 15.9006 18.0436 15.9552 18.4218C15.9806 18.64 15.9734 18.6582 15.8679 18.6582C15.7734 18.6582 15.7588 18.6909 15.7588 18.88C15.7387 19.3635 15.6303 19.8392 15.4388 20.2836C15.0035 21.0474 14.285 21.6091 13.4388 21.8473C12.3201 22.1476 11.143 22.1551 10.0206 21.8691C9.29809 21.7256 8.6493 21.3318 8.18839 20.7572C7.72747 20.1825 7.48394 19.4638 7.50063 18.7273C7.85263 18.6816 8.20755 18.6621 8.56244 18.6691L9.5879 18.6509V18.7746C9.62657 19.0649 9.74247 19.3395 9.92348 19.5698C10.1045 19.8001 10.344 19.9775 10.617 20.0836C11.1955 20.2537 11.806 20.2848 12.3988 20.1746C12.7062 20.1329 12.9891 19.9844 13.1979 19.755C13.4067 19.5256 13.528 19.23 13.5406 18.92C13.5406 18.7527 13.5588 18.7127 13.6497 18.7127C13.7043 18.7127 13.7515 18.6873 13.7515 18.6618C13.6998 18.4616 13.5819 18.2847 13.417 18.16C13.1305 17.968 12.8094 17.8333 12.4715 17.7636C11.562 17.5744 10.6626 17.339 9.77699 17.0582C9.06894 16.8121 8.46013 16.3424 8.04244 15.72C7.84035 15.2969 7.74218 14.8317 7.75609 14.363C7.77001 13.8944 7.89561 13.4358 8.12244 13.0255C8.40792 12.5963 8.77923 12.2309 9.21295 11.9524C9.64668 11.6739 10.1334 11.4883 10.6424 11.4073C11.3567 11.3082 12.0813 11.313 12.7952 11.4146ZM18.0243 12.4909V13.6509H18.817V15.9709H19.5552L19.5661 17.1164L19.5806 18.2655L19.9661 18.28L20.3479 18.2982V19.8218H21.137V18.2909H21.9297V15.9746L22.3152 15.96L22.6934 15.9455L22.7115 14.7964L22.7224 13.6509H23.4606V11.3309H24.9334V13.5964H24.1952V15.9164H23.4061V18.24H22.6679V20.56H21.8752V22.0873H19.6097V20.56H18.8679V18.24H18.0788V15.9164H17.3406V13.5964H16.5479V11.3346H18.0243V12.4909Z" fill="#00ECFA"/>
</g>
</svg>
