<svg width="32" height="32" viewBox="0 0 32 32" fill="none" xmlns="http://www.w3.org/2000/svg">
<path fill-rule="evenodd" clip-rule="evenodd" d="M15.0924 3.158C13.8753 3.62212 12.8117 4.41146 12.0199 5.43838C11.0234 6.77687 10.2541 8.26758 9.74224 9.85172L9.62138 10.4598L10.8857 9.63981C11.6833 9.13088 12.5088 8.6664 13.3586 8.24854C13.7944 8.07823 14.2019 7.84371 14.5671 7.55291C14.2857 7.38043 13.9672 7.27625 13.6375 7.24886C12.8891 7.10605 12.6939 6.98627 12.6427 6.63155C12.6056 6.37817 12.6892 6.18468 12.838 6.17086C13.6443 6.15522 14.4474 6.27516 15.2132 6.52559C16.2095 6.83171 17.2811 6.79436 18.2532 6.41963C19.299 6.1939 20.4518 5.98659 20.8097 5.95895L21.4698 5.90367L20.6842 5.02376C20.0301 4.21641 19.156 3.61195 18.1657 3.28206C17.1754 2.95218 16.1104 2.91072 15.097 3.1626L15.0924 3.158ZM19.0713 7.35021C13.9699 8.46868 9.42071 11.3127 6.20492 15.3937L5.35893 16.527L5.95391 17.3332C6.27929 17.7801 6.82778 18.4711 7.1764 18.8719L7.80391 19.5998V17.4115C7.80391 15.3569 7.82716 15.2279 8.19437 15.2279C8.55693 15.2279 8.60341 15.4352 8.82188 17.9459L9.0543 20.6639L9.79337 21.2813C13.0088 23.7548 16.824 25.3467 20.8562 25.8973L22.1577 26.0355L22.7666 24.5798C23.6452 22.4929 23.594 22.4053 22.0926 23.405C20.6284 24.3724 19.8894 24.635 19.6523 24.2573C19.406 23.8565 19.5965 23.6169 20.6145 23.0503C21.3499 22.62 22.0635 22.1542 22.7527 21.6544C24.0867 20.6778 24.0542 20.7883 24.3285 16.8817C24.4447 15.2095 24.4958 15.039 24.8491 15.039C25.2209 15.039 25.2395 15.1542 25.2116 17.757C25.2813 20.1295 24.8309 22.4887 23.8915 24.6719L23.4081 25.8605L24.2913 25.7407C25.4594 25.6509 26.5619 25.1694 27.4169 24.3756C28.272 23.5817 28.8287 22.5228 28.9953 21.3734C29.0372 20.1435 28.7988 18.92 28.2981 17.7939C28.2144 17.711 27.9262 17.9505 27.6705 18.3283C27.1871 19.0331 26.5829 19.2266 26.3923 18.7429C26.4702 18.2637 26.6756 17.8136 26.9873 17.4392L27.6845 16.4165L27.1639 15.7254C25.3547 13.2707 23.0217 11.2416 20.331 9.78262C18.7041 8.87968 18.4717 8.6217 18.9039 8.18865C19.155 7.94449 20.833 8.69541 22.3437 9.71812C23.6266 10.5934 23.6545 10.5013 22.7806 8.41439C22.1763 6.98627 22.167 6.97245 21.4558 6.98627C20.6519 7.05534 19.8537 7.17848 19.0666 7.35482L19.0713 7.35021ZM23.4871 7.29032C23.5801 7.48842 23.9752 8.59866 24.3703 9.75037C24.5811 10.6085 24.9619 11.4165 25.4905 12.1275C26.0658 12.6625 26.596 13.2434 27.0756 13.8643L28.2562 15.3154L28.6048 14.4033C29.1043 12.9664 29.0797 11.4014 28.5351 9.98071C28.1393 9.28605 27.5967 8.68435 26.9444 8.21682C26.2922 7.74929 25.5457 7.42696 24.7561 7.2719C24.4006 7.202 24.0472 7.12211 23.6963 7.03234C23.3942 6.94481 23.357 6.99088 23.4918 7.29032H23.4871ZM7.54826 7.53448C6.90907 7.71671 6.31397 8.0259 5.79914 8.44324C5.28431 8.86058 4.86052 9.37735 4.55355 9.96212C4.24658 10.5469 4.06284 11.1874 4.01351 11.8448C3.96418 12.5022 4.05028 13.1626 4.26659 13.786C4.36838 14.2703 4.52914 14.7405 4.74536 15.1864C4.83368 15.274 5.06609 15.0989 5.25667 14.7995C5.74218 14.1659 6.2669 13.5628 6.82778 12.9936C7.71852 12.2 8.33211 11.1467 8.58017 9.98532C8.80837 9.20872 9.08152 8.44579 9.39827 7.70033C9.66786 7.17976 9.66322 7.16594 9.13332 7.17055C8.59372 7.22878 8.06313 7.35097 7.55291 7.53448H7.54826ZM17.1237 11.5516C17.2679 11.8688 17.3952 12.1932 17.5048 12.5237C17.1862 12.6038 16.8564 12.6318 16.5287 12.6066C16.1999 12.6296 15.8695 12.6047 15.5479 12.5329C15.7554 11.852 16.0931 11.217 16.5426 10.6625C16.6495 10.6625 16.9145 11.0633 17.1237 11.5516ZM14.358 12.9291C14.0031 13.4892 13.5403 13.9745 12.996 14.3572C12.6392 13.7374 12.419 13.0497 12.3499 12.3394C13.0454 12.4348 13.7223 12.6336 14.358 12.9291ZM20.489 13.3806C20.4094 13.7299 20.2609 14.0603 20.0521 14.3526C19.5091 13.9698 19.0479 13.4845 18.6948 12.9245C19.3212 12.6356 19.9867 12.4385 20.6703 12.3394C20.6971 12.6964 20.6378 13.0544 20.489 13.3806ZM18.044 13.9656C18.6551 14.3153 19.1177 14.8725 19.3462 15.5341C19.5748 16.1957 19.5538 16.9169 19.2871 17.5644C19.0205 18.2118 18.5262 18.7417 17.8959 19.0558C17.2655 19.37 16.5416 19.4472 15.8582 19.2732C15.1748 19.0992 14.5781 18.6858 14.1785 18.1094C13.779 17.5331 13.6036 16.8327 13.6848 16.1381C13.766 15.4434 14.0984 14.8014 14.6203 14.3309C15.1423 13.8604 15.8186 13.5931 16.524 13.5786C17.0556 13.5779 17.5786 13.7111 18.044 13.9656ZM12.6056 16.4902C12.6347 16.8156 12.6032 17.1435 12.5126 17.4576C11.8359 17.2312 11.2049 16.8881 10.6486 16.4441C11.1827 16.017 11.7998 15.7033 12.4615 15.5227C12.5405 15.5227 12.6056 15.9558 12.6056 16.4902ZM21.5209 15.9466C21.855 16.0707 22.1568 16.2675 22.4041 16.5224C21.8994 16.9634 21.3002 17.2847 20.6517 17.4622C20.5355 17.4622 20.4472 17.0338 20.4472 16.4902C20.4179 16.1648 20.4494 15.8368 20.5401 15.5227C20.8745 15.6427 21.2052 15.7843 21.5209 15.9466ZM4.60127 18.1993C3.97164 19.3836 3.83106 20.764 4.20921 22.0491C4.58736 23.3342 5.45464 24.4233 6.62791 25.0865C7.56953 25.5305 8.57998 25.814 9.61673 25.9249C9.60975 25.7266 9.55218 25.5332 9.4494 25.3629C9.32578 25.1147 9.28664 24.8335 9.33784 24.5613C9.55631 23.9993 10.0583 24.2527 10.4999 25.1556L10.9415 26.0493L12.1733 25.9249C13.7444 25.7683 14.5671 25.6025 14.5625 25.4504C13.9937 25.0434 13.3866 24.6917 12.7497 24.4001C9.99353 23.0107 7.56267 21.063 5.61459 18.683L4.80579 17.6695L4.60127 18.1993ZM13.8234 19.1483C14.0646 19.3456 14.253 19.5987 14.3719 19.8854C13.7833 20.3231 13.0794 20.5823 12.3453 20.6317C12.4019 19.9107 12.654 19.2183 13.075 18.6277C13.3585 18.745 13.6124 18.9228 13.8188 19.1483H13.8234ZM20.4843 19.586C20.6235 19.9192 20.6977 20.2756 20.7028 20.6363C20.0075 20.5427 19.3306 20.3454 18.6948 20.0512C19.0483 19.4916 19.5095 19.0064 20.0521 18.6231C20.2601 18.9136 20.4071 19.238 20.4843 19.586ZM17.3979 20.8114C17.1841 21.4978 16.7286 22.3178 16.5612 22.3178C16.1226 21.7602 15.7802 21.1344 15.5479 20.4659C15.8695 20.3756 16.205 20.3444 16.538 20.3737C17.4769 20.3737 17.5281 20.3968 17.3979 20.8114ZM15.0552 26.5146C14.3228 26.7014 13.5791 26.8414 12.8287 26.9338L11.5876 27.0813L12.3685 27.9612C12.8557 28.5946 13.4839 29.1081 14.204 29.4617C14.9241 29.8154 15.7169 29.9996 16.5206 30C17.3242 30.0004 18.1172 29.8171 18.8377 29.4643C19.5583 29.1115 20.187 28.5987 20.6749 27.9658L21.4512 27.0905L19.8243 26.8601C19.086 26.7645 18.3558 26.6151 17.6396 26.4133C16.7929 26.1451 15.8779 26.181 15.0552 26.5146Z" fill="#F64A28"/>
</svg>
