<svg width="32" height="32" viewBox="0 0 32 32" fill="none" xmlns="http://www.w3.org/2000/svg">
<path d="M25.6214 24.9812C24.8683 25.6314 24.0487 26.2002 23.1762 26.6783C23.3437 26.5444 22.8189 25.9917 22.9753 25.8521C24.7432 24.51 26.0218 22.6247 26.6148 20.4857C27.2078 18.3467 27.0824 16.0722 26.2578 14.0114C26.0401 13.481 26.4979 13.2689 26.5035 12.7832C27.3612 13.5833 28.0287 14.5654 28.4572 15.6573C28.8857 16.7492 29.0642 17.9232 28.9796 19.0932C28.895 20.2631 28.5495 21.3992 27.9684 22.4181C27.3872 23.437 26.5853 24.3128 25.6214 24.9812Z" fill="#449BC1"/>
<path d="M26.5025 12.7833C24.8822 11.335 22.9305 10.3074 20.8194 9.79098C21.6233 10.0031 21.6847 10.9354 22.243 11.4099C22.7842 11.9201 23.2098 12.5404 23.491 13.2289C23.7722 13.9175 23.9025 14.6583 23.8731 15.4015C24.1012 16.6637 24.0698 17.9591 23.7809 19.2087C23.492 20.4584 22.9517 21.6361 22.1928 22.6701C21.2167 23.8974 19.9661 24.8783 18.5417 25.534L18.2235 25.6735L18.1733 25.6903C17.4213 25.9899 16.6415 26.2143 15.8453 26.3602C11.8834 26.9266 7.84312 26.5145 4.07715 25.1599C5.87482 26.5561 7.92894 27.586 10.1231 28.1913C12.3127 28.7879 14.5971 28.9547 16.8502 28.6826H16.8669C17.1907 28.6435 17.5089 28.5988 17.816 28.543C19.0475 28.3295 20.2528 27.9852 21.4112 27.5158C22.0153 27.2719 22.6044 26.9923 23.1753 26.6784C23.3428 26.5444 23.5103 26.4049 23.6666 26.2653C25.7434 24.7827 27.1875 22.5741 27.7127 20.0771C28.238 17.5801 27.806 14.9769 26.5025 12.7833Z" fill="#0670B0"/>
<path d="M18.2244 25.674C23.8349 23.3851 24.142 17.5903 17.6103 14.3245C12.8763 11.9575 14.9697 8.1892 20.8203 9.79141C27.3576 11.5109 25.4316 22.8938 18.2244 25.674Z" fill="#295B9F"/>
<path d="M26.9316 6.65911C22.4288 4.88976 17.4584 4.70276 12.8354 6.12876L12.7908 6.15109C11.7883 6.36654 10.8688 6.86502 10.1411 7.58739C9.41348 8.30976 8.90833 9.22569 8.68559 10.2265C8.46286 11.2274 8.53189 12.2711 8.88451 13.2339C9.23712 14.1966 9.85851 15.0381 10.675 15.6583C9.66944 14.9683 8.82877 14.0647 8.21302 13.0121C7.62973 11.6278 7.446 10.1077 7.68267 8.62419C7.86118 7.63715 8.2675 6.70537 8.86933 5.90293C9.47116 5.10048 10.2519 4.44952 11.1495 4.00178C12.1037 3.55839 13.1205 3.26465 14.1641 3.13089C18.7211 2.56764 23.3097 3.83667 26.9316 6.65911Z" fill="#449BC1"/>
<path d="M11.717 22.3411C11.315 22.2127 10.8573 22.1457 10.4832 21.995C8.50356 21.4178 6.74922 20.246 5.45801 18.6382C4.1668 17.0304 3.40117 15.0645 3.26489 13.0069C3.3969 11.6144 3.81393 10.264 4.49004 9.03947C5.16615 7.81497 6.0869 6.74263 7.19506 5.88911C7.94891 5.29525 8.75199 4.76671 9.59558 4.30922C10.754 3.83975 11.9592 3.49539 13.1908 3.28202C13.5109 3.22619 13.8347 3.17967 14.1622 3.14246C13.7912 3.19622 13.424 3.27266 13.0624 3.37134C11.7978 3.70567 10.6531 4.38979 9.75971 5.34518C8.8663 6.30056 8.26038 7.48849 8.01148 8.77262C7.76258 10.0567 7.8808 11.385 8.35256 12.605C8.82433 13.825 9.63052 14.8873 10.6786 15.6699C11.4943 16.405 12.4095 17.0214 13.3974 17.501C17.696 19.6503 16.3729 22.9496 11.7226 22.3467" fill="#0670B0"/>
<path d="M11.7218 22.3411C11.2052 22.2725 10.6941 22.1681 10.1921 22.0285C1.05895 19.533 -0.280882 11.7732 5.39106 6.84374C6.6437 5.7725 8.06386 4.91437 9.59477 4.30365C8.7943 4.77684 8.03765 5.32051 7.33381 5.92819C1.28784 11.1814 2.49368 19.3544 11.7218 22.3411Z" fill="#295B9F"/>
</svg>
