<svg width="32" height="32" viewBox="0 0 32 32" fill="none" xmlns="http://www.w3.org/2000/svg">
<path d="M10.272 11.4198C10.7836 10.9696 11.2652 10.4864 11.7136 9.97328C12.2553 9.52554 12.7365 9.00943 13.1454 8.43788C13.8678 7.7226 14.423 6.85636 14.7713 5.90124C15.1195 4.94613 15.2521 3.92581 15.1597 2.9134C15.1399 2.60731 14.9869 2.12842 15.2288 2.02475C15.5151 1.89145 15.757 2.33084 16.0088 2.52832C16.3396 2.79491 16.6506 3.08126 16.9765 3.35773L17.0752 3.4466C17.4455 3.93042 17.8355 4.40437 18.191 4.903C18.5354 5.3954 18.8049 5.93611 18.9908 6.50752C19.1635 6.75437 19.1339 7.0654 19.2573 7.32212C19.4268 8.11185 19.4669 8.92387 19.3758 9.72643C19.3664 10.3524 19.2768 10.9746 19.1092 11.5778C19.1067 11.6576 19.0847 11.7356 19.0451 11.8049C18.8421 12.1165 18.7307 12.479 18.7238 12.8508C18.7168 13.2227 18.8144 13.589 19.0056 13.9081C19.1317 14.1597 19.3316 14.3669 19.5786 14.5019C19.8256 14.6369 20.108 14.6932 20.3879 14.6634C20.7056 14.6547 21.0202 14.5981 21.321 14.4956C22.3726 14.229 22.7429 13.7303 22.7774 12.5405C22.9107 12.1702 23.0144 12.1456 23.2612 12.422C23.8268 13.0783 24.3277 13.7876 24.7571 14.54C24.8176 14.6492 24.887 14.7532 24.9645 14.851C25.1472 15.4138 25.4878 15.9075 25.6557 16.4802C25.7199 16.7024 25.7495 16.9344 25.7939 17.1615C26.0687 18.4288 26.0687 19.7402 25.7939 21.0074C25.5392 22.1355 25.0025 23.1806 24.2341 24.0449C23.4657 24.9092 22.4906 25.5644 21.4 25.9493C20.0515 26.361 18.8243 27.0967 17.8256 28.092C17.5869 28.3484 17.3888 28.6397 17.2381 28.956C17.2151 29.0247 17.1777 29.0878 17.1286 29.1411C17.0794 29.1944 17.0195 29.2366 16.9528 29.2651C16.8861 29.2935 16.8141 29.3075 16.7416 29.3062C16.6691 29.3048 16.5977 29.2881 16.5321 29.2571C16.1372 29.1337 15.7323 29.0695 15.3374 28.9609C15.1695 28.8177 14.9424 28.8474 14.7548 28.7733C13.8332 28.4215 12.9416 27.9955 12.0889 27.4996C11.1668 26.8468 10.3104 26.1061 9.5315 25.2878C9.33402 25.0607 9.12667 24.8435 8.92425 24.6213C8.62399 24.3591 8.39332 24.0267 8.25282 23.6536L7.66039 22.4392C7.59621 22.2812 7.61102 22.0886 7.47278 21.9603C7.42389 21.7318 7.35788 21.5074 7.2753 21.2888C6.83775 19.3795 6.92302 17.3874 7.52215 15.5224C7.55177 15.4336 7.57152 15.3398 7.59127 15.2509C8.29484 13.8521 9.20096 12.5619 10.272 11.4198Z" fill="url(#paint0_linear_22_1376)"/>
<path d="M20.5176 12.2553C20.3958 12.5219 20.2345 12.5285 20.0009 12.3705C19.6658 12.1576 19.4239 11.8257 19.3237 11.4416C19.2236 11.0575 19.2727 10.6497 19.4611 10.3003C19.6724 10.0129 19.8606 9.7091 20.0239 9.39188C20.2247 9.16148 20.1226 8.86526 20.1885 8.53613C20.6233 9.04693 20.9553 9.63705 21.166 10.2739C21.3029 10.5599 21.3333 10.8854 21.2519 11.1918C21.1705 11.4983 20.9825 11.7656 20.7217 11.9459C20.6668 11.9791 20.62 12.0241 20.5847 12.0776C20.5494 12.1311 20.5265 12.1918 20.5176 12.2553Z" fill="url(#paint1_linear_22_1376)"/>
<path d="M11.1221 17.2846V20.6269H14.7804V24.3198H18.2264V20.6269H21.8847V17.2846H11.1221Z" fill="#FEFEFE"/>
<defs>
<linearGradient id="paint0_linear_22_1376" x1="7.00377" y1="15.6459" x2="26.0013" y2="15.6459" gradientUnits="userSpaceOnUse">
<stop stop-color="#FF510F"/>
<stop offset="0.348" stop-color="#FF6C11"/>
<stop offset="1" stop-color="#FFA714"/>
</linearGradient>
<linearGradient id="paint1_linear_22_1376" x1="19.2768" y1="10.5076" x2="21.2812" y2="10.5076" gradientUnits="userSpaceOnUse">
<stop stop-color="#FF510F"/>
<stop offset="0.348" stop-color="#FF6C11"/>
<stop offset="1" stop-color="#FFA714"/>
</linearGradient>
</defs>
</svg>
