<svg width="32" height="32" viewBox="0 0 32 32" fill="none" xmlns="http://www.w3.org/2000/svg">
<path d="M15.9882 29.9999C8.35831 30.0334 1.91298 23.7737 2.00089 15.8284C2.08434 8.28643 8.2057 1.91765 16.1655 2.00081C23.7616 2.08021 30.0496 8.291 29.9997 16.1577C29.9519 23.7199 23.7182 30.0333 15.9882 29.9999ZM23.5084 11.7687C23.463 11.7289 23.4358 11.7034 23.4067 11.6802C23.2531 11.5575 23.1007 11.4334 22.9449 11.3137C20.6751 9.55969 18.0928 8.25344 15.3355 7.46447C14.1031 7.10363 12.8331 6.88653 11.5508 6.8175C11.0774 6.79405 10.6014 6.81692 10.1269 6.82923C9.65617 6.84639 9.18783 6.90451 8.72717 7.00294C7.93365 7.16386 7.17728 7.424 6.48609 7.85621C5.82965 8.2569 5.2981 8.83309 4.95133 9.51984C4.57965 10.2586 4.50182 11.051 4.58891 11.8621C4.65883 12.4504 4.80913 13.0262 5.0356 13.5736C5.42427 14.5471 5.97177 15.4277 6.60893 16.2542C7.28357 17.1207 8.04322 17.9174 8.8765 18.6324C8.9876 18.7342 9.13164 18.7927 9.28228 18.7971C9.43293 18.8015 9.58013 18.7515 9.69697 18.6563C10.951 17.6709 12.269 16.7699 13.6423 15.9593C13.7941 15.8759 13.9214 15.754 14.0115 15.6059C14.1015 15.4579 14.1512 15.2887 14.1556 15.1155C14.1865 14.6451 14.2134 14.1746 14.2525 13.7049C14.283 13.3397 14.317 12.9738 14.3722 12.6116C14.4622 12.0214 14.5594 11.4316 14.6741 10.8459C14.8408 10.0047 15.0631 9.17558 15.3394 8.36384C15.3517 8.31588 15.374 8.27109 15.405 8.23248C15.436 8.19387 15.4748 8.16233 15.519 8.13996C15.5631 8.1176 15.6115 8.10493 15.6609 8.1028C15.7103 8.10067 15.7597 8.10913 15.8056 8.12762C15.9416 8.16949 16.0769 8.21383 16.2122 8.2584C16.4677 8.34284 16.5538 8.51127 16.4678 8.76567C16.0407 10.0507 15.7387 11.374 15.566 12.7171C15.4813 13.3464 15.4218 13.98 15.3756 14.6135C15.3366 15.1501 15.3277 15.689 15.3163 16.2273C15.3099 16.5344 15.3242 16.8419 15.3308 17.1492C15.3345 17.317 15.3372 17.4849 15.3482 17.6522C15.3849 18.2078 15.4168 18.7637 15.4669 19.318C15.5054 19.7428 15.5533 20.1679 15.6246 20.588C15.7247 21.1767 15.8482 21.7614 15.9661 22.3469C16.0294 22.6617 15.9032 22.9152 15.607 23.0381C15.3937 23.1266 15.1785 23.2108 14.9642 23.2973C14.8136 23.3607 14.6511 23.3909 14.4877 23.3858C14.3244 23.3808 14.164 23.3406 14.0176 23.268C12.9266 22.7661 11.8678 22.1971 10.8471 21.5642C8.93416 20.3537 7.21198 18.9244 5.79501 17.146C5.07252 16.2392 4.45494 15.2682 4.00907 14.1944C3.89502 13.9199 3.80324 13.6361 3.70233 13.3562C3.67888 13.2915 3.64372 13.231 3.56906 13.2507C3.54536 13.2585 3.52371 13.2716 3.5057 13.2889C3.48769 13.3062 3.47378 13.3273 3.46497 13.3507C3.3103 14.0164 3.22192 14.6958 3.20113 15.379C3.18613 15.9453 3.20078 16.514 3.23758 17.0793C3.27017 17.5301 3.32842 17.9785 3.41246 18.4225C3.59233 19.3978 3.89037 20.3475 4.29998 21.2506C4.57907 21.8691 4.90693 22.4643 5.28046 23.0307C5.30744 23.0833 5.34989 23.1264 5.40209 23.1542C5.45428 23.182 5.51373 23.1931 5.57243 23.1861C5.62751 23.1774 5.6791 23.1537 5.72145 23.1174C5.7638 23.0811 5.79523 23.0337 5.81224 22.9806C5.85526 22.882 5.90437 22.7856 5.95606 22.6911C6.42198 21.8404 7.04378 21.1107 7.72302 20.427C7.80293 20.3505 7.90774 20.3054 8.0182 20.3C8.12866 20.2946 8.23735 20.3293 8.32431 20.3977C8.39581 20.4501 8.46485 20.5062 8.53295 20.563C8.58675 20.6029 8.63107 20.6542 8.66273 20.7132C8.6944 20.7722 8.71262 20.8375 8.71609 20.9043C8.71956 20.9712 8.7082 21.0381 8.68282 21.1C8.65744 21.162 8.61867 21.2176 8.56929 21.2628C8.10456 21.7267 7.68119 22.2304 7.30399 22.768C7.03323 23.1686 6.79471 23.5852 6.68676 24.0644C6.57634 24.5534 6.72344 24.8643 7.17658 25.0787C7.5164 25.2281 7.88261 25.3082 8.25375 25.3142C8.58585 25.3328 8.91886 25.3273 9.25016 25.2976C9.78078 25.245 10.3127 25.1839 10.8357 25.083C12.0791 24.8318 13.2997 24.4785 14.4851 24.0266C16.1734 23.3965 17.8164 22.651 19.4025 21.7954C21.2871 20.7944 23.0804 19.6301 24.7619 18.316C24.8048 18.2854 24.8401 18.2453 24.8649 18.1987C24.8897 18.1521 24.9033 18.1004 24.9047 18.0477C24.9289 17.618 24.9609 17.1888 24.9785 16.7587C24.9937 16.3884 24.9954 16.0174 24.9984 15.6465C24.9998 15.4821 24.9902 15.3174 24.9847 15.1527C24.9723 14.7889 24.9681 14.4244 24.9442 14.0611C24.915 13.6164 24.8789 13.1716 24.828 12.729C24.7696 12.2206 24.7041 11.7126 24.6201 11.208C24.4403 10.1084 24.1591 9.02788 23.7802 7.98019C23.481 7.1587 23.1138 6.36981 22.6095 5.65142C22.2794 5.18097 21.9017 4.75533 21.4102 4.44522C20.8518 4.09288 20.2624 3.99812 19.6348 4.24067C19.2698 4.38937 18.9372 4.60776 18.6555 4.88365C18.1629 5.34612 17.7827 5.89432 17.4512 6.47901C17.3298 6.6933 17.3898 6.86911 17.6185 6.95802C19.7322 7.77317 21.7208 8.88167 23.5259 10.2511C23.8085 10.4574 24.002 10.7636 24.0671 11.1075C24.1233 11.4021 24.175 11.6982 24.2128 11.9958C24.2737 12.4755 24.0184 12.8671 23.5808 12.9754C22.231 13.3169 20.9076 13.7553 19.6208 14.2872C18.4527 14.7624 17.3127 15.2982 16.1956 15.8836C15.976 15.9988 15.8077 15.8935 15.8129 15.6448C15.8169 15.4548 15.8344 15.2649 15.8326 15.0751C15.83 14.812 15.947 14.6496 16.1882 14.54C16.9003 14.2163 17.5995 13.8641 18.3145 13.5478C19.7477 12.9065 21.2284 12.3771 22.7433 11.9644C22.9897 11.8983 23.2374 11.8378 23.5086 11.7686L23.5084 11.7687ZM15.9779 28.8255C16.5225 28.8168 17.0663 28.7782 17.6067 28.7102C17.6497 28.7101 17.6916 28.6965 17.7265 28.6713C17.7613 28.6461 17.7874 28.6106 17.801 28.5698C17.812 28.5297 17.8098 28.4871 17.7947 28.4483C17.7796 28.4096 17.7525 28.3767 17.7173 28.3547C17.1472 27.871 16.7063 27.2819 16.327 26.6431C16.0504 26.1697 15.8075 25.6773 15.6001 25.1697C15.526 24.9918 15.3981 24.9406 15.218 25.0089C13.8466 25.5404 12.4337 25.9578 10.9938 26.2568C10.409 26.3771 9.81662 26.4567 9.22086 26.4953C9.12686 26.5009 9.04833 26.5223 9.02113 26.6204C8.99441 26.7171 9.05348 26.7749 9.12956 26.8201C9.37488 26.9655 9.61598 27.118 9.86564 27.2552C11.3364 28.0643 12.9545 28.5698 14.6241 28.7419C15.0732 28.7898 15.5265 28.7987 15.9779 28.8255ZM15.784 6.32489C16.0648 6.32313 16.2363 6.22308 16.3478 6.02252C16.618 5.52695 16.9315 5.05624 17.2845 4.61588C17.5508 4.28436 17.8526 3.98301 18.1845 3.71721C18.2526 3.67147 18.2837 3.58737 18.2621 3.50832C18.2541 3.4706 18.2346 3.43631 18.2063 3.4102C18.1779 3.38409 18.1422 3.36747 18.1039 3.36265C18.0605 3.35526 18.017 3.34681 17.973 3.34259C17.464 3.29309 16.9556 3.22964 16.4454 3.20055C16.0816 3.18227 15.7169 3.18717 15.3537 3.21521C14.8661 3.2497 14.3776 3.2945 13.8943 3.3671C12.7615 3.54254 11.6593 3.87842 10.6211 4.36464C9.91055 4.69312 9.2319 5.08661 8.59378 5.54011C8.53412 5.58233 8.48114 5.62949 8.5142 5.71241C8.54502 5.78959 8.60961 5.79592 8.68087 5.78243C9.24308 5.67598 9.81317 5.6165 10.3852 5.60462C10.8687 5.59418 11.354 5.60896 11.837 5.63805C12.2905 5.66526 12.744 5.7117 13.1941 5.77469C13.9512 5.88166 14.7006 6.03742 15.4375 6.24079C15.5681 6.27668 15.7006 6.30483 15.784 6.32489ZM19.9691 28.0793C20.1185 28.0559 20.2704 28.0431 20.4168 28.0074C20.8886 27.892 21.2766 27.6268 21.6249 27.2994C22.2335 26.7268 22.6745 26.0334 23.0474 25.2931C23.1219 25.1542 23.0181 24.9868 22.8607 24.9918L22.8518 24.9923C22.6053 24.9984 22.3589 25.0254 22.1127 25.0242C21.7204 25.0222 21.3275 25.0149 20.9361 24.9905C20.5329 24.9654 20.1282 24.9359 19.7291 24.8752C19.1365 24.7849 18.547 24.672 17.9586 24.5558C17.6584 24.4963 17.3636 24.4092 17.0666 24.3332C17.0109 24.3137 16.9505 24.3114 16.8934 24.3266C16.8363 24.3418 16.7851 24.3738 16.7464 24.4184C16.7091 24.4603 16.6862 24.5131 16.6812 24.569C16.6762 24.6249 16.6894 24.681 16.7187 24.7288C16.9389 25.1709 17.1413 25.6228 17.3831 26.0525C17.6985 26.6383 18.1297 27.1536 18.6506 27.5672C19.0382 27.8652 19.4651 28.0654 19.9691 28.0793ZM14.1161 17.0709C13.6116 17.2736 10.4749 19.4585 10.2739 19.7486C11.657 20.7417 13.1446 21.5803 14.71 22.2497C14.3405 20.5474 14.1415 18.8126 14.1161 17.0709ZM21.7875 23.8454C22.0469 23.8356 22.3068 23.8318 22.5656 23.8144C22.8238 23.797 23.0806 23.7574 23.3389 23.7434C23.6259 23.7278 23.7833 23.5796 23.8708 23.3135C24.1984 22.3024 24.4501 21.2683 24.6237 20.2197C24.6367 20.1439 24.6416 20.0798 24.5692 20.0375C24.5005 19.9976 24.4438 20.0328 24.3869 20.0734C24.1706 20.2282 23.9541 20.3832 23.735 20.5343C22.2333 21.5608 20.6666 22.4886 19.0448 23.3119C18.981 23.3445 18.9261 23.383 18.9342 23.4597C18.9427 23.5415 19.0074 23.572 19.0813 23.5849C19.9741 23.7499 20.8796 23.8371 21.7875 23.8453V23.8454ZM28.1365 19.3398C28.1187 19.1224 28.1164 18.9024 28.0794 18.6882C28.0216 18.3489 27.9498 18.0122 27.864 17.6789C27.8069 17.459 27.5502 17.4063 27.3838 17.5616C27.0176 17.9033 26.6509 18.2443 26.2835 18.5847C26.1522 18.6968 26.058 18.8461 26.0134 19.0128C25.9747 19.1783 25.9567 19.3489 25.9298 19.5172C25.8503 20.0131 25.7871 20.5125 25.6872 21.0043C25.5651 21.6048 25.4122 22.1991 25.2722 22.7961C25.2092 22.9834 25.3724 23.1688 25.5662 23.1298C25.5925 23.1245 25.6178 23.1151 25.6412 23.1019C25.6985 23.0749 25.755 23.046 25.8113 23.017C26.4221 22.701 26.9571 22.2902 27.3663 21.7326C27.8766 21.0403 28.1471 20.2001 28.1365 19.3398ZM27.6541 11.4569C27.825 11.468 27.9159 11.3466 27.8633 11.1818C27.8537 11.1518 27.8404 11.1228 27.8284 11.0936C27.2962 9.80493 26.5524 8.6144 25.6276 7.57132C25.3674 7.27739 25.0859 7.00223 24.8087 6.72391C24.7888 6.70901 24.7658 6.69894 24.7414 6.6945C24.7169 6.69006 24.6918 6.69138 24.668 6.69834C24.6537 6.70362 24.6407 6.71191 24.6298 6.72266C24.619 6.73341 24.6106 6.74635 24.6052 6.76063C24.5998 6.7749 24.5975 6.79017 24.5985 6.80541C24.5995 6.82064 24.6037 6.83548 24.6109 6.84894C24.6303 6.89562 24.6453 6.94418 24.6644 6.99109C25.1597 8.228 25.5251 9.51308 25.7549 10.8256C25.7758 10.9842 25.855 11.1294 25.977 11.2328C26.0991 11.3362 26.2552 11.3903 26.415 11.3847C26.6333 11.3866 26.8516 11.3912 27.0695 11.4037C27.2648 11.415 27.4593 11.4387 27.6541 11.457V11.4569ZM26.7157 12.5604C26.6744 12.5604 26.6332 12.5623 26.5921 12.5601C26.5463 12.5534 26.4994 12.5618 26.4588 12.5841C26.4181 12.6063 26.3858 12.6413 26.3667 12.6836C26.3195 12.7813 26.3685 12.8525 26.4279 12.9234C26.5767 13.1005 26.7327 13.2725 26.8696 13.4583C27.1664 13.8608 27.4549 14.2696 27.743 14.6784C27.8608 14.8458 28.0778 14.8457 28.1785 14.6691C28.3324 14.4066 28.4453 14.1221 28.5134 13.8255C28.6236 13.3205 28.4642 12.9987 28.003 12.7967C27.9943 12.7929 27.9854 12.7895 27.9768 12.7859C27.5731 12.6173 27.1466 12.5765 26.7156 12.5604H26.7157ZM26.1728 16.7448H26.1578C26.1578 16.7543 26.158 16.7638 26.1578 16.7733C26.1565 16.837 26.1479 16.9063 26.2222 16.9371C26.2949 16.9671 26.3469 16.9285 26.3966 16.8765C26.5937 16.6702 26.7952 16.4681 26.9909 16.2608C27.1371 16.106 27.1562 15.995 27.0465 15.816C26.848 15.4922 26.6376 15.1754 26.4325 14.8554C26.3912 14.791 26.3383 14.7486 26.2587 14.7759C26.183 14.8019 26.1719 14.8662 26.1722 14.9381C26.1733 15.5404 26.1735 16.1427 26.1728 16.7448ZM24.4535 25.5866C24.4811 25.5749 24.507 25.56 24.5309 25.5423C24.601 25.4828 24.6689 25.4207 24.7346 25.3563C24.9338 25.161 25.1339 24.9665 25.3274 24.7657C25.3579 24.7254 25.3699 24.6742 25.3607 24.6246C25.3475 24.5607 25.2856 24.5459 25.2231 24.5525C25.2105 24.5531 25.1979 24.5547 25.1855 24.5574C25.0215 24.6049 24.8571 24.6504 24.6946 24.7026C24.6555 24.7147 24.6223 24.7408 24.6013 24.7759C24.5022 24.9883 24.4077 25.2027 24.3179 25.4192C24.2826 25.5047 24.3422 25.5838 24.4535 25.5866ZM28.8104 16.2069L28.8045 16.2062C28.8066 16.1683 28.8061 16.1302 28.803 16.0923C28.7999 16.0705 28.7863 16.0389 28.7702 16.0336C28.7583 16.0326 28.7464 16.0341 28.7352 16.0381C28.724 16.0421 28.7138 16.0484 28.7052 16.0567C28.6798 16.0771 28.6588 16.1026 28.6436 16.1315C28.6284 16.1604 28.6193 16.1921 28.6169 16.2246C28.6145 16.2572 28.6187 16.2899 28.6295 16.3208C28.6402 16.3516 28.6572 16.3799 28.6793 16.4039C28.7164 16.4489 28.7717 16.4414 28.786 16.3843C28.7977 16.3256 28.8058 16.2665 28.8104 16.2069Z" fill="#7B2BF9"/>
</svg>
