<svg width="32" height="32" viewBox="0 0 32 32" fill="none" xmlns="http://www.w3.org/2000/svg">
<path fill-rule="evenodd" clip-rule="evenodd" d="M7.98923 4H25.1436C25.7505 4 26.3569 4.08901 26.9906 4.38446C27.7504 4.73858 28.1533 5.29676 28.4355 5.70966C28.4575 5.74168 28.478 5.77477 28.497 5.8087C28.8288 6.39938 29 7.03724 29 7.72326C29 8.37522 28.8447 9.08548 28.497 9.70447L28.487 9.72216L17.6492 28.3391C17.5318 28.5409 17.3633 28.7082 17.1607 28.8242C16.9582 28.9402 16.7287 29.0008 16.4952 29C16.2618 28.9992 16.0327 28.9369 15.831 28.8195C15.6292 28.7021 15.462 28.5336 15.346 28.331L4.70732 9.7537C4.70423 9.74865 4.70116 9.7436 4.69812 9.73852C4.45464 9.33733 4.07806 8.71691 4.01223 7.9162C3.95161 7.17971 4.1173 6.44227 4.48713 5.80249C4.857 5.16246 5.41439 4.65136 6.084 4.33823C6.80239 4.00251 7.53022 4.00012 7.98935 4.00012L7.98923 4ZM15.17 6.65947H7.98923C7.51743 6.65947 7.33631 6.6885 7.20979 6.74776C7.03336 6.83035 6.88656 6.96514 6.78925 7.1339C6.69066 7.30478 6.64652 7.50167 6.66273 7.69829C6.67204 7.81131 6.71816 7.9407 6.99008 8.38908L7.00681 8.41751L15.17 22.6721V6.65947ZM17.8296 6.65947V22.7427L26.182 8.39481C26.2764 8.22361 26.3402 7.97606 26.3402 7.72338C26.3402 7.51824 26.2978 7.34022 26.2028 7.15671C26.1029 7.01335 26.0422 6.93736 25.9913 6.88539C25.9478 6.84095 25.9143 6.81717 25.867 6.79507C25.6695 6.70308 25.4673 6.65947 25.1434 6.65947H17.8296Z" fill="#0088CC"/>
</svg>
