<svg width="32" height="32" viewBox="0 0 32 32" fill="none" xmlns="http://www.w3.org/2000/svg">
<path d="M5.45274 17.2307C5.57188 16.447 5.57188 15.9932 6.01866 15.6574C6.35821 15.3215 6.81095 15.4334 7.6092 15.5454C8.21739 15.5782 8.82251 15.6531 9.42016 15.7693C10.0387 15.8521 10.646 16.0022 11.2311 16.2172C11.917 16.3711 12.5214 16.7697 12.9289 17.3368C13.4948 18.0144 13.4948 18.6862 13.4948 19.9177V28.3206C13.4948 29.1043 13.4948 29.5522 13.2684 29.7761C12.7483 29.888 12.2147 29.9257 11.6838 29.888H8.4015C7.03732 29.888 6.4714 29.888 5.90548 29.4402C5.45274 28.9924 5.33955 28.4326 5.22637 27.201C5.11319 25.9694 5 24.514 5 22.7226C5.05606 20.8855 5.20717 19.0525 5.45274 17.2307ZM27.6548 17.2307C27.5356 16.447 27.5356 15.9932 27.0889 15.6574C26.7493 15.3215 26.2966 15.4334 25.5043 15.5454C24.8941 15.578 24.287 15.6528 23.6874 15.7693C23.0689 15.8521 22.4615 16.0022 21.8764 16.2172C21.1906 16.3711 20.5861 16.7697 20.1786 17.3368C19.6127 18.0144 19.6127 18.6862 19.6127 19.9177V28.3206C19.6127 29.1043 19.6127 29.5522 19.8391 29.7761C20.0655 30 20.5182 30 21.3105 30H24.5928C25.957 30 26.5229 30 27.0889 29.5522C27.6548 29.1043 27.6548 28.5445 27.768 27.313C27.8812 26.0814 27.9943 24.6259 27.9943 22.8346C28.0276 20.9607 27.9141 19.0872 27.6548 17.2307ZM5.45274 6.58271C5.45274 5.12724 5.45274 4.46137 5.90548 4.00764C6.35821 3.55391 7.03732 3.44784 8.51468 3.33588C10.552 3.22392 13.4948 3 16.6699 3C19.8451 3 22.7819 3.22392 24.9324 3.33588C26.2966 3.44784 27.0889 3.44784 27.5416 4.00764C27.9943 4.45548 27.9943 5.24509 27.9943 6.58271V7.25447C27.9943 8.71584 27.9943 9.3876 27.5416 9.83544C27.0889 10.2833 26.4098 10.3952 25.0456 10.5072C22.2613 10.7599 19.4658 10.872 16.6699 10.8431C13.9098 10.87 11.1501 10.7579 8.4015 10.5072C7.03732 10.3893 6.35821 10.3893 5.90548 9.9474C5.45274 9.3876 5.45274 8.70995 5.45274 7.26037V6.58271Z" fill="#178DD0"/>
</svg>
