<svg width="32" height="32" viewBox="0 0 32 32" fill="none" xmlns="http://www.w3.org/2000/svg">
<path fill-rule="evenodd" clip-rule="evenodd" d="M27.5663 9.79685C26.4812 9.05983 25.3271 8.27337 24.196 7.4914C24.0619 7.38856 23.9132 7.3053 23.7546 7.24422L23.7409 7.23973C20.7156 6.52785 17.6917 5.81029 14.6693 5.08707L6.57706 3.16811C6.50774 3.14352 6.43714 3.12252 6.36556 3.10519C6.09925 3.01841 5.81781 2.98479 5.53795 3.00632C5.457 3.0197 5.37915 3.04709 5.30806 3.08721L5.23449 3.15013C5.14062 3.24761 5.06721 3.36211 5.01839 3.48718L5 3.53213V3.75683L5.01379 3.80177C6.7196 8.4756 8.47598 13.2034 10.1588 17.7963L14.1221 28.5686C14.1669 28.6904 14.2484 28.796 14.356 28.8715C14.4636 28.9469 14.5921 28.9886 14.7245 28.991L14.7888 29H14.8072C14.928 28.9983 15.0463 28.9665 15.1509 28.9075C15.2556 28.8485 15.343 28.7643 15.4049 28.6629L20.3614 21.6073L23.9753 16.4571L25.4559 14.3448C26.2697 13.1854 27.1111 11.9855 27.9387 10.8215L27.9847 10.7586V10.6867C28.0155 10.5217 27.9996 10.3517 27.9389 10.1949C27.8781 10.0381 27.7747 9.90046 27.6398 9.79685H27.5663ZM21.8419 12.372C20.6833 12.9652 19.497 13.5764 18.3016 14.1786L20.3844 11.99L23.0512 9.20364L23.065 9.18566C23.1503 9.08394 23.2425 8.98786 23.3408 8.89804L23.5523 8.68233C24.0121 8.99691 24.4811 9.31149 24.9317 9.62608L25.9248 10.3047C24.5455 10.9878 23.1753 11.6844 21.8419 12.372ZM16.1222 14.9515L10.7611 8.6284L8.35643 5.80612C8.16792 5.5949 7.9932 5.37919 7.81848 5.16797C7.70507 5.03015 7.58706 4.89233 7.46445 4.75451C8.19091 4.93427 8.92197 5.10505 9.64383 5.27133C10.2737 5.41963 10.9266 5.56794 11.5749 5.72523L22.4535 8.31381C21.1661 9.57215 19.9568 10.844 18.7844 12.0753C17.6196 13.3577 16.7353 14.3164 16.1222 14.9515ZM15.8463 22.0297C15.9015 21.5129 15.9567 20.9781 16.0165 20.4748C16.1038 19.6658 16.1958 18.8164 16.2693 17.994L16.2923 17.8502C16.3593 17.3123 16.4129 16.7728 16.4533 16.2324C16.5492 16.1924 16.6428 16.1474 16.7337 16.0975C18.1729 15.3605 19.6258 14.628 21.0695 13.8865C22.5132 13.1449 23.9937 12.3989 25.4651 11.6484C24.3432 13.437 23.0052 15.347 21.704 17.2121C20.5913 18.803 19.4419 20.4478 18.2924 22.0657C17.8418 22.7128 17.3728 23.3734 16.9268 24.0026C16.4211 24.7127 15.9153 25.4407 15.4141 26.1687C15.4739 25.4362 15.5521 24.6947 15.6302 23.9756C15.7084 23.342 15.782 22.6813 15.8417 22.0297H15.8463ZM6.67822 5.53648L11.7175 11.4686L14.2877 14.4887C14.4578 14.6774 14.6325 14.8796 14.7842 15.0729C15.0003 15.3291 15.2164 15.5897 15.4417 15.8369C15.3682 16.466 15.3038 17.1087 15.2394 17.7154L15.1015 19.0052C15.0785 19.2793 15.0417 19.558 15.0095 19.8276L14.8716 21.041C14.7566 22.3218 14.6141 23.5622 14.4854 24.7711L14.3244 26.2991C14.1946 25.962 14.069 25.6234 13.9474 25.2834L13.2807 23.4678L6.9265 6.19261C6.83566 5.97538 6.75285 5.75953 6.67822 5.53648Z" fill="#C32E26"/>
</svg>
