<svg width="32" height="32" viewBox="0 0 32 32" fill="none" xmlns="http://www.w3.org/2000/svg">
<path d="M14.7646 3.02109C14.4646 3.10141 14.1586 3.15764 13.8496 3.18923C13.4505 3.22868 13.054 3.29116 12.6621 3.37635C11.3895 3.85368 10.1596 4.43792 8.98559 5.12282C8.86765 5.22451 8.2915 5.68147 7.71401 6.15605C7.16218 6.60028 6.65173 7.0936 6.18892 7.62997C5.56262 8.47744 5.40944 8.66456 5.1722 8.93575C4.46526 10.1124 3.87501 11.3554 3.40989 12.647C2.85217 15.246 2.86373 17.935 3.44378 20.5291C3.92214 21.725 4.48291 22.8862 5.12204 24.0044C5.20745 24.1224 5.63041 24.6472 6.05472 25.1733C6.5571 25.7916 7.11875 26.3593 7.73163 26.8682C8.23999 27.275 8.83376 27.732 9.05337 27.9014C9.78025 28.3931 10.5659 28.7917 11.3918 29.0879C11.5728 29.1692 11.7595 29.2371 11.9503 29.2913C12.0865 29.3559 12.2286 29.4072 12.3747 29.4445C12.478 29.4717 12.5754 29.5177 12.6621 29.5801C14.7513 30.0164 16.8971 30.1135 19.0172 29.8676C20.7941 29.4762 22.4907 28.7827 24.0331 27.8174C24.151 27.6981 24.7109 27.2574 25.2694 26.8343C25.619 26.5975 25.9429 26.3248 26.236 26.0207C26.3588 25.7877 26.5254 25.5805 26.7267 25.4106C27.5672 24.464 28.2588 23.395 28.7778 22.2404C28.8884 21.9522 29.0245 21.6745 29.1845 21.4105C29.3732 21.0353 29.51 20.6362 29.5911 20.2241C30.0211 18.2364 30.1128 16.1905 29.8623 14.1724C29.5115 12.378 28.8401 10.6614 27.8803 9.10525C27.7087 8.93159 27.5757 8.72367 27.4899 8.49507C26.5786 7.39406 25.563 6.3837 24.4574 5.47808C24.2964 5.43087 24.1503 5.34309 24.0331 5.22316C23.2906 4.70552 22.4886 4.27896 21.6444 3.95263C21.3669 3.86266 21.0952 3.75533 20.8311 3.63127C20.3601 3.42218 19.8645 3.27365 19.3561 3.18923C17.8319 3.01974 16.2972 2.96399 14.7646 3.02245V3.02109ZM14.1709 10.5968C14.0132 11.5818 13.5506 12.4926 12.8483 13.2009C12.146 13.9093 11.2393 14.3795 10.2558 14.5453L9.52784 14.6646V9.88492H14.2725L14.1709 10.5968ZM23.423 12.2578V14.6307H18.8478V23.7834H14.0692L14.137 18.563C14.1871 13.5121 14.2048 13.3426 14.5776 12.5629C15.1645 11.4932 16.088 10.6472 17.2048 10.1561C18.3462 9.91859 19.514 9.83287 20.6779 9.90119L23.423 9.88492V12.2578Z" fill="#156BEC"/>
</svg>
