<svg width="32" height="32" viewBox="0 0 32 32" fill="none" xmlns="http://www.w3.org/2000/svg">
<path d="M26.7096 6.49692C26.6118 6.39588 26.4924 6.31827 26.3605 6.26984L26.1746 6.21081L24.9957 5.82024L19.0061 3.94008L16.5169 3.16803L16.1043 3.04087L15.9773 3L15.8322 3.04541L15.5421 3.14533L13.0165 3.94008L10.3595 4.78025L7.00428 5.84295L5.8254 6.21081L5.62137 6.26984C5.49489 6.31869 5.38155 6.39645 5.29038 6.49692C5.19582 6.59423 5.12149 6.70936 5.07168 6.83565C5.02187 6.96194 4.99757 7.09687 5.00019 7.23263V7.25534L5.14528 12.2827C5.24504 14.449 5.39013 16.2292 5.5987 17.6961C5.59379 19.5742 6.15222 21.4104 7.20159 22.9667C8.25097 24.5231 9.7429 25.7278 11.484 26.4248C11.9828 26.6927 12.5223 26.9743 13.1027 27.324C13.8891 27.7702 14.649 28.2615 15.3788 28.7954C15.5567 28.9322 15.7758 29.0042 16 28.9998C16.2182 29.0016 16.4307 28.9296 16.603 28.7954C17.8516 27.9096 19.159 27.11 20.516 26.4021C22.2596 25.7035 23.7532 24.4958 24.8027 22.936C25.8523 21.3761 26.4092 19.5362 26.4013 17.6553C26.5645 16.4064 26.7142 14.9349 26.8139 13.1592L26.9998 7.29167V7.23263C27.0024 7.09687 26.9781 6.96194 26.9283 6.83565C26.8785 6.70936 26.8042 6.59423 26.7096 6.49692ZM24.8869 8.96747L24.8053 11.7287C24.4108 21.9696 23.0415 22.7054 19.5004 24.6264C18.2935 25.2598 17.1247 25.9634 16 26.7336V5.14356L24.9322 7.94564L24.8869 8.96747Z" fill="#0055D5"/>
</svg>
