<svg width="32" height="32" viewBox="0 0 32 32" fill="none" xmlns="http://www.w3.org/2000/svg">
<path d="M18.6138 18.6638H17.8258C17.7541 18.6638 17.6853 18.6353 17.6346 18.5846C17.5839 18.5338 17.5554 18.4651 17.5554 18.3934V16.3173L16.1743 17.1809C16.1176 17.2162 16.0521 17.2349 15.9853 17.2349C15.9185 17.2349 15.853 17.2162 15.7963 17.1809L14.421 16.3173V18.3934C14.421 18.4651 14.3925 18.5338 14.3418 18.5846C14.2911 18.6353 14.2223 18.6638 14.1506 18.6638H13.3685C13.2968 18.6638 13.228 18.6353 13.1773 18.5846C13.1266 18.5338 13.0981 18.4651 13.0981 18.3934V14.3838C13.0981 14.289 13.1358 14.198 13.2028 14.1309C13.2699 14.0638 13.3609 14.0262 13.4557 14.0262C13.5272 14.0257 13.5969 14.0493 13.6534 14.093L15.8341 15.5904C15.8773 15.6217 15.9292 15.6385 15.9824 15.6385C16.0357 15.6385 16.0875 15.6217 16.1307 15.5904L18.3114 14.093C18.39 14.0414 18.4857 14.0225 18.578 14.0404C18.6704 14.0584 18.7521 14.1117 18.8057 14.189C18.8446 14.2469 18.8677 14.3141 18.8725 14.3838V18.3963C18.8741 18.431 18.8687 18.4656 18.8565 18.4982C18.8444 18.5307 18.8259 18.5605 18.802 18.5858C18.7781 18.611 18.7494 18.6312 18.7176 18.6451C18.6857 18.659 18.6514 18.6663 18.6167 18.6667L18.6138 18.6638ZM11.9205 18.6579H7.02415C6.97694 18.6579 6.93019 18.6486 6.88661 18.6304C6.84303 18.6123 6.80348 18.5857 6.77023 18.5522C6.73698 18.5187 6.7107 18.4789 6.6929 18.4352C6.6751 18.3914 6.66613 18.3446 6.66652 18.2974V14.2704C6.66804 14.1982 6.69781 14.1294 6.74945 14.0788C6.80108 14.0283 6.87047 14 6.94274 14H7.7336C7.80531 14 7.87409 14.0285 7.9248 14.0792C7.97551 14.1299 8.004 14.1987 8.004 14.2704V17.3321H10.9697V14.2704C10.9697 14.1987 10.9982 14.1299 11.0489 14.0792C11.0996 14.0285 11.1684 14 11.2401 14H12.0077C12.0795 14 12.1482 14.0285 12.1989 14.0792C12.2497 14.1299 12.2781 14.1987 12.2781 14.2704V18.2974C12.2785 18.3446 12.2696 18.3914 12.2518 18.4352C12.234 18.4789 12.2077 18.5187 12.1744 18.5522C12.1412 18.5857 12.1016 18.6123 12.058 18.6304C12.0145 18.6486 11.9677 18.6579 11.9205 18.6579ZM20.0617 14H24.9581C25.0051 14 25.0516 14.0093 25.095 14.0272C25.1384 14.0452 25.1778 14.0715 25.211 14.1047C25.2442 14.138 25.2705 14.1774 25.2885 14.2208C25.3065 14.2642 25.3157 14.3107 25.3157 14.3576V18.3846C25.3165 18.4551 25.2895 18.523 25.2405 18.5736C25.1915 18.6243 25.1245 18.6535 25.0541 18.655H24.2661C24.2303 18.6554 24.1949 18.6487 24.1617 18.6353C24.1286 18.6219 24.0984 18.602 24.073 18.5769C24.0476 18.5517 24.0274 18.5218 24.0136 18.4888C23.9999 18.4558 23.9928 18.4204 23.9928 18.3846V15.4974C23.992 15.4514 23.9734 15.4074 23.9409 15.3749C23.9083 15.3423 23.8644 15.3237 23.8183 15.3229H21.2102C21.1642 15.3237 21.1203 15.3423 21.0877 15.3749C21.0551 15.4074 21.0365 15.4514 21.0358 15.4974V18.3846C21.0358 18.4563 21.0073 18.5251 20.9566 18.5758C20.9059 18.6265 20.8371 18.655 20.7654 18.655H19.9745C19.9028 18.655 19.834 18.6265 19.7833 18.5758C19.7326 18.5251 19.7041 18.4563 19.7041 18.3846V14.3576C19.7041 14.2628 19.7418 14.1718 19.8089 14.1047C19.8759 14.0377 19.9669 14 20.0617 14Z" fill="#FF4A4A"/>
<path d="M22.1137 16.1718H22.8987C22.9699 16.1725 23.038 16.2014 23.088 16.252C23.1381 16.3026 23.1662 16.371 23.1662 16.4422V17.2389C23.1662 17.3106 23.1377 17.3793 23.087 17.4301C23.0363 17.4808 22.9675 17.5093 22.8958 17.5093H22.1137C22.042 17.5093 21.9732 17.4808 21.9225 17.4301C21.8718 17.3793 21.8433 17.3106 21.8433 17.2389V16.4335C21.8448 16.363 21.874 16.296 21.9247 16.247C21.9753 16.198 22.0432 16.171 22.1137 16.1718Z" fill="#FF4A4A"/>
</svg>
