<svg width="32" height="32" viewBox="0 0 32 32" fill="none" xmlns="http://www.w3.org/2000/svg">
<path fill-rule="evenodd" clip-rule="evenodd" d="M17.3547 8.85153L23.2111 14.7973L23.1485 23.1437L17.2027 29L8.85634 28.9374L3 22.9917L3.06259 14.6453L9.00833 8.78894L17.3547 8.85153ZM10.0678 11.4131L5.66888 15.7495L5.62418 21.9277L9.96055 26.3311L16.1388 26.3758L20.5422 22.0395L20.5869 15.8612L16.2505 11.4578L10.0678 11.4131Z" fill="#4A4A4A"/>
<path fill-rule="evenodd" clip-rule="evenodd" d="M23.1438 3.06259L29.0001 9.00833L28.9375 17.3547L22.9918 23.2111L14.6454 23.1485L8.78906 17.2027L8.85165 8.85634L14.7974 3L23.1438 3.06259ZM15.8614 5.6197L11.4579 9.95608L11.4132 16.1388L15.7496 20.5422L21.9323 20.5869L26.3357 16.2505L26.3804 10.0678L22.0441 5.66441L15.8614 5.6197Z" fill="white"/>
</svg>
