<svg width="32" height="32" viewBox="0 0 32 32" fill="none" xmlns="http://www.w3.org/2000/svg">
<path d="M12.7508 9.27328C12.5184 9.24229 12.506 9.2299 12.6176 9.22061C12.9637 9.20009 13.311 9.22824 13.6492 9.30426C14.5411 9.55122 15.3337 10.0699 15.9171 10.7883L16.1123 11.0113L16.4004 10.968C17.5898 10.7708 18.8109 10.9214 19.9168 11.4017C20.1954 11.5248 20.4611 11.6753 20.7099 11.8509C20.7509 11.9466 20.777 12.0479 20.7874 12.1515C20.8798 12.5446 20.8361 12.9575 20.6634 13.3226C20.6254 13.37 20.6021 13.4277 20.5966 13.4883C20.5911 13.5489 20.6036 13.6098 20.6325 13.6633C20.6597 13.719 20.702 13.766 20.7546 13.7988C20.8072 13.8317 20.8679 13.8492 20.9299 13.8492C21.1932 13.8492 21.469 13.4403 21.5991 12.8702L21.6549 12.6441L21.754 12.7525C22.2965 13.3262 22.6659 14.0414 22.8198 14.8159L22.8414 14.977L22.7423 14.8375C22.6072 14.6198 22.4277 14.433 22.2156 14.2892C21.6584 13.9972 21.0305 13.8674 20.4032 13.9143C19.7215 13.9049 19.0442 13.8038 18.3894 13.6138C17.4909 13.3226 17.0262 12.9477 15.9605 11.5628C15.6393 11.1254 15.2829 10.7151 14.8947 10.3359C14.3148 9.75778 13.5621 9.38467 12.7508 9.27328Z" fill="#FF007A"/>
<path d="M23.4114 7.95447C23.411 7.47745 23.5108 7.00567 23.7041 6.5696C23.7404 6.47158 23.7905 6.37925 23.8528 6.29541C23.8714 6.29541 23.8389 6.40694 23.7878 6.53706C23.6533 6.99758 23.631 7.48357 23.7227 7.95447C23.8389 8.67943 23.8854 8.77702 24.68 9.56705C25.0425 9.93883 25.4701 10.4035 25.6374 10.5987L25.9162 10.9519L25.6374 10.6917C25.2262 10.318 24.7848 9.97918 24.3176 9.67858C24.2014 9.61352 24.1828 9.61352 24.0991 9.69253C24.0341 9.75759 24.0201 9.85518 24.0201 10.3245C24.0388 10.8931 23.9141 11.4572 23.6577 11.965C23.5229 12.2067 23.5089 12.1602 23.6251 11.886C23.7294 11.5639 23.7611 11.2227 23.7181 10.8869C23.7181 9.4834 23.5554 9.1488 22.5516 8.58184C22.2504 8.41325 21.9418 8.25819 21.6268 8.11712C21.4736 8.05751 21.3245 7.98764 21.1807 7.90799C21.6541 7.99648 22.1178 8.13031 22.5656 8.30765C23.1418 8.53537 23.2441 8.54931 23.3091 8.53537C23.3556 8.4889 23.3974 8.35877 23.4114 7.95447ZM11.798 10.3571C11.0767 9.34857 10.7106 8.12924 10.757 6.89025L10.7895 6.55101L10.9568 6.58354C11.3251 6.66083 11.6804 6.79074 12.0117 6.96926C12.6716 7.35962 12.9691 7.88941 13.2479 9.20921C13.3315 9.59493 13.4477 10.0457 13.4988 10.1944C13.6732 10.6059 13.8947 10.9957 14.1587 11.3562C14.34 11.6118 14.2238 11.7419 13.8102 11.7094C12.9954 11.5227 12.2786 11.041 11.798 10.3571ZM22.1659 16.826C19.1963 15.6828 18.1461 14.6976 18.1461 13.0199C18.1461 12.7783 18.1646 12.5784 18.1646 12.5784L18.4156 12.7643C19.3645 13.3472 20.4529 13.6634 21.5664 13.6798C22.3433 13.7653 23.1114 13.9177 23.8621 14.1353C24.6615 14.3229 25.3895 14.7378 25.9584 15.3298C26.5274 15.9218 26.913 16.6658 27.0687 17.472C27.1352 18.0694 27.1038 18.6738 26.9758 19.2611C26.8744 19.6269 26.7143 19.9738 26.5018 20.2882C26.4832 20.2882 26.4553 20.2185 26.4553 20.1023C26.4292 19.787 26.3381 19.4806 26.1877 19.2022C26.0374 18.9239 25.831 18.6797 25.5816 18.4851C24.5367 17.757 23.3841 17.1972 22.1659 16.826ZM19.7029 17.5138C19.668 17.2845 19.612 17.0589 19.5356 16.8399L19.4519 16.5983L19.6006 16.7749C19.8355 17.0494 20.0154 17.3665 20.1304 17.709C20.2391 17.9963 20.2788 18.3051 20.2466 18.6105C20.2724 18.9052 20.2327 19.202 20.1304 19.4796C19.9832 19.8876 19.7466 20.2576 19.438 20.5624C18.7602 21.1893 17.8871 21.5635 16.9657 21.6219C16.7658 21.6405 16.2035 21.687 15.7109 21.7195C14.7584 21.7337 13.813 21.8856 12.904 22.1703C12.8064 22.2028 12.7088 22.2354 12.6902 22.2168C12.9628 22.0063 13.2631 21.8343 13.5825 21.7056C14.3721 21.3741 15.2043 21.1551 16.0548 21.055C16.5501 20.9909 17.0406 20.8947 17.5233 20.7668C18.2412 20.6198 18.8723 20.196 19.2802 19.5873C19.6881 18.9785 19.8399 18.2336 19.7029 17.5138ZM21.1807 20.1162C20.8047 19.4258 20.7082 18.6173 20.9111 17.8577C20.9437 17.788 20.9716 17.7183 21.0041 17.7183C21.0774 17.7388 21.1465 17.7718 21.2086 17.8159C21.3898 17.9274 21.7662 18.1226 22.7143 18.6105C23.6014 18.9996 24.4059 19.5549 25.0844 20.2464C25.5021 20.7226 25.776 21.3075 25.8744 21.9333C25.939 22.4867 25.9139 23.0469 25.8 23.5924C25.6522 24.1677 25.3829 24.7047 25.0101 25.1672C24.6374 25.6298 24.1699 26.0071 23.6391 26.2738C23.5392 26.3286 23.4351 26.3752 23.3277 26.4132C23.3561 26.3045 23.4016 26.2009 23.4625 26.1065C23.6388 25.7763 23.7421 25.412 23.7654 25.0384C23.7886 24.6647 23.7313 24.2904 23.5972 23.9409C23.2909 23.2212 22.8892 22.5459 22.4029 21.9333C21.946 21.364 21.5372 20.7532 21.1807 20.1162ZM10.046 25.0469C11.0767 24.2418 12.2896 23.7024 13.5778 23.4762C14.1861 23.3987 14.803 23.4207 15.4042 23.5412C16.1007 23.6852 16.729 24.0582 17.1887 24.6008C17.5561 25.1295 17.7802 25.7443 17.8393 26.3853C17.8951 26.7385 17.9648 27.1056 17.9788 27.1847C18.0556 27.5935 18.2766 27.9612 18.6015 28.221C18.9034 28.3715 19.2345 28.4541 19.5717 28.4629C19.9089 28.4718 20.244 28.4066 20.5533 28.2721C20.6324 28.2404 20.7152 28.2186 20.7996 28.207C20.6179 28.3674 20.4105 28.4962 20.1862 28.5881C19.8691 28.746 19.5178 28.8227 19.1638 28.8112C18.8162 28.8047 18.4758 28.7112 18.1738 28.539C17.8717 28.3669 17.6177 28.1217 17.435 27.826C17.2606 27.5487 17.1054 27.2599 16.9703 26.9616C16.7434 26.2461 16.271 25.6338 15.6366 25.2328C15.3906 25.0829 15.1132 24.9918 14.8262 24.9669C14.5392 24.9419 14.2504 24.9836 13.9822 25.0888C13.8363 25.1432 13.7059 25.2326 13.6026 25.349C13.4992 25.4655 13.426 25.6056 13.3893 25.7569C13.3526 25.9082 13.3536 26.0663 13.3921 26.2171C13.4307 26.368 13.5056 26.5071 13.6104 26.6223C13.8345 26.8335 14.1187 26.9699 14.4236 27.0127C14.5414 27.0319 14.6619 27.0258 14.7771 26.9949C14.8923 26.9639 14.9997 26.9088 15.092 26.8333C15.1843 26.7577 15.2594 26.6633 15.3124 26.5564C15.3655 26.4495 15.3952 26.3326 15.3996 26.2134C15.4068 26.0695 15.3646 25.9275 15.2801 25.8109C15.1956 25.6943 15.0738 25.61 14.9348 25.5721C14.4794 25.3862 13.9868 25.5999 14.0007 26.0043C14.0001 26.0847 14.0263 26.163 14.0751 26.227C14.1239 26.2909 14.1925 26.3368 14.2703 26.3574C14.3818 26.4132 14.3818 26.4132 14.2982 26.3993C14.2061 26.3824 14.1211 26.3387 14.0539 26.2737C13.9866 26.2086 13.9401 26.1251 13.9202 26.0337C13.9004 25.9422 13.908 25.847 13.9422 25.7599C13.9763 25.6728 14.0355 25.5977 14.1123 25.5442C14.2305 25.4614 14.3643 25.4034 14.5056 25.3737C14.6469 25.3441 14.7927 25.3433 14.9343 25.3715C15.0759 25.3998 15.2103 25.4564 15.3294 25.538C15.4485 25.6196 15.5498 25.7244 15.6273 25.8463C15.7431 26.1307 15.753 26.4474 15.6551 26.7385C15.5142 27.0287 15.2745 27.2593 14.979 27.3887C14.6834 27.5182 14.3514 27.5381 14.0426 27.4449C13.5587 27.3263 13.1255 27.056 12.8064 26.6735C12.4572 26.2735 12.0294 25.9495 11.5498 25.7217C11.0701 25.4938 10.5488 25.367 10.0181 25.349L9.74854 25.3118L10.046 25.0469Z" fill="#FF007A"/>
<path fill-rule="evenodd" clip-rule="evenodd" d="M11.8576 11.8075C11.7181 11.6681 11.2069 11.0639 10.4634 10.2739L9.90572 9.62329C7.95389 7.53204 5.07262 4.32546 3.16726 2.18774C3.13501 2.20595 3.10894 2.23337 3.09238 2.26649C3.07582 2.2996 3.06953 2.33691 3.07431 2.37363C3.44609 2.79188 3.77139 3.21013 4.14317 3.67485C7.30328 7.57852 10.7422 11.761 10.9746 12.0863C11.2069 12.4116 11.114 12.6905 10.6957 12.9228C10.4388 13.0642 10.1524 13.1438 9.85925 13.1552C9.71873 13.1611 9.57873 13.1348 9.44988 13.0784C9.32103 13.0221 9.20674 12.9371 9.11569 12.8299C8.97628 12.6905 8.37214 11.8075 7.02445 9.71624C6.14148 8.32207 5.39792 7.16027 5.11909 6.83496C5.2585 7.11379 5.67675 7.85735 6.88503 10.0415C7.47718 10.9968 8.00503 11.9904 8.46508 13.0158C8.46508 13.2481 8.41861 13.3411 8.13978 13.6199C7.70343 14.2315 7.4606 14.96 7.4427 15.7111C7.21589 17.037 6.60139 18.266 5.67675 19.243C5.29562 19.6661 4.96786 20.1343 4.70084 20.6372C4.48961 21.0218 4.3778 21.4531 4.37553 21.8919C4.36159 22.3977 4.44034 22.9017 4.60789 23.3791C4.7691 23.9135 5.02058 24.4165 5.35145 24.8662C5.58785 25.2105 5.77552 25.5858 5.90911 25.9815C5.90911 26.1209 5.95559 26.1209 6.46678 25.9815C7.59275 25.7775 8.63912 25.2623 9.48747 24.4944C9.65039 24.3506 9.7773 24.1705 9.85801 23.9688C9.93872 23.767 9.97098 23.5491 9.95219 23.3326C9.98266 23.1113 9.95046 22.8859 9.85925 22.682C9.71983 22.3102 9.39453 22.0314 8.79039 21.6131C8.46022 21.452 8.17129 21.2175 7.94575 20.9275C7.72021 20.6375 7.56402 20.2998 7.48917 19.9401C7.46963 19.2978 7.64809 18.6651 8.00036 18.1277C8.38877 17.3619 8.61051 16.5224 8.65097 15.6647C8.69744 15.0141 8.79039 14.7352 8.97628 14.5493C9.16217 14.317 9.34805 14.2705 9.81278 14.1776C10.4394 14.1691 11.0386 13.9194 11.4858 13.4805C11.6537 13.3488 11.7878 13.1789 11.8767 12.9848C11.9656 12.7908 12.0069 12.5783 11.997 12.3652L12.0434 11.9934L11.8576 11.8075ZM6.28089 22.5426C6.26001 22.6059 6.22394 22.6633 6.17581 22.7095C6.12769 22.7557 6.06899 22.7895 6.00482 22.8078C5.94065 22.8261 5.87297 22.8285 5.80769 22.8147C5.7424 22.8008 5.6815 22.7712 5.63028 22.7284C5.49086 22.6355 5.49086 22.4961 5.63028 22.3102C5.72323 22.1243 5.72323 22.0778 5.58381 21.9849C5.49086 21.9384 5.44439 21.8919 5.44439 21.8455C5.44439 21.6131 5.86264 21.5202 6.095 21.7061C6.16232 21.7486 6.22055 21.8041 6.26636 21.8692C6.31217 21.9343 6.34464 22.0079 6.36192 22.0856C6.37919 22.1634 6.38093 22.2438 6.36702 22.3222C6.35312 22.4006 6.32385 22.4755 6.28089 22.5426ZM12.5407 13.9313C12.3292 14.0098 12.1391 14.137 11.9857 14.3024C11.8324 14.4679 11.72 14.6671 11.6577 14.8839C11.5877 15.1744 11.6154 15.4799 11.7367 15.753C11.918 15.976 12.0806 16.0411 12.5453 16.0411C13.4515 16.0411 14.2276 15.6554 14.3113 15.186C14.3162 14.9405 14.2482 14.6991 14.1158 14.4923C13.9835 14.2855 13.7927 14.1226 13.5677 14.0242C13.2443 13.8898 12.883 13.8574 12.5407 13.9313ZM13.6003 14.7399C13.6332 14.695 13.6552 14.6431 13.6645 14.5882C13.6739 14.5333 13.6703 14.477 13.654 14.4238C13.6378 14.3705 13.6093 14.3218 13.571 14.2815C13.5326 14.2412 13.4853 14.2104 13.433 14.1915C12.9868 13.9127 12.313 14.145 12.313 14.5633C12.313 14.7724 12.6569 14.9955 12.9868 14.9955C13.216 14.9897 13.4348 14.8985 13.6003 14.7399Z" fill="#FF007A"/>
<path d="M13.8555 13.143C13.8774 13.1625 13.8948 13.1863 13.9068 13.213C13.9188 13.2397 13.9249 13.2686 13.9249 13.2979C13.9249 13.3272 13.9188 13.3561 13.9068 13.3828C13.8948 13.4095 13.8774 13.4333 13.8555 13.4528C13.7936 13.4838 13.7626 13.5148 13.7006 13.5148C13.6387 13.5148 13.6077 13.4838 13.5457 13.4528L12.2972 12.1764L11.9254 11.7426L8.062 7.76152L7.37731 7.04584C7.34633 6.98388 7.31535 6.92192 7.34633 6.89094C7.34314 6.86646 7.34733 6.84159 7.35837 6.81951C7.36941 6.79743 7.3868 6.77915 7.40829 6.76701V6.73603C7.42776 6.7142 7.45163 6.69673 7.47833 6.68477C7.50502 6.67281 7.53395 6.66663 7.5632 6.66663C7.59245 6.66663 7.62138 6.67281 7.64807 6.68477C7.67477 6.69673 7.69863 6.7142 7.71811 6.73603L13.8555 13.143Z" fill="#FF007A"/>
</svg>
