<svg width="32" height="32" viewBox="0 0 32 32" fill="none" xmlns="http://www.w3.org/2000/svg">
<path d="M21.8126 18.7294C21.8126 15.9159 20.127 14.9509 16.7516 14.5477C14.3369 14.226 13.8523 13.5827 13.8523 12.459C13.8523 11.3353 14.6586 10.6104 16.267 10.6104C16.8381 10.5217 17.422 10.6438 17.9098 10.9539C18.3975 11.2641 18.7557 11.7411 18.9176 12.296C18.959 12.4132 19.0356 12.5149 19.1369 12.587C19.2382 12.6592 19.3593 12.6983 19.4837 12.6991H20.7704C20.8447 12.7009 20.9185 12.6876 20.9875 12.66C21.0564 12.6324 21.1191 12.591 21.1716 12.5385C21.2241 12.486 21.2655 12.4233 21.2931 12.3544C21.3207 12.2854 21.334 12.2116 21.3322 12.1373V12.0558C21.1766 11.184 20.7373 10.3881 20.0827 9.79164C19.4281 9.1952 18.5948 8.83169 17.7124 8.75758V6.82755C17.7124 6.50588 17.4722 6.26569 17.069 6.1842H15.8638C15.5421 6.1842 15.302 6.42868 15.2205 6.82755V8.68038C14.1884 8.71957 13.209 9.14684 12.4783 9.87679C11.7476 10.6067 11.3192 11.5856 11.2789 12.6177C11.2789 15.2725 12.8873 16.319 16.267 16.7222C18.5187 17.1211 19.2392 17.6057 19.2392 18.8924C19.2392 20.1791 18.1155 21.0626 16.5887 21.0626C14.4956 21.0626 13.7708 20.1791 13.5306 18.9739C13.507 18.8408 13.4382 18.72 13.3359 18.6317C13.2335 18.5434 13.1039 18.4931 12.9688 18.4892H11.6006C11.5263 18.4875 11.4525 18.5008 11.3835 18.5284C11.3145 18.556 11.2519 18.5974 11.1994 18.6499C11.1468 18.7024 11.1055 18.7651 11.0779 18.834C11.0503 18.903 11.037 18.9768 11.0387 19.0511V19.1326C11.1854 20.1732 11.6923 21.1293 12.4713 21.8347C13.2503 22.54 14.252 22.9498 15.302 22.9927V24.9227C15.302 25.2444 15.5421 25.4846 15.9453 25.566H17.1505C17.4722 25.566 17.7124 25.3259 17.7939 24.9227V22.9927C18.8707 22.8994 19.8757 22.4135 20.6175 21.6274C21.3593 20.8413 21.7819 19.8099 21.8126 18.7294Z" fill="#2775CA"/>
<path d="M12.4094 27.1744C10.0951 26.3259 8.09723 24.7872 6.6858 22.7664C5.27436 20.7456 4.51748 18.3401 4.51748 15.8751C4.51748 13.4102 5.27436 11.0047 6.6858 8.98391C8.09723 6.96309 10.0951 5.4244 12.4094 4.57586C12.5629 4.50865 12.6916 4.3953 12.7777 4.25157C12.8638 4.10783 12.903 3.94085 12.8898 3.77383V2.64583C12.9013 2.49858 12.859 2.35215 12.7706 2.23379C12.6823 2.11544 12.5539 2.03324 12.4094 2.00249C12.2959 1.99095 12.182 2.01981 12.0877 2.08398C9.16019 3.01443 6.60468 4.85237 4.79111 7.33174C2.97753 9.81111 2 12.8033 2 15.8751C2 18.947 2.97753 21.9392 4.79111 24.4186C6.60468 26.8979 9.16019 28.7359 12.0877 29.6663C12.1545 29.7044 12.2293 29.7263 12.3061 29.7301C12.3828 29.7339 12.4594 29.7196 12.5296 29.6882C12.5998 29.6569 12.6616 29.6095 12.71 29.5498C12.7585 29.4901 12.7921 29.4198 12.8083 29.3446C12.8941 29.2674 12.8941 29.186 12.8941 29.023V27.8993C12.8686 27.7512 12.8122 27.6102 12.7288 27.4854C12.6453 27.3605 12.5365 27.2546 12.4094 27.1744ZM20.9316 2.08398C20.8649 2.04584 20.7901 2.02399 20.7133 2.02018C20.6365 2.01636 20.5599 2.03071 20.4897 2.06204C20.4195 2.09338 20.3577 2.14082 20.3093 2.20052C20.2609 2.26022 20.2272 2.3305 20.2111 2.40565C20.1253 2.48714 20.1253 2.56863 20.1253 2.72732V3.85532C20.1398 4.01705 20.191 4.17335 20.2749 4.31233C20.3589 4.45131 20.4735 4.56931 20.6099 4.65736C22.9242 5.50589 24.9221 7.04458 26.3335 9.0654C27.745 11.0862 28.5019 13.4917 28.5019 15.9566C28.5019 18.4216 27.745 20.827 26.3335 22.8479C24.9221 24.8687 22.9242 26.4074 20.6099 27.2559C20.4565 27.3231 20.3277 27.4365 20.2416 27.5802C20.1556 27.7239 20.1164 27.8909 20.1296 28.058V29.186C20.118 29.3332 20.1604 29.4796 20.2487 29.598C20.3371 29.7163 20.4655 29.7985 20.6099 29.8293C20.7234 29.8408 20.8373 29.812 20.9316 29.7478C23.8568 28.8031 26.4073 26.9554 28.2164 24.4701C30.0254 21.9848 31 18.9899 31 15.9159C31 12.8419 30.0254 9.84703 28.2164 7.36173C26.4073 4.87643 23.8568 3.02866 20.9316 2.08398Z" fill="#2775CA"/>
</svg>
