<svg width="32" height="32" viewBox="0 0 32 32" fill="none" xmlns="http://www.w3.org/2000/svg">
<path d="M9.13867 25.3097C9.939 26.2215 10.9123 26.9654 12.0022 27.4984C13.092 28.0313 14.2768 28.3428 15.4879 28.4146C16.9351 28.3376 18.3004 27.7192 19.3127 26.6822C21.3107 24.971 23.4082 23.3798 25.5945 21.9169L26.8229 21.4129C27.6601 21.0293 28.4 20.4617 28.9873 19.7524C29.6019 18.9392 29.955 17.9585 29.9998 16.9401C29.9032 15.5743 29.4552 14.2568 28.6993 13.1152C26.7267 16.6282 23.9003 19.5871 20.4813 21.7186C17.0624 23.85 13.1613 25.0851 9.13867 25.3097Z" fill="#0293D6"/>
<path d="M13.251 8.539C13.6104 8.16036 14.0431 7.85874 14.5227 7.65246C15.0023 7.44618 15.5188 7.33955 16.0409 7.33905C16.372 7.31647 16.7044 7.36001 17.0185 7.46713C17.3327 7.57426 17.6224 7.74283 17.8708 7.96302C19.2513 8.94041 20.8953 9.47692 22.5866 9.50196C22.9444 9.52323 23.2946 9.61502 23.6168 9.77204C23.9391 9.92906 24.2272 10.1482 24.4645 10.4169C24.7801 10.8496 24.9484 11.3723 24.9445 11.9079C24.9063 12.6515 24.744 13.3836 24.4645 14.0738L13.251 8.539Z" fill="#EBE638"/>
<path d="M9.13888 25.3096C8.26576 25.1921 7.41407 24.9496 6.60998 24.5896C5.36224 24.1945 4.29029 23.3786 3.57711 22.2812C3.18191 21.5772 2.98299 20.78 3.00114 19.9728C3.01745 18.4409 3.38702 16.9333 4.08109 15.5675C4.77242 13.8804 5.23403 12.1082 5.45353 10.2982L5.81352 8.85829C5.97621 8.09079 6.27 7.35707 6.68198 6.68938L7.47395 5.82092C8.78632 4.99685 10.3391 4.64156 11.8793 4.81296C9.81778 7.76175 8.49279 11.1615 8.01523 14.7276C7.53766 18.2937 7.92142 21.9223 9.13438 25.3096H9.13888Z" fill="#BAD147"/>
<path d="M13.2537 8.53918C14.6878 8.62268 16.1083 8.86413 17.4895 9.25915L18.8394 9.83813C17.6595 9.76436 16.4772 9.93608 15.3671 10.3424C14.2569 10.7488 13.2431 11.381 12.3897 12.199C11.4223 13.2635 10.7248 14.5447 10.3557 15.9349C9.98661 17.3251 9.95681 18.7836 10.2688 20.1877C9.52161 19.2475 9.14487 18.066 9.20983 16.8668C9.27305 15.2749 9.66494 13.7133 10.3609 12.2801C11.0568 10.847 12.0417 9.57329 13.2537 8.53918Z" fill="#78B650"/>
<path d="M21.5524 22.6414C22.9183 20.1583 23.5233 17.3281 23.2921 14.5036C23.0608 11.679 22.0035 8.98497 20.252 6.75708C22.3444 7.10609 24.2691 8.11893 25.7417 9.64596C26.9137 10.6278 27.913 11.7989 28.6981 13.1108C27.2712 16.9027 24.7923 20.2089 21.5524 22.6414Z" fill="#2F8260"/>
<path d="M23.8629 9.9337C23.0225 8.54953 21.7921 7.44436 20.326 6.75683C18.6834 6.43554 16.9903 6.47837 15.366 6.88229C13.7417 7.28622 12.2257 8.04142 10.9249 9.09469C9.62409 10.148 8.57007 11.4737 7.8371 12.9784C7.10413 14.4831 6.71005 16.1303 6.68262 17.8039C6.69818 20.5255 7.61253 23.1657 9.2835 25.314C11.4282 25.7267 13.632 25.7267 15.7767 25.314C17.8946 25.0045 19.8902 24.131 21.5545 22.7851C23.7189 20.6823 25.0298 17.8537 25.2353 14.843C25.2828 13.1071 24.8044 11.3974 23.8629 9.9382V9.9337ZM21.271 20.4002C20.601 21.13 19.7866 21.7124 18.8795 22.1106C17.9724 22.5087 16.9924 22.7139 16.0017 22.7131C14.9879 22.6995 13.9881 22.4739 13.0666 22.0508C12.1452 21.6276 11.3225 21.0164 10.6514 20.2563C9.55536 18.942 8.9663 17.2786 8.99102 15.5675C9.09818 14.3865 9.46419 13.2437 10.063 12.2202C10.6619 11.1967 11.4789 10.3177 12.4559 9.64571C13.4898 8.89676 14.7216 8.46945 15.9972 8.41726C17.1993 8.2846 18.4124 8.53668 19.4621 9.13723C20.5181 9.84628 21.3855 10.8019 21.9892 11.9216C22.5929 13.0412 22.9148 14.291 22.9269 15.563C22.9993 17.3273 22.4049 19.0542 21.262 20.4002H21.271Z" fill="#085229"/>
</svg>
