<svg width="32" height="32" viewBox="0 0 32 32" fill="none" xmlns="http://www.w3.org/2000/svg">
<path d="M30 15.8126C30 14.1119 25.3669 12.6938 19.2076 12.3623V9.65095H26.8986V4H5.8787V9.65095H13.5643V12.3786C7.51901 12.7264 3 14.1337 3 15.8181C3 17.5025 7.51901 18.9044 13.5643 19.2576V29H19.213V19.2739C25.3669 18.9424 30 17.5134 30 15.8126ZM16.4973 17.4971C9.88715 17.4971 4.53168 16.4755 4.53168 15.215C4.53168 14.1445 8.37176 13.2426 13.5643 12.9926V16.2745C15.4436 16.3845 17.3276 16.3899 19.2076 16.2908V12.9872C24.5088 13.2208 28.4629 14.1282 28.4629 15.215C28.4629 16.4701 23.1074 17.4971 16.4973 17.4971Z" fill="#259D78"/>
</svg>
