<svg width="32" height="32" viewBox="0 0 32 32" fill="none" xmlns="http://www.w3.org/2000/svg">
<path d="M29.6138 4.06085C29.4227 4.00412 29.2218 3.9868 29.0236 4.00997C28.8255 4.03314 28.6342 4.0963 28.4618 4.19553L28.4315 4.21548L28.4164 4.2454C25.5776 9.89775 22.7229 15.5423 19.8525 21.1791C19.6962 21.3856 19.4976 21.5573 19.2694 21.6828C19.0413 21.8083 18.7889 21.8848 18.5288 21.9073H18.4277C17.7974 21.8636 17.1991 21.6165 16.7251 21.204L16.3865 20.5406L16.3562 20.4209L8.18645 4.28531L8.1915 4.31025C8.03993 4.03592 7.84793 4.03093 7.82267 4.03093L6.47872 4.04589C5.49855 4.05587 4.48301 4.06085 3.39169 4.09577C3.32485 4.10866 3.26169 4.13589 3.20669 4.17554C3.15168 4.21518 3.10618 4.26628 3.07339 4.32521C2.97731 4.56871 2.97551 4.83863 3.06833 5.08336L13.633 26.1619L14.6485 28.167L14.6788 28.2019C15.1358 28.6802 15.7619 28.966 16.427 29C16.8029 28.9966 17.1704 28.8895 17.488 28.6908C17.8003 28.5056 18.0663 28.2533 18.266 27.9526L29.9422 4.80903C30.0068 4.68028 30.0177 4.53163 29.9725 4.39504C29.9409 4.31695 29.8925 4.2466 29.8305 4.18888C29.7686 4.13117 29.6946 4.08748 29.6138 4.06085Z" fill="white"/>
<path d="M29.6138 4.06085C29.4227 4.00412 29.2218 3.9868 29.0236 4.00997C28.8255 4.03314 28.6342 4.0963 28.4618 4.19553L28.4315 4.21548L28.4164 4.2454C25.5776 9.89775 22.7229 15.5423 19.8525 21.1791C19.6962 21.3856 19.4976 21.5573 19.2694 21.6828C19.0413 21.8083 18.7889 21.8848 18.5288 21.9073H18.4277C17.7974 21.8636 17.1991 21.6165 16.7251 21.204L16.3865 20.5406L16.3562 20.4209L8.18645 4.28531L8.1915 4.31025C8.03993 4.03592 7.84793 4.03093 7.82267 4.03093L6.47872 4.04589C5.49855 4.05587 4.48301 4.06085 3.39169 4.09577C3.32485 4.10866 3.26169 4.13589 3.20669 4.17554C3.15168 4.21518 3.10618 4.26628 3.07339 4.32521C2.97731 4.56871 2.97551 4.83863 3.06833 5.08336L13.633 26.1619L14.6485 28.167L14.6788 28.2019C15.1358 28.6802 15.7619 28.966 16.427 29C16.8029 28.9966 17.1704 28.8895 17.488 28.6908C17.8003 28.5056 18.0663 28.2533 18.266 27.9526L29.9422 4.80903C30.0068 4.68028 30.0177 4.53163 29.9725 4.39504C29.9409 4.31695 29.8925 4.2466 29.8305 4.18888C29.7686 4.13117 29.6946 4.08748 29.6138 4.06085Z" fill="url(#paint0_linear_22_1445)"/>
<defs>
<linearGradient id="paint0_linear_22_1445" x1="3" y1="4" x2="27.9261" y2="30.9202" gradientUnits="userSpaceOnUse">
<stop stop-color="#9C61A9"/>
<stop offset="1" stop-color="#3398F0"/>
</linearGradient>
</defs>
</svg>
