<svg width="32" height="32" viewBox="0 0 32 32" fill="none" xmlns="http://www.w3.org/2000/svg">
<path d="M27.9665 3.55314L23.1418 3.53186C22.9438 3.53142 22.75 3.58916 22.5845 3.69791C22.419 3.80666 22.2891 3.96164 22.2109 4.14359L16.4075 16.8569L10.769 4.14359C10.6912 3.96247 10.5621 3.80806 10.3977 3.69937C10.2332 3.59068 10.0406 3.53246 9.84343 3.53186L5.01877 3.55846C4.93485 3.56037 4.85273 3.58314 4.77983 3.62474C4.70692 3.66633 4.64552 3.72543 4.60118 3.7967C4.55684 3.86796 4.53094 3.94915 4.52584 4.03294C4.52073 4.11672 4.53658 4.20045 4.57194 4.27657L15.6681 28.9105C15.7329 29.0507 15.8364 29.1695 15.9665 29.2527C16.0966 29.3359 16.2478 29.3801 16.4022 29.3801C16.5566 29.3801 16.7078 29.3359 16.8379 29.2527C16.968 29.1695 17.0715 29.0507 17.1363 28.9105L28.4133 4.28189C28.4499 4.20555 28.4666 4.12125 28.4621 4.03673C28.4576 3.95221 28.4319 3.87018 28.3874 3.79817C28.343 3.72616 28.2811 3.66647 28.2076 3.62459C28.134 3.5827 28.0511 3.55997 27.9665 3.55846V3.55314Z" fill="white"/>
<path d="M27.9665 3.55314L23.1418 3.53186C22.9438 3.53142 22.75 3.58916 22.5845 3.69791C22.419 3.80666 22.2891 3.96164 22.2109 4.14359L16.4075 16.8569L10.769 4.14359C10.6912 3.96247 10.5621 3.80806 10.3977 3.69937C10.2332 3.59068 10.0406 3.53246 9.84343 3.53186L5.01877 3.55846C4.93485 3.56037 4.85273 3.58314 4.77983 3.62474C4.70692 3.66633 4.64552 3.72543 4.60118 3.7967C4.55684 3.86796 4.53094 3.94915 4.52584 4.03294C4.52073 4.11672 4.53658 4.20045 4.57194 4.27657L15.6681 28.9105C15.7329 29.0507 15.8364 29.1695 15.9665 29.2527C16.0966 29.3359 16.2478 29.3801 16.4022 29.3801C16.5566 29.3801 16.7078 29.3359 16.8379 29.2527C16.968 29.1695 17.0715 29.0507 17.1363 28.9105L28.4133 4.28189C28.4499 4.20555 28.4666 4.12125 28.4621 4.03673C28.4576 3.95221 28.4319 3.87018 28.3874 3.79817C28.343 3.72616 28.2811 3.66647 28.2076 3.62459C28.134 3.5827 28.0511 3.55997 27.9665 3.55846V3.55314Z" fill="url(#paint0_linear_22_1448)"/>
<defs>
<linearGradient id="paint0_linear_22_1448" x1="4.5249" y1="16.456" x2="28.4628" y2="16.456" gradientUnits="userSpaceOnUse">
<stop stop-color="#4442C6"/>
<stop offset="1" stop-color="#5B60FA"/>
</linearGradient>
</defs>
</svg>
