<svg width="32" height="32" viewBox="0 0 32 32" fill="none" xmlns="http://www.w3.org/2000/svg">
<path d="M26.9086 14.3128C23.0529 12.0703 19.1623 9.83219 15.3067 7.59406C15.0173 7.43697 14.6918 7.35847 14.3627 7.36638C14.0335 7.37428 13.7122 7.46832 13.4307 7.63912C13.1492 7.80992 12.9174 8.05152 12.7583 8.33986C12.5992 8.62819 12.5184 8.95319 12.524 9.28248V21.542C12.5326 21.6101 12.519 21.6792 12.4852 21.739C12.4514 21.7987 12.3992 21.8459 12.3364 21.8736C11.6778 22.2401 11.0192 22.6415 10.3562 23.0079C9.92009 23.2697 9.4752 23.5227 8.99979 23.7802C8.8166 23.8892 8.6683 23.8194 8.6683 23.562V4.87602C8.67472 4.63159 8.63205 4.38835 8.54281 4.1607C8.45358 3.93306 8.31959 3.72563 8.14878 3.55071C7.97797 3.37579 7.77381 3.23692 7.5484 3.14233C7.32298 3.04773 7.08088 2.99934 6.83642 3.00001C6.59245 3.00171 6.35123 3.05168 6.12665 3.14705C5.90208 3.24242 5.69858 3.38129 5.5279 3.55567C5.35721 3.73005 5.22271 3.93649 5.13214 4.1631C5.04157 4.38971 4.99673 4.632 5.00019 4.87602V27.1264C4.99732 27.3982 5.05493 27.6672 5.16884 27.914C5.28275 28.1607 5.45011 28.379 5.65879 28.5531C5.96487 28.8205 6.35202 28.9771 6.75789 28.9977C7.16376 29.0183 7.56475 28.9016 7.8963 28.6665C13.5882 25.3944 19.2757 22.0961 24.9633 18.8283L27.0569 17.6155C27.3895 17.4321 27.6566 17.1494 27.8208 16.8068C27.985 16.4642 28.0382 16.0788 27.9728 15.7046C27.9159 15.4052 27.7901 15.1232 27.6054 14.8809C27.4207 14.6386 27.1821 14.4469 26.9086 14.3128ZM22.1719 16.1452C20.8842 16.9199 19.5872 17.6791 18.2813 18.4226C17.6968 18.7542 17.1473 19.0858 16.5585 19.413C16.3011 19.5613 16.1921 19.5264 16.1921 19.2297V12.8076C16.1921 12.511 16.3011 12.4412 16.5585 12.5895C18.1374 13.4708 19.677 14.3521 21.221 15.2334C21.5482 15.4166 21.8447 15.5999 22.1719 15.7831C22.2853 15.818 22.3551 15.8529 22.3551 15.9663C22.3551 16.0798 22.246 16.1103 22.1719 16.1452Z" fill="#00B9C8"/>
</svg>
