<svg width="32" height="32" viewBox="0 0 32 32" fill="none" xmlns="http://www.w3.org/2000/svg">
<path d="M23.9166 21.4653C23.5373 22.1261 22.9906 22.6753 22.3315 23.0575C21.6723 23.4397 20.924 23.6413 20.1621 23.642H17.6458V15.1746L14.0272 21.4693C13.6468 22.1306 13.0986 22.6797 12.438 23.0612C11.7773 23.4427 11.0277 23.6431 10.2648 23.642H7.77249V11.1486H12.789V19.5921L17.6458 11.1526L22.6584 11.1486V19.628L27.9306 10.4736C28.0355 10.2911 28.0887 10.0835 28.0844 9.87313C28.0802 9.66272 28.0187 9.45744 27.9066 9.27934C26.0864 6.40391 23.2474 4.32202 19.9578 3.45036C16.6682 2.57871 13.1708 2.98161 10.1655 4.57842C7.1603 6.17523 4.86901 8.84814 3.75029 12.0621C2.63157 15.2761 2.76797 18.794 4.13218 21.9118C5.49639 25.0295 7.98775 27.5169 11.1076 28.8763C14.2275 30.2356 17.7456 30.3665 20.9578 29.2428C24.17 28.119 26.8394 25.8235 28.4315 22.8158C30.0236 19.8081 30.421 16.31 29.5442 13.0218C29.5257 12.9462 29.4847 12.8779 29.4268 12.8258C29.3689 12.7738 29.2966 12.7404 29.2194 12.7301C29.1422 12.7198 29.0637 12.7329 28.9941 12.7678C28.9245 12.8028 28.8671 12.8579 28.8293 12.9259L23.9166 21.4653Z" fill="#4A4A4A"/>
</svg>
