<svg width="32" height="32" viewBox="0 0 32 32" fill="none" xmlns="http://www.w3.org/2000/svg">
<path fill-rule="evenodd" clip-rule="evenodd" d="M30 19.2688H27.3404L25.4527 17.6535L23.573 19.2608H21.3293L20.2534 17.9574H16.55L17.4859 16.7979H19.3096L17.9218 15.1066L13.0825 21H10.8308L12.2306 19.2888H9.89498L8.62317 15.7383L7.36735 19.2568H4.9957L3 13.7312H4.82373L6.16353 17.4936L7.49933 13.7472H9.751L11.0828 17.4856L12.4146 13.7472H14.2423L12.2306 19.2888L12.6786 18.737L16.786 13.7392H19.0456L22.4651 17.9094L24.1089 16.494L18.9056 12H21.5772L30 19.2688ZM27.3604 15.9263L26.1046 14.8507L27.3564 13.7872H29.888L27.3604 15.9263Z" fill="#F89022"/>
</svg>
