<svg width="32" height="32" viewBox="0 0 32 32" fill="none" xmlns="http://www.w3.org/2000/svg">
<path d="M26.4303 7.35775L25.5645 8.22362C27.6277 10.4801 28.7719 13.4271 28.7719 16.4847C28.7719 19.5423 27.6277 22.4892 25.5645 24.7457L26.4303 25.608C28.7255 23.1193 29.9998 19.8578 29.9998 16.4723C29.9998 13.0868 28.7255 9.82529 26.4303 7.33655V7.35775Z" fill="#5A5564"/>
<path d="M10.8283 10.2879C12.3326 8.91243 14.2972 8.14965 16.3356 8.14965C18.374 8.14965 20.3387 8.91243 21.843 10.2879L22.4202 9.71305C20.7611 8.18292 18.5868 7.33337 16.3297 7.33337C14.0727 7.33337 11.8984 8.18292 10.2393 9.71305L10.8283 10.2879Z" fill="#5A5564"/>
<path d="M7.43185 24.7528C5.37158 22.4969 4.22925 19.5522 4.22925 16.4971C4.22925 13.442 5.37158 10.4972 7.43185 8.24135L6.56952 7.37549C4.27433 9.86423 3 13.1257 3 16.5112C3 19.8967 4.27433 23.1582 6.56952 25.647L7.43185 24.7528Z" fill="#5A5564"/>
<path d="M24.7537 25.5513C22.4971 27.6145 19.5502 28.7587 16.4926 28.7587C13.435 28.7587 10.4881 27.6145 8.23159 25.5513L7.36572 26.4171C9.85484 28.7116 13.1162 29.9854 16.5015 29.9854C19.8867 29.9854 23.1481 28.7116 25.6372 26.4171L24.7537 25.5513Z" fill="#5A5564"/>
<path d="M21.9545 13.6097C21.7813 11.8073 20.2227 11.1994 18.2578 11.0156V8.53113H16.7381V10.9697H15.5188V8.53113H14.0097V11.0333H10.9209V12.659C10.9209 12.659 12.0448 12.6413 12.0271 12.659C12.2303 12.6368 12.4342 12.6944 12.5958 12.8196C12.7574 12.9449 12.8639 13.1281 12.8929 13.3305V20.1796C12.8888 20.2507 12.8704 20.3201 12.8388 20.3839C12.8072 20.4476 12.7631 20.5044 12.7092 20.5507C12.656 20.5979 12.5938 20.6337 12.5264 20.6562C12.459 20.6787 12.3877 20.6873 12.3169 20.6815C12.3381 20.6992 11.2107 20.6815 11.2107 20.6815L10.9209 22.5016H13.9779V25.0461H15.5011V22.5369H16.7169V25.032H18.2436V22.5192C20.8165 22.3637 22.6083 21.7311 22.8309 19.3244C22.9124 18.9725 22.9194 18.6076 22.8515 18.2529C22.7835 17.8982 22.6422 17.5616 22.4366 17.2648C22.2309 16.9679 21.9654 16.7174 21.6572 16.5292C21.349 16.341 21.0049 16.2193 20.6468 16.1719C21.1167 15.9497 21.4999 15.5781 21.7364 15.1153C21.973 14.6524 22.0496 14.1242 21.9545 13.6132V13.6097ZM19.8234 19.024C19.8234 20.9147 16.5826 20.6956 15.5471 20.6956V17.3417C16.5826 17.3453 19.8234 17.0484 19.8234 19.024ZM19.1166 14.2953C19.1166 16.027 16.4129 15.815 15.5541 15.815V12.765C16.4129 12.765 19.1166 12.4929 19.1166 14.2953Z" fill="#F09242"/>
</svg>
