<svg width="32" height="32" viewBox="0 0 32 32" fill="none" xmlns="http://www.w3.org/2000/svg">
<path opacity="0.987" fill-rule="evenodd" clip-rule="evenodd" d="M21.7 1.8999C26.6658 4.06346 29.7656 7.7633 30.9998 12.9997V14.7997H30.0998C30.1838 13.9333 29.7839 13.4833 28.8999 13.4497C29.037 13.3255 29.1368 13.1755 29.1998 12.9997C28.6812 12.2944 28.4811 11.4943 28.5999 10.5997C28.2474 10.6654 27.9474 10.5655 27.6999 10.2998C28.1559 9.50327 28.0059 9.30317 27.2499 9.69976C26.8596 9.65806 26.6097 9.45827 26.4999 9.09977C26.5389 8.83698 26.439 8.63688 26.1999 8.49978C25.6156 8.29276 25.0129 8.14207 24.3999 8.04979C24.8178 7.24491 25.2177 7.19481 25.5999 7.8998C25.9341 7.5329 25.9839 7.13301 25.7499 6.69982C25.0623 7.02981 24.6123 6.78022 24.3999 5.94983C24.6388 5.86022 24.847 5.70406 24.9999 5.49984C24.6432 5.22114 24.2433 5.12124 23.7999 5.19984C23.5998 3.99986 23.4001 3.99986 23.2 5.19984C22.473 5.03286 21.7682 4.78115 21.1 4.44986C21.5271 4.38578 21.936 4.23245 22.3 3.99986C20.117 3.65072 17.8967 3.60026 15.7001 3.84987L14.8001 4.29986H13.9001C14.006 3.65937 13.7561 3.25948 13.1501 3.09988L11.8002 3.99986C11.4575 4.68078 11.1569 5.38208 10.9002 6.09983C10.5405 5.87887 10.1215 5.77412 9.7002 5.79983V3.39988C11.3257 3.17454 12.8993 2.66692 14.3501 1.8999C16.7948 2.1267 19.2553 2.1267 21.7 1.8999Z" fill="#ACA197"/>
<path opacity="0.992" fill-rule="evenodd" clip-rule="evenodd" d="M12.9998 1H18.9997C19.8787 1.35969 20.7806 1.66035 21.6996 1.89998C19.2549 2.12679 16.7945 2.12679 14.3498 1.89998C12.899 2.667 11.3254 3.17462 9.69984 3.39996V5.79991C10.1212 5.7742 10.5402 5.87896 10.8998 6.09991C11.1566 5.38216 11.4571 4.68086 11.7998 3.99995L13.1498 3.09996C13.7558 3.25956 14.0057 3.65945 13.8998 4.29994H14.7998C14.8562 4.78083 14.7062 5.18103 14.3498 5.49992L14.0498 5.19992C13.6112 5.69432 13.0613 5.99431 12.3998 6.09991C12.3818 5.93701 12.2819 5.83711 12.0998 5.79991C11.3457 6.32705 10.5419 6.77919 9.69984 7.14989C9.44875 7.45319 9.34885 7.80328 9.39985 8.19987C8.42967 8.11137 7.52968 8.31117 6.6999 8.79986C6.4591 9.26108 6.35502 9.78148 6.3999 10.2998C5.45762 10.4345 4.55764 10.7345 3.69995 11.1998L3.39996 11.4998L3.99995 12.0998C3.45594 12.3159 2.90571 12.516 2.34998 12.6998C2.21318 13.073 2.36318 13.3229 2.79997 13.4498C2.44987 13.5998 2.19998 13.8497 2.04998 14.1998C1.83399 13.733 1.48389 13.433 1 13.2998V12.9998C2.70007 6.6999 6.6999 2.70007 12.9998 1Z" fill="#A6A094"/>
<path fill-rule="evenodd" clip-rule="evenodd" d="M26.4992 9.09982L25.2992 9.39982C25.1801 8.75123 24.7802 8.35134 24.0992 8.19984C22.3776 8.28662 20.6537 8.08381 18.9993 7.59985C17.0025 7.27933 15.0024 6.97932 12.9994 6.69987L12.3994 6.09988C13.0609 5.99428 13.6108 5.69428 14.0494 5.19989L14.3494 5.49989C14.7058 5.18099 14.8558 4.7808 14.7994 4.29991L15.6994 3.84992C17.8959 3.60031 20.1163 3.65077 22.2992 3.99992C21.9353 4.2325 21.5264 4.38583 21.0993 4.44991C21.7675 4.7812 22.4723 5.03291 23.1992 5.19989C23.3993 3.99991 23.5991 3.99991 23.7992 5.19989C24.2426 5.12129 24.6425 5.22119 24.9992 5.49989C24.8463 5.70411 24.6381 5.86027 24.3992 5.94988C24.6116 6.78027 25.0616 7.02986 25.7492 6.69987C25.9832 7.13306 25.9334 7.53295 25.5992 7.89985C25.217 7.19486 24.8171 7.24496 24.3992 8.04984C25.016 8.14284 25.616 8.29284 26.1992 8.49983C26.4383 8.63693 26.5382 8.83703 26.4992 9.09982Z" fill="#A99D92"/>
<path fill-rule="evenodd" clip-rule="evenodd" d="M15.9996 8.49976C16.329 8.76885 16.329 9.01875 15.9996 9.24974L17.4996 9.54974C17.1702 9.78073 17.1702 10.0306 17.4996 10.2997H16.8996C16.9201 10.1948 16.9173 10.0867 16.8914 9.98302C16.8655 9.87933 16.8171 9.78261 16.7496 9.69973C16.5276 10.2454 16.1775 10.6453 15.6996 10.8997C16.2399 10.0819 16.0398 9.58214 15.0996 9.39974V8.49976H15.9996Z" fill="#B17862"/>
<path fill-rule="evenodd" clip-rule="evenodd" d="M12.9992 6.69971C14.9882 6.9772 16.9882 7.2772 18.9991 7.59969C20.3542 8.02928 21.4542 8.82937 22.299 9.99965H21.399C20.8251 8.92807 19.9252 8.32808 18.6991 8.19968C18.6286 8.02058 18.4786 7.92069 18.2491 7.89969C17.5266 8.19133 16.7709 8.39285 15.9991 8.49967C15.5839 7.67529 14.984 7.47519 14.1992 7.89969H13.2992C13.3778 8.34308 13.2779 8.74297 12.9992 9.09966C12.5414 9.24786 12.1415 9.44796 11.7992 9.69965L11.1992 9.39966C11.5358 8.96557 11.9858 8.66557 12.5492 8.49967C12.6955 8.11769 12.7469 7.70593 12.6992 7.2997L12.9992 6.69971Z" fill="#EBBBA2"/>
<path fill-rule="evenodd" clip-rule="evenodd" d="M15.9998 8.49973H15.0998V9.39971C14.801 9.37391 14.5508 9.47411 14.3498 9.6997C14.2063 9.423 14.1538 9.10803 14.1998 8.79972V7.89974C14.9846 7.47524 15.5846 7.67534 15.9998 8.49973Z" fill="#DAA18A"/>
<path fill-rule="evenodd" clip-rule="evenodd" d="M18.6999 8.19971C19.926 8.3281 20.826 8.92809 21.3998 9.99967C20.7525 9.70148 20.1525 9.30129 19.5999 8.7997C19.1799 9.48428 19.3797 9.93428 20.1999 10.1497C19.1019 10.3177 18.5019 9.81758 18.3999 8.6497C18.4209 8.4202 18.5208 8.27021 18.6999 8.19971Z" fill="#C6856C"/>
<path fill-rule="evenodd" clip-rule="evenodd" d="M15.6996 10.8999C15.6354 11.3931 15.7356 11.8431 15.9996 12.2499C15.2412 12.6447 15.2412 12.9948 15.9996 13.2999C15.7906 13.4906 15.5904 13.6908 15.3996 13.8998H15.0996C15.1143 12.8265 15.3141 11.8266 15.6996 10.8999Z" fill="#AC7363"/>
<path fill-rule="evenodd" clip-rule="evenodd" d="M11.1998 9.3999L11.7998 9.6999C11.5565 11.14 11.1541 12.5486 10.5998 13.8998C10.4484 13.4115 10.3478 12.9088 10.2998 12.3998C10.4438 11.6484 10.7438 10.9485 11.1998 10.2999C10.4123 9.98969 10.4123 9.6897 11.1998 9.3999Z" fill="#C08B7B"/>
<path fill-rule="evenodd" clip-rule="evenodd" d="M16.9004 10.3H17.5004C17.798 10.2484 17.9978 10.3486 18.1004 10.6C17.3108 11.0101 17.411 11.26 18.4004 11.35C17.9129 11.6056 17.813 11.9056 18.1004 12.25L17.2004 12.55C17.4344 12.8719 17.3843 13.222 17.0504 13.6C16.9009 12.5068 16.8507 11.4023 16.9004 10.3Z" fill="#A16552"/>
<path fill-rule="evenodd" clip-rule="evenodd" d="M14.1995 7.8999V8.79989C13.7258 9.31888 13.226 9.86907 12.6995 10.4499C12.9384 10.5395 13.1466 10.6956 13.2995 10.8998C12.3401 11.4296 12.1403 12.1796 12.6995 13.1498C12.614 13.7168 12.314 14.1167 11.7995 14.3498C11.8679 14.4695 11.9681 14.5193 12.0995 14.4998C11.9969 14.7512 11.7971 14.8514 11.4995 14.7998C11.6323 13.1237 11.9338 11.4654 12.3995 9.84987C12.3166 9.78238 12.2199 9.73395 12.1162 9.70803C12.0125 9.68211 11.9044 9.67932 11.7995 9.69987C12.1418 9.44817 12.5417 9.24808 12.9995 9.09988C13.2782 8.74319 13.3781 8.34329 13.2995 7.8999H14.1995Z" fill="#BD8A78"/>
<path fill-rule="evenodd" clip-rule="evenodd" d="M15.1 13.8997C14.77 14.2291 14.3699 14.2792 13.9001 14.0497L14.5001 12.8497L14.2001 12.6997C13.7921 13.0369 13.4921 13.4371 13.3001 13.8997C13.2537 12.9778 13.4072 12.0568 13.7501 11.1997C14.0108 10.3316 14.5607 9.98177 15.4 10.1498L14.95 10.5998C14.8772 11.6098 14.7267 12.6127 14.5001 13.5997C14.6371 13.8388 14.8372 13.9387 15.1 13.8997Z" fill="#C48E7A"/>
<path fill-rule="evenodd" clip-rule="evenodd" d="M21.7002 9.99976H22.3002C22.9701 10.8511 23.5719 11.7539 24.1002 12.6997C23.6964 14.4421 24.3464 15.5419 26.0501 15.9996C26.195 16.284 26.2451 16.584 26.2001 16.8996C25.7375 16.6596 25.2374 16.5594 24.7001 16.5996C24.0381 16.4106 23.538 16.0104 23.2002 15.3997C22.7976 15.0118 22.2975 14.7619 21.7002 14.6497C22.1838 14.4337 22.6338 14.4835 23.0502 14.7997C23.2563 13.3183 22.8063 12.0682 21.7002 11.0497C22.0554 10.7062 22.0554 10.3561 21.7002 9.99976Z" fill="#EAB395"/>
<path fill-rule="evenodd" clip-rule="evenodd" d="M18.9995 7.59985C20.6539 8.08381 22.3779 8.28662 24.0994 8.19984C24.7804 8.35134 25.1803 8.75123 25.2994 9.39982C25.2208 9.84321 25.3207 10.2431 25.5994 10.5998C26.6914 11.5409 27.4915 12.641 27.9994 13.8997H29.4993C29.6433 14.6512 29.9433 15.3511 30.3993 15.9997C30.5364 16.2388 30.7365 16.3387 30.9993 16.2997V18.0997C30.6195 17.9227 30.2193 17.7727 29.7993 17.6497L30.3993 17.3497L29.1993 17.0497L29.4993 16.7497C29.2226 16.6061 28.9076 16.5536 28.5993 16.5997V14.7997H27.6994C27.5185 13.672 27.0184 12.7223 26.1994 11.9498C25.5372 11.6588 24.8227 11.5057 24.0994 11.4998V12.6998C23.5712 11.7539 22.9693 10.8512 22.2995 9.99981C21.4547 8.82953 20.3546 8.02945 18.9995 7.59985Z" fill="#AB9983"/>
<path fill-rule="evenodd" clip-rule="evenodd" d="M26.4994 9.09985C26.6092 9.45835 26.8591 9.65814 27.2494 9.69984C28.0053 9.30325 28.1553 9.50335 27.6993 10.2998C27.9468 10.5656 28.2468 10.6655 28.5993 10.5998C28.4805 11.4944 28.6806 12.2945 29.1993 12.9998C29.1386 13.1725 29.0354 13.3273 28.8993 13.4498C29.7834 13.4834 30.1833 13.9334 30.0993 14.7998H30.9993V16.2997C30.7365 16.3387 30.5364 16.2388 30.3993 15.9997C29.9433 15.3511 29.6433 14.6513 29.4993 13.8998H27.9993C27.4915 12.641 26.6914 11.5409 25.5994 10.5998C25.3207 10.2431 25.2208 9.84324 25.2994 9.39985L26.4994 9.09985Z" fill="#AE9C8D"/>
<path fill-rule="evenodd" clip-rule="evenodd" d="M11.7998 9.69987C11.9047 9.67932 12.0128 9.6821 12.1165 9.70803C12.2202 9.73395 12.3169 9.78238 12.3998 9.84987C11.9341 11.4654 11.6326 13.1237 11.4998 14.7998C11.2556 15.3317 10.8554 15.4817 10.2998 15.2498C10.4666 15.1349 10.5668 14.9849 10.5998 14.7998C10.4717 14.5712 10.4717 14.2712 10.5998 13.8998C11.1541 12.5486 11.5565 11.14 11.7998 9.69987Z" fill="#875345"/>
<path fill-rule="evenodd" clip-rule="evenodd" d="M14.1998 8.80005C14.1537 9.10835 14.2062 9.42333 14.3498 9.70003C14.5508 9.47444 14.801 9.37424 15.0997 9.40004C16.0399 9.58243 16.24 10.0822 15.6997 10.9C15.3142 11.8267 15.1144 12.8266 15.0997 13.9C14.837 13.939 14.6369 13.8391 14.4998 13.6C14.7264 12.613 14.8769 11.6101 14.9497 10.6L15.3997 10.15C14.5604 9.98203 14.0105 10.3318 13.7498 11.2C13.4069 12.057 13.2534 12.9781 13.2998 13.9C13.0097 14.2918 12.6098 14.4918 12.0998 14.4999C11.9684 14.5194 11.8682 14.4696 11.7998 14.3499C12.3143 14.1169 12.6143 13.717 12.6998 13.15C12.1406 12.1798 12.3404 11.4298 13.2998 10.9C13.1469 10.6958 12.9387 10.5396 12.6998 10.45C13.2263 9.86923 13.7261 9.31904 14.1998 8.80005Z" fill="#8D5849"/>
<path fill-rule="evenodd" clip-rule="evenodd" d="M12.7 7.2998C12.7477 7.70604 12.6963 8.1178 12.55 8.49978C11.9866 8.66568 11.5366 8.96568 11.2 9.39977C10.4125 9.68956 10.4125 9.98956 11.2 10.2998C10.744 10.9483 10.444 11.6482 10.3 12.3997C10.0382 13.1154 9.73774 13.8164 9.40006 14.4997C9.18347 14.3746 9.03347 14.1745 8.95007 13.8997C8.46888 14.7238 8.21868 15.6238 8.20008 16.5996C8.79497 16.7025 9.19517 16.5024 9.40006 15.9997L10.0001 15.6997C10.237 15.97 10.537 16.17 10.9 16.2996C9.14087 17.157 7.64089 18.357 6.40012 19.8996C6.07822 19.6746 6.02812 19.3746 6.25012 18.9996C7.73449 17.775 8.33448 16.1748 8.05009 14.1997C8.79017 13.2295 9.13997 12.1297 9.10007 10.8997C10.2472 9.55246 11.4472 8.35249 12.7 7.2998Z" fill="#D0A28D"/>
<path fill-rule="evenodd" clip-rule="evenodd" d="M18.7 8.1999C18.5209 8.2704 18.421 8.42039 18.4 8.64989C18.502 9.81777 19.1019 10.3179 20.1999 10.1499C19.3797 9.93447 19.1799 9.48447 19.5999 8.79989C20.1525 9.30148 20.7525 9.70167 21.3999 9.99986H21.6999C22.0551 10.3563 22.0551 10.7064 21.6999 11.0498C22.806 12.0683 23.256 13.3184 23.0499 14.7998C22.6335 14.4836 22.1835 14.4338 21.6999 14.6498C22.2972 14.762 22.7973 15.0119 23.1999 15.3998H21.3999C20.9193 14.9276 20.3193 14.7278 19.5999 14.7998H16C16.699 14.5547 17.449 14.3546 18.25 14.1998C19.3437 14.576 20.3937 14.576 21.3999 14.1998C21.9564 14.2682 22.2063 14.0681 22.1499 13.5998C21.7167 13.1033 21.1665 12.9032 20.4999 12.9998C20.5026 12.4574 20.3526 11.9573 20.0499 11.4998C19.3254 11.3102 18.6754 11.0102 18.1 10.5999C17.9974 10.3485 17.7976 10.2483 17.5 10.2999C17.1706 10.0308 17.1706 9.78087 17.5 9.54987L16 9.24988C16.3294 9.01888 16.3294 8.76899 16 8.49989C16.7718 8.39306 17.5275 8.19155 18.25 7.8999C18.4795 7.9209 18.6295 8.0208 18.7 8.1999Z" fill="#E9AA8E"/>
<path fill-rule="evenodd" clip-rule="evenodd" d="M16.9004 10.2999C16.8507 11.4022 16.9009 12.5067 17.0504 13.5999C17.3843 13.2219 17.4344 12.8718 17.2004 12.5499L18.1003 12.2499C17.8129 11.9055 17.9128 11.6055 18.4003 11.3499C17.411 11.2599 17.3108 11.01 18.1003 10.5999C18.6757 11.0103 19.3258 11.3103 20.0503 11.4999C20.353 11.9574 20.503 12.4575 20.5003 12.9999C21.1669 12.9033 21.7171 13.1034 22.1503 13.5999C22.2067 14.0682 21.9568 14.2683 21.4003 14.1999C20.7298 14.2884 20.1298 14.1882 19.6003 13.8999C19.7794 13.8294 19.8793 13.6794 19.9003 13.4499C19.2124 11.6253 18.9124 11.6754 19.0003 13.5999C18.7633 13.2675 18.6133 12.8673 18.5503 12.3999C18.4041 12.7819 18.3526 13.1936 18.4003 13.5999C17.4148 13.812 16.4085 13.9126 15.4004 13.8999C15.5911 13.6908 15.7913 13.4906 16.0004 13.2999C15.242 12.9948 15.242 12.6447 16.0004 12.2499C15.7364 11.8431 15.6362 11.3931 15.7004 10.8999C16.1783 10.6455 16.5284 10.2456 16.7504 9.69995C16.8896 9.87815 16.9397 10.0782 16.9004 10.2999Z" fill="#D1947D"/>
<path fill-rule="evenodd" clip-rule="evenodd" d="M19.5998 13.8996C19.3022 13.9512 19.1024 13.851 18.9998 13.5996C18.9119 11.6751 19.2119 11.625 19.8998 13.4496C19.8788 13.6791 19.7789 13.8291 19.5998 13.8996Z" fill="#A3664E"/>
<path fill-rule="evenodd" clip-rule="evenodd" d="M9.3992 14.4996C9.0806 14.9796 9.0806 15.4794 9.3992 15.9996C9.1943 16.5024 8.79411 16.7025 8.19922 16.5996C8.21782 15.6237 8.46801 14.7237 8.94921 13.8997C9.0326 14.1745 9.1826 14.3745 9.3992 14.4996Z" fill="#B3826F"/>
<path fill-rule="evenodd" clip-rule="evenodd" d="M18.9994 13.5996C19.102 13.851 19.3018 13.9512 19.5994 13.8996C20.1289 14.1879 20.7289 14.2881 21.3994 14.1996C20.3932 14.5758 19.3432 14.5758 18.2494 14.1996C17.4485 14.3544 16.6985 14.5545 15.9995 14.7996C15.0209 14.3262 14.2211 14.5266 13.5995 15.3996H12.9995C12.7007 15.4254 12.4505 15.3252 12.2495 15.0996C12.0401 15.4566 11.7903 15.7566 11.4996 15.9996L10.8996 16.2996C10.5366 16.17 10.2366 15.9699 9.99959 15.6996C9.93509 15.1959 10.1352 14.8959 10.5996 14.7996C10.5666 14.9847 10.4664 15.1347 10.2996 15.2496C10.8552 15.4815 11.2554 15.3315 11.4996 14.7996C11.7972 14.8512 11.9969 14.751 12.0995 14.4996C12.6095 14.4915 13.0094 14.2914 13.2995 13.8996C13.4915 13.437 13.7915 13.0368 14.1995 12.6997L14.4995 12.8497L13.8995 14.0496C14.3693 14.2791 14.7695 14.229 15.0995 13.8996H15.3995C16.4135 13.9116 17.4137 13.8117 18.3994 13.5996C18.3517 13.1934 18.4032 12.7816 18.5494 12.3997C18.6124 12.867 18.7624 13.2672 18.9994 13.5996Z" fill="#E6AE97"/>
<path fill-rule="evenodd" clip-rule="evenodd" d="M15.9996 14.7998C15.2487 15.0608 14.4486 15.2609 13.5996 15.3998C14.2212 14.5268 15.021 14.3264 15.9996 14.7998Z" fill="#BD8773"/>
<path fill-rule="evenodd" clip-rule="evenodd" d="M31.0003 18.0996V18.9996C30.6949 19.7976 30.3949 20.5976 30.1003 21.3996C29.3967 21.4488 28.6898 21.3983 28.0003 21.2496C27.7492 20.9463 27.6493 20.5962 27.7003 20.1996C28.1038 18.7437 27.604 17.6436 26.2004 16.8997C26.2464 16.5914 26.1939 16.2764 26.0504 15.9997C24.3467 15.5419 23.6966 14.4421 24.1004 12.6997V11.4998C24.8285 11.5067 25.5284 11.6567 26.2004 11.9497C27.0194 12.7222 27.5195 13.672 27.7003 14.7997H28.6003V16.5997C28.9086 16.5536 29.2236 16.6061 29.5003 16.7497L29.2003 17.0497L30.4003 17.3497L29.8003 17.6496C30.2203 17.7726 30.6205 17.9226 31.0003 18.0996Z" fill="#A89277"/>
<path fill-rule="evenodd" clip-rule="evenodd" d="M10.3001 12.3997C10.3451 12.8925 10.445 13.3926 10.6001 13.8996C10.472 14.271 10.472 14.571 10.6001 14.7996C10.1357 14.8959 9.93557 15.1959 10.0001 15.6996L9.40008 15.9996C9.08148 15.4794 9.08148 14.9796 9.40008 14.4996C9.73775 13.8164 10.0382 13.1154 10.3001 12.3997Z" fill="#A06B5A"/>
<path fill-rule="evenodd" clip-rule="evenodd" d="M12.9995 15.3998C12.659 15.9137 12.1589 16.1138 11.4995 15.9998C11.7902 15.7568 12.0401 15.4568 12.2495 15.0999C12.4505 15.3254 12.7007 15.4256 12.9995 15.3998Z" fill="#B88270"/>
<path fill-rule="evenodd" clip-rule="evenodd" d="M19.6001 14.7997C20.3195 14.7277 20.9195 14.9275 21.4001 15.3997C21.0233 15.5209 20.6732 15.7207 20.3501 15.9997C19.3331 15.6301 19.3832 15.3799 20.5001 15.2497C20.129 15.1801 19.829 15.0301 19.6001 14.7997Z" fill="#A56D5E"/>
<path fill-rule="evenodd" clip-rule="evenodd" d="M15.9994 14.7996H17.7994C18.0277 15.0666 18.3277 15.267 18.6994 15.3995C18.9651 15.647 19.065 15.947 18.9993 16.2995C17.6995 16.3271 16.3992 16.3271 15.0994 16.2995C13.3333 17.1863 11.5334 17.8862 9.69951 18.3995C9.33712 18.6197 8.93723 18.7196 8.49954 18.6995C8.59253 19.8524 8.14254 20.2523 7.14956 19.8995C7.08656 20.3669 6.93656 20.7668 6.69957 21.0994C6.10168 20.8079 6.00178 20.408 6.39957 19.8995C7.64035 18.3569 9.14032 17.1569 10.8995 16.2995L11.4995 15.9995C12.1589 16.1135 12.659 15.9134 12.9995 15.3995H13.5994C14.4484 15.2607 15.2485 15.0606 15.9994 14.7996Z" fill="#74453A"/>
<path fill-rule="evenodd" clip-rule="evenodd" d="M17.7998 14.7996H19.5998C19.8287 15.03 20.1287 15.18 20.4998 15.2496C19.3829 15.3798 19.3328 15.6299 20.3498 15.9995C20.6729 15.7205 21.0229 15.5207 21.3997 15.3995L21.6997 15.9995C20.9213 16.2291 20.1107 16.3304 19.2998 16.2995H18.9998C19.0655 15.947 18.9656 15.647 18.6998 15.3995C18.3281 15.267 18.0281 15.0666 17.7998 14.7996Z" fill="#8A584B"/>
<path fill-rule="evenodd" clip-rule="evenodd" d="M21.3994 15.3997H23.1994C23.5372 16.0104 24.0373 16.4106 24.6994 16.5996C24.0356 16.5627 23.3714 16.6649 22.7494 16.8996C22.1644 16.8375 21.8146 16.5375 21.6994 15.9996L21.3994 15.3997Z" fill="#A26C5A"/>
<path opacity="0.963" fill-rule="evenodd" clip-rule="evenodd" d="M12.3998 6.0998L12.9998 6.69979L12.6998 7.29978C11.447 8.35246 10.247 9.55244 9.09986 10.8997C8.61476 11.3857 8.26467 11.9857 8.04987 12.6997C7.77279 14.195 7.52276 15.6952 7.29989 17.1996C6.80338 17.8465 6.25129 18.4488 5.64992 18.9996C5.50119 19.689 5.45069 20.396 5.49992 21.0995H3.99995C3.87095 22.1945 4.17094 23.1446 4.89993 23.9495C4.22524 24.6725 4.42534 25.2224 5.49992 25.5995C5.25242 25.8652 4.95243 25.9651 4.59994 25.8994C2.84497 23.8895 1.64499 21.5894 1 18.9996V13.2997C1.48389 13.4329 1.83399 13.7329 2.04998 14.1997C2.19998 13.8496 2.44987 13.5997 2.79997 13.4497C2.36318 13.3228 2.21318 13.0729 2.34998 12.6997C2.90571 12.5159 3.45594 12.3158 3.99995 12.0997L3.39996 11.4997L3.69995 11.1997C4.55764 10.7344 5.45762 10.4344 6.3999 10.2997C6.35502 9.78137 6.4591 9.26097 6.6999 8.79975C7.52968 8.31106 8.42967 8.11126 9.39985 8.19976C9.34885 7.80317 9.44875 7.45308 9.69984 7.14978C10.5419 6.77908 11.3457 6.32694 12.0998 5.7998C12.2819 5.837 12.3818 5.9369 12.3998 6.0998Z" fill="#A1978B"/>
<path fill-rule="evenodd" clip-rule="evenodd" d="M18.9994 16.2998H19.2994C20.2981 16.5629 21.1981 17.063 21.9994 17.7998C22.7455 17.7152 23.5453 17.7152 24.3993 17.7998C25.0851 18.2723 25.1853 18.8723 24.6993 19.5997C24.4827 19.2845 24.1827 19.0844 23.7993 18.9998C20.6011 16.8566 17.201 16.5065 13.5995 17.9498C12.0407 18.8035 10.5377 19.7554 9.09961 20.7997C9.33814 20.0099 9.53837 19.2089 9.6996 18.3998C11.5335 17.8865 13.3334 17.1866 15.0995 16.2998C16.4168 16.3274 17.717 16.3274 18.9994 16.2998Z" fill="#57332A"/>
<path fill-rule="evenodd" clip-rule="evenodd" d="M21.6998 15.9998C21.815 16.5376 22.1648 16.8376 22.7497 16.8997C23.3717 16.665 24.0359 16.5628 24.6997 16.5997C24.8023 16.8511 25.0021 16.9513 25.2997 16.8997C24.967 17.1367 24.5671 17.2867 24.0997 17.3497C24.2665 17.4646 24.3667 17.6146 24.3997 17.7997C23.5456 17.7151 22.7458 17.7151 21.9998 17.7997C21.1985 17.0629 20.2985 16.5628 19.2998 16.2998C20.1108 16.3306 20.9214 16.2293 21.6998 15.9998Z" fill="#6D4237"/>
<path fill-rule="evenodd" clip-rule="evenodd" d="M23.7993 18.9998C23.479 19.28 23.0791 19.3802 22.5994 19.2998C22.2679 18.9698 21.868 18.7697 21.3994 18.6998C20.7217 18.0233 19.8718 17.7233 18.8494 17.7998C17.2897 17.9154 15.7375 18.1157 14.1995 18.3998C13.0616 18.6203 12.1617 19.2203 11.4996 20.1997C11.8563 20.4784 12.2562 20.5783 12.6995 20.4997L11.7996 21.0997C11.096 21.0505 10.389 21.101 9.6996 21.2497C9.5328 21.3646 9.4326 21.5146 9.3996 21.6997H9.09961V20.7997C10.5377 19.7554 12.0407 18.8035 13.5995 17.9498C17.201 16.5065 20.6011 16.8566 23.7993 18.9998Z" fill="#35180D"/>
<path fill-rule="evenodd" clip-rule="evenodd" d="M25.2991 16.8997C26.4031 17.4975 27.103 18.3975 27.3991 19.5996C27.0751 20.0631 27.0751 20.5131 27.3991 20.9496C27.3574 21.3399 27.1576 21.5898 26.7991 21.6996C26.413 20.421 26.1124 19.1181 25.8991 17.7996H24.3991C24.3661 17.6145 24.2659 17.4645 24.0991 17.3497C24.5665 17.2867 24.9664 17.1367 25.2991 16.8997Z" fill="#895B4A"/>
<path fill-rule="evenodd" clip-rule="evenodd" d="M24.6997 16.5997C25.237 16.5595 25.7371 16.6597 26.1997 16.8997C27.6034 17.6437 28.1031 18.7438 27.6997 20.1996C27.7513 19.902 27.6511 19.7022 27.3997 19.5996C27.1036 18.3976 26.4037 17.4976 25.2997 16.8997C25.0021 16.9513 24.8023 16.8511 24.6997 16.5997Z" fill="#C69E89"/>
<path fill-rule="evenodd" clip-rule="evenodd" d="M21.4001 18.6997C19.6802 18.4186 18.2801 18.9187 17.2001 20.1997C16.6161 19.1143 15.7161 18.5143 14.5002 18.3997H14.2002C15.7382 18.1157 17.2904 17.9154 18.8501 17.7997C19.8725 17.7232 20.7224 18.0232 21.4001 18.6997Z" fill="#45290F"/>
<path fill-rule="evenodd" clip-rule="evenodd" d="M14.4995 18.3997C15.7154 18.5143 16.6154 19.1142 17.1995 20.1996C18.2794 18.9186 19.6795 18.4186 21.3994 18.6997C21.7924 19.194 22.1923 19.6938 22.5994 20.1996C22.4623 20.4387 22.2622 20.5386 21.9994 20.4996C22.0084 20.2005 21.8584 20.0004 21.5494 19.8996C21.1174 20.094 20.6674 20.1936 20.1994 20.1996C20.3023 19.6047 20.1022 19.2045 19.5994 18.9996C19.3006 18.9738 19.0504 19.074 18.8494 19.2996L18.5494 20.7996C18.3826 20.6438 18.1742 20.5396 17.9495 20.4996C17.0171 20.7897 16.1672 21.1896 15.3995 21.6996C15.464 21.1959 15.2639 20.8959 14.7995 20.7996C15.2735 20.307 15.4739 19.707 15.3995 18.9996C15.0122 19.0707 14.7122 18.9708 14.4995 18.6997V18.3997Z" fill="#5C4120"/>
<path fill-rule="evenodd" clip-rule="evenodd" d="M14.1995 18.3997H14.4995V18.6997H13.5995C13.7117 19.4218 13.9133 20.1272 14.1995 20.7996C13.7369 20.5596 13.2368 20.4594 12.6995 20.4996C12.2561 20.5782 11.8562 20.4783 11.4995 20.1996C12.1616 19.2201 13.0616 18.6202 14.1995 18.3997Z" fill="#48301E"/>
<path fill-rule="evenodd" clip-rule="evenodd" d="M14.4996 18.6997C14.7123 18.9709 15.0123 19.0708 15.3996 18.9997C15.474 19.7071 15.2736 20.3071 14.7996 20.7997H14.1996C13.9134 20.1272 13.7119 19.4218 13.5996 18.6997H14.4996Z" fill="#5D472C"/>
<path fill-rule="evenodd" clip-rule="evenodd" d="M23.7996 18.9998C24.183 19.0844 24.483 19.2845 24.6996 19.5997C25.2792 20.0425 25.3791 20.5426 24.9996 21.0997C24.5028 20.0653 23.703 19.4653 22.5996 19.2998C23.0793 19.3801 23.4792 19.28 23.7996 18.9998Z" fill="#472613"/>
<path fill-rule="evenodd" clip-rule="evenodd" d="M21.3994 18.6997C21.868 18.7696 22.2679 18.9697 22.5994 19.2997C23.7028 19.4653 24.5026 20.0653 24.9993 21.0997H24.0994C23.0785 21.2716 22.1785 21.6715 21.3994 22.2996C21.6974 21.8981 21.9974 21.4981 22.2994 21.0997C22.0904 20.9089 21.8902 20.7087 21.6994 20.4997H21.9994C22.2622 20.5387 22.4623 20.4388 22.5994 20.1997C22.1923 19.6939 21.7924 19.1941 21.3994 18.6997Z" fill="#513616"/>
<path fill-rule="evenodd" clip-rule="evenodd" d="M9.70014 18.3997C9.53891 19.2088 9.33868 20.0098 9.10015 20.7996V21.6996C9.06242 22.2101 8.96166 22.7139 8.80016 23.1996V23.7996H7.90017C7.63438 23.133 7.63438 22.4832 7.90017 21.8496L7.60018 21.3996C7.04009 22.2186 6.74009 22.1184 6.7002 21.0996C6.93719 20.7669 7.08719 20.367 7.15019 19.8996C8.14317 20.2524 8.59316 19.8525 8.50016 18.6997C8.93786 18.7198 9.33775 18.6199 9.70014 18.3997Z" fill="#5A3223"/>
<path fill-rule="evenodd" clip-rule="evenodd" d="M19.6004 18.9998C20.1032 19.2047 20.3033 19.6048 20.2004 20.1997C20.6684 20.1937 21.1183 20.0941 21.5503 19.8997C21.8593 20.0005 22.0093 20.2006 22.0003 20.4997H21.7003C20.7613 20.3221 20.0612 20.6221 19.6004 21.3997C18.8663 20.5984 18.8663 19.7983 19.6004 18.9998Z" fill="#644F32"/>
<path fill-rule="evenodd" clip-rule="evenodd" d="M19.6 18.9996C18.8659 19.7982 18.8659 20.5982 19.6 21.3995V21.9995C18.5011 22.1351 17.401 22.2851 16.3 22.4495C15.6541 22.4795 15.154 22.7294 14.8 23.1995C14.4479 23.5037 14.2481 23.9036 14.2001 24.3995C14 24.3995 13.9001 24.4994 13.9001 24.6995C13.6025 24.6479 13.4027 24.7481 13.3001 24.9995C12.7289 24.9281 12.3287 24.6281 12.1001 24.0995C12.5912 24.3149 13.091 24.365 13.6001 24.2495C14.0426 23.2622 14.6426 22.412 15.4 21.6995C16.1677 21.1895 17.0176 20.7896 17.95 20.4995C18.1747 20.5395 18.3831 20.6437 18.55 20.7995L18.85 19.2996C19.051 19.074 19.3012 18.9738 19.6 18.9996Z" fill="#6B4C22"/>
<path fill-rule="evenodd" clip-rule="evenodd" d="M24.3994 17.7998H25.8994C26.1127 19.1183 26.4133 20.4211 26.7994 21.6997C26.7994 21.8998 26.6995 21.9997 26.4994 21.9997C25.9192 21.8167 25.4194 21.5167 24.9994 21.0997C25.3789 20.5427 25.279 20.0426 24.6994 19.5998C25.1854 18.8723 25.0852 18.2723 24.3994 17.7998Z" fill="#643D2A"/>
<path fill-rule="evenodd" clip-rule="evenodd" d="M12.6998 20.4996C13.2371 20.4594 13.7372 20.5596 14.1998 20.7996C15.0736 21.6759 14.8735 22.176 13.5998 22.2996C12.6848 22.344 12.0848 21.9438 11.7998 21.0996L12.6998 20.4996Z" fill="#140805"/>
<path fill-rule="evenodd" clip-rule="evenodd" d="M21.7001 20.4997C21.8771 20.695 22.0772 20.8951 22.3 21.0997C21.998 21.4982 21.698 21.8982 21.4001 22.2997C20.7641 22.3522 20.1641 22.252 19.6001 21.9997V21.3997C20.0609 20.6221 20.7611 20.3221 21.7001 20.4997Z" fill="#190D06"/>
<path fill-rule="evenodd" clip-rule="evenodd" d="M24.0991 21.3996V21.0996H24.9991C25.4191 21.5166 25.9189 21.8166 26.4991 21.9996C26.4991 22.1997 26.3992 22.2996 26.1991 22.2996L24.9991 23.1996C25.123 22.3536 24.823 21.7536 24.0991 21.3996Z" fill="#78563F"/>
<path fill-rule="evenodd" clip-rule="evenodd" d="M6.6996 21.0996C6.7395 22.1184 7.03949 22.2186 7.59958 21.3996L7.89958 21.8496C7.63378 22.4832 7.63378 23.133 7.89958 23.7996H8.79956C8.58686 24.0708 8.28687 24.1707 7.89958 24.0996C6.8094 23.7576 6.20941 23.0076 6.09961 21.8496C6.14131 21.4593 6.34111 21.2094 6.6996 21.0996Z" fill="#694431"/>
<path fill-rule="evenodd" clip-rule="evenodd" d="M14.1993 20.7996H14.7993C15.2637 20.8959 15.4638 21.1959 15.3993 21.6995C14.6418 22.412 14.0418 23.2622 13.5993 24.2495C13.0902 24.365 12.5905 24.3149 12.0994 24.0995C11.4169 23.3645 10.9171 22.5149 10.5994 21.5495C10.2034 21.491 9.80351 21.5411 9.39941 21.6995C9.43241 21.5144 9.53261 21.3645 9.69941 21.2496C10.3888 21.1008 11.0958 21.0503 11.7994 21.0996C12.0844 21.9437 12.6844 22.3439 13.5993 22.2995C14.8731 22.1759 15.0732 21.6758 14.1993 20.7996Z" fill="#50371B"/>
<path fill-rule="evenodd" clip-rule="evenodd" d="M24.1 21.0996V21.3996C23.8486 21.5022 23.7484 21.702 23.8 21.9996C23.1271 22.4166 22.477 22.9167 21.8501 23.4996C21.2281 23.2648 20.5639 23.1626 19.9001 23.1996C19.9517 22.902 19.8515 22.7022 19.6001 22.5996V21.9996C20.1641 22.2519 20.7641 22.3521 21.4001 22.2996C22.1792 21.6714 23.0791 21.2715 24.1 21.0996Z" fill="#775A2E"/>
<path fill-rule="evenodd" clip-rule="evenodd" d="M12.0997 24.0995C11.0219 23.8205 10.5218 23.1206 10.5998 21.9995C10.2915 21.9535 9.97649 22.0059 9.69979 22.1495C9.50089 22.6052 9.2009 22.955 8.7998 23.1995C8.96131 22.7138 9.06207 22.21 9.0998 21.6995H9.39979C9.80389 21.5411 10.2038 21.491 10.5998 21.5495C10.9175 22.5149 11.4173 23.3645 12.0997 24.0995Z" fill="#64492E"/>
<path fill-rule="evenodd" clip-rule="evenodd" d="M24.0993 21.3997C24.8232 21.7537 25.1232 22.3536 24.9993 23.1996L23.7993 22.2996V21.9996C23.7477 21.7021 23.8479 21.5023 24.0993 21.3997Z" fill="#947B57"/>
<path fill-rule="evenodd" clip-rule="evenodd" d="M19.5997 21.9995V22.5995C18.0037 22.8215 16.4036 23.0213 14.7998 23.1995C15.1538 22.7294 15.6539 22.4795 16.2998 22.4495C17.4008 22.2851 18.5008 22.1351 19.5997 21.9995Z" fill="#87612E"/>
<path opacity="0.934" fill-rule="evenodd" clip-rule="evenodd" d="M27.3999 19.5996C27.6513 19.7022 27.7515 19.902 27.6999 20.1996C27.6489 20.5962 27.7488 20.9463 27.9999 21.2496C28.6929 21.3987 29.3927 21.4485 30.0998 21.3996C29.8268 22.4472 29.327 23.3471 28.5999 24.0995C28.0348 23.9435 27.4831 23.7429 26.9499 23.4995C26.3679 23.8898 26.0181 23.69 25.8999 22.8996C26.0088 22.6947 26.1087 22.4946 26.1999 22.2996C26.4 22.2996 26.4999 22.1997 26.4999 21.9996C26.7 21.9996 26.7999 21.8997 26.7999 21.6996C27.1584 21.5898 27.3582 21.3399 27.3999 20.9496C27.0759 20.5131 27.0759 20.0631 27.3999 19.5996Z" fill="#958168"/>
<path fill-rule="evenodd" clip-rule="evenodd" d="M19.6001 22.5996C19.8515 22.7022 19.9517 22.902 19.9001 23.1996C19.6976 23.1047 19.4975 23.0046 19.3001 22.8996C18.0569 23.385 16.7567 23.6349 15.4002 23.6496C14.9665 23.8411 14.5624 24.0936 14.2002 24.3996C14.2482 23.9037 14.448 23.5038 14.8002 23.1996C16.404 23.0214 18.0041 22.8216 19.6001 22.5996Z" fill="#9C743B"/>
<path fill-rule="evenodd" clip-rule="evenodd" d="M23.8004 22.2996L25.0004 23.1995C25.0622 24.098 24.8624 24.8981 24.4004 25.5995V23.7995H22.9004C23.0363 23.18 23.3363 22.68 23.8004 22.2996Z" fill="#B0986F"/>
<path fill-rule="evenodd" clip-rule="evenodd" d="M23.7993 21.9995V22.2995C23.3353 22.6799 23.0353 23.18 22.8994 23.7995C22.3755 24.0652 21.8215 24.2666 21.2494 24.3995C20.8192 24.2909 20.4694 24.0911 20.1994 23.7995L19.8994 23.1995C20.5696 23.1635 21.2197 23.2634 21.8494 23.4995C22.4764 22.9166 23.1265 22.4165 23.7993 21.9995Z" fill="#96713B"/>
<path fill-rule="evenodd" clip-rule="evenodd" d="M19.8993 23.1997L20.1993 23.7996C19.9002 24.8907 19.4001 25.0908 18.6993 24.3996C17.5896 23.6301 16.4899 23.6301 15.3994 24.3996L15.0994 24.9996V25.2996H14.7994C14.7082 24.6108 14.4082 24.5109 13.8994 24.9996V24.6996C13.8994 24.4995 13.9993 24.3996 14.1994 24.3996C14.5616 24.0937 14.9657 23.8411 15.3994 23.6496C16.756 23.6349 18.0561 23.385 19.2993 22.8997C19.5045 23.0086 19.7043 23.1085 19.8993 23.1997Z" fill="#B48E51"/>
<path fill-rule="evenodd" clip-rule="evenodd" d="M18.7003 24.3996H15.4004C16.4909 23.6301 17.5907 23.6301 18.7003 24.3996Z" fill="#CCA769"/>
<path opacity="0.899" fill-rule="evenodd" clip-rule="evenodd" d="M5.49977 21.0996C5.41397 22.6092 5.81416 23.9592 6.69975 25.1495L6.39975 25.4495C6.76318 25.6832 7.17228 25.8366 7.59973 25.8995C7.95792 26.0405 8.15772 26.3405 8.19972 26.7995C8.09772 27.4031 7.99782 28.0031 7.89973 28.5995C6.53685 28.0379 5.43677 27.1379 4.59978 25.8995C4.95228 25.9652 5.25227 25.8653 5.49977 25.5995C4.42519 25.2224 4.22509 24.6725 4.89978 23.9496C4.17079 23.1447 3.8708 22.1946 3.9998 21.0996H5.49977Z" fill="#9F907F"/>
<path fill-rule="evenodd" clip-rule="evenodd" d="M12.3995 25.5996C11.6757 25.1346 10.8756 24.9345 9.99959 24.9996C10.3224 26.1678 10.7226 27.2679 11.1996 28.2996C10.4565 27.6176 9.84621 26.8039 9.3996 25.8996C9.11911 25.1157 9.06901 24.3156 9.24961 23.4996C9.45179 23.2463 9.70803 23.0413 9.99959 22.8997C10.8216 23.8191 11.6217 24.7191 12.3995 25.5996Z" fill="#7C6A4C"/>
<path fill-rule="evenodd" clip-rule="evenodd" d="M12.1003 24.0996C12.3289 24.6282 12.7291 24.9282 13.3003 24.9996C13.3297 25.824 13.0297 26.0238 12.4003 25.5996C11.6224 24.7191 10.8223 23.8191 10.0004 22.8996C9.70879 23.0413 9.45255 23.2462 9.25037 23.4996C9.06977 24.3156 9.11987 25.1157 9.40036 25.8996C9.21317 26.0247 9.11327 26.2248 9.10037 26.4996C9.44011 27.7188 9.84061 28.9203 10.3003 30.0995C9.93735 29.9699 9.63736 29.7698 9.40036 29.4995C8.93477 28.265 8.68488 26.9651 8.65038 25.5996C8.22528 25.4262 7.97539 25.1262 7.90039 24.6996V24.0996C8.28768 24.1707 8.58768 24.0708 8.80037 23.7996V23.1996C9.20147 22.9551 9.50146 22.6053 9.70036 22.1496C9.97706 22.0061 10.292 21.9536 10.6003 21.9996C10.5223 23.1207 11.0224 23.8206 12.1003 24.0996Z" fill="#765C3E"/>
<path opacity="0.989" fill-rule="evenodd" clip-rule="evenodd" d="M26.1994 22.2996C26.1082 22.4946 26.0083 22.6947 25.8994 22.8995C26.0176 23.69 26.3674 23.8898 26.9494 23.4995C27.4826 23.7429 28.0343 23.9436 28.5993 24.0995C27.7216 25.8779 26.4214 27.2777 24.6994 28.2995C24.7912 27.434 24.6913 26.6339 24.3994 25.8995V25.5995C24.8614 24.8981 25.0612 24.098 24.9994 23.1995L26.1994 22.2996Z" fill="#867559"/>
<path fill-rule="evenodd" clip-rule="evenodd" d="M9.09954 10.8999C9.13944 12.1299 8.78965 13.2297 8.04956 14.1998C8.33396 16.175 7.73397 17.7752 6.24959 18.9998C6.0276 19.3748 6.0777 19.6747 6.39959 19.8997C6.0018 20.4082 6.1017 20.8081 6.69958 21.0997C6.34109 21.2095 6.14129 21.4594 6.0996 21.8497C6.20939 23.0077 6.80938 23.7577 7.89956 24.0997V24.6997C7.61937 25.0201 7.51917 25.4199 7.59957 25.8996C7.17212 25.8367 6.76302 25.6833 6.39959 25.4496L6.69958 25.1496C5.814 23.9593 5.41381 22.6093 5.49961 21.0997C5.45071 20.3926 5.50051 19.6927 5.6496 18.9998C6.25098 18.449 6.80307 17.8467 7.29957 17.1998C7.52244 15.6954 7.77248 14.1952 8.04956 12.6999C8.26436 11.9859 8.61445 11.3859 9.09954 10.8999Z" fill="#A89080"/>
<path fill-rule="evenodd" clip-rule="evenodd" d="M13.8999 24.6997V24.9997C13.5234 25.6054 13.4232 26.2054 13.5999 26.7996C13.8294 26.466 14.1294 26.266 14.4999 26.1997C14.2359 27.288 13.7358 28.2381 12.9999 29.0496C13.1631 29.2647 13.3629 29.4147 13.5999 29.4996C13.5999 29.8995 13.3998 30.0996 12.9999 30.0996C12.1186 29.763 11.5186 29.163 11.2 28.2996C10.723 27.2679 10.3228 26.1679 10 24.9997C10.876 24.9346 11.6761 25.1347 12.4 25.5997C13.0293 26.0239 13.3293 25.8241 13.2999 24.9997C13.4025 24.7483 13.6023 24.6481 13.8999 24.6997Z" fill="#877555"/>
<path fill-rule="evenodd" clip-rule="evenodd" d="M16.2994 25.5996C18.2815 25.0743 19.0315 25.7742 18.5494 27.6995C18.2461 27.9506 17.896 28.0505 17.4994 27.9995C17.4484 28.3961 17.5483 28.7462 17.7994 29.0495C17.2993 29.2496 16.7995 29.2496 16.2994 29.0495C16.5955 28.2839 16.2955 27.8339 15.3994 27.6995C15.3505 27.0954 15.4011 26.4873 15.5494 25.8996C15.7504 25.674 16.0006 25.5738 16.2994 25.5996Z" fill="#100E09"/>
<path fill-rule="evenodd" clip-rule="evenodd" d="M22.8994 23.7998H24.3994V25.8998C24.0994 25.9997 23.8993 26.1998 23.7994 26.4998C23.3368 26.7398 22.8367 26.84 22.2994 26.7998C22.4056 27.6976 22.1056 27.9976 21.3994 27.6997C21.4033 26.1653 21.9034 24.8654 22.8994 23.7998Z" fill="#C1AE89"/>
<path fill-rule="evenodd" clip-rule="evenodd" d="M7.8996 24.6997C7.9746 25.1263 8.22449 25.4263 8.64959 25.5997C8.68409 26.9653 8.93398 28.2651 9.39957 29.4996C8.74738 29.4246 8.24759 29.1246 7.8996 28.5996C7.9977 28.0032 8.0976 27.4033 8.19959 26.7997C8.15759 26.3407 7.9578 26.0407 7.5996 25.8997C7.51921 25.42 7.6194 25.0201 7.8996 24.6997Z" fill="#9C8365"/>
<path fill-rule="evenodd" clip-rule="evenodd" d="M14.7992 25.2996C14.7856 25.6218 14.6817 25.9337 14.4992 26.1996C14.1287 26.2659 13.8287 26.466 13.5992 26.7996C13.4225 26.2053 13.5227 25.6053 13.8992 24.9996C14.408 24.5109 14.708 24.6108 14.7992 25.2996Z" fill="#B0996F"/>
<path fill-rule="evenodd" clip-rule="evenodd" d="M20.1995 23.7998C20.4695 24.0914 20.8193 24.2912 21.2495 24.3998C21.8216 24.2669 22.3756 24.0655 22.8995 23.7998C21.9035 24.8654 21.4034 26.1653 21.3995 27.6997C20.9933 27.7475 20.5815 27.696 20.1995 27.5497C20.0099 26.8253 19.7099 26.1752 19.2995 25.5998C19.2995 25.3997 19.1996 25.2998 18.9995 25.2998C17.7594 25.0043 16.4592 24.9044 15.0996 24.9998L15.3996 24.3998H18.6995C19.4003 25.091 19.9004 24.8909 20.1995 23.7998Z" fill="#B49A69"/>
<path fill-rule="evenodd" clip-rule="evenodd" d="M14.8 25.2996H15.1V29.1995C14.5255 29.1143 14.0257 29.2142 13.6 29.4995C13.363 29.4146 13.1632 29.2646 13 29.0495C13.7359 28.238 14.236 27.2879 14.5 26.1995C14.6824 25.9336 14.7864 25.6218 14.8 25.2996Z" fill="#695B43"/>
<path fill-rule="evenodd" clip-rule="evenodd" d="M18.9995 25.2996C19.1996 25.2996 19.2995 25.3995 19.2995 25.5996C19.2332 26.4332 19.3331 27.233 19.5995 27.9995C19.8215 28.5423 20.125 29.0482 20.4995 29.4995C20.3624 29.7386 20.1623 29.8385 19.8995 29.7995C19.8281 29.2283 19.5281 28.8281 18.9995 28.5995V25.2996Z" fill="#61553F"/>
<path fill-rule="evenodd" clip-rule="evenodd" d="M16.2995 25.5995C17.1356 25.3064 18.0356 25.2065 18.9995 25.2995V29.4994C17.8972 29.5491 16.7927 29.4989 15.6995 29.3494C15.4277 28.8394 15.3275 28.2895 15.3995 27.6994C16.2956 27.8338 16.5956 28.2838 16.2995 29.0494C16.7996 29.2495 17.2994 29.2495 17.7995 29.0494C17.5484 28.7461 17.4485 28.396 17.4995 27.9994C17.8961 28.0504 18.2462 27.9505 18.5495 27.6994C19.0316 25.7741 18.2816 25.0742 16.2995 25.5995Z" fill="#332C1F"/>
<path fill-rule="evenodd" clip-rule="evenodd" d="M19.2996 25.5996C19.71 26.175 20.01 26.8251 20.1996 27.5496C20.5816 27.6958 20.9933 27.7473 21.3996 27.6996C22.1058 27.9975 22.4058 27.6975 22.2996 26.7996C22.8369 26.8398 23.3369 26.7396 23.7995 26.4996C23.2224 27.5754 22.4003 28.5003 21.3996 29.1995C20.8015 28.7966 20.2015 28.3967 19.5996 27.9996C19.3332 27.2331 19.2333 26.4333 19.2996 25.5996Z" fill="#9B8C69"/>
<path fill-rule="evenodd" clip-rule="evenodd" d="M15.0996 24.9995C16.4592 24.9041 17.7593 25.004 18.9995 25.2995C18.0356 25.2065 17.1356 25.3064 16.2996 25.5995C16.0008 25.5737 15.7506 25.6739 15.5496 25.8995C15.4013 26.4872 15.3506 27.0953 15.3996 27.6995C15.3276 28.2896 15.4278 28.8395 15.6996 29.3495C16.7928 29.4989 17.8973 29.5491 18.9995 29.4995V28.5995C19.5281 28.8281 19.8281 29.2283 19.8995 29.7995C19.8995 29.9996 19.7996 30.0995 19.5995 30.0995C17.5983 29.9118 15.5983 29.7118 13.5996 29.4995C14.0253 29.2142 14.5251 29.1143 15.0996 29.1995V24.9995Z" fill="#4B402D"/>
<path opacity="0.78" fill-rule="evenodd" clip-rule="evenodd" d="M24.3997 25.8994C24.6916 26.6338 24.7915 27.4339 24.6997 28.2994C23.5442 29.2279 22.2443 29.9277 20.7998 30.3993C20.8697 29.9307 21.0698 29.5308 21.3998 29.1994C22.4005 28.5001 23.2227 27.5752 23.7998 26.4994C23.8996 26.1994 24.0997 25.9993 24.3997 25.8994Z" fill="#66512C"/>
<path opacity="0.916" fill-rule="evenodd" clip-rule="evenodd" d="M9.3996 25.8994C9.84621 26.8037 10.4565 27.6174 11.1996 28.2994C11.5182 29.1628 12.1182 29.7627 12.9995 30.0993C13.233 30.4592 13.5396 30.7659 13.8995 30.9993H12.9995C12.1206 30.6396 11.2186 30.339 10.2996 30.0993C9.83985 28.9201 9.43935 27.7186 9.09961 26.4994C9.11251 26.2246 9.21241 26.0245 9.3996 25.8994Z" fill="#594522"/>
<path opacity="0.978" fill-rule="evenodd" clip-rule="evenodd" d="M19.5998 27.9995C20.2017 28.3966 20.8017 28.7966 21.3998 29.1995C21.0698 29.531 20.8697 29.9309 20.7998 30.3995C20.3141 30.561 19.8103 30.6617 19.2998 30.6995L19.5998 30.0995C19.7999 30.0995 19.8998 29.9996 19.8998 29.7995C20.1626 29.8385 20.3627 29.7386 20.4998 29.4995C20.1253 29.0482 19.8218 28.5423 19.5998 27.9995Z" fill="#7E6C4F"/>
<path opacity="0.808" fill-rule="evenodd" clip-rule="evenodd" d="M13.6 29.4995C15.5902 29.711 17.5902 29.9111 19.5999 30.0995L19.2999 30.6995C19.0998 30.6995 18.9999 30.7994 18.9999 30.9995H13.9C13.5401 30.7661 13.2334 30.4594 13 30.0995C13.3999 30.0995 13.6 29.8994 13.6 29.4995Z" fill="#685A46"/>
</svg>
