<svg width="32" height="32" viewBox="0 0 32 32" fill="none" xmlns="http://www.w3.org/2000/svg">
<path d="M25.3557 3C25.2404 3.00326 25.1272 3.03156 25.024 3.08292C25.024 3.08292 23.2533 4.10729 22.4875 4.51703C21.868 4.85849 21.8289 5.26823 21.8289 5.40969C21.8289 5.55115 21.8777 5.96089 22.4875 6.30235C23.2435 6.71697 25.024 7.73645 25.024 7.73645C25.1247 7.79442 25.2395 7.82314 25.3557 7.81938C25.5264 7.81938 25.6902 7.75154 25.811 7.63079C25.9317 7.51004 25.9995 7.34626 25.9995 7.17549C25.996 7.06027 25.9677 6.94715 25.9166 6.8438C25.8571 6.7492 25.7771 6.66919 25.6825 6.60966L23.4972 5.40969L25.6825 4.20972C25.7788 4.15077 25.8606 4.07071 25.9215 3.97558C25.9769 3.87582 26.0039 3.76279 25.9995 3.64876C26.0002 3.5638 25.984 3.47954 25.9519 3.40086C25.9199 3.32218 25.8725 3.25062 25.8127 3.19031C25.7528 3.13 25.6816 3.08214 25.6032 3.04948C25.5248 3.01681 25.4406 3 25.3557 3ZM9.23416 3.34145C8.94017 3.34291 8.64903 3.39916 8.37565 3.5073C8.10324 3.62025 7.8549 3.78415 7.64396 3.99022C7.43751 4.19903 7.27435 4.44658 7.16385 4.71864C7.05335 4.9907 6.9977 5.28191 7.00007 5.57554C7.00153 5.86953 7.05778 6.16067 7.16592 6.43405C7.28303 6.70422 7.44646 6.95184 7.64884 7.16574C7.85765 7.37219 8.1052 7.53535 8.37726 7.64584C8.64932 7.75634 8.94053 7.812 9.23416 7.80962C9.52815 7.80816 9.81929 7.75192 10.0927 7.64377C10.3628 7.52658 10.6104 7.36316 10.8244 7.16086C11.0352 6.95478 11.1984 6.70504 11.3024 6.42917C11.4153 6.15893 11.4718 5.86842 11.4682 5.57554C11.4689 5.28197 11.4115 4.99117 11.2995 4.71983C11.1874 4.44849 11.0229 4.20195 10.8153 3.99437C10.6077 3.78679 10.3612 3.62225 10.0899 3.5102C9.81852 3.39816 9.52772 3.34081 9.23416 3.34145ZM23.8679 24.5067C23.6859 24.5046 23.5081 24.561 23.3606 24.6677L23.2825 24.7165C21.3005 25.9944 19.006 26.7047 16.6486 26.7701H16.3266C13.9678 26.7001 11.6733 25.9847 9.69268 24.7018L9.64878 24.6872C9.50128 24.5712 9.31935 24.5077 9.13172 24.5067C8.92733 24.5149 8.73123 24.5898 8.57339 24.7199C8.41556 24.85 8.30466 25.0282 8.25766 25.2273C8.21065 25.4264 8.23012 25.6354 8.31308 25.8224C8.39605 26.0094 8.53795 26.164 8.7171 26.2628C10.9495 27.7215 13.5394 28.5398 16.2047 28.6286C16.3007 28.6286 16.3967 28.6253 16.4925 28.6188C19.2617 28.614 21.9687 27.7965 24.2776 26.2676C24.4275 26.1869 24.5528 26.0673 24.6403 25.9214C24.7279 25.7754 24.7745 25.6086 24.7752 25.4384C24.7771 25.318 24.7553 25.1983 24.711 25.0863C24.6667 24.9743 24.6008 24.8722 24.517 24.7856C24.4332 24.6991 24.3332 24.63 24.2226 24.5821C24.1121 24.5342 23.9883 24.5086 23.8679 24.5067Z" fill="white"/>
<path d="M9.29339 9.25796C8.7415 9.25713 8.20919 9.4624 7.80075 9.83355C7.60771 10.0066 7.45258 10.2177 7.34512 10.4536C7.23767 10.6895 7.18021 10.9451 7.17637 11.2042C7.17464 11.351 7.19436 11.4973 7.23491 11.6384L10.2299 22.8673C10.3598 23.2853 10.6239 23.6487 10.9811 23.9015C11.3506 24.1601 11.7898 24.3008 12.2407 24.3052C12.6917 24.3096 13.1335 24.1773 13.5079 23.9258C13.8574 23.6871 14.1248 23.3465 14.2737 22.9503V22.96L16.5029 17.0968L18.7322 22.96V22.9454C18.8761 23.3444 19.1446 23.6864 19.498 23.921C19.8719 24.1731 20.3134 24.3062 20.7644 24.3028C21.2154 24.2993 21.6548 24.1594 22.0247 23.9015C22.3861 23.6528 22.6512 23.2878 22.7759 22.8673L25.771 11.6384C25.8045 11.4959 25.8242 11.3505 25.8295 11.2042C25.825 10.9459 25.7672 10.6912 25.6598 10.4562C25.5524 10.2212 25.3976 10.0109 25.2051 9.83843C24.8186 9.48673 24.3202 9.28305 23.798 9.26341C23.2757 9.24377 22.7634 9.40944 22.3516 9.73112C21.9748 10.0174 21.7204 10.4356 21.6394 10.9018L20.4053 15.5358L18.5029 10.5506C18.4845 10.4991 18.4599 10.445 18.4297 10.3994L18.42 10.3604C18.3936 10.3146 18.3643 10.2706 18.3322 10.2287L18.3175 10.1896C18.2897 10.1424 18.257 10.0983 18.22 10.0579L18.1907 10.0189C18.1663 9.97989 18.1224 9.94087 18.0931 9.90184L18.0639 9.86282L17.9517 9.76038L17.9078 9.71648C17.8678 9.68892 17.8302 9.6579 17.7956 9.6238L17.7517 9.58478L17.6249 9.50673L17.5663 9.48234L17.4395 9.41893L17.3712 9.38966L17.2395 9.35064L17.1712 9.32625C17.1304 9.31198 17.0876 9.30376 17.0444 9.30186C17.0166 9.29028 16.9866 9.28527 16.9566 9.28723C16.9127 9.27259 16.8737 9.27259 16.8298 9.26284L16.7468 9.2482C16.7089 9.24969 16.671 9.24474 16.6347 9.23357H16.3761C16.3365 9.23162 16.2969 9.23657 16.2591 9.2482L16.1615 9.25796C16.1225 9.25796 16.0932 9.27259 16.0493 9.27259C16.0203 9.27501 15.9921 9.28331 15.9664 9.29698C15.9258 9.31299 15.883 9.32285 15.8396 9.32625L15.7664 9.35064L15.6396 9.38966L15.5664 9.41893C15.5218 9.43518 15.4793 9.45646 15.4396 9.48234L15.381 9.52137C15.3414 9.54409 15.3039 9.57021 15.2688 9.59941L15.2249 9.63844C15.1819 9.66172 15.1437 9.6932 15.1127 9.73112L15.0688 9.77014C15.0285 9.80086 14.9909 9.83515 14.9566 9.87258L14.9274 9.9116C14.8909 9.94712 14.8582 9.98636 14.8298 10.0287L14.8006 10.0677C14.77 10.1097 14.7423 10.1537 14.7176 10.1994L14.6884 10.2384L14.6006 10.3701L14.5859 10.4091L14.5128 10.5555V10.5652H14.503L12.6006 15.5553L11.3665 10.9213C11.2813 10.4554 11.0278 10.037 10.6543 9.74575C10.2718 9.42886 9.79015 9.25624 9.29339 9.25796Z" fill="#FBC506"/>
</svg>
