<svg width="32" height="32" viewBox="0 0 32 32" fill="none" xmlns="http://www.w3.org/2000/svg">
<path d="M28.917 11.2516C27.8937 8.8039 26.1683 6.71402 23.9585 5.24553C21.7487 3.77705 19.1535 2.99573 16.5001 3.00012C14.695 2.99239 12.9074 3.35372 11.2471 4.06192C8.01399 5.44129 5.43877 8.01604 4.05916 11.2486C3.35147 12.9118 2.9911 14.7021 3.00017 16.5096C2.99693 18.2836 3.34521 20.0406 4.02489 21.6793C4.70457 23.3179 5.70219 24.8057 6.96014 26.0568C8.18347 27.292 9.64088 28.2709 11.2471 28.9363C13.3009 29.8036 15.5375 30.1489 17.7573 29.9413C19.9771 29.7338 22.1109 28.9797 23.9681 27.7466C25.8254 26.5135 27.3483 24.8397 28.4008 22.8747C29.4534 20.9097 30.0028 18.7147 30 16.4856C29.9985 14.6845 29.63 12.9056 28.917 11.2516ZM12.0241 15.2378C12.2996 14.1614 12.9268 13.2079 13.8062 12.5286C14.6856 11.8493 15.7668 11.4833 16.8781 11.4885H26.25C26.8625 12.6549 27.2463 13.9274 27.381 15.2378H12.0241ZM27.384 17.7844C27.2381 19.0925 26.8549 20.363 26.253 21.5337H16.8781C15.7689 21.5307 14.6917 21.1615 13.814 20.4835C12.9362 19.8055 12.307 18.8567 12.0241 17.7844H27.384ZM8.74813 8.75604C10.805 6.70335 13.5924 5.55047 16.4986 5.55047C19.4047 5.55047 22.1922 6.70335 24.249 8.75604L24.438 8.94501H16.8781C15.8841 8.94024 14.8992 9.13354 13.9808 9.51361C13.0624 9.89367 12.2289 10.4529 11.5291 11.1586C10.4124 12.2596 9.67754 13.6891 9.43212 15.2378H5.61615C5.89426 12.7836 6.99869 10.4969 8.74813 8.75304V8.75604ZM16.5001 27.4725C13.813 27.4742 11.2191 26.4879 9.21217 24.7015C7.20523 22.915 5.92535 20.4531 5.61615 17.7844H9.43212C9.69767 19.3264 10.4295 20.7501 11.5291 21.8636C12.2288 22.5694 13.0623 23.1287 13.9807 23.5088C14.8991 23.8889 15.8841 24.0821 16.8781 24.0772H24.438L24.252 24.2661C23.2363 25.2868 22.0281 26.0957 20.6975 26.6461C19.3668 27.1965 17.9401 27.4774 16.5001 27.4725Z" fill="#4A4A4A"/>
</svg>
