<svg width="32" height="32" viewBox="0 0 32 32" fill="none" xmlns="http://www.w3.org/2000/svg">
<path d="M30 7H25.4855L23.4048 13.7074H27.8516L30 7ZM19.6597 13.3947L21.8952 18.5579L22.7032 15.9242H27.1355L24.6387 23.9437C24.5407 24.2503 24.345 24.5182 24.0804 24.7083C23.8157 24.8983 23.496 25.0005 23.1677 25H20.6516C20.3429 24.9974 20.042 24.905 19.787 24.7346C19.5319 24.5643 19.3344 24.3236 19.2194 24.0432L16.4613 17.3879L13.7274 24.0195C13.613 24.299 13.4162 24.5389 13.1619 24.7085C12.9077 24.8781 12.6076 24.9696 12.3 24.9716H9.75C9.42262 24.9711 9.10392 24.8684 8.84025 24.6784C8.57658 24.4885 8.38167 24.2211 8.28387 23.9153L3 7H7.44677L10.9597 18.5437L13.2823 13.3379C13.5298 12.7041 13.9692 12.1595 14.5417 11.777C15.1141 11.3944 15.7923 11.1922 16.4853 11.1973C17.1784 11.2025 17.8534 11.4148 18.4198 11.8058C18.9862 12.1968 19.4171 12.7479 19.6548 13.3853L19.6597 13.3947Z" fill="#4A4A4A"/>
</svg>
