<svg width="32" height="32" viewBox="0 0 32 32" fill="none" xmlns="http://www.w3.org/2000/svg">
<path d="M15.4794 4C15.4794 4.11743 15.5659 4.18542 15.6278 4.26577L21.277 12.6964C21.4006 12.8818 21.4006 12.9745 21.2152 13.1167C16.8392 16.4667 12.4714 19.8228 8.11191 23.1852C7.98338 23.285 7.82328 23.3355 7.66072 23.3273H4.23656C4.2242 23.2037 4.30455 23.1295 4.35399 23.0492L15.294 4.25341C15.3496 4.17306 15.3867 4.08653 15.43 4.00618L15.4794 4ZM10.7635 23.4262L29.2687 9.19804L29.1575 10.6196L28.8114 14.5753L28.4158 19.0502L28.0882 22.907C28.045 23.4262 28.0573 23.4262 27.5443 23.4262H10.7635ZM15.5845 25.027H27.7236C27.9522 25.027 28.0326 25.0703 28.0264 25.3175C28.0079 26.1168 28.0079 26.9164 28.0264 27.7157C28.0264 27.9506 27.9646 28 27.7359 28H3.37743C3.14256 28 3.06839 27.9444 3.07457 27.7033C3.09105 26.9039 3.09105 26.1046 3.07457 25.3052C3.07457 25.0703 3.13638 25.0209 3.36507 25.0209C7.44027 25.0291 11.5134 25.0312 15.5845 25.027Z" fill="#3067EF"/>
<path d="M2 8.87622L2.21015 9.0122L7.94592 13.0606C8.06953 13.1533 8.1437 13.209 8.04481 13.382C6.43781 16.1304 4.83492 18.8809 3.23616 21.6334L3.11872 21.8064L2 8.87622Z" fill="#3167EF"/>
</svg>
