<svg width="32" height="32" viewBox="0 0 32 32" fill="none" xmlns="http://www.w3.org/2000/svg">
<path d="M16.5 2C13.83 2 11.2199 2.79176 8.99981 4.27516C6.77974 5.75856 5.04941 7.86697 4.02763 10.3338C3.00585 12.8006 2.7385 15.515 3.2594 18.1337C3.78031 20.7525 5.06606 23.1579 6.95406 25.0459C8.84207 26.9339 11.2475 28.2197 13.8663 28.7406C16.485 29.2615 19.1994 28.9942 21.6662 27.9724C24.133 26.9506 26.2414 25.2203 27.7248 23.0002C29.2082 20.7801 30 18.17 30 15.5C30 11.9196 28.5777 8.4858 26.0459 5.95406C23.5142 3.42232 20.0804 2 16.5 2ZM18.303 12.32L16.932 11.54C16.7965 11.4603 16.6422 11.4183 16.485 11.4183C16.3278 11.4183 16.1735 11.4603 16.038 11.54L13.269 13.139C13.1349 13.2171 13.0237 13.3293 12.9468 13.4642C12.8699 13.599 12.83 13.7518 12.831 13.907V17.09C12.8292 17.2473 12.8697 17.4021 12.9484 17.5383C13.027 17.6745 13.1409 17.787 13.278 17.864L16.038 19.466C16.1733 19.5463 16.3277 19.5886 16.485 19.5886C16.6423 19.5886 16.7967 19.5463 16.932 19.466L23.115 15.89V18.494C23.1201 18.7465 23.0571 18.9956 22.9325 19.2153C22.8079 19.4349 22.6263 19.6169 22.407 19.742L17.214 22.742C16.9955 22.8696 16.747 22.9368 16.494 22.9368C16.241 22.9368 15.9925 22.8696 15.774 22.742L10.584 19.742C10.3616 19.6186 10.1766 19.4376 10.0483 19.218C9.92001 18.9984 9.85324 18.7483 9.855 18.494C9.864 16.499 9.855 14.504 9.855 12.503C9.85265 12.2493 9.91851 11.9996 10.0457 11.78C10.1729 11.5605 10.3567 11.3792 10.578 11.255L15.771 8.264C15.9878 8.13298 16.2362 8.06373 16.4895 8.06373C16.7428 8.06373 16.9912 8.13298 17.208 8.264L22.407 11.255C22.6335 11.408 22.8189 11.6143 22.9471 11.8557C23.0753 12.097 23.1424 12.3662 23.1424 12.6395C23.1424 12.9128 23.0753 13.182 22.9471 13.4233C22.8189 13.6647 22.6335 13.871 22.407 14.024L16.626 17.354C16.5861 17.3793 16.5398 17.3928 16.4925 17.3928C16.4452 17.3928 16.3989 17.3793 16.359 17.354L14.958 16.544C14.9157 16.5214 14.8805 16.4876 14.8562 16.4464C14.8318 16.4051 14.8193 16.3579 14.82 16.31V14.696C14.8198 14.6474 14.8325 14.5996 14.8567 14.5574C14.881 14.5153 14.9159 14.4803 14.958 14.456L18.303 12.53C18.3218 12.5196 18.3374 12.5044 18.3483 12.4859C18.3592 12.4675 18.3649 12.4464 18.3649 12.425C18.3649 12.4036 18.3592 12.3825 18.3483 12.3641C18.3374 12.3456 18.3218 12.3304 18.303 12.32Z" fill="url(#paint0_linear_22_1577)"/>
<defs>
<linearGradient id="paint0_linear_22_1577" x1="-6.62099" y1="-12.244" x2="39.156" y2="42.689" gradientUnits="userSpaceOnUse">
<stop stop-color="#273498"/>
<stop offset="0.53" stop-color="#0074C2"/>
<stop offset="1" stop-color="#00ABE7"/>
</linearGradient>
</defs>
</svg>
