<svg width="32" height="32" viewBox="0 0 32 32" fill="none" xmlns="http://www.w3.org/2000/svg">
<path d="M18.8171 3.10122C17.6929 3.89258 16.7776 4.95141 16.1516 6.18478C15.5255 7.41816 15.2078 8.78838 15.2263 10.1752C15.2299 11.2101 14.964 12.2277 14.4553 13.1252C13.9467 14.0226 13.2133 14.7682 12.3293 15.2867L12.1794 15.3879C11.4519 15.7988 10.6467 16.0492 9.81693 16.1224C8.9871 16.1957 8.15137 16.0903 7.36461 15.813C6.57786 15.5358 5.8579 15.0931 5.25201 14.5139C4.64613 13.9347 4.16803 13.2323 3.84913 12.4526C3.74203 12.1045 3.65859 11.7494 3.59938 11.3898C3.24916 9.77783 3.0485 8.13621 3 6.48638C3.04474 6.44532 3.09523 6.41121 3.14985 6.38516C7.24898 4.16823 11.8229 3.00576 16.4695 3C17.2687 3 18.0179 3.05061 18.8171 3.10122ZM22.4078 22.7655C22.4245 24.0822 22.0021 25.3661 21.209 26.4093C20.9593 26.6624 20.7096 26.9154 20.4099 27.1629C19.29 28.1734 18.0889 29.0875 16.8191 29.8957C16.7192 29.9463 16.7192 29.9969 16.5194 29.9969C16.3943 30.0113 16.2686 29.9749 16.1698 29.8957C11.6649 26.9797 8.05323 22.8471 5.74162 17.9633C6.95058 18.5162 8.26989 18.7765 9.59526 18.7238C10.9206 18.6711 12.2157 18.3068 13.3782 17.6597C13.4679 17.6207 13.5519 17.5697 13.628 17.5078C14.5035 17.0352 15.4802 16.7881 16.4723 16.7881C17.4643 16.7881 18.441 17.0352 19.3165 17.5078L19.5163 17.6597C20.3944 18.1831 21.1227 18.9291 21.6297 19.8244C22.1367 20.7197 22.4049 21.7333 22.4078 22.7655ZM30 6.52574C29.7849 12.0493 28.0321 17.3986 24.9441 21.9558C24.8157 20.6156 24.38 19.3244 23.6718 18.185C22.9635 17.0457 22.0024 16.0898 20.865 15.3935L20.643 15.281C19.7618 14.7453 19.033 13.9869 18.5281 13.08C18.0232 12.1732 17.7594 11.1489 17.7626 10.1077V10.0515C17.7973 8.47961 18.4362 6.98354 19.5432 5.8818C20.6503 4.78006 22.1381 4.15969 23.6898 4.15275C23.9814 4.14215 24.2733 4.16099 24.5612 4.20899L25.5934 4.54075C26.9631 4.99617 28.2924 5.56803 29.5671 6.2502L29.8391 6.4189L30 6.52574Z" fill="#2D82DC"/>
</svg>
