<svg width="32" height="32" viewBox="0 0 32 32" fill="none" xmlns="http://www.w3.org/2000/svg">
<path d="M28 8.98911C27.9516 6.95662 27.5944 4.94272 26.9402 3.01439C24.4397 2.90614 21.9509 3.41005 19.6967 4.481C17.5195 5.62597 15.7246 7.36574 14.5278 9.4911C13.9429 10.5295 12.6482 12.7295 12.6482 12.7295C10.8987 12.74 9.17376 13.1352 7.59925 13.886C6.14077 14.7669 4.90894 15.9679 4 17.3951C4.94475 17.1404 5.91987 17.0113 6.8994 17.0112C7.86474 17.068 8.81474 17.2757 9.71381 17.6264C9.50978 18.004 9.41633 18.4299 9.44387 18.8568C9.6658 19.3714 10.0316 19.8134 10.4986 20.1314C10.4194 20.2554 10.3273 20.3708 10.2237 20.4759C8.10914 23.4092 7.63924 26.6475 9.16892 27.7253C10.6936 28.7687 13.633 27.2627 15.7476 24.295C15.8218 24.2116 15.8871 24.1209 15.9425 24.0243C16.3095 24.3281 16.7604 24.5166 17.2372 24.5657C17.7855 24.4628 18.2813 24.1779 18.642 23.7586C19.3279 24.599 19.9305 25.5021 20.4416 26.4556C20.7189 27.2794 20.8902 28.1342 20.9515 29C22.0498 27.6437 22.79 26.0408 23.106 24.3344C23.4205 22.7173 23.1574 21.0429 22.3612 19.595C22.3612 19.595 23.7709 17.8971 25.2606 16.1253C27.0034 14.1411 27.9742 11.6122 28 8.98911ZM15.2327 23.6405C13.823 25.491 11.8284 26.3768 10.7686 25.6091C9.70881 24.8413 9.98875 22.7152 11.3985 20.8303C11.9833 21.2142 12.5732 21.6374 13.0781 21.9868C13.748 22.4839 14.5278 23.104 15.2727 23.606C15.2629 23.6059 15.2534 23.6094 15.246 23.6158C15.2386 23.6221 15.2339 23.6309 15.2327 23.6405ZM20.5965 14.0435C19.7606 14.0435 18.9589 13.7166 18.3679 13.1347C17.7768 12.5527 17.4447 11.7635 17.4447 10.9405C17.4447 10.1175 17.7768 9.32825 18.3679 8.74633C18.9589 8.1644 19.7606 7.83747 20.5965 7.83747C21.4318 7.83747 22.2328 8.16414 22.8235 8.74561C23.4141 9.32707 23.7459 10.1157 23.7459 10.938C23.7459 11.7603 23.4141 12.549 22.8235 13.1305C22.2328 13.7119 21.4318 14.0435 20.5965 14.0435Z" fill="#3C87C8"/>
</svg>
