<svg width="32" height="32" viewBox="0 0 32 32" fill="none" xmlns="http://www.w3.org/2000/svg">
<path d="M6.72674 19.7374V8.40646L15.505 17.1878L24.28 8.41593V19.7374H28.3221C28.9922 17.7089 29.1715 15.5503 28.8451 13.439C28.5187 11.3277 27.696 9.32404 26.4445 7.5926C25.1931 5.86117 23.5486 4.45141 21.6463 3.47918C19.744 2.50695 17.6382 2 15.5018 2C13.3655 2 11.2596 2.50695 9.35729 3.47918C7.45498 4.45141 5.81053 5.86117 4.55908 7.5926C3.30763 9.32404 2.4849 11.3277 2.15851 13.439C1.83212 15.5503 2.01138 17.7089 2.68156 19.7374H6.72674Z" fill="#F07A32"/>
<path d="M21.3557 22.4856V15.3229L15.4583 21.2108L9.6051 15.3607V22.4856H3.95068C5.15351 24.4738 6.84902 26.118 8.87323 27.2592C10.8974 28.4004 13.1819 29 15.5056 29C17.8294 29 20.1138 28.4004 22.138 27.2592C24.1622 26.118 25.8577 24.4738 27.0606 22.4856H21.3557Z" fill="#324664"/>
</svg>
