<svg width="32" height="32" viewBox="0 0 32 32" fill="none" xmlns="http://www.w3.org/2000/svg">
<path d="M21.7773 19.0792C21.0961 18.4168 20.2773 17.8893 19.3702 17.5285C18.4632 17.1677 17.4868 16.9812 16.5 16.9802C15.5139 16.9807 14.5381 17.1671 13.6319 17.5279C12.7257 17.8887 11.9079 18.4165 11.2281 19.0792L3.41087 26.604L3 27H7.42885L13.4585 21.203C13.8368 20.8323 14.2902 20.5344 14.7926 20.3264C15.2951 20.1183 15.8368 20.0041 16.3868 19.9903C16.9368 19.9765 17.4844 20.0634 17.9982 20.246C18.5121 20.4286 18.9821 20.7033 19.3814 21.0545L19.5415 21.203L25.4911 26.9307L25.5658 26.9951H30L21.7773 19.0792ZM25.5231 5L19.5468 10.7525C19.1549 11.1353 18.6832 11.4402 18.1603 11.6487C17.6375 11.8572 17.0744 11.9649 16.5053 11.9653C15.9358 11.9646 15.3671 11.8562 14.8442 11.6468C14.3212 11.4375 13.8498 11.1315 13.4585 10.7475L7.55692 5.06931L7.48221 5H3.05336L11.2281 12.8713C11.9071 13.5337 12.724 14.0612 13.6293 14.4221C14.5346 14.7829 15.5094 14.9694 16.4947 14.9703H16.5053C17.4931 14.9702 18.4706 14.7842 19.3786 14.4234C20.2867 14.0626 21.1063 13.5346 21.7879 12.8713L29.5518 5.39604L29.9626 5H25.5231Z" fill="#23324B"/>
</svg>
