<svg width="32" height="32" viewBox="0 0 32 32" fill="none" xmlns="http://www.w3.org/2000/svg">
<path d="M18.604 16.1574C18.6632 16.1926 18.7298 16.2126 18.7983 16.2157C18.8667 16.2189 18.9349 16.2051 18.9969 16.1754C19.4314 16.044 19.8912 16.0254 20.3346 16.1214C21.3759 16.2971 22.3434 16.7815 23.1167 17.5142C23.89 18.2469 24.4348 19.1955 24.6832 20.2418C25.1642 21.893 25.0959 23.6601 24.4889 25.2674C24.2337 26.0068 23.8187 26.6781 23.2745 27.2315C22.7304 27.785 22.0711 28.2065 21.3456 28.4647C19.638 29.1609 17.7366 29.1786 16.0169 28.5142C15.3145 28.2194 14.7123 27.721 14.2846 27.0807C13.857 26.4404 13.6227 25.6863 13.6108 24.9117C13.5959 24.6888 13.627 24.4652 13.7021 24.2554C13.7773 24.0455 13.8949 23.8541 14.0472 23.6936C14.1996 23.5331 14.3833 23.4071 14.5865 23.3237C14.7897 23.2403 15.0078 23.2014 15.2267 23.2095C15.6008 23.2046 15.9661 23.3252 16.2666 23.5527C16.567 23.7802 16.786 24.102 16.8897 24.4687C16.9935 24.8354 16.9764 25.2267 16.8411 25.5825C16.7057 25.9383 16.4596 26.2389 16.1405 26.4383C15.911 26.5644 16.0169 26.6409 16.1229 26.749C16.5362 27.1094 17.0476 27.3324 17.5886 27.3884C18.1763 27.5518 18.7946 27.5636 19.388 27.4229C19.9813 27.2822 20.5311 26.9934 20.988 26.5824C21.5221 26.0558 21.8896 25.3783 22.0431 24.637C22.4897 22.9768 22.4125 21.2153 21.8224 19.6024C21.6543 19.1527 21.3928 18.7453 21.0559 18.4084C20.719 18.0714 20.3146 17.8128 19.8705 17.6502C19.4264 17.4877 18.953 17.4251 18.4829 17.4666C18.0129 17.5082 17.5572 17.653 17.1471 17.8912C16.7056 18.1524 16.2332 18.3685 15.7653 18.6117C15.7247 18.4488 15.7219 18.2785 15.7572 18.1144C15.7925 17.9502 15.8647 17.7967 15.9683 17.666C17.6283 15.4189 19.2662 13.1628 20.9129 10.9112L21.2043 10.5059C21.1204 10.3888 21.0145 10.4384 20.9218 10.4384C18.5996 10.4339 16.273 10.4384 13.9464 10.4293C13.6682 10.4293 13.602 10.5104 13.602 10.7896C13.6153 13.2619 13.6108 15.7341 13.6064 18.2064C13.5952 18.5662 13.6429 18.9254 13.7477 19.2691C13.8028 19.5185 13.9143 19.7513 14.0733 19.9489C14.2323 20.1465 14.4344 20.3034 14.6635 20.4071C14.8926 20.5108 15.1422 20.5584 15.3926 20.5462C15.6429 20.5339 15.8869 20.4621 16.1052 20.3364C16.7135 20.0348 17.2306 19.5712 17.6018 18.9945C17.7343 18.8143 17.8446 18.6387 18.1051 18.7243C18.2161 18.7596 18.3139 18.8285 18.3856 18.9217C18.4573 19.015 18.4996 19.1283 18.5069 19.2466C18.5333 19.495 18.4823 19.7455 18.3612 19.9626C18.0822 20.5984 17.6203 21.1326 17.0369 21.4945C16.4534 21.8564 15.776 22.0289 15.0942 21.9891C14.5762 21.9736 14.0598 21.9209 13.549 21.8315C12.7827 21.7069 12.0887 21.2976 11.6005 20.6824C11.1123 20.0672 10.8644 19.2895 10.9046 18.4991C10.8957 15.9473 10.8987 13.3955 10.9134 10.8436C10.9134 10.4879 10.8119 10.4248 10.4896 10.4293C9.42121 10.4519 8.35282 10.4293 7.28444 10.4429C7.07253 10.4429 6.98865 10.3843 7.0019 10.1592C7.02075 9.86826 7.02075 9.57642 7.0019 9.28553C6.98424 9.03785 7.09019 8.98832 7.31093 8.98832C8.39697 8.99733 9.48743 8.98382 10.5779 9.00183C10.8648 9.00183 10.9311 8.91176 10.9222 8.64157C10.9083 7.753 10.9083 6.86425 10.9222 5.97567C10.9333 5.87543 10.9197 5.77396 10.8827 5.68041C10.8457 5.58686 10.7865 5.50417 10.7103 5.43979C10.5779 5.33171 10.4896 5.18311 10.3527 5.08854C10.2212 4.98676 10.121 4.84873 10.0639 4.69074C10.0068 4.53275 9.99519 4.3614 10.0304 4.1969C10.0393 4.0528 10.0878 4.00327 10.2291 4.00327C10.9973 4.01227 11.7743 3.98075 12.5425 4.02128C12.9071 4.10509 13.2492 4.26958 13.5446 4.50312C13.6594 4.56617 13.6064 4.71027 13.6064 4.81835C13.6064 6.08825 13.6197 7.35816 13.602 8.62806C13.5976 8.93878 13.6903 8.99733 13.9729 8.99733C17.103 8.97481 20.233 8.9658 23.3631 8.94779C23.476 8.9387 23.5894 8.95725 23.6938 9.00189C23.7983 9.04654 23.8908 9.116 23.9635 9.20447C24.144 9.4176 24.3387 9.61772 24.5463 9.8034C24.7008 9.9385 24.692 10.0286 24.5463 10.1682C23.8311 10.8887 23.1292 11.6182 22.4228 12.3432L18.8468 15.9953C18.771 16.057 18.6897 16.1112 18.604 16.1574Z" fill="#2461CB"/>
</svg>
