<svg width="32" height="32" viewBox="0 0 32 32" fill="none" xmlns="http://www.w3.org/2000/svg">
<path d="M15.0923 24.2963V7.92236H17.0397V24.2963H15.0923Z" fill="#006AE3"/>
<path d="M25 13.3786L18.9938 14.8365L17.6502 9.12087L19.4385 8.75063L20.1407 11.458C20.6008 10.6824 20.7968 9.78131 20.6998 8.88732C20.6029 7.99334 20.2182 7.15375 19.6023 6.49216C19.1964 6.01119 18.69 5.62275 18.1179 5.35354C17.5458 5.08432 16.9215 4.94069 16.2879 4.93252C15.1759 4.78376 14.0473 5.04306 13.1157 5.66135C12.184 6.27965 11.5138 7.21406 11.232 8.28783C10.8668 10.301 11.2788 11.7959 14.1157 13.7489L13.9566 15.924C12.4489 14.9856 11.1051 13.8119 9.97737 12.4484C9.36469 11.4636 9.06044 10.3216 9.10292 9.16615C9.1454 8.01073 9.53273 6.89357 10.2161 5.95531C10.9796 4.91491 12.0124 4.09689 13.2059 3.58713C14.3995 3.07736 15.7099 2.89465 16.9995 3.05818C17.8366 3.13167 18.6501 3.3717 19.391 3.76385C20.132 4.156 20.7851 4.69218 21.3111 5.34016C21.8371 5.98815 22.2252 6.73457 22.4521 7.53458C22.6789 8.33459 22.7399 9.17169 22.6312 9.99556C22.4974 10.7163 22.2855 11.4208 21.9992 12.0967L24.4663 11.5922L25 13.3786ZM21.5685 26.189C20.7751 27.2081 19.7203 27.9988 18.5135 28.4789C17.3067 28.9591 15.9919 29.1112 14.7056 28.9195C13.8711 28.8267 13.0644 28.5674 12.3343 28.1573C11.6042 27.7472 10.9659 27.1948 10.4582 26.5336C9.95042 25.8724 9.58376 25.1162 9.38041 24.3107C9.17706 23.5053 9.14125 22.6674 9.27516 21.8479C9.42969 21.1311 9.66198 20.4328 9.96801 19.7653L7.48687 20.2049L7 18.4139L13.0531 17.0996L14.2328 22.8475L12.4304 23.1715L11.8078 20.4456C11.3252 21.2078 11.1029 22.1031 11.1737 22.9996C11.2445 23.8961 11.6046 24.7464 12.201 25.4253C12.593 25.9163 13.0882 26.3171 13.6525 26.6C14.2167 26.8829 14.8364 27.0411 15.4687 27.0637C16.5782 27.2361 17.7132 27.0027 18.6612 26.4072C19.6091 25.8117 20.3049 24.8949 20.6182 23.8287C21.0442 21.8294 20.6697 20.3253 17.8936 18.3028L18.1183 16.1277C19.6001 17.1017 20.911 18.3086 21.9992 19.7005C22.58 20.7043 22.8489 21.8549 22.7723 23.0088C22.6957 24.1628 22.277 25.2688 21.5685 26.189Z" fill="#006AE3"/>
</svg>
