<svg width="32" height="32" viewBox="0 0 32 32" fill="none" xmlns="http://www.w3.org/2000/svg">
<path d="M26.7556 8.96637C26.7556 8.33011 26.6647 7.78473 26.0285 7.60294C25.6649 7.3757 18.2115 3.78534 16.7117 3.05817C16.7117 3.05817 16.439 2.96728 16.3936 3.01273C16.3481 2.96728 16.0754 3.05817 16.0754 3.05817C14.5756 3.78534 7.12222 7.3757 6.75864 7.60294C6.12237 7.78473 6.03148 8.33011 6.03148 8.96637C5.95582 10.6804 6.01661 12.3976 6.21327 14.102C6.62061 19.2286 9.01865 23.992 12.8941 27.3727C13.0285 27.4445 13.1511 27.5364 13.2577 27.6454C14.1435 28.1868 15.0704 28.6579 16.03 29.0543C16.1466 29.1006 16.2689 29.1312 16.3936 29.1452C16.5183 29.1312 16.6405 29.1006 16.7571 29.0543C17.7167 28.6579 18.6436 28.1868 19.5294 27.6454C19.636 27.5364 19.7586 27.4445 19.893 27.3727C23.7685 23.992 26.1665 19.2286 26.5738 14.102C26.7705 12.3976 26.8313 10.6804 26.7556 8.96637ZM9.39461 9.87533C9.5764 9.73898 13.6667 7.78473 15.53 6.92123C15.8027 7.14847 16.03 7.3757 16.1663 7.51205C16.1663 7.51205 16.3481 7.69384 16.3936 7.60294C16.439 7.69384 16.6208 7.51205 16.6208 7.51205C16.7571 7.3757 16.9844 7.14847 17.2571 6.92123C19.075 7.73929 23.2107 9.73898 23.3925 9.87533C23.8924 10.0117 23.9833 10.4207 23.9833 10.8752C24.0146 12.1202 23.9538 13.3658 23.8015 14.6019C23.5257 18.358 21.778 21.8533 18.9386 24.3277C18.8477 24.3277 18.8023 24.4186 18.6659 24.5095C18.0237 24.9025 17.3556 25.2518 16.6662 25.5548C16.5753 25.5548 16.5299 25.6002 16.3936 25.6002C16.3027 25.6002 16.2572 25.5548 16.1663 25.5548C15.4579 25.2614 14.774 24.9118 14.1212 24.5095C13.9848 24.4186 13.9394 24.3277 13.8485 24.3277C11.0091 21.8533 9.26143 18.358 8.98558 14.6019C8.83328 13.3658 8.77251 12.1202 8.80379 10.8752C8.80379 10.4207 8.89468 10.0117 9.39461 9.87533Z" fill="url(#paint0_linear_22_1612)"/>
<path d="M24.9844 8.46676C24.6663 8.28497 18.0309 5.05818 16.6675 4.42191C16.6675 4.42191 16.4402 4.37646 16.3948 4.37646C16.3494 4.37646 16.1221 4.42191 16.1221 4.42191C14.7587 5.05818 8.12332 8.28497 7.80518 8.46676C7.21436 8.64855 7.12347 9.14847 7.12347 9.69385C7.07054 11.2263 7.1313 12.7606 7.30526 14.2841C7.46566 16.5629 8.0741 18.7876 9.09573 20.8309C10.1174 22.8742 11.5321 24.6958 13.2589 26.1914C13.3498 26.2368 13.4407 26.3277 13.577 26.4186C14.3717 26.9145 15.2081 27.3403 16.0767 27.6911C16.1722 27.7503 16.2824 27.7816 16.3948 27.7816C16.5072 27.7816 16.6174 27.7503 16.7129 27.6911C17.5815 27.3403 18.4178 26.9145 19.2126 26.4186C19.3489 26.3277 19.4398 26.2368 19.5307 26.1914C21.2575 24.6958 22.6722 22.8742 23.6939 20.8309C24.7155 18.7876 25.3239 16.5629 25.4843 14.2841C25.6583 12.7606 25.7191 11.2263 25.6661 9.69385C25.6661 9.14847 25.5752 8.64855 24.9844 8.46676ZM18.6672 24.5098C18.0249 24.9028 17.3568 25.2521 16.6675 25.5551C16.5766 25.5551 16.5311 25.6005 16.3948 25.6005C16.3039 25.6005 16.2585 25.5551 16.1676 25.5551C15.4591 25.2617 14.7752 24.9121 14.1224 24.5098C13.9861 24.4189 13.9406 24.328 13.8497 24.328C11.0103 21.8536 9.26268 18.3583 8.98682 14.6022C8.83452 13.3661 8.77376 12.1205 8.80503 10.8755C8.80503 10.421 8.89593 10.012 9.39585 9.87564C9.57764 9.73929 13.6679 7.78504 15.5313 6.92154C15.804 7.14877 16.0312 7.37601 16.1676 7.51236C16.1676 7.51236 16.3494 7.69415 16.3948 7.60325C16.4402 7.69415 16.622 7.51236 16.622 7.51236C16.7584 7.37601 16.9856 7.14877 17.2583 6.92154C19.0762 7.7396 23.212 9.73929 23.3937 9.87564C23.8937 10.012 23.9846 10.421 23.9846 10.8755C24.0158 12.1205 23.9551 13.3661 23.8028 14.6022C23.5269 18.3583 21.7793 21.8536 18.9399 24.328C18.849 24.328 18.8035 24.4189 18.6672 24.5098Z" fill="#050203"/>
<path d="M24.2106 9.19379C23.9834 9.05745 20.2567 7.23954 18.0297 6.14879C17.3935 5.83066 16.8935 5.60342 16.6209 5.46708C16.5461 5.44748 16.4702 5.4323 16.3936 5.42163C16.317 5.4323 16.2412 5.44748 16.1664 5.46708C15.8937 5.60342 15.3938 5.83066 14.7575 6.14879C12.5306 7.23954 8.80385 9.05745 8.57661 9.19379C8.03124 9.33013 7.94035 9.78461 7.94035 10.2845C7.88744 11.6809 7.94824 13.0792 8.12214 14.4657C8.26692 16.5406 8.82378 18.5658 9.76018 20.423C10.6966 22.2802 11.9937 23.9321 13.5759 25.2823C13.6631 25.3456 13.7398 25.4223 13.8031 25.5095C14.543 25.9515 15.3183 26.3316 16.1209 26.6457C16.1996 26.7047 16.2953 26.7366 16.3936 26.7366C16.492 26.7366 16.5876 26.7047 16.6663 26.6457C17.4729 26.3408 18.249 25.9603 18.9841 25.5095C19.0474 25.4223 19.1241 25.3456 19.2114 25.2823C22.4036 22.5466 24.3812 18.6569 24.7105 14.4657C24.8467 13.0764 24.8923 11.6797 24.8469 10.2845C24.8469 9.78461 24.756 9.33013 24.2106 9.19379ZM23.8016 14.6021C23.5257 18.3582 21.7781 21.8535 18.9387 24.3279C18.8478 24.3279 18.8023 24.4188 18.666 24.5097C18.0237 24.9027 17.3556 25.2519 16.6663 25.555C16.5754 25.555 16.53 25.6004 16.3936 25.6004C16.3027 25.6004 16.2573 25.555 16.1664 25.555C15.4579 25.2615 14.774 24.912 14.1212 24.5097C13.9849 24.4188 13.9394 24.3279 13.8485 24.3279C11.0092 21.8535 9.2615 18.3582 8.98564 14.6021C8.83334 13.366 8.77258 12.1204 8.80385 10.8754C8.80385 10.4209 8.89475 10.0118 9.39467 9.87551C9.57646 9.73916 13.6668 7.78491 15.5301 6.92141C15.8028 7.14864 16.03 7.37588 16.1664 7.51223C16.1664 7.51223 16.3482 7.69402 16.3936 7.60312C16.4391 7.69402 16.6209 7.51223 16.6209 7.51223C16.7572 7.37588 16.9844 7.14864 17.2571 6.92141C19.075 7.73946 23.2108 9.73916 23.3926 9.87551C23.8925 10.0118 23.9834 10.4209 23.9834 10.8754C24.0147 12.1204 23.9539 13.366 23.8016 14.6021Z" fill="url(#paint1_linear_22_1612)"/>
<path d="M23.9834 10.8751C24.0147 12.1201 23.9539 13.3657 23.8016 14.6018C23.5258 18.3579 21.7781 21.8533 18.9387 24.3276C18.8478 24.3276 18.8024 24.4185 18.666 24.5094C18.0237 24.9025 17.3557 25.2517 16.6663 25.5547C16.5754 25.5547 16.53 25.6001 16.3936 25.6001C16.3027 25.6001 16.2573 25.5547 16.1664 25.5547C15.4579 25.2613 14.774 24.9117 14.1213 24.5094C13.9849 24.4185 13.9395 24.3276 13.8486 24.3276C11.0092 21.8533 9.26151 18.3579 8.98566 14.6018C8.83336 13.3657 8.7726 12.1201 8.80387 10.8751C8.80387 10.4206 8.89477 10.0116 9.39469 9.87524C9.57648 9.7389 13.6668 7.78465 15.5301 6.92114C15.8028 7.14838 16.0301 7.37562 16.1664 7.51196C16.1664 7.51196 16.3482 7.69375 16.3936 7.60286C16.4391 7.69375 16.6209 7.51196 16.6209 7.51196C16.7572 7.37562 16.9845 7.14838 17.2571 6.92114C19.0751 7.7392 23.2108 9.7389 23.3926 9.87524C23.8925 10.0116 23.9834 10.4206 23.9834 10.8751Z" fill="url(#paint2_linear_22_1612)"/>
<path d="M16.2631 9.83261C16.4087 9.83261 16.5267 9.7146 16.5267 9.56902C16.5267 9.42344 16.4087 9.30542 16.2631 9.30542C16.1175 9.30542 15.9995 9.42344 15.9995 9.56902C15.9995 9.7146 16.1175 9.83261 16.2631 9.83261Z" fill="#ADCEBA"/>
<path d="M16.2645 9.75656C16.3683 9.75656 16.4524 9.67246 16.4524 9.56871C16.4524 9.46496 16.3683 9.38086 16.2645 9.38086C16.1608 9.38086 16.0767 9.46496 16.0767 9.56871C16.0767 9.67246 16.1608 9.75656 16.2645 9.75656Z" fill="#AEEDFA"/>
<path d="M18.6207 16.9428L21.7293 11.1391L21.0658 10.1029H17.9163L18.4026 11.08L17.0028 13.7887L15.0576 10.1029H10.7446L14.2668 16.0702V21.8648L13.6896 22.9101H19.157L18.6207 21.9375V16.9428Z" fill="url(#paint3_linear_22_1612)"/>
<path opacity="0.8" d="M21.0649 10.1025L21.7285 11.1387L18.6199 16.9379V21.9371L19.1607 22.9052H13.6888L14.266 21.8599V16.0744L10.7438 10.1071H15.0568L17.0019 13.7929L18.4017 11.0842L17.9154 10.1071L21.0649 10.1025ZM21.2922 9.69351H17.2473L17.5427 10.2934L17.9381 11.0797L16.9974 12.8976L15.4203 9.91166L15.3022 9.68896H10.0166L10.3893 10.3161L13.8524 16.188V21.7553L13.3252 22.7097L12.9843 23.3233H19.8606L19.5197 22.7097L19.0334 21.8326V17.0424L22.0921 11.3342L22.2102 11.1206L22.0784 10.9161L21.4149 9.87985L21.2922 9.69351Z" fill="url(#paint4_linear_22_1612)"/>
<defs>
<linearGradient id="paint0_linear_22_1612" x1="9.4446" y1="20.4737" x2="25.8058" y2="7.68475" gradientUnits="userSpaceOnUse">
<stop stop-color="#CFA35B"/>
<stop offset="1" stop-color="#D6C063"/>
</linearGradient>
<linearGradient id="paint1_linear_22_1612" x1="18.3979" y1="16.8199" x2="4.95443" y2="6.19424" gradientUnits="userSpaceOnUse">
<stop stop-color="#BF9C4F"/>
<stop offset="1" stop-color="#F2E69C"/>
</linearGradient>
<linearGradient id="paint2_linear_22_1612" x1="22.5791" y1="20.1873" x2="9.32197" y2="9.71163" gradientUnits="userSpaceOnUse">
<stop stop-color="#0131A5"/>
<stop offset="0.995" stop-color="#002277"/>
</linearGradient>
<linearGradient id="paint3_linear_22_1612" x1="12.8125" y1="13.4342" x2="21.9248" y2="19.5651" gradientUnits="userSpaceOnUse">
<stop stop-color="#4580E2"/>
<stop offset="0.995" stop-color="#002277"/>
</linearGradient>
<linearGradient id="paint4_linear_22_1612" x1="10.0166" y1="16.5061" x2="22.2057" y2="16.5061" gradientUnits="userSpaceOnUse">
<stop stop-color="#BF9C4F"/>
<stop offset="1" stop-color="#F2E69C"/>
</linearGradient>
</defs>
</svg>
