<svg width="32" height="32" viewBox="0 0 32 32" fill="none" xmlns="http://www.w3.org/2000/svg">
<path d="M14.6554 21.0315H23.7994V25.3507H18.3988V29H13.7077V25.4657H8.07939C7.9421 24.063 7.98299 22.65 8.20116 21.2565C8.32294 20.5966 9.13833 19.9317 9.72605 19.2669C11.4892 17.2723 13.247 15.2826 15.1267 13.288C15.8309 12.5082 16.5298 11.8483 17.3505 10.9635H8.56121V6.6443H13.7183V3H18.2929V6.53932H23.9212C24.0577 7.93864 24.0168 9.34834 23.7994 10.7385C23.6777 11.4034 22.8623 12.0683 22.2746 12.7381C20.5114 14.7277 18.7536 16.7174 16.8739 18.712C16.1697 19.4918 15.4708 20.2617 14.6501 21.0365L14.6554 21.0315Z" fill="black"/>
<path d="M14.6554 21.0315H23.7994V25.3507H18.3988V29H13.7077V25.4657H8.07939C7.9421 24.063 7.98299 22.65 8.20116 21.2565C8.32294 20.5966 9.13833 19.9317 9.72605 19.2669C11.4892 17.2723 13.247 15.2826 15.1267 13.288C15.8309 12.5082 16.5298 11.8483 17.3505 10.9635H8.56121V6.6443H13.7183V3H18.2929V6.53932H23.9212C24.0577 7.93864 24.0168 9.34834 23.7994 10.7385C23.6777 11.4034 22.8623 12.0683 22.2746 12.7381C20.5114 14.7277 18.7536 16.7174 16.8739 18.712C16.1697 19.4918 15.4708 20.2617 14.6501 21.0365L14.6554 21.0315Z" fill="url(#paint0_linear_22_1623)"/>
<defs>
<linearGradient id="paint0_linear_22_1623" x1="8" y1="21.9583" x2="25.4703" y2="17.7027" gradientUnits="userSpaceOnUse">
<stop stop-color="#D48E2A"/>
<stop offset="1" stop-color="#F8C653"/>
</linearGradient>
</defs>
</svg>
