<svg width="32" height="32" viewBox="0 0 32 32" fill="none" xmlns="http://www.w3.org/2000/svg">
<path d="M6.71369 15.5071C6.70788 16.6197 6.89809 17.7247 7.27558 18.7713C8.03291 17.8997 8.88942 17.1194 9.82772 16.4465C9.78463 16.1351 9.76028 15.8214 9.7548 15.5071C9.7548 13.7063 10.4702 11.9793 11.7435 10.7059C13.0169 9.43254 14.744 8.71717 16.5448 8.71717C18.3456 8.71717 20.0726 9.43254 21.346 10.7059C22.6194 11.9793 23.3347 13.7063 23.3347 15.5071C19.9136 14.7721 16.3467 15.1596 13.1632 16.6123C9.97981 18.0649 7.34955 20.5052 5.66281 23.571C4.17073 21.5608 3.26631 19.1756 3.05037 16.6815C2.83444 14.1873 3.31549 11.6822 4.43988 9.44543C5.56427 7.20866 7.28782 5.32813 9.41836 4.01352C11.5489 2.6989 14.0027 2.00186 16.5062 2.00011C19.3377 1.98846 22.0987 2.88274 24.3856 4.55225L20.8941 6.76553C19.5359 6.07127 18.0316 5.71101 16.5062 5.71465C13.9097 5.71692 11.4203 6.74936 9.58435 8.58531C7.74839 10.4213 6.71596 12.9107 6.71369 15.5071Z" fill="#041742"/>
<path d="M27.4974 7.66638L25.2841 11.1536C25.9491 12.5087 26.2953 13.9978 26.2964 15.5072C26.2953 18.104 25.2632 20.5941 23.427 22.4303C21.5908 24.2665 19.1007 25.2986 16.5039 25.2997C14.9945 25.2986 13.5054 24.9524 12.1503 24.2874L8.66309 26.5007C11.2642 28.3536 14.4378 29.2245 17.6203 28.9588C20.8028 28.6932 23.7881 27.3081 26.0461 25.0497C28.304 22.7913 29.6884 19.8056 29.9533 16.6231C30.2182 13.4405 29.3466 10.2671 27.4931 7.66638H27.4974Z" fill="url(#paint0_linear_22_1626)"/>
<path d="M16.5446 22.2975C18.1268 22.3029 19.6609 21.7542 20.8809 20.7466C22.1008 19.7391 22.9294 18.3362 23.223 16.7814C22.0494 16.5487 20.855 16.4366 19.6586 16.4469C18.3795 16.4117 17.1021 16.5634 15.8668 16.8972C14.0748 17.3813 12.3937 18.2087 10.917 19.3336C11.5401 20.2511 12.3793 21.0014 13.3607 21.5182C14.342 22.0351 15.4354 22.3027 16.5446 22.2975Z" fill="url(#paint1_linear_22_1626)"/>
<defs>
<linearGradient id="paint0_linear_22_1626" x1="8.66309" y1="18.3382" x2="30.011" y2="18.3382" gradientUnits="userSpaceOnUse">
<stop stop-color="#0F9DE5"/>
<stop offset="0.195" stop-color="#10A0E0"/>
<stop offset="0.419" stop-color="#14AAD2"/>
<stop offset="0.658" stop-color="#1ABABB"/>
<stop offset="0.904" stop-color="#22D19C"/>
<stop offset="1" stop-color="#26DB8D"/>
</linearGradient>
<linearGradient id="paint1_linear_22_1626" x1="10.917" y1="19.3679" x2="23.223" y2="19.3679" gradientUnits="userSpaceOnUse">
<stop stop-color="#0F9DE5"/>
<stop offset="0.195" stop-color="#10A0E0"/>
<stop offset="0.419" stop-color="#14AAD2"/>
<stop offset="0.658" stop-color="#1ABABB"/>
<stop offset="0.904" stop-color="#22D19C"/>
<stop offset="1" stop-color="#26DB8D"/>
</linearGradient>
</defs>
</svg>
