<svg width="32" height="32" viewBox="0 0 32 32" fill="none" xmlns="http://www.w3.org/2000/svg">
<path d="M25 13.5297L21.3349 15.1657L11.6006 20.1188L21.3349 24.8006V17.0638L25 15.4097V26.8388L21.3349 28.4748L7 21.6146V17.9721L16.9242 13.1049L7 8.33718V4.63595L10.7283 3L25 9.86919V13.5297Z" fill="#49C1BF"/>
<path d="M7 4.63595L21.3304 11.5051L25 9.86919L10.7283 3L7 4.63595Z" fill="#077A8F"/>
<path d="M21.3345 11.4914L24.9996 9.85547V13.516L21.3345 15.152V11.4914Z" fill="#298E97"/>
<path d="M7 4.64062V8.34186L16.9242 13.1051L7 17.9723V21.6193L21.3304 28.4794V24.8098L11.6051 20.1189L21.3394 15.1659V11.5053L7 4.64062Z" fill="#49C1BF"/>
<path d="M21.3345 28.452L24.9996 26.816V15.387L21.3345 17.041V28.452Z" fill="#298E97"/>
</svg>
