<svg width="32" height="32" viewBox="0 0 32 32" fill="none" xmlns="http://www.w3.org/2000/svg">
<path d="M16.039 3.00475H16.8471C17.3557 3.03327 17.8644 3.06654 18.3682 3.13783C20.101 3.37675 21.7696 3.95494 23.2787 4.83929C22.9316 5.11494 22.5656 5.35733 22.2091 5.61873C19.8133 7.3297 17.427 9.05492 15.0312 10.7659C14.8363 10.6043 14.67 10.4142 14.4846 10.2431C13.9379 9.7203 13.4055 9.17849 12.8541 8.66045C12.6572 8.74138 12.4666 8.8367 12.2837 8.94561C11.029 9.65275 9.96655 10.6563 9.18912 11.8685C8.18332 10.5897 7.20389 9.29033 6.25143 7.97131L6.17062 7.83348C6.53058 7.40332 6.91802 6.99691 7.33049 6.61679C9.41813 4.67825 12.0652 3.44896 14.8934 3.10456C15.2737 3.05228 15.654 3.04277 16.0342 3L16.039 3.00475ZM22.5989 8.0521C23.445 7.41049 24.2959 6.77363 25.1658 6.16053C27.184 7.84586 28.6646 10.0851 29.4249 12.6019C30.1851 15.1187 30.1918 17.803 29.444 20.3235C29.1542 21.3058 28.7523 22.2515 28.2461 23.1419C28.1728 23.0699 28.1074 22.9902 28.0512 22.9042L23.1456 16.4263C22.8271 16.0033 22.5038 15.5851 22.1901 15.1574C22.9031 14.3922 23.6542 13.6508 24.372 12.8808C23.872 11.7993 23.1553 10.832 22.2661 10.0387C21.911 9.72765 21.5346 9.44179 21.1396 9.18324C21.6149 8.79352 22.1093 8.42756 22.5989 8.0521ZM3.95071 11.5596C4.18675 10.9531 4.4713 10.3666 4.8016 9.80584C5.27695 10.4047 5.72854 11.0225 6.19914 11.6309L10.639 17.4482C10.7409 17.5729 10.8361 17.703 10.9242 17.8379C10.1779 18.6173 9.41254 19.3778 8.66623 20.1619C8.85383 20.5826 9.07978 20.9851 9.34124 21.3644C9.72731 21.9304 10.1789 22.4488 10.6865 22.909C11.0569 23.2412 11.4509 23.5461 11.8654 23.8215C11.5089 24.1209 11.1333 24.3966 10.7625 24.6817C10.1097 25.1855 9.44898 25.6798 8.78032 26.1646C8.46658 26.388 8.16236 26.6303 7.83912 26.8395C5.72936 25.0693 4.2089 22.6987 3.48011 20.0431C3.19869 18.9971 3.03761 17.9224 3 16.8398V16.1649L3.04754 15.4615C3.15081 14.1214 3.45528 12.8091 3.95071 11.5596ZM22.9316 22.3006C23.2583 21.9343 23.5585 21.5451 23.8301 21.1362C24.1295 21.507 24.4195 21.8872 24.7095 22.2674C25.432 23.2179 26.1498 24.1732 26.8486 25.1475C26.639 25.4157 26.412 25.6698 26.1688 25.9079C24.2104 27.9181 21.6755 29.27 18.9149 29.7766C18.2642 29.892 17.6069 29.9667 16.9469 30H15.9772C15.6872 29.962 15.3925 29.9525 15.1025 29.924C13.2067 29.7292 11.3749 29.1295 9.73103 28.1655C10.2919 27.7377 10.8576 27.3242 11.4185 26.9012L17.8548 22.0963C18.2161 22.429 18.5631 22.7902 18.9196 23.1324C19.338 23.5316 19.742 23.9498 20.1651 24.3443C21.2153 23.856 22.1563 23.1609 22.9316 22.3006Z" fill="#1D2227"/>
</svg>
