<svg width="32" height="32" viewBox="0 0 32 32" fill="none" xmlns="http://www.w3.org/2000/svg">
  <path d="M18.2869 22.9805C20.3022 24.2695 22.2699 25.5504 24.32 26.885C24.0537 27.1023 23.856 27.3077 23.6199 27.4493C21.2738 28.8558 18.9101 30.2333 16.5772 31.6611C15.7895 32.1431 15.0916 32.0923 14.3457 31.6272C11.9785 30.151 9.60214 28.6896 7.23345 27.2158C5.77964 26.3113 4.32963 25.4005 2.88535 24.4809C2.16743 24.0238 1.96018 23.371 2.07978 22.5273C2.55716 19.1595 2.99389 15.7859 3.45096 12.4151C3.59015 11.3886 3.73354 10.3623 3.89829 9.33971C4.07006 8.27348 5.27447 7.52172 6.34493 8.18683C8.30724 9.40605 10.256 10.6471 12.2095 11.8804C12.2442 11.9023 12.2622 11.9532 12.2978 11.9706C13.8026 12.7066 13.6711 12.712 13.4314 14.5913C13.2495 16.0172 13.0111 17.4362 12.8504 18.8642C12.8242 19.0975 13.0038 19.4547 13.2018 19.5958C14.3541 20.4175 15.5387 21.1941 16.7157 21.9809C17.2194 22.3176 17.7311 22.6423 18.2869 22.9805Z" fill="#1F2938"/>
  <path d="M13.8411 9.01948C11.8258 7.73047 9.85813 6.44956 7.80802 5.11498C8.07431 4.89774 8.27201 4.69225 8.50811 4.5507C10.8542 3.14418 13.2179 1.76673 15.5509 0.338947C16.3385 -0.143108 17.0364 -0.0922737 17.7823 0.372837C20.1495 1.84898 22.5259 3.31045 24.8946 4.78421C26.3484 5.68875 27.7984 6.59951 29.2427 7.51912C29.9606 7.97625 30.1678 8.62895 30.0482 9.47268C29.5709 12.8405 29.1341 16.2141 28.6771 19.5849C28.5379 20.6114 28.3945 21.6377 28.2297 22.6603C28.058 23.7265 26.8535 24.4783 25.7831 23.8132C23.8208 22.594 21.872 21.3529 19.9185 20.1196C19.8838 20.0977 19.8658 20.0468 19.8302 20.0294C18.3254 19.2934 18.4569 19.288 18.6966 17.4087C18.8785 15.9828 19.1169 14.5638 19.2776 13.1358C19.3038 12.9025 19.1242 12.5453 18.9263 12.4042C17.7739 11.5825 16.5893 10.8059 15.4123 10.0191C14.9086 9.68237 14.3969 9.35769 13.8411 9.01948Z" fill="#144BFF"/>
</svg>
